<svg width="14" height="14" viewBox="0 0 14 14" fill="none" xmlns="http://www.w3.org/2000/svg">
<path d="M7.0006 8.0797C6.8706 8.0797 6.7406 8.0497 6.6206 7.9797L1.32061 4.9197C0.960614 4.7097 0.840594 4.2497 1.05059 3.8997C1.26059 3.5397 1.72061 3.4197 2.07061 3.6297L6.9906 6.4797L11.8806 3.6497C12.2406 3.4397 12.7006 3.5697 12.9006 3.9197C13.1006 4.2697 12.9806 4.7397 12.6306 4.9397L7.3706 7.9797C7.2606 8.0397 7.1306 8.0797 7.0006 8.0797Z" fill="#9197B3"/>
<path d="M7 13.5201C6.59 13.5201 6.25 13.1801 6.25 12.7701V7.33011C6.25 6.92011 6.59 6.58011 7 6.58011C7.41 6.58011 7.75 6.92011 7.75 7.33011V12.7701C7.75 13.1801 7.41 13.5201 7 13.5201Z" fill="#9197B3"/>
<path d="M7.0002 13.7498C6.4202 13.7498 5.8503 13.6198 5.3903 13.3698L2.19025 11.5898C1.23025 11.0598 0.490234 9.78981 0.490234 8.68981V5.2998C0.490234 4.20981 1.24025 2.9398 2.19025 2.3998L5.3903 0.619805C6.3103 0.109805 7.6902 0.109805 8.6102 0.619805L11.8102 2.3998C12.7702 2.9298 13.5103 4.19981 13.5103 5.2998V8.68981C13.5103 9.77981 12.7602 11.0498 11.8102 11.5898L8.6102 13.3698C8.1502 13.6298 7.5802 13.7498 7.0002 13.7498ZM7.0002 1.7498C6.6702 1.7498 6.3502 1.8098 6.1202 1.9398L2.92026 3.7198C2.43026 3.9898 1.99023 4.7498 1.99023 5.2998V8.68981C1.99023 9.24981 2.43026 9.9998 2.92026 10.2698L6.1202 12.0498C6.5802 12.3098 7.4202 12.3098 7.8802 12.0498L11.0802 10.2698C11.5702 9.9998 12.0103 9.23981 12.0103 8.68981V5.2998C12.0103 4.73981 11.5702 3.9898 11.0802 3.7198L7.8802 1.9398C7.6502 1.8098 7.3302 1.7498 7.0002 1.7498Z" fill="#9197B3"/>
</svg>
