<svg width="424" height="498" viewBox="0 0 424 498" fill="none" xmlns="http://www.w3.org/2000/svg">
<g filter="url(#filter0_d_0_95)">
<path d="M60 80C60 63.4315 73.4315 50 90 50H334C350.569 50 364 63.4315 364 80V398C364 414.569 350.569 428 334 428H90C73.4315 428 60 414.569 60 398V80Z" fill="white"/>
</g>
<path d="M98.77 90.3C98.77 88.7893 99.1073 87.44 99.782 86.252C100.471 85.0493 101.403 84.118 102.576 83.458C103.764 82.7833 105.091 82.446 106.558 82.446C108.274 82.446 109.777 82.886 111.068 83.766C112.359 84.646 113.261 85.8633 113.774 87.418H110.232C109.88 86.6847 109.381 86.1347 108.736 85.768C108.105 85.4013 107.372 85.218 106.536 85.218C105.641 85.218 104.842 85.4307 104.138 85.856C103.449 86.2667 102.906 86.8533 102.51 87.616C102.129 88.3787 101.938 89.2733 101.938 90.3C101.938 91.312 102.129 92.2067 102.51 92.984C102.906 93.7467 103.449 94.3407 104.138 94.766C104.842 95.1767 105.641 95.382 106.536 95.382C107.372 95.382 108.105 95.1987 108.736 94.832C109.381 94.4507 109.88 93.8933 110.232 93.16H113.774C113.261 94.7293 112.359 95.954 111.068 96.834C109.792 97.6993 108.289 98.132 106.558 98.132C105.091 98.132 103.764 97.802 102.576 97.142C101.403 96.4673 100.471 95.536 99.782 94.348C99.1073 93.16 98.77 91.8107 98.77 90.3ZM127.691 85.812V98H124.589V96.46C124.193 96.988 123.672 97.406 123.027 97.714C122.396 98.0073 121.707 98.154 120.959 98.154C120.005 98.154 119.162 97.956 118.429 97.56C117.695 97.1493 117.116 96.5553 116.691 95.778C116.28 94.986 116.075 94.0473 116.075 92.962V85.812H119.155V92.522C119.155 93.49 119.397 94.238 119.881 94.766C120.365 95.2793 121.025 95.536 121.861 95.536C122.711 95.536 123.379 95.2793 123.863 94.766C124.347 94.238 124.589 93.49 124.589 92.522V85.812H127.691ZM135.174 98.198C134.176 98.198 133.282 98.022 132.49 97.67C131.698 97.3033 131.067 96.812 130.598 96.196C130.143 95.58 129.894 94.898 129.85 94.15H132.952C133.01 94.6193 133.238 95.008 133.634 95.316C134.044 95.624 134.55 95.778 135.152 95.778C135.738 95.778 136.193 95.6607 136.516 95.426C136.853 95.1913 137.022 94.8907 137.022 94.524C137.022 94.128 136.816 93.8347 136.406 93.644C136.01 93.4387 135.372 93.2187 134.492 92.984C133.582 92.764 132.834 92.5367 132.248 92.302C131.676 92.0673 131.177 91.708 130.752 91.224C130.341 90.74 130.136 90.0873 130.136 89.266C130.136 88.5913 130.326 87.9753 130.708 87.418C131.104 86.8607 131.661 86.4207 132.38 86.098C133.113 85.7753 133.971 85.614 134.954 85.614C136.406 85.614 137.564 85.9807 138.43 86.714C139.295 87.4327 139.772 88.408 139.86 89.64H136.912C136.868 89.156 136.662 88.7747 136.296 88.496C135.944 88.2027 135.467 88.056 134.866 88.056C134.308 88.056 133.876 88.1587 133.568 88.364C133.274 88.5693 133.128 88.8553 133.128 89.222C133.128 89.6327 133.333 89.948 133.744 90.168C134.154 90.3733 134.792 90.586 135.658 90.806C136.538 91.026 137.264 91.2533 137.836 91.488C138.408 91.7227 138.899 92.0893 139.31 92.588C139.735 93.072 139.955 93.7173 139.97 94.524C139.97 95.228 139.772 95.8587 139.376 96.416C138.994 96.9733 138.437 97.4133 137.704 97.736C136.985 98.044 136.142 98.198 135.174 98.198ZM145.864 88.342V94.238C145.864 94.6487 145.959 94.9493 146.15 95.14C146.355 95.316 146.693 95.404 147.162 95.404H148.592V98H146.656C144.06 98 142.762 96.7387 142.762 94.216V88.342H141.31V85.812H142.762V82.798H145.864V85.812H148.592V88.342H145.864ZM155.999 98.198C154.826 98.198 153.77 97.9413 152.831 97.428C151.893 96.9 151.152 96.1593 150.609 95.206C150.081 94.2527 149.817 93.1527 149.817 91.906C149.817 90.6593 150.089 89.5593 150.631 88.606C151.189 87.6527 151.944 86.9193 152.897 86.406C153.851 85.878 154.914 85.614 156.087 85.614C157.261 85.614 158.324 85.878 159.277 86.406C160.231 86.9193 160.979 87.6527 161.521 88.606C162.079 89.5593 162.357 90.6593 162.357 91.906C162.357 93.1527 162.071 94.2527 161.499 95.206C160.942 96.1593 160.179 96.9 159.211 97.428C158.258 97.9413 157.187 98.198 155.999 98.198ZM155.999 95.514C156.557 95.514 157.077 95.382 157.561 95.118C158.06 94.8393 158.456 94.4287 158.749 93.886C159.043 93.3433 159.189 92.6833 159.189 91.906C159.189 90.7473 158.881 89.86 158.265 89.244C157.664 88.6133 156.923 88.298 156.043 88.298C155.163 88.298 154.423 88.6133 153.821 89.244C153.235 89.86 152.941 90.7473 152.941 91.906C152.941 93.0647 153.227 93.9593 153.799 94.59C154.386 95.206 155.119 95.514 155.999 95.514ZM179.533 85.636C181.029 85.636 182.231 86.098 183.141 87.022C184.065 87.9313 184.527 89.2073 184.527 90.85V98H181.447V91.268C181.447 90.3147 181.205 89.5887 180.721 89.09C180.237 88.5767 179.577 88.32 178.741 88.32C177.905 88.32 177.237 88.5767 176.739 89.09C176.255 89.5887 176.013 90.3147 176.013 91.268V98H172.933V91.268C172.933 90.3147 172.691 89.5887 172.207 89.09C171.723 88.5767 171.063 88.32 170.227 88.32C169.376 88.32 168.701 88.5767 168.203 89.09C167.719 89.5887 167.477 90.3147 167.477 91.268V98H164.397V85.812H167.477V87.286C167.873 86.7727 168.379 86.3693 168.995 86.076C169.625 85.7827 170.315 85.636 171.063 85.636C172.016 85.636 172.867 85.8413 173.615 86.252C174.363 86.648 174.942 87.22 175.353 87.968C175.749 87.264 176.321 86.6993 177.069 86.274C177.831 85.8487 178.653 85.636 179.533 85.636ZM198.559 91.642C198.559 92.082 198.53 92.478 198.471 92.83H189.561C189.635 93.71 189.943 94.3993 190.485 94.898C191.028 95.3967 191.695 95.646 192.487 95.646C193.631 95.646 194.445 95.1547 194.929 94.172H198.251C197.899 95.3453 197.225 96.3133 196.227 97.076C195.23 97.824 194.005 98.198 192.553 98.198C191.38 98.198 190.324 97.9413 189.385 97.428C188.461 96.9 187.735 96.1593 187.207 95.206C186.694 94.2527 186.437 93.1527 186.437 91.906C186.437 90.6447 186.694 89.5373 187.207 88.584C187.721 87.6307 188.439 86.8973 189.363 86.384C190.287 85.8707 191.351 85.614 192.553 85.614C193.712 85.614 194.746 85.8633 195.655 86.362C196.579 86.8607 197.291 87.572 197.789 88.496C198.303 89.4053 198.559 90.454 198.559 91.642ZM195.369 90.762C195.355 89.97 195.069 89.3393 194.511 88.87C193.954 88.386 193.272 88.144 192.465 88.144C191.703 88.144 191.057 88.3787 190.529 88.848C190.016 89.3027 189.701 89.9407 189.583 90.762H195.369ZM203.667 87.704C204.063 87.0587 204.577 86.5527 205.207 86.186C205.853 85.8193 206.586 85.636 207.407 85.636V88.87H206.593C205.625 88.87 204.892 89.0973 204.393 89.552C203.909 90.0067 203.667 90.7987 203.667 91.928V98H200.587V85.812H203.667V87.704ZM213.926 98.198C212.929 98.198 212.034 98.022 211.242 97.67C210.45 97.3033 209.819 96.812 209.35 96.196C208.895 95.58 208.646 94.898 208.602 94.15H211.704C211.763 94.6193 211.99 95.008 212.386 95.316C212.797 95.624 213.303 95.778 213.904 95.778C214.491 95.778 214.945 95.6607 215.268 95.426C215.605 95.1913 215.774 94.8907 215.774 94.524C215.774 94.128 215.569 93.8347 215.158 93.644C214.762 93.4387 214.124 93.2187 213.244 92.984C212.335 92.764 211.587 92.5367 211 92.302C210.428 92.0673 209.929 91.708 209.504 91.224C209.093 90.74 208.888 90.0873 208.888 89.266C208.888 88.5913 209.079 87.9753 209.46 87.418C209.856 86.8607 210.413 86.4207 211.132 86.098C211.865 85.7753 212.723 85.614 213.706 85.614C215.158 85.614 216.317 85.9807 217.182 86.714C218.047 87.4327 218.524 88.408 218.612 89.64H215.664C215.62 89.156 215.415 88.7747 215.048 88.496C214.696 88.2027 214.219 88.056 213.618 88.056C213.061 88.056 212.628 88.1587 212.32 88.364C212.027 88.5693 211.88 88.8553 211.88 89.222C211.88 89.6327 212.085 89.948 212.496 90.168C212.907 90.3733 213.545 90.586 214.41 90.806C215.29 91.026 216.016 91.2533 216.588 91.488C217.16 91.7227 217.651 92.0893 218.062 92.588C218.487 93.072 218.707 93.7173 218.722 94.524C218.722 95.228 218.524 95.8587 218.128 96.416C217.747 96.9733 217.189 97.4133 216.456 97.736C215.737 98.044 214.894 98.198 213.926 98.198Z" fill="black"/>
<path d="M98.602 121.114C98.602 120.162 98.8167 119.308 99.246 118.552C99.6753 117.787 100.259 117.189 100.996 116.76C101.743 116.331 102.569 116.116 103.474 116.116C104.538 116.116 105.467 116.373 106.26 116.886C107.053 117.399 107.632 118.127 107.996 119.07H106.47C106.199 118.482 105.807 118.029 105.294 117.712C104.79 117.395 104.183 117.236 103.474 117.236C102.793 117.236 102.181 117.395 101.64 117.712C101.099 118.029 100.674 118.482 100.366 119.07C100.058 119.649 99.904 120.33 99.904 121.114C99.904 121.889 100.058 122.57 100.366 123.158C100.674 123.737 101.099 124.185 101.64 124.502C102.181 124.819 102.793 124.978 103.474 124.978C104.183 124.978 104.79 124.824 105.294 124.516C105.807 124.199 106.199 123.746 106.47 123.158H107.996C107.632 124.091 107.053 124.815 106.26 125.328C105.467 125.832 104.538 126.084 103.474 126.084C102.569 126.084 101.743 125.874 100.996 125.454C100.259 125.025 99.6753 124.432 99.246 123.676C98.8167 122.92 98.602 122.066 98.602 121.114ZM116.556 118.328V126H115.282V124.866C115.04 125.258 114.699 125.566 114.26 125.79C113.831 126.005 113.355 126.112 112.832 126.112C112.235 126.112 111.698 125.991 111.222 125.748C110.746 125.496 110.368 125.123 110.088 124.628C109.818 124.133 109.682 123.531 109.682 122.822V118.328H110.942V122.654C110.942 123.41 111.134 123.993 111.516 124.404C111.899 124.805 112.422 125.006 113.084 125.006C113.766 125.006 114.302 124.796 114.694 124.376C115.086 123.956 115.282 123.345 115.282 122.542V118.328H116.556ZM121.284 126.126C120.696 126.126 120.168 126.028 119.702 125.832C119.235 125.627 118.866 125.347 118.596 124.992C118.325 124.628 118.176 124.213 118.148 123.746H119.464C119.501 124.129 119.678 124.441 119.996 124.684C120.322 124.927 120.747 125.048 121.27 125.048C121.755 125.048 122.138 124.941 122.418 124.726C122.698 124.511 122.838 124.241 122.838 123.914C122.838 123.578 122.688 123.331 122.39 123.172C122.091 123.004 121.629 122.841 121.004 122.682C120.434 122.533 119.968 122.383 119.604 122.234C119.249 122.075 118.941 121.847 118.68 121.548C118.428 121.24 118.302 120.839 118.302 120.344C118.302 119.952 118.418 119.593 118.652 119.266C118.885 118.939 119.216 118.683 119.646 118.496C120.075 118.3 120.565 118.202 121.116 118.202C121.965 118.202 122.651 118.417 123.174 118.846C123.696 119.275 123.976 119.863 124.014 120.61H122.74C122.712 120.209 122.548 119.887 122.25 119.644C121.96 119.401 121.568 119.28 121.074 119.28C120.616 119.28 120.252 119.378 119.982 119.574C119.711 119.77 119.576 120.027 119.576 120.344C119.576 120.596 119.655 120.806 119.814 120.974C119.982 121.133 120.187 121.263 120.43 121.366C120.682 121.459 121.027 121.567 121.466 121.688C122.016 121.837 122.464 121.987 122.81 122.136C123.155 122.276 123.449 122.491 123.692 122.78C123.944 123.069 124.074 123.447 124.084 123.914C124.084 124.334 123.967 124.712 123.734 125.048C123.5 125.384 123.169 125.65 122.74 125.846C122.32 126.033 121.834 126.126 121.284 126.126ZM127.296 119.378V123.9C127.296 124.273 127.375 124.539 127.534 124.698C127.693 124.847 127.968 124.922 128.36 124.922H129.298V126H128.15C127.441 126 126.909 125.837 126.554 125.51C126.199 125.183 126.022 124.647 126.022 123.9V119.378H125.028V118.328H126.022V116.396H127.296V118.328H129.298V119.378H127.296ZM134.048 126.126C133.329 126.126 132.676 125.963 132.088 125.636C131.509 125.309 131.052 124.847 130.716 124.25C130.389 123.643 130.226 122.943 130.226 122.15C130.226 121.366 130.394 120.675 130.73 120.078C131.075 119.471 131.542 119.009 132.13 118.692C132.718 118.365 133.376 118.202 134.104 118.202C134.832 118.202 135.49 118.365 136.078 118.692C136.666 119.009 137.128 119.467 137.464 120.064C137.809 120.661 137.982 121.357 137.982 122.15C137.982 122.943 137.804 123.643 137.45 124.25C137.104 124.847 136.633 125.309 136.036 125.636C135.438 125.963 134.776 126.126 134.048 126.126ZM134.048 125.006C134.505 125.006 134.934 124.899 135.336 124.684C135.737 124.469 136.059 124.147 136.302 123.718C136.554 123.289 136.68 122.766 136.68 122.15C136.68 121.534 136.558 121.011 136.316 120.582C136.073 120.153 135.756 119.835 135.364 119.63C134.972 119.415 134.547 119.308 134.09 119.308C133.623 119.308 133.194 119.415 132.802 119.63C132.419 119.835 132.111 120.153 131.878 120.582C131.644 121.011 131.528 121.534 131.528 122.15C131.528 122.775 131.64 123.303 131.864 123.732C132.097 124.161 132.405 124.483 132.788 124.698C133.17 124.903 133.59 125.006 134.048 125.006ZM148.743 118.188C149.34 118.188 149.872 118.314 150.339 118.566C150.805 118.809 151.174 119.177 151.445 119.672C151.715 120.167 151.851 120.769 151.851 121.478V126H150.591V121.66C150.591 120.895 150.399 120.311 150.017 119.91C149.643 119.499 149.135 119.294 148.491 119.294C147.828 119.294 147.301 119.509 146.909 119.938C146.517 120.358 146.321 120.969 146.321 121.772V126H145.061V121.66C145.061 120.895 144.869 120.311 144.487 119.91C144.113 119.499 143.605 119.294 142.961 119.294C142.298 119.294 141.771 119.509 141.379 119.938C140.987 120.358 140.791 120.969 140.791 121.772V126H139.517V118.328H140.791V119.434C141.043 119.033 141.379 118.725 141.799 118.51C142.228 118.295 142.699 118.188 143.213 118.188C143.857 118.188 144.426 118.333 144.921 118.622C145.415 118.911 145.784 119.336 146.027 119.896C146.241 119.355 146.596 118.935 147.091 118.636C147.585 118.337 148.136 118.188 148.743 118.188ZM160.801 121.87C160.801 122.113 160.787 122.369 160.758 122.64H154.626C154.673 123.396 154.93 123.989 155.397 124.418C155.873 124.838 156.447 125.048 157.118 125.048C157.669 125.048 158.127 124.922 158.491 124.67C158.864 124.409 159.125 124.063 159.275 123.634H160.647C160.441 124.371 160.031 124.973 159.415 125.44C158.799 125.897 158.033 126.126 157.118 126.126C156.391 126.126 155.737 125.963 155.158 125.636C154.589 125.309 154.141 124.847 153.814 124.25C153.488 123.643 153.324 122.943 153.324 122.15C153.324 121.357 153.483 120.661 153.8 120.064C154.118 119.467 154.561 119.009 155.13 118.692C155.709 118.365 156.372 118.202 157.118 118.202C157.847 118.202 158.491 118.361 159.051 118.678C159.611 118.995 160.04 119.434 160.339 119.994C160.647 120.545 160.801 121.17 160.801 121.87ZM159.484 121.604C159.484 121.119 159.377 120.703 159.162 120.358C158.948 120.003 158.654 119.737 158.281 119.56C157.917 119.373 157.51 119.28 157.062 119.28C156.418 119.28 155.868 119.485 155.41 119.896C154.962 120.307 154.706 120.876 154.64 121.604H159.484ZM163.616 119.574C163.84 119.135 164.157 118.795 164.568 118.552C164.988 118.309 165.497 118.188 166.094 118.188V119.504H165.758C164.33 119.504 163.616 120.279 163.616 121.828V126H162.342V118.328H163.616V119.574ZM170.141 126.126C169.553 126.126 169.025 126.028 168.559 125.832C168.092 125.627 167.723 125.347 167.453 124.992C167.182 124.628 167.033 124.213 167.005 123.746H168.321C168.358 124.129 168.535 124.441 168.853 124.684C169.179 124.927 169.604 125.048 170.127 125.048C170.612 125.048 170.995 124.941 171.275 124.726C171.555 124.511 171.695 124.241 171.695 123.914C171.695 123.578 171.545 123.331 171.247 123.172C170.948 123.004 170.486 122.841 169.861 122.682C169.291 122.533 168.825 122.383 168.461 122.234C168.106 122.075 167.798 121.847 167.537 121.548C167.285 121.24 167.159 120.839 167.159 120.344C167.159 119.952 167.275 119.593 167.509 119.266C167.742 118.939 168.073 118.683 168.503 118.496C168.932 118.3 169.422 118.202 169.973 118.202C170.822 118.202 171.508 118.417 172.031 118.846C172.553 119.275 172.833 119.863 172.871 120.61H171.597C171.569 120.209 171.405 119.887 171.107 119.644C170.817 119.401 170.425 119.28 169.931 119.28C169.473 119.28 169.109 119.378 168.839 119.574C168.568 119.77 168.433 120.027 168.433 120.344C168.433 120.596 168.512 120.806 168.671 120.974C168.839 121.133 169.044 121.263 169.287 121.366C169.539 121.459 169.884 121.567 170.323 121.688C170.873 121.837 171.321 121.987 171.667 122.136C172.012 122.276 172.306 122.491 172.549 122.78C172.801 123.069 172.931 123.447 172.941 123.914C172.941 124.334 172.824 124.712 172.591 125.048C172.357 125.384 172.026 125.65 171.597 125.846C171.177 126.033 170.691 126.126 170.141 126.126ZM179.746 119.378V123.9C179.746 124.273 179.825 124.539 179.984 124.698C180.142 124.847 180.418 124.922 180.81 124.922H181.748V126H180.6C179.89 126 179.358 125.837 179.004 125.51C178.649 125.183 178.472 124.647 178.472 123.9V119.378H177.478V118.328H178.472V116.396H179.746V118.328H181.748V119.378H179.746ZM186.959 118.188C187.538 118.188 188.061 118.314 188.527 118.566C188.994 118.809 189.358 119.177 189.619 119.672C189.89 120.167 190.025 120.769 190.025 121.478V126H188.765V121.66C188.765 120.895 188.574 120.311 188.191 119.91C187.809 119.499 187.286 119.294 186.623 119.294C185.951 119.294 185.415 119.504 185.013 119.924C184.621 120.344 184.425 120.955 184.425 121.758V126H183.151V115.64H184.425V119.42C184.677 119.028 185.023 118.725 185.461 118.51C185.909 118.295 186.409 118.188 186.959 118.188ZM191.49 122.136C191.49 121.352 191.649 120.666 191.966 120.078C192.284 119.481 192.718 119.019 193.268 118.692C193.828 118.365 194.449 118.202 195.13 118.202C195.802 118.202 196.386 118.347 196.88 118.636C197.375 118.925 197.744 119.289 197.986 119.728V118.328H199.274V126H197.986V124.572C197.734 125.02 197.356 125.393 196.852 125.692C196.358 125.981 195.779 126.126 195.116 126.126C194.435 126.126 193.819 125.958 193.268 125.622C192.718 125.286 192.284 124.815 191.966 124.208C191.649 123.601 191.49 122.911 191.49 122.136ZM197.986 122.15C197.986 121.571 197.87 121.067 197.636 120.638C197.403 120.209 197.086 119.882 196.684 119.658C196.292 119.425 195.858 119.308 195.382 119.308C194.906 119.308 194.472 119.42 194.08 119.644C193.688 119.868 193.376 120.195 193.142 120.624C192.909 121.053 192.792 121.557 192.792 122.136C192.792 122.724 192.909 123.237 193.142 123.676C193.376 124.105 193.688 124.437 194.08 124.67C194.472 124.894 194.906 125.006 195.382 125.006C195.858 125.006 196.292 124.894 196.684 124.67C197.086 124.437 197.403 124.105 197.636 123.676C197.87 123.237 197.986 122.729 197.986 122.15ZM202.841 119.378V123.9C202.841 124.273 202.921 124.539 203.079 124.698C203.238 124.847 203.513 124.922 203.905 124.922H204.843V126H203.695C202.986 126 202.454 125.837 202.099 125.51C201.745 125.183 201.567 124.647 201.567 123.9V119.378H200.573V118.328H201.567V116.396H202.841V118.328H204.843V119.378H202.841ZM211.113 119.756C211.375 119.299 211.757 118.925 212.261 118.636C212.765 118.347 213.339 118.202 213.983 118.202C214.674 118.202 215.295 118.365 215.845 118.692C216.396 119.019 216.83 119.481 217.147 120.078C217.465 120.666 217.623 121.352 217.623 122.136C217.623 122.911 217.465 123.601 217.147 124.208C216.83 124.815 216.391 125.286 215.831 125.622C215.281 125.958 214.665 126.126 213.983 126.126C213.321 126.126 212.737 125.981 212.233 125.692C211.739 125.403 211.365 125.034 211.113 124.586V126H209.839V115.64H211.113V119.756ZM216.321 122.136C216.321 121.557 216.205 121.053 215.971 120.624C215.738 120.195 215.421 119.868 215.019 119.644C214.627 119.42 214.193 119.308 213.717 119.308C213.251 119.308 212.817 119.425 212.415 119.658C212.023 119.882 211.706 120.213 211.463 120.652C211.23 121.081 211.113 121.581 211.113 122.15C211.113 122.729 211.23 123.237 211.463 123.676C211.706 124.105 212.023 124.437 212.415 124.67C212.817 124.894 213.251 125.006 213.717 125.006C214.193 125.006 214.627 124.894 215.019 124.67C215.421 124.437 215.738 124.105 215.971 123.676C216.205 123.237 216.321 122.724 216.321 122.136ZM225.964 118.328V126H224.69V124.866C224.448 125.258 224.107 125.566 223.668 125.79C223.239 126.005 222.763 126.112 222.24 126.112C221.643 126.112 221.106 125.991 220.63 125.748C220.154 125.496 219.776 125.123 219.496 124.628C219.226 124.133 219.09 123.531 219.09 122.822V118.328H220.35V122.654C220.35 123.41 220.542 123.993 220.924 124.404C221.307 124.805 221.83 125.006 222.492 125.006C223.174 125.006 223.71 124.796 224.102 124.376C224.494 123.956 224.69 123.345 224.69 122.542V118.328H225.964ZM234.583 118.328L229.963 129.612H228.647L230.159 125.916L227.065 118.328H228.479L230.887 124.544L233.267 118.328H234.583ZM240.59 119.742C240.842 119.303 241.216 118.939 241.71 118.65C242.214 118.351 242.798 118.202 243.46 118.202C244.142 118.202 244.758 118.365 245.308 118.692C245.868 119.019 246.307 119.481 246.624 120.078C246.942 120.666 247.1 121.352 247.1 122.136C247.1 122.911 246.942 123.601 246.624 124.208C246.307 124.815 245.868 125.286 245.308 125.622C244.758 125.958 244.142 126.126 243.46 126.126C242.807 126.126 242.228 125.981 241.724 125.692C241.23 125.393 240.852 125.025 240.59 124.586V129.64H239.316V118.328H240.59V119.742ZM245.798 122.136C245.798 121.557 245.682 121.053 245.448 120.624C245.215 120.195 244.898 119.868 244.496 119.644C244.104 119.42 243.67 119.308 243.194 119.308C242.728 119.308 242.294 119.425 241.892 119.658C241.5 119.882 241.183 120.213 240.94 120.652C240.707 121.081 240.59 121.581 240.59 122.15C240.59 122.729 240.707 123.237 240.94 123.676C241.183 124.105 241.5 124.437 241.892 124.67C242.294 124.894 242.728 125.006 243.194 125.006C243.67 125.006 244.104 124.894 244.496 124.67C244.898 124.437 245.215 124.105 245.448 123.676C245.682 123.237 245.798 122.724 245.798 122.136ZM249.911 119.574C250.135 119.135 250.453 118.795 250.863 118.552C251.283 118.309 251.792 118.188 252.389 118.188V119.504H252.053C250.625 119.504 249.911 120.279 249.911 121.828V126H248.637V118.328H249.911V119.574ZM257.066 126.126C256.347 126.126 255.694 125.963 255.106 125.636C254.527 125.309 254.07 124.847 253.734 124.25C253.407 123.643 253.244 122.943 253.244 122.15C253.244 121.366 253.412 120.675 253.748 120.078C254.093 119.471 254.56 119.009 255.148 118.692C255.736 118.365 256.394 118.202 257.122 118.202C257.85 118.202 258.508 118.365 259.096 118.692C259.684 119.009 260.146 119.467 260.482 120.064C260.827 120.661 261 121.357 261 122.15C261 122.943 260.823 123.643 260.468 124.25C260.123 124.847 259.651 125.309 259.054 125.636C258.457 125.963 257.794 126.126 257.066 126.126ZM257.066 125.006C257.523 125.006 257.953 124.899 258.354 124.684C258.755 124.469 259.077 124.147 259.32 123.718C259.572 123.289 259.698 122.766 259.698 122.15C259.698 121.534 259.577 121.011 259.334 120.582C259.091 120.153 258.774 119.835 258.382 119.63C257.99 119.415 257.565 119.308 257.108 119.308C256.641 119.308 256.212 119.415 255.82 119.63C255.437 119.835 255.129 120.153 254.896 120.582C254.663 121.011 254.546 121.534 254.546 122.15C254.546 122.775 254.658 123.303 254.882 123.732C255.115 124.161 255.423 124.483 255.806 124.698C256.189 124.903 256.609 125.006 257.066 125.006ZM262.059 122.136C262.059 121.352 262.218 120.666 262.535 120.078C262.852 119.481 263.286 119.019 263.837 118.692C264.397 118.365 265.022 118.202 265.713 118.202C266.31 118.202 266.866 118.342 267.379 118.622C267.892 118.893 268.284 119.252 268.555 119.7V115.64H269.843V126H268.555V124.558C268.303 125.015 267.93 125.393 267.435 125.692C266.94 125.981 266.362 126.126 265.699 126.126C265.018 126.126 264.397 125.958 263.837 125.622C263.286 125.286 262.852 124.815 262.535 124.208C262.218 123.601 262.059 122.911 262.059 122.136ZM268.555 122.15C268.555 121.571 268.438 121.067 268.205 120.638C267.972 120.209 267.654 119.882 267.253 119.658C266.861 119.425 266.427 119.308 265.951 119.308C265.475 119.308 265.041 119.42 264.649 119.644C264.257 119.868 263.944 120.195 263.711 120.624C263.478 121.053 263.361 121.557 263.361 122.136C263.361 122.724 263.478 123.237 263.711 123.676C263.944 124.105 264.257 124.437 264.649 124.67C265.041 124.894 265.475 125.006 265.951 125.006C266.427 125.006 266.861 124.894 267.253 124.67C267.654 124.437 267.972 124.105 268.205 123.676C268.438 123.237 268.555 122.729 268.555 122.15ZM278.66 118.328V126H277.386V124.866C277.143 125.258 276.803 125.566 276.364 125.79C275.935 126.005 275.459 126.112 274.936 126.112C274.339 126.112 273.802 125.991 273.326 125.748C272.85 125.496 272.472 125.123 272.192 124.628C271.921 124.133 271.786 123.531 271.786 122.822V118.328H273.046V122.654C273.046 123.41 273.237 123.993 273.62 124.404C274.003 124.805 274.525 125.006 275.188 125.006C275.869 125.006 276.406 124.796 276.798 124.376C277.19 123.956 277.386 123.345 277.386 122.542V118.328H278.66ZM280.195 122.15C280.195 121.357 280.354 120.666 280.671 120.078C280.988 119.481 281.427 119.019 281.987 118.692C282.556 118.365 283.205 118.202 283.933 118.202C284.876 118.202 285.65 118.431 286.257 118.888C286.873 119.345 287.279 119.98 287.475 120.792H286.103C285.972 120.325 285.716 119.957 285.333 119.686C284.96 119.415 284.493 119.28 283.933 119.28C283.205 119.28 282.617 119.532 282.169 120.036C281.721 120.531 281.497 121.235 281.497 122.15C281.497 123.074 281.721 123.788 282.169 124.292C282.617 124.796 283.205 125.048 283.933 125.048C284.493 125.048 284.96 124.917 285.333 124.656C285.706 124.395 285.963 124.021 286.103 123.536H287.475C287.27 124.32 286.859 124.95 286.243 125.426C285.627 125.893 284.857 126.126 283.933 126.126C283.205 126.126 282.556 125.963 281.987 125.636C281.427 125.309 280.988 124.847 280.671 124.25C280.354 123.653 280.195 122.953 280.195 122.15ZM290.589 119.378V123.9C290.589 124.273 290.668 124.539 290.827 124.698C290.986 124.847 291.261 124.922 291.653 124.922H292.591V126H291.443C290.734 126 290.202 125.837 289.847 125.51C289.492 125.183 289.315 124.647 289.315 123.9V119.378H288.321V118.328H289.315V116.396H290.589V118.328H292.591V119.378H290.589ZM296.711 126.126C296.123 126.126 295.595 126.028 295.129 125.832C294.662 125.627 294.293 125.347 294.023 124.992C293.752 124.628 293.603 124.213 293.575 123.746H294.891C294.928 124.129 295.105 124.441 295.423 124.684C295.749 124.927 296.174 125.048 296.697 125.048C297.182 125.048 297.565 124.941 297.845 124.726C298.125 124.511 298.265 124.241 298.265 123.914C298.265 123.578 298.115 123.331 297.817 123.172C297.518 123.004 297.056 122.841 296.431 122.682C295.861 122.533 295.395 122.383 295.031 122.234C294.676 122.075 294.368 121.847 294.107 121.548C293.855 121.24 293.729 120.839 293.729 120.344C293.729 119.952 293.845 119.593 294.079 119.266C294.312 118.939 294.643 118.683 295.073 118.496C295.502 118.3 295.992 118.202 296.543 118.202C297.392 118.202 298.078 118.417 298.601 118.846C299.123 119.275 299.403 119.863 299.441 120.61H298.167C298.139 120.209 297.975 119.887 297.677 119.644C297.387 119.401 296.995 119.28 296.501 119.28C296.043 119.28 295.679 119.378 295.409 119.574C295.138 119.77 295.003 120.027 295.003 120.344C295.003 120.596 295.082 120.806 295.241 120.974C295.409 121.133 295.614 121.263 295.857 121.366C296.109 121.459 296.454 121.567 296.893 121.688C297.443 121.837 297.891 121.987 298.237 122.136C298.582 122.276 298.876 122.491 299.119 122.78C299.371 123.069 299.501 123.447 299.511 123.914C299.511 124.334 299.394 124.712 299.161 125.048C298.927 125.384 298.596 125.65 298.167 125.846C297.747 126.033 297.261 126.126 296.711 126.126Z" fill="#ACACAC"/>
<g filter="url(#filter1_d_0_95)">
<circle cx="212.5" cy="270.5" r="114.5" fill="white"/>
</g>
<circle cx="212.5" cy="270.5" r="74.5" stroke="#F1EFFB" stroke-width="20"/>
<path d="M212.5 180C227.598 180 242.456 183.777 255.721 190.988C268.986 198.198 280.236 208.613 288.447 221.283C296.658 233.953 301.568 248.476 302.731 263.529C303.894 278.582 301.272 293.687 295.105 307.468C288.938 321.249 279.421 333.268 267.421 342.43C255.421 351.593 241.319 357.607 226.4 359.926C211.481 362.245 196.219 360.795 182.004 355.707C167.789 350.62 155.073 342.057 145.014 330.798L168.621 309.705C175.162 317.025 183.43 322.593 192.672 325.901C201.915 329.208 211.838 330.151 221.538 328.644C231.238 327.136 240.406 323.225 248.209 317.268C256.011 311.311 262.199 303.496 266.209 294.536C270.219 285.576 271.923 275.755 271.167 265.968C270.411 256.18 267.218 246.738 261.88 238.5C256.541 230.262 249.226 223.49 240.602 218.802C231.977 214.114 222.317 211.658 212.5 211.658V180Z" fill="url(#paint0_linear_0_95)"/>
<path d="M212.5 173C231.651 173 250.307 179.075 265.786 190.351C281.265 201.627 292.768 217.522 298.641 235.75L259.701 248.295C256.483 238.306 250.18 229.597 241.698 223.418C233.217 217.239 222.994 213.911 212.5 213.911V173Z" fill="url(#paint1_linear_0_95)"/>
<path d="M196.753 256.333C196.626 255.747 196.405 255.312 196.088 255.026C195.771 254.725 195.319 254.575 194.733 254.575C193.83 254.575 193.181 254.971 192.784 255.763C192.388 256.539 192.182 257.775 192.167 259.47C192.515 258.916 193.014 258.48 193.664 258.163C194.329 257.846 195.058 257.688 195.85 257.688C197.403 257.688 198.646 258.179 199.581 259.161C200.532 260.144 201.007 261.514 201.007 263.273C201.007 264.429 200.769 265.443 200.294 266.315C199.835 267.186 199.153 267.867 198.25 268.358C197.363 268.849 196.31 269.095 195.09 269.095C192.65 269.095 190.955 268.335 190.004 266.814C189.053 265.277 188.578 263.075 188.578 260.207C188.578 257.197 189.077 254.963 190.075 253.505C191.089 252.032 192.705 251.295 194.923 251.295C196.112 251.295 197.11 251.533 197.918 252.008C198.742 252.468 199.359 253.078 199.771 253.838C200.199 254.599 200.453 255.43 200.532 256.333H196.753ZM194.876 260.896C194.195 260.896 193.624 261.102 193.165 261.514C192.721 261.91 192.499 262.481 192.499 263.225C192.499 263.986 192.705 264.58 193.117 265.008C193.545 265.435 194.147 265.649 194.923 265.649C195.62 265.649 196.167 265.443 196.563 265.031C196.975 264.604 197.181 264.025 197.181 263.296C197.181 262.552 196.983 261.966 196.587 261.538C196.191 261.11 195.62 260.896 194.876 260.896ZM215.283 255.193H207.868V258.472C208.185 258.124 208.629 257.839 209.199 257.617C209.77 257.395 210.387 257.284 211.053 257.284C212.241 257.284 213.223 257.553 214 258.092C214.792 258.631 215.37 259.328 215.735 260.183C216.099 261.039 216.281 261.966 216.281 262.964C216.281 264.817 215.758 266.291 214.713 267.384C213.667 268.461 212.194 269 210.292 269C209.025 269 207.924 268.786 206.989 268.358C206.054 267.915 205.333 267.305 204.827 266.528C204.32 265.752 204.042 264.857 203.995 263.843H207.963C208.059 264.334 208.288 264.746 208.653 265.079C209.017 265.396 209.516 265.554 210.15 265.554C210.894 265.554 211.449 265.316 211.813 264.841C212.178 264.366 212.36 263.732 212.36 262.94C212.36 262.164 212.17 261.57 211.79 261.158C211.409 260.746 210.855 260.54 210.126 260.54C209.587 260.54 209.144 260.674 208.795 260.944C208.447 261.197 208.217 261.538 208.106 261.966H204.185V251.628H215.283V255.193ZM217.954 256.024C217.954 254.741 218.318 253.751 219.047 253.054C219.792 252.357 220.75 252.008 221.923 252.008C223.095 252.008 224.046 252.357 224.774 253.054C225.503 253.751 225.868 254.741 225.868 256.024C225.868 257.308 225.503 258.298 224.774 258.995C224.046 259.692 223.095 260.041 221.923 260.041C220.75 260.041 219.792 259.692 219.047 258.995C218.318 258.298 217.954 257.308 217.954 256.024ZM234.09 252.27L224.941 269H221.02L230.169 252.27H234.09ZM221.899 254.385C221.138 254.385 220.758 254.931 220.758 256.024C220.758 257.102 221.138 257.64 221.899 257.64C222.263 257.64 222.548 257.506 222.754 257.236C222.96 256.967 223.063 256.563 223.063 256.024C223.063 254.931 222.675 254.385 221.899 254.385ZM229.266 265.245C229.266 263.962 229.63 262.972 230.359 262.275C231.088 261.577 232.038 261.229 233.211 261.229C234.383 261.229 235.334 261.577 236.063 262.275C236.791 262.972 237.156 263.962 237.156 265.245C237.156 266.528 236.791 267.519 236.063 268.216C235.334 268.913 234.383 269.261 233.211 269.261C232.038 269.261 231.088 268.913 230.359 268.216C229.63 267.519 229.266 266.528 229.266 265.245ZM233.187 263.605C232.823 263.605 232.538 263.74 232.332 264.009C232.141 264.279 232.046 264.691 232.046 265.245C232.046 266.323 232.427 266.861 233.187 266.861C233.551 266.861 233.837 266.727 234.043 266.457C234.249 266.188 234.352 265.784 234.352 265.245C234.352 264.707 234.249 264.303 234.043 264.033C233.837 263.748 233.551 263.605 233.187 263.605ZM190.072 273.718V274.597H187.815V282H186.733V274.597H184.464V273.718H190.072ZM194.124 282.107C193.514 282.107 192.96 281.968 192.461 281.691C191.97 281.414 191.582 281.022 191.296 280.515C191.019 280 190.881 279.406 190.881 278.732C190.881 278.067 191.023 277.481 191.308 276.974C191.601 276.459 191.997 276.067 192.497 275.797C192.996 275.52 193.554 275.382 194.172 275.382C194.79 275.382 195.348 275.52 195.847 275.797C196.346 276.067 196.739 276.455 197.024 276.962C197.317 277.469 197.463 278.059 197.463 278.732C197.463 279.406 197.313 280 197.012 280.515C196.719 281.022 196.319 281.414 195.812 281.691C195.305 281.968 194.742 282.107 194.124 282.107ZM194.124 281.156C194.513 281.156 194.877 281.065 195.218 280.883C195.558 280.701 195.832 280.428 196.037 280.063C196.251 279.699 196.358 279.255 196.358 278.732C196.358 278.21 196.255 277.766 196.049 277.402C195.843 277.037 195.574 276.768 195.241 276.594C194.909 276.411 194.548 276.32 194.16 276.32C193.764 276.32 193.4 276.411 193.067 276.594C192.742 276.768 192.481 277.037 192.283 277.402C192.085 277.766 191.986 278.21 191.986 278.732C191.986 279.263 192.081 279.711 192.271 280.075C192.469 280.439 192.73 280.713 193.055 280.895C193.38 281.069 193.736 281.156 194.124 281.156ZM200.085 276.38V280.218C200.085 280.535 200.153 280.76 200.287 280.895C200.422 281.022 200.656 281.085 200.988 281.085H201.784V282H200.81C200.208 282 199.756 281.861 199.455 281.584C199.154 281.307 199.004 280.851 199.004 280.218V276.38H198.16V275.488H199.004V273.849H200.085V275.488H201.784V276.38H200.085ZM202.572 278.72C202.572 278.055 202.706 277.473 202.976 276.974C203.245 276.467 203.613 276.075 204.081 275.797C204.556 275.52 205.083 275.382 205.661 275.382C206.231 275.382 206.727 275.504 207.146 275.75C207.566 275.995 207.879 276.304 208.085 276.677V275.488H209.178V282H208.085V280.788C207.871 281.168 207.55 281.485 207.123 281.739C206.703 281.984 206.212 282.107 205.649 282.107C205.071 282.107 204.548 281.964 204.081 281.679C203.613 281.394 203.245 280.994 202.976 280.479C202.706 279.964 202.572 279.378 202.572 278.72ZM208.085 278.732C208.085 278.241 207.986 277.813 207.788 277.449C207.59 277.085 207.321 276.807 206.98 276.617C206.647 276.419 206.279 276.32 205.875 276.32C205.471 276.32 205.103 276.415 204.77 276.605C204.437 276.796 204.172 277.073 203.974 277.437C203.776 277.802 203.677 278.229 203.677 278.72C203.677 279.22 203.776 279.655 203.974 280.028C204.172 280.392 204.437 280.673 204.77 280.871C205.103 281.061 205.471 281.156 205.875 281.156C206.279 281.156 206.647 281.061 206.98 280.871C207.321 280.673 207.59 280.392 207.788 280.028C207.986 279.655 208.085 279.223 208.085 278.732ZM211.968 273.207V282H210.887V273.207H211.968ZM223.253 282H222.171L217.822 275.405V282H216.741V273.706H217.822L222.171 280.289V273.706H223.253V282ZM230.918 278.495C230.918 278.701 230.906 278.919 230.883 279.148H225.678C225.718 279.79 225.936 280.293 226.332 280.657C226.736 281.014 227.223 281.192 227.793 281.192C228.261 281.192 228.649 281.085 228.958 280.871C229.274 280.649 229.496 280.356 229.623 279.992H230.788C230.613 280.618 230.265 281.129 229.742 281.525C229.219 281.913 228.569 282.107 227.793 282.107C227.175 282.107 226.621 281.968 226.13 281.691C225.646 281.414 225.266 281.022 224.989 280.515C224.712 280 224.573 279.406 224.573 278.732C224.573 278.059 224.708 277.469 224.977 276.962C225.246 276.455 225.623 276.067 226.106 275.797C226.597 275.52 227.159 275.382 227.793 275.382C228.411 275.382 228.958 275.516 229.433 275.786C229.908 276.055 230.273 276.427 230.526 276.902C230.788 277.37 230.918 277.901 230.918 278.495ZM229.801 278.269C229.801 277.857 229.71 277.505 229.528 277.211C229.346 276.91 229.096 276.685 228.779 276.534C228.47 276.376 228.126 276.296 227.746 276.296C227.199 276.296 226.732 276.471 226.343 276.819C225.963 277.168 225.745 277.651 225.69 278.269H229.801ZM240.901 275.488L238.869 282H237.752L236.183 276.831L234.615 282H233.498L231.454 275.488H232.559L234.057 280.954L235.673 275.488H236.778L238.358 280.966L239.831 275.488H240.901ZM180.903 290.853C180.903 290.045 181.085 289.32 181.449 288.679C181.814 288.029 182.309 287.522 182.934 287.158C183.568 286.793 184.269 286.611 185.038 286.611C185.941 286.611 186.729 286.829 187.402 287.265C188.076 287.7 188.567 288.318 188.876 289.118H187.58C187.351 288.619 187.018 288.235 186.582 287.966C186.155 287.696 185.64 287.562 185.038 287.562C184.459 287.562 183.941 287.696 183.481 287.966C183.022 288.235 182.661 288.619 182.4 289.118C182.138 289.609 182.008 290.188 182.008 290.853C182.008 291.511 182.138 292.089 182.4 292.588C182.661 293.079 183.022 293.459 183.481 293.729C183.941 293.998 184.459 294.133 185.038 294.133C185.64 294.133 186.155 294.002 186.582 293.74C187.018 293.471 187.351 293.087 187.58 292.588H188.876C188.567 293.38 188.076 293.994 187.402 294.43C186.729 294.857 185.941 295.071 185.038 295.071C184.269 295.071 183.568 294.893 182.934 294.537C182.309 294.172 181.814 293.669 181.449 293.028C181.085 292.386 180.903 291.661 180.903 290.853ZM196.141 288.488V295H195.06V294.038C194.854 294.37 194.565 294.632 194.193 294.822C193.828 295.004 193.424 295.095 192.981 295.095C192.474 295.095 192.018 294.992 191.614 294.786C191.21 294.572 190.889 294.255 190.652 293.836C190.422 293.416 190.307 292.905 190.307 292.303V288.488H191.376V292.16C191.376 292.802 191.539 293.297 191.864 293.645C192.188 293.986 192.632 294.156 193.194 294.156C193.773 294.156 194.228 293.978 194.561 293.622C194.894 293.265 195.06 292.746 195.06 292.065V288.488H196.141ZM200.153 295.107C199.654 295.107 199.207 295.024 198.811 294.857C198.415 294.683 198.102 294.445 197.872 294.144C197.642 293.836 197.515 293.483 197.492 293.087H198.609C198.64 293.412 198.791 293.677 199.06 293.883C199.337 294.089 199.698 294.192 200.141 294.192C200.553 294.192 200.878 294.101 201.116 293.919C201.353 293.737 201.472 293.507 201.472 293.23C201.472 292.944 201.346 292.734 201.092 292.6C200.839 292.457 200.446 292.319 199.916 292.184C199.432 292.057 199.036 291.93 198.727 291.804C198.426 291.669 198.165 291.475 197.943 291.221C197.729 290.96 197.622 290.619 197.622 290.2C197.622 289.867 197.721 289.562 197.919 289.285C198.117 289.007 198.399 288.789 198.763 288.631C199.127 288.465 199.543 288.382 200.011 288.382C200.732 288.382 201.314 288.564 201.757 288.928C202.201 289.293 202.439 289.792 202.47 290.425H201.389C201.365 290.085 201.227 289.811 200.973 289.605C200.728 289.399 200.395 289.296 199.975 289.296C199.587 289.296 199.278 289.38 199.048 289.546C198.819 289.712 198.704 289.93 198.704 290.2C198.704 290.413 198.771 290.592 198.906 290.734C199.048 290.869 199.223 290.98 199.428 291.067C199.642 291.146 199.935 291.237 200.308 291.34C200.775 291.467 201.155 291.594 201.448 291.72C201.742 291.839 201.991 292.021 202.197 292.267C202.411 292.513 202.522 292.833 202.53 293.23C202.53 293.586 202.431 293.907 202.233 294.192C202.035 294.477 201.753 294.703 201.389 294.869C201.033 295.028 200.621 295.107 200.153 295.107ZM205.256 289.38V293.218C205.256 293.535 205.324 293.76 205.458 293.895C205.593 294.022 205.827 294.085 206.159 294.085H206.955V295H205.981C205.379 295 204.928 294.861 204.627 294.584C204.326 294.307 204.175 293.851 204.175 293.218V289.38H203.331V288.488H204.175V286.849H205.256V288.488H206.955V289.38H205.256ZM210.987 295.107C210.377 295.107 209.822 294.968 209.323 294.691C208.832 294.414 208.444 294.022 208.159 293.515C207.881 293 207.743 292.406 207.743 291.732C207.743 291.067 207.885 290.481 208.171 289.974C208.464 289.459 208.86 289.067 209.359 288.797C209.858 288.52 210.416 288.382 211.034 288.382C211.652 288.382 212.211 288.52 212.71 288.797C213.209 289.067 213.601 289.455 213.886 289.962C214.179 290.469 214.326 291.059 214.326 291.732C214.326 292.406 214.175 293 213.874 293.515C213.581 294.022 213.181 294.414 212.674 294.691C212.167 294.968 211.605 295.107 210.987 295.107ZM210.987 294.156C211.375 294.156 211.739 294.065 212.08 293.883C212.42 293.701 212.694 293.428 212.9 293.063C213.114 292.699 213.221 292.255 213.221 291.732C213.221 291.21 213.118 290.766 212.912 290.402C212.706 290.037 212.436 289.768 212.104 289.594C211.771 289.411 211.41 289.32 211.022 289.32C210.626 289.32 210.262 289.411 209.929 289.594C209.604 289.768 209.343 290.037 209.145 290.402C208.947 290.766 208.848 291.21 208.848 291.732C208.848 292.263 208.943 292.711 209.133 293.075C209.331 293.439 209.592 293.713 209.917 293.895C210.242 294.069 210.599 294.156 210.987 294.156ZM223.459 288.37C223.966 288.37 224.417 288.477 224.814 288.69C225.21 288.896 225.523 289.209 225.752 289.629C225.982 290.049 226.097 290.56 226.097 291.162V295H225.027V291.316C225.027 290.667 224.865 290.172 224.54 289.831C224.223 289.483 223.792 289.308 223.245 289.308C222.683 289.308 222.235 289.491 221.902 289.855C221.57 290.211 221.403 290.73 221.403 291.412V295H220.334V291.316C220.334 290.667 220.172 290.172 219.847 289.831C219.53 289.483 219.098 289.308 218.552 289.308C217.989 289.308 217.542 289.491 217.209 289.855C216.876 290.211 216.71 290.73 216.71 291.412V295H215.628V288.488H216.71V289.427C216.924 289.087 217.209 288.825 217.565 288.643C217.93 288.461 218.33 288.37 218.765 288.37C219.312 288.37 219.795 288.492 220.215 288.738C220.635 288.984 220.948 289.344 221.154 289.819C221.336 289.36 221.637 289.003 222.057 288.75C222.477 288.496 222.944 288.37 223.459 288.37ZM233.693 291.495C233.693 291.701 233.681 291.919 233.657 292.148H228.453C228.492 292.79 228.71 293.293 229.106 293.657C229.51 294.014 229.998 294.192 230.568 294.192C231.035 294.192 231.423 294.085 231.732 293.871C232.049 293.649 232.271 293.356 232.398 292.992H233.562C233.388 293.618 233.039 294.129 232.517 294.525C231.994 294.913 231.344 295.107 230.568 295.107C229.95 295.107 229.395 294.968 228.904 294.691C228.421 294.414 228.041 294.022 227.764 293.515C227.486 293 227.348 292.406 227.348 291.732C227.348 291.059 227.482 290.469 227.752 289.962C228.021 289.455 228.397 289.067 228.881 288.797C229.372 288.52 229.934 288.382 230.568 288.382C231.186 288.382 231.732 288.516 232.208 288.786C232.683 289.055 233.047 289.427 233.301 289.902C233.562 290.37 233.693 290.901 233.693 291.495ZM232.576 291.269C232.576 290.857 232.485 290.505 232.303 290.211C232.12 289.91 231.871 289.685 231.554 289.534C231.245 289.376 230.901 289.296 230.52 289.296C229.974 289.296 229.506 289.471 229.118 289.819C228.738 290.168 228.52 290.651 228.465 291.269H232.576ZM236.083 289.546C236.273 289.174 236.542 288.885 236.891 288.679C237.247 288.473 237.679 288.37 238.186 288.37V289.487H237.901C236.689 289.487 236.083 290.144 236.083 291.459V295H235.001V288.488H236.083V289.546ZM241.62 295.107C241.121 295.107 240.674 295.024 240.278 294.857C239.882 294.683 239.569 294.445 239.339 294.144C239.109 293.836 238.983 293.483 238.959 293.087H240.076C240.107 293.412 240.258 293.677 240.527 293.883C240.804 294.089 241.165 294.192 241.609 294.192C242.02 294.192 242.345 294.101 242.583 293.919C242.821 293.737 242.939 293.507 242.939 293.23C242.939 292.944 242.813 292.734 242.559 292.6C242.306 292.457 241.913 292.319 241.383 292.184C240.9 292.057 240.503 291.93 240.195 291.804C239.893 291.669 239.632 291.475 239.41 291.221C239.196 290.96 239.089 290.619 239.089 290.2C239.089 289.867 239.188 289.562 239.387 289.285C239.585 289.007 239.866 288.789 240.23 288.631C240.595 288.465 241.01 288.382 241.478 288.382C242.199 288.382 242.781 288.564 243.225 288.928C243.668 289.293 243.906 289.792 243.937 290.425H242.856C242.832 290.085 242.694 289.811 242.44 289.605C242.195 289.399 241.862 289.296 241.442 289.296C241.054 289.296 240.745 289.38 240.515 289.546C240.286 289.712 240.171 289.93 240.171 290.2C240.171 290.413 240.238 290.592 240.373 290.734C240.515 290.869 240.69 290.98 240.896 291.067C241.109 291.146 241.403 291.237 241.775 291.34C242.242 291.467 242.622 291.594 242.916 291.72C243.209 291.839 243.458 292.021 243.664 292.267C243.878 292.513 243.989 292.833 243.997 293.23C243.997 293.586 243.898 293.907 243.7 294.192C243.502 294.477 243.221 294.703 242.856 294.869C242.5 295.028 242.088 295.107 241.62 295.107Z" fill="black"/>
<defs>
<filter id="filter0_d_0_95" x="0" y="0" width="424" height="498" filterUnits="userSpaceOnUse" color-interpolation-filters="sRGB">
<feFlood flood-opacity="0" result="BackgroundImageFix"/>
<feColorMatrix in="SourceAlpha" type="matrix" values="0 0 0 0 0 0 0 0 0 0 0 0 0 0 0 0 0 0 127 0" result="hardAlpha"/>
<feOffset dy="10"/>
<feGaussianBlur stdDeviation="30"/>
<feComposite in2="hardAlpha" operator="out"/>
<feColorMatrix type="matrix" values="0 0 0 0 0.885625 0 0 0 0 0.92625 0 0 0 0 0.975 0 0 0 0.5 0"/>
<feBlend mode="normal" in2="BackgroundImageFix" result="effect1_dropShadow_0_95"/>
<feBlend mode="normal" in="SourceGraphic" in2="effect1_dropShadow_0_95" result="shape"/>
</filter>
<filter id="filter1_d_0_95" x="38" y="106" width="349" height="349" filterUnits="userSpaceOnUse" color-interpolation-filters="sRGB">
<feFlood flood-opacity="0" result="BackgroundImageFix"/>
<feColorMatrix in="SourceAlpha" type="matrix" values="0 0 0 0 0 0 0 0 0 0 0 0 0 0 0 0 0 0 127 0" result="hardAlpha"/>
<feOffset dy="10"/>
<feGaussianBlur stdDeviation="30"/>
<feComposite in2="hardAlpha" operator="out"/>
<feColorMatrix type="matrix" values="0 0 0 0 0.885625 0 0 0 0 0.92625 0 0 0 0 0.975 0 0 0 0.5 0"/>
<feBlend mode="normal" in2="BackgroundImageFix" result="effect1_dropShadow_0_95"/>
<feBlend mode="normal" in="SourceGraphic" in2="effect1_dropShadow_0_95" result="shape"/>
</filter>
<linearGradient id="paint0_linear_0_95" x1="169.784" y1="86.7782" x2="360.211" y2="148.317" gradientUnits="userSpaceOnUse">
<stop stop-color="#EAABF0"/>
<stop offset="1" stop-color="#4623E9"/>
</linearGradient>
<linearGradient id="paint1_linear_0_95" x1="282.638" y1="173" x2="212.5" y2="354" gradientUnits="userSpaceOnUse">
<stop stop-color="#FF007A"/>
<stop offset="1" stop-color="#CDF4FF"/>
</linearGradient>
</defs>
</svg>
