<svg width="211" height="84" viewBox="0 0 211 84" fill="none" xmlns="http://www.w3.org/2000/svg">
<path d="M109.964 9.974C110.319 10.03 110.641 10.1747 110.93 10.408C111.229 10.6413 111.462 10.9307 111.63 11.276C111.807 11.6213 111.896 11.99 111.896 12.382C111.896 12.8767 111.77 13.3247 111.518 13.726C111.266 14.118 110.897 14.4307 110.412 14.664C109.936 14.888 109.371 15 108.718 15H105.078V5.242H108.578C109.241 5.242 109.805 5.354 110.272 5.578C110.739 5.79267 111.089 6.08667 111.322 6.46C111.555 6.83333 111.672 7.25333 111.672 7.72C111.672 8.29867 111.513 8.77933 111.196 9.162C110.888 9.53533 110.477 9.806 109.964 9.974ZM106.352 9.456H108.494C109.091 9.456 109.553 9.316 109.88 9.036C110.207 8.756 110.37 8.36867 110.37 7.874C110.37 7.37933 110.207 6.992 109.88 6.712C109.553 6.432 109.082 6.292 108.466 6.292H106.352V9.456ZM108.606 13.95C109.241 13.95 109.735 13.8007 110.09 13.502C110.445 13.2033 110.622 12.788 110.622 12.256C110.622 11.7147 110.435 11.29 110.062 10.982C109.689 10.6647 109.189 10.506 108.564 10.506H106.352V13.95H108.606ZM113.048 11.136C113.048 10.352 113.207 9.666 113.524 9.078C113.841 8.48067 114.275 8.01867 114.826 7.692C115.386 7.36533 116.007 7.202 116.688 7.202C117.36 7.202 117.943 7.34667 118.438 7.636C118.933 7.92533 119.301 8.28933 119.544 8.728V7.328H120.832V15H119.544V13.572C119.292 14.02 118.914 14.3933 118.41 14.692C117.915 14.9813 117.337 15.126 116.674 15.126C115.993 15.126 115.377 14.958 114.826 14.622C114.275 14.286 113.841 13.8147 113.524 13.208C113.207 12.6013 113.048 11.9107 113.048 11.136ZM119.544 11.15C119.544 10.5713 119.427 10.0673 119.194 9.638C118.961 9.20867 118.643 8.882 118.242 8.658C117.85 8.42467 117.416 8.308 116.94 8.308C116.464 8.308 116.03 8.42 115.638 8.644C115.246 8.868 114.933 9.19467 114.7 9.624C114.467 10.0533 114.35 10.5573 114.35 11.136C114.35 11.724 114.467 12.2373 114.7 12.676C114.933 13.1053 115.246 13.4367 115.638 13.67C116.03 13.894 116.464 14.006 116.94 14.006C117.416 14.006 117.85 13.894 118.242 13.67C118.643 13.4367 118.961 13.1053 119.194 12.676C119.427 12.2373 119.544 11.7287 119.544 11.15ZM124.119 4.64V15H122.845V4.64H124.119ZM125.674 11.136C125.674 10.352 125.833 9.666 126.15 9.078C126.468 8.48067 126.902 8.01867 127.452 7.692C128.012 7.36533 128.633 7.202 129.314 7.202C129.986 7.202 130.57 7.34667 131.064 7.636C131.559 7.92533 131.928 8.28933 132.17 8.728V7.328H133.458V15H132.17V13.572C131.918 14.02 131.54 14.3933 131.036 14.692C130.542 14.9813 129.963 15.126 129.3 15.126C128.619 15.126 128.003 14.958 127.452 14.622C126.902 14.286 126.468 13.8147 126.15 13.208C125.833 12.6013 125.674 11.9107 125.674 11.136ZM132.17 11.15C132.17 10.5713 132.054 10.0673 131.82 9.638C131.587 9.20867 131.27 8.882 130.868 8.658C130.476 8.42467 130.042 8.308 129.566 8.308C129.09 8.308 128.656 8.42 128.264 8.644C127.872 8.868 127.56 9.19467 127.326 9.624C127.093 10.0533 126.976 10.5573 126.976 11.136C126.976 11.724 127.093 12.2373 127.326 12.676C127.56 13.1053 127.872 13.4367 128.264 13.67C128.656 13.894 129.09 14.006 129.566 14.006C130.042 14.006 130.476 13.894 130.868 13.67C131.27 13.4367 131.587 13.1053 131.82 12.676C132.054 12.2373 132.17 11.7287 132.17 11.15ZM139.209 7.188C140.142 7.188 140.898 7.47267 141.477 8.042C142.056 8.602 142.345 9.414 142.345 10.478V15H141.085V10.66C141.085 9.89467 140.894 9.31133 140.511 8.91C140.128 8.49933 139.606 8.294 138.943 8.294C138.271 8.294 137.734 8.504 137.333 8.924C136.941 9.344 136.745 9.95533 136.745 10.758V15H135.471V7.328H136.745V8.42C136.997 8.028 137.338 7.72467 137.767 7.51C138.206 7.29533 138.686 7.188 139.209 7.188ZM143.81 11.15C143.81 10.3567 143.969 9.666 144.286 9.078C144.604 8.48067 145.042 8.01867 145.602 7.692C146.172 7.36533 146.82 7.202 147.548 7.202C148.491 7.202 149.266 7.43067 149.872 7.888C150.488 8.34533 150.894 8.98 151.09 9.792H149.718C149.588 9.32533 149.331 8.95667 148.948 8.686C148.575 8.41533 148.108 8.28 147.548 8.28C146.82 8.28 146.232 8.532 145.784 9.036C145.336 9.53067 145.112 10.2353 145.112 11.15C145.112 12.074 145.336 12.788 145.784 13.292C146.232 13.796 146.82 14.048 147.548 14.048C148.108 14.048 148.575 13.9173 148.948 13.656C149.322 13.3947 149.578 13.0213 149.718 12.536H151.09C150.885 13.32 150.474 13.95 149.858 14.426C149.242 14.8927 148.472 15.126 147.548 15.126C146.82 15.126 146.172 14.9627 145.602 14.636C145.042 14.3093 144.604 13.8473 144.286 13.25C143.969 12.6527 143.81 11.9527 143.81 11.15ZM159.65 10.87C159.65 11.1127 159.636 11.3693 159.608 11.64H153.476C153.523 12.396 153.779 12.9887 154.246 13.418C154.722 13.838 155.296 14.048 155.968 14.048C156.519 14.048 156.976 13.922 157.34 13.67C157.713 13.4087 157.975 13.0633 158.124 12.634H159.496C159.291 13.3713 158.88 13.9733 158.264 14.44C157.648 14.8973 156.883 15.126 155.968 15.126C155.24 15.126 154.587 14.9627 154.008 14.636C153.439 14.3093 152.991 13.8473 152.664 13.25C152.337 12.6433 152.174 11.9433 152.174 11.15C152.174 10.3567 152.333 9.66133 152.65 9.064C152.967 8.46667 153.411 8.00933 153.98 7.692C154.559 7.36533 155.221 7.202 155.968 7.202C156.696 7.202 157.34 7.36067 157.9 7.678C158.46 7.99533 158.889 8.434 159.188 8.994C159.496 9.54467 159.65 10.17 159.65 10.87ZM158.334 10.604C158.334 10.1187 158.227 9.70333 158.012 9.358C157.797 9.00333 157.503 8.73733 157.13 8.56C156.766 8.37333 156.36 8.28 155.912 8.28C155.268 8.28 154.717 8.48533 154.26 8.896C153.812 9.30667 153.555 9.876 153.49 10.604H158.334Z" fill="#ACACAC"/>
<path d="M122.144 45.568C122.144 46.6773 121.856 47.7227 121.28 48.704C120.725 49.664 119.893 50.464 118.784 51.104C117.696 51.7227 116.405 52.0853 114.912 52.192V54.784H112.864V52.16C110.731 51.968 109.013 51.328 107.712 50.24C106.411 49.1307 105.739 47.6373 105.696 45.76H110.496C110.624 47.296 111.413 48.224 112.864 48.544V42.432C111.328 42.048 110.091 41.664 109.152 41.28C108.213 40.896 107.403 40.2773 106.72 39.424C106.037 38.5707 105.696 37.408 105.696 35.936C105.696 34.08 106.357 32.5653 107.68 31.392C109.024 30.2187 110.752 29.5467 112.864 29.376V26.784H114.912V29.376C116.96 29.5467 118.592 30.1653 119.808 31.232C121.045 32.2987 121.739 33.7707 121.888 35.648H117.056C116.992 35.0293 116.768 34.496 116.384 34.048C116.021 33.5787 115.531 33.248 114.912 33.056V39.104C116.512 39.5093 117.771 39.904 118.688 40.288C119.627 40.6507 120.437 41.2587 121.12 42.112C121.803 42.944 122.144 44.096 122.144 45.568ZM110.368 35.712C110.368 36.416 110.581 36.992 111.008 37.44C111.435 37.8667 112.053 38.2187 112.864 38.496V32.96C112.096 33.0667 111.488 33.3547 111.04 33.824C110.592 34.2933 110.368 34.9227 110.368 35.712ZM114.912 48.608C115.723 48.4587 116.352 48.128 116.8 47.616C117.269 47.104 117.504 46.4853 117.504 45.76C117.504 45.056 117.28 44.4907 116.832 44.064C116.384 43.6373 115.744 43.2853 114.912 43.008V48.608ZM127.722 46.944C129.77 45.2373 131.402 43.8187 132.618 42.688C133.834 41.536 134.847 40.3413 135.658 39.104C136.468 37.8667 136.874 36.6507 136.874 35.456C136.874 34.368 136.618 33.5147 136.106 32.896C135.594 32.2773 134.804 31.968 133.738 31.968C132.671 31.968 131.85 32.3307 131.274 33.056C130.698 33.76 130.399 34.7307 130.378 35.968H126.026C126.111 33.408 126.868 31.4667 128.298 30.144C129.748 28.8213 131.583 28.16 133.802 28.16C136.234 28.16 138.1 28.8107 139.402 30.112C140.703 31.392 141.354 33.088 141.354 35.2C141.354 36.864 140.906 38.4533 140.01 39.968C139.114 41.4827 138.09 42.8053 136.938 43.936C135.786 45.0453 134.282 46.3893 132.426 47.968H141.866V51.68H126.058V48.352L127.722 46.944ZM146.865 52.224C146.054 52.224 145.382 51.9787 144.849 51.488C144.337 50.976 144.081 50.3467 144.081 49.6C144.081 48.8533 144.337 48.2347 144.849 47.744C145.382 47.232 146.054 46.976 146.865 46.976C147.654 46.976 148.305 47.232 148.817 47.744C149.329 48.2347 149.585 48.8533 149.585 49.6C149.585 50.3467 149.329 50.976 148.817 51.488C148.305 51.9787 147.654 52.224 146.865 52.224ZM152.169 47.456V43.936L162.633 28.96H167.849V43.552H170.665V47.456H167.849V52H163.369V47.456H152.169ZM163.657 33.76L157.097 43.552H163.657V33.76ZM184.205 52L178.189 44.448V52H173.709V28.32H178.189V41.792L184.141 34.272H189.965L182.157 43.168L190.029 52H184.205Z" fill="#333333"/>
<circle cx="42" cy="42" r="42" fill="url(#paint0_linear_0_23)"/>
<path d="M33.5471 61.8118C29.3821 61.8118 25.9697 58.7843 25.9697 55.0568V51.4868C25.9697 50.7693 26.5647 50.1743 27.2822 50.1743C27.9997 50.1743 28.5947 50.7693 28.5947 51.4868C28.5947 53.6743 30.7121 55.3193 33.5471 55.3193C36.3821 55.3193 38.4997 53.6743 38.4997 51.4868C38.4997 50.7693 39.0946 50.1743 39.8121 50.1743C40.5296 50.1743 41.1246 50.7693 41.1246 51.4868V55.0568C41.1246 58.7843 37.7296 61.8118 33.5471 61.8118ZM29.0496 56.7718C29.8196 58.2068 31.5521 59.1868 33.5471 59.1868C35.5421 59.1868 37.2747 58.1893 38.0447 56.7718C36.8022 57.5243 35.2621 57.9618 33.5471 57.9618C31.8321 57.9618 30.2921 57.5243 29.0496 56.7718Z" fill="#0F5FC2"/>
<path d="M33.5471 53.149C30.6771 53.149 28.1047 51.8365 26.8272 49.754C26.2672 48.844 25.9697 47.7765 25.9697 46.6915C25.9697 44.854 26.7747 43.139 28.2447 41.8615C31.0797 39.3765 35.9622 39.3766 38.8147 41.8441C40.2847 43.1391 41.1072 44.854 41.1072 46.6915C41.1072 47.7765 40.8096 48.844 40.2496 49.754C38.9896 51.8365 36.4171 53.149 33.5471 53.149ZM33.5471 42.5616C32.1821 42.5616 30.9222 43.0165 29.9772 43.839C29.0847 44.609 28.5947 45.624 28.5947 46.6915C28.5947 47.304 28.7521 47.8641 29.0671 48.3891C29.8721 49.7191 31.5871 50.5416 33.5471 50.5416C35.5071 50.5416 37.2221 49.7191 38.0096 48.4066C38.3246 47.8991 38.4822 47.3216 38.4822 46.7091C38.4822 45.6416 37.9922 44.6265 37.0997 43.839C36.1722 43.0165 34.9121 42.5616 33.5471 42.5616Z" fill="#0F5FC2"/>
<path d="M33.5471 57.9625C29.2246 57.9625 25.9697 55.18 25.9697 51.505V46.6925C25.9697 42.965 29.3646 39.9375 33.5471 39.9375C35.5246 39.9375 37.4147 40.62 38.8322 41.845C40.3022 43.14 41.1246 44.855 41.1246 46.6925V51.505C41.1246 55.18 37.8696 57.9625 33.5471 57.9625ZM33.5471 42.5625C30.8171 42.5625 28.5947 44.4175 28.5947 46.6925V51.505C28.5947 53.6925 30.7121 55.3375 33.5471 55.3375C36.3821 55.3375 38.4997 53.6925 38.4997 51.505V46.6925C38.4997 45.625 38.0097 44.61 37.1172 43.8225C36.1722 43.0175 34.9121 42.5625 33.5471 42.5625Z" fill="#0F5FC2"/>
<path d="M54.3198 47.9003C51.6773 47.9003 49.4373 45.9403 49.2273 43.4203C49.0873 41.9678 49.6123 40.5503 50.6623 39.5178C51.5373 38.6078 52.7798 38.1003 54.0923 38.1003H57.7498C59.4823 38.1528 60.8123 39.5178 60.8123 41.1978V44.8028C60.8123 46.4828 59.4823 47.8478 57.8023 47.9003H54.3198ZM57.6973 40.7253H54.1098C53.4973 40.7253 52.9373 40.9528 52.5348 41.3728C52.0273 41.8628 51.7823 42.5278 51.8523 43.1928C51.9398 44.3478 53.0598 45.2753 54.3198 45.2753H57.7498C57.9773 45.2753 58.1873 45.0653 58.1873 44.8028V41.1978C58.1873 40.9353 57.9773 40.7428 57.6973 40.7253Z" fill="#0F5FC2"/>
<path d="M49.0004 59.1875H44.6254C43.9079 59.1875 43.3129 58.5925 43.3129 57.875C43.3129 57.1575 43.9079 56.5625 44.6254 56.5625H49.0004C53.5154 56.5625 56.4379 53.64 56.4379 49.125V47.9H54.3203C51.6778 47.9 49.4379 45.94 49.2279 43.42C49.0879 41.9675 49.613 40.55 50.663 39.5175C51.538 38.6075 52.7804 38.1 54.0929 38.1H56.4204V36.875C56.4204 32.78 54.023 29.9625 50.138 29.5075C49.718 29.4375 49.3504 29.4375 48.9829 29.4375H33.2329C32.8129 29.4375 32.4104 29.4725 32.0079 29.525C28.1579 30.015 25.7954 32.815 25.7954 36.875V40.375C25.7954 41.0925 25.2004 41.6875 24.4829 41.6875C23.7654 41.6875 23.1704 41.0925 23.1704 40.375V36.875C23.1704 31.485 26.4955 27.5825 31.658 26.935C32.1305 26.865 32.6729 26.8125 33.2329 26.8125H48.9829C49.4029 26.8125 49.9454 26.83 50.5054 26.9175C55.6679 27.5125 59.0454 31.4325 59.0454 36.875V39.4125C59.0454 40.13 58.4504 40.725 57.7329 40.725H54.0929C53.4804 40.725 52.9205 40.9525 52.518 41.3725C52.0105 41.8625 51.7653 42.5275 51.8353 43.1925C51.9228 44.3475 53.043 45.275 54.303 45.275H57.7504C58.4679 45.275 59.0629 45.87 59.0629 46.5875V49.125C59.0629 55.145 55.0204 59.1875 49.0004 59.1875Z" fill="#0F5FC2"/>
<path d="M127.468 76.356C127.74 76.14 127.864 76.04 127.84 76.056C128.624 75.408 129.24 74.876 129.688 74.46C130.144 74.044 130.528 73.608 130.84 73.152C131.152 72.696 131.308 72.252 131.308 71.82C131.308 71.492 131.232 71.236 131.08 71.052C130.928 70.868 130.7 70.776 130.396 70.776C130.092 70.776 129.852 70.892 129.676 71.124C129.508 71.348 129.424 71.668 129.424 72.084H127.444C127.46 71.404 127.604 70.836 127.876 70.38C128.156 69.924 128.52 69.588 128.968 69.372C129.424 69.156 129.928 69.048 130.48 69.048C131.432 69.048 132.148 69.292 132.628 69.78C133.116 70.268 133.36 70.904 133.36 71.688C133.36 72.544 133.068 73.34 132.484 74.076C131.9 74.804 131.156 75.516 130.252 76.212H133.492V77.88H127.468V76.356ZM134.107 71.448C134.107 70.8 134.291 70.3 134.659 69.948C135.035 69.596 135.519 69.42 136.111 69.42C136.703 69.42 137.183 69.596 137.551 69.948C137.919 70.3 138.103 70.8 138.103 71.448C138.103 72.096 137.919 72.596 137.551 72.948C137.183 73.3 136.703 73.476 136.111 73.476C135.519 73.476 135.035 73.3 134.659 72.948C134.291 72.596 134.107 72.096 134.107 71.448ZM142.255 69.552L137.635 78H135.655L140.275 69.552H142.255ZM136.099 70.62C135.715 70.62 135.523 70.896 135.523 71.448C135.523 71.992 135.715 72.264 136.099 72.264C136.283 72.264 136.427 72.196 136.531 72.06C136.635 71.924 136.687 71.72 136.687 71.448C136.687 70.896 136.491 70.62 136.099 70.62ZM139.819 76.104C139.819 75.456 140.003 74.956 140.371 74.604C140.739 74.252 141.219 74.076 141.811 74.076C142.403 74.076 142.883 74.252 143.251 74.604C143.619 74.956 143.803 75.456 143.803 76.104C143.803 76.752 143.619 77.252 143.251 77.604C142.883 77.956 142.403 78.132 141.811 78.132C141.219 78.132 140.739 77.956 140.371 77.604C140.003 77.252 139.819 76.752 139.819 76.104ZM141.799 75.276C141.615 75.276 141.471 75.344 141.367 75.48C141.271 75.616 141.223 75.824 141.223 76.104C141.223 76.648 141.415 76.92 141.799 76.92C141.983 76.92 142.127 76.852 142.231 76.716C142.335 76.58 142.387 76.376 142.387 76.104C142.387 75.832 142.335 75.628 142.231 75.492C142.127 75.348 141.983 75.276 141.799 75.276Z" fill="#D0004B"/>
<path d="M149.392 72.324V76.2C149.392 76.52 149.46 76.748 149.596 76.884C149.732 77.012 149.968 77.076 150.304 77.076H151.108V78H150.124C149.516 78 149.06 77.86 148.756 77.58C148.452 77.3 148.3 76.84 148.3 76.2V72.324H147.448V71.424H148.3V69.768H149.392V71.424H151.108V72.324H149.392ZM155.575 71.304C156.071 71.304 156.519 71.412 156.919 71.628C157.319 71.836 157.631 72.152 157.855 72.576C158.087 73 158.203 73.516 158.203 74.124V78H157.123V74.28C157.123 73.624 156.959 73.124 156.631 72.78C156.303 72.428 155.855 72.252 155.287 72.252C154.711 72.252 154.251 72.432 153.907 72.792C153.571 73.152 153.403 73.676 153.403 74.364V78H152.311V69.12H153.403V72.36C153.619 72.024 153.915 71.764 154.291 71.58C154.675 71.396 155.103 71.304 155.575 71.304ZM160.431 70.356C160.223 70.356 160.047 70.284 159.903 70.14C159.759 69.996 159.687 69.82 159.687 69.612C159.687 69.404 159.759 69.228 159.903 69.084C160.047 68.94 160.223 68.868 160.431 68.868C160.631 68.868 160.799 68.94 160.935 69.084C161.079 69.228 161.151 69.404 161.151 69.612C161.151 69.82 161.079 69.996 160.935 70.14C160.799 70.284 160.631 70.356 160.431 70.356ZM160.959 71.424V78H159.867V71.424H160.959ZM165.028 78.108C164.524 78.108 164.072 78.024 163.672 77.856C163.272 77.68 162.956 77.44 162.724 77.136C162.492 76.824 162.364 76.468 162.34 76.068H163.468C163.5 76.396 163.652 76.664 163.924 76.872C164.204 77.08 164.568 77.184 165.016 77.184C165.432 77.184 165.76 77.092 166 76.908C166.24 76.724 166.36 76.492 166.36 76.212C166.36 75.924 166.232 75.712 165.976 75.576C165.72 75.432 165.324 75.292 164.788 75.156C164.3 75.028 163.9 74.9 163.588 74.772C163.284 74.636 163.02 74.44 162.796 74.184C162.58 73.92 162.472 73.576 162.472 73.152C162.472 72.816 162.572 72.508 162.772 72.228C162.972 71.948 163.256 71.728 163.624 71.568C163.992 71.4 164.412 71.316 164.884 71.316C165.612 71.316 166.2 71.5 166.648 71.868C167.096 72.236 167.336 72.74 167.368 73.38H166.276C166.252 73.036 166.112 72.76 165.856 72.552C165.608 72.344 165.272 72.24 164.848 72.24C164.456 72.24 164.144 72.324 163.912 72.492C163.68 72.66 163.564 72.88 163.564 73.152C163.564 73.368 163.632 73.548 163.768 73.692C163.912 73.828 164.088 73.94 164.296 74.028C164.512 74.108 164.808 74.2 165.184 74.304C165.656 74.432 166.04 74.56 166.336 74.688C166.632 74.808 166.884 74.992 167.092 75.24C167.308 75.488 167.42 75.812 167.428 76.212C167.428 76.572 167.328 76.896 167.128 77.184C166.928 77.472 166.644 77.7 166.276 77.868C165.916 78.028 165.5 78.108 165.028 78.108ZM179.837 71.304C180.349 71.304 180.805 71.412 181.205 71.628C181.605 71.836 181.921 72.152 182.153 72.576C182.385 73 182.501 73.516 182.501 74.124V78H181.421V74.28C181.421 73.624 181.257 73.124 180.929 72.78C180.609 72.428 180.173 72.252 179.621 72.252C179.053 72.252 178.601 72.436 178.265 72.804C177.929 73.164 177.761 73.688 177.761 74.376V78H176.681V74.28C176.681 73.624 176.517 73.124 176.189 72.78C175.869 72.428 175.433 72.252 174.881 72.252C174.313 72.252 173.861 72.436 173.525 72.804C173.189 73.164 173.021 73.688 173.021 74.376V78H171.929V71.424H173.021V72.372C173.237 72.028 173.525 71.764 173.885 71.58C174.253 71.396 174.657 71.304 175.097 71.304C175.649 71.304 176.137 71.428 176.561 71.676C176.985 71.924 177.301 72.288 177.509 72.768C177.693 72.304 177.997 71.944 178.421 71.688C178.845 71.432 179.317 71.304 179.837 71.304ZM187.04 78.108C186.424 78.108 185.864 77.968 185.36 77.688C184.864 77.408 184.472 77.012 184.184 76.5C183.904 75.98 183.764 75.38 183.764 74.7C183.764 74.028 183.908 73.436 184.196 72.924C184.492 72.404 184.892 72.008 185.396 71.736C185.9 71.456 186.464 71.316 187.088 71.316C187.712 71.316 188.276 71.456 188.78 71.736C189.284 72.008 189.68 72.4 189.968 72.912C190.264 73.424 190.412 74.02 190.412 74.7C190.412 75.38 190.26 75.98 189.956 76.5C189.66 77.012 189.256 77.408 188.744 77.688C188.232 77.968 187.664 78.108 187.04 78.108ZM187.04 77.148C187.432 77.148 187.8 77.056 188.144 76.872C188.488 76.688 188.764 76.412 188.972 76.044C189.188 75.676 189.296 75.228 189.296 74.7C189.296 74.172 189.192 73.724 188.984 73.356C188.776 72.988 188.504 72.716 188.168 72.54C187.832 72.356 187.468 72.264 187.076 72.264C186.676 72.264 186.308 72.356 185.972 72.54C185.644 72.716 185.38 72.988 185.18 73.356C184.98 73.724 184.88 74.172 184.88 74.7C184.88 75.236 184.976 75.688 185.168 76.056C185.368 76.424 185.632 76.7 185.96 76.884C186.288 77.06 186.648 77.148 187.04 77.148ZM194.932 71.304C195.732 71.304 196.38 71.548 196.876 72.036C197.372 72.516 197.62 73.212 197.62 74.124V78H196.54V74.28C196.54 73.624 196.376 73.124 196.048 72.78C195.72 72.428 195.272 72.252 194.704 72.252C194.128 72.252 193.668 72.432 193.324 72.792C192.988 73.152 192.82 73.676 192.82 74.364V78H191.728V71.424H192.82V72.36C193.036 72.024 193.328 71.764 193.696 71.58C194.072 71.396 194.484 71.304 194.932 71.304ZM200.616 72.324V76.2C200.616 76.52 200.684 76.748 200.82 76.884C200.956 77.012 201.192 77.076 201.528 77.076H202.332V78H201.348C200.74 78 200.284 77.86 199.98 77.58C199.676 77.3 199.524 76.84 199.524 76.2V72.324H198.672V71.424H199.524V69.768H200.616V71.424H202.332V72.324H200.616ZM206.799 71.304C207.295 71.304 207.743 71.412 208.143 71.628C208.543 71.836 208.855 72.152 209.079 72.576C209.311 73 209.427 73.516 209.427 74.124V78H208.347V74.28C208.347 73.624 208.183 73.124 207.855 72.78C207.527 72.428 207.079 72.252 206.511 72.252C205.935 72.252 205.475 72.432 205.131 72.792C204.795 73.152 204.627 73.676 204.627 74.364V78H203.535V69.12H204.627V72.36C204.843 72.024 205.139 71.764 205.515 71.58C205.899 71.396 206.327 71.304 206.799 71.304Z" fill="#292D32"/>
<path d="M114 66L114 78" stroke="#D0004B" stroke-width="2" stroke-linecap="round" stroke-linejoin="round"/>
<path d="M119.833 73L114 78.8333L108.167 73" stroke="#D0004B" stroke-width="2" stroke-linecap="round" stroke-linejoin="round"/>
<defs>
<linearGradient id="paint0_linear_0_23" x1="74.55" y1="2.14197e-06" x2="42" y2="84" gradientUnits="userSpaceOnUse">
<stop stop-color="#CAF1FF"/>
<stop offset="1" stop-color="#CDF4FF"/>
</linearGradient>
</defs>
</svg>
