<svg width="228" height="84" viewBox="0 0 228 84" fill="none" xmlns="http://www.w3.org/2000/svg">
<path d="M106.352 6.278V9.54H109.908V10.59H106.352V13.95H110.328V15H105.078V5.228H110.328V6.278H106.352ZM111.64 11.136C111.64 10.352 111.798 9.666 112.116 9.078C112.433 8.48067 112.867 8.01867 113.418 7.692C113.978 7.36533 114.598 7.202 115.28 7.202C115.952 7.202 116.535 7.34667 117.03 7.636C117.524 7.92533 117.893 8.28933 118.136 8.728V7.328H119.424V15H118.136V13.572C117.884 14.02 117.506 14.3933 117.002 14.692C116.507 14.9813 115.928 15.126 115.266 15.126C114.584 15.126 113.968 14.958 113.418 14.622C112.867 14.286 112.433 13.8147 112.116 13.208C111.798 12.6013 111.64 11.9107 111.64 11.136ZM118.136 11.15C118.136 10.5713 118.019 10.0673 117.786 9.638C117.552 9.20867 117.235 8.882 116.834 8.658C116.442 8.42467 116.008 8.308 115.532 8.308C115.056 8.308 114.622 8.42 114.23 8.644C113.838 8.868 113.525 9.19467 113.292 9.624C113.058 10.0533 112.942 10.5573 112.942 11.136C112.942 11.724 113.058 12.2373 113.292 12.676C113.525 13.1053 113.838 13.4367 114.23 13.67C114.622 13.894 115.056 14.006 115.532 14.006C116.008 14.006 116.442 13.894 116.834 13.67C117.235 13.4367 117.552 13.1053 117.786 12.676C118.019 12.2373 118.136 11.7287 118.136 11.15ZM122.711 8.574C122.935 8.13533 123.252 7.79467 123.663 7.552C124.083 7.30933 124.591 7.188 125.189 7.188V8.504H124.853C123.425 8.504 122.711 9.27867 122.711 10.828V15H121.437V7.328H122.711V8.574ZM130.257 7.188C131.191 7.188 131.947 7.47267 132.525 8.042C133.104 8.602 133.393 9.414 133.393 10.478V15H132.133V10.66C132.133 9.89467 131.942 9.31133 131.559 8.91C131.177 8.49933 130.654 8.294 129.991 8.294C129.319 8.294 128.783 8.504 128.381 8.924C127.989 9.344 127.793 9.95533 127.793 10.758V15H126.519V7.328H127.793V8.42C128.045 8.028 128.386 7.72467 128.815 7.51C129.254 7.29533 129.735 7.188 130.257 7.188ZM135.992 6.082C135.75 6.082 135.544 5.998 135.376 5.83C135.208 5.662 135.124 5.45667 135.124 5.214C135.124 4.97133 135.208 4.766 135.376 4.598C135.544 4.43 135.75 4.346 135.992 4.346C136.226 4.346 136.422 4.43 136.58 4.598C136.748 4.766 136.832 4.97133 136.832 5.214C136.832 5.45667 136.748 5.662 136.58 5.83C136.422 5.998 136.226 6.082 135.992 6.082ZM136.608 7.328V15H135.334V7.328H136.608ZM142.378 7.188C143.311 7.188 144.067 7.47267 144.646 8.042C145.224 8.602 145.514 9.414 145.514 10.478V15H144.254V10.66C144.254 9.89467 144.062 9.31133 143.68 8.91C143.297 8.49933 142.774 8.294 142.112 8.294C141.44 8.294 140.903 8.504 140.502 8.924C140.11 9.344 139.914 9.95533 139.914 10.758V15H138.64V7.328H139.914V8.42C140.166 8.028 140.506 7.72467 140.936 7.51C141.374 7.29533 141.855 7.188 142.378 7.188ZM150.619 7.202C151.281 7.202 151.86 7.34667 152.355 7.636C152.859 7.92533 153.232 8.28933 153.475 8.728V7.328H154.763V15.168C154.763 15.868 154.613 16.4887 154.315 17.03C154.016 17.5807 153.587 18.01 153.027 18.318C152.476 18.626 151.832 18.78 151.095 18.78C150.087 18.78 149.247 18.542 148.575 18.066C147.903 17.59 147.506 16.9413 147.385 16.12H148.645C148.785 16.5867 149.074 16.96 149.513 17.24C149.951 17.5293 150.479 17.674 151.095 17.674C151.795 17.674 152.364 17.4547 152.803 17.016C153.251 16.5773 153.475 15.9613 153.475 15.168V13.558C153.223 14.006 152.849 14.3793 152.355 14.678C151.86 14.9767 151.281 15.126 150.619 15.126C149.937 15.126 149.317 14.958 148.757 14.622C148.206 14.286 147.772 13.8147 147.455 13.208C147.137 12.6013 146.979 11.9107 146.979 11.136C146.979 10.352 147.137 9.666 147.455 9.078C147.772 8.48067 148.206 8.01867 148.757 7.692C149.317 7.36533 149.937 7.202 150.619 7.202ZM153.475 11.15C153.475 10.5713 153.358 10.0673 153.125 9.638C152.891 9.20867 152.574 8.882 152.173 8.658C151.781 8.42467 151.347 8.308 150.871 8.308C150.395 8.308 149.961 8.42 149.569 8.644C149.177 8.868 148.864 9.19467 148.631 9.624C148.397 10.0533 148.281 10.5573 148.281 11.136C148.281 11.724 148.397 12.2373 148.631 12.676C148.864 13.1053 149.177 13.4367 149.569 13.67C149.961 13.894 150.395 14.006 150.871 14.006C151.347 14.006 151.781 13.894 152.173 13.67C152.574 13.4367 152.891 13.1053 153.125 12.676C153.358 12.2373 153.475 11.7287 153.475 11.15Z" fill="#ACACAC"/>
<path d="M122.144 45.568C122.144 46.6773 121.856 47.7227 121.28 48.704C120.725 49.664 119.893 50.464 118.784 51.104C117.696 51.7227 116.405 52.0853 114.912 52.192V54.784H112.864V52.16C110.731 51.968 109.013 51.328 107.712 50.24C106.411 49.1307 105.739 47.6373 105.696 45.76H110.496C110.624 47.296 111.413 48.224 112.864 48.544V42.432C111.328 42.048 110.091 41.664 109.152 41.28C108.213 40.896 107.403 40.2773 106.72 39.424C106.037 38.5707 105.696 37.408 105.696 35.936C105.696 34.08 106.357 32.5653 107.68 31.392C109.024 30.2187 110.752 29.5467 112.864 29.376V26.784H114.912V29.376C116.96 29.5467 118.592 30.1653 119.808 31.232C121.045 32.2987 121.739 33.7707 121.888 35.648H117.056C116.992 35.0293 116.768 34.496 116.384 34.048C116.021 33.5787 115.531 33.248 114.912 33.056V39.104C116.512 39.5093 117.771 39.904 118.688 40.288C119.627 40.6507 120.437 41.2587 121.12 42.112C121.803 42.944 122.144 44.096 122.144 45.568ZM110.368 35.712C110.368 36.416 110.581 36.992 111.008 37.44C111.435 37.8667 112.053 38.2187 112.864 38.496V32.96C112.096 33.0667 111.488 33.3547 111.04 33.824C110.592 34.2933 110.368 34.9227 110.368 35.712ZM114.912 48.608C115.723 48.4587 116.352 48.128 116.8 47.616C117.269 47.104 117.504 46.4853 117.504 45.76C117.504 45.056 117.28 44.4907 116.832 44.064C116.384 43.6373 115.744 43.2853 114.912 43.008V48.608ZM125.77 32.8V28.672H133.482V52H128.874V32.8H125.77ZM142.771 45.44C142.942 46.3787 143.326 47.104 143.923 47.616C144.542 48.1067 145.363 48.352 146.387 48.352C147.71 48.352 148.67 47.808 149.267 46.72C149.865 45.6107 150.163 43.7547 150.163 41.152C149.673 41.8347 148.979 42.368 148.083 42.752C147.209 43.136 146.259 43.328 145.235 43.328C143.87 43.328 142.633 43.0507 141.523 42.496C140.435 41.92 139.571 41.0773 138.931 39.968C138.291 38.8373 137.971 37.472 137.971 35.872C137.971 33.504 138.675 31.6267 140.083 30.24C141.491 28.832 143.411 28.128 145.843 28.128C148.873 28.128 151.006 29.0987 152.243 31.04C153.502 32.9813 154.131 35.904 154.131 39.808C154.131 42.5813 153.886 44.8533 153.395 46.624C152.926 48.3947 152.105 49.7387 150.931 50.656C149.779 51.5733 148.201 52.032 146.195 52.032C144.617 52.032 143.273 51.7333 142.163 51.136C141.054 50.5173 140.201 49.7173 139.603 48.736C139.027 47.7333 138.697 46.6347 138.611 45.44H142.771ZM146.163 39.68C147.273 39.68 148.147 39.3387 148.787 38.656C149.427 37.9733 149.747 37.056 149.747 35.904C149.747 34.6453 149.406 33.6747 148.723 32.992C148.062 32.288 147.155 31.936 146.003 31.936C144.851 31.936 143.934 32.2987 143.251 33.024C142.59 33.728 142.259 34.6667 142.259 35.84C142.259 36.9707 142.579 37.8987 143.219 38.624C143.881 39.328 144.862 39.68 146.163 39.68ZM161.203 39.648C159.069 38.5387 158.003 36.8213 158.003 34.496C158.003 33.344 158.291 32.2987 158.867 31.36C159.464 30.4 160.349 29.6427 161.523 29.088C162.717 28.512 164.168 28.224 165.875 28.224C167.581 28.224 169.021 28.512 170.195 29.088C171.389 29.6427 172.275 30.4 172.851 31.36C173.448 32.2987 173.747 33.344 173.747 34.496C173.747 35.6693 173.459 36.704 172.883 37.6C172.307 38.4747 171.539 39.1573 170.579 39.648C171.752 40.16 172.669 40.9067 173.331 41.888C173.992 42.8693 174.323 44.032 174.323 45.376C174.323 46.8267 173.949 48.096 173.203 49.184C172.477 50.2507 171.475 51.072 170.195 51.648C168.915 52.224 167.475 52.512 165.875 52.512C164.275 52.512 162.835 52.224 161.555 51.648C160.296 51.072 159.293 50.2507 158.547 49.184C157.821 48.096 157.459 46.8267 157.459 45.376C157.459 44.032 157.789 42.8693 158.451 41.888C159.112 40.8853 160.029 40.1387 161.203 39.648ZM169.395 35.136C169.395 34.0907 169.075 33.28 168.435 32.704C167.816 32.128 166.963 31.84 165.875 31.84C164.808 31.84 163.955 32.128 163.315 32.704C162.696 33.28 162.387 34.1013 162.387 35.168C162.387 36.128 162.707 36.896 163.347 37.472C164.008 38.048 164.851 38.336 165.875 38.336C166.899 38.336 167.741 38.048 168.403 37.472C169.064 36.8747 169.395 36.096 169.395 35.136ZM165.875 41.6C164.659 41.6 163.667 41.9093 162.899 42.528C162.152 43.1467 161.779 44.032 161.779 45.184C161.779 46.2507 162.141 47.1253 162.867 47.808C163.613 48.4693 164.616 48.8 165.875 48.8C167.133 48.8 168.125 48.4587 168.851 47.776C169.576 47.0933 169.939 46.2293 169.939 45.184C169.939 44.0533 169.565 43.1787 168.819 42.56C168.072 41.92 167.091 41.6 165.875 41.6ZM188.549 52L182.533 44.448V52H178.053V28.32H182.533V41.792L188.485 34.272H194.309L186.501 43.168L194.373 52H188.549Z" fill="#333333"/>
<circle cx="42" cy="42" r="42" fill="url(#paint0_linear_0_7)"/>
<path d="M43.8375 50.8379H40.5475C38.22 50.8379 36.3125 48.8779 36.3125 46.4629C36.3125 45.7454 36.9075 45.1504 37.625 45.1504C38.3425 45.1504 38.9375 45.7454 38.9375 46.4629C38.9375 47.4254 39.655 48.2129 40.5475 48.2129H43.8375C44.52 48.2129 45.0625 47.6004 45.0625 46.8479C45.0625 45.9029 44.8 45.7629 44.205 45.5529L38.9375 43.7154C37.8175 43.3304 36.3125 42.5079 36.3125 39.9354C36.3125 37.7479 38.045 35.9454 40.1625 35.9454H43.4525C45.78 35.9454 47.6875 37.9054 47.6875 40.3204C47.6875 41.0379 47.0925 41.6329 46.375 41.6329C45.6575 41.6329 45.0625 41.0379 45.0625 40.3204C45.0625 39.3579 44.345 38.5704 43.4525 38.5704H40.1625C39.48 38.5704 38.9375 39.1829 38.9375 39.9354C38.9375 40.8804 39.2 41.0204 39.795 41.2304L45.0625 43.0679C46.1825 43.4529 47.6875 44.2754 47.6875 46.8479C47.6875 49.0529 45.955 50.8379 43.8375 50.8379Z" fill="#00AC4F"/>
<path d="M42 52.5875C41.2825 52.5875 40.6875 51.9925 40.6875 51.275V35.525C40.6875 34.8075 41.2825 34.2125 42 34.2125C42.7175 34.2125 43.3125 34.8075 43.3125 35.525V51.275C43.3125 51.9925 42.7175 52.5875 42 52.5875Z" fill="#00AC4F"/>
<path d="M42 62.2125C31.6225 62.2125 23.1875 53.7775 23.1875 43.4C23.1875 33.0225 31.6225 24.5875 42 24.5875C42.7175 24.5875 43.3125 25.1825 43.3125 25.9C43.3125 26.6175 42.7175 27.2125 42 27.2125C33.075 27.2125 25.8125 34.475 25.8125 43.4C25.8125 52.325 33.075 59.5875 42 59.5875C50.925 59.5875 58.1875 52.325 58.1875 43.4C58.1875 42.6825 58.7825 42.0875 59.5 42.0875C60.2175 42.0875 60.8125 42.6825 60.8125 43.4C60.8125 53.7775 52.3775 62.2125 42 62.2125Z" fill="#00AC4F"/>
<path d="M57.75 35.9625H50.75C50.0325 35.9625 49.4375 35.3675 49.4375 34.65V27.65C49.4375 26.9325 50.0325 26.3375 50.75 26.3375C51.4675 26.3375 52.0625 26.9325 52.0625 27.65V33.3375H57.75C58.4675 33.3375 59.0625 33.9325 59.0625 34.65C59.0625 35.3675 58.4675 35.9625 57.75 35.9625Z" fill="#00AC4F"/>
<path d="M50.749 35.9632C50.4165 35.9632 50.084 35.8407 49.8215 35.5782C49.314 35.0707 49.314 34.2307 49.8215 33.7232L58.5715 24.9732C59.079 24.4657 59.919 24.4657 60.4265 24.9732C60.934 25.4807 60.934 26.3207 60.4265 26.8282L51.6765 35.5782C51.414 35.8407 51.0815 35.9632 50.749 35.9632Z" fill="#00AC4F"/>
<path d="M127.612 71.712C127.644 70.856 127.924 70.196 128.452 69.732C128.98 69.268 129.696 69.036 130.6 69.036C131.2 69.036 131.712 69.14 132.136 69.348C132.568 69.556 132.892 69.84 133.108 70.2C133.332 70.56 133.444 70.964 133.444 71.412C133.444 71.94 133.312 72.372 133.048 72.708C132.784 73.036 132.476 73.26 132.124 73.38V73.428C132.58 73.58 132.94 73.832 133.204 74.184C133.468 74.536 133.6 74.988 133.6 75.54C133.6 76.036 133.484 76.476 133.252 76.86C133.028 77.236 132.696 77.532 132.256 77.748C131.824 77.964 131.308 78.072 130.708 78.072C129.748 78.072 128.98 77.836 128.404 77.364C127.836 76.892 127.536 76.18 127.504 75.228H129.496C129.504 75.58 129.604 75.86 129.796 76.068C129.988 76.268 130.268 76.368 130.636 76.368C130.948 76.368 131.188 76.28 131.356 76.104C131.532 75.92 131.62 75.68 131.62 75.384C131.62 75 131.496 74.724 131.248 74.556C131.008 74.38 130.62 74.292 130.084 74.292H129.7V72.624H130.084C130.492 72.624 130.82 72.556 131.068 72.42C131.324 72.276 131.452 72.024 131.452 71.664C131.452 71.376 131.372 71.152 131.212 70.992C131.052 70.832 130.832 70.752 130.552 70.752C130.248 70.752 130.02 70.844 129.868 71.028C129.724 71.212 129.64 71.44 129.616 71.712H127.612ZM140.278 70.776L137.266 78H135.166L138.214 71.004H134.482V69.252H140.278V70.776ZM142.152 78.096C141.792 78.096 141.496 77.992 141.264 77.784C141.04 77.568 140.928 77.304 140.928 76.992C140.928 76.672 141.04 76.404 141.264 76.188C141.496 75.972 141.792 75.864 142.152 75.864C142.504 75.864 142.792 75.972 143.016 76.188C143.248 76.404 143.364 76.672 143.364 76.992C143.364 77.304 143.248 77.568 143.016 77.784C142.792 77.992 142.504 78.096 142.152 78.096ZM145.694 73.296C144.942 72.896 144.566 72.268 144.566 71.412C144.566 70.98 144.678 70.588 144.902 70.236C145.126 69.876 145.466 69.592 145.922 69.384C146.378 69.168 146.938 69.06 147.602 69.06C148.266 69.06 148.822 69.168 149.27 69.384C149.726 69.592 150.066 69.876 150.29 70.236C150.514 70.588 150.626 70.98 150.626 71.412C150.626 71.844 150.522 72.22 150.314 72.54C150.114 72.86 149.842 73.112 149.498 73.296C149.93 73.504 150.262 73.792 150.494 74.16C150.726 74.52 150.842 74.944 150.842 75.432C150.842 76 150.698 76.492 150.41 76.908C150.122 77.316 149.73 77.628 149.234 77.844C148.746 78.06 148.202 78.168 147.602 78.168C147.002 78.168 146.454 78.06 145.958 77.844C145.47 77.628 145.082 77.316 144.794 76.908C144.506 76.492 144.362 76 144.362 75.432C144.362 74.936 144.478 74.508 144.71 74.148C144.942 73.78 145.27 73.496 145.694 73.296ZM148.634 71.724C148.634 71.396 148.538 71.144 148.346 70.968C148.162 70.784 147.914 70.692 147.602 70.692C147.29 70.692 147.038 70.784 146.846 70.968C146.662 71.152 146.57 71.408 146.57 71.736C146.57 72.048 146.666 72.296 146.858 72.48C147.05 72.656 147.298 72.744 147.602 72.744C147.906 72.744 148.154 72.652 148.346 72.468C148.538 72.284 148.634 72.036 148.634 71.724ZM147.602 74.184C147.226 74.184 146.922 74.288 146.69 74.496C146.458 74.696 146.342 74.976 146.342 75.336C146.342 75.672 146.454 75.948 146.678 76.164C146.91 76.38 147.218 76.488 147.602 76.488C147.986 76.488 148.286 76.38 148.502 76.164C148.726 75.948 148.838 75.672 148.838 75.336C148.838 74.984 148.722 74.704 148.49 74.496C148.266 74.288 147.97 74.184 147.602 74.184ZM151.747 71.448C151.747 70.8 151.931 70.3 152.299 69.948C152.675 69.596 153.159 69.42 153.751 69.42C154.343 69.42 154.823 69.596 155.191 69.948C155.559 70.3 155.743 70.8 155.743 71.448C155.743 72.096 155.559 72.596 155.191 72.948C154.823 73.3 154.343 73.476 153.751 73.476C153.159 73.476 152.675 73.3 152.299 72.948C151.931 72.596 151.747 72.096 151.747 71.448ZM159.895 69.552L155.275 78H153.295L157.915 69.552H159.895ZM153.739 70.62C153.355 70.62 153.163 70.896 153.163 71.448C153.163 71.992 153.355 72.264 153.739 72.264C153.923 72.264 154.067 72.196 154.171 72.06C154.275 71.924 154.327 71.72 154.327 71.448C154.327 70.896 154.131 70.62 153.739 70.62ZM157.459 76.104C157.459 75.456 157.643 74.956 158.011 74.604C158.379 74.252 158.859 74.076 159.451 74.076C160.043 74.076 160.523 74.252 160.891 74.604C161.259 74.956 161.443 75.456 161.443 76.104C161.443 76.752 161.259 77.252 160.891 77.604C160.523 77.956 160.043 78.132 159.451 78.132C158.859 78.132 158.379 77.956 158.011 77.604C157.643 77.252 157.459 76.752 157.459 76.104ZM159.439 75.276C159.255 75.276 159.111 75.344 159.007 75.48C158.911 75.616 158.863 75.824 158.863 76.104C158.863 76.648 159.055 76.92 159.439 76.92C159.623 76.92 159.767 76.852 159.871 76.716C159.975 76.58 160.027 76.376 160.027 76.104C160.027 75.832 159.975 75.628 159.871 75.492C159.767 75.348 159.623 75.276 159.439 75.276Z" fill="#00AC4F"/>
<path d="M167.032 72.324V76.2C167.032 76.52 167.1 76.748 167.236 76.884C167.372 77.012 167.608 77.076 167.944 77.076H168.748V78H167.764C167.156 78 166.7 77.86 166.396 77.58C166.092 77.3 165.94 76.84 165.94 76.2V72.324H165.088V71.424H165.94V69.768H167.032V71.424H168.748V72.324H167.032ZM173.215 71.304C173.711 71.304 174.159 71.412 174.559 71.628C174.959 71.836 175.271 72.152 175.495 72.576C175.727 73 175.843 73.516 175.843 74.124V78H174.763V74.28C174.763 73.624 174.599 73.124 174.271 72.78C173.943 72.428 173.495 72.252 172.927 72.252C172.351 72.252 171.891 72.432 171.547 72.792C171.211 73.152 171.043 73.676 171.043 74.364V78H169.951V69.12H171.043V72.36C171.259 72.024 171.555 71.764 171.931 71.58C172.315 71.396 172.743 71.304 173.215 71.304ZM178.071 70.356C177.863 70.356 177.687 70.284 177.543 70.14C177.399 69.996 177.327 69.82 177.327 69.612C177.327 69.404 177.399 69.228 177.543 69.084C177.687 68.94 177.863 68.868 178.071 68.868C178.271 68.868 178.439 68.94 178.575 69.084C178.719 69.228 178.791 69.404 178.791 69.612C178.791 69.82 178.719 69.996 178.575 70.14C178.439 70.284 178.271 70.356 178.071 70.356ZM178.599 71.424V78H177.507V71.424H178.599ZM182.668 78.108C182.164 78.108 181.712 78.024 181.312 77.856C180.912 77.68 180.596 77.44 180.364 77.136C180.132 76.824 180.004 76.468 179.98 76.068H181.108C181.14 76.396 181.292 76.664 181.564 76.872C181.844 77.08 182.208 77.184 182.656 77.184C183.072 77.184 183.4 77.092 183.64 76.908C183.88 76.724 184 76.492 184 76.212C184 75.924 183.872 75.712 183.616 75.576C183.36 75.432 182.964 75.292 182.428 75.156C181.94 75.028 181.54 74.9 181.228 74.772C180.924 74.636 180.66 74.44 180.436 74.184C180.22 73.92 180.112 73.576 180.112 73.152C180.112 72.816 180.212 72.508 180.412 72.228C180.612 71.948 180.896 71.728 181.264 71.568C181.632 71.4 182.052 71.316 182.524 71.316C183.252 71.316 183.84 71.5 184.288 71.868C184.736 72.236 184.976 72.74 185.008 73.38H183.916C183.892 73.036 183.752 72.76 183.496 72.552C183.248 72.344 182.912 72.24 182.488 72.24C182.096 72.24 181.784 72.324 181.552 72.492C181.32 72.66 181.204 72.88 181.204 73.152C181.204 73.368 181.272 73.548 181.408 73.692C181.552 73.828 181.728 73.94 181.936 74.028C182.152 74.108 182.448 74.2 182.824 74.304C183.296 74.432 183.68 74.56 183.976 74.688C184.272 74.808 184.524 74.992 184.732 75.24C184.948 75.488 185.06 75.812 185.068 76.212C185.068 76.572 184.968 76.896 184.768 77.184C184.568 77.472 184.284 77.7 183.916 77.868C183.556 78.028 183.14 78.108 182.668 78.108ZM197.477 71.304C197.989 71.304 198.445 71.412 198.845 71.628C199.245 71.836 199.561 72.152 199.793 72.576C200.025 73 200.141 73.516 200.141 74.124V78H199.061V74.28C199.061 73.624 198.897 73.124 198.569 72.78C198.249 72.428 197.813 72.252 197.261 72.252C196.693 72.252 196.241 72.436 195.905 72.804C195.569 73.164 195.401 73.688 195.401 74.376V78H194.321V74.28C194.321 73.624 194.157 73.124 193.829 72.78C193.509 72.428 193.073 72.252 192.521 72.252C191.953 72.252 191.501 72.436 191.165 72.804C190.829 73.164 190.661 73.688 190.661 74.376V78H189.569V71.424H190.661V72.372C190.877 72.028 191.165 71.764 191.525 71.58C191.893 71.396 192.297 71.304 192.737 71.304C193.289 71.304 193.777 71.428 194.201 71.676C194.625 71.924 194.941 72.288 195.149 72.768C195.333 72.304 195.637 71.944 196.061 71.688C196.485 71.432 196.957 71.304 197.477 71.304ZM204.68 78.108C204.064 78.108 203.504 77.968 203 77.688C202.504 77.408 202.112 77.012 201.824 76.5C201.544 75.98 201.404 75.38 201.404 74.7C201.404 74.028 201.548 73.436 201.836 72.924C202.132 72.404 202.532 72.008 203.036 71.736C203.54 71.456 204.104 71.316 204.728 71.316C205.352 71.316 205.916 71.456 206.42 71.736C206.924 72.008 207.32 72.4 207.608 72.912C207.904 73.424 208.052 74.02 208.052 74.7C208.052 75.38 207.9 75.98 207.596 76.5C207.3 77.012 206.896 77.408 206.384 77.688C205.872 77.968 205.304 78.108 204.68 78.108ZM204.68 77.148C205.072 77.148 205.44 77.056 205.784 76.872C206.128 76.688 206.404 76.412 206.612 76.044C206.828 75.676 206.936 75.228 206.936 74.7C206.936 74.172 206.832 73.724 206.624 73.356C206.416 72.988 206.144 72.716 205.808 72.54C205.472 72.356 205.108 72.264 204.716 72.264C204.316 72.264 203.948 72.356 203.612 72.54C203.284 72.716 203.02 72.988 202.82 73.356C202.62 73.724 202.52 74.172 202.52 74.7C202.52 75.236 202.616 75.688 202.808 76.056C203.008 76.424 203.272 76.7 203.6 76.884C203.928 77.06 204.288 77.148 204.68 77.148ZM212.572 71.304C213.372 71.304 214.02 71.548 214.516 72.036C215.012 72.516 215.26 73.212 215.26 74.124V78H214.18V74.28C214.18 73.624 214.016 73.124 213.688 72.78C213.36 72.428 212.912 72.252 212.344 72.252C211.768 72.252 211.308 72.432 210.964 72.792C210.628 73.152 210.46 73.676 210.46 74.364V78H209.368V71.424H210.46V72.36C210.676 72.024 210.968 71.764 211.336 71.58C211.712 71.396 212.124 71.304 212.572 71.304ZM218.256 72.324V76.2C218.256 76.52 218.324 76.748 218.46 76.884C218.596 77.012 218.832 77.076 219.168 77.076H219.972V78H218.988C218.38 78 217.924 77.86 217.62 77.58C217.316 77.3 217.164 76.84 217.164 76.2V72.324H216.312V71.424H217.164V69.768H218.256V71.424H219.972V72.324H218.256ZM224.439 71.304C224.935 71.304 225.383 71.412 225.783 71.628C226.183 71.836 226.495 72.152 226.719 72.576C226.951 73 227.067 73.516 227.067 74.124V78H225.987V74.28C225.987 73.624 225.823 73.124 225.495 72.78C225.167 72.428 224.719 72.252 224.151 72.252C223.575 72.252 223.115 72.432 222.771 72.792C222.435 73.152 222.267 73.676 222.267 74.364V78H221.175V69.12H222.267V72.36C222.483 72.024 222.779 71.764 223.155 71.58C223.539 71.396 223.967 71.304 224.439 71.304Z" fill="#292D32"/>
<path d="M114 80L114 68" stroke="#00AC4F" stroke-width="2" stroke-linecap="round" stroke-linejoin="round"/>
<path d="M108.167 73L114 67.1667L119.833 73" stroke="#00AC4F" stroke-width="2" stroke-linecap="round" stroke-linejoin="round"/>
<defs>
<linearGradient id="paint0_linear_0_7" x1="74.55" y1="2.14197e-06" x2="42" y2="84" gradientUnits="userSpaceOnUse">
<stop stop-color="#D3FFE7"/>
<stop offset="1" stop-color="#EFFFF6"/>
</linearGradient>
</defs>
</svg>
