<svg width="204" height="84" viewBox="0 0 204 84" fill="none" xmlns="http://www.w3.org/2000/svg">
<path d="M111.084 5.242V6.278H108.424V15H107.15V6.278H104.476V5.242H111.084ZM115.858 15.126C115.14 15.126 114.486 14.9627 113.898 14.636C113.32 14.3093 112.862 13.8473 112.526 13.25C112.2 12.6433 112.036 11.9433 112.036 11.15C112.036 10.366 112.204 9.67533 112.54 9.078C112.886 8.47133 113.352 8.00933 113.94 7.692C114.528 7.36533 115.186 7.202 115.914 7.202C116.642 7.202 117.3 7.36533 117.888 7.692C118.476 8.00933 118.938 8.46667 119.274 9.064C119.62 9.66133 119.792 10.3567 119.792 11.15C119.792 11.9433 119.615 12.6433 119.26 13.25C118.915 13.8473 118.444 14.3093 117.846 14.636C117.249 14.9627 116.586 15.126 115.858 15.126ZM115.858 14.006C116.316 14.006 116.745 13.8987 117.146 13.684C117.548 13.4693 117.87 13.1473 118.112 12.718C118.364 12.2887 118.49 11.766 118.49 11.15C118.49 10.534 118.369 10.0113 118.126 9.582C117.884 9.15267 117.566 8.83533 117.174 8.63C116.782 8.41533 116.358 8.308 115.9 8.308C115.434 8.308 115.004 8.41533 114.612 8.63C114.23 8.83533 113.922 9.15267 113.688 9.582C113.455 10.0113 113.338 10.534 113.338 11.15C113.338 11.7753 113.45 12.3027 113.674 12.732C113.908 13.1613 114.216 13.4833 114.598 13.698C114.981 13.9033 115.401 14.006 115.858 14.006ZM122.881 8.378V12.9C122.881 13.2733 122.961 13.5393 123.119 13.698C123.278 13.8473 123.553 13.922 123.945 13.922H124.883V15H123.735C123.026 15 122.494 14.8367 122.139 14.51C121.785 14.1833 121.607 13.6467 121.607 12.9V8.378H120.613V7.328H121.607V5.396H122.881V7.328H124.883V8.378H122.881ZM125.811 11.136C125.811 10.352 125.97 9.666 126.287 9.078C126.604 8.48067 127.038 8.01867 127.589 7.692C128.149 7.36533 128.77 7.202 129.451 7.202C130.123 7.202 130.706 7.34667 131.201 7.636C131.696 7.92533 132.064 8.28933 132.307 8.728V7.328H133.595V15H132.307V13.572C132.055 14.02 131.677 14.3933 131.173 14.692C130.678 14.9813 130.1 15.126 129.437 15.126C128.756 15.126 128.14 14.958 127.589 14.622C127.038 14.286 126.604 13.8147 126.287 13.208C125.97 12.6013 125.811 11.9107 125.811 11.136ZM132.307 11.15C132.307 10.5713 132.19 10.0673 131.957 9.638C131.724 9.20867 131.406 8.882 131.005 8.658C130.613 8.42467 130.179 8.308 129.703 8.308C129.227 8.308 128.793 8.42 128.401 8.644C128.009 8.868 127.696 9.19467 127.463 9.624C127.23 10.0533 127.113 10.5573 127.113 11.136C127.113 11.724 127.23 12.2373 127.463 12.676C127.696 13.1053 128.009 13.4367 128.401 13.67C128.793 13.894 129.227 14.006 129.703 14.006C130.179 14.006 130.613 13.894 131.005 13.67C131.406 13.4367 131.724 13.1053 131.957 12.676C132.19 12.2373 132.307 11.7287 132.307 11.15ZM136.882 4.64V15H135.608V4.64H136.882ZM145.6 15.098C144.956 15.098 144.377 14.986 143.864 14.762C143.36 14.5287 142.963 14.2113 142.674 13.81C142.384 13.3993 142.235 12.928 142.226 12.396H143.584C143.63 12.8533 143.817 13.2407 144.144 13.558C144.48 13.866 144.965 14.02 145.6 14.02C146.206 14.02 146.682 13.8707 147.028 13.572C147.382 13.264 147.56 12.872 147.56 12.396C147.56 12.0227 147.457 11.7193 147.252 11.486C147.046 11.2527 146.79 11.0753 146.482 10.954C146.174 10.8327 145.758 10.702 145.236 10.562C144.592 10.394 144.074 10.226 143.682 10.058C143.299 9.89 142.968 9.62867 142.688 9.274C142.417 8.91 142.282 8.42467 142.282 7.818C142.282 7.286 142.417 6.81467 142.688 6.404C142.958 5.99333 143.336 5.676 143.822 5.452C144.316 5.228 144.881 5.116 145.516 5.116C146.43 5.116 147.177 5.34467 147.756 5.802C148.344 6.25933 148.675 6.866 148.75 7.622H147.35C147.303 7.24867 147.107 6.922 146.762 6.642C146.416 6.35267 145.959 6.208 145.39 6.208C144.858 6.208 144.424 6.348 144.088 6.628C143.752 6.89867 143.584 7.28133 143.584 7.776C143.584 8.13067 143.682 8.42 143.878 8.644C144.083 8.868 144.33 9.04067 144.62 9.162C144.918 9.274 145.334 9.40467 145.866 9.554C146.51 9.73133 147.028 9.90867 147.42 10.086C147.812 10.254 148.148 10.52 148.428 10.884C148.708 11.2387 148.848 11.724 148.848 12.34C148.848 12.816 148.722 13.264 148.47 13.684C148.218 14.104 147.844 14.4447 147.35 14.706C146.855 14.9673 146.272 15.098 145.6 15.098ZM150.106 11.136C150.106 10.352 150.265 9.666 150.582 9.078C150.9 8.48067 151.334 8.01867 151.884 7.692C152.444 7.36533 153.065 7.202 153.746 7.202C154.418 7.202 155.002 7.34667 155.496 7.636C155.991 7.92533 156.36 8.28933 156.602 8.728V7.328H157.89V15H156.602V13.572C156.35 14.02 155.972 14.3933 155.468 14.692C154.974 14.9813 154.395 15.126 153.732 15.126C153.051 15.126 152.435 14.958 151.884 14.622C151.334 14.286 150.9 13.8147 150.582 13.208C150.265 12.6013 150.106 11.9107 150.106 11.136ZM156.602 11.15C156.602 10.5713 156.486 10.0673 156.252 9.638C156.019 9.20867 155.702 8.882 155.3 8.658C154.908 8.42467 154.474 8.308 153.998 8.308C153.522 8.308 153.088 8.42 152.696 8.644C152.304 8.868 151.992 9.19467 151.758 9.624C151.525 10.0533 151.408 10.5573 151.408 11.136C151.408 11.724 151.525 12.2373 151.758 12.676C151.992 13.1053 152.304 13.4367 152.696 13.67C153.088 13.894 153.522 14.006 153.998 14.006C154.474 14.006 154.908 13.894 155.3 13.67C155.702 13.4367 156.019 13.1053 156.252 12.676C156.486 12.2373 156.602 11.7287 156.602 11.15ZM161.177 4.64V15H159.903V4.64H161.177ZM170.209 10.87C170.209 11.1127 170.195 11.3693 170.167 11.64H164.035C164.081 12.396 164.338 12.9887 164.805 13.418C165.281 13.838 165.855 14.048 166.527 14.048C167.077 14.048 167.535 13.922 167.899 13.67C168.272 13.4087 168.533 13.0633 168.683 12.634H170.055C169.849 13.3713 169.439 13.9733 168.823 14.44C168.207 14.8973 167.441 15.126 166.527 15.126C165.799 15.126 165.145 14.9627 164.567 14.636C163.997 14.3093 163.549 13.8473 163.223 13.25C162.896 12.6433 162.733 11.9433 162.733 11.15C162.733 10.3567 162.891 9.66133 163.209 9.064C163.526 8.46667 163.969 8.00933 164.539 7.692C165.117 7.36533 165.78 7.202 166.527 7.202C167.255 7.202 167.899 7.36067 168.459 7.678C169.019 7.99533 169.448 8.434 169.747 8.994C170.055 9.54467 170.209 10.17 170.209 10.87ZM168.893 10.604C168.893 10.1187 168.785 9.70333 168.571 9.358C168.356 9.00333 168.062 8.73733 167.689 8.56C167.325 8.37333 166.919 8.28 166.471 8.28C165.827 8.28 165.276 8.48533 164.819 8.896C164.371 9.30667 164.114 9.876 164.049 10.604H168.893ZM174.466 15.126C173.878 15.126 173.351 15.028 172.884 14.832C172.418 14.6267 172.049 14.3467 171.778 13.992C171.508 13.628 171.358 13.2127 171.33 12.746H172.646C172.684 13.1287 172.861 13.4413 173.178 13.684C173.505 13.9267 173.93 14.048 174.452 14.048C174.938 14.048 175.32 13.9407 175.6 13.726C175.88 13.5113 176.02 13.2407 176.02 12.914C176.02 12.578 175.871 12.3307 175.572 12.172C175.274 12.004 174.812 11.8407 174.186 11.682C173.617 11.5327 173.15 11.3833 172.786 11.234C172.432 11.0753 172.124 10.8467 171.862 10.548C171.61 10.24 171.484 9.83867 171.484 9.344C171.484 8.952 171.601 8.59267 171.834 8.266C172.068 7.93933 172.399 7.68267 172.828 7.496C173.258 7.3 173.748 7.202 174.298 7.202C175.148 7.202 175.834 7.41667 176.356 7.846C176.879 8.27533 177.159 8.86333 177.196 9.61H175.922C175.894 9.20867 175.731 8.88667 175.432 8.644C175.143 8.40133 174.751 8.28 174.256 8.28C173.799 8.28 173.435 8.378 173.164 8.574C172.894 8.77 172.758 9.02667 172.758 9.344C172.758 9.596 172.838 9.806 172.996 9.974C173.164 10.1327 173.37 10.2633 173.612 10.366C173.864 10.4593 174.21 10.5667 174.648 10.688C175.199 10.8373 175.647 10.9867 175.992 11.136C176.338 11.276 176.632 11.4907 176.874 11.78C177.126 12.0693 177.257 12.4473 177.266 12.914C177.266 13.334 177.15 13.712 176.916 14.048C176.683 14.384 176.352 14.65 175.922 14.846C175.502 15.0327 175.017 15.126 174.466 15.126Z" fill="#ACACAC"/>
<path d="M122.144 45.568C122.144 46.6773 121.856 47.7227 121.28 48.704C120.725 49.664 119.893 50.464 118.784 51.104C117.696 51.7227 116.405 52.0853 114.912 52.192V54.784H112.864V52.16C110.731 51.968 109.013 51.328 107.712 50.24C106.411 49.1307 105.739 47.6373 105.696 45.76H110.496C110.624 47.296 111.413 48.224 112.864 48.544V42.432C111.328 42.048 110.091 41.664 109.152 41.28C108.213 40.896 107.403 40.2773 106.72 39.424C106.037 38.5707 105.696 37.408 105.696 35.936C105.696 34.08 106.357 32.5653 107.68 31.392C109.024 30.2187 110.752 29.5467 112.864 29.376V26.784H114.912V29.376C116.96 29.5467 118.592 30.1653 119.808 31.232C121.045 32.2987 121.739 33.7707 121.888 35.648H117.056C116.992 35.0293 116.768 34.496 116.384 34.048C116.021 33.5787 115.531 33.248 114.912 33.056V39.104C116.512 39.5093 117.771 39.904 118.688 40.288C119.627 40.6507 120.437 41.2587 121.12 42.112C121.803 42.944 122.144 44.096 122.144 45.568ZM110.368 35.712C110.368 36.416 110.581 36.992 111.008 37.44C111.435 37.8667 112.053 38.2187 112.864 38.496V32.96C112.096 33.0667 111.488 33.3547 111.04 33.824C110.592 34.2933 110.368 34.9227 110.368 35.712ZM114.912 48.608C115.723 48.4587 116.352 48.128 116.8 47.616C117.269 47.104 117.504 46.4853 117.504 45.76C117.504 45.056 117.28 44.4907 116.832 44.064C116.384 43.6373 115.744 43.2853 114.912 43.008V48.608ZM130.218 39.648C128.084 38.5387 127.018 36.8213 127.018 34.496C127.018 33.344 127.306 32.2987 127.882 31.36C128.479 30.4 129.364 29.6427 130.538 29.088C131.732 28.512 133.183 28.224 134.89 28.224C136.596 28.224 138.036 28.512 139.21 29.088C140.404 29.6427 141.29 30.4 141.866 31.36C142.463 32.2987 142.762 33.344 142.762 34.496C142.762 35.6693 142.474 36.704 141.898 37.6C141.322 38.4747 140.554 39.1573 139.594 39.648C140.767 40.16 141.684 40.9067 142.346 41.888C143.007 42.8693 143.338 44.032 143.338 45.376C143.338 46.8267 142.964 48.096 142.218 49.184C141.492 50.2507 140.49 51.072 139.21 51.648C137.93 52.224 136.49 52.512 134.89 52.512C133.29 52.512 131.85 52.224 130.57 51.648C129.311 51.072 128.308 50.2507 127.562 49.184C126.836 48.096 126.474 46.8267 126.474 45.376C126.474 44.032 126.804 42.8693 127.466 41.888C128.127 40.8853 129.044 40.1387 130.218 39.648ZM138.41 35.136C138.41 34.0907 138.09 33.28 137.45 32.704C136.831 32.128 135.978 31.84 134.89 31.84C133.823 31.84 132.97 32.128 132.33 32.704C131.711 33.28 131.402 34.1013 131.402 35.168C131.402 36.128 131.722 36.896 132.362 37.472C133.023 38.048 133.866 38.336 134.89 38.336C135.914 38.336 136.756 38.048 137.418 37.472C138.079 36.8747 138.41 36.096 138.41 35.136ZM134.89 41.6C133.674 41.6 132.682 41.9093 131.914 42.528C131.167 43.1467 130.794 44.032 130.794 45.184C130.794 46.2507 131.156 47.1253 131.882 47.808C132.628 48.4693 133.631 48.8 134.89 48.8C136.148 48.8 137.14 48.4587 137.866 47.776C138.591 47.0933 138.954 46.2293 138.954 45.184C138.954 44.0533 138.58 43.1787 137.834 42.56C137.087 41.92 136.106 41.6 134.89 41.6ZM151.74 45.44C151.911 46.3787 152.295 47.104 152.892 47.616C153.511 48.1067 154.332 48.352 155.356 48.352C156.679 48.352 157.639 47.808 158.236 46.72C158.833 45.6107 159.132 43.7547 159.132 41.152C158.641 41.8347 157.948 42.368 157.052 42.752C156.177 43.136 155.228 43.328 154.204 43.328C152.839 43.328 151.601 43.0507 150.492 42.496C149.404 41.92 148.54 41.0773 147.9 39.968C147.26 38.8373 146.94 37.472 146.94 35.872C146.94 33.504 147.644 31.6267 149.052 30.24C150.46 28.832 152.38 28.128 154.812 28.128C157.841 28.128 159.975 29.0987 161.212 31.04C162.471 32.9813 163.1 35.904 163.1 39.808C163.1 42.5813 162.855 44.8533 162.364 46.624C161.895 48.3947 161.073 49.7387 159.9 50.656C158.748 51.5733 157.169 52.032 155.164 52.032C153.585 52.032 152.241 51.7333 151.132 51.136C150.023 50.5173 149.169 49.7173 148.572 48.736C147.996 47.7333 147.665 46.6347 147.58 45.44H151.74ZM155.132 39.68C156.241 39.68 157.116 39.3387 157.756 38.656C158.396 37.9733 158.716 37.056 158.716 35.904C158.716 34.6453 158.375 33.6747 157.692 32.992C157.031 32.288 156.124 31.936 154.972 31.936C153.82 31.936 152.903 32.2987 152.22 33.024C151.559 33.728 151.228 34.6667 151.228 35.84C151.228 36.9707 151.548 37.8987 152.188 38.624C152.849 39.328 153.831 39.68 155.132 39.68ZM177.275 52L171.259 44.448V52H166.779V28.32H171.259V41.792L177.211 34.272H183.035L175.227 43.168L183.099 52H177.275Z" fill="#333333"/>
<circle cx="42" cy="42" r="42" fill="url(#paint0_linear_0_39)"/>
<path d="M49.875 36.1022C49.1575 36.1022 48.5625 35.5072 48.5625 34.7897V32.3747C48.5625 30.5372 47.775 28.7522 46.41 27.5097C45.0275 26.2497 43.2425 25.6722 41.3525 25.8472C38.2025 26.1447 35.4375 29.3647 35.4375 32.7247V34.4222C35.4375 35.1397 34.8425 35.7347 34.125 35.7347C33.4075 35.7347 32.8125 35.1397 32.8125 34.4222V32.7072C32.8125 27.9997 36.61 23.6597 41.1075 23.2222C43.7325 22.9772 46.2525 23.7997 48.1775 25.5672C50.085 27.2997 51.1875 29.7847 51.1875 32.3747V34.7897C51.1875 35.5072 50.5925 36.1022 49.875 36.1022Z" fill="#DA001A"/>
<path d="M47.2496 60.8125H36.7497C28.6647 60.8125 27.1597 57.05 26.7747 53.3925L25.4622 42.91C25.2697 41.02 25.1997 38.3075 27.0372 36.2775C28.6122 34.5275 31.2197 33.6875 34.9997 33.6875H48.9996C52.7971 33.6875 55.4046 34.545 56.9621 36.2775C58.7821 38.3075 58.7296 41.02 58.5371 42.875L57.2246 53.3925C56.8396 57.05 55.3346 60.8125 47.2496 60.8125ZM34.9997 36.3125C32.0422 36.3125 30.0122 36.89 28.9797 38.045C28.1222 38.99 27.8422 40.4425 28.0697 42.6125L29.3822 53.095C29.6797 55.895 30.4497 58.205 36.7497 58.205H47.2496C53.5496 58.205 54.3196 55.9125 54.6171 53.13L55.9296 42.6125C56.1571 40.4775 55.8771 39.025 55.0196 38.0625C53.9871 36.89 51.9571 36.3125 48.9996 36.3125H34.9997Z" fill="#DA001A"/>
<path d="M47.9853 44.0123C47.0053 44.0123 46.2178 43.2248 46.2178 42.2623C46.2178 41.2998 47.0053 40.5123 47.9678 40.5123C48.9303 40.5123 49.7178 41.2998 49.7178 42.2623C49.7178 43.2248 48.9478 44.0123 47.9853 44.0123Z" fill="#DA001A"/>
<path d="M35.7353 44.0123C34.7553 44.0123 33.9678 43.2248 33.9678 42.2623C33.9678 41.2998 34.7553 40.5123 35.7178 40.5123C36.6803 40.5123 37.4678 41.2998 37.4678 42.2623C37.4678 43.2248 36.6978 44.0123 35.7353 44.0123Z" fill="#DA001A"/>
<path d="M127.324 71.148V69.24H130.648V78H128.512V71.148H127.324ZM131.716 71.148V69.24H135.04V78H132.904V71.148H131.716ZM136.155 71.448C136.155 70.8 136.339 70.3 136.707 69.948C137.083 69.596 137.567 69.42 138.159 69.42C138.751 69.42 139.231 69.596 139.599 69.948C139.967 70.3 140.151 70.8 140.151 71.448C140.151 72.096 139.967 72.596 139.599 72.948C139.231 73.3 138.751 73.476 138.159 73.476C137.567 73.476 137.083 73.3 136.707 72.948C136.339 72.596 136.155 72.096 136.155 71.448ZM144.303 69.552L139.683 78H137.703L142.323 69.552H144.303ZM138.147 70.62C137.763 70.62 137.571 70.896 137.571 71.448C137.571 71.992 137.763 72.264 138.147 72.264C138.331 72.264 138.475 72.196 138.579 72.06C138.683 71.924 138.735 71.72 138.735 71.448C138.735 70.896 138.539 70.62 138.147 70.62ZM141.867 76.104C141.867 75.456 142.051 74.956 142.419 74.604C142.787 74.252 143.267 74.076 143.859 74.076C144.451 74.076 144.931 74.252 145.299 74.604C145.667 74.956 145.851 75.456 145.851 76.104C145.851 76.752 145.667 77.252 145.299 77.604C144.931 77.956 144.451 78.132 143.859 78.132C143.267 78.132 142.787 77.956 142.419 77.604C142.051 77.252 141.867 76.752 141.867 76.104ZM143.847 75.276C143.663 75.276 143.519 75.344 143.415 75.48C143.319 75.616 143.271 75.824 143.271 76.104C143.271 76.648 143.463 76.92 143.847 76.92C144.031 76.92 144.175 76.852 144.279 76.716C144.383 76.58 144.435 76.376 144.435 76.104C144.435 75.832 144.383 75.628 144.279 75.492C144.175 75.348 144.031 75.276 143.847 75.276Z" fill="#00AC4F"/>
<path d="M151.44 72.324V76.2C151.44 76.52 151.508 76.748 151.644 76.884C151.78 77.012 152.016 77.076 152.352 77.076H153.156V78H152.172C151.564 78 151.108 77.86 150.804 77.58C150.5 77.3 150.348 76.84 150.348 76.2V72.324H149.496V71.424H150.348V69.768H151.44V71.424H153.156V72.324H151.44ZM157.623 71.304C158.119 71.304 158.567 71.412 158.967 71.628C159.367 71.836 159.679 72.152 159.903 72.576C160.135 73 160.251 73.516 160.251 74.124V78H159.171V74.28C159.171 73.624 159.007 73.124 158.679 72.78C158.351 72.428 157.903 72.252 157.335 72.252C156.759 72.252 156.299 72.432 155.955 72.792C155.619 73.152 155.451 73.676 155.451 74.364V78H154.359V69.12H155.451V72.36C155.667 72.024 155.963 71.764 156.339 71.58C156.723 71.396 157.151 71.304 157.623 71.304ZM162.479 70.356C162.271 70.356 162.095 70.284 161.951 70.14C161.807 69.996 161.735 69.82 161.735 69.612C161.735 69.404 161.807 69.228 161.951 69.084C162.095 68.94 162.271 68.868 162.479 68.868C162.679 68.868 162.847 68.94 162.983 69.084C163.127 69.228 163.199 69.404 163.199 69.612C163.199 69.82 163.127 69.996 162.983 70.14C162.847 70.284 162.679 70.356 162.479 70.356ZM163.007 71.424V78H161.915V71.424H163.007ZM167.076 78.108C166.572 78.108 166.12 78.024 165.72 77.856C165.32 77.68 165.004 77.44 164.772 77.136C164.54 76.824 164.412 76.468 164.388 76.068H165.516C165.548 76.396 165.7 76.664 165.972 76.872C166.252 77.08 166.616 77.184 167.064 77.184C167.48 77.184 167.808 77.092 168.048 76.908C168.288 76.724 168.408 76.492 168.408 76.212C168.408 75.924 168.28 75.712 168.024 75.576C167.768 75.432 167.372 75.292 166.836 75.156C166.348 75.028 165.948 74.9 165.636 74.772C165.332 74.636 165.068 74.44 164.844 74.184C164.628 73.92 164.52 73.576 164.52 73.152C164.52 72.816 164.62 72.508 164.82 72.228C165.02 71.948 165.304 71.728 165.672 71.568C166.04 71.4 166.46 71.316 166.932 71.316C167.66 71.316 168.248 71.5 168.696 71.868C169.144 72.236 169.384 72.74 169.416 73.38H168.324C168.3 73.036 168.16 72.76 167.904 72.552C167.656 72.344 167.32 72.24 166.896 72.24C166.504 72.24 166.192 72.324 165.96 72.492C165.728 72.66 165.612 72.88 165.612 73.152C165.612 73.368 165.68 73.548 165.816 73.692C165.96 73.828 166.136 73.94 166.344 74.028C166.56 74.108 166.856 74.2 167.232 74.304C167.704 74.432 168.088 74.56 168.384 74.688C168.68 74.808 168.932 74.992 169.14 75.24C169.356 75.488 169.468 75.812 169.476 76.212C169.476 76.572 169.376 76.896 169.176 77.184C168.976 77.472 168.692 77.7 168.324 77.868C167.964 78.028 167.548 78.108 167.076 78.108ZM182.737 71.424L180.685 78H179.557L177.973 72.78L176.389 78H175.261L173.197 71.424H174.313L175.825 76.944L177.457 71.424H178.573L180.169 76.956L181.657 71.424H182.737ZM189.701 74.46C189.701 74.668 189.689 74.888 189.665 75.12H184.409C184.449 75.768 184.669 76.276 185.069 76.644C185.477 77.004 185.969 77.184 186.545 77.184C187.017 77.184 187.409 77.076 187.721 76.86C188.041 76.636 188.265 76.34 188.393 75.972H189.569C189.393 76.604 189.041 77.12 188.513 77.52C187.985 77.912 187.329 78.108 186.545 78.108C185.921 78.108 185.361 77.968 184.865 77.688C184.377 77.408 183.993 77.012 183.713 76.5C183.433 75.98 183.293 75.38 183.293 74.7C183.293 74.02 183.429 73.424 183.701 72.912C183.973 72.4 184.353 72.008 184.841 71.736C185.337 71.456 185.905 71.316 186.545 71.316C187.169 71.316 187.721 71.452 188.201 71.724C188.681 71.996 189.049 72.372 189.305 72.852C189.569 73.324 189.701 73.86 189.701 74.46ZM188.573 74.232C188.573 73.816 188.481 73.46 188.297 73.164C188.113 72.86 187.861 72.632 187.541 72.48C187.229 72.32 186.881 72.24 186.497 72.24C185.945 72.24 185.473 72.416 185.081 72.768C184.697 73.12 184.477 73.608 184.421 74.232H188.573ZM197.022 74.46C197.022 74.668 197.01 74.888 196.986 75.12H191.73C191.77 75.768 191.99 76.276 192.39 76.644C192.798 77.004 193.29 77.184 193.866 77.184C194.338 77.184 194.73 77.076 195.042 76.86C195.362 76.636 195.586 76.34 195.714 75.972H196.89C196.714 76.604 196.362 77.12 195.834 77.52C195.306 77.912 194.65 78.108 193.866 78.108C193.242 78.108 192.682 77.968 192.186 77.688C191.698 77.408 191.314 77.012 191.034 76.5C190.754 75.98 190.614 75.38 190.614 74.7C190.614 74.02 190.75 73.424 191.022 72.912C191.294 72.4 191.674 72.008 192.162 71.736C192.658 71.456 193.226 71.316 193.866 71.316C194.49 71.316 195.042 71.452 195.522 71.724C196.002 71.996 196.37 72.372 196.626 72.852C196.89 73.324 197.022 73.86 197.022 74.46ZM195.894 74.232C195.894 73.816 195.802 73.46 195.618 73.164C195.434 72.86 195.182 72.632 194.862 72.48C194.55 72.32 194.202 72.24 193.818 72.24C193.266 72.24 192.794 72.416 192.402 72.768C192.018 73.12 191.798 73.608 191.742 74.232H195.894ZM202.015 78L199.435 75.096V78H198.343V69.12H199.435V74.34L201.967 71.424H203.491L200.395 74.7L203.503 78H202.015Z" fill="#292D32"/>
<path d="M114 80L114 68" stroke="#00AC4F" stroke-width="2" stroke-linecap="round" stroke-linejoin="round"/>
<path d="M108.167 73L114 67.1667L119.833 73" stroke="#00AC4F" stroke-width="2" stroke-linecap="round" stroke-linejoin="round"/>
<defs>
<linearGradient id="paint0_linear_0_39" x1="74.55" y1="2.14197e-06" x2="42" y2="84" gradientUnits="userSpaceOnUse">
<stop stop-color="#FFA3CF"/>
<stop offset="1" stop-color="#FFD5F3"/>
</linearGradient>
</defs>
</svg>
