<svg width="748" height="498" viewBox="0 0 748 498" fill="none" xmlns="http://www.w3.org/2000/svg">
<g filter="url(#filter0_d_0_56)">
<path d="M60 80C60 63.4315 73.4315 50 90 50H658C674.569 50 688 63.4315 688 80V398C688 414.569 674.569 428 658 428H90C73.4314 428 60 414.569 60 398V80Z" fill="white"/>
</g>
<rect x="533" y="77" width="118" height="38" rx="10" fill="#F9FBFF"/>
<path d="M622 93L628 99L634 93" stroke="#7E7E7E" stroke-width="2" stroke-linecap="round" stroke-linejoin="round"/>
<path d="M556.632 101.584L554.964 99.916C554.556 100.028 554.14 100.084 553.716 100.084C552.94 100.084 552.232 99.904 551.592 99.544C550.952 99.176 550.444 98.668 550.068 98.02C549.7 97.364 549.516 96.628 549.516 95.812C549.516 94.996 549.7 94.264 550.068 93.616C550.444 92.96 550.952 92.452 551.592 92.092C552.232 91.724 552.94 91.54 553.716 91.54C554.5 91.54 555.212 91.724 555.852 92.092C556.492 92.452 556.996 92.956 557.364 93.604C557.732 94.252 557.916 94.988 557.916 95.812C557.916 96.612 557.74 97.332 557.388 97.972C557.036 98.612 556.552 99.116 555.936 99.484L558.048 101.584H556.632ZM550.632 95.812C550.632 96.476 550.764 97.06 551.028 97.564C551.3 98.068 551.668 98.456 552.132 98.728C552.604 99 553.132 99.136 553.716 99.136C554.3 99.136 554.824 99 555.288 98.728C555.76 98.456 556.128 98.068 556.392 97.564C556.664 97.06 556.8 96.476 556.8 95.812C556.8 95.14 556.664 94.556 556.392 94.06C556.128 93.556 555.764 93.168 555.3 92.896C554.836 92.624 554.308 92.488 553.716 92.488C553.124 92.488 552.596 92.624 552.132 92.896C551.668 93.168 551.3 93.556 551.028 94.06C550.764 94.556 550.632 95.14 550.632 95.812ZM565.093 93.424V100H564.001V99.028C563.793 99.364 563.501 99.628 563.125 99.82C562.757 100.004 562.349 100.096 561.901 100.096C561.389 100.096 560.929 99.992 560.521 99.784C560.113 99.568 559.789 99.248 559.549 98.824C559.317 98.4 559.201 97.884 559.201 97.276V93.424H560.281V97.132C560.281 97.78 560.445 98.28 560.773 98.632C561.101 98.976 561.549 99.148 562.117 99.148C562.701 99.148 563.161 98.968 563.497 98.608C563.833 98.248 564.001 97.724 564.001 97.036V93.424H565.093ZM566.409 96.688C566.409 96.016 566.545 95.428 566.817 94.924C567.089 94.412 567.461 94.016 567.933 93.736C568.413 93.456 568.945 93.316 569.529 93.316C570.105 93.316 570.605 93.44 571.029 93.688C571.453 93.936 571.769 94.248 571.977 94.624V93.424H573.081V100H571.977V98.776C571.761 99.16 571.437 99.48 571.005 99.736C570.581 99.984 570.085 100.108 569.517 100.108C568.933 100.108 568.405 99.964 567.933 99.676C567.461 99.388 567.089 98.984 566.817 98.464C566.545 97.944 566.409 97.352 566.409 96.688ZM571.977 96.7C571.977 96.204 571.877 95.772 571.677 95.404C571.477 95.036 571.205 94.756 570.861 94.564C570.525 94.364 570.153 94.264 569.745 94.264C569.337 94.264 568.965 94.36 568.629 94.552C568.293 94.744 568.025 95.024 567.825 95.392C567.625 95.76 567.525 96.192 567.525 96.688C567.525 97.192 567.625 97.632 567.825 98.008C568.025 98.376 568.293 98.66 568.629 98.86C568.965 99.052 569.337 99.148 569.745 99.148C570.153 99.148 570.525 99.052 570.861 98.86C571.205 98.66 571.477 98.376 571.677 98.008C571.877 97.632 571.977 97.196 571.977 96.7ZM575.898 94.492C576.09 94.116 576.362 93.824 576.714 93.616C577.074 93.408 577.51 93.304 578.022 93.304V94.432H577.734C576.51 94.432 575.898 95.096 575.898 96.424V100H574.806V93.424H575.898V94.492ZM580.495 94.324V98.2C580.495 98.52 580.563 98.748 580.699 98.884C580.835 99.012 581.071 99.076 581.407 99.076H582.211V100H581.227C580.619 100 580.163 99.86 579.859 99.58C579.555 99.3 579.403 98.84 579.403 98.2V94.324H578.551V93.424H579.403V91.768H580.495V93.424H582.211V94.324H580.495ZM589.414 96.46C589.414 96.668 589.402 96.888 589.378 97.12H584.122C584.162 97.768 584.382 98.276 584.782 98.644C585.19 99.004 585.682 99.184 586.258 99.184C586.73 99.184 587.122 99.076 587.434 98.86C587.754 98.636 587.978 98.34 588.106 97.972H589.282C589.106 98.604 588.754 99.12 588.226 99.52C587.698 99.912 587.042 100.108 586.258 100.108C585.634 100.108 585.074 99.968 584.578 99.688C584.09 99.408 583.706 99.012 583.426 98.5C583.146 97.98 583.006 97.38 583.006 96.7C583.006 96.02 583.142 95.424 583.414 94.912C583.686 94.4 584.066 94.008 584.554 93.736C585.05 93.456 585.618 93.316 586.258 93.316C586.882 93.316 587.434 93.452 587.914 93.724C588.394 93.996 588.762 94.372 589.018 94.852C589.282 95.324 589.414 95.86 589.414 96.46ZM588.286 96.232C588.286 95.816 588.194 95.46 588.01 95.164C587.826 94.86 587.574 94.632 587.254 94.48C586.942 94.32 586.594 94.24 586.21 94.24C585.658 94.24 585.186 94.416 584.794 94.768C584.41 95.12 584.19 95.608 584.134 96.232H588.286ZM591.827 94.492C592.019 94.116 592.291 93.824 592.643 93.616C593.003 93.408 593.439 93.304 593.951 93.304V94.432H593.663C592.439 94.432 591.827 95.096 591.827 96.424V100H590.735V93.424H591.827V94.492ZM596.184 91.12V100H595.092V91.12H596.184ZM603.589 93.424L599.629 103.096H598.501L599.797 99.928L597.145 93.424H598.357L600.421 98.752L602.461 93.424H603.589Z" fill="#7E7E7E"/>
<path d="M106.646 98.154C105.209 98.154 103.889 97.8167 102.686 97.142C101.483 96.4673 100.53 95.536 99.826 94.348C99.122 93.1453 98.77 91.7887 98.77 90.278C98.77 88.782 99.122 87.44 99.826 86.252C100.53 85.0493 101.483 84.1107 102.686 83.436C103.889 82.7613 105.209 82.424 106.646 82.424C108.098 82.424 109.418 82.7613 110.606 83.436C111.809 84.1107 112.755 85.0493 113.444 86.252C114.148 87.44 114.5 88.782 114.5 90.278C114.5 91.7887 114.148 93.1453 113.444 94.348C112.755 95.536 111.809 96.4673 110.606 97.142C109.403 97.8167 108.083 98.154 106.646 98.154ZM106.646 95.404C107.57 95.404 108.384 95.1987 109.088 94.788C109.792 94.3627 110.342 93.7613 110.738 92.984C111.134 92.2067 111.332 91.3047 111.332 90.278C111.332 89.2513 111.134 88.3567 110.738 87.594C110.342 86.8167 109.792 86.2227 109.088 85.812C108.384 85.4013 107.57 85.196 106.646 85.196C105.722 85.196 104.901 85.4013 104.182 85.812C103.478 86.2227 102.928 86.8167 102.532 87.594C102.136 88.3567 101.938 89.2513 101.938 90.278C101.938 91.3047 102.136 92.2067 102.532 92.984C102.928 93.7613 103.478 94.3627 104.182 94.788C104.901 95.1987 105.722 95.404 106.646 95.404ZM121.653 95.162L124.733 85.812H128.011L123.501 98H119.761L115.273 85.812H118.573L121.653 95.162ZM140.851 91.642C140.851 92.082 140.822 92.478 140.763 92.83H131.853C131.927 93.71 132.235 94.3993 132.777 94.898C133.32 95.3967 133.987 95.646 134.779 95.646C135.923 95.646 136.737 95.1547 137.221 94.172H140.543C140.191 95.3453 139.517 96.3133 138.519 97.076C137.522 97.824 136.297 98.198 134.845 98.198C133.672 98.198 132.616 97.9413 131.677 97.428C130.753 96.9 130.027 96.1593 129.499 95.206C128.986 94.2527 128.729 93.1527 128.729 91.906C128.729 90.6447 128.986 89.5373 129.499 88.584C130.013 87.6307 130.731 86.8973 131.655 86.384C132.579 85.8707 133.643 85.614 134.845 85.614C136.004 85.614 137.038 85.8633 137.947 86.362C138.871 86.8607 139.583 87.572 140.081 88.496C140.595 89.4053 140.851 90.454 140.851 91.642ZM137.661 90.762C137.647 89.97 137.361 89.3393 136.803 88.87C136.246 88.386 135.564 88.144 134.757 88.144C133.995 88.144 133.349 88.3787 132.821 88.848C132.308 89.3027 131.993 89.9407 131.875 90.762H137.661ZM145.959 87.704C146.355 87.0587 146.869 86.5527 147.499 86.186C148.145 85.8193 148.878 85.636 149.699 85.636V88.87H148.885C147.917 88.87 147.184 89.0973 146.685 89.552C146.201 90.0067 145.959 90.7987 145.959 91.928V98H142.879V85.812H145.959V87.704ZM156.636 95.162L159.716 85.812H162.994L158.484 98H154.744L150.256 85.812H153.556L156.636 95.162ZM166.066 84.36C165.523 84.36 165.069 84.1913 164.702 83.854C164.35 83.502 164.174 83.0693 164.174 82.556C164.174 82.0427 164.35 81.6173 164.702 81.28C165.069 80.928 165.523 80.752 166.066 80.752C166.609 80.752 167.056 80.928 167.408 81.28C167.775 81.6173 167.958 82.0427 167.958 82.556C167.958 83.0693 167.775 83.502 167.408 83.854C167.056 84.1913 166.609 84.36 166.066 84.36ZM167.584 85.812V98H164.504V85.812H167.584ZM181.737 91.642C181.737 92.082 181.708 92.478 181.649 92.83H172.739C172.812 93.71 173.12 94.3993 173.663 94.898C174.206 95.3967 174.873 95.646 175.665 95.646C176.809 95.646 177.623 95.1547 178.107 94.172H181.429C181.077 95.3453 180.402 96.3133 179.405 97.076C178.408 97.824 177.183 98.198 175.731 98.198C174.558 98.198 173.502 97.9413 172.563 97.428C171.639 96.9 170.913 96.1593 170.385 95.206C169.872 94.2527 169.615 93.1527 169.615 91.906C169.615 90.6447 169.872 89.5373 170.385 88.584C170.898 87.6307 171.617 86.8973 172.541 86.384C173.465 85.8707 174.528 85.614 175.731 85.614C176.89 85.614 177.924 85.8633 178.833 86.362C179.757 86.8607 180.468 87.572 180.967 88.496C181.48 89.4053 181.737 90.454 181.737 91.642ZM178.547 90.762C178.532 89.97 178.246 89.3393 177.689 88.87C177.132 88.386 176.45 88.144 175.643 88.144C174.88 88.144 174.235 88.3787 173.707 88.848C173.194 89.3027 172.878 89.9407 172.761 90.762H178.547ZM200.661 85.812L197.097 98H193.775L191.553 89.486L189.331 98H185.987L182.401 85.812H185.525L187.681 95.096L190.013 85.812H193.269L195.557 95.074L197.713 85.812H200.661Z" fill="black"/>
<path d="M110.976 116.312V126H109.702V118.776L106.482 126H105.586L102.352 118.762V126H101.078V116.312H102.45L106.034 124.32L109.618 116.312H110.976ZM116.343 126.126C115.624 126.126 114.971 125.963 114.383 125.636C113.804 125.309 113.347 124.847 113.011 124.25C112.684 123.643 112.521 122.943 112.521 122.15C112.521 121.366 112.689 120.675 113.025 120.078C113.37 119.471 113.837 119.009 114.425 118.692C115.013 118.365 115.671 118.202 116.399 118.202C117.127 118.202 117.785 118.365 118.373 118.692C118.961 119.009 119.423 119.467 119.759 120.064C120.104 120.661 120.277 121.357 120.277 122.15C120.277 122.943 120.099 123.643 119.745 124.25C119.399 124.847 118.928 125.309 118.331 125.636C117.733 125.963 117.071 126.126 116.343 126.126ZM116.343 125.006C116.8 125.006 117.229 124.899 117.631 124.684C118.032 124.469 118.354 124.147 118.597 123.718C118.849 123.289 118.975 122.766 118.975 122.15C118.975 121.534 118.853 121.011 118.611 120.582C118.368 120.153 118.051 119.835 117.659 119.63C117.267 119.415 116.842 119.308 116.385 119.308C115.918 119.308 115.489 119.415 115.097 119.63C114.714 119.835 114.406 120.153 114.173 120.582C113.939 121.011 113.823 121.534 113.823 122.15C113.823 122.775 113.935 123.303 114.159 123.732C114.392 124.161 114.7 124.483 115.083 124.698C115.465 124.903 115.885 125.006 116.343 125.006ZM125.55 118.188C126.483 118.188 127.239 118.473 127.818 119.042C128.396 119.602 128.686 120.414 128.686 121.478V126H127.426V121.66C127.426 120.895 127.234 120.311 126.852 119.91C126.469 119.499 125.946 119.294 125.284 119.294C124.612 119.294 124.075 119.504 123.674 119.924C123.282 120.344 123.086 120.955 123.086 121.758V126H121.812V118.328H123.086V119.42C123.338 119.028 123.678 118.725 124.108 118.51C124.546 118.295 125.027 118.188 125.55 118.188ZM132.181 119.378V123.9C132.181 124.273 132.26 124.539 132.419 124.698C132.577 124.847 132.853 124.922 133.245 124.922H134.183V126H133.035C132.325 126 131.793 125.837 131.439 125.51C131.084 125.183 130.907 124.647 130.907 123.9V119.378H129.913V118.328H130.907V116.396H132.181V118.328H134.183V119.378H132.181ZM139.394 118.188C139.973 118.188 140.496 118.314 140.962 118.566C141.429 118.809 141.793 119.177 142.054 119.672C142.325 120.167 142.46 120.769 142.46 121.478V126H141.2V121.66C141.2 120.895 141.009 120.311 140.626 119.91C140.244 119.499 139.721 119.294 139.058 119.294C138.386 119.294 137.85 119.504 137.448 119.924C137.056 120.344 136.86 120.955 136.86 121.758V126H135.586V115.64H136.86V119.42C137.112 119.028 137.458 118.725 137.896 118.51C138.344 118.295 138.844 118.188 139.394 118.188ZM145.675 115.64V126H144.401V115.64H145.675ZM154.315 118.328L149.695 129.612H148.379L149.891 125.916L146.797 118.328H148.211L150.619 124.544L152.999 118.328H154.315ZM160.322 117.278V120.54H163.878V121.59H160.322V124.95H164.298V126H159.048V116.228H164.298V117.278H160.322ZM165.61 122.136C165.61 121.352 165.768 120.666 166.086 120.078C166.403 119.481 166.837 119.019 167.388 118.692C167.948 118.365 168.568 118.202 169.25 118.202C169.922 118.202 170.505 118.347 171 118.636C171.494 118.925 171.863 119.289 172.106 119.728V118.328H173.394V126H172.106V124.572C171.854 125.02 171.476 125.393 170.972 125.692C170.477 125.981 169.898 126.126 169.236 126.126C168.554 126.126 167.938 125.958 167.388 125.622C166.837 125.286 166.403 124.815 166.086 124.208C165.768 123.601 165.61 122.911 165.61 122.136ZM172.106 122.15C172.106 121.571 171.989 121.067 171.756 120.638C171.522 120.209 171.205 119.882 170.804 119.658C170.412 119.425 169.978 119.308 169.502 119.308C169.026 119.308 168.592 119.42 168.2 119.644C167.808 119.868 167.495 120.195 167.262 120.624C167.028 121.053 166.912 121.557 166.912 122.136C166.912 122.724 167.028 123.237 167.262 123.676C167.495 124.105 167.808 124.437 168.2 124.67C168.592 124.894 169.026 125.006 169.502 125.006C169.978 125.006 170.412 124.894 170.804 124.67C171.205 124.437 171.522 124.105 171.756 123.676C171.989 123.237 172.106 122.729 172.106 122.15ZM176.681 119.574C176.905 119.135 177.222 118.795 177.633 118.552C178.053 118.309 178.561 118.188 179.159 118.188V119.504H178.823C177.395 119.504 176.681 120.279 176.681 121.828V126H175.407V118.328H176.681V119.574ZM184.227 118.188C185.161 118.188 185.917 118.473 186.495 119.042C187.074 119.602 187.363 120.414 187.363 121.478V126H186.103V121.66C186.103 120.895 185.912 120.311 185.529 119.91C185.147 119.499 184.624 119.294 183.961 119.294C183.289 119.294 182.753 119.504 182.351 119.924C181.959 120.344 181.763 120.955 181.763 121.758V126H180.489V118.328H181.763V119.42C182.015 119.028 182.356 118.725 182.785 118.51C183.224 118.295 183.705 118.188 184.227 118.188ZM189.962 117.082C189.72 117.082 189.514 116.998 189.346 116.83C189.178 116.662 189.094 116.457 189.094 116.214C189.094 115.971 189.178 115.766 189.346 115.598C189.514 115.43 189.72 115.346 189.962 115.346C190.196 115.346 190.392 115.43 190.55 115.598C190.718 115.766 190.802 115.971 190.802 116.214C190.802 116.457 190.718 116.662 190.55 116.83C190.392 116.998 190.196 117.082 189.962 117.082ZM190.578 118.328V126H189.304V118.328H190.578ZM196.348 118.188C197.281 118.188 198.037 118.473 198.616 119.042C199.194 119.602 199.484 120.414 199.484 121.478V126H198.224V121.66C198.224 120.895 198.032 120.311 197.65 119.91C197.267 119.499 196.744 119.294 196.082 119.294C195.41 119.294 194.873 119.504 194.472 119.924C194.08 120.344 193.884 120.955 193.884 121.758V126H192.61V118.328H193.884V119.42C194.136 119.028 194.476 118.725 194.906 118.51C195.344 118.295 195.825 118.188 196.348 118.188ZM204.589 118.202C205.251 118.202 205.83 118.347 206.325 118.636C206.829 118.925 207.202 119.289 207.445 119.728V118.328H208.733V126.168C208.733 126.868 208.583 127.489 208.285 128.03C207.986 128.581 207.557 129.01 206.997 129.318C206.446 129.626 205.802 129.78 205.065 129.78C204.057 129.78 203.217 129.542 202.545 129.066C201.873 128.59 201.476 127.941 201.355 127.12H202.615C202.755 127.587 203.044 127.96 203.483 128.24C203.921 128.529 204.449 128.674 205.065 128.674C205.765 128.674 206.334 128.455 206.773 128.016C207.221 127.577 207.445 126.961 207.445 126.168V124.558C207.193 125.006 206.819 125.379 206.325 125.678C205.83 125.977 205.251 126.126 204.589 126.126C203.907 126.126 203.287 125.958 202.727 125.622C202.176 125.286 201.742 124.815 201.425 124.208C201.107 123.601 200.949 122.911 200.949 122.136C200.949 121.352 201.107 120.666 201.425 120.078C201.742 119.481 202.176 119.019 202.727 118.692C203.287 118.365 203.907 118.202 204.589 118.202ZM207.445 122.15C207.445 121.571 207.328 121.067 207.095 120.638C206.861 120.209 206.544 119.882 206.143 119.658C205.751 119.425 205.317 119.308 204.841 119.308C204.365 119.308 203.931 119.42 203.539 119.644C203.147 119.868 202.834 120.195 202.601 120.624C202.367 121.053 202.251 121.557 202.251 122.136C202.251 122.724 202.367 123.237 202.601 123.676C202.834 124.105 203.147 124.437 203.539 124.67C203.931 124.894 204.365 125.006 204.841 125.006C205.317 125.006 205.751 124.894 206.143 124.67C206.544 124.437 206.861 124.105 207.095 123.676C207.328 123.237 207.445 122.729 207.445 122.15Z" fill="#ACACAC"/>
<path d="M111.632 378.44V382.448C111.632 382.944 111.48 383.336 111.176 383.624C110.877 383.912 110.483 384.056 109.992 384.056C109.501 384.056 109.104 383.912 108.8 383.624C108.501 383.336 108.352 382.944 108.352 382.448H109.272C109.277 382.693 109.339 382.888 109.456 383.032C109.579 383.176 109.757 383.248 109.992 383.248C110.227 383.248 110.405 383.176 110.528 383.032C110.651 382.883 110.712 382.688 110.712 382.448V378.44H111.632ZM112.732 381.776C112.732 381.333 112.822 380.941 113.004 380.6C113.19 380.259 113.441 379.995 113.756 379.808C114.076 379.616 114.428 379.52 114.812 379.52C115.158 379.52 115.46 379.589 115.716 379.728C115.977 379.861 116.185 380.029 116.34 380.232V379.592H117.26V384H116.34V383.344C116.185 383.552 115.974 383.725 115.708 383.864C115.441 384.003 115.137 384.072 114.796 384.072C114.417 384.072 114.07 383.976 113.756 383.784C113.441 383.587 113.19 383.315 113.004 382.968C112.822 382.616 112.732 382.219 112.732 381.776ZM116.34 381.792C116.34 381.488 116.276 381.224 116.148 381C116.025 380.776 115.862 380.605 115.66 380.488C115.457 380.371 115.238 380.312 115.004 380.312C114.769 380.312 114.55 380.371 114.348 380.488C114.145 380.6 113.98 380.768 113.852 380.992C113.729 381.211 113.668 381.472 113.668 381.776C113.668 382.08 113.729 382.347 113.852 382.576C113.98 382.805 114.145 382.981 114.348 383.104C114.556 383.221 114.774 383.28 115.004 383.28C115.238 383.28 115.457 383.221 115.66 383.104C115.862 382.987 116.025 382.816 116.148 382.592C116.276 382.363 116.34 382.096 116.34 381.792ZM120.602 379.52C120.948 379.52 121.258 379.592 121.53 379.736C121.807 379.88 122.023 380.093 122.178 380.376C122.332 380.659 122.41 381 122.41 381.4V384H121.506V381.536C121.506 381.141 121.407 380.84 121.21 380.632C121.012 380.419 120.743 380.312 120.402 380.312C120.06 380.312 119.788 380.419 119.586 380.632C119.388 380.84 119.29 381.141 119.29 381.536V384H118.378V379.592H119.29V380.096C119.439 379.915 119.628 379.773 119.858 379.672C120.092 379.571 120.34 379.52 120.602 379.52Z" fill="#4F4F4F"/>
<path d="M158.872 378.44V379.184H156.512V380.824H158.352V381.568H156.512V384H155.6V378.44H158.872ZM163.677 381.688C163.677 381.853 163.667 382.003 163.645 382.136H160.277C160.304 382.488 160.435 382.771 160.669 382.984C160.904 383.197 161.192 383.304 161.533 383.304C162.024 383.304 162.371 383.099 162.573 382.688H163.557C163.424 383.093 163.181 383.427 162.829 383.688C162.483 383.944 162.051 384.072 161.533 384.072C161.112 384.072 160.733 383.979 160.397 383.792C160.067 383.6 159.805 383.333 159.613 382.992C159.427 382.645 159.333 382.245 159.333 381.792C159.333 381.339 159.424 380.941 159.605 380.6C159.792 380.253 160.051 379.987 160.381 379.8C160.717 379.613 161.101 379.52 161.533 379.52C161.949 379.52 162.32 379.611 162.645 379.792C162.971 379.973 163.224 380.229 163.405 380.56C163.587 380.885 163.677 381.261 163.677 381.688ZM162.725 381.4C162.72 381.064 162.6 380.795 162.365 380.592C162.131 380.389 161.84 380.288 161.493 380.288C161.179 380.288 160.909 380.389 160.685 380.592C160.461 380.789 160.328 381.059 160.285 381.4H162.725ZM165.407 380.248C165.561 380.035 165.772 379.861 166.039 379.728C166.311 379.589 166.612 379.52 166.943 379.52C167.332 379.52 167.684 379.613 167.999 379.8C168.313 379.987 168.561 380.253 168.743 380.6C168.924 380.941 169.015 381.333 169.015 381.776C169.015 382.219 168.924 382.616 168.743 382.968C168.561 383.315 168.311 383.587 167.991 383.784C167.676 383.976 167.327 384.072 166.943 384.072C166.601 384.072 166.297 384.005 166.031 383.872C165.769 383.739 165.561 383.568 165.407 383.36V384H164.495V378.08H165.407V380.248ZM168.087 381.776C168.087 381.472 168.023 381.211 167.895 380.992C167.772 380.768 167.607 380.6 167.399 380.488C167.196 380.371 166.977 380.312 166.743 380.312C166.513 380.312 166.295 380.371 166.087 380.488C165.884 380.605 165.719 380.776 165.591 381C165.468 381.224 165.407 381.488 165.407 381.792C165.407 382.096 165.468 382.363 165.591 382.592C165.719 382.816 165.884 382.987 166.087 383.104C166.295 383.221 166.513 383.28 166.743 383.28C166.977 383.28 167.196 383.221 167.399 383.104C167.607 382.981 167.772 382.805 167.895 382.576C168.023 382.347 168.087 382.08 168.087 381.776Z" fill="#4F4F4F"/>
<path d="M208.456 378.44V384H207.544V380.192L205.848 384H205.216L203.512 380.192V384H202.6V378.44H203.584L205.536 382.8L207.48 378.44H208.456ZM209.271 381.776C209.271 381.333 209.361 380.941 209.543 380.6C209.729 380.259 209.98 379.995 210.295 379.808C210.615 379.616 210.967 379.52 211.351 379.52C211.697 379.52 211.999 379.589 212.255 379.728C212.516 379.861 212.724 380.029 212.879 380.232V379.592H213.799V384H212.879V383.344C212.724 383.552 212.513 383.725 212.247 383.864C211.98 384.003 211.676 384.072 211.335 384.072C210.956 384.072 210.609 383.976 210.295 383.784C209.98 383.587 209.729 383.315 209.543 382.968C209.361 382.616 209.271 382.219 209.271 381.776ZM212.879 381.792C212.879 381.488 212.815 381.224 212.687 381C212.564 380.776 212.401 380.605 212.199 380.488C211.996 380.371 211.777 380.312 211.543 380.312C211.308 380.312 211.089 380.371 210.887 380.488C210.684 380.6 210.519 380.768 210.391 380.992C210.268 381.211 210.207 381.472 210.207 381.776C210.207 382.08 210.268 382.347 210.391 382.576C210.519 382.805 210.684 382.981 210.887 383.104C211.095 383.221 211.313 383.28 211.543 383.28C211.777 383.28 211.996 383.221 212.199 383.104C212.401 382.987 212.564 382.816 212.687 382.592C212.815 382.363 212.879 382.096 212.879 381.792ZM215.829 380.232C215.962 380.008 216.138 379.835 216.357 379.712C216.581 379.584 216.845 379.52 217.149 379.52V380.464H216.917C216.559 380.464 216.287 380.555 216.101 380.736C215.919 380.917 215.829 381.232 215.829 381.68V384H214.917V379.592H215.829V380.232Z" fill="#4F4F4F"/>
<path d="M253.952 382.864H251.624L251.224 384H250.272L252.264 378.432H253.32L255.312 384H254.352L253.952 382.864ZM253.696 382.12L252.792 379.536L251.88 382.12H253.696ZM257.01 380.24C257.165 380.037 257.375 379.867 257.642 379.728C257.909 379.589 258.21 379.52 258.546 379.52C258.93 379.52 259.279 379.616 259.594 379.808C259.914 379.995 260.165 380.259 260.346 380.6C260.527 380.941 260.618 381.333 260.618 381.776C260.618 382.219 260.527 382.616 260.346 382.968C260.165 383.315 259.914 383.587 259.594 383.784C259.279 383.976 258.93 384.072 258.546 384.072C258.21 384.072 257.911 384.005 257.65 383.872C257.389 383.733 257.175 383.563 257.01 383.36V386.096H256.098V379.592H257.01V380.24ZM259.69 381.776C259.69 381.472 259.626 381.211 259.498 380.992C259.375 380.768 259.21 380.6 259.002 380.488C258.799 380.371 258.581 380.312 258.346 380.312C258.117 380.312 257.898 380.371 257.69 380.488C257.487 380.605 257.322 380.776 257.194 381C257.071 381.224 257.01 381.488 257.01 381.792C257.01 382.096 257.071 382.363 257.194 382.592C257.322 382.816 257.487 382.987 257.69 383.104C257.898 383.221 258.117 383.28 258.346 383.28C258.581 383.28 258.799 383.221 259.002 383.104C259.21 382.981 259.375 382.805 259.498 382.576C259.626 382.347 259.69 382.08 259.69 381.776ZM262.352 380.232C262.485 380.008 262.661 379.835 262.88 379.712C263.104 379.584 263.368 379.52 263.672 379.52V380.464H263.44C263.083 380.464 262.811 380.555 262.624 380.736C262.443 380.917 262.352 381.232 262.352 381.68V384H261.44V379.592H262.352V380.232Z" fill="#4F4F4F"/>
<path d="M301.456 378.44V384H300.544V380.192L298.848 384H298.216L296.512 380.192V384H295.6V378.44H296.584L298.536 382.8L300.48 378.44H301.456ZM302.271 381.776C302.271 381.333 302.361 380.941 302.543 380.6C302.729 380.259 302.98 379.995 303.295 379.808C303.615 379.616 303.967 379.52 304.351 379.52C304.697 379.52 304.999 379.589 305.255 379.728C305.516 379.861 305.724 380.029 305.879 380.232V379.592H306.799V384H305.879V383.344C305.724 383.552 305.513 383.725 305.247 383.864C304.98 384.003 304.676 384.072 304.335 384.072C303.956 384.072 303.609 383.976 303.295 383.784C302.98 383.587 302.729 383.315 302.543 382.968C302.361 382.616 302.271 382.219 302.271 381.776ZM305.879 381.792C305.879 381.488 305.815 381.224 305.687 381C305.564 380.776 305.401 380.605 305.199 380.488C304.996 380.371 304.777 380.312 304.543 380.312C304.308 380.312 304.089 380.371 303.887 380.488C303.684 380.6 303.519 380.768 303.391 380.992C303.268 381.211 303.207 381.472 303.207 381.776C303.207 382.08 303.268 382.347 303.391 382.576C303.519 382.805 303.684 382.981 303.887 383.104C304.095 383.221 304.313 383.28 304.543 383.28C304.777 383.28 304.996 383.221 305.199 383.104C305.401 382.987 305.564 382.816 305.687 382.592C305.815 382.363 305.879 382.096 305.879 381.792ZM311.885 379.592L309.181 386.072H308.237L309.133 383.928L307.397 379.592H308.413L309.653 382.952L310.941 379.592H311.885Z" fill="#4F4F4F"/>
<path d="M346.632 378.44V382.448C346.632 382.944 346.48 383.336 346.176 383.624C345.877 383.912 345.483 384.056 344.992 384.056C344.501 384.056 344.104 383.912 343.8 383.624C343.501 383.336 343.352 382.944 343.352 382.448H344.272C344.277 382.693 344.339 382.888 344.456 383.032C344.579 383.176 344.757 383.248 344.992 383.248C345.227 383.248 345.405 383.176 345.528 383.032C345.651 382.883 345.712 382.688 345.712 382.448V378.44H346.632ZM352.028 379.592V384H351.116V383.48C350.972 383.661 350.782 383.805 350.548 383.912C350.318 384.013 350.073 384.064 349.812 384.064C349.465 384.064 349.153 383.992 348.876 383.848C348.604 383.704 348.388 383.491 348.228 383.208C348.073 382.925 347.996 382.584 347.996 382.184V379.592H348.9V382.048C348.9 382.443 348.998 382.747 349.196 382.96C349.393 383.168 349.662 383.272 350.004 383.272C350.345 383.272 350.614 383.168 350.812 382.96C351.014 382.747 351.116 382.443 351.116 382.048V379.592H352.028ZM355.375 379.52C355.722 379.52 356.031 379.592 356.303 379.736C356.58 379.88 356.796 380.093 356.951 380.376C357.106 380.659 357.183 381 357.183 381.4V384H356.279V381.536C356.279 381.141 356.18 380.84 355.983 380.632C355.786 380.419 355.516 380.312 355.175 380.312C354.834 380.312 354.562 380.419 354.359 380.632C354.162 380.84 354.063 381.141 354.063 381.536V384H353.151V379.592H354.063V380.096C354.212 379.915 354.402 379.773 354.631 379.672C354.866 379.571 355.114 379.52 355.375 379.52Z" fill="#4F4F4F"/>
<path d="M395.632 378.44V382.448C395.632 382.944 395.48 383.336 395.176 383.624C394.877 383.912 394.483 384.056 393.992 384.056C393.501 384.056 393.104 383.912 392.8 383.624C392.501 383.336 392.352 382.944 392.352 382.448H393.272C393.277 382.693 393.339 382.888 393.456 383.032C393.579 383.176 393.757 383.248 393.992 383.248C394.227 383.248 394.405 383.176 394.528 383.032C394.651 382.883 394.712 382.688 394.712 382.448V378.44H395.632ZM401.028 379.592V384H400.116V383.48C399.972 383.661 399.782 383.805 399.548 383.912C399.318 384.013 399.073 384.064 398.812 384.064C398.465 384.064 398.153 383.992 397.876 383.848C397.604 383.704 397.388 383.491 397.228 383.208C397.073 382.925 396.996 382.584 396.996 382.184V379.592H397.9V382.048C397.9 382.443 397.998 382.747 398.196 382.96C398.393 383.168 398.662 383.272 399.004 383.272C399.345 383.272 399.614 383.168 399.812 382.96C400.014 382.747 400.116 382.443 400.116 382.048V379.592H401.028ZM403.063 378.08V384H402.151V378.08H403.063Z" fill="#4F4F4F"/>
<path d="M438.99 384.76H436.37L435.95 386H434.16L436.7 378.98H438.68L441.22 386H439.41L438.99 384.76ZM438.55 383.44L437.68 380.87L436.82 383.44H438.55ZM447.403 380.42V386H445.693V385.24C445.52 385.487 445.283 385.687 444.983 385.84C444.69 385.987 444.363 386.06 444.003 386.06C443.576 386.06 443.2 385.967 442.873 385.78C442.546 385.587 442.293 385.31 442.113 384.95C441.933 384.59 441.843 384.167 441.843 383.68V380.42H443.543V383.45C443.543 383.823 443.64 384.113 443.833 384.32C444.026 384.527 444.286 384.63 444.613 384.63C444.946 384.63 445.21 384.527 445.403 384.32C445.596 384.113 445.693 383.823 445.693 383.45V380.42H447.403ZM450.651 380.34C451.045 380.34 451.388 380.42 451.681 380.58C451.981 380.74 452.211 380.95 452.371 381.21V380.42H454.081V385.99C454.081 386.503 453.978 386.967 453.771 387.38C453.571 387.8 453.261 388.133 452.841 388.38C452.428 388.627 451.911 388.75 451.291 388.75C450.465 388.75 449.795 388.553 449.281 388.16C448.768 387.773 448.475 387.247 448.401 386.58H450.091C450.145 386.793 450.271 386.96 450.471 387.08C450.671 387.207 450.918 387.27 451.211 387.27C451.565 387.27 451.845 387.167 452.051 386.96C452.265 386.76 452.371 386.437 452.371 385.99V385.2C452.205 385.46 451.975 385.673 451.681 385.84C451.388 386 451.045 386.08 450.651 386.08C450.191 386.08 449.775 385.963 449.401 385.73C449.028 385.49 448.731 385.153 448.511 384.72C448.298 384.28 448.191 383.773 448.191 383.2C448.191 382.627 448.298 382.123 448.511 381.69C448.731 381.257 449.028 380.923 449.401 380.69C449.775 380.457 450.191 380.34 450.651 380.34ZM452.371 383.21C452.371 382.783 452.251 382.447 452.011 382.2C451.778 381.953 451.491 381.83 451.151 381.83C450.811 381.83 450.521 381.953 450.281 382.2C450.048 382.44 449.931 382.773 449.931 383.2C449.931 383.627 450.048 383.967 450.281 384.22C450.521 384.467 450.811 384.59 451.151 384.59C451.491 384.59 451.778 384.467 452.011 384.22C452.251 383.973 452.371 383.637 452.371 383.21Z" fill="#4F4F4F"/>
<path d="M486.432 384.056C486.059 384.056 485.723 383.992 485.424 383.864C485.125 383.731 484.891 383.544 484.72 383.304C484.549 383.064 484.464 382.784 484.464 382.464H485.44C485.461 382.704 485.555 382.901 485.72 383.056C485.891 383.211 486.128 383.288 486.432 383.288C486.747 383.288 486.992 383.213 487.168 383.064C487.344 382.909 487.432 382.712 487.432 382.472C487.432 382.285 487.376 382.133 487.264 382.016C487.157 381.899 487.021 381.808 486.856 381.744C486.696 381.68 486.472 381.611 486.184 381.536C485.821 381.44 485.525 381.344 485.296 381.248C485.072 381.147 484.88 380.992 484.72 380.784C484.56 380.576 484.48 380.299 484.48 379.952C484.48 379.632 484.56 379.352 484.72 379.112C484.88 378.872 485.104 378.688 485.392 378.56C485.68 378.432 486.013 378.368 486.392 378.368C486.931 378.368 487.371 378.504 487.712 378.776C488.059 379.043 488.251 379.411 488.288 379.88H487.28C487.264 379.677 487.168 379.504 486.992 379.36C486.816 379.216 486.584 379.144 486.296 379.144C486.035 379.144 485.821 379.211 485.656 379.344C485.491 379.477 485.408 379.669 485.408 379.92C485.408 380.091 485.459 380.232 485.56 380.344C485.667 380.451 485.8 380.536 485.96 380.6C486.12 380.664 486.339 380.733 486.616 380.808C486.984 380.909 487.283 381.011 487.512 381.112C487.747 381.213 487.944 381.371 488.104 381.584C488.269 381.792 488.352 382.072 488.352 382.424C488.352 382.707 488.275 382.973 488.12 383.224C487.971 383.475 487.749 383.677 487.456 383.832C487.168 383.981 486.827 384.056 486.432 384.056ZM493.388 381.688C493.388 381.853 493.377 382.003 493.356 382.136H489.988C490.015 382.488 490.145 382.771 490.38 382.984C490.615 383.197 490.903 383.304 491.244 383.304C491.735 383.304 492.081 383.099 492.284 382.688H493.268C493.135 383.093 492.892 383.427 492.54 383.688C492.193 383.944 491.761 384.072 491.244 384.072C490.823 384.072 490.444 383.979 490.108 383.792C489.777 383.6 489.516 383.333 489.324 382.992C489.137 382.645 489.044 382.245 489.044 381.792C489.044 381.339 489.135 380.941 489.316 380.6C489.503 380.253 489.761 379.987 490.092 379.8C490.428 379.613 490.812 379.52 491.244 379.52C491.66 379.52 492.031 379.611 492.356 379.792C492.681 379.973 492.935 380.229 493.116 380.56C493.297 380.885 493.388 381.261 493.388 381.688ZM492.436 381.4C492.431 381.064 492.311 380.795 492.076 380.592C491.841 380.389 491.551 380.288 491.204 380.288C490.889 380.288 490.62 380.389 490.396 380.592C490.172 380.789 490.039 381.059 489.996 381.4H492.436ZM495.118 380.24C495.272 380.037 495.483 379.867 495.75 379.728C496.016 379.589 496.318 379.52 496.654 379.52C497.038 379.52 497.387 379.616 497.702 379.808C498.022 379.995 498.272 380.259 498.454 380.6C498.635 380.941 498.726 381.333 498.726 381.776C498.726 382.219 498.635 382.616 498.454 382.968C498.272 383.315 498.022 383.587 497.702 383.784C497.387 383.976 497.038 384.072 496.654 384.072C496.318 384.072 496.019 384.005 495.758 383.872C495.496 383.733 495.283 383.563 495.118 383.36V386.096H494.206V379.592H495.118V380.24ZM497.798 381.776C497.798 381.472 497.734 381.211 497.606 380.992C497.483 380.768 497.318 380.6 497.11 380.488C496.907 380.371 496.688 380.312 496.454 380.312C496.224 380.312 496.006 380.371 495.798 380.488C495.595 380.605 495.43 380.776 495.302 381C495.179 381.224 495.118 381.488 495.118 381.792C495.118 382.096 495.179 382.363 495.302 382.592C495.43 382.816 495.595 382.987 495.798 383.104C496.006 383.221 496.224 383.28 496.454 383.28C496.688 383.28 496.907 383.221 497.11 383.104C497.318 382.981 497.483 382.805 497.606 382.576C497.734 382.347 497.798 382.08 497.798 381.776Z" fill="#4F4F4F"/>
<path d="M535.136 384.056C534.619 384.056 534.141 383.936 533.704 383.696C533.272 383.451 532.928 383.112 532.672 382.68C532.421 382.243 532.296 381.752 532.296 381.208C532.296 380.664 532.421 380.176 532.672 379.744C532.928 379.312 533.272 378.976 533.704 378.736C534.141 378.491 534.619 378.368 535.136 378.368C535.659 378.368 536.136 378.491 536.568 378.736C537.005 378.976 537.349 379.312 537.6 379.744C537.851 380.176 537.976 380.664 537.976 381.208C537.976 381.752 537.851 382.243 537.6 382.68C537.349 383.112 537.005 383.451 536.568 383.696C536.136 383.936 535.659 384.056 535.136 384.056ZM535.136 383.264C535.504 383.264 535.832 383.181 536.12 383.016C536.408 382.845 536.632 382.605 536.792 382.296C536.957 381.981 537.04 381.619 537.04 381.208C537.04 380.797 536.957 380.437 536.792 380.128C536.632 379.819 536.408 379.581 536.12 379.416C535.832 379.251 535.504 379.168 535.136 379.168C534.768 379.168 534.44 379.251 534.152 379.416C533.864 379.581 533.637 379.819 533.472 380.128C533.312 380.437 533.232 380.797 533.232 381.208C533.232 381.619 533.312 381.981 533.472 382.296C533.637 382.605 533.864 382.845 534.152 383.016C534.44 383.181 534.768 383.264 535.136 383.264ZM538.489 381.792C538.489 381.339 538.58 380.941 538.761 380.6C538.948 380.253 539.204 379.987 539.529 379.8C539.855 379.613 540.228 379.52 540.649 379.52C541.183 379.52 541.623 379.648 541.969 379.904C542.321 380.155 542.559 380.515 542.681 380.984H541.697C541.617 380.765 541.489 380.595 541.313 380.472C541.137 380.349 540.916 380.288 540.649 380.288C540.276 380.288 539.977 380.421 539.753 380.688C539.535 380.949 539.425 381.317 539.425 381.792C539.425 382.267 539.535 382.637 539.753 382.904C539.977 383.171 540.276 383.304 540.649 383.304C541.177 383.304 541.527 383.072 541.697 382.608H542.681C542.553 383.056 542.313 383.413 541.961 383.68C541.609 383.941 541.172 384.072 540.649 384.072C540.228 384.072 539.855 383.979 539.529 383.792C539.204 383.6 538.948 383.333 538.761 382.992C538.58 382.645 538.489 382.245 538.489 381.792ZM544.574 380.336V382.776C544.574 382.941 544.612 383.061 544.686 383.136C544.766 383.205 544.9 383.24 545.086 383.24H545.646V384H544.926C544.516 384 544.201 383.904 543.982 383.712C543.764 383.52 543.654 383.208 543.654 382.776V380.336H543.134V379.592H543.654V378.496H544.574V379.592H545.646V380.336H544.574Z" fill="#4F4F4F"/>
<path d="M583.168 384H582.256L579.512 379.848V384H578.6V378.432H579.512L582.256 382.576V378.432H583.168V384ZM586.198 384.072C585.782 384.072 585.406 383.979 585.07 383.792C584.734 383.6 584.47 383.333 584.278 382.992C584.086 382.645 583.99 382.245 583.99 381.792C583.99 381.344 584.088 380.947 584.286 380.6C584.483 380.253 584.752 379.987 585.094 379.8C585.435 379.613 585.816 379.52 586.238 379.52C586.659 379.52 587.04 379.613 587.382 379.8C587.723 379.987 587.992 380.253 588.19 380.6C588.387 380.947 588.486 381.344 588.486 381.792C588.486 382.24 588.384 382.637 588.182 382.984C587.979 383.331 587.702 383.6 587.35 383.792C587.003 383.979 586.619 384.072 586.198 384.072ZM586.198 383.28C586.432 383.28 586.651 383.224 586.854 383.112C587.062 383 587.23 382.832 587.358 382.608C587.486 382.384 587.55 382.112 587.55 381.792C587.55 381.472 587.488 381.203 587.366 380.984C587.243 380.76 587.08 380.592 586.878 380.48C586.675 380.368 586.456 380.312 586.222 380.312C585.987 380.312 585.768 380.368 585.566 380.48C585.368 380.592 585.211 380.76 585.094 380.984C584.976 381.203 584.918 381.472 584.918 381.792C584.918 382.267 585.038 382.635 585.278 382.896C585.523 383.152 585.83 383.28 586.198 383.28ZM591.011 383.184L592.259 379.592H593.227L591.547 384H590.459L588.787 379.592H589.763L591.011 383.184Z" fill="#4F4F4F"/>
<path d="M627.416 378.44C628.008 378.44 628.525 378.555 628.968 378.784C629.416 379.008 629.76 379.333 630 379.76C630.245 380.181 630.368 380.675 630.368 381.24C630.368 381.805 630.245 382.296 630 382.712C629.76 383.128 629.416 383.448 628.968 383.672C628.525 383.891 628.008 384 627.416 384H625.6V378.44H627.416ZM627.416 383.256C628.067 383.256 628.565 383.08 628.912 382.728C629.259 382.376 629.432 381.88 629.432 381.24C629.432 380.595 629.259 380.091 628.912 379.728C628.565 379.365 628.067 379.184 627.416 379.184H626.512V383.256H627.416ZM635.232 381.688C635.232 381.853 635.221 382.003 635.2 382.136H631.832C631.859 382.488 631.989 382.771 632.224 382.984C632.459 383.197 632.747 383.304 633.088 383.304C633.579 383.304 633.925 383.099 634.128 382.688H635.112C634.979 383.093 634.736 383.427 634.384 383.688C634.037 383.944 633.605 384.072 633.088 384.072C632.667 384.072 632.288 383.979 631.952 383.792C631.621 383.6 631.36 383.333 631.168 382.992C630.981 382.645 630.888 382.245 630.888 381.792C630.888 381.339 630.979 380.941 631.16 380.6C631.347 380.253 631.605 379.987 631.936 379.8C632.272 379.613 632.656 379.52 633.088 379.52C633.504 379.52 633.875 379.611 634.2 379.792C634.525 379.973 634.779 380.229 634.96 380.56C635.141 380.885 635.232 381.261 635.232 381.688ZM634.28 381.4C634.275 381.064 634.155 380.795 633.92 380.592C633.685 380.389 633.395 380.288 633.048 380.288C632.733 380.288 632.464 380.389 632.24 380.592C632.016 380.789 631.883 381.059 631.84 381.4H634.28ZM635.745 381.792C635.745 381.339 635.836 380.941 636.017 380.6C636.204 380.253 636.46 379.987 636.785 379.8C637.111 379.613 637.484 379.52 637.905 379.52C638.439 379.52 638.879 379.648 639.225 379.904C639.577 380.155 639.815 380.515 639.937 380.984H638.953C638.873 380.765 638.745 380.595 638.569 380.472C638.393 380.349 638.172 380.288 637.905 380.288C637.532 380.288 637.233 380.421 637.009 380.688C636.791 380.949 636.681 381.317 636.681 381.792C636.681 382.267 636.791 382.637 637.009 382.904C637.233 383.171 637.532 383.304 637.905 383.304C638.433 383.304 638.783 383.072 638.953 382.608H639.937C639.809 383.056 639.569 383.413 639.217 383.68C638.865 383.941 638.428 384.072 637.905 384.072C637.484 384.072 637.111 383.979 636.785 383.792C636.46 383.6 636.204 383.333 636.017 382.992C635.836 382.645 635.745 382.245 635.745 381.792Z" fill="#4F4F4F"/>
<rect x="100" y="252" width="31" height="111" rx="8" fill="#F2EFFF"/>
<rect x="147" y="221" width="31" height="142" rx="8" fill="#F2EFFF"/>
<rect x="194" y="187" width="31" height="176" rx="8" fill="#F2EFFF"/>
<rect x="241" y="232" width="31" height="131" rx="8" fill="#F2EFFF"/>
<rect x="288" y="269" width="31" height="94" rx="8" fill="#F2EFFF"/>
<rect x="335" y="232" width="31" height="131" rx="8" fill="#F2EFFF"/>
<rect x="382" y="221" width="31" height="142" rx="8" fill="#F2EFFF"/>
<g filter="url(#filter1_d_0_56)">
<rect x="424" y="156" width="40" height="207" rx="8" fill="#5932EA"/>
</g>
<rect x="476" y="182" width="31" height="181" rx="8" fill="#F2EFFF"/>
<rect x="523" y="211" width="31" height="152" rx="8" fill="#F2EFFF"/>
<rect x="570" y="252" width="31" height="111" rx="8" fill="#F2EFFF"/>
<rect x="617" y="195" width="31" height="168" rx="8" fill="#F2EFFF"/>
<path d="M413 124C413 120.686 415.686 118 419 118H469C472.314 118 475 120.686 475 124V136C475 139.314 472.314 142 469 142H447L443.5 147.5L439.5 142H419C415.686 142 413 139.314 413 136V124Z" fill="black"/>
<path d="M442.66 128.556C442.7 127.756 442.98 127.14 443.5 126.708C444.028 126.268 444.72 126.048 445.576 126.048C446.16 126.048 446.66 126.152 447.076 126.36C447.492 126.56 447.804 126.836 448.012 127.188C448.228 127.532 448.336 127.924 448.336 128.364C448.336 128.868 448.204 129.296 447.94 129.648C447.684 129.992 447.376 130.224 447.016 130.344V130.392C447.48 130.536 447.84 130.792 448.096 131.16C448.36 131.528 448.492 132 448.492 132.576C448.492 133.056 448.38 133.484 448.156 133.86C447.94 134.236 447.616 134.532 447.184 134.748C446.76 134.956 446.248 135.06 445.648 135.06C444.744 135.06 444.008 134.832 443.44 134.376C442.872 133.92 442.572 133.248 442.54 132.36H444.172C444.188 132.752 444.32 133.068 444.568 133.308C444.824 133.54 445.172 133.656 445.612 133.656C446.02 133.656 446.332 133.544 446.548 133.32C446.772 133.088 446.884 132.792 446.884 132.432C446.884 131.952 446.732 131.608 446.428 131.4C446.124 131.192 445.652 131.088 445.012 131.088H444.664V129.708H445.012C446.148 129.708 446.716 129.328 446.716 128.568C446.716 128.224 446.612 127.956 446.404 127.764C446.204 127.572 445.912 127.476 445.528 127.476C445.152 127.476 444.86 127.58 444.652 127.788C444.452 127.988 444.336 128.244 444.304 128.556H442.66ZM455.58 127.704H451.692V129.756C451.86 129.548 452.1 129.38 452.412 129.252C452.724 129.116 453.056 129.048 453.408 129.048C454.048 129.048 454.572 129.188 454.98 129.468C455.388 129.748 455.684 130.108 455.868 130.548C456.052 130.98 456.144 131.444 456.144 131.94C456.144 132.86 455.88 133.6 455.352 134.16C454.832 134.72 454.088 135 453.12 135C452.208 135 451.48 134.772 450.936 134.316C450.392 133.86 450.084 133.264 450.012 132.528H451.644C451.716 132.848 451.876 133.104 452.124 133.296C452.38 133.488 452.704 133.584 453.096 133.584C453.568 133.584 453.924 133.436 454.164 133.14C454.404 132.844 454.524 132.452 454.524 131.964C454.524 131.468 454.4 131.092 454.152 130.836C453.912 130.572 453.556 130.44 453.084 130.44C452.748 130.44 452.468 130.524 452.244 130.692C452.02 130.86 451.86 131.084 451.764 131.364H450.156V126.228H455.58V127.704ZM457.11 128.4C457.11 127.792 457.286 127.316 457.638 126.972C457.998 126.628 458.458 126.456 459.018 126.456C459.578 126.456 460.034 126.628 460.386 126.972C460.746 127.316 460.926 127.792 460.926 128.4C460.926 129.016 460.746 129.496 460.386 129.84C460.034 130.184 459.578 130.356 459.018 130.356C458.458 130.356 457.998 130.184 457.638 129.84C457.286 129.496 457.11 129.016 457.11 128.4ZM464.814 126.6L460.098 135H458.466L463.17 126.6H464.814ZM459.006 127.464C458.566 127.464 458.346 127.776 458.346 128.4C458.346 129.032 458.566 129.348 459.006 129.348C459.222 129.348 459.39 129.272 459.51 129.12C459.63 128.96 459.69 128.72 459.69 128.4C459.69 127.776 459.462 127.464 459.006 127.464ZM462.378 133.188C462.378 132.572 462.554 132.096 462.906 131.76C463.266 131.416 463.726 131.244 464.286 131.244C464.846 131.244 465.298 131.416 465.642 131.76C465.994 132.096 466.17 132.572 466.17 133.188C466.17 133.804 465.994 134.284 465.642 134.628C465.298 134.972 464.846 135.144 464.286 135.144C463.718 135.144 463.258 134.972 462.906 134.628C462.554 134.284 462.378 133.804 462.378 133.188ZM464.274 132.252C463.818 132.252 463.59 132.564 463.59 133.188C463.59 133.82 463.818 134.136 464.274 134.136C464.722 134.136 464.946 133.82 464.946 133.188C464.946 132.564 464.722 132.252 464.274 132.252Z" fill="white"/>
<path d="M436 127L429.467 132.88L426.978 129.52L422 134" stroke="#00AC4F" stroke-width="2" stroke-linecap="round" stroke-linejoin="round"/>
<path d="M433 127H436V130" stroke="#00AC4F" stroke-width="2" stroke-linecap="round" stroke-linejoin="round"/>
<defs>
<filter id="filter0_d_0_56" x="0" y="0" width="748" height="498" filterUnits="userSpaceOnUse" color-interpolation-filters="sRGB">
<feFlood flood-opacity="0" result="BackgroundImageFix"/>
<feColorMatrix in="SourceAlpha" type="matrix" values="0 0 0 0 0 0 0 0 0 0 0 0 0 0 0 0 0 0 127 0" result="hardAlpha"/>
<feOffset dy="10"/>
<feGaussianBlur stdDeviation="30"/>
<feComposite in2="hardAlpha" operator="out"/>
<feColorMatrix type="matrix" values="0 0 0 0 0.885625 0 0 0 0 0.92625 0 0 0 0 0.975 0 0 0 0.5 0"/>
<feBlend mode="normal" in2="BackgroundImageFix" result="effect1_dropShadow_0_56"/>
<feBlend mode="normal" in="SourceGraphic" in2="effect1_dropShadow_0_56" result="shape"/>
</filter>
<filter id="filter1_d_0_56" x="412" y="152" width="64" height="231" filterUnits="userSpaceOnUse" color-interpolation-filters="sRGB">
<feFlood flood-opacity="0" result="BackgroundImageFix"/>
<feColorMatrix in="SourceAlpha" type="matrix" values="0 0 0 0 0 0 0 0 0 0 0 0 0 0 0 0 0 0 127 0" result="hardAlpha"/>
<feOffset dy="8"/>
<feGaussianBlur stdDeviation="6"/>
<feComposite in2="hardAlpha" operator="out"/>
<feColorMatrix type="matrix" values="0 0 0 0 0.52849 0 0 0 0 0.566891 0 0 0 0 0.9125 0 0 0 0.3 0"/>
<feBlend mode="normal" in2="BackgroundImageFix" result="effect1_dropShadow_0_56"/>
<feBlend mode="normal" in="SourceGraphic" in2="effect1_dropShadow_0_56" result="shape"/>
</filter>
</defs>
</svg>
