<svg width="245" height="236" viewBox="0 0 245 236" fill="none" xmlns="http://www.w3.org/2000/svg">
<g filter="url(#filter0_i_2_28)">
<path d="M122.5 236C190.155 236 245 183.17 245 118C245 52.8304 190.155 0 122.5 0C54.8451 0 0 52.8304 0 118C0 183.17 54.8451 236 122.5 236Z" fill="white"/>
</g>
<path d="M122.5 194.777C166.52 194.777 202.205 160.403 202.205 118C202.205 75.5971 166.52 41.2227 122.5 41.2227C78.48 41.2227 42.7948 75.5971 42.7948 118C42.7948 160.403 78.48 194.777 122.5 194.777Z" stroke="#F1EFFB" stroke-width="20"/>
<path d="M122.5 24.7336C138.653 24.7336 154.549 28.6264 168.741 36.0573C182.933 43.4881 194.969 54.2213 203.753 67.2786C212.538 80.3358 217.791 95.3028 219.035 110.816C220.28 126.329 217.474 141.896 210.877 156.098C204.279 170.3 194.097 182.687 181.258 192.129C168.42 201.572 153.333 207.77 137.371 210.16C121.41 212.549 105.081 211.055 89.8733 205.812C74.6651 200.569 61.0606 191.744 50.2988 180.141L75.5552 158.403C82.5532 165.947 91.3989 171.685 101.287 175.094C111.175 178.503 121.792 179.474 132.169 177.921C142.547 176.367 152.356 172.337 160.704 166.198C169.051 160.059 175.671 152.005 179.962 142.771C184.252 133.537 186.075 123.416 185.266 113.329C184.457 103.242 181.041 93.5117 175.33 85.0218C169.618 76.532 161.792 69.553 152.565 64.7217C143.338 59.8904 133.003 57.3593 122.5 57.3593V24.7336Z" fill="url(#paint0_linear_2_28)"/>
<path d="M122.5 17.5197C142.989 17.5197 162.949 23.7804 179.509 35.4008C196.07 47.0214 208.376 63.4026 214.66 82.1878L172.999 95.1162C169.556 84.8219 162.813 75.8467 153.738 69.4788C144.664 63.1109 133.727 59.6812 122.5 59.6812V17.5197Z" fill="url(#paint1_linear_2_28)"/>
<path d="M105.653 103.4C105.517 102.796 105.28 102.348 104.941 102.053C104.602 101.743 104.119 101.588 103.492 101.588C102.526 101.588 101.831 101.996 101.406 102.813C100.983 103.612 100.762 104.886 100.746 106.633C101.119 106.062 101.653 105.613 102.348 105.286C103.059 104.959 103.839 104.796 104.687 104.796C106.348 104.796 107.678 105.302 108.678 106.314C109.696 107.327 110.204 108.739 110.204 110.552C110.204 111.743 109.949 112.788 109.441 113.687C108.95 114.585 108.22 115.287 107.254 115.793C106.305 116.299 105.179 116.552 103.874 116.552C101.263 116.552 99.4497 115.769 98.4322 114.201C97.4148 112.617 96.9066 110.348 96.9066 107.392C96.9066 104.29 97.4405 101.988 98.5082 100.486C99.593 98.9675 101.322 98.208 103.695 98.208C104.967 98.208 106.035 98.4532 106.899 98.9428C107.781 99.4168 108.441 100.045 108.882 100.829C109.34 101.613 109.611 102.469 109.696 103.4H105.653ZM103.645 108.102C102.916 108.102 102.305 108.315 101.814 108.739C101.339 109.147 101.102 109.736 101.102 110.503C101.102 111.287 101.322 111.899 101.763 112.34C102.221 112.78 102.865 113.001 103.695 113.001C104.441 113.001 105.026 112.788 105.45 112.364C105.89 111.924 106.111 111.327 106.111 110.576C106.111 109.809 105.899 109.205 105.475 108.764C105.052 108.323 104.441 108.102 103.645 108.102ZM125.477 102.225H117.544V105.604C117.884 105.246 118.359 104.952 118.968 104.723C119.579 104.494 120.239 104.38 120.952 104.38C122.223 104.38 123.274 104.657 124.105 105.213C124.952 105.768 125.571 106.487 125.961 107.368C126.35 108.25 126.545 109.205 126.545 110.234C126.545 112.143 125.986 113.662 124.868 114.789C123.749 115.899 122.173 116.454 120.138 116.454C118.782 116.454 117.604 116.234 116.604 115.793C115.604 115.336 114.832 114.707 114.291 113.907C113.748 113.107 113.451 112.185 113.401 111.14H117.646C117.749 111.646 117.994 112.07 118.384 112.413C118.774 112.74 119.308 112.903 119.986 112.903C120.782 112.903 121.376 112.658 121.765 112.168C122.156 111.679 122.35 111.025 122.35 110.209C122.35 109.409 122.147 108.797 121.74 108.372C121.333 107.948 120.74 107.736 119.96 107.736C119.383 107.736 118.91 107.874 118.536 108.152C118.164 108.413 117.918 108.764 117.799 109.205H113.604V98.5511H125.477V102.225ZM128.335 103.082C128.335 101.759 128.725 100.739 129.504 100.021C130.301 99.3024 131.326 98.9428 132.581 98.9428C133.835 98.9428 134.853 99.3024 135.632 100.021C136.412 100.739 136.802 101.759 136.802 103.082C136.802 104.405 136.412 105.425 135.632 106.143C134.853 106.862 133.835 107.221 132.581 107.221C131.326 107.221 130.301 106.862 129.504 106.143C128.725 105.425 128.335 104.405 128.335 103.082ZM145.598 99.2128L135.81 116.454H131.615L141.404 99.2128H145.598ZM132.556 101.392C131.742 101.392 131.335 101.955 131.335 103.082C131.335 104.192 131.742 104.747 132.556 104.747C132.945 104.747 133.25 104.609 133.47 104.331C133.691 104.053 133.801 103.637 133.801 103.082C133.801 101.955 133.386 101.392 132.556 101.392ZM140.437 112.584C140.437 111.262 140.827 110.242 141.607 109.524C142.387 108.804 143.403 108.446 144.658 108.446C145.912 108.446 146.929 108.804 147.709 109.524C148.488 110.242 148.879 111.262 148.879 112.584C148.879 113.907 148.488 114.928 147.709 115.646C146.929 116.365 145.912 116.723 144.658 116.723C143.403 116.723 142.387 116.365 141.607 115.646C140.827 114.928 140.437 113.907 140.437 112.584ZM144.632 110.894C144.243 110.894 143.938 111.033 143.718 111.311C143.513 111.589 143.412 112.013 143.412 112.584C143.412 113.695 143.819 114.25 144.632 114.25C145.022 114.25 145.328 114.112 145.548 113.833C145.769 113.556 145.879 113.14 145.879 112.584C145.879 112.03 145.769 111.614 145.548 111.335C145.328 111.042 145.022 110.894 144.632 110.894ZM98.505 121.316V122.222H96.0903V129.852H94.9327V122.222H92.5052V121.316H98.505ZM102.84 129.962C102.187 129.962 101.595 129.819 101.061 129.533C100.536 129.248 100.12 128.844 99.8145 128.321C99.5182 127.79 99.3705 127.178 99.3705 126.484C99.3705 125.798 99.5224 125.194 99.8273 124.672C100.141 124.141 100.564 123.737 101.099 123.459C101.633 123.173 102.23 123.031 102.891 123.031C103.553 123.031 104.15 123.173 104.683 123.459C105.217 123.737 105.638 124.137 105.943 124.66C106.256 125.182 106.412 125.79 106.412 126.484C106.412 127.178 106.252 127.79 105.93 128.321C105.616 128.844 105.188 129.248 104.646 129.533C104.104 129.819 103.501 129.962 102.84 129.962ZM102.84 128.982C103.256 128.982 103.646 128.888 104.011 128.7C104.374 128.513 104.667 128.231 104.887 127.855C105.116 127.48 105.23 127.023 105.23 126.484C105.23 125.946 105.12 125.488 104.9 125.113C104.679 124.737 104.391 124.46 104.035 124.28C103.68 124.092 103.294 123.998 102.879 123.998C102.455 123.998 102.066 124.092 101.709 124.28C101.362 124.46 101.082 124.737 100.87 125.113C100.659 125.488 100.553 125.946 100.553 126.484C100.553 127.031 100.654 127.493 100.858 127.868C101.069 128.243 101.349 128.525 101.696 128.713C102.044 128.892 102.425 128.982 102.84 128.982ZM109.218 124.06V128.015C109.218 128.342 109.29 128.574 109.434 128.713C109.578 128.844 109.828 128.909 110.184 128.909H111.035V129.852H109.993C109.349 129.852 108.866 129.708 108.544 129.423C108.222 129.137 108.061 128.667 108.061 128.015V124.06H107.158V123.14H108.061V121.451H109.218V123.14H111.035V124.06H109.218ZM111.878 126.471C111.878 125.786 112.022 125.186 112.311 124.672C112.598 124.149 112.992 123.745 113.493 123.459C114.001 123.173 114.565 123.031 115.183 123.031C115.793 123.031 116.324 123.157 116.772 123.41C117.221 123.663 117.556 123.981 117.777 124.366V123.14H118.946V129.852H117.777V128.602C117.548 128.994 117.204 129.321 116.747 129.583C116.298 129.835 115.773 129.962 115.17 129.962C114.552 129.962 113.992 129.814 113.493 129.521C112.992 129.227 112.598 128.815 112.311 128.284C112.022 127.753 111.878 127.149 111.878 126.471ZM117.777 126.484C117.777 125.978 117.671 125.537 117.459 125.161C117.247 124.786 116.959 124.5 116.594 124.304C116.238 124.1 115.844 123.998 115.412 123.998C114.98 123.998 114.586 124.096 114.23 124.292C113.874 124.488 113.59 124.774 113.378 125.149C113.166 125.525 113.061 125.965 113.061 126.471C113.061 126.987 113.166 127.435 113.378 127.819C113.59 128.194 113.874 128.484 114.23 128.688C114.586 128.884 114.98 128.982 115.412 128.982C115.844 128.982 116.238 128.884 116.594 128.688C116.959 128.484 117.247 128.194 117.459 127.819C117.671 127.435 117.777 126.99 117.777 126.484ZM121.931 120.79V129.852H120.774V120.79H121.931ZM134.004 129.852H132.847L128.194 123.055V129.852H127.037V121.304H128.194L132.847 128.088V121.304H134.004V129.852ZM142.205 126.239C142.205 126.452 142.192 126.676 142.167 126.912H136.599C136.642 127.574 136.875 128.092 137.298 128.467C137.731 128.835 138.252 129.019 138.862 129.019C139.362 129.019 139.777 128.909 140.108 128.688C140.446 128.459 140.684 128.157 140.819 127.782H142.066C141.879 128.427 141.506 128.954 140.947 129.362C140.387 129.762 139.692 129.962 138.862 129.962C138.2 129.962 137.608 129.819 137.082 129.533C136.565 129.248 136.158 128.844 135.862 128.321C135.565 127.79 135.417 127.178 135.417 126.484C135.417 125.79 135.561 125.182 135.849 124.66C136.137 124.137 136.54 123.737 137.057 123.459C137.582 123.173 138.183 123.031 138.862 123.031C139.523 123.031 140.108 123.169 140.616 123.448C141.124 123.725 141.515 124.108 141.785 124.598C142.066 125.08 142.205 125.627 142.205 126.239ZM141.01 126.006C141.01 125.582 140.912 125.219 140.718 124.916C140.523 124.606 140.256 124.374 139.916 124.218C139.586 124.056 139.218 123.973 138.811 123.973C138.226 123.973 137.726 124.154 137.31 124.512C136.904 124.872 136.67 125.37 136.612 126.006H141.01ZM152.885 123.14L150.711 129.852H149.516L147.838 124.525L146.16 129.852H144.965L142.778 123.14H143.961L145.563 128.774L147.292 123.14H148.474L150.165 128.786L151.741 123.14H152.885ZM88.6954 138.975C88.6954 138.142 88.8901 137.395 89.2795 136.735C89.67 136.065 90.1996 135.542 90.8683 135.167C91.5466 134.791 92.2965 134.603 93.1193 134.603C94.0853 134.603 94.9284 134.828 95.6484 135.277C96.3695 135.726 96.8948 136.363 97.2254 137.187H95.8389C95.5939 136.673 95.2376 136.277 94.7711 136C94.3143 135.722 93.7633 135.584 93.1193 135.584C92.4998 135.584 91.9456 135.722 91.4535 136C90.9624 136.277 90.5762 136.673 90.2969 137.187C90.0166 137.693 89.8776 138.29 89.8776 138.975C89.8776 139.653 90.0166 140.249 90.2969 140.763C90.5762 141.269 90.9624 141.661 91.4535 141.939C91.9456 142.216 92.4998 142.355 93.1193 142.355C93.7633 142.355 94.3143 142.22 94.7711 141.95C95.2376 141.673 95.5939 141.277 95.8389 140.763H97.2254C96.8948 141.579 96.3695 142.212 95.6484 142.661C94.9284 143.102 94.0853 143.322 93.1193 143.322C92.2965 143.322 91.5466 143.139 90.8683 142.772C90.1996 142.396 89.67 141.877 89.2795 141.217C88.8901 140.555 88.6954 139.808 88.6954 138.975ZM104.998 136.538V143.249H103.841V142.258C103.621 142.6 103.312 142.87 102.914 143.065C102.523 143.253 102.091 143.347 101.617 143.347C101.075 143.347 100.587 143.241 100.155 143.028C99.7225 142.808 99.3791 142.481 99.1255 142.049C98.8794 141.616 98.7564 141.09 98.7564 140.469V136.538H99.9001V140.322C99.9001 140.984 100.074 141.494 100.422 141.852C100.769 142.204 101.244 142.379 101.845 142.379C102.465 142.379 102.951 142.196 103.308 141.829C103.664 141.461 103.841 140.926 103.841 140.224V136.538H104.998ZM109.29 143.359C108.756 143.359 108.278 143.274 107.855 143.102C107.431 142.922 107.096 142.677 106.85 142.367C106.604 142.049 106.468 141.686 106.443 141.277H107.638C107.672 141.612 107.833 141.885 108.121 142.098C108.417 142.31 108.804 142.416 109.278 142.416C109.718 142.416 110.066 142.322 110.321 142.135C110.574 141.947 110.701 141.71 110.701 141.425C110.701 141.13 110.567 140.914 110.295 140.776C110.024 140.628 109.604 140.486 109.037 140.347C108.519 140.216 108.095 140.085 107.765 139.955C107.443 139.816 107.163 139.616 106.926 139.354C106.697 139.085 106.582 138.734 106.582 138.302C106.582 137.959 106.688 137.645 106.9 137.359C107.112 137.073 107.414 136.848 107.803 136.685C108.193 136.514 108.638 136.429 109.138 136.429C109.91 136.429 110.532 136.616 111.006 136.991C111.481 137.367 111.736 137.882 111.769 138.534H110.613C110.587 138.184 110.439 137.901 110.168 137.689C109.906 137.477 109.549 137.371 109.1 137.371C108.685 137.371 108.354 137.457 108.108 137.628C107.863 137.799 107.74 138.024 107.74 138.302C107.74 138.522 107.812 138.706 107.956 138.853C108.108 138.992 108.295 139.106 108.515 139.196C108.744 139.277 109.057 139.371 109.456 139.477C109.956 139.608 110.362 139.739 110.676 139.869C110.99 139.991 111.257 140.179 111.477 140.432C111.706 140.686 111.825 141.016 111.833 141.425C111.833 141.792 111.727 142.123 111.516 142.416C111.304 142.71 111.002 142.943 110.613 143.114C110.232 143.278 109.791 143.359 109.29 143.359ZM114.75 137.457V141.412C114.75 141.739 114.823 141.971 114.966 142.11C115.11 142.241 115.361 142.306 115.716 142.306H116.568V143.249H115.526C114.881 143.249 114.399 143.106 114.077 142.82C113.755 142.535 113.593 142.065 113.593 141.412V137.457H112.69V136.538H113.593V134.849H114.75V136.538H116.568V137.457H114.75ZM120.881 143.359C120.229 143.359 119.635 143.216 119.101 142.93C118.576 142.645 118.161 142.241 117.856 141.719C117.558 141.188 117.411 140.576 117.411 139.881C117.411 139.196 117.563 138.592 117.869 138.069C118.182 137.539 118.606 137.135 119.14 136.856C119.673 136.571 120.27 136.429 120.932 136.429C121.593 136.429 122.191 136.571 122.725 136.856C123.259 137.135 123.678 137.534 123.983 138.057C124.296 138.579 124.454 139.187 124.454 139.881C124.454 140.576 124.292 141.188 123.97 141.719C123.657 142.241 123.229 142.645 122.686 142.93C122.144 143.216 121.542 143.359 120.881 143.359ZM120.881 142.379C121.296 142.379 121.686 142.285 122.051 142.098C122.414 141.91 122.708 141.629 122.928 141.253C123.157 140.878 123.271 140.42 123.271 139.881C123.271 139.343 123.161 138.885 122.941 138.51C122.72 138.134 122.432 137.857 122.076 137.678C121.72 137.489 121.334 137.395 120.919 137.395C120.495 137.395 120.106 137.489 119.749 137.678C119.402 137.857 119.122 138.134 118.911 138.51C118.699 138.885 118.593 139.343 118.593 139.881C118.593 140.428 118.694 140.89 118.898 141.265C119.11 141.64 119.389 141.923 119.737 142.11C120.084 142.289 120.466 142.379 120.881 142.379ZM134.225 136.416C134.767 136.416 135.25 136.527 135.674 136.746C136.098 136.958 136.433 137.281 136.678 137.714C136.924 138.147 137.047 138.673 137.047 139.294V143.249H135.902V139.452C135.902 138.783 135.729 138.273 135.381 137.922C135.042 137.563 134.581 137.383 133.996 137.383C133.394 137.383 132.915 137.572 132.559 137.947C132.204 138.314 132.025 138.848 132.025 139.551V143.249H130.881V139.452C130.881 138.783 130.708 138.273 130.36 137.922C130.021 137.563 129.559 137.383 128.975 137.383C128.373 137.383 127.894 137.572 127.538 137.947C127.182 138.314 127.004 138.848 127.004 139.551V143.249H125.847V136.538H127.004V137.506C127.233 137.155 127.538 136.885 127.919 136.698C128.309 136.51 128.737 136.416 129.203 136.416C129.788 136.416 130.305 136.542 130.754 136.796C131.203 137.049 131.538 137.42 131.759 137.91C131.953 137.437 132.275 137.069 132.725 136.808C133.174 136.546 133.674 136.416 134.225 136.416ZM145.174 139.637C145.174 139.849 145.161 140.074 145.135 140.31H139.568C139.609 140.971 139.843 141.49 140.266 141.865C140.698 142.233 141.221 142.416 141.83 142.416C142.33 142.416 142.745 142.306 143.076 142.085C143.415 141.857 143.652 141.555 143.788 141.18H145.034C144.847 141.825 144.474 142.351 143.916 142.759C143.356 143.159 142.661 143.359 141.83 143.359C141.169 143.359 140.575 143.216 140.05 142.93C139.533 142.645 139.127 142.241 138.831 141.719C138.533 141.188 138.385 140.576 138.385 139.881C138.385 139.187 138.529 138.579 138.818 138.057C139.105 137.534 139.508 137.135 140.026 136.856C140.551 136.571 141.152 136.429 141.83 136.429C142.492 136.429 143.076 136.567 143.585 136.845C144.093 137.122 144.483 137.506 144.754 137.995C145.034 138.477 145.174 139.025 145.174 139.637ZM143.979 139.404C143.979 138.979 143.881 138.617 143.687 138.314C143.491 138.003 143.224 137.771 142.885 137.616C142.555 137.453 142.187 137.371 141.779 137.371C141.195 137.371 140.694 137.551 140.279 137.91C139.873 138.269 139.639 138.767 139.58 139.404H143.979ZM147.731 137.628C147.934 137.245 148.222 136.947 148.595 136.735C148.976 136.522 149.438 136.416 149.981 136.416V137.567H149.676C148.379 137.567 147.731 138.244 147.731 139.6V143.249H146.573V136.538H147.731V137.628ZM153.655 143.359C153.121 143.359 152.643 143.274 152.219 143.102C151.795 142.922 151.46 142.677 151.214 142.367C150.968 142.049 150.833 141.686 150.808 141.277H152.003C152.036 141.612 152.197 141.885 152.485 142.098C152.782 142.31 153.168 142.416 153.643 142.416C154.083 142.416 154.43 142.322 154.685 142.135C154.94 141.947 155.066 141.71 155.066 141.425C155.066 141.13 154.931 140.914 154.659 140.776C154.389 140.628 153.968 140.486 153.401 140.347C152.884 140.216 152.46 140.085 152.13 139.955C151.807 139.816 151.528 139.616 151.29 139.354C151.061 139.085 150.947 138.734 150.947 138.302C150.947 137.959 151.053 137.645 151.266 137.359C151.477 137.073 151.778 136.848 152.167 136.685C152.558 136.514 153.002 136.429 153.503 136.429C154.274 136.429 154.897 136.616 155.372 136.991C155.846 137.367 156.1 137.882 156.133 138.534H154.977C154.951 138.184 154.804 137.901 154.532 137.689C154.27 137.477 153.914 137.371 153.464 137.371C153.049 137.371 152.718 137.457 152.472 137.628C152.227 137.799 152.104 138.024 152.104 138.302C152.104 138.522 152.176 138.706 152.32 138.853C152.472 138.992 152.66 139.106 152.88 139.196C153.108 139.277 153.422 139.371 153.82 139.477C154.32 139.608 154.727 139.739 155.041 139.869C155.355 139.991 155.621 140.179 155.841 140.432C156.07 140.686 156.189 141.016 156.198 141.425C156.198 141.792 156.092 142.123 155.88 142.416C155.668 142.71 155.367 142.943 154.977 143.114C154.596 143.278 154.155 143.359 153.655 143.359Z" fill="black"/>
<defs>
<filter id="filter0_i_2_28" x="0" y="0" width="245" height="246" filterUnits="userSpaceOnUse" color-interpolation-filters="sRGB">
<feFlood flood-opacity="0" result="BackgroundImageFix"/>
<feBlend mode="normal" in="SourceGraphic" in2="BackgroundImageFix" result="shape"/>
<feColorMatrix in="SourceAlpha" type="matrix" values="0 0 0 0 0 0 0 0 0 0 0 0 0 0 0 0 0 0 127 0" result="hardAlpha"/>
<feOffset dy="10"/>
<feGaussianBlur stdDeviation="30"/>
<feComposite in2="hardAlpha" operator="arithmetic" k2="-1" k3="1"/>
<feColorMatrix type="matrix" values="0 0 0 0 0.885625 0 0 0 0 0.92625 0 0 0 0 0.975 0 0 0 0.5 0"/>
<feBlend mode="normal" in2="shape" result="effect1_innerShadow_2_28"/>
</filter>
<linearGradient id="paint0_linear_2_28" x1="76.7995" y1="-71.3378" x2="279.045" y2="-3.4871" gradientUnits="userSpaceOnUse">
<stop stop-color="#EAABF0"/>
<stop offset="1" stop-color="#4623E9"/>
</linearGradient>
<linearGradient id="paint1_linear_2_28" x1="197.538" y1="17.5197" x2="127.25" y2="205.825" gradientUnits="userSpaceOnUse">
<stop stop-color="#FF007A"/>
<stop offset="1" stop-color="#CDF4FF"/>
</linearGradient>
</defs>
</svg>



