<svg width="64" height="45" viewBox="0 0 64 45" fill="none" xmlns="http://www.w3.org/2000/svg">
<path d="M16.7532 5.33341C16.6264 4.74721 16.4046 4.31153 16.0878 4.02635C15.7709 3.72533 15.3194 3.57482 14.7332 3.57482C13.8301 3.57482 13.1806 3.9709 12.7845 4.76306C12.3884 5.53937 12.1824 6.77514 12.1666 8.47035C12.5152 7.91584 13.0142 7.48016 13.6638 7.16329C14.3292 6.84643 15.058 6.688 15.8501 6.688C17.4028 6.688 18.6464 7.17914 19.5812 8.16141C20.5318 9.14369 21.0071 10.5141 21.0071 12.2727C21.0071 13.4293 20.7694 14.4432 20.2941 15.3146C19.8347 16.186 19.1534 16.8672 18.2504 17.3584C17.3632 17.8495 16.3096 18.0951 15.0897 18.0951C12.6498 18.0951 10.9546 17.3346 10.004 15.8136C9.05343 14.2769 8.57813 12.0747 8.57813 9.20706C8.57813 6.19686 9.07719 3.96298 10.0753 2.50541C11.0893 1.032 12.7053 0.295293 14.9233 0.295293C16.1115 0.295293 17.1097 0.53294 17.9177 1.00823C18.7415 1.46769 19.3594 2.07765 19.7713 2.83812C20.1991 3.59859 20.4526 4.43035 20.5318 5.33341H16.7532ZM14.8758 9.89623C14.1945 9.89623 13.6242 10.1022 13.1647 10.5141C12.7211 10.9102 12.4993 11.4805 12.4993 12.2252C12.4993 12.9856 12.7053 13.5798 13.1172 14.0075C13.545 14.4353 14.147 14.6492 14.9233 14.6492C15.6204 14.6492 16.167 14.4432 16.5631 14.0313C16.975 13.6035 17.181 13.0253 17.181 12.2965C17.181 11.5518 16.9829 10.9656 16.5868 10.5379C16.1908 10.1101 15.6204 9.89623 14.8758 9.89623ZM35.283 4.19271H27.8684V7.47223C28.1853 7.12369 28.6289 6.83851 29.1992 6.61671C29.7696 6.3949 30.3874 6.284 31.0529 6.284C32.2411 6.284 33.2234 6.55333 33.9997 7.092C34.7918 7.63067 35.3701 8.32776 35.7345 9.18329C36.0989 10.0388 36.2811 10.9656 36.2811 11.9638C36.2811 13.8174 35.7583 15.2908 34.7126 16.384C33.667 17.4613 32.1936 18 30.2924 18C29.0249 18 27.9238 17.7861 26.9891 17.3584C26.0543 16.9147 25.3335 16.3048 24.8265 15.5285C24.3195 14.7522 24.0423 13.857 23.9947 12.8431H27.9634C28.0585 13.3342 28.2882 13.7461 28.6526 14.0788C29.017 14.3957 29.5161 14.5541 30.1498 14.5541C30.8944 14.5541 31.4489 14.3165 31.8133 13.8412C32.1777 13.3659 32.3599 12.7322 32.3599 11.94C32.3599 11.1637 32.1698 10.5696 31.7896 10.1576C31.4093 9.74573 30.8548 9.53976 30.126 9.53976C29.5874 9.53976 29.1438 9.67443 28.7952 9.94376C28.4467 10.1973 28.2169 10.5379 28.106 10.9656H24.1849V0.628H35.283V4.19271ZM37.9539 5.02447C37.9539 3.74118 38.3183 2.75098 39.0471 2.05388C39.7917 1.35678 40.7502 1.00823 41.9226 1.00823C43.095 1.00823 44.0456 1.35678 44.7744 2.05388C45.5032 2.75098 45.8676 3.74118 45.8676 5.02447C45.8676 6.30776 45.5032 7.29796 44.7744 7.99506C44.0456 8.69216 43.095 9.04071 41.9226 9.04071C40.7502 9.04071 39.7917 8.69216 39.0471 7.99506C38.3183 7.29796 37.9539 6.30776 37.9539 5.02447ZM54.0901 1.26965L44.9407 18H41.0196L50.169 1.26965H54.0901ZM41.8988 3.38471C41.1384 3.38471 40.7581 3.93129 40.7581 5.02447C40.7581 6.1018 41.1384 6.64047 41.8988 6.64047C42.2632 6.64047 42.5484 6.5058 42.7544 6.23647C42.9603 5.96714 43.0633 5.56314 43.0633 5.02447C43.0633 3.93129 42.6752 3.38471 41.8988 3.38471ZM49.2659 14.2452C49.2659 12.9619 49.6303 11.9717 50.3591 11.2746C51.0879 10.5775 52.0385 10.2289 53.2108 10.2289C54.3832 10.2289 55.3338 10.5775 56.0626 11.2746C56.7914 11.9717 57.1558 12.9619 57.1558 14.2452C57.1558 15.5285 56.7914 16.5187 56.0626 17.2158C55.3338 17.9129 54.3832 18.2614 53.2108 18.2614C52.0385 18.2614 51.0879 17.9129 50.3591 17.2158C49.6303 16.5187 49.2659 15.5285 49.2659 14.2452ZM53.1871 12.6054C52.8227 12.6054 52.5375 12.7401 52.3316 13.0094C52.1414 13.2787 52.0464 13.6907 52.0464 14.2452C52.0464 15.3225 52.4266 15.8612 53.1871 15.8612C53.5515 15.8612 53.8367 15.7265 54.0426 15.4572C54.2486 15.1878 54.3516 14.7838 54.3516 14.2452C54.3516 13.7065 54.2486 13.3025 54.0426 13.0332C53.8367 12.748 53.5515 12.6054 53.1871 12.6054ZM10.0723 22.718V23.5973H7.81469V31H6.7334V23.5973H4.46387V22.718H10.0723ZM14.1244 31.1069C13.5144 31.1069 12.9599 30.9683 12.4609 30.6911C11.9697 30.4138 11.5816 30.0217 11.2964 29.5147C11.0192 28.9998 10.8805 28.4057 10.8805 27.7324C10.8805 27.0669 11.0231 26.4807 11.3083 25.9738C11.6014 25.4589 11.9975 25.0667 12.4965 24.7974C12.9956 24.5202 13.5541 24.3815 14.1719 24.3815C14.7898 24.3815 15.3483 24.5202 15.8473 24.7974C16.3464 25.0667 16.7385 25.4549 17.0237 25.9619C17.3168 26.4689 17.4633 27.059 17.4633 27.7324C17.4633 28.4057 17.3128 28.9998 17.0118 29.5147C16.7187 30.0217 16.3187 30.4138 15.8117 30.6911C15.3047 30.9683 14.7423 31.1069 14.1244 31.1069ZM14.1244 30.1564C14.5126 30.1564 14.877 30.0653 15.2176 29.8831C15.5582 29.7009 15.8315 29.4276 16.0375 29.0632C16.2513 28.6988 16.3583 28.2552 16.3583 27.7324C16.3583 27.2095 16.2553 26.7659 16.0493 26.4015C15.8434 26.0371 15.5741 25.7678 15.2413 25.5935C14.9086 25.4113 14.5482 25.3202 14.1601 25.3202C13.764 25.3202 13.3996 25.4113 13.0669 25.5935C12.7421 25.7678 12.4807 26.0371 12.2826 26.4015C12.0846 26.7659 11.9856 27.2095 11.9856 27.7324C11.9856 28.2631 12.0806 28.7107 12.2708 29.0751C12.4688 29.4395 12.7302 29.7127 13.055 29.8949C13.3798 30.0692 13.7362 30.1564 14.1244 30.1564ZM20.0852 25.3796V29.2176C20.0852 29.5345 20.1525 29.7603 20.2872 29.8949C20.4218 30.0217 20.6555 30.0851 20.9882 30.0851H21.7843V31H20.81C20.208 31 19.7564 30.8614 19.4554 30.5841C19.1544 30.3069 19.0039 29.8514 19.0039 29.2176V25.3796H18.1602V24.4885H19.0039V22.8487H20.0852V24.4885H21.7843V25.3796H20.0852ZM22.5716 27.7205C22.5716 27.0551 22.7063 26.4728 22.9756 25.9738C23.245 25.4668 23.6133 25.0747 24.0807 24.7974C24.556 24.5202 25.0828 24.3815 25.6611 24.3815C26.2314 24.3815 26.7265 24.5043 27.1464 24.7499C27.5662 24.9955 27.8791 25.3044 28.0851 25.6767V24.4885H29.1782V31H28.0851V29.788C27.8712 30.1682 27.5504 30.4851 27.1226 30.7386C26.7027 30.9842 26.2116 31.1069 25.6492 31.1069C25.0709 31.1069 24.5481 30.9644 24.0807 30.6792C23.6133 30.394 23.245 29.994 22.9756 29.4791C22.7063 28.9642 22.5716 28.378 22.5716 27.7205ZM28.0851 27.7324C28.0851 27.2412 27.986 26.8135 27.788 26.4491C27.59 26.0847 27.3206 25.8074 26.98 25.6173C26.6473 25.4193 26.2789 25.3202 25.8749 25.3202C25.4709 25.3202 25.1026 25.4153 24.7699 25.6054C24.4372 25.7955 24.1718 26.0728 23.9738 26.4372C23.7757 26.8016 23.6767 27.2293 23.6767 27.7205C23.6767 28.2195 23.7757 28.6552 23.9738 29.0275C24.1718 29.3919 24.4372 29.6731 24.7699 29.8712C25.1026 30.0613 25.4709 30.1564 25.8749 30.1564C26.2789 30.1564 26.6473 30.0613 26.98 29.8712C27.3206 29.6731 27.59 29.3919 27.788 29.0275C27.986 28.6552 28.0851 28.2235 28.0851 27.7324ZM31.968 22.2071V31H30.8867V22.2071H31.968ZM43.2526 31H42.1713L37.8224 24.4053V31H36.7411V22.7061H37.8224L42.1713 29.2889V22.7061H43.2526V31ZM50.9182 27.4947C50.9182 27.7007 50.9063 27.9185 50.8826 28.1482H45.6781C45.7177 28.7899 45.9355 29.2929 46.3316 29.6573C46.7356 30.0138 47.2228 30.192 47.7931 30.192C48.2605 30.192 48.6487 30.0851 48.9576 29.8712C49.2745 29.6494 49.4963 29.3563 49.623 28.9919H50.7875C50.6132 29.6177 50.2647 30.1286 49.7419 30.5247C49.219 30.9129 48.5695 31.1069 47.7931 31.1069C47.1753 31.1069 46.6208 30.9683 46.1296 30.6911C45.6464 30.4138 45.2662 30.0217 44.9889 29.5147C44.7117 28.9998 44.573 28.4057 44.573 27.7324C44.573 27.059 44.7077 26.4689 44.977 25.9619C45.2464 25.4549 45.6226 25.0667 46.1059 24.7974C46.597 24.5202 47.1594 24.3815 47.7931 24.3815C48.411 24.3815 48.9576 24.5162 49.4329 24.7855C49.9082 25.0549 50.2726 25.4272 50.5261 25.9025C50.7875 26.3698 50.9182 26.9006 50.9182 27.4947ZM49.8013 27.2689C49.8013 26.857 49.7102 26.5045 49.528 26.2114C49.3458 25.9104 49.0962 25.6846 48.7794 25.5341C48.4704 25.3757 48.1259 25.2965 47.7456 25.2965C47.199 25.2965 46.7317 25.4707 46.3435 25.8193C45.9633 26.1678 45.7454 26.6511 45.69 27.2689H49.8013ZM60.9008 24.4885L58.8689 31H57.752L56.1835 25.8312L54.615 31H53.4981L51.4543 24.4885H52.5594L54.0565 29.9544L55.6725 24.4885H56.7776L58.358 29.9662L59.8314 24.4885H60.9008ZM0.902596 39.8531C0.902596 39.0451 1.08479 38.3202 1.44918 37.6786C1.81358 37.029 2.30867 36.522 2.93448 36.1576C3.5682 35.7933 4.26926 35.6111 5.03766 35.6111C5.94071 35.6111 6.72891 35.8289 7.40224 36.2646C8.07558 36.7003 8.56671 37.3182 8.87566 38.1182H7.58048C7.35075 37.6192 7.01805 37.235 6.58236 36.9656C6.1546 36.6963 5.63969 36.5616 5.03766 36.5616C4.45938 36.5616 3.94052 36.6963 3.48107 36.9656C3.02162 37.235 2.66118 37.6192 2.39977 38.1182C2.13836 38.6094 2.00766 39.1876 2.00766 39.8531C2.00766 40.5105 2.13836 41.0888 2.39977 41.5879C2.66118 42.079 3.02162 42.4593 3.48107 42.7286C3.94052 42.9979 4.45938 43.1326 5.03766 43.1326C5.63969 43.1326 6.1546 43.0019 6.58236 42.7405C7.01805 42.4711 7.35075 42.0869 7.58048 41.5879H8.87566C8.56671 42.38 8.07558 42.994 7.40224 43.4296C6.72891 43.8574 5.94071 44.0713 5.03766 44.0713C4.26926 44.0713 3.5682 43.8931 2.93448 43.5366C2.30867 43.1722 1.81358 42.6692 1.44918 42.0275C1.08479 41.3859 0.902596 40.6611 0.902596 39.8531ZM16.1412 37.4885V44H15.06V43.0375C14.854 43.3702 14.5649 43.6316 14.1925 43.8218C13.8282 44.004 13.4242 44.0951 12.9805 44.0951C12.4736 44.0951 12.0181 43.9921 11.6141 43.7861C11.2101 43.5722 10.8892 43.2554 10.6516 42.8355C10.4219 42.4157 10.307 41.9047 10.307 41.3027V37.4885H11.3764V41.1601C11.3764 41.8018 11.5388 42.2969 11.8636 42.6454C12.1884 42.986 12.632 43.1564 13.1944 43.1564C13.7727 43.1564 14.2282 42.9781 14.5609 42.6216C14.8936 42.2652 15.06 41.7463 15.06 41.0651V37.4885H16.1412ZM20.1533 44.1069C19.6542 44.1069 19.2067 44.0238 18.8106 43.8574C18.4145 43.6831 18.1016 43.4455 17.8719 43.1445C17.6422 42.8355 17.5154 42.483 17.4917 42.0869H18.6086C18.6403 42.4117 18.7908 42.6771 19.0601 42.8831C19.3374 43.089 19.6978 43.192 20.1414 43.192C20.5533 43.192 20.8781 43.1009 21.1158 42.9187C21.3534 42.7365 21.4722 42.5068 21.4722 42.2295C21.4722 41.9444 21.3455 41.7344 21.092 41.5998C20.8385 41.4572 20.4464 41.3185 19.9157 41.1839C19.4324 41.0571 19.0364 40.9304 18.7274 40.8036C18.4264 40.669 18.165 40.4749 17.9432 40.2214C17.7293 39.96 17.6224 39.6194 17.6224 39.1995C17.6224 38.8668 17.7214 38.5618 17.9194 38.2846C18.1175 38.0073 18.3987 37.7895 18.7631 37.6311C19.1275 37.4647 19.5433 37.3815 20.0107 37.3815C20.7316 37.3815 21.3138 37.5637 21.7574 37.9281C22.201 38.2925 22.4387 38.7916 22.4704 39.4253H21.3891C21.3653 39.0847 21.2267 38.8114 20.9732 38.6054C20.7276 38.3995 20.3949 38.2965 19.9751 38.2965C19.5869 38.2965 19.278 38.3796 19.0482 38.546C18.8185 38.7124 18.7037 38.9302 18.7037 39.1995C18.7037 39.4134 18.771 39.5916 18.9057 39.7342C19.0482 39.8689 19.2225 39.9798 19.4285 40.0669C19.6424 40.1462 19.9355 40.2373 20.3078 40.3402C20.7752 40.467 21.1554 40.5937 21.4485 40.7205C21.7416 40.8393 21.9911 41.0215 22.1971 41.2671C22.411 41.5126 22.5219 41.8335 22.5298 42.2295C22.5298 42.586 22.4308 42.9068 22.2327 43.192C22.0347 43.4772 21.7535 43.7029 21.3891 43.8693C21.0326 44.0277 20.6207 44.1069 20.1533 44.1069ZM25.2563 38.3796V42.2176C25.2563 42.5345 25.3236 42.7603 25.4583 42.8949C25.593 43.0217 25.8267 43.0851 26.1594 43.0851H26.9555V44H25.9811C25.3791 44 24.9276 43.8614 24.6265 43.5841C24.3255 43.3069 24.175 42.8514 24.175 42.2176V38.3796H23.3314V37.4885H24.175V35.8487H25.2563V37.4885H26.9555V38.3796H25.2563ZM30.9867 44.1069C30.3767 44.1069 29.8222 43.9683 29.3231 43.6911C28.832 43.4138 28.4438 43.0217 28.1587 42.5147C27.8814 41.9998 27.7428 41.4057 27.7428 40.7324C27.7428 40.0669 27.8854 39.4807 28.1706 38.9738C28.4637 38.4589 28.8597 38.0667 29.3588 37.7974C29.8578 37.5202 30.4163 37.3815 31.0342 37.3815C31.6521 37.3815 32.2106 37.5202 32.7096 37.7974C33.2087 38.0667 33.6008 38.4549 33.886 38.9619C34.1791 39.4689 34.3256 40.059 34.3256 40.7324C34.3256 41.4057 34.1751 41.9998 33.8741 42.5147C33.581 43.0217 33.1809 43.4138 32.674 43.6911C32.167 43.9683 31.6046 44.1069 30.9867 44.1069ZM30.9867 43.1564C31.3748 43.1564 31.7392 43.0653 32.0798 42.8831C32.4205 42.7009 32.6938 42.4276 32.8997 42.0632C33.1136 41.6988 33.2206 41.2552 33.2206 40.7324C33.2206 40.2095 33.1176 39.7659 32.9116 39.4015C32.7057 39.0371 32.4363 38.7678 32.1036 38.5935C31.7709 38.4113 31.4105 38.3202 31.0223 38.3202C30.6262 38.3202 30.2618 38.4113 29.9291 38.5935C29.6044 38.7678 29.3429 39.0371 29.1449 39.4015C28.9469 39.7659 28.8478 40.2095 28.8478 40.7324C28.8478 41.2631 28.9429 41.7107 29.133 42.0751C29.3311 42.4395 29.5925 42.7127 29.9173 42.8949C30.242 43.0692 30.5985 43.1564 30.9867 43.1564ZM43.459 37.3696C43.9659 37.3696 44.4175 37.4766 44.8136 37.6905C45.2096 37.8964 45.5225 38.2093 45.7523 38.6292C45.982 39.049 46.0968 39.56 46.0968 40.162V44H45.0274V40.3165C45.0274 39.6669 44.865 39.1718 44.5403 38.8312C44.2234 38.4826 43.7917 38.3084 43.2451 38.3084C42.6827 38.3084 42.2351 38.4905 41.9024 38.8549C41.5697 39.2114 41.4033 39.7303 41.4033 40.4115V44H40.3339V40.3165C40.3339 39.6669 40.1715 39.1718 39.8467 38.8312C39.5299 38.4826 39.0981 38.3084 38.5516 38.3084C37.9891 38.3084 37.5416 38.4905 37.2088 38.8549C36.8761 39.2114 36.7098 39.7303 36.7098 40.4115V44H35.6285V37.4885H36.7098V38.4272C36.9237 38.0865 37.2088 37.8251 37.5653 37.6429C37.9297 37.4607 38.3298 37.3696 38.7654 37.3696C39.312 37.3696 39.7952 37.4924 40.2151 37.738C40.6349 37.9836 40.9478 38.344 41.1538 38.8193C41.336 38.3598 41.637 38.0034 42.0568 37.7499C42.4767 37.4964 42.9441 37.3696 43.459 37.3696ZM53.6929 40.4947C53.6929 40.7007 53.681 40.9185 53.6573 41.1482H48.4528C48.4924 41.7899 48.7103 42.2929 49.1063 42.6573C49.5103 43.0138 49.9975 43.192 50.5679 43.192C51.0352 43.192 51.4234 43.0851 51.7323 42.8712C52.0492 42.6494 52.271 42.3563 52.3977 41.9919H53.5622C53.3879 42.6177 53.0394 43.1286 52.5166 43.5247C51.9937 43.9129 51.3442 44.1069 50.5679 44.1069C49.95 44.1069 49.3955 43.9683 48.9043 43.6911C48.4211 43.4138 48.0409 43.0217 47.7636 42.5147C47.4864 41.9998 47.3477 41.4057 47.3477 40.7324C47.3477 40.059 47.4824 39.4689 47.7517 38.9619C48.0211 38.4549 48.3973 38.0667 48.8806 37.7974C49.3717 37.5202 49.9341 37.3815 50.5679 37.3815C51.1857 37.3815 51.7323 37.5162 52.2076 37.7855C52.6829 38.0549 53.0473 38.4272 53.3008 38.9025C53.5622 39.3698 53.6929 39.9006 53.6929 40.4947ZM52.576 40.2689C52.576 39.857 52.4849 39.5045 52.3027 39.2114C52.1205 38.9104 51.871 38.6846 51.5541 38.5341C51.2452 38.3757 50.9006 38.2965 50.5203 38.2965C49.9737 38.2965 49.5064 38.4707 49.1182 38.8193C48.738 39.1678 48.5201 39.6511 48.4647 40.2689H52.576ZM56.0827 38.546C56.2728 38.1737 56.5421 37.8845 56.8907 37.6786C57.2471 37.4726 57.6789 37.3696 58.1858 37.3696V38.4866H57.9007C56.6887 38.4866 56.0827 39.1441 56.0827 40.4591V44H55.0014V37.4885H56.0827V38.546ZM61.6204 44.1069C61.1213 44.1069 60.6738 44.0238 60.2777 43.8574C59.8816 43.6831 59.5687 43.4455 59.339 43.1445C59.1093 42.8355 58.9825 42.483 58.9588 42.0869H60.0757C60.1074 42.4117 60.2579 42.6771 60.5272 42.8831C60.8045 43.089 61.1649 43.192 61.6085 43.192C62.0204 43.192 62.3452 43.1009 62.5829 42.9187C62.8205 42.7365 62.9393 42.5068 62.9393 42.2295C62.9393 41.9444 62.8126 41.7344 62.5591 41.5998C62.3056 41.4572 61.9135 41.3185 61.3828 41.1839C60.8995 41.0571 60.5035 40.9304 60.1945 40.8036C59.8935 40.669 59.6321 40.4749 59.4103 40.2214C59.1964 39.96 59.0895 39.6194 59.0895 39.1995C59.0895 38.8668 59.1885 38.5618 59.3865 38.2846C59.5846 38.0073 59.8658 37.7895 60.2302 37.6311C60.5946 37.4647 61.0104 37.3815 61.4778 37.3815C62.1987 37.3815 62.7809 37.5637 63.2245 37.9281C63.6681 38.2925 63.9058 38.7916 63.9375 39.4253H62.8562C62.8324 39.0847 62.6938 38.8114 62.4403 38.6054C62.1947 38.3995 61.862 38.2965 61.4422 38.2965C61.054 38.2965 60.7451 38.3796 60.5153 38.546C60.2856 38.7124 60.1708 38.9302 60.1708 39.1995C60.1708 39.4134 60.2381 39.5916 60.3728 39.7342C60.5153 39.8689 60.6896 39.9798 60.8956 40.0669C61.1095 40.1462 61.4026 40.2373 61.7749 40.3402C62.2422 40.467 62.6225 40.5937 62.9156 40.7205C63.2087 40.8393 63.4582 41.0215 63.6642 41.2671C63.878 41.5126 63.989 41.8335 63.9969 42.2295C63.9969 42.586 63.8979 42.9068 63.6998 43.192C63.5018 43.4772 63.2206 43.7029 62.8562 43.8693C62.4997 44.0277 62.0878 44.1069 61.6204 44.1069Z" fill="black"/>
</svg>
