<svg width="48" height="12" viewBox="0 0 48 12" fill="none" xmlns="http://www.w3.org/2000/svg">
<path d="M4.172 11.098C3.528 11.098 2.94933 10.986 2.436 10.762C1.932 10.5287 1.53533 10.2113 1.246 9.81C0.956667 9.39933 0.807333 8.928 0.798 8.396H2.156C2.20267 8.85333 2.38933 9.24067 2.716 9.558C3.052 9.866 3.53733 10.02 4.172 10.02C4.77867 10.02 5.25467 9.87067 5.6 9.572C5.95467 9.264 6.132 8.872 6.132 8.396C6.132 8.02267 6.02933 7.71933 5.824 7.486C5.61867 7.25267 5.362 7.07533 5.054 6.954C4.746 6.83267 4.33067 6.702 3.808 6.562C3.164 6.394 2.646 6.226 2.254 6.058C1.87133 5.89 1.54 5.62867 1.26 5.274C0.989333 4.91 0.854 4.42467 0.854 3.818C0.854 3.286 0.989333 2.81467 1.26 2.404C1.53067 1.99333 1.90867 1.676 2.394 1.452C2.88867 1.228 3.45333 1.116 4.088 1.116C5.00267 1.116 5.74933 1.34467 6.328 1.802C6.916 2.25933 7.24733 2.866 7.322 3.622H5.922C5.87533 3.24867 5.67933 2.922 5.334 2.642C4.98867 2.35267 4.53133 2.208 3.962 2.208C3.43 2.208 2.996 2.348 2.66 2.628C2.324 2.89867 2.156 3.28133 2.156 3.776C2.156 4.13067 2.254 4.42 2.45 4.644C2.65533 4.868 2.90267 5.04067 3.192 5.162C3.49067 5.274 3.906 5.40467 4.438 5.554C5.082 5.73133 5.6 5.90867 5.992 6.086C6.384 6.254 6.72 6.52 7 6.884C7.28 7.23867 7.42 7.724 7.42 8.34C7.42 8.816 7.294 9.264 7.042 9.684C6.79 10.104 6.41667 10.4447 5.922 10.706C5.42733 10.9673 4.844 11.098 4.172 11.098ZM16.1548 6.87C16.1548 7.11267 16.1408 7.36933 16.1128 7.64H9.9808C10.0275 8.396 10.2841 8.98867 10.7508 9.418C11.2268 9.838 11.8008 10.048 12.4728 10.048C13.0235 10.048 13.4808 9.922 13.8448 9.67C14.2181 9.40867 14.4795 9.06333 14.6288 8.634H16.0008C15.7955 9.37133 15.3848 9.97333 14.7688 10.44C14.1528 10.8973 13.3875 11.126 12.4728 11.126C11.7448 11.126 11.0915 10.9627 10.5128 10.636C9.94346 10.3093 9.49546 9.84733 9.1688 9.25C8.84213 8.64333 8.6788 7.94333 8.6788 7.15C8.6788 6.35667 8.83746 5.66133 9.1548 5.064C9.47213 4.46667 9.91546 4.00933 10.4848 3.692C11.0635 3.36533 11.7261 3.202 12.4728 3.202C13.2008 3.202 13.8448 3.36067 14.4048 3.678C14.9648 3.99533 15.3941 4.434 15.6928 4.994C16.0008 5.54467 16.1548 6.17 16.1548 6.87ZM14.8388 6.604C14.8388 6.11867 14.7315 5.70333 14.5168 5.358C14.3021 5.00333 14.0081 4.73733 13.6348 4.56C13.2708 4.37333 12.8648 4.28 12.4168 4.28C11.7728 4.28 11.2221 4.48533 10.7648 4.896C10.3168 5.30667 10.0601 5.876 9.9948 6.604H14.8388ZM17.2204 7.136C17.2204 6.352 17.3791 5.666 17.6964 5.078C18.0138 4.48067 18.4478 4.01867 18.9984 3.692C19.5584 3.36533 20.1791 3.202 20.8604 3.202C21.5324 3.202 22.1158 3.34667 22.6104 3.636C23.1051 3.92533 23.4738 4.28933 23.7164 4.728V3.328H25.0044V11H23.7164V9.572C23.4644 10.02 23.0864 10.3933 22.5824 10.692C22.0878 10.9813 21.5091 11.126 20.8464 11.126C20.1651 11.126 19.5491 10.958 18.9984 10.622C18.4478 10.286 18.0138 9.81467 17.6964 9.208C17.3791 8.60133 17.2204 7.91067 17.2204 7.136ZM23.7164 7.15C23.7164 6.57133 23.5998 6.06733 23.3664 5.638C23.1331 5.20867 22.8158 4.882 22.4144 4.658C22.0224 4.42467 21.5884 4.308 21.1124 4.308C20.6364 4.308 20.2024 4.42 19.8104 4.644C19.4184 4.868 19.1058 5.19467 18.8724 5.624C18.6391 6.05333 18.5224 6.55733 18.5224 7.136C18.5224 7.724 18.6391 8.23733 18.8724 8.676C19.1058 9.10533 19.4184 9.43667 19.8104 9.67C20.2024 9.894 20.6364 10.006 21.1124 10.006C21.5884 10.006 22.0224 9.894 22.4144 9.67C22.8158 9.43667 23.1331 9.10533 23.3664 8.676C23.5998 8.23733 23.7164 7.72867 23.7164 7.15ZM28.2914 4.574C28.5154 4.13533 28.8327 3.79467 29.2434 3.552C29.6634 3.30933 30.172 3.188 30.7694 3.188V4.504H30.4334C29.0054 4.504 28.2914 5.27867 28.2914 6.828V11H27.0174V3.328H28.2914V4.574ZM31.624 7.15C31.624 6.35667 31.7827 5.666 32.1 5.078C32.4174 4.48067 32.856 4.01867 33.416 3.692C33.9854 3.36533 34.634 3.202 35.362 3.202C36.3047 3.202 37.0794 3.43067 37.686 3.888C38.302 4.34533 38.708 4.98 38.904 5.792H37.532C37.4014 5.32533 37.1447 4.95667 36.762 4.686C36.3887 4.41533 35.922 4.28 35.362 4.28C34.634 4.28 34.046 4.532 33.598 5.036C33.15 5.53067 32.926 6.23533 32.926 7.15C32.926 8.074 33.15 8.788 33.598 9.292C34.046 9.796 34.634 10.048 35.362 10.048C35.922 10.048 36.3887 9.91733 36.762 9.656C37.1354 9.39467 37.392 9.02133 37.532 8.536H38.904C38.6987 9.32 38.288 9.95 37.672 10.426C37.056 10.8927 36.286 11.126 35.362 11.126C34.634 11.126 33.9854 10.9627 33.416 10.636C32.856 10.3093 32.4174 9.84733 32.1 9.25C31.7827 8.65267 31.624 7.95267 31.624 7.15ZM44.2719 3.188C44.8506 3.188 45.3733 3.314 45.8399 3.566C46.3066 3.80867 46.6706 4.17733 46.9319 4.672C47.2026 5.16667 47.3379 5.76867 47.3379 6.478V11H46.0779V6.66C46.0779 5.89467 45.8866 5.31133 45.5039 4.91C45.1213 4.49933 44.5986 4.294 43.9359 4.294C43.2639 4.294 42.7273 4.504 42.3259 4.924C41.9339 5.344 41.7379 5.95533 41.7379 6.758V11H40.4639V0.64H41.7379V4.42C41.9899 4.028 42.3353 3.72467 42.7739 3.51C43.2219 3.29533 43.7213 3.188 44.2719 3.188Z" fill="#B5B7C0"/>
</svg>
