<svg width="336" height="148" viewBox="0 0 336 148" fill="none" xmlns="http://www.w3.org/2000/svg">
<g filter="url(#filter0_d_3_232)">
<rect x="60" y="40" width="216" height="38" rx="12" fill="white"/>
</g>
<path d="M104.172 65.098C103.528 65.098 102.949 64.986 102.436 64.762C101.932 64.5287 101.535 64.2113 101.246 63.81C100.957 63.3993 100.807 62.928 100.798 62.396H102.156C102.203 62.8533 102.389 63.2407 102.716 63.558C103.052 63.866 103.537 64.02 104.172 64.02C104.779 64.02 105.255 63.8707 105.6 63.572C105.955 63.264 106.132 62.872 106.132 62.396C106.132 62.0227 106.029 61.7193 105.824 61.486C105.619 61.2527 105.362 61.0753 105.054 60.954C104.746 60.8327 104.331 60.702 103.808 60.562C103.164 60.394 102.646 60.226 102.254 60.058C101.871 59.89 101.54 59.6287 101.26 59.274C100.989 58.91 100.854 58.4247 100.854 57.818C100.854 57.286 100.989 56.8147 101.26 56.404C101.531 55.9933 101.909 55.676 102.394 55.452C102.889 55.228 103.453 55.116 104.088 55.116C105.003 55.116 105.749 55.3447 106.328 55.802C106.916 56.2593 107.247 56.866 107.322 57.622H105.922C105.875 57.2487 105.679 56.922 105.334 56.642C104.989 56.3527 104.531 56.208 103.962 56.208C103.43 56.208 102.996 56.348 102.66 56.628C102.324 56.8987 102.156 57.2813 102.156 57.776C102.156 58.1307 102.254 58.42 102.45 58.644C102.655 58.868 102.903 59.0407 103.192 59.162C103.491 59.274 103.906 59.4047 104.438 59.554C105.082 59.7313 105.6 59.9087 105.992 60.086C106.384 60.254 106.72 60.52 107 60.884C107.28 61.2387 107.42 61.724 107.42 62.34C107.42 62.816 107.294 63.264 107.042 63.684C106.79 64.104 106.417 64.4447 105.922 64.706C105.427 64.9673 104.844 65.098 104.172 65.098ZM116.155 60.87C116.155 61.1127 116.141 61.3693 116.113 61.64H109.981C110.027 62.396 110.284 62.9887 110.751 63.418C111.227 63.838 111.801 64.048 112.473 64.048C113.023 64.048 113.481 63.922 113.845 63.67C114.218 63.4087 114.479 63.0633 114.629 62.634H116.001C115.795 63.3713 115.385 63.9733 114.769 64.44C114.153 64.8973 113.387 65.126 112.473 65.126C111.745 65.126 111.091 64.9627 110.513 64.636C109.943 64.3093 109.495 63.8473 109.169 63.25C108.842 62.6433 108.679 61.9433 108.679 61.15C108.679 60.3567 108.837 59.6613 109.155 59.064C109.472 58.4667 109.915 58.0093 110.485 57.692C111.063 57.3653 111.726 57.202 112.473 57.202C113.201 57.202 113.845 57.3607 114.405 57.678C114.965 57.9953 115.394 58.434 115.693 58.994C116.001 59.5447 116.155 60.17 116.155 60.87ZM114.839 60.604C114.839 60.1187 114.731 59.7033 114.517 59.358C114.302 59.0033 114.008 58.7373 113.635 58.56C113.271 58.3733 112.865 58.28 112.417 58.28C111.773 58.28 111.222 58.4853 110.765 58.896C110.317 59.3067 110.06 59.876 109.995 60.604H114.839ZM117.22 61.136C117.22 60.352 117.379 59.666 117.696 59.078C118.014 58.4807 118.448 58.0187 118.998 57.692C119.558 57.3653 120.179 57.202 120.86 57.202C121.532 57.202 122.116 57.3467 122.61 57.636C123.105 57.9253 123.474 58.2893 123.716 58.728V57.328H125.004V65H123.716V63.572C123.464 64.02 123.086 64.3933 122.582 64.692C122.088 64.9813 121.509 65.126 120.846 65.126C120.165 65.126 119.549 64.958 118.998 64.622C118.448 64.286 118.014 63.8147 117.696 63.208C117.379 62.6013 117.22 61.9107 117.22 61.136ZM123.716 61.15C123.716 60.5713 123.6 60.0673 123.366 59.638C123.133 59.2087 122.816 58.882 122.414 58.658C122.022 58.4247 121.588 58.308 121.112 58.308C120.636 58.308 120.202 58.42 119.81 58.644C119.418 58.868 119.106 59.1947 118.872 59.624C118.639 60.0533 118.522 60.5573 118.522 61.136C118.522 61.724 118.639 62.2373 118.872 62.676C119.106 63.1053 119.418 63.4367 119.81 63.67C120.202 63.894 120.636 64.006 121.112 64.006C121.588 64.006 122.022 63.894 122.414 63.67C122.816 63.4367 123.133 63.1053 123.366 62.676C123.6 62.2373 123.716 61.7287 123.716 61.15ZM128.291 58.574C128.515 58.1353 128.833 57.7947 129.243 57.552C129.663 57.3093 130.172 57.188 130.769 57.188V58.504H130.433C129.005 58.504 128.291 59.2787 128.291 60.828V65H127.017V57.328H128.291V58.574ZM131.624 61.15C131.624 60.3567 131.783 59.666 132.1 59.078C132.417 58.4807 132.856 58.0187 133.416 57.692C133.985 57.3653 134.634 57.202 135.362 57.202C136.305 57.202 137.079 57.4307 137.686 57.888C138.302 58.3453 138.708 58.98 138.904 59.792H137.532C137.401 59.3253 137.145 58.9567 136.762 58.686C136.389 58.4153 135.922 58.28 135.362 58.28C134.634 58.28 134.046 58.532 133.598 59.036C133.15 59.5307 132.926 60.2353 132.926 61.15C132.926 62.074 133.15 62.788 133.598 63.292C134.046 63.796 134.634 64.048 135.362 64.048C135.922 64.048 136.389 63.9173 136.762 63.656C137.135 63.3947 137.392 63.0213 137.532 62.536H138.904C138.699 63.32 138.288 63.95 137.672 64.426C137.056 64.8927 136.286 65.126 135.362 65.126C134.634 65.126 133.985 64.9627 133.416 64.636C132.856 64.3093 132.417 63.8473 132.1 63.25C131.783 62.6527 131.624 61.9527 131.624 61.15ZM144.272 57.188C144.851 57.188 145.373 57.314 145.84 57.566C146.307 57.8087 146.671 58.1773 146.932 58.672C147.203 59.1667 147.338 59.7687 147.338 60.478V65H146.078V60.66C146.078 59.8947 145.887 59.3113 145.504 58.91C145.121 58.4993 144.599 58.294 143.936 58.294C143.264 58.294 142.727 58.504 142.326 58.924C141.934 59.344 141.738 59.9553 141.738 60.758V65H140.464V54.64H141.738V58.42C141.99 58.028 142.335 57.7247 142.774 57.51C143.222 57.2953 143.721 57.188 144.272 57.188Z" fill="#B5B7C0"/>
<path d="M79 66C83.4183 66 87 62.4183 87 58C87 53.5817 83.4183 50 79 50C74.5817 50 71 53.5817 71 58C71 62.4183 74.5817 66 79 66Z" stroke="#7E7E7E" stroke-width="2" stroke-linecap="round" stroke-linejoin="round"/>
<path d="M89 68L84.65 63.65" stroke="#7E7E7E" stroke-width="2" stroke-linecap="round" stroke-linejoin="round"/>
<defs>
<filter id="filter0_d_3_232" x="0" y="-10" width="336" height="158" filterUnits="userSpaceOnUse" color-interpolation-filters="sRGB">
<feFlood flood-opacity="0" result="BackgroundImageFix"/>
<feColorMatrix in="SourceAlpha" type="matrix" values="0 0 0 0 0 0 0 0 0 0 0 0 0 0 0 0 0 0 127 0" result="hardAlpha"/>
<feOffset dy="10"/>
<feGaussianBlur stdDeviation="30"/>
<feComposite in2="hardAlpha" operator="out"/>
<feColorMatrix type="matrix" values="0 0 0 0 0.885625 0 0 0 0 0.92625 0 0 0 0 0.975 0 0 0 0.5 0"/>
<feBlend mode="normal" in2="BackgroundImageFix" result="effect1_dropShadow_3_232"/>
<feBlend mode="normal" in="SourceGraphic" in2="effect1_dropShadow_3_232" result="shape"/>
</filter>
</defs>
</svg>

