<svg width="1088" height="271" viewBox="0 0 1088 271" fill="none" xmlns="http://www.w3.org/2000/svg">
<g filter="url(#filter0_d_0_4)">
<path d="M60 80C60 63.4315 73.4315 50 90 50H998C1014.57 50 1028 63.4315 1028 80V171C1028 187.569 1014.57 201 998 201H90C73.4315 201 60 187.569 60 171V80Z" fill="white"/>
</g>
<path d="M229.352 88.278V91.54H232.908V92.59H229.352V95.95H233.328V97H228.078V87.228H233.328V88.278H229.352ZM234.64 93.136C234.64 92.352 234.798 91.666 235.116 91.078C235.433 90.4807 235.867 90.0187 236.418 89.692C236.978 89.3653 237.598 89.202 238.28 89.202C238.952 89.202 239.535 89.3467 240.03 89.636C240.524 89.9253 240.893 90.2893 241.136 90.728V89.328H242.424V97H241.136V95.572C240.884 96.02 240.506 96.3933 240.002 96.692C239.507 96.9813 238.928 97.126 238.266 97.126C237.584 97.126 236.968 96.958 236.418 96.622C235.867 96.286 235.433 95.8147 235.116 95.208C234.798 94.6013 234.64 93.9107 234.64 93.136ZM241.136 93.15C241.136 92.5713 241.019 92.0673 240.786 91.638C240.552 91.2087 240.235 90.882 239.834 90.658C239.442 90.4247 239.008 90.308 238.532 90.308C238.056 90.308 237.622 90.42 237.23 90.644C236.838 90.868 236.525 91.1947 236.292 91.624C236.058 92.0533 235.942 92.5573 235.942 93.136C235.942 93.724 236.058 94.2373 236.292 94.676C236.525 95.1053 236.838 95.4367 237.23 95.67C237.622 95.894 238.056 96.006 238.532 96.006C239.008 96.006 239.442 95.894 239.834 95.67C240.235 95.4367 240.552 95.1053 240.786 94.676C241.019 94.2373 241.136 93.7287 241.136 93.15ZM245.711 90.574C245.935 90.1353 246.252 89.7947 246.663 89.552C247.083 89.3093 247.591 89.188 248.189 89.188V90.504H247.853C246.425 90.504 245.711 91.2787 245.711 92.828V97H244.437V89.328H245.711V90.574ZM253.257 89.188C254.191 89.188 254.947 89.4727 255.525 90.042C256.104 90.602 256.393 91.414 256.393 92.478V97H255.133V92.66C255.133 91.8947 254.942 91.3113 254.559 90.91C254.177 90.4993 253.654 90.294 252.991 90.294C252.319 90.294 251.783 90.504 251.381 90.924C250.989 91.344 250.793 91.9553 250.793 92.758V97H249.519V89.328H250.793V90.42C251.045 90.028 251.386 89.7247 251.815 89.51C252.254 89.2953 252.735 89.188 253.257 89.188ZM258.992 88.082C258.75 88.082 258.544 87.998 258.376 87.83C258.208 87.662 258.124 87.4567 258.124 87.214C258.124 86.9713 258.208 86.766 258.376 86.598C258.544 86.43 258.75 86.346 258.992 86.346C259.226 86.346 259.422 86.43 259.58 86.598C259.748 86.766 259.832 86.9713 259.832 87.214C259.832 87.4567 259.748 87.662 259.58 87.83C259.422 87.998 259.226 88.082 258.992 88.082ZM259.608 89.328V97H258.334V89.328H259.608ZM265.378 89.188C266.311 89.188 267.067 89.4727 267.646 90.042C268.224 90.602 268.514 91.414 268.514 92.478V97H267.254V92.66C267.254 91.8947 267.062 91.3113 266.68 90.91C266.297 90.4993 265.774 90.294 265.112 90.294C264.44 90.294 263.903 90.504 263.502 90.924C263.11 91.344 262.914 91.9553 262.914 92.758V97H261.64V89.328H262.914V90.42C263.166 90.028 263.506 89.7247 263.936 89.51C264.374 89.2953 264.855 89.188 265.378 89.188ZM273.619 89.202C274.281 89.202 274.86 89.3467 275.355 89.636C275.859 89.9253 276.232 90.2893 276.475 90.728V89.328H277.763V97.168C277.763 97.868 277.613 98.4887 277.315 99.03C277.016 99.5807 276.587 100.01 276.027 100.318C275.476 100.626 274.832 100.78 274.095 100.78C273.087 100.78 272.247 100.542 271.575 100.066C270.903 99.59 270.506 98.9413 270.385 98.12H271.645C271.785 98.5867 272.074 98.96 272.513 99.24C272.951 99.5293 273.479 99.674 274.095 99.674C274.795 99.674 275.364 99.4547 275.803 99.016C276.251 98.5773 276.475 97.9613 276.475 97.168V95.558C276.223 96.006 275.849 96.3793 275.355 96.678C274.86 96.9767 274.281 97.126 273.619 97.126C272.937 97.126 272.317 96.958 271.757 96.622C271.206 96.286 270.772 95.8147 270.455 95.208C270.137 94.6013 269.979 93.9107 269.979 93.136C269.979 92.352 270.137 91.666 270.455 91.078C270.772 90.4807 271.206 90.0187 271.757 89.692C272.317 89.3653 272.937 89.202 273.619 89.202ZM276.475 93.15C276.475 92.5713 276.358 92.0673 276.125 91.638C275.891 91.2087 275.574 90.882 275.173 90.658C274.781 90.4247 274.347 90.308 273.871 90.308C273.395 90.308 272.961 90.42 272.569 90.644C272.177 90.868 271.864 91.1947 271.631 91.624C271.397 92.0533 271.281 92.5573 271.281 93.136C271.281 93.724 271.397 94.2373 271.631 94.676C271.864 95.1053 272.177 95.4367 272.569 95.67C272.961 95.894 273.395 96.006 273.871 96.006C274.347 96.006 274.781 95.894 275.173 95.67C275.574 95.4367 275.891 95.1053 276.125 94.676C276.358 94.2373 276.475 93.7287 276.475 93.15Z" fill="#ACACAC"/>
<path d="M245.144 127.568C245.144 128.677 244.856 129.723 244.28 130.704C243.725 131.664 242.893 132.464 241.784 133.104C240.696 133.723 239.405 134.085 237.912 134.192V136.784H235.864V134.16C233.731 133.968 232.013 133.328 230.712 132.24C229.411 131.131 228.739 129.637 228.696 127.76H233.496C233.624 129.296 234.413 130.224 235.864 130.544V124.432C234.328 124.048 233.091 123.664 232.152 123.28C231.213 122.896 230.403 122.277 229.72 121.424C229.037 120.571 228.696 119.408 228.696 117.936C228.696 116.08 229.357 114.565 230.68 113.392C232.024 112.219 233.752 111.547 235.864 111.376V108.784H237.912V111.376C239.96 111.547 241.592 112.165 242.808 113.232C244.045 114.299 244.739 115.771 244.888 117.648H240.056C239.992 117.029 239.768 116.496 239.384 116.048C239.021 115.579 238.531 115.248 237.912 115.056V121.104C239.512 121.509 240.771 121.904 241.688 122.288C242.627 122.651 243.437 123.259 244.12 124.112C244.803 124.944 245.144 126.096 245.144 127.568ZM233.368 117.712C233.368 118.416 233.581 118.992 234.008 119.44C234.435 119.867 235.053 120.219 235.864 120.496V114.96C235.096 115.067 234.488 115.355 234.04 115.824C233.592 116.293 233.368 116.923 233.368 117.712ZM237.912 130.608C238.723 130.459 239.352 130.128 239.8 129.616C240.269 129.104 240.504 128.485 240.504 127.76C240.504 127.056 240.28 126.491 239.832 126.064C239.384 125.637 238.744 125.285 237.912 125.008V130.608ZM248.77 114.8V110.672H256.482V134H251.874V114.8H248.77ZM265.771 127.44C265.942 128.379 266.326 129.104 266.923 129.616C267.542 130.107 268.363 130.352 269.387 130.352C270.71 130.352 271.67 129.808 272.267 128.72C272.865 127.611 273.163 125.755 273.163 123.152C272.673 123.835 271.979 124.368 271.083 124.752C270.209 125.136 269.259 125.328 268.235 125.328C266.87 125.328 265.633 125.051 264.523 124.496C263.435 123.92 262.571 123.077 261.931 121.968C261.291 120.837 260.971 119.472 260.971 117.872C260.971 115.504 261.675 113.627 263.083 112.24C264.491 110.832 266.411 110.128 268.843 110.128C271.873 110.128 274.006 111.099 275.243 113.04C276.502 114.981 277.131 117.904 277.131 121.808C277.131 124.581 276.886 126.853 276.395 128.624C275.926 130.395 275.105 131.739 273.931 132.656C272.779 133.573 271.201 134.032 269.195 134.032C267.617 134.032 266.273 133.733 265.163 133.136C264.054 132.517 263.201 131.717 262.603 130.736C262.027 129.733 261.697 128.635 261.611 127.44H265.771ZM269.163 121.68C270.273 121.68 271.147 121.339 271.787 120.656C272.427 119.973 272.747 119.056 272.747 117.904C272.747 116.645 272.406 115.675 271.723 114.992C271.062 114.288 270.155 113.936 269.003 113.936C267.851 113.936 266.934 114.299 266.251 115.024C265.59 115.728 265.259 116.667 265.259 117.84C265.259 118.971 265.579 119.899 266.219 120.624C266.881 121.328 267.862 121.68 269.163 121.68ZM284.203 121.648C282.069 120.539 281.003 118.821 281.003 116.496C281.003 115.344 281.291 114.299 281.867 113.36C282.464 112.4 283.349 111.643 284.523 111.088C285.717 110.512 287.168 110.224 288.875 110.224C290.581 110.224 292.021 110.512 293.195 111.088C294.389 111.643 295.275 112.4 295.851 113.36C296.448 114.299 296.747 115.344 296.747 116.496C296.747 117.669 296.459 118.704 295.883 119.6C295.307 120.475 294.539 121.157 293.579 121.648C294.752 122.16 295.669 122.907 296.331 123.888C296.992 124.869 297.323 126.032 297.323 127.376C297.323 128.827 296.949 130.096 296.203 131.184C295.477 132.251 294.475 133.072 293.195 133.648C291.915 134.224 290.475 134.512 288.875 134.512C287.275 134.512 285.835 134.224 284.555 133.648C283.296 133.072 282.293 132.251 281.547 131.184C280.821 130.096 280.459 128.827 280.459 127.376C280.459 126.032 280.789 124.869 281.451 123.888C282.112 122.885 283.029 122.139 284.203 121.648ZM292.395 117.136C292.395 116.091 292.075 115.28 291.435 114.704C290.816 114.128 289.963 113.84 288.875 113.84C287.808 113.84 286.955 114.128 286.315 114.704C285.696 115.28 285.387 116.101 285.387 117.168C285.387 118.128 285.707 118.896 286.347 119.472C287.008 120.048 287.851 120.336 288.875 120.336C289.899 120.336 290.741 120.048 291.403 119.472C292.064 118.875 292.395 118.096 292.395 117.136ZM288.875 123.6C287.659 123.6 286.667 123.909 285.899 124.528C285.152 125.147 284.779 126.032 284.779 127.184C284.779 128.251 285.141 129.125 285.867 129.808C286.613 130.469 287.616 130.8 288.875 130.8C290.133 130.8 291.125 130.459 291.851 129.776C292.576 129.093 292.939 128.229 292.939 127.184C292.939 126.053 292.565 125.179 291.819 124.56C291.072 123.92 290.091 123.6 288.875 123.6ZM311.549 134L305.533 126.448V134H301.053V110.32H305.533V123.792L311.485 116.272H317.309L309.501 125.168L317.373 134H311.549Z" fill="#333333"/>
<circle cx="165" cy="124" r="42" fill="url(#paint0_linear_0_4)"/>
<path d="M166.837 132.838H163.547C161.22 132.838 159.312 130.878 159.312 128.463C159.312 127.745 159.907 127.15 160.625 127.15C161.342 127.15 161.937 127.745 161.937 128.463C161.937 129.425 162.655 130.213 163.547 130.213H166.837C167.52 130.213 168.062 129.6 168.062 128.848C168.062 127.903 167.8 127.763 167.205 127.553L161.937 125.715C160.817 125.33 159.312 124.508 159.312 121.935C159.312 119.748 161.045 117.945 163.162 117.945H166.452C168.78 117.945 170.687 119.905 170.687 122.32C170.687 123.038 170.092 123.633 169.375 123.633C168.657 123.633 168.062 123.038 168.062 122.32C168.062 121.358 167.345 120.57 166.452 120.57H163.162C162.48 120.57 161.937 121.183 161.937 121.935C161.937 122.88 162.2 123.02 162.795 123.23L168.062 125.068C169.182 125.453 170.687 126.275 170.687 128.848C170.687 131.053 168.955 132.838 166.837 132.838Z" fill="#00AC4F"/>
<path d="M165 134.587C164.283 134.587 163.688 133.992 163.688 133.275V117.525C163.688 116.807 164.283 116.212 165 116.212C165.717 116.212 166.312 116.807 166.312 117.525V133.275C166.312 133.992 165.717 134.587 165 134.587Z" fill="#00AC4F"/>
<path d="M165 144.212C154.622 144.212 146.188 135.777 146.188 125.4C146.188 115.022 154.622 106.587 165 106.587C165.717 106.587 166.312 107.182 166.312 107.9C166.312 108.617 165.717 109.212 165 109.212C156.075 109.212 148.812 116.475 148.812 125.4C148.812 134.325 156.075 141.587 165 141.587C173.925 141.587 181.187 134.325 181.187 125.4C181.187 124.682 181.782 124.087 182.5 124.087C183.217 124.087 183.812 124.682 183.812 125.4C183.812 135.777 175.377 144.212 165 144.212Z" fill="#00AC4F"/>
<path d="M180.75 117.962H173.75C173.033 117.962 172.438 117.367 172.438 116.65V109.65C172.438 108.932 173.033 108.337 173.75 108.337C174.468 108.337 175.063 108.932 175.063 109.65V115.337H180.75C181.468 115.337 182.063 115.932 182.063 116.65C182.063 117.367 181.468 117.962 180.75 117.962Z" fill="#00AC4F"/>
<path d="M173.749 117.963C173.417 117.963 173.084 117.841 172.822 117.578C172.314 117.071 172.314 116.231 172.822 115.723L181.572 106.973C182.079 106.466 182.919 106.466 183.427 106.973C183.934 107.481 183.934 108.321 183.427 108.828L174.677 117.578C174.414 117.841 174.082 117.963 173.749 117.963Z" fill="#00AC4F"/>
<path d="M250.612 153.712C250.644 152.856 250.924 152.196 251.452 151.732C251.98 151.268 252.696 151.036 253.6 151.036C254.2 151.036 254.712 151.14 255.136 151.348C255.568 151.556 255.892 151.84 256.108 152.2C256.332 152.56 256.444 152.964 256.444 153.412C256.444 153.94 256.312 154.372 256.048 154.708C255.784 155.036 255.476 155.26 255.124 155.38V155.428C255.58 155.58 255.94 155.832 256.204 156.184C256.468 156.536 256.6 156.988 256.6 157.54C256.6 158.036 256.484 158.476 256.252 158.86C256.028 159.236 255.696 159.532 255.256 159.748C254.824 159.964 254.308 160.072 253.708 160.072C252.748 160.072 251.98 159.836 251.404 159.364C250.836 158.892 250.536 158.18 250.504 157.228H252.496C252.504 157.58 252.604 157.86 252.796 158.068C252.988 158.268 253.268 158.368 253.636 158.368C253.948 158.368 254.188 158.28 254.356 158.104C254.532 157.92 254.62 157.68 254.62 157.384C254.62 157 254.496 156.724 254.248 156.556C254.008 156.38 253.62 156.292 253.084 156.292H252.7V154.624H253.084C253.492 154.624 253.82 154.556 254.068 154.42C254.324 154.276 254.452 154.024 254.452 153.664C254.452 153.376 254.372 153.152 254.212 152.992C254.052 152.832 253.832 152.752 253.552 152.752C253.248 152.752 253.02 152.844 252.868 153.028C252.724 153.212 252.64 153.44 252.616 153.712H250.612ZM263.278 152.776L260.266 160H258.166L261.214 153.004H257.482V151.252H263.278V152.776ZM265.152 160.096C264.792 160.096 264.496 159.992 264.264 159.784C264.04 159.568 263.928 159.304 263.928 158.992C263.928 158.672 264.04 158.404 264.264 158.188C264.496 157.972 264.792 157.864 265.152 157.864C265.504 157.864 265.792 157.972 266.016 158.188C266.248 158.404 266.364 158.672 266.364 158.992C266.364 159.304 266.248 159.568 266.016 159.784C265.792 159.992 265.504 160.096 265.152 160.096ZM268.694 155.296C267.942 154.896 267.566 154.268 267.566 153.412C267.566 152.98 267.678 152.588 267.902 152.236C268.126 151.876 268.466 151.592 268.922 151.384C269.378 151.168 269.938 151.06 270.602 151.06C271.266 151.06 271.822 151.168 272.27 151.384C272.726 151.592 273.066 151.876 273.29 152.236C273.514 152.588 273.626 152.98 273.626 153.412C273.626 153.844 273.522 154.22 273.314 154.54C273.114 154.86 272.842 155.112 272.498 155.296C272.93 155.504 273.262 155.792 273.494 156.16C273.726 156.52 273.842 156.944 273.842 157.432C273.842 158 273.698 158.492 273.41 158.908C273.122 159.316 272.73 159.628 272.234 159.844C271.746 160.06 271.202 160.168 270.602 160.168C270.002 160.168 269.454 160.06 268.958 159.844C268.47 159.628 268.082 159.316 267.794 158.908C267.506 158.492 267.362 158 267.362 157.432C267.362 156.936 267.478 156.508 267.71 156.148C267.942 155.78 268.27 155.496 268.694 155.296ZM271.634 153.724C271.634 153.396 271.538 153.144 271.346 152.968C271.162 152.784 270.914 152.692 270.602 152.692C270.29 152.692 270.038 152.784 269.846 152.968C269.662 153.152 269.57 153.408 269.57 153.736C269.57 154.048 269.666 154.296 269.858 154.48C270.05 154.656 270.298 154.744 270.602 154.744C270.906 154.744 271.154 154.652 271.346 154.468C271.538 154.284 271.634 154.036 271.634 153.724ZM270.602 156.184C270.226 156.184 269.922 156.288 269.69 156.496C269.458 156.696 269.342 156.976 269.342 157.336C269.342 157.672 269.454 157.948 269.678 158.164C269.91 158.38 270.218 158.488 270.602 158.488C270.986 158.488 271.286 158.38 271.502 158.164C271.726 157.948 271.838 157.672 271.838 157.336C271.838 156.984 271.722 156.704 271.49 156.496C271.266 156.288 270.97 156.184 270.602 156.184ZM274.747 153.448C274.747 152.8 274.931 152.3 275.299 151.948C275.675 151.596 276.159 151.42 276.751 151.42C277.343 151.42 277.823 151.596 278.191 151.948C278.559 152.3 278.743 152.8 278.743 153.448C278.743 154.096 278.559 154.596 278.191 154.948C277.823 155.3 277.343 155.476 276.751 155.476C276.159 155.476 275.675 155.3 275.299 154.948C274.931 154.596 274.747 154.096 274.747 153.448ZM282.895 151.552L278.275 160H276.295L280.915 151.552H282.895ZM276.739 152.62C276.355 152.62 276.163 152.896 276.163 153.448C276.163 153.992 276.355 154.264 276.739 154.264C276.923 154.264 277.067 154.196 277.171 154.06C277.275 153.924 277.327 153.72 277.327 153.448C277.327 152.896 277.131 152.62 276.739 152.62ZM280.459 158.104C280.459 157.456 280.643 156.956 281.011 156.604C281.379 156.252 281.859 156.076 282.451 156.076C283.043 156.076 283.523 156.252 283.891 156.604C284.259 156.956 284.443 157.456 284.443 158.104C284.443 158.752 284.259 159.252 283.891 159.604C283.523 159.956 283.043 160.132 282.451 160.132C281.859 160.132 281.379 159.956 281.011 159.604C280.643 159.252 280.459 158.752 280.459 158.104ZM282.439 157.276C282.255 157.276 282.111 157.344 282.007 157.48C281.911 157.616 281.863 157.824 281.863 158.104C281.863 158.648 282.055 158.92 282.439 158.92C282.623 158.92 282.767 158.852 282.871 158.716C282.975 158.58 283.027 158.376 283.027 158.104C283.027 157.832 282.975 157.628 282.871 157.492C282.767 157.348 282.623 157.276 282.439 157.276Z" fill="#00AC4F"/>
<path d="M290.032 154.324V158.2C290.032 158.52 290.1 158.748 290.236 158.884C290.372 159.012 290.608 159.076 290.944 159.076H291.748V160H290.764C290.156 160 289.7 159.86 289.396 159.58C289.092 159.3 288.94 158.84 288.94 158.2V154.324H288.088V153.424H288.94V151.768H290.032V153.424H291.748V154.324H290.032ZM296.215 153.304C296.711 153.304 297.159 153.412 297.559 153.628C297.959 153.836 298.271 154.152 298.495 154.576C298.727 155 298.843 155.516 298.843 156.124V160H297.763V156.28C297.763 155.624 297.599 155.124 297.271 154.78C296.943 154.428 296.495 154.252 295.927 154.252C295.351 154.252 294.891 154.432 294.547 154.792C294.211 155.152 294.043 155.676 294.043 156.364V160H292.951V151.12H294.043V154.36C294.259 154.024 294.555 153.764 294.931 153.58C295.315 153.396 295.743 153.304 296.215 153.304ZM301.071 152.356C300.863 152.356 300.687 152.284 300.543 152.14C300.399 151.996 300.327 151.82 300.327 151.612C300.327 151.404 300.399 151.228 300.543 151.084C300.687 150.94 300.863 150.868 301.071 150.868C301.271 150.868 301.439 150.94 301.575 151.084C301.719 151.228 301.791 151.404 301.791 151.612C301.791 151.82 301.719 151.996 301.575 152.14C301.439 152.284 301.271 152.356 301.071 152.356ZM301.599 153.424V160H300.507V153.424H301.599ZM305.668 160.108C305.164 160.108 304.712 160.024 304.312 159.856C303.912 159.68 303.596 159.44 303.364 159.136C303.132 158.824 303.004 158.468 302.98 158.068H304.108C304.14 158.396 304.292 158.664 304.564 158.872C304.844 159.08 305.208 159.184 305.656 159.184C306.072 159.184 306.4 159.092 306.64 158.908C306.88 158.724 307 158.492 307 158.212C307 157.924 306.872 157.712 306.616 157.576C306.36 157.432 305.964 157.292 305.428 157.156C304.94 157.028 304.54 156.9 304.228 156.772C303.924 156.636 303.66 156.44 303.436 156.184C303.22 155.92 303.112 155.576 303.112 155.152C303.112 154.816 303.212 154.508 303.412 154.228C303.612 153.948 303.896 153.728 304.264 153.568C304.632 153.4 305.052 153.316 305.524 153.316C306.252 153.316 306.84 153.5 307.288 153.868C307.736 154.236 307.976 154.74 308.008 155.38H306.916C306.892 155.036 306.752 154.76 306.496 154.552C306.248 154.344 305.912 154.24 305.488 154.24C305.096 154.24 304.784 154.324 304.552 154.492C304.32 154.66 304.204 154.88 304.204 155.152C304.204 155.368 304.272 155.548 304.408 155.692C304.552 155.828 304.728 155.94 304.936 156.028C305.152 156.108 305.448 156.2 305.824 156.304C306.296 156.432 306.68 156.56 306.976 156.688C307.272 156.808 307.524 156.992 307.732 157.24C307.948 157.488 308.06 157.812 308.068 158.212C308.068 158.572 307.968 158.896 307.768 159.184C307.568 159.472 307.284 159.7 306.916 159.868C306.556 160.028 306.14 160.108 305.668 160.108ZM320.477 153.304C320.989 153.304 321.445 153.412 321.845 153.628C322.245 153.836 322.561 154.152 322.793 154.576C323.025 155 323.141 155.516 323.141 156.124V160H322.061V156.28C322.061 155.624 321.897 155.124 321.569 154.78C321.249 154.428 320.813 154.252 320.261 154.252C319.693 154.252 319.241 154.436 318.905 154.804C318.569 155.164 318.401 155.688 318.401 156.376V160H317.321V156.28C317.321 155.624 317.157 155.124 316.829 154.78C316.509 154.428 316.073 154.252 315.521 154.252C314.953 154.252 314.501 154.436 314.165 154.804C313.829 155.164 313.661 155.688 313.661 156.376V160H312.569V153.424H313.661V154.372C313.877 154.028 314.165 153.764 314.525 153.58C314.893 153.396 315.297 153.304 315.737 153.304C316.289 153.304 316.777 153.428 317.201 153.676C317.625 153.924 317.941 154.288 318.149 154.768C318.333 154.304 318.637 153.944 319.061 153.688C319.485 153.432 319.957 153.304 320.477 153.304ZM327.68 160.108C327.064 160.108 326.504 159.968 326 159.688C325.504 159.408 325.112 159.012 324.824 158.5C324.544 157.98 324.404 157.38 324.404 156.7C324.404 156.028 324.548 155.436 324.836 154.924C325.132 154.404 325.532 154.008 326.036 153.736C326.54 153.456 327.104 153.316 327.728 153.316C328.352 153.316 328.916 153.456 329.42 153.736C329.924 154.008 330.32 154.4 330.608 154.912C330.904 155.424 331.052 156.02 331.052 156.7C331.052 157.38 330.9 157.98 330.596 158.5C330.3 159.012 329.896 159.408 329.384 159.688C328.872 159.968 328.304 160.108 327.68 160.108ZM327.68 159.148C328.072 159.148 328.44 159.056 328.784 158.872C329.128 158.688 329.404 158.412 329.612 158.044C329.828 157.676 329.936 157.228 329.936 156.7C329.936 156.172 329.832 155.724 329.624 155.356C329.416 154.988 329.144 154.716 328.808 154.54C328.472 154.356 328.108 154.264 327.716 154.264C327.316 154.264 326.948 154.356 326.612 154.54C326.284 154.716 326.02 154.988 325.82 155.356C325.62 155.724 325.52 156.172 325.52 156.7C325.52 157.236 325.616 157.688 325.808 158.056C326.008 158.424 326.272 158.7 326.6 158.884C326.928 159.06 327.288 159.148 327.68 159.148ZM335.572 153.304C336.372 153.304 337.02 153.548 337.516 154.036C338.012 154.516 338.26 155.212 338.26 156.124V160H337.18V156.28C337.18 155.624 337.016 155.124 336.688 154.78C336.36 154.428 335.912 154.252 335.344 154.252C334.768 154.252 334.308 154.432 333.964 154.792C333.628 155.152 333.46 155.676 333.46 156.364V160H332.368V153.424H333.46V154.36C333.676 154.024 333.968 153.764 334.336 153.58C334.712 153.396 335.124 153.304 335.572 153.304ZM341.256 154.324V158.2C341.256 158.52 341.324 158.748 341.46 158.884C341.596 159.012 341.832 159.076 342.168 159.076H342.972V160H341.988C341.38 160 340.924 159.86 340.62 159.58C340.316 159.3 340.164 158.84 340.164 158.2V154.324H339.312V153.424H340.164V151.768H341.256V153.424H342.972V154.324H341.256ZM347.439 153.304C347.935 153.304 348.383 153.412 348.783 153.628C349.183 153.836 349.495 154.152 349.719 154.576C349.951 155 350.067 155.516 350.067 156.124V160H348.987V156.28C348.987 155.624 348.823 155.124 348.495 154.78C348.167 154.428 347.719 154.252 347.151 154.252C346.575 154.252 346.115 154.432 345.771 154.792C345.435 155.152 345.267 155.676 345.267 156.364V160H344.175V151.12H345.267V154.36C345.483 154.024 345.779 153.764 346.155 153.58C346.539 153.396 346.967 153.304 347.439 153.304Z" fill="#292D32"/>
<path d="M237 162L237 150" stroke="#00AC4F" stroke-width="2" stroke-linecap="round" stroke-linejoin="round"/>
<path d="M231.167 155L237 149.167L242.833 155" stroke="#00AC4F" stroke-width="2" stroke-linecap="round" stroke-linejoin="round"/>
<path d="M551.964 91.974C552.319 92.03 552.641 92.1747 552.93 92.408C553.229 92.6413 553.462 92.9307 553.63 93.276C553.807 93.6213 553.896 93.99 553.896 94.382C553.896 94.8767 553.77 95.3247 553.518 95.726C553.266 96.118 552.897 96.4307 552.412 96.664C551.936 96.888 551.371 97 550.718 97H547.078V87.242H550.578C551.241 87.242 551.805 87.354 552.272 87.578C552.739 87.7927 553.089 88.0867 553.322 88.46C553.555 88.8333 553.672 89.2533 553.672 89.72C553.672 90.2987 553.513 90.7793 553.196 91.162C552.888 91.5353 552.477 91.806 551.964 91.974ZM548.352 91.456H550.494C551.091 91.456 551.553 91.316 551.88 91.036C552.207 90.756 552.37 90.3687 552.37 89.874C552.37 89.3793 552.207 88.992 551.88 88.712C551.553 88.432 551.082 88.292 550.466 88.292H548.352V91.456ZM550.606 95.95C551.241 95.95 551.735 95.8007 552.09 95.502C552.445 95.2033 552.622 94.788 552.622 94.256C552.622 93.7147 552.435 93.29 552.062 92.982C551.689 92.6647 551.189 92.506 550.564 92.506H548.352V95.95H550.606ZM555.048 93.136C555.048 92.352 555.207 91.666 555.524 91.078C555.841 90.4807 556.275 90.0187 556.826 89.692C557.386 89.3653 558.007 89.202 558.688 89.202C559.36 89.202 559.943 89.3467 560.438 89.636C560.933 89.9253 561.301 90.2893 561.544 90.728V89.328H562.832V97H561.544V95.572C561.292 96.02 560.914 96.3933 560.41 96.692C559.915 96.9813 559.337 97.126 558.674 97.126C557.993 97.126 557.377 96.958 556.826 96.622C556.275 96.286 555.841 95.8147 555.524 95.208C555.207 94.6013 555.048 93.9107 555.048 93.136ZM561.544 93.15C561.544 92.5713 561.427 92.0673 561.194 91.638C560.961 91.2087 560.643 90.882 560.242 90.658C559.85 90.4247 559.416 90.308 558.94 90.308C558.464 90.308 558.03 90.42 557.638 90.644C557.246 90.868 556.933 91.1947 556.7 91.624C556.467 92.0533 556.35 92.5573 556.35 93.136C556.35 93.724 556.467 94.2373 556.7 94.676C556.933 95.1053 557.246 95.4367 557.638 95.67C558.03 95.894 558.464 96.006 558.94 96.006C559.416 96.006 559.85 95.894 560.242 95.67C560.643 95.4367 560.961 95.1053 561.194 94.676C561.427 94.2373 561.544 93.7287 561.544 93.15ZM566.119 86.64V97H564.845V86.64H566.119ZM567.674 93.136C567.674 92.352 567.833 91.666 568.15 91.078C568.468 90.4807 568.902 90.0187 569.452 89.692C570.012 89.3653 570.633 89.202 571.314 89.202C571.986 89.202 572.57 89.3467 573.064 89.636C573.559 89.9253 573.928 90.2893 574.17 90.728V89.328H575.458V97H574.17V95.572C573.918 96.02 573.54 96.3933 573.036 96.692C572.542 96.9813 571.963 97.126 571.3 97.126C570.619 97.126 570.003 96.958 569.452 96.622C568.902 96.286 568.468 95.8147 568.15 95.208C567.833 94.6013 567.674 93.9107 567.674 93.136ZM574.17 93.15C574.17 92.5713 574.054 92.0673 573.82 91.638C573.587 91.2087 573.27 90.882 572.868 90.658C572.476 90.4247 572.042 90.308 571.566 90.308C571.09 90.308 570.656 90.42 570.264 90.644C569.872 90.868 569.56 91.1947 569.326 91.624C569.093 92.0533 568.976 92.5573 568.976 93.136C568.976 93.724 569.093 94.2373 569.326 94.676C569.56 95.1053 569.872 95.4367 570.264 95.67C570.656 95.894 571.09 96.006 571.566 96.006C572.042 96.006 572.476 95.894 572.868 95.67C573.27 95.4367 573.587 95.1053 573.82 94.676C574.054 94.2373 574.17 93.7287 574.17 93.15ZM581.209 89.188C582.142 89.188 582.898 89.4727 583.477 90.042C584.056 90.602 584.345 91.414 584.345 92.478V97H583.085V92.66C583.085 91.8947 582.894 91.3113 582.511 90.91C582.128 90.4993 581.606 90.294 580.943 90.294C580.271 90.294 579.734 90.504 579.333 90.924C578.941 91.344 578.745 91.9553 578.745 92.758V97H577.471V89.328H578.745V90.42C578.997 90.028 579.338 89.7247 579.767 89.51C580.206 89.2953 580.686 89.188 581.209 89.188ZM585.81 93.15C585.81 92.3567 585.969 91.666 586.286 91.078C586.604 90.4807 587.042 90.0187 587.602 89.692C588.172 89.3653 588.82 89.202 589.548 89.202C590.491 89.202 591.266 89.4307 591.872 89.888C592.488 90.3453 592.894 90.98 593.09 91.792H591.718C591.588 91.3253 591.331 90.9567 590.948 90.686C590.575 90.4153 590.108 90.28 589.548 90.28C588.82 90.28 588.232 90.532 587.784 91.036C587.336 91.5307 587.112 92.2353 587.112 93.15C587.112 94.074 587.336 94.788 587.784 95.292C588.232 95.796 588.82 96.048 589.548 96.048C590.108 96.048 590.575 95.9173 590.948 95.656C591.322 95.3947 591.578 95.0213 591.718 94.536H593.09C592.885 95.32 592.474 95.95 591.858 96.426C591.242 96.8927 590.472 97.126 589.548 97.126C588.82 97.126 588.172 96.9627 587.602 96.636C587.042 96.3093 586.604 95.8473 586.286 95.25C585.969 94.6527 585.81 93.9527 585.81 93.15ZM601.65 92.87C601.65 93.1127 601.636 93.3693 601.608 93.64H595.476C595.523 94.396 595.779 94.9887 596.246 95.418C596.722 95.838 597.296 96.048 597.968 96.048C598.519 96.048 598.976 95.922 599.34 95.67C599.713 95.4087 599.975 95.0633 600.124 94.634H601.496C601.291 95.3713 600.88 95.9733 600.264 96.44C599.648 96.8973 598.883 97.126 597.968 97.126C597.24 97.126 596.587 96.9627 596.008 96.636C595.439 96.3093 594.991 95.8473 594.664 95.25C594.337 94.6433 594.174 93.9433 594.174 93.15C594.174 92.3567 594.333 91.6613 594.65 91.064C594.967 90.4667 595.411 90.0093 595.98 89.692C596.559 89.3653 597.221 89.202 597.968 89.202C598.696 89.202 599.34 89.3607 599.9 89.678C600.46 89.9953 600.889 90.434 601.188 90.994C601.496 91.5447 601.65 92.17 601.65 92.87ZM600.334 92.604C600.334 92.1187 600.227 91.7033 600.012 91.358C599.797 91.0033 599.503 90.7373 599.13 90.56C598.766 90.3733 598.36 90.28 597.912 90.28C597.268 90.28 596.717 90.4853 596.26 90.896C595.812 91.3067 595.555 91.876 595.49 92.604H600.334Z" fill="#ACACAC"/>
<path d="M564.144 127.568C564.144 128.677 563.856 129.723 563.28 130.704C562.725 131.664 561.893 132.464 560.784 133.104C559.696 133.723 558.405 134.085 556.912 134.192V136.784H554.864V134.16C552.731 133.968 551.013 133.328 549.712 132.24C548.411 131.131 547.739 129.637 547.696 127.76H552.496C552.624 129.296 553.413 130.224 554.864 130.544V124.432C553.328 124.048 552.091 123.664 551.152 123.28C550.213 122.896 549.403 122.277 548.72 121.424C548.037 120.571 547.696 119.408 547.696 117.936C547.696 116.08 548.357 114.565 549.68 113.392C551.024 112.219 552.752 111.547 554.864 111.376V108.784H556.912V111.376C558.96 111.547 560.592 112.165 561.808 113.232C563.045 114.299 563.739 115.771 563.888 117.648H559.056C558.992 117.029 558.768 116.496 558.384 116.048C558.021 115.579 557.531 115.248 556.912 115.056V121.104C558.512 121.509 559.771 121.904 560.688 122.288C561.627 122.651 562.437 123.259 563.12 124.112C563.803 124.944 564.144 126.096 564.144 127.568ZM552.368 117.712C552.368 118.416 552.581 118.992 553.008 119.44C553.435 119.867 554.053 120.219 554.864 120.496V114.96C554.096 115.067 553.488 115.355 553.04 115.824C552.592 116.293 552.368 116.923 552.368 117.712ZM556.912 130.608C557.723 130.459 558.352 130.128 558.8 129.616C559.269 129.104 559.504 128.485 559.504 127.76C559.504 127.056 559.28 126.491 558.832 126.064C558.384 125.637 557.744 125.285 556.912 125.008V130.608ZM569.722 128.944C571.77 127.237 573.402 125.819 574.618 124.688C575.834 123.536 576.847 122.341 577.658 121.104C578.468 119.867 578.874 118.651 578.874 117.456C578.874 116.368 578.618 115.515 578.106 114.896C577.594 114.277 576.804 113.968 575.738 113.968C574.671 113.968 573.85 114.331 573.274 115.056C572.698 115.76 572.399 116.731 572.378 117.968H568.026C568.111 115.408 568.868 113.467 570.298 112.144C571.748 110.821 573.583 110.16 575.802 110.16C578.234 110.16 580.1 110.811 581.402 112.112C582.703 113.392 583.354 115.088 583.354 117.2C583.354 118.864 582.906 120.453 582.01 121.968C581.114 123.483 580.09 124.805 578.938 125.936C577.786 127.045 576.282 128.389 574.426 129.968H583.866V133.68H568.058V130.352L569.722 128.944ZM588.865 134.224C588.054 134.224 587.382 133.979 586.849 133.488C586.337 132.976 586.081 132.347 586.081 131.6C586.081 130.853 586.337 130.235 586.849 129.744C587.382 129.232 588.054 128.976 588.865 128.976C589.654 128.976 590.305 129.232 590.817 129.744C591.329 130.235 591.585 130.853 591.585 131.6C591.585 132.347 591.329 132.976 590.817 133.488C590.305 133.979 589.654 134.224 588.865 134.224ZM594.169 129.456V125.936L604.633 110.96H609.849V125.552H612.665V129.456H609.849V134H605.369V129.456H594.169ZM605.657 115.76L599.097 125.552H605.657V115.76ZM626.205 134L620.189 126.448V134H615.709V110.32H620.189V123.792L626.141 116.272H631.965L624.157 125.168L632.029 134H626.205Z" fill="#333333"/>
<circle cx="484" cy="124" r="42" fill="url(#paint1_linear_0_4)"/>
<path d="M475.547 143.812C471.382 143.812 467.97 140.784 467.97 137.057V133.487C467.97 132.769 468.565 132.174 469.282 132.174C470 132.174 470.595 132.769 470.595 133.487C470.595 135.674 472.712 137.319 475.547 137.319C478.382 137.319 480.5 135.674 480.5 133.487C480.5 132.769 481.095 132.174 481.812 132.174C482.53 132.174 483.125 132.769 483.125 133.487V137.057C483.125 140.784 479.73 143.812 475.547 143.812ZM471.05 138.772C471.82 140.207 473.552 141.187 475.547 141.187C477.542 141.187 479.275 140.189 480.045 138.772C478.802 139.524 477.262 139.962 475.547 139.962C473.832 139.962 472.292 139.524 471.05 138.772Z" fill="#0F5FC2"/>
<path d="M475.547 135.149C472.677 135.149 470.105 133.836 468.827 131.754C468.267 130.844 467.97 129.776 467.97 128.691C467.97 126.854 468.775 125.139 470.245 123.861C473.08 121.377 477.962 121.377 480.815 123.844C482.285 125.139 483.107 126.854 483.107 128.691C483.107 129.776 482.81 130.844 482.25 131.754C480.99 133.836 478.417 135.149 475.547 135.149ZM475.547 124.562C474.182 124.562 472.922 125.016 471.977 125.839C471.085 126.609 470.595 127.624 470.595 128.691C470.595 129.304 470.752 129.864 471.067 130.389C471.872 131.719 473.587 132.542 475.547 132.542C477.507 132.542 479.222 131.719 480.01 130.407C480.325 129.899 480.482 129.322 480.482 128.709C480.482 127.642 479.992 126.626 479.1 125.839C478.172 125.016 476.912 124.562 475.547 124.562Z" fill="#0F5FC2"/>
<path d="M475.547 139.962C471.225 139.962 467.97 137.18 467.97 133.505V128.692C467.97 124.965 471.365 121.938 475.547 121.938C477.525 121.938 479.415 122.62 480.832 123.845C482.302 125.14 483.125 126.855 483.125 128.692V133.505C483.125 137.18 479.87 139.962 475.547 139.962ZM475.547 124.562C472.817 124.562 470.595 126.417 470.595 128.692V133.505C470.595 135.693 472.712 137.337 475.547 137.337C478.382 137.337 480.5 135.693 480.5 133.505V128.692C480.5 127.625 480.01 126.61 479.117 125.823C478.172 125.018 476.912 124.562 475.547 124.562Z" fill="#0F5FC2"/>
<path d="M496.32 129.9C493.677 129.9 491.437 127.94 491.227 125.42C491.087 123.968 491.612 122.55 492.662 121.518C493.537 120.608 494.78 120.1 496.092 120.1H499.75C501.482 120.153 502.812 121.518 502.812 123.198V126.803C502.812 128.483 501.482 129.848 499.802 129.9H496.32ZM499.697 122.725H496.11C495.497 122.725 494.937 122.953 494.535 123.373C494.027 123.863 493.782 124.528 493.852 125.193C493.94 126.348 495.06 127.275 496.32 127.275H499.75C499.977 127.275 500.187 127.065 500.187 126.803V123.198C500.187 122.935 499.977 122.743 499.697 122.725Z" fill="#0F5FC2"/>
<path d="M491 141.188H486.625C485.908 141.188 485.313 140.592 485.313 139.875C485.313 139.158 485.908 138.562 486.625 138.562H491C495.515 138.562 498.438 135.64 498.438 131.125V129.9H496.32C493.678 129.9 491.438 127.94 491.228 125.42C491.088 123.967 491.613 122.55 492.663 121.518C493.538 120.608 494.78 120.1 496.093 120.1H498.42V118.875C498.42 114.78 496.023 111.962 492.138 111.507C491.718 111.437 491.35 111.438 490.983 111.438H475.233C474.813 111.438 474.41 111.472 474.008 111.525C470.158 112.015 467.795 114.815 467.795 118.875V122.375C467.795 123.092 467.2 123.688 466.483 123.688C465.765 123.688 465.17 123.092 465.17 122.375V118.875C465.17 113.485 468.495 109.583 473.658 108.935C474.13 108.865 474.673 108.812 475.233 108.812H490.983C491.403 108.812 491.945 108.83 492.505 108.917C497.668 109.512 501.045 113.433 501.045 118.875V121.413C501.045 122.13 500.45 122.725 499.733 122.725H496.093C495.48 122.725 494.921 122.952 494.518 123.372C494.011 123.862 493.765 124.527 493.835 125.192C493.923 126.347 495.043 127.275 496.303 127.275H499.75C500.468 127.275 501.063 127.87 501.063 128.588V131.125C501.063 137.145 497.02 141.188 491 141.188Z" fill="#0F5FC2"/>
<path d="M569.468 158.356C569.74 158.14 569.864 158.04 569.84 158.056C570.624 157.408 571.24 156.876 571.688 156.46C572.144 156.044 572.528 155.608 572.84 155.152C573.152 154.696 573.308 154.252 573.308 153.82C573.308 153.492 573.232 153.236 573.08 153.052C572.928 152.868 572.7 152.776 572.396 152.776C572.092 152.776 571.852 152.892 571.676 153.124C571.508 153.348 571.424 153.668 571.424 154.084H569.444C569.46 153.404 569.604 152.836 569.876 152.38C570.156 151.924 570.52 151.588 570.968 151.372C571.424 151.156 571.928 151.048 572.48 151.048C573.432 151.048 574.148 151.292 574.628 151.78C575.116 152.268 575.36 152.904 575.36 153.688C575.36 154.544 575.068 155.34 574.484 156.076C573.9 156.804 573.156 157.516 572.252 158.212H575.492V159.88H569.468V158.356ZM576.107 153.448C576.107 152.8 576.291 152.3 576.659 151.948C577.035 151.596 577.519 151.42 578.111 151.42C578.703 151.42 579.183 151.596 579.551 151.948C579.919 152.3 580.103 152.8 580.103 153.448C580.103 154.096 579.919 154.596 579.551 154.948C579.183 155.3 578.703 155.476 578.111 155.476C577.519 155.476 577.035 155.3 576.659 154.948C576.291 154.596 576.107 154.096 576.107 153.448ZM584.255 151.552L579.635 160H577.655L582.275 151.552H584.255ZM578.099 152.62C577.715 152.62 577.523 152.896 577.523 153.448C577.523 153.992 577.715 154.264 578.099 154.264C578.283 154.264 578.427 154.196 578.531 154.06C578.635 153.924 578.687 153.72 578.687 153.448C578.687 152.896 578.491 152.62 578.099 152.62ZM581.819 158.104C581.819 157.456 582.003 156.956 582.371 156.604C582.739 156.252 583.219 156.076 583.811 156.076C584.403 156.076 584.883 156.252 585.251 156.604C585.619 156.956 585.803 157.456 585.803 158.104C585.803 158.752 585.619 159.252 585.251 159.604C584.883 159.956 584.403 160.132 583.811 160.132C583.219 160.132 582.739 159.956 582.371 159.604C582.003 159.252 581.819 158.752 581.819 158.104ZM583.799 157.276C583.615 157.276 583.471 157.344 583.367 157.48C583.271 157.616 583.223 157.824 583.223 158.104C583.223 158.648 583.415 158.92 583.799 158.92C583.983 158.92 584.127 158.852 584.231 158.716C584.335 158.58 584.387 158.376 584.387 158.104C584.387 157.832 584.335 157.628 584.231 157.492C584.127 157.348 583.983 157.276 583.799 157.276Z" fill="#D0004B"/>
<path d="M591.392 154.324V158.2C591.392 158.52 591.46 158.748 591.596 158.884C591.732 159.012 591.968 159.076 592.304 159.076H593.108V160H592.124C591.516 160 591.06 159.86 590.756 159.58C590.452 159.3 590.3 158.84 590.3 158.2V154.324H589.448V153.424H590.3V151.768H591.392V153.424H593.108V154.324H591.392ZM597.575 153.304C598.071 153.304 598.519 153.412 598.919 153.628C599.319 153.836 599.631 154.152 599.855 154.576C600.087 155 600.203 155.516 600.203 156.124V160H599.123V156.28C599.123 155.624 598.959 155.124 598.631 154.78C598.303 154.428 597.855 154.252 597.287 154.252C596.711 154.252 596.251 154.432 595.907 154.792C595.571 155.152 595.403 155.676 595.403 156.364V160H594.311V151.12H595.403V154.36C595.619 154.024 595.915 153.764 596.291 153.58C596.675 153.396 597.103 153.304 597.575 153.304ZM602.431 152.356C602.223 152.356 602.047 152.284 601.903 152.14C601.759 151.996 601.687 151.82 601.687 151.612C601.687 151.404 601.759 151.228 601.903 151.084C602.047 150.94 602.223 150.868 602.431 150.868C602.631 150.868 602.799 150.94 602.935 151.084C603.079 151.228 603.151 151.404 603.151 151.612C603.151 151.82 603.079 151.996 602.935 152.14C602.799 152.284 602.631 152.356 602.431 152.356ZM602.959 153.424V160H601.867V153.424H602.959ZM607.028 160.108C606.524 160.108 606.072 160.024 605.672 159.856C605.272 159.68 604.956 159.44 604.724 159.136C604.492 158.824 604.364 158.468 604.34 158.068H605.468C605.5 158.396 605.652 158.664 605.924 158.872C606.204 159.08 606.568 159.184 607.016 159.184C607.432 159.184 607.76 159.092 608 158.908C608.24 158.724 608.36 158.492 608.36 158.212C608.36 157.924 608.232 157.712 607.976 157.576C607.72 157.432 607.324 157.292 606.788 157.156C606.3 157.028 605.9 156.9 605.588 156.772C605.284 156.636 605.02 156.44 604.796 156.184C604.58 155.92 604.472 155.576 604.472 155.152C604.472 154.816 604.572 154.508 604.772 154.228C604.972 153.948 605.256 153.728 605.624 153.568C605.992 153.4 606.412 153.316 606.884 153.316C607.612 153.316 608.2 153.5 608.648 153.868C609.096 154.236 609.336 154.74 609.368 155.38H608.276C608.252 155.036 608.112 154.76 607.856 154.552C607.608 154.344 607.272 154.24 606.848 154.24C606.456 154.24 606.144 154.324 605.912 154.492C605.68 154.66 605.564 154.88 605.564 155.152C605.564 155.368 605.632 155.548 605.768 155.692C605.912 155.828 606.088 155.94 606.296 156.028C606.512 156.108 606.808 156.2 607.184 156.304C607.656 156.432 608.04 156.56 608.336 156.688C608.632 156.808 608.884 156.992 609.092 157.24C609.308 157.488 609.42 157.812 609.428 158.212C609.428 158.572 609.328 158.896 609.128 159.184C608.928 159.472 608.644 159.7 608.276 159.868C607.916 160.028 607.5 160.108 607.028 160.108ZM621.837 153.304C622.349 153.304 622.805 153.412 623.205 153.628C623.605 153.836 623.921 154.152 624.153 154.576C624.385 155 624.501 155.516 624.501 156.124V160H623.421V156.28C623.421 155.624 623.257 155.124 622.929 154.78C622.609 154.428 622.173 154.252 621.621 154.252C621.053 154.252 620.601 154.436 620.265 154.804C619.929 155.164 619.761 155.688 619.761 156.376V160H618.681V156.28C618.681 155.624 618.517 155.124 618.189 154.78C617.869 154.428 617.433 154.252 616.881 154.252C616.313 154.252 615.861 154.436 615.525 154.804C615.189 155.164 615.021 155.688 615.021 156.376V160H613.929V153.424H615.021V154.372C615.237 154.028 615.525 153.764 615.885 153.58C616.253 153.396 616.657 153.304 617.097 153.304C617.649 153.304 618.137 153.428 618.561 153.676C618.985 153.924 619.301 154.288 619.509 154.768C619.693 154.304 619.997 153.944 620.421 153.688C620.845 153.432 621.317 153.304 621.837 153.304ZM629.04 160.108C628.424 160.108 627.864 159.968 627.36 159.688C626.864 159.408 626.472 159.012 626.184 158.5C625.904 157.98 625.764 157.38 625.764 156.7C625.764 156.028 625.908 155.436 626.196 154.924C626.492 154.404 626.892 154.008 627.396 153.736C627.9 153.456 628.464 153.316 629.088 153.316C629.712 153.316 630.276 153.456 630.78 153.736C631.284 154.008 631.68 154.4 631.968 154.912C632.264 155.424 632.412 156.02 632.412 156.7C632.412 157.38 632.26 157.98 631.956 158.5C631.66 159.012 631.256 159.408 630.744 159.688C630.232 159.968 629.664 160.108 629.04 160.108ZM629.04 159.148C629.432 159.148 629.8 159.056 630.144 158.872C630.488 158.688 630.764 158.412 630.972 158.044C631.188 157.676 631.296 157.228 631.296 156.7C631.296 156.172 631.192 155.724 630.984 155.356C630.776 154.988 630.504 154.716 630.168 154.54C629.832 154.356 629.468 154.264 629.076 154.264C628.676 154.264 628.308 154.356 627.972 154.54C627.644 154.716 627.38 154.988 627.18 155.356C626.98 155.724 626.88 156.172 626.88 156.7C626.88 157.236 626.976 157.688 627.168 158.056C627.368 158.424 627.632 158.7 627.96 158.884C628.288 159.06 628.648 159.148 629.04 159.148ZM636.932 153.304C637.732 153.304 638.38 153.548 638.876 154.036C639.372 154.516 639.62 155.212 639.62 156.124V160H638.54V156.28C638.54 155.624 638.376 155.124 638.048 154.78C637.72 154.428 637.272 154.252 636.704 154.252C636.128 154.252 635.668 154.432 635.324 154.792C634.988 155.152 634.82 155.676 634.82 156.364V160H633.728V153.424H634.82V154.36C635.036 154.024 635.328 153.764 635.696 153.58C636.072 153.396 636.484 153.304 636.932 153.304ZM642.616 154.324V158.2C642.616 158.52 642.684 158.748 642.82 158.884C642.956 159.012 643.192 159.076 643.528 159.076H644.332V160H643.348C642.74 160 642.284 159.86 641.98 159.58C641.676 159.3 641.524 158.84 641.524 158.2V154.324H640.672V153.424H641.524V151.768H642.616V153.424H644.332V154.324H642.616ZM648.799 153.304C649.295 153.304 649.743 153.412 650.143 153.628C650.543 153.836 650.855 154.152 651.079 154.576C651.311 155 651.427 155.516 651.427 156.124V160H650.347V156.28C650.347 155.624 650.183 155.124 649.855 154.78C649.527 154.428 649.079 154.252 648.511 154.252C647.935 154.252 647.475 154.432 647.131 154.792C646.795 155.152 646.627 155.676 646.627 156.364V160H645.535V151.12H646.627V154.36C646.843 154.024 647.139 153.764 647.515 153.58C647.899 153.396 648.327 153.304 648.799 153.304Z" fill="#292D32"/>
<path d="M556 148L556 160" stroke="#D0004B" stroke-width="2" stroke-linecap="round" stroke-linejoin="round"/>
<path d="M561.833 155L556 160.833L550.167 155" stroke="#D0004B" stroke-width="2" stroke-linecap="round" stroke-linejoin="round"/>
<path d="M872.084 87.242V88.278H869.424V97H868.15V88.278H865.476V87.242H872.084ZM876.858 97.126C876.14 97.126 875.486 96.9627 874.898 96.636C874.32 96.3093 873.862 95.8473 873.526 95.25C873.2 94.6433 873.036 93.9433 873.036 93.15C873.036 92.366 873.204 91.6753 873.54 91.078C873.886 90.4713 874.352 90.0093 874.94 89.692C875.528 89.3653 876.186 89.202 876.914 89.202C877.642 89.202 878.3 89.3653 878.888 89.692C879.476 90.0093 879.938 90.4667 880.274 91.064C880.62 91.6613 880.792 92.3567 880.792 93.15C880.792 93.9433 880.615 94.6433 880.26 95.25C879.915 95.8473 879.444 96.3093 878.846 96.636C878.249 96.9627 877.586 97.126 876.858 97.126ZM876.858 96.006C877.316 96.006 877.745 95.8987 878.146 95.684C878.548 95.4693 878.87 95.1473 879.112 94.718C879.364 94.2887 879.49 93.766 879.49 93.15C879.49 92.534 879.369 92.0113 879.126 91.582C878.884 91.1527 878.566 90.8353 878.174 90.63C877.782 90.4153 877.358 90.308 876.9 90.308C876.434 90.308 876.004 90.4153 875.612 90.63C875.23 90.8353 874.922 91.1527 874.688 91.582C874.455 92.0113 874.338 92.534 874.338 93.15C874.338 93.7753 874.45 94.3027 874.674 94.732C874.908 95.1613 875.216 95.4833 875.598 95.698C875.981 95.9033 876.401 96.006 876.858 96.006ZM883.881 90.378V94.9C883.881 95.2733 883.961 95.5393 884.119 95.698C884.278 95.8473 884.553 95.922 884.945 95.922H885.883V97H884.735C884.026 97 883.494 96.8367 883.139 96.51C882.785 96.1833 882.607 95.6467 882.607 94.9V90.378H881.613V89.328H882.607V87.396H883.881V89.328H885.883V90.378H883.881ZM886.811 93.136C886.811 92.352 886.97 91.666 887.287 91.078C887.604 90.4807 888.038 90.0187 888.589 89.692C889.149 89.3653 889.77 89.202 890.451 89.202C891.123 89.202 891.706 89.3467 892.201 89.636C892.696 89.9253 893.064 90.2893 893.307 90.728V89.328H894.595V97H893.307V95.572C893.055 96.02 892.677 96.3933 892.173 96.692C891.678 96.9813 891.1 97.126 890.437 97.126C889.756 97.126 889.14 96.958 888.589 96.622C888.038 96.286 887.604 95.8147 887.287 95.208C886.97 94.6013 886.811 93.9107 886.811 93.136ZM893.307 93.15C893.307 92.5713 893.19 92.0673 892.957 91.638C892.724 91.2087 892.406 90.882 892.005 90.658C891.613 90.4247 891.179 90.308 890.703 90.308C890.227 90.308 889.793 90.42 889.401 90.644C889.009 90.868 888.696 91.1947 888.463 91.624C888.23 92.0533 888.113 92.5573 888.113 93.136C888.113 93.724 888.23 94.2373 888.463 94.676C888.696 95.1053 889.009 95.4367 889.401 95.67C889.793 95.894 890.227 96.006 890.703 96.006C891.179 96.006 891.613 95.894 892.005 95.67C892.406 95.4367 892.724 95.1053 892.957 94.676C893.19 94.2373 893.307 93.7287 893.307 93.15ZM897.882 86.64V97H896.608V86.64H897.882ZM906.6 97.098C905.956 97.098 905.377 96.986 904.864 96.762C904.36 96.5287 903.963 96.2113 903.674 95.81C903.384 95.3993 903.235 94.928 903.226 94.396H904.584C904.63 94.8533 904.817 95.2407 905.144 95.558C905.48 95.866 905.965 96.02 906.6 96.02C907.206 96.02 907.682 95.8707 908.028 95.572C908.382 95.264 908.56 94.872 908.56 94.396C908.56 94.0227 908.457 93.7193 908.252 93.486C908.046 93.2527 907.79 93.0753 907.482 92.954C907.174 92.8327 906.758 92.702 906.236 92.562C905.592 92.394 905.074 92.226 904.682 92.058C904.299 91.89 903.968 91.6287 903.688 91.274C903.417 90.91 903.282 90.4247 903.282 89.818C903.282 89.286 903.417 88.8147 903.688 88.404C903.958 87.9933 904.336 87.676 904.822 87.452C905.316 87.228 905.881 87.116 906.516 87.116C907.43 87.116 908.177 87.3447 908.756 87.802C909.344 88.2593 909.675 88.866 909.75 89.622H908.35C908.303 89.2487 908.107 88.922 907.762 88.642C907.416 88.3527 906.959 88.208 906.39 88.208C905.858 88.208 905.424 88.348 905.088 88.628C904.752 88.8987 904.584 89.2813 904.584 89.776C904.584 90.1307 904.682 90.42 904.878 90.644C905.083 90.868 905.33 91.0407 905.62 91.162C905.918 91.274 906.334 91.4047 906.866 91.554C907.51 91.7313 908.028 91.9087 908.42 92.086C908.812 92.254 909.148 92.52 909.428 92.884C909.708 93.2387 909.848 93.724 909.848 94.34C909.848 94.816 909.722 95.264 909.47 95.684C909.218 96.104 908.844 96.4447 908.35 96.706C907.855 96.9673 907.272 97.098 906.6 97.098ZM911.106 93.136C911.106 92.352 911.265 91.666 911.582 91.078C911.9 90.4807 912.334 90.0187 912.884 89.692C913.444 89.3653 914.065 89.202 914.746 89.202C915.418 89.202 916.002 89.3467 916.496 89.636C916.991 89.9253 917.36 90.2893 917.602 90.728V89.328H918.89V97H917.602V95.572C917.35 96.02 916.972 96.3933 916.468 96.692C915.974 96.9813 915.395 97.126 914.732 97.126C914.051 97.126 913.435 96.958 912.884 96.622C912.334 96.286 911.9 95.8147 911.582 95.208C911.265 94.6013 911.106 93.9107 911.106 93.136ZM917.602 93.15C917.602 92.5713 917.486 92.0673 917.252 91.638C917.019 91.2087 916.702 90.882 916.3 90.658C915.908 90.4247 915.474 90.308 914.998 90.308C914.522 90.308 914.088 90.42 913.696 90.644C913.304 90.868 912.992 91.1947 912.758 91.624C912.525 92.0533 912.408 92.5573 912.408 93.136C912.408 93.724 912.525 94.2373 912.758 94.676C912.992 95.1053 913.304 95.4367 913.696 95.67C914.088 95.894 914.522 96.006 914.998 96.006C915.474 96.006 915.908 95.894 916.3 95.67C916.702 95.4367 917.019 95.1053 917.252 94.676C917.486 94.2373 917.602 93.7287 917.602 93.15ZM922.177 86.64V97H920.903V86.64H922.177ZM931.209 92.87C931.209 93.1127 931.195 93.3693 931.167 93.64H925.035C925.081 94.396 925.338 94.9887 925.805 95.418C926.281 95.838 926.855 96.048 927.527 96.048C928.077 96.048 928.535 95.922 928.899 95.67C929.272 95.4087 929.533 95.0633 929.683 94.634H931.055C930.849 95.3713 930.439 95.9733 929.823 96.44C929.207 96.8973 928.441 97.126 927.527 97.126C926.799 97.126 926.145 96.9627 925.567 96.636C924.997 96.3093 924.549 95.8473 924.223 95.25C923.896 94.6433 923.733 93.9433 923.733 93.15C923.733 92.3567 923.891 91.6613 924.209 91.064C924.526 90.4667 924.969 90.0093 925.539 89.692C926.117 89.3653 926.78 89.202 927.527 89.202C928.255 89.202 928.899 89.3607 929.459 89.678C930.019 89.9953 930.448 90.434 930.747 90.994C931.055 91.5447 931.209 92.17 931.209 92.87ZM929.893 92.604C929.893 92.1187 929.785 91.7033 929.571 91.358C929.356 91.0033 929.062 90.7373 928.689 90.56C928.325 90.3733 927.919 90.28 927.471 90.28C926.827 90.28 926.276 90.4853 925.819 90.896C925.371 91.3067 925.114 91.876 925.049 92.604H929.893ZM935.466 97.126C934.878 97.126 934.351 97.028 933.884 96.832C933.418 96.6267 933.049 96.3467 932.778 95.992C932.508 95.628 932.358 95.2127 932.33 94.746H933.646C933.684 95.1287 933.861 95.4413 934.178 95.684C934.505 95.9267 934.93 96.048 935.452 96.048C935.938 96.048 936.32 95.9407 936.6 95.726C936.88 95.5113 937.02 95.2407 937.02 94.914C937.02 94.578 936.871 94.3307 936.572 94.172C936.274 94.004 935.812 93.8407 935.186 93.682C934.617 93.5327 934.15 93.3833 933.786 93.234C933.432 93.0753 933.124 92.8467 932.862 92.548C932.61 92.24 932.484 91.8387 932.484 91.344C932.484 90.952 932.601 90.5927 932.834 90.266C933.068 89.9393 933.399 89.6827 933.828 89.496C934.258 89.3 934.748 89.202 935.298 89.202C936.148 89.202 936.834 89.4167 937.356 89.846C937.879 90.2753 938.159 90.8633 938.196 91.61H936.922C936.894 91.2087 936.731 90.8867 936.432 90.644C936.143 90.4013 935.751 90.28 935.256 90.28C934.799 90.28 934.435 90.378 934.164 90.574C933.894 90.77 933.758 91.0267 933.758 91.344C933.758 91.596 933.838 91.806 933.996 91.974C934.164 92.1327 934.37 92.2633 934.612 92.366C934.864 92.4593 935.21 92.5667 935.648 92.688C936.199 92.8373 936.647 92.9867 936.992 93.136C937.338 93.276 937.632 93.4907 937.874 93.78C938.126 94.0693 938.257 94.4473 938.266 94.914C938.266 95.334 938.15 95.712 937.916 96.048C937.683 96.384 937.352 96.65 936.922 96.846C936.502 97.0327 936.017 97.126 935.466 97.126Z" fill="#ACACAC"/>
<path d="M883.144 127.568C883.144 128.677 882.856 129.723 882.28 130.704C881.725 131.664 880.893 132.464 879.784 133.104C878.696 133.723 877.405 134.085 875.912 134.192V136.784H873.864V134.16C871.731 133.968 870.013 133.328 868.712 132.24C867.411 131.131 866.739 129.637 866.696 127.76H871.496C871.624 129.296 872.413 130.224 873.864 130.544V124.432C872.328 124.048 871.091 123.664 870.152 123.28C869.213 122.896 868.403 122.277 867.72 121.424C867.037 120.571 866.696 119.408 866.696 117.936C866.696 116.08 867.357 114.565 868.68 113.392C870.024 112.219 871.752 111.547 873.864 111.376V108.784H875.912V111.376C877.96 111.547 879.592 112.165 880.808 113.232C882.045 114.299 882.739 115.771 882.888 117.648H878.056C877.992 117.029 877.768 116.496 877.384 116.048C877.021 115.579 876.531 115.248 875.912 115.056V121.104C877.512 121.509 878.771 121.904 879.688 122.288C880.627 122.651 881.437 123.259 882.12 124.112C882.803 124.944 883.144 126.096 883.144 127.568ZM871.368 117.712C871.368 118.416 871.581 118.992 872.008 119.44C872.435 119.867 873.053 120.219 873.864 120.496V114.96C873.096 115.067 872.488 115.355 872.04 115.824C871.592 116.293 871.368 116.923 871.368 117.712ZM875.912 130.608C876.723 130.459 877.352 130.128 877.8 129.616C878.269 129.104 878.504 128.485 878.504 127.76C878.504 127.056 878.28 126.491 877.832 126.064C877.384 125.637 876.744 125.285 875.912 125.008V130.608ZM891.218 121.648C889.084 120.539 888.018 118.821 888.018 116.496C888.018 115.344 888.306 114.299 888.882 113.36C889.479 112.4 890.364 111.643 891.538 111.088C892.732 110.512 894.183 110.224 895.89 110.224C897.596 110.224 899.036 110.512 900.21 111.088C901.404 111.643 902.29 112.4 902.866 113.36C903.463 114.299 903.762 115.344 903.762 116.496C903.762 117.669 903.474 118.704 902.898 119.6C902.322 120.475 901.554 121.157 900.594 121.648C901.767 122.16 902.684 122.907 903.346 123.888C904.007 124.869 904.338 126.032 904.338 127.376C904.338 128.827 903.964 130.096 903.218 131.184C902.492 132.251 901.49 133.072 900.21 133.648C898.93 134.224 897.49 134.512 895.89 134.512C894.29 134.512 892.85 134.224 891.57 133.648C890.311 133.072 889.308 132.251 888.562 131.184C887.836 130.096 887.474 128.827 887.474 127.376C887.474 126.032 887.804 124.869 888.466 123.888C889.127 122.885 890.044 122.139 891.218 121.648ZM899.41 117.136C899.41 116.091 899.09 115.28 898.45 114.704C897.831 114.128 896.978 113.84 895.89 113.84C894.823 113.84 893.97 114.128 893.33 114.704C892.711 115.28 892.402 116.101 892.402 117.168C892.402 118.128 892.722 118.896 893.362 119.472C894.023 120.048 894.866 120.336 895.89 120.336C896.914 120.336 897.756 120.048 898.418 119.472C899.079 118.875 899.41 118.096 899.41 117.136ZM895.89 123.6C894.674 123.6 893.682 123.909 892.914 124.528C892.167 125.147 891.794 126.032 891.794 127.184C891.794 128.251 892.156 129.125 892.882 129.808C893.628 130.469 894.631 130.8 895.89 130.8C897.148 130.8 898.14 130.459 898.866 129.776C899.591 129.093 899.954 128.229 899.954 127.184C899.954 126.053 899.58 125.179 898.834 124.56C898.087 123.92 897.106 123.6 895.89 123.6ZM912.74 127.44C912.911 128.379 913.295 129.104 913.892 129.616C914.511 130.107 915.332 130.352 916.356 130.352C917.679 130.352 918.639 129.808 919.236 128.72C919.833 127.611 920.132 125.755 920.132 123.152C919.641 123.835 918.948 124.368 918.052 124.752C917.177 125.136 916.228 125.328 915.204 125.328C913.839 125.328 912.601 125.051 911.492 124.496C910.404 123.92 909.54 123.077 908.9 121.968C908.26 120.837 907.94 119.472 907.94 117.872C907.94 115.504 908.644 113.627 910.052 112.24C911.46 110.832 913.38 110.128 915.812 110.128C918.841 110.128 920.975 111.099 922.212 113.04C923.471 114.981 924.1 117.904 924.1 121.808C924.1 124.581 923.855 126.853 923.364 128.624C922.895 130.395 922.073 131.739 920.9 132.656C919.748 133.573 918.169 134.032 916.164 134.032C914.585 134.032 913.241 133.733 912.132 133.136C911.023 132.517 910.169 131.717 909.572 130.736C908.996 129.733 908.665 128.635 908.58 127.44H912.74ZM916.132 121.68C917.241 121.68 918.116 121.339 918.756 120.656C919.396 119.973 919.716 119.056 919.716 117.904C919.716 116.645 919.375 115.675 918.692 114.992C918.031 114.288 917.124 113.936 915.972 113.936C914.82 113.936 913.903 114.299 913.22 115.024C912.559 115.728 912.228 116.667 912.228 117.84C912.228 118.971 912.548 119.899 913.188 120.624C913.849 121.328 914.831 121.68 916.132 121.68ZM938.275 134L932.259 126.448V134H927.779V110.32H932.259V123.792L938.211 116.272H944.035L936.227 125.168L944.099 134H938.275Z" fill="#333333"/>
<circle cx="803" cy="124" r="42" fill="url(#paint2_linear_0_4)"/>
<path d="M810.875 118.102C810.158 118.102 809.562 117.507 809.562 116.79V114.375C809.562 112.537 808.775 110.752 807.41 109.51C806.028 108.25 804.243 107.672 802.353 107.847C799.203 108.145 796.438 111.365 796.438 114.725V116.422C796.438 117.14 795.842 117.735 795.125 117.735C794.408 117.735 793.812 117.14 793.812 116.422V114.707C793.812 110 797.61 105.66 802.107 105.222C804.732 104.977 807.252 105.8 809.177 107.567C811.085 109.3 812.188 111.785 812.188 114.375V116.79C812.188 117.507 811.592 118.102 810.875 118.102Z" fill="#DA001A"/>
<path d="M808.25 142.812H797.75C789.665 142.812 788.16 139.05 787.775 135.393L786.462 124.91C786.27 123.02 786.2 120.307 788.037 118.277C789.612 116.527 792.22 115.688 796 115.688H810C813.797 115.688 816.405 116.545 817.962 118.277C819.782 120.307 819.73 123.02 819.537 124.875L818.225 135.393C817.84 139.05 816.335 142.812 808.25 142.812ZM796 118.312C793.042 118.312 791.012 118.89 789.98 120.045C789.122 120.99 788.842 122.443 789.07 124.613L790.382 135.095C790.68 137.895 791.45 140.205 797.75 140.205H808.25C814.55 140.205 815.32 137.913 815.617 135.13L816.93 124.613C817.157 122.478 816.877 121.025 816.02 120.062C814.987 118.89 812.957 118.312 810 118.312H796Z" fill="#DA001A"/>
<path d="M808.985 126.012C808.005 126.012 807.218 125.225 807.218 124.262C807.218 123.3 808.005 122.512 808.968 122.512C809.93 122.512 810.718 123.3 810.718 124.262C810.718 125.225 809.948 126.012 808.985 126.012Z" fill="#DA001A"/>
<path d="M796.735 126.012C795.755 126.012 794.968 125.225 794.968 124.262C794.968 123.3 795.755 122.512 796.718 122.512C797.68 122.512 798.468 123.3 798.468 124.262C798.468 125.225 797.698 126.012 796.735 126.012Z" fill="#DA001A"/>
<path d="M888.324 153.148V151.24H891.648V160H889.512V153.148H888.324ZM892.716 153.148V151.24H896.04V160H893.904V153.148H892.716ZM897.155 153.448C897.155 152.8 897.339 152.3 897.707 151.948C898.083 151.596 898.567 151.42 899.159 151.42C899.751 151.42 900.231 151.596 900.599 151.948C900.967 152.3 901.151 152.8 901.151 153.448C901.151 154.096 900.967 154.596 900.599 154.948C900.231 155.3 899.751 155.476 899.159 155.476C898.567 155.476 898.083 155.3 897.707 154.948C897.339 154.596 897.155 154.096 897.155 153.448ZM905.303 151.552L900.683 160H898.703L903.323 151.552H905.303ZM899.147 152.62C898.763 152.62 898.571 152.896 898.571 153.448C898.571 153.992 898.763 154.264 899.147 154.264C899.331 154.264 899.475 154.196 899.579 154.06C899.683 153.924 899.735 153.72 899.735 153.448C899.735 152.896 899.539 152.62 899.147 152.62ZM902.867 158.104C902.867 157.456 903.051 156.956 903.419 156.604C903.787 156.252 904.267 156.076 904.859 156.076C905.451 156.076 905.931 156.252 906.299 156.604C906.667 156.956 906.851 157.456 906.851 158.104C906.851 158.752 906.667 159.252 906.299 159.604C905.931 159.956 905.451 160.132 904.859 160.132C904.267 160.132 903.787 159.956 903.419 159.604C903.051 159.252 902.867 158.752 902.867 158.104ZM904.847 157.276C904.663 157.276 904.519 157.344 904.415 157.48C904.319 157.616 904.271 157.824 904.271 158.104C904.271 158.648 904.463 158.92 904.847 158.92C905.031 158.92 905.175 158.852 905.279 158.716C905.383 158.58 905.435 158.376 905.435 158.104C905.435 157.832 905.383 157.628 905.279 157.492C905.175 157.348 905.031 157.276 904.847 157.276Z" fill="#00AC4F"/>
<path d="M912.44 154.324V158.2C912.44 158.52 912.508 158.748 912.644 158.884C912.78 159.012 913.016 159.076 913.352 159.076H914.156V160H913.172C912.564 160 912.108 159.86 911.804 159.58C911.5 159.3 911.348 158.84 911.348 158.2V154.324H910.496V153.424H911.348V151.768H912.44V153.424H914.156V154.324H912.44ZM918.623 153.304C919.119 153.304 919.567 153.412 919.967 153.628C920.367 153.836 920.679 154.152 920.903 154.576C921.135 155 921.251 155.516 921.251 156.124V160H920.171V156.28C920.171 155.624 920.007 155.124 919.679 154.78C919.351 154.428 918.903 154.252 918.335 154.252C917.759 154.252 917.299 154.432 916.955 154.792C916.619 155.152 916.451 155.676 916.451 156.364V160H915.359V151.12H916.451V154.36C916.667 154.024 916.963 153.764 917.339 153.58C917.723 153.396 918.151 153.304 918.623 153.304ZM923.479 152.356C923.271 152.356 923.095 152.284 922.951 152.14C922.807 151.996 922.735 151.82 922.735 151.612C922.735 151.404 922.807 151.228 922.951 151.084C923.095 150.94 923.271 150.868 923.479 150.868C923.679 150.868 923.847 150.94 923.983 151.084C924.127 151.228 924.199 151.404 924.199 151.612C924.199 151.82 924.127 151.996 923.983 152.14C923.847 152.284 923.679 152.356 923.479 152.356ZM924.007 153.424V160H922.915V153.424H924.007ZM928.076 160.108C927.572 160.108 927.12 160.024 926.72 159.856C926.32 159.68 926.004 159.44 925.772 159.136C925.54 158.824 925.412 158.468 925.388 158.068H926.516C926.548 158.396 926.7 158.664 926.972 158.872C927.252 159.08 927.616 159.184 928.064 159.184C928.48 159.184 928.808 159.092 929.048 158.908C929.288 158.724 929.408 158.492 929.408 158.212C929.408 157.924 929.28 157.712 929.024 157.576C928.768 157.432 928.372 157.292 927.836 157.156C927.348 157.028 926.948 156.9 926.636 156.772C926.332 156.636 926.068 156.44 925.844 156.184C925.628 155.92 925.52 155.576 925.52 155.152C925.52 154.816 925.62 154.508 925.82 154.228C926.02 153.948 926.304 153.728 926.672 153.568C927.04 153.4 927.46 153.316 927.932 153.316C928.66 153.316 929.248 153.5 929.696 153.868C930.144 154.236 930.384 154.74 930.416 155.38H929.324C929.3 155.036 929.16 154.76 928.904 154.552C928.656 154.344 928.32 154.24 927.896 154.24C927.504 154.24 927.192 154.324 926.96 154.492C926.728 154.66 926.612 154.88 926.612 155.152C926.612 155.368 926.68 155.548 926.816 155.692C926.96 155.828 927.136 155.94 927.344 156.028C927.56 156.108 927.856 156.2 928.232 156.304C928.704 156.432 929.088 156.56 929.384 156.688C929.68 156.808 929.932 156.992 930.14 157.24C930.356 157.488 930.468 157.812 930.476 158.212C930.476 158.572 930.376 158.896 930.176 159.184C929.976 159.472 929.692 159.7 929.324 159.868C928.964 160.028 928.548 160.108 928.076 160.108ZM943.737 153.424L941.685 160H940.557L938.973 154.78L937.389 160H936.261L934.197 153.424H935.313L936.825 158.944L938.457 153.424H939.573L941.169 158.956L942.657 153.424H943.737ZM950.701 156.46C950.701 156.668 950.689 156.888 950.665 157.12H945.409C945.449 157.768 945.669 158.276 946.069 158.644C946.477 159.004 946.969 159.184 947.545 159.184C948.017 159.184 948.409 159.076 948.721 158.86C949.041 158.636 949.265 158.34 949.393 157.972H950.569C950.393 158.604 950.041 159.12 949.513 159.52C948.985 159.912 948.329 160.108 947.545 160.108C946.921 160.108 946.361 159.968 945.865 159.688C945.377 159.408 944.993 159.012 944.713 158.5C944.433 157.98 944.293 157.38 944.293 156.7C944.293 156.02 944.429 155.424 944.701 154.912C944.973 154.4 945.353 154.008 945.841 153.736C946.337 153.456 946.905 153.316 947.545 153.316C948.169 153.316 948.721 153.452 949.201 153.724C949.681 153.996 950.049 154.372 950.305 154.852C950.569 155.324 950.701 155.86 950.701 156.46ZM949.573 156.232C949.573 155.816 949.481 155.46 949.297 155.164C949.113 154.86 948.861 154.632 948.541 154.48C948.229 154.32 947.881 154.24 947.497 154.24C946.945 154.24 946.473 154.416 946.081 154.768C945.697 155.12 945.477 155.608 945.421 156.232H949.573ZM958.022 156.46C958.022 156.668 958.01 156.888 957.986 157.12H952.73C952.77 157.768 952.99 158.276 953.39 158.644C953.798 159.004 954.29 159.184 954.866 159.184C955.338 159.184 955.73 159.076 956.042 158.86C956.362 158.636 956.586 158.34 956.714 157.972H957.89C957.714 158.604 957.362 159.12 956.834 159.52C956.306 159.912 955.65 160.108 954.866 160.108C954.242 160.108 953.682 159.968 953.186 159.688C952.698 159.408 952.314 159.012 952.034 158.5C951.754 157.98 951.614 157.38 951.614 156.7C951.614 156.02 951.75 155.424 952.022 154.912C952.294 154.4 952.674 154.008 953.162 153.736C953.658 153.456 954.226 153.316 954.866 153.316C955.49 153.316 956.042 153.452 956.522 153.724C957.002 153.996 957.37 154.372 957.626 154.852C957.89 155.324 958.022 155.86 958.022 156.46ZM956.894 156.232C956.894 155.816 956.802 155.46 956.618 155.164C956.434 154.86 956.182 154.632 955.862 154.48C955.55 154.32 955.202 154.24 954.818 154.24C954.266 154.24 953.794 154.416 953.402 154.768C953.018 155.12 952.798 155.608 952.742 156.232H956.894ZM963.015 160L960.435 157.096V160H959.343V151.12H960.435V156.34L962.967 153.424H964.491L961.395 156.7L964.503 160H963.015Z" fill="#292D32"/>
<path d="M875 162L875 150" stroke="#00AC4F" stroke-width="2" stroke-linecap="round" stroke-linejoin="round"/>
<path d="M869.167 155L875 149.167L880.833 155" stroke="#00AC4F" stroke-width="2" stroke-linecap="round" stroke-linejoin="round"/>
<line x1="397.5" y1="81.5" x2="397.5" y2="167.5" stroke="#F0F0F0" stroke-linecap="round"/>
<line x1="708.5" y1="81.5" x2="708.5" y2="167.5" stroke="#F0F0F0" stroke-linecap="round"/>
<defs>
<filter id="filter0_d_0_4" x="0" y="0" width="1088" height="271" filterUnits="userSpaceOnUse" color-interpolation-filters="sRGB">
<feFlood flood-opacity="0" result="BackgroundImageFix"/>
<feColorMatrix in="SourceAlpha" type="matrix" values="0 0 0 0 0 0 0 0 0 0 0 0 0 0 0 0 0 0 127 0" result="hardAlpha"/>
<feOffset dy="10"/>
<feGaussianBlur stdDeviation="30"/>
<feComposite in2="hardAlpha" operator="out"/>
<feColorMatrix type="matrix" values="0 0 0 0 0.885625 0 0 0 0 0.92625 0 0 0 0 0.975 0 0 0 0.5 0"/>
<feBlend mode="normal" in2="BackgroundImageFix" result="effect1_dropShadow_0_4"/>
<feBlend mode="normal" in="SourceGraphic" in2="effect1_dropShadow_0_4" result="shape"/>
</filter>
<linearGradient id="paint0_linear_0_4" x1="197.55" y1="82" x2="165" y2="166" gradientUnits="userSpaceOnUse">
<stop stop-color="#D3FFE7"/>
<stop offset="1" stop-color="#EFFFF6"/>
</linearGradient>
<linearGradient id="paint1_linear_0_4" x1="516.55" y1="82" x2="484" y2="166" gradientUnits="userSpaceOnUse">
<stop stop-color="#CAF1FF"/>
<stop offset="1" stop-color="#CDF4FF"/>
</linearGradient>
<linearGradient id="paint2_linear_0_4" x1="835.55" y1="82" x2="803" y2="166" gradientUnits="userSpaceOnUse">
<stop stop-color="#FFA3CF"/>
<stop offset="1" stop-color="#FFD5F3"/>
</linearGradient>
</defs>
</svg>




