<svg width="127" height="23" viewBox="0 0 127 23" fill="none" xmlns="http://www.w3.org/2000/svg">
<path d="M9.032 18.144C7.368 18.144 5.864 17.776 4.52 17.04C3.192 16.304 2.144 15.288 1.376 13.992C0.624 12.68 0.248 11.216 0.248 9.6C0.248 7.984 0.624 6.528 1.376 5.232C2.144 3.92 3.2 2.896 4.544 2.16C5.888 1.424 7.392 1.056 9.056 1.056C10.304 1.056 11.456 1.264 12.512 1.68C13.568 2.096 14.464 2.704 15.2 3.504L14.072 4.632C12.76 3.304 11.104 2.64 9.104 2.64C7.776 2.64 6.568 2.944 5.48 3.552C4.392 4.16 3.536 4.992 2.912 6.048C2.304 7.104 2 8.288 2 9.6C2 10.912 2.304 12.096 2.912 13.152C3.536 14.208 4.392 15.04 5.48 15.648C6.568 16.256 7.776 16.56 9.104 16.56C11.12 16.56 12.776 15.888 14.072 14.544L15.2 15.672C14.464 16.472 13.56 17.088 12.488 17.52C11.432 17.936 10.28 18.144 9.032 18.144ZM22.8545 5.28C24.5025 5.28 25.7665 5.696 26.6465 6.528C27.5265 7.344 27.9665 8.56 27.9665 10.176V18H26.3345V16.032C25.9505 16.688 25.3825 17.2 24.6305 17.568C23.8945 17.936 23.0145 18.12 21.9905 18.12C20.5825 18.12 19.4625 17.784 18.6305 17.112C17.7985 16.44 17.3825 15.552 17.3825 14.448C17.3825 13.376 17.7665 12.512 18.5345 11.856C19.3185 11.2 20.5585 10.872 22.2545 10.872H26.2625V10.104C26.2625 9.016 25.9585 8.192 25.3505 7.632C24.7425 7.056 23.8545 6.768 22.6865 6.768C21.8865 6.768 21.1185 6.904 20.3825 7.176C19.6465 7.432 19.0145 7.792 18.4865 8.256L17.7185 6.984C18.3585 6.44 19.1265 6.024 20.0225 5.736C20.9185 5.432 21.8625 5.28 22.8545 5.28ZM22.2545 16.776C23.2145 16.776 24.0385 16.56 24.7265 16.128C25.4145 15.68 25.9265 15.04 26.2625 14.208V12.144H22.3025C20.1425 12.144 19.0625 12.896 19.0625 14.4C19.0625 15.136 19.3425 15.72 19.9025 16.152C20.4625 16.568 21.2465 16.776 22.2545 16.776ZM39.2428 17.232C38.9228 17.52 38.5228 17.744 38.0428 17.904C37.5788 18.048 37.0908 18.12 36.5788 18.12C35.3948 18.12 34.4828 17.8 33.8428 17.16C33.2028 16.52 32.8828 15.616 32.8828 14.448V6.816H30.6268V5.376H32.8828V2.616H34.5868V5.376H38.4268V6.816H34.5868V14.352C34.5868 15.104 34.7708 15.68 35.1388 16.08C35.5228 16.464 36.0668 16.656 36.7708 16.656C37.1228 16.656 37.4588 16.6 37.7788 16.488C38.1148 16.376 38.4028 16.216 38.6428 16.008L39.2428 17.232ZM52.8914 12.216H42.3314C42.4274 13.528 42.9314 14.592 43.8434 15.408C44.7554 16.208 45.9074 16.608 47.2994 16.608C48.0834 16.608 48.8034 16.472 49.4594 16.2C50.1154 15.912 50.6834 15.496 51.1634 14.952L52.1234 16.056C51.5634 16.728 50.8594 17.24 50.0114 17.592C49.1794 17.944 48.2594 18.12 47.2514 18.12C45.9554 18.12 44.8034 17.848 43.7954 17.304C42.8034 16.744 42.0274 15.976 41.4674 15C40.9074 14.024 40.6274 12.92 40.6274 11.688C40.6274 10.456 40.8914 9.352 41.4194 8.376C41.9634 7.4 42.6994 6.64 43.6274 6.096C44.5714 5.552 45.6274 5.28 46.7954 5.28C47.9634 5.28 49.0114 5.552 49.9394 6.096C50.8674 6.64 51.5954 7.4 52.1234 8.376C52.6514 9.336 52.9154 10.44 52.9154 11.688L52.8914 12.216ZM46.7954 6.744C45.5794 6.744 44.5554 7.136 43.7234 7.92C42.9074 8.688 42.4434 9.696 42.3314 10.944H51.2834C51.1714 9.696 50.6994 8.688 49.8674 7.92C49.0514 7.136 48.0274 6.744 46.7954 6.744ZM68.0718 5.376V16.464C68.0718 18.608 67.5438 20.192 66.4878 21.216C65.4478 22.256 63.8718 22.776 61.7598 22.776C60.5918 22.776 59.4798 22.6 58.4238 22.248C57.3838 21.912 56.5358 21.44 55.8798 20.832L56.7438 19.536C57.3518 20.08 58.0878 20.504 58.9518 20.808C59.8318 21.112 60.7518 21.264 61.7118 21.264C63.3118 21.264 64.4878 20.888 65.2398 20.136C65.9918 19.4 66.3678 18.248 66.3678 16.68V15.072C65.8398 15.872 65.1438 16.48 64.2798 16.896C63.4318 17.312 62.4878 17.52 61.4478 17.52C60.2638 17.52 59.1838 17.264 58.2078 16.752C57.2478 16.224 56.4878 15.496 55.9278 14.568C55.3838 13.624 55.1118 12.56 55.1118 11.376C55.1118 10.192 55.3838 9.136 55.9278 8.208C56.4878 7.28 57.2478 6.56 58.2078 6.048C59.1678 5.536 60.2478 5.28 61.4478 5.28C62.5198 5.28 63.4878 5.496 64.3518 5.928C65.2158 6.36 65.9118 6.984 66.4398 7.8V5.376H68.0718ZM61.6158 16.008C62.5278 16.008 63.3518 15.816 64.0878 15.432C64.8238 15.032 65.3918 14.48 65.7918 13.776C66.2078 13.072 66.4158 12.272 66.4158 11.376C66.4158 10.48 66.2078 9.688 65.7918 9C65.3918 8.296 64.8238 7.752 64.0878 7.368C63.3678 6.968 62.5438 6.768 61.6158 6.768C60.7038 6.768 59.8798 6.96 59.1438 7.344C58.4238 7.728 57.8558 8.272 57.4398 8.976C57.0398 9.68 56.8398 10.48 56.8398 11.376C56.8398 12.272 57.0398 13.072 57.4398 13.776C57.8558 14.48 58.4238 15.032 59.1438 15.432C59.8798 15.816 60.7038 16.008 61.6158 16.008ZM77.9969 18.12C76.7809 18.12 75.6849 17.848 74.7089 17.304C73.7329 16.744 72.9649 15.976 72.4049 15C71.8449 14.024 71.5649 12.92 71.5649 11.688C71.5649 10.456 71.8449 9.352 72.4049 8.376C72.9649 7.4 73.7329 6.64 74.7089 6.096C75.6849 5.552 76.7809 5.28 77.9969 5.28C79.2129 5.28 80.3089 5.552 81.2849 6.096C82.2609 6.64 83.0209 7.4 83.5649 8.376C84.1249 9.352 84.4049 10.456 84.4049 11.688C84.4049 12.92 84.1249 14.024 83.5649 15C83.0209 15.976 82.2609 16.744 81.2849 17.304C80.3089 17.848 79.2129 18.12 77.9969 18.12ZM77.9969 16.608C78.8929 16.608 79.6929 16.408 80.3969 16.008C81.1169 15.592 81.6769 15.008 82.0769 14.256C82.4769 13.504 82.6769 12.648 82.6769 11.688C82.6769 10.728 82.4769 9.872 82.0769 9.12C81.6769 8.368 81.1169 7.792 80.3969 7.392C79.6929 6.976 78.8929 6.768 77.9969 6.768C77.1009 6.768 76.2929 6.976 75.5729 7.392C74.8689 7.792 74.3089 8.368 73.8929 9.12C73.4929 9.872 73.2929 10.728 73.2929 11.688C73.2929 12.648 73.4929 13.504 73.8929 14.256C74.3089 15.008 74.8689 15.592 75.5729 16.008C76.2929 16.408 77.1009 16.608 77.9969 16.608ZM89.5158 7.848C89.9158 7 90.5078 6.36 91.2918 5.928C92.0918 5.496 93.0758 5.28 94.2438 5.28V6.936L93.8358 6.912C92.5078 6.912 91.4678 7.32 90.7158 8.136C89.9638 8.952 89.5878 10.096 89.5878 11.568V18H87.8838V5.376H89.5158V7.848ZM97.3291 5.376H99.0331V18H97.3291V5.376ZM98.1931 2.616C97.8411 2.616 97.5451 2.496 97.3051 2.256C97.0651 2.016 96.9451 1.728 96.9451 1.392C96.9451 1.072 97.0651 0.791999 97.3051 0.551999C97.5451 0.311999 97.8411 0.191999 98.1931 0.191999C98.5451 0.191999 98.8411 0.311999 99.0811 0.551999C99.3211 0.775999 99.4411 1.048 99.4411 1.368C99.4411 1.72 99.3211 2.016 99.0811 2.256C98.8411 2.496 98.5451 2.616 98.1931 2.616ZM114.766 12.216H104.206C104.302 13.528 104.806 14.592 105.718 15.408C106.63 16.208 107.782 16.608 109.174 16.608C109.958 16.608 110.678 16.472 111.334 16.2C111.99 15.912 112.558 15.496 113.038 14.952L113.998 16.056C113.438 16.728 112.734 17.24 111.886 17.592C111.054 17.944 110.134 18.12 109.126 18.12C107.83 18.12 106.678 17.848 105.67 17.304C104.678 16.744 103.902 15.976 103.342 15C102.782 14.024 102.502 12.92 102.502 11.688C102.502 10.456 102.766 9.352 103.294 8.376C103.838 7.4 104.574 6.64 105.502 6.096C106.446 5.552 107.502 5.28 108.67 5.28C109.838 5.28 110.886 5.552 111.814 6.096C112.742 6.64 113.47 7.4 113.998 8.376C114.526 9.336 114.79 10.44 114.79 11.688L114.766 12.216ZM108.67 6.744C107.454 6.744 106.43 7.136 105.598 7.92C104.782 8.688 104.318 9.696 104.206 10.944H113.158C113.046 9.696 112.574 8.688 111.742 7.92C110.926 7.136 109.902 6.744 108.67 6.744ZM121.643 18.12C120.619 18.12 119.635 17.976 118.691 17.688C117.763 17.384 117.035 17.008 116.507 16.56L117.275 15.216C117.803 15.632 118.467 15.976 119.267 16.248C120.067 16.504 120.899 16.632 121.763 16.632C122.915 16.632 123.763 16.456 124.307 16.104C124.867 15.736 125.147 15.224 125.147 14.568C125.147 14.104 124.995 13.744 124.691 13.488C124.387 13.216 124.003 13.016 123.539 12.888C123.075 12.744 122.459 12.608 121.691 12.48C120.667 12.288 119.843 12.096 119.219 11.904C118.595 11.696 118.059 11.352 117.611 10.872C117.179 10.392 116.963 9.728 116.963 8.88C116.963 7.824 117.403 6.96 118.283 6.288C119.163 5.616 120.387 5.28 121.955 5.28C122.771 5.28 123.587 5.392 124.403 5.616C125.219 5.824 125.891 6.104 126.419 6.456L125.675 7.824C124.635 7.104 123.395 6.744 121.955 6.744C120.867 6.744 120.043 6.936 119.483 7.32C118.939 7.704 118.667 8.208 118.667 8.832C118.667 9.312 118.819 9.696 119.123 9.984C119.443 10.272 119.835 10.488 120.299 10.632C120.763 10.76 121.403 10.896 122.219 11.04C123.227 11.232 124.035 11.424 124.643 11.616C125.251 11.808 125.771 12.136 126.203 12.6C126.635 13.064 126.851 13.704 126.851 14.52C126.851 15.624 126.387 16.504 125.459 17.16C124.547 17.8 123.275 18.12 121.643 18.12Z" fill="#363636"/>
</svg>
