<svg width="183" height="23" viewBox="0 0 183 23" fill="none" xmlns="http://www.w3.org/2000/svg">
<path d="M9.032 18.144C7.368 18.144 5.864 17.776 4.52 17.04C3.192 16.304 2.144 15.288 1.376 13.992C0.624 12.68 0.248 11.216 0.248 9.6C0.248 7.984 0.624 6.528 1.376 5.232C2.144 3.92 3.2 2.896 4.544 2.16C5.888 1.424 7.392 1.056 9.056 1.056C10.304 1.056 11.456 1.264 12.512 1.68C13.568 2.096 14.464 2.704 15.2 3.504L14.072 4.632C12.76 3.304 11.104 2.64 9.104 2.64C7.776 2.64 6.568 2.944 5.48 3.552C4.392 4.16 3.536 4.992 2.912 6.048C2.304 7.104 2 8.288 2 9.6C2 10.912 2.304 12.096 2.912 13.152C3.536 14.208 4.392 15.04 5.48 15.648C6.568 16.256 7.776 16.56 9.104 16.56C11.12 16.56 12.776 15.888 14.072 14.544L15.2 15.672C14.464 16.472 13.56 17.088 12.488 17.52C11.432 17.936 10.28 18.144 9.032 18.144ZM29.5801 5.376V18H27.9481V15.696C27.5001 16.464 26.8841 17.064 26.1001 17.496C25.3161 17.912 24.4201 18.12 23.4121 18.12C21.7641 18.12 20.4601 17.664 19.5001 16.752C18.5561 15.824 18.0841 14.472 18.0841 12.696V5.376H19.7881V12.528C19.7881 13.856 20.1161 14.864 20.7721 15.552C21.4281 16.24 22.3641 16.584 23.5801 16.584C24.9081 16.584 25.9561 16.184 26.7241 15.384C27.4921 14.568 27.8761 13.44 27.8761 12V5.376H29.5801ZM35.9846 7.848C36.3846 7 36.9766 6.36 37.7606 5.928C38.5606 5.496 39.5446 5.28 40.7126 5.28V6.936L40.3046 6.912C38.9766 6.912 37.9366 7.32 37.1846 8.136C36.4326 8.952 36.0566 10.096 36.0566 11.568V18H34.3526V5.376H35.9846V7.848ZM48.1904 5.28C49.8384 5.28 51.1024 5.696 51.9824 6.528C52.8624 7.344 53.3024 8.56 53.3024 10.176V18H51.6704V16.032C51.2864 16.688 50.7184 17.2 49.9664 17.568C49.2304 17.936 48.3504 18.12 47.3264 18.12C45.9184 18.12 44.7984 17.784 43.9664 17.112C43.1344 16.44 42.7184 15.552 42.7184 14.448C42.7184 13.376 43.1024 12.512 43.8704 11.856C44.6544 11.2 45.8944 10.872 47.5904 10.872H51.5984V10.104C51.5984 9.016 51.2944 8.192 50.6864 7.632C50.0784 7.056 49.1904 6.768 48.0224 6.768C47.2224 6.768 46.4544 6.904 45.7184 7.176C44.9824 7.432 44.3504 7.792 43.8224 8.256L43.0544 6.984C43.6944 6.44 44.4624 6.024 45.3584 5.736C46.2544 5.432 47.1984 5.28 48.1904 5.28ZM47.5904 16.776C48.5504 16.776 49.3744 16.56 50.0624 16.128C50.7504 15.68 51.2624 15.04 51.5984 14.208V12.144H47.6384C45.4784 12.144 44.3984 12.896 44.3984 14.4C44.3984 15.136 44.6784 15.72 45.2384 16.152C45.7984 16.568 46.5824 16.776 47.5904 16.776ZM64.5787 17.232C64.2587 17.52 63.8587 17.744 63.3787 17.904C62.9147 18.048 62.4267 18.12 61.9147 18.12C60.7307 18.12 59.8187 17.8 59.1787 17.16C58.5387 16.52 58.2187 15.616 58.2187 14.448V6.816H55.9627V5.376H58.2187V2.616H59.9227V5.376H63.7627V6.816H59.9227V14.352C59.9227 15.104 60.1067 15.68 60.4747 16.08C60.8587 16.464 61.4027 16.656 62.1067 16.656C62.4587 16.656 62.7947 16.6 63.1147 16.488C63.4507 16.376 63.7387 16.216 63.9787 16.008L64.5787 17.232ZM78.2274 12.216H67.6674C67.7634 13.528 68.2674 14.592 69.1794 15.408C70.0914 16.208 71.2434 16.608 72.6354 16.608C73.4194 16.608 74.1394 16.472 74.7954 16.2C75.4514 15.912 76.0194 15.496 76.4994 14.952L77.4594 16.056C76.8994 16.728 76.1954 17.24 75.3474 17.592C74.5154 17.944 73.5954 18.12 72.5874 18.12C71.2914 18.12 70.1394 17.848 69.1314 17.304C68.1394 16.744 67.3634 15.976 66.8034 15C66.2434 14.024 65.9634 12.92 65.9634 11.688C65.9634 10.456 66.2274 9.352 66.7554 8.376C67.2994 7.4 68.0354 6.64 68.9634 6.096C69.9074 5.552 70.9634 5.28 72.1314 5.28C73.2994 5.28 74.3474 5.552 75.2754 6.096C76.2034 6.64 76.9314 7.4 77.4594 8.376C77.9874 9.336 78.2514 10.44 78.2514 11.688L78.2274 12.216ZM72.1314 6.744C70.9154 6.744 69.8914 7.136 69.0594 7.92C68.2434 8.688 67.7794 9.696 67.6674 10.944H76.6194C76.5074 9.696 76.0354 8.688 75.2034 7.92C74.3874 7.136 73.3634 6.744 72.1314 6.744ZM93.2398 0.191999V18H91.6078V15.504C91.0958 16.352 90.4158 17 89.5678 17.448C88.7358 17.896 87.7918 18.12 86.7358 18.12C85.5518 18.12 84.4798 17.848 83.5198 17.304C82.5598 16.76 81.8078 16 81.2638 15.024C80.7198 14.048 80.4478 12.936 80.4478 11.688C80.4478 10.44 80.7198 9.328 81.2638 8.352C81.8078 7.376 82.5598 6.624 83.5198 6.096C84.4798 5.552 85.5518 5.28 86.7358 5.28C87.7598 5.28 88.6798 5.496 89.4958 5.928C90.3278 6.344 91.0078 6.96 91.5358 7.776V0.191999H93.2398ZM86.8798 16.608C87.7598 16.608 88.5518 16.408 89.2558 16.008C89.9758 15.592 90.5358 15.008 90.9358 14.256C91.3518 13.504 91.5598 12.648 91.5598 11.688C91.5598 10.728 91.3518 9.872 90.9358 9.12C90.5358 8.368 89.9758 7.792 89.2558 7.392C88.5518 6.976 87.7598 6.768 86.8798 6.768C85.9838 6.768 85.1758 6.976 84.4558 7.392C83.7518 7.792 83.1918 8.368 82.7758 9.12C82.3758 9.872 82.1758 10.728 82.1758 11.688C82.1758 12.648 82.3758 13.504 82.7758 14.256C83.1918 15.008 83.7518 15.592 84.4558 16.008C85.1758 16.408 85.9838 16.608 86.8798 16.608ZM108.443 1.512C107.707 1.512 107.147 1.712 106.763 2.112C106.395 2.512 106.211 3.104 106.211 3.888V5.376H110.099V6.816H106.259V18H104.555V6.816H102.299V5.376H104.555V3.816C104.555 2.664 104.883 1.752 105.539 1.08C106.211 0.407999 107.155 0.0719991 108.371 0.0719991C108.851 0.0719991 109.315 0.143999 109.763 0.287999C110.211 0.415999 110.587 0.607999 110.891 0.863999L110.315 2.136C109.819 1.72 109.195 1.512 108.443 1.512ZM117.349 18.12C116.133 18.12 115.037 17.848 114.061 17.304C113.085 16.744 112.317 15.976 111.757 15C111.197 14.024 110.917 12.92 110.917 11.688C110.917 10.456 111.197 9.352 111.757 8.376C112.317 7.4 113.085 6.64 114.061 6.096C115.037 5.552 116.133 5.28 117.349 5.28C118.565 5.28 119.661 5.552 120.637 6.096C121.613 6.64 122.373 7.4 122.917 8.376C123.477 9.352 123.757 10.456 123.757 11.688C123.757 12.92 123.477 14.024 122.917 15C122.373 15.976 121.613 16.744 120.637 17.304C119.661 17.848 118.565 18.12 117.349 18.12ZM117.349 16.608C118.245 16.608 119.045 16.408 119.749 16.008C120.469 15.592 121.029 15.008 121.429 14.256C121.829 13.504 122.029 12.648 122.029 11.688C122.029 10.728 121.829 9.872 121.429 9.12C121.029 8.368 120.469 7.792 119.749 7.392C119.045 6.976 118.245 6.768 117.349 6.768C116.453 6.768 115.645 6.976 114.925 7.392C114.221 7.792 113.661 8.368 113.245 9.12C112.845 9.872 112.645 10.728 112.645 11.688C112.645 12.648 112.845 13.504 113.245 14.256C113.661 15.008 114.221 15.592 114.925 16.008C115.645 16.408 116.453 16.608 117.349 16.608ZM128.867 7.848C129.267 7 129.859 6.36 130.643 5.928C131.443 5.496 132.427 5.28 133.595 5.28V6.936L133.187 6.912C131.859 6.912 130.819 7.32 130.067 8.136C129.315 8.952 128.939 10.096 128.939 11.568V18H127.235V5.376H128.867V7.848ZM153.757 5.376L147.445 19.512C146.933 20.696 146.341 21.536 145.669 22.032C144.997 22.528 144.189 22.776 143.245 22.776C142.637 22.776 142.069 22.68 141.541 22.488C141.013 22.296 140.557 22.008 140.173 21.624L140.965 20.352C141.605 20.992 142.373 21.312 143.269 21.312C143.845 21.312 144.333 21.152 144.733 20.832C145.149 20.512 145.533 19.968 145.885 19.2L146.437 17.976L140.797 5.376H142.573L147.325 16.104L152.077 5.376H153.757ZM160.966 18.12C159.75 18.12 158.654 17.848 157.678 17.304C156.702 16.744 155.934 15.976 155.374 15C154.814 14.024 154.534 12.92 154.534 11.688C154.534 10.456 154.814 9.352 155.374 8.376C155.934 7.4 156.702 6.64 157.678 6.096C158.654 5.552 159.75 5.28 160.966 5.28C162.182 5.28 163.278 5.552 164.254 6.096C165.23 6.64 165.99 7.4 166.534 8.376C167.094 9.352 167.374 10.456 167.374 11.688C167.374 12.92 167.094 14.024 166.534 15C165.99 15.976 165.23 16.744 164.254 17.304C163.278 17.848 162.182 18.12 160.966 18.12ZM160.966 16.608C161.862 16.608 162.662 16.408 163.366 16.008C164.086 15.592 164.646 15.008 165.046 14.256C165.446 13.504 165.646 12.648 165.646 11.688C165.646 10.728 165.446 9.872 165.046 9.12C164.646 8.368 164.086 7.792 163.366 7.392C162.662 6.976 161.862 6.768 160.966 6.768C160.07 6.768 159.262 6.976 158.542 7.392C157.838 7.792 157.278 8.368 156.862 9.12C156.462 9.872 156.262 10.728 156.262 11.688C156.262 12.648 156.462 13.504 156.862 14.256C157.278 15.008 157.838 15.592 158.542 16.008C159.262 16.408 160.07 16.608 160.966 16.608ZM182.229 5.376V18H180.597V15.696C180.149 16.464 179.533 17.064 178.749 17.496C177.965 17.912 177.069 18.12 176.061 18.12C174.413 18.12 173.109 17.664 172.149 16.752C171.205 15.824 170.733 14.472 170.733 12.696V5.376H172.437V12.528C172.437 13.856 172.765 14.864 173.421 15.552C174.077 16.24 175.013 16.584 176.229 16.584C177.557 16.584 178.605 16.184 179.373 15.384C180.141 14.568 180.525 13.44 180.525 12V5.376H182.229Z" fill="#363636"/>
</svg>
