<svg width="113" height="19" viewBox="0 0 113 19" fill="none" xmlns="http://www.w3.org/2000/svg">
<path d="M18.184 1.2V18H16.48V4.56L9.88 15.864H9.04L2.44 4.632V18H0.736V1.2H2.2L9.496 13.656L16.72 1.2H18.184ZM34.2899 12.216H23.7299C23.8259 13.528 24.3299 14.592 25.2419 15.408C26.1539 16.208 27.3059 16.608 28.6979 16.608C29.4819 16.608 30.2019 16.472 30.8579 16.2C31.5139 15.912 32.0819 15.496 32.5619 14.952L33.5219 16.056C32.9619 16.728 32.2579 17.24 31.4099 17.592C30.5779 17.944 29.6579 18.12 28.6499 18.12C27.3539 18.12 26.2019 17.848 25.1939 17.304C24.2019 16.744 23.4259 15.976 22.8659 15C22.3059 14.024 22.0259 12.92 22.0259 11.688C22.0259 10.456 22.2899 9.352 22.8179 8.376C23.3619 7.4 24.0979 6.64 25.0259 6.096C25.9699 5.552 27.0259 5.28 28.1939 5.28C29.3619 5.28 30.4099 5.552 31.3379 6.096C32.2659 6.64 32.9939 7.4 33.5219 8.376C34.0499 9.336 34.3139 10.44 34.3139 11.688L34.2899 12.216ZM28.1939 6.744C26.9779 6.744 25.9539 7.136 25.1219 7.92C24.3059 8.688 23.8419 9.696 23.7299 10.944H32.6819C32.5699 9.696 32.0979 8.688 31.2659 7.92C30.4499 7.136 29.4259 6.744 28.1939 6.744ZM53.5263 5.28C55.1103 5.28 56.3503 5.736 57.2463 6.648C58.1583 7.56 58.6143 8.904 58.6143 10.68V18H56.9103V10.848C56.9103 9.536 56.5903 8.536 55.9503 7.848C55.3263 7.16 54.4383 6.816 53.2863 6.816C51.9743 6.816 50.9423 7.224 50.1903 8.04C49.4383 8.84 49.0623 9.952 49.0623 11.376V18H47.3583V10.848C47.3583 9.536 47.0383 8.536 46.3983 7.848C45.7743 7.16 44.8783 6.816 43.7103 6.816C42.4143 6.816 41.3823 7.224 40.6143 8.04C39.8623 8.84 39.4863 9.952 39.4863 11.376V18H37.7823V5.376H39.4143V7.68C39.8623 6.912 40.4863 6.32 41.2863 5.904C42.0863 5.488 43.0063 5.28 44.0463 5.28C45.1023 5.28 46.0143 5.504 46.7823 5.952C47.5663 6.4 48.1503 7.064 48.5343 7.944C48.9983 7.112 49.6623 6.464 50.5263 6C51.4063 5.52 52.4063 5.28 53.5263 5.28ZM69.7394 5.28C70.9234 5.28 71.9954 5.552 72.9554 6.096C73.9154 6.624 74.6674 7.376 75.2114 8.352C75.7554 9.328 76.0274 10.44 76.0274 11.688C76.0274 12.936 75.7554 14.048 75.2114 15.024C74.6674 16 73.9154 16.76 72.9554 17.304C71.9954 17.848 70.9234 18.12 69.7394 18.12C68.6834 18.12 67.7314 17.896 66.8834 17.448C66.0514 17 65.3794 16.352 64.8674 15.504V18H63.2354V0.191999H64.9394V7.776C65.4674 6.96 66.1394 6.344 66.9554 5.928C67.7874 5.496 68.7154 5.28 69.7394 5.28ZM69.6194 16.608C70.4994 16.608 71.2994 16.408 72.0194 16.008C72.7394 15.592 73.2994 15.008 73.6994 14.256C74.1154 13.504 74.3234 12.648 74.3234 11.688C74.3234 10.728 74.1154 9.872 73.6994 9.12C73.2994 8.368 72.7394 7.792 72.0194 7.392C71.2994 6.976 70.4994 6.768 69.6194 6.768C68.7234 6.768 67.9154 6.976 67.1954 7.392C66.4914 7.792 65.9314 8.368 65.5154 9.12C65.1154 9.872 64.9154 10.728 64.9154 11.688C64.9154 12.648 65.1154 13.504 65.5154 14.256C65.9314 15.008 66.4914 15.592 67.1954 16.008C67.9154 16.408 68.7234 16.608 69.6194 16.608ZM90.493 12.216H79.933C80.029 13.528 80.533 14.592 81.445 15.408C82.357 16.208 83.509 16.608 84.901 16.608C85.685 16.608 86.405 16.472 87.061 16.2C87.717 15.912 88.285 15.496 88.765 14.952L89.725 16.056C89.165 16.728 88.461 17.24 87.613 17.592C86.781 17.944 85.861 18.12 84.853 18.12C83.557 18.12 82.405 17.848 81.397 17.304C80.405 16.744 79.629 15.976 79.069 15C78.509 14.024 78.229 12.92 78.229 11.688C78.229 10.456 78.493 9.352 79.021 8.376C79.565 7.4 80.301 6.64 81.229 6.096C82.173 5.552 83.229 5.28 84.397 5.28C85.565 5.28 86.613 5.552 87.541 6.096C88.469 6.64 89.197 7.4 89.725 8.376C90.253 9.336 90.517 10.44 90.517 11.688L90.493 12.216ZM84.397 6.744C83.181 6.744 82.157 7.136 81.325 7.92C80.509 8.688 80.045 9.696 79.933 10.944H88.885C88.773 9.696 88.301 8.688 87.469 7.92C86.653 7.136 85.629 6.744 84.397 6.744ZM95.6174 7.848C96.0174 7 96.6094 6.36 97.3934 5.928C98.1934 5.496 99.1774 5.28 100.345 5.28V6.936L99.9374 6.912C98.6094 6.912 97.5694 7.32 96.8174 8.136C96.0654 8.952 95.6894 10.096 95.6894 11.568V18H93.9854V5.376H95.6174V7.848ZM106.908 18.12C105.884 18.12 104.9 17.976 103.956 17.688C103.028 17.384 102.3 17.008 101.772 16.56L102.54 15.216C103.068 15.632 103.732 15.976 104.532 16.248C105.332 16.504 106.164 16.632 107.028 16.632C108.18 16.632 109.028 16.456 109.572 16.104C110.132 15.736 110.412 15.224 110.412 14.568C110.412 14.104 110.26 13.744 109.956 13.488C109.652 13.216 109.268 13.016 108.804 12.888C108.34 12.744 107.724 12.608 106.956 12.48C105.932 12.288 105.108 12.096 104.484 11.904C103.86 11.696 103.324 11.352 102.876 10.872C102.444 10.392 102.228 9.728 102.228 8.88C102.228 7.824 102.668 6.96 103.548 6.288C104.428 5.616 105.652 5.28 107.22 5.28C108.036 5.28 108.852 5.392 109.668 5.616C110.484 5.824 111.156 6.104 111.684 6.456L110.94 7.824C109.9 7.104 108.66 6.744 107.22 6.744C106.132 6.744 105.308 6.936 104.748 7.32C104.204 7.704 103.932 8.208 103.932 8.832C103.932 9.312 104.084 9.696 104.388 9.984C104.708 10.272 105.1 10.488 105.564 10.632C106.028 10.76 106.668 10.896 107.484 11.04C108.492 11.232 109.3 11.424 109.908 11.616C110.516 11.808 111.036 12.136 111.468 12.6C111.9 13.064 112.116 13.704 112.116 14.52C112.116 15.624 111.652 16.504 110.724 17.16C109.812 17.8 108.54 18.12 106.908 18.12Z" fill="#363636"/>
</svg>
