<svg width="244" height="24" viewBox="0 0 244 24" fill="none" xmlns="http://www.w3.org/2000/svg">
<path d="M12.44 23.192C10.2213 23.192 8.20533 22.7013 6.392 21.72C4.6 20.7173 3.192 19.352 2.168 17.624C1.16533 15.896 0.664 13.9547 0.664 11.8C0.664 9.64533 1.16533 7.704 2.168 5.976C3.192 4.248 4.6 2.89333 6.392 1.912C8.20533 0.909332 10.2213 0.407999 12.44 0.407999C14.6587 0.407999 16.6533 0.898666 18.424 1.88C20.216 2.86133 21.624 4.22667 22.648 5.976C23.672 7.704 24.184 9.64533 24.184 11.8C24.184 13.9547 23.672 15.9067 22.648 17.656C21.624 19.384 20.216 20.7387 18.424 21.72C16.6533 22.7013 14.6587 23.192 12.44 23.192ZM12.44 21.08C14.2107 21.08 15.8107 20.6853 17.24 19.896C18.6693 19.0853 19.7893 17.976 20.6 16.568C21.4107 15.1387 21.816 13.5493 21.816 11.8C21.816 10.0507 21.4107 8.472 20.6 7.064C19.7893 5.63467 18.6693 4.52533 17.24 3.736C15.8107 2.92533 14.2107 2.52 12.44 2.52C10.6693 2.52 9.05867 2.92533 7.608 3.736C6.17867 4.52533 5.048 5.63467 4.216 7.064C3.40533 8.472 3 10.0507 3 11.8C3 13.5493 3.40533 15.1387 4.216 16.568C5.048 17.976 6.17867 19.0853 7.608 19.896C9.05867 20.6853 10.6693 21.08 12.44 21.08ZM48.2118 0.599998V23H46.2598L31.8598 4.824V23H29.4918V0.599998H31.4438L45.8758 18.776V0.599998H48.2118ZM55.523 0.599998H57.891V20.952H70.435V23H55.523V0.599998ZM79.6718 15.256V23H77.3358V15.256L68.3758 0.599998H70.9038L78.5838 13.176L86.2638 0.599998H88.6318L79.6718 15.256ZM103.047 2.648V11.448H114.631V13.496H103.047V23H100.679V0.599998H116.039V2.648H103.047ZM130.44 23.192C128.221 23.192 126.205 22.7013 124.392 21.72C122.6 20.7173 121.192 19.352 120.168 17.624C119.165 15.896 118.664 13.9547 118.664 11.8C118.664 9.64533 119.165 7.704 120.168 5.976C121.192 4.248 122.6 2.89333 124.392 1.912C126.205 0.909332 128.221 0.407999 130.44 0.407999C132.659 0.407999 134.653 0.898666 136.424 1.88C138.216 2.86133 139.624 4.22667 140.648 5.976C141.672 7.704 142.184 9.64533 142.184 11.8C142.184 13.9547 141.672 15.9067 140.648 17.656C139.624 19.384 138.216 20.7387 136.424 21.72C134.653 22.7013 132.659 23.192 130.44 23.192ZM130.44 21.08C132.211 21.08 133.811 20.6853 135.24 19.896C136.669 19.0853 137.789 17.976 138.6 16.568C139.411 15.1387 139.816 13.5493 139.816 11.8C139.816 10.0507 139.411 8.472 138.6 7.064C137.789 5.63467 136.669 4.52533 135.24 3.736C133.811 2.92533 132.211 2.52 130.44 2.52C128.669 2.52 127.059 2.92533 125.608 3.736C124.179 4.52533 123.048 5.63467 122.216 7.064C121.405 8.472 121 10.0507 121 11.8C121 13.5493 121.405 15.1387 122.216 16.568C123.048 17.976 124.179 19.0853 125.608 19.896C127.059 20.6853 128.669 21.08 130.44 21.08ZM162.788 23L157.668 15.8C157.092 15.864 156.494 15.896 155.876 15.896H149.86V23H147.492V0.599998H155.876C158.734 0.599998 160.974 1.28267 162.596 2.648C164.217 4.01333 165.028 5.89067 165.028 8.28C165.028 10.0293 164.58 11.512 163.684 12.728C162.809 13.9227 161.55 14.7867 159.908 15.32L165.38 23H162.788ZM155.812 13.88C158.03 13.88 159.726 13.3893 160.9 12.408C162.073 11.4267 162.66 10.0507 162.66 8.28C162.66 6.46667 162.073 5.08 160.9 4.12C159.726 3.13867 158.03 2.648 155.812 2.648H149.86V13.88H155.812ZM186.672 15.256V23H184.336V15.256L175.376 0.599998H177.904L185.584 13.176L193.264 0.599998H195.632L186.672 15.256ZM208.128 23.192C205.909 23.192 203.893 22.7013 202.08 21.72C200.288 20.7173 198.88 19.352 197.856 17.624C196.853 15.896 196.352 13.9547 196.352 11.8C196.352 9.64533 196.853 7.704 197.856 5.976C198.88 4.248 200.288 2.89333 202.08 1.912C203.893 0.909332 205.909 0.407999 208.128 0.407999C210.346 0.407999 212.341 0.898666 214.112 1.88C215.904 2.86133 217.312 4.22667 218.336 5.976C219.36 7.704 219.872 9.64533 219.872 11.8C219.872 13.9547 219.36 15.9067 218.336 17.656C217.312 19.384 215.904 20.7387 214.112 21.72C212.341 22.7013 210.346 23.192 208.128 23.192ZM208.128 21.08C209.898 21.08 211.498 20.6853 212.928 19.896C214.357 19.0853 215.477 17.976 216.288 16.568C217.098 15.1387 217.504 13.5493 217.504 11.8C217.504 10.0507 217.098 8.472 216.288 7.064C215.477 5.63467 214.357 4.52533 212.928 3.736C211.498 2.92533 209.898 2.52 208.128 2.52C206.357 2.52 204.746 2.92533 203.296 3.736C201.866 4.52533 200.736 5.63467 199.904 7.064C199.093 8.472 198.688 10.0507 198.688 11.8C198.688 13.5493 199.093 15.1387 199.904 16.568C200.736 17.976 201.866 19.0853 203.296 19.896C204.746 20.6853 206.357 21.08 208.128 21.08ZM234.203 23.192C231.302 23.192 229.041 22.36 227.419 20.696C225.798 19.032 224.987 16.6107 224.987 13.432V0.599998H227.355V13.336C227.355 15.9387 227.942 17.88 229.115 19.16C230.289 20.44 231.985 21.08 234.203 21.08C236.443 21.08 238.15 20.44 239.323 19.16C240.497 17.88 241.083 15.9387 241.083 13.336V0.599998H243.387V13.432C243.387 16.6107 242.577 19.032 240.955 20.696C239.355 22.36 237.105 23.192 234.203 23.192Z" fill="#363636"/>
</svg>
