<svg width="1440" height="1221" viewBox="0 0 1440 1221" fill="none" xmlns="http://www.w3.org/2000/svg">
<path d="M0 -6H1440V1016H0V-6Z" fill="url(#paint0_linear_801_1126)"/>
<g filter="url(#filter0_b_801_1126)">
<path d="M1091.73 657.389C1180.61 524.976 1283.85 666.415 1437.34 594.6C1574.66 530.4 1730.47 705.948 1619.56 823.338C1508.73 940.59 1450.78 976.706 1430.88 1109.48C1411.09 1242.24 1190.12 1285.11 1142.64 1073.26C1130.83 1020.65 1134.31 971.597 1122.42 931.92C1085.84 809.946 1027.62 752.671 1091.65 657.526L1091.73 657.389ZM722.907 928.769C712.268 993.014 776.166 1062.94 865.438 1085.1C954.709 1107.27 1035.77 1073.14 1046.34 1009.03C1056.97 944.79 993.076 874.863 903.805 852.698C814.534 830.533 733.469 864.661 722.907 928.769ZM652.256 550.02C625.182 607.689 675.265 694.497 763.91 743.843C852.555 793.188 946.324 786.366 973.289 728.721C1000.25 671.076 950.28 584.244 861.635 534.899C772.99 485.554 679.221 492.375 652.256 550.02ZM839.793 269.435C798.571 316.651 827.711 414.281 904.868 487.488C982.026 560.696 1078.1 581.746 1119.33 534.53C1160.55 487.314 1131.41 389.684 1054.25 316.476C977.094 243.269 881.015 222.219 839.793 269.435ZM1211.8 208.889C1154.45 237.39 1143.5 329.59 1187.47 414.949C1231.4 500.194 1313.54 546.241 1370.9 517.74C1428.26 489.239 1439.2 397.038 1395.24 311.679C1351.3 226.434 1269.16 180.387 1211.8 208.889Z" fill="white" fill-opacity="0.2"/>
</g>
<defs>
<filter id="filter0_b_801_1126" x="640.907" y="196.451" width="1020.37" height="1028.16" filterUnits="userSpaceOnUse" color-interpolation-filters="sRGB">
<feFlood flood-opacity="0" result="BackgroundImageFix"/>
<feGaussianBlur in="BackgroundImage" stdDeviation="2"/>
<feComposite in2="SourceAlpha" operator="in" result="effect1_backgroundBlur_801_1126"/>
<feBlend mode="normal" in="SourceGraphic" in2="effect1_backgroundBlur_801_1126" result="shape"/>
</filter>
<linearGradient id="paint0_linear_801_1126" x1="-187.2" y1="-128.64" x2="1028.36" y2="1584.09" gradientUnits="userSpaceOnUse">
<stop stop-color="#007D96"/>
<stop offset="1" stop-color="#00A5C5"/>
</linearGradient>
</defs>
</svg>
