<svg width="144" height="23" viewBox="0 0 144 23" fill="none" xmlns="http://www.w3.org/2000/svg">
<path d="M20.56 2.96L16.9 17H12.76L10.52 7.76L8.2 17H4.06L0.5 2.96H4.16L6.18 13.18L8.68 2.96H12.44L14.84 13.18L16.88 2.96H20.56ZM21.5952 11.4C21.5952 10.2533 21.8085 9.24667 22.2352 8.38C22.6752 7.51333 23.2685 6.84667 24.0152 6.38C24.7618 5.91333 25.5952 5.68 26.5152 5.68C27.3018 5.68 27.9885 5.84 28.5752 6.16C29.1752 6.48 29.6352 6.9 29.9552 7.42V5.84H33.3752V17H29.9552V15.42C29.6218 15.94 29.1552 16.36 28.5552 16.68C27.9685 17 27.2818 17.16 26.4952 17.16C25.5885 17.16 24.7618 16.9267 24.0152 16.46C23.2685 15.98 22.6752 15.3067 22.2352 14.44C21.8085 13.56 21.5952 12.5467 21.5952 11.4ZM29.9552 11.42C29.9552 10.5667 29.7152 9.89333 29.2352 9.4C28.7685 8.90667 28.1952 8.66 27.5152 8.66C26.8352 8.66 26.2552 8.90667 25.7752 9.4C25.3085 9.88 25.0752 10.5467 25.0752 11.4C25.0752 12.2533 25.3085 12.9333 25.7752 13.44C26.2552 13.9333 26.8352 14.18 27.5152 14.18C28.1952 14.18 28.7685 13.9333 29.2352 13.44C29.7152 12.9467 29.9552 12.2733 29.9552 11.42ZM39.2694 2.2V17H35.8494V2.2H39.2694ZM48.5678 17L45.1678 12.32V17H41.7478V2.2H45.1678V10.38L48.5478 5.84H52.7678L48.1278 11.44L52.8078 17H48.5678ZM55.8311 4.68C55.2311 4.68 54.7378 4.50667 54.3511 4.16C53.9778 3.8 53.7911 3.36 53.7911 2.84C53.7911 2.30667 53.9778 1.86667 54.3511 1.52C54.7378 1.16 55.2311 0.979999 55.8311 0.979999C56.4178 0.979999 56.8978 1.16 57.2711 1.52C57.6578 1.86667 57.8511 2.30667 57.8511 2.84C57.8511 3.36 57.6578 3.8 57.2711 4.16C56.8978 4.50667 56.4178 4.68 55.8311 4.68ZM57.5311 5.84V17H54.1111V5.84H57.5311ZM70.5295 11.24C70.5295 11.56 70.5095 11.8933 70.4695 12.24H62.7295C62.7829 12.9333 63.0029 13.4667 63.3895 13.84C63.7895 14.2 64.2762 14.38 64.8495 14.38C65.7029 14.38 66.2962 14.02 66.6295 13.3H70.2695C70.0829 14.0333 69.7429 14.6933 69.2495 15.28C68.7695 15.8667 68.1629 16.3267 67.4295 16.66C66.6962 16.9933 65.8762 17.16 64.9695 17.16C63.8762 17.16 62.9029 16.9267 62.0495 16.46C61.1962 15.9933 60.5295 15.3267 60.0495 14.46C59.5695 13.5933 59.3295 12.58 59.3295 11.42C59.3295 10.26 59.5629 9.24667 60.0295 8.38C60.5095 7.51333 61.1762 6.84667 62.0295 6.38C62.8829 5.91333 63.8629 5.68 64.9695 5.68C66.0495 5.68 67.0095 5.90667 67.8495 6.36C68.6895 6.81333 69.3429 7.46 69.8095 8.3C70.2895 9.14 70.5295 10.12 70.5295 11.24ZM67.0295 10.34C67.0295 9.75333 66.8295 9.28667 66.4295 8.94C66.0295 8.59333 65.5295 8.42 64.9295 8.42C64.3562 8.42 63.8695 8.58667 63.4695 8.92C63.0829 9.25333 62.8429 9.72667 62.7495 10.34H67.0295ZM77.5938 2.96C79.0738 2.96 80.3671 3.25333 81.4738 3.84C82.5804 4.42667 83.4338 5.25333 84.0338 6.32C84.6471 7.37333 84.9538 8.59333 84.9538 9.98C84.9538 11.3533 84.6471 12.5733 84.0338 13.64C83.4338 14.7067 82.5738 15.5333 81.4538 16.12C80.3471 16.7067 79.0604 17 77.5938 17H72.3338V2.96H77.5938ZM77.3738 14.04C78.6671 14.04 79.6738 13.6867 80.3938 12.98C81.1138 12.2733 81.4738 11.2733 81.4738 9.98C81.4738 8.68667 81.1138 7.68 80.3938 6.96C79.6738 6.24 78.6671 5.88 77.3738 5.88H75.7538V14.04H77.3738ZM91.945 17.16C90.8517 17.16 89.865 16.9267 88.985 16.46C88.1183 15.9933 87.4317 15.3267 86.925 14.46C86.4317 13.5933 86.185 12.58 86.185 11.42C86.185 10.2733 86.4383 9.26667 86.945 8.4C87.4517 7.52 88.145 6.84667 89.025 6.38C89.905 5.91333 90.8917 5.68 91.985 5.68C93.0783 5.68 94.065 5.91333 94.945 6.38C95.825 6.84667 96.5183 7.52 97.025 8.4C97.5317 9.26667 97.785 10.2733 97.785 11.42C97.785 12.5667 97.525 13.58 97.005 14.46C96.4983 15.3267 95.7983 15.9933 94.905 16.46C94.025 16.9267 93.0383 17.16 91.945 17.16ZM91.945 14.2C92.5983 14.2 93.1517 13.96 93.605 13.48C94.0717 13 94.305 12.3133 94.305 11.42C94.305 10.5267 94.0783 9.84 93.625 9.36C93.185 8.88 92.6383 8.64 91.985 8.64C91.3183 8.64 90.765 8.88 90.325 9.36C89.885 9.82667 89.665 10.5133 89.665 11.42C89.665 12.3133 89.8783 13 90.305 13.48C90.745 13.96 91.2917 14.2 91.945 14.2ZM103.839 5.68C104.626 5.68 105.313 5.84 105.899 6.16C106.499 6.48 106.959 6.9 107.279 7.42V5.84H110.699V16.98C110.699 18.0067 110.493 18.9333 110.079 19.76C109.679 20.6 109.059 21.2667 108.219 21.76C107.393 22.2533 106.359 22.5 105.119 22.5C103.466 22.5 102.126 22.1067 101.099 21.32C100.073 20.5467 99.486 19.4933 99.3394 18.16H102.719C102.826 18.5867 103.079 18.92 103.479 19.16C103.879 19.4133 104.373 19.54 104.959 19.54C105.666 19.54 106.226 19.3333 106.639 18.92C107.066 18.52 107.279 17.8733 107.279 16.98V15.4C106.946 15.92 106.486 16.3467 105.899 16.68C105.313 17 104.626 17.16 103.839 17.16C102.919 17.16 102.086 16.9267 101.339 16.46C100.593 15.98 99.9994 15.3067 99.5594 14.44C99.1327 13.56 98.9194 12.5467 98.9194 11.4C98.9194 10.2533 99.1327 9.24667 99.5594 8.38C99.9994 7.51333 100.593 6.84667 101.339 6.38C102.086 5.91333 102.919 5.68 103.839 5.68ZM107.279 11.42C107.279 10.5667 107.039 9.89333 106.559 9.4C106.093 8.90667 105.519 8.66 104.839 8.66C104.159 8.66 103.579 8.90667 103.099 9.4C102.633 9.88 102.399 10.5467 102.399 11.4C102.399 12.2533 102.633 12.9333 103.099 13.44C103.579 13.9333 104.159 14.18 104.839 14.18C105.519 14.18 106.093 13.9333 106.559 13.44C107.039 12.9467 107.279 12.2733 107.279 11.42ZM117.414 5.68C118.2 5.68 118.887 5.84 119.474 6.16C120.074 6.48 120.534 6.9 120.854 7.42V5.84H124.274V16.98C124.274 18.0067 124.067 18.9333 123.654 19.76C123.254 20.6 122.634 21.2667 121.794 21.76C120.967 22.2533 119.934 22.5 118.694 22.5C117.04 22.5 115.7 22.1067 114.674 21.32C113.647 20.5467 113.06 19.4933 112.914 18.16H116.294C116.4 18.5867 116.654 18.92 117.054 19.16C117.454 19.4133 117.947 19.54 118.534 19.54C119.24 19.54 119.8 19.3333 120.214 18.92C120.64 18.52 120.854 17.8733 120.854 16.98V15.4C120.52 15.92 120.06 16.3467 119.474 16.68C118.887 17 118.2 17.16 117.414 17.16C116.494 17.16 115.66 16.9267 114.914 16.46C114.167 15.98 113.574 15.3067 113.134 14.44C112.707 13.56 112.494 12.5467 112.494 11.4C112.494 10.2533 112.707 9.24667 113.134 8.38C113.574 7.51333 114.167 6.84667 114.914 6.38C115.66 5.91333 116.494 5.68 117.414 5.68ZM120.854 11.42C120.854 10.5667 120.614 9.89333 120.134 9.4C119.667 8.90667 119.094 8.66 118.414 8.66C117.734 8.66 117.154 8.90667 116.674 9.4C116.207 9.88 115.974 10.5467 115.974 11.4C115.974 12.2533 116.207 12.9333 116.674 13.44C117.154 13.9333 117.734 14.18 118.414 14.18C119.094 14.18 119.667 13.9333 120.134 13.44C120.614 12.9467 120.854 12.2733 120.854 11.42ZM128.468 4.68C127.868 4.68 127.374 4.50667 126.988 4.16C126.614 3.8 126.428 3.36 126.428 2.84C126.428 2.30667 126.614 1.86667 126.988 1.52C127.374 1.16 127.868 0.979999 128.468 0.979999C129.054 0.979999 129.534 1.16 129.908 1.52C130.294 1.86667 130.488 2.30667 130.488 2.84C130.488 3.36 130.294 3.8 129.908 4.16C129.534 4.50667 129.054 4.68 128.468 4.68ZM130.168 5.84V17H126.748V5.84H130.168ZM143.166 11.24C143.166 11.56 143.146 11.8933 143.106 12.24H135.366C135.42 12.9333 135.64 13.4667 136.026 13.84C136.426 14.2 136.913 14.38 137.486 14.38C138.34 14.38 138.933 14.02 139.266 13.3H142.906C142.72 14.0333 142.38 14.6933 141.886 15.28C141.406 15.8667 140.8 16.3267 140.066 16.66C139.333 16.9933 138.513 17.16 137.606 17.16C136.513 17.16 135.54 16.9267 134.686 16.46C133.833 15.9933 133.166 15.3267 132.686 14.46C132.206 13.5933 131.966 12.58 131.966 11.42C131.966 10.26 132.2 9.24667 132.666 8.38C133.146 7.51333 133.813 6.84667 134.666 6.38C135.52 5.91333 136.5 5.68 137.606 5.68C138.686 5.68 139.646 5.90667 140.486 6.36C141.326 6.81333 141.98 7.46 142.446 8.3C142.926 9.14 143.166 10.12 143.166 11.24ZM139.666 10.34C139.666 9.75333 139.466 9.28667 139.066 8.94C138.666 8.59333 138.166 8.42 137.566 8.42C136.993 8.42 136.506 8.58667 136.106 8.92C135.72 9.25333 135.48 9.72667 135.386 10.34H139.666Z" fill="#F0AF15"/>
</svg>
