<svg width="512" height="126" viewBox="0 0 512 126" fill="none" xmlns="http://www.w3.org/2000/svg">
<path d="M61.8387 45H72.3965V44.6858C68.8144 43.9317 67.8089 42.3606 67.8089 37.7101V4.90556L97.7855 45H99.168V8.29913C99.168 3.64867 100.174 2.07758 103.756 1.32345V1.00923H93.1979V1.32345C96.6543 2.07758 97.7855 3.64867 97.7855 8.29913V37.4587L70.574 1.00923H61.8387V1.32345C65.2952 2.07758 66.4263 3.64867 66.4263 8.29913V37.7101C66.4263 42.3606 65.2952 43.9317 61.8387 44.6858V45ZM145.026 45.6284H145.78L148.734 36.3904H148.357C146.471 40.0982 143.518 43.6803 137.359 43.6803H126.424C122.402 43.6803 121.459 41.7321 121.459 36.956V23.1303H131.829C133.777 23.1303 137.045 23.3817 138.113 28.1578H138.427V16.6574H138.113C137.045 21.4964 133.777 21.7477 131.829 21.7477H121.459V9.05326C121.459 4.27712 122.402 2.32895 126.424 2.32895H135.474C141.632 2.32895 143.958 5.84821 145.843 9.55601H146.22L143.958 0.380789H143.203C141.632 1.00923 141.381 1.00923 136.668 1.00923H112.347V1.32345C116.432 2.26611 116.935 4.27712 116.935 9.05326V36.956C116.935 41.7321 116.432 43.7431 112.347 44.6858V45H138.553C143.266 45 143.455 45 145.026 45.6284ZM172.652 45H176.36L186.477 16.6574L195.276 45H198.983L212.055 8.29913C213.626 3.83721 214.946 2.20326 218.465 1.32345V1.00923H207.782V1.32345C210.17 1.76336 211.301 2.58033 211.301 4.4028C211.301 5.4083 211.049 6.66519 210.421 8.29913L198.732 41.0408L188.803 9.05326C188.237 7.16793 187.797 5.59684 187.797 4.4028C187.797 2.76886 188.614 1.76336 191.002 1.32345V1.00923H177.302V1.32345C181.01 2.26611 182.644 4.52849 184.089 9.05326L185.66 14.1436L176.045 41.2294L164.419 9.05326C163.728 7.16793 163.225 5.59684 163.225 4.4028C163.225 2.76886 164.105 1.76336 166.493 1.32345V1.00923H152.793V1.32345C156.501 2.26611 157.946 4.59134 159.58 9.05326L172.652 45ZM259.676 45H263.384L273.502 16.6574L282.3 45H286.008L299.079 8.29913C300.65 3.83721 301.97 2.20326 305.489 1.32345V1.00923H294.806V1.32345C297.194 1.76336 298.325 2.58033 298.325 4.4028C298.325 5.4083 298.074 6.66519 297.445 8.29913L285.756 41.0408L275.827 9.05326C275.261 7.16793 274.821 5.59684 274.821 4.4028C274.821 2.76886 275.638 1.76336 278.026 1.32345V1.00923H264.326V1.32345C268.034 2.26611 269.668 4.52849 271.114 9.05326L272.685 14.1436L263.069 41.2294L251.443 9.05326C250.752 7.16793 250.249 5.59684 250.249 4.4028C250.249 2.76886 251.129 1.76336 253.517 1.32345V1.00923H239.817V1.32345C243.525 2.26611 244.97 4.59134 246.604 9.05326L259.676 45ZM344.543 45.6284H345.297L348.251 36.3904H347.874C345.989 40.0982 343.035 43.6803 336.876 43.6803H325.941C321.919 43.6803 320.977 41.7321 320.977 36.956V23.1303H331.346C333.294 23.1303 336.562 23.3817 337.63 28.1578H337.945V16.6574H337.63C336.562 21.4964 333.294 21.7477 331.346 21.7477H320.977V9.05326C320.977 4.27712 321.919 2.32895 325.941 2.32895H334.991C341.15 2.32895 343.475 5.84821 345.36 9.55601H345.737L343.475 0.380789H342.721C341.15 1.00923 340.898 1.00923 336.185 1.00923H311.864V1.32345C315.949 2.26611 316.452 4.27712 316.452 9.05326V36.956C316.452 41.7321 315.949 43.7431 311.864 44.6858V45H338.07C342.784 45 342.972 45 344.543 45.6284ZM387.503 45.6284H388.257L391.211 36.3904H390.834C388.948 40.0982 385.995 43.6803 379.836 43.6803H368.901C364.879 43.6803 363.936 41.7321 363.936 36.956V23.1303H374.306C376.254 23.1303 379.522 23.3817 380.59 28.1578H380.904V16.6574H380.59C379.522 21.4964 376.254 21.7477 374.306 21.7477H363.936V9.05326C363.936 4.27712 364.879 2.32895 368.901 2.32895H377.951C384.109 2.32895 386.435 5.84821 388.32 9.55601H388.697L386.435 0.380789H385.681C384.109 1.00923 383.858 1.00923 379.145 1.00923H354.824V1.32345C358.909 2.26611 359.412 4.27712 359.412 9.05326V36.956C359.412 41.7321 358.909 43.7431 354.824 44.6858V45H381.03C385.743 45 385.932 45 387.503 45.6284ZM432.474 45.0628C433.793 45.0628 435.365 45 437.438 45V44.6858C434.673 44.183 432.725 43.6803 427.446 37.9615L410.855 20.0509L424.995 7.73353C430.023 3.33445 432.348 1.95189 436.621 1.32345V1.00923H425.372V1.32345C426.629 1.70051 427.446 1.95189 427.446 2.64317C427.446 3.33445 426.378 4.59134 423.676 6.91656L406.896 21.4335V9.05326C406.896 4.27712 407.399 2.26611 411.484 1.32345V1.00923H397.784V1.32345C401.869 2.26611 402.371 4.27712 402.371 9.05326V36.956C402.371 41.7321 401.869 43.7431 397.784 44.6858V45H411.484V44.6858C407.399 43.7431 406.896 41.7321 406.896 36.956V22.439L423.55 40.4124C427.446 44.5601 427.949 45.0628 432.474 45.0628ZM447.791 50.3417H447.98C449.614 48.6449 451.688 45 451.688 42.4234C451.688 41.795 451.562 41.2922 451.311 40.8523C450.871 39.784 449.802 39.0298 448.608 39.0298C446.849 39.0298 445.592 40.4124 445.592 42.0463C445.592 43.4289 446.472 44.5601 447.791 44.9372C448.546 45.2514 448.923 46.0683 448.923 47.011C448.923 48.0165 448.546 49.2105 447.791 50.3417ZM0.927968 125H11.4858V124.686C7.90365 123.932 6.89814 122.361 6.89814 117.71V84.9056L36.8747 125H38.2573V88.2991C38.2573 83.6487 39.2628 82.0776 42.8449 81.3234V81.0092H32.2871V81.3234C35.7435 82.0776 36.8747 83.6487 36.8747 88.2991V117.459L9.66328 81.0092H0.927968V81.3234C4.38439 82.0776 5.51558 83.6487 5.51558 88.2991V117.71C5.51558 122.361 4.38439 123.932 0.927968 124.686V125ZM84.1152 125.628H84.8693L87.823 116.39H87.4459C85.5606 120.098 82.6069 123.68 76.4482 123.68H65.5134C61.4914 123.68 60.5487 121.732 60.5487 116.956V103.13H70.918C72.8661 103.13 76.134 103.382 77.2024 108.158H77.5166V96.6574H77.2024C76.134 101.496 72.8661 101.748 70.918 101.748H60.5487V89.0533C60.5487 84.2771 61.4914 82.329 65.5134 82.329H74.5629C80.7216 82.329 83.0469 85.8482 84.9322 89.556H85.3092L83.0469 80.3808H82.2927C80.7216 81.0092 80.4703 81.0092 75.757 81.0092H51.4363V81.3234C55.5212 82.2661 56.024 84.2771 56.024 89.0533V116.956C56.024 121.732 55.5212 123.743 51.4363 124.686V125H77.6423C82.3556 125 82.5441 125 84.1152 125.628ZM111.741 125H115.449L125.567 96.6574L134.365 125H138.073L151.144 88.2991C152.715 83.8372 154.035 82.2033 157.554 81.3234V81.0092H146.871V81.3234C149.259 81.7634 150.39 82.5803 150.39 84.4028C150.39 85.4083 150.139 86.6652 149.51 88.2991L137.821 121.041L127.892 89.0533C127.326 87.1679 126.886 85.5968 126.886 84.4028C126.886 82.7689 127.703 81.7634 130.091 81.3234V81.0092H116.391V81.3234C120.099 82.2661 121.733 84.5285 123.179 89.0533L124.75 94.1436L115.135 121.229L103.508 89.0533C102.817 87.1679 102.314 85.5968 102.314 84.4028C102.314 82.7689 103.194 81.7634 105.582 81.3234V81.0092H91.8823V81.3234C95.5901 82.2661 97.0355 84.5913 98.6695 89.0533L111.741 125ZM178.906 125H189.339V124.686C187.013 124.246 185.882 123.492 185.882 121.732C185.882 120.727 186.259 119.407 186.888 117.71L189.716 110.169H208.946L211.522 116.956C212.277 118.904 212.779 120.412 212.779 121.669C212.779 123.24 211.9 124.246 209.511 124.686V125H223.211V124.686C219.504 123.743 218.121 121.481 216.424 116.956L202.724 81.0092H194.178V81.3234C196.566 81.7634 197.571 82.5175 197.571 84.0886C197.571 84.5285 197.445 85.0941 197.257 85.7854L185.317 117.71C183.683 122.172 182.426 123.806 178.906 124.686V125ZM190.156 108.912L199.205 84.717L208.443 108.849H190.218L190.156 108.912ZM266.802 125.063C267.996 125.063 269.504 125 271.515 125V124.372C268.687 123.932 266.802 122.989 262.717 117.961L251.216 103.633C259.763 102.753 263.974 98.5427 263.974 92.4468C263.974 85.4712 258.632 81.0092 247.634 81.0092H229.535V81.3234C233.62 82.2661 234.123 84.2771 234.123 89.0533V116.956C234.123 121.732 233.62 123.743 229.535 124.686V125H243.235V124.686C239.15 123.743 238.648 121.732 238.648 116.956V103.822H245.749L259.072 120.412C262.34 124.497 263.219 125.063 266.802 125.063ZM238.648 102.502V89.0533C238.648 84.2771 239.59 82.329 243.612 82.329H247.634C255.867 82.329 259.072 85.7225 259.072 92.1955C259.072 98.8569 255.992 102.502 247.634 102.502H238.648ZM314.794 125.063C315.988 125.063 317.496 125 319.507 125V124.372C316.679 123.932 314.794 122.989 310.709 117.961L299.208 103.633C307.755 102.753 311.966 98.5427 311.966 92.4468C311.966 85.4712 306.624 81.0092 295.626 81.0092H277.527V81.3234C281.612 82.2661 282.115 84.2771 282.115 89.0533V116.956C282.115 121.732 281.612 123.743 277.527 124.686V125H291.227V124.686C287.142 123.743 286.64 121.732 286.64 116.956V103.822H293.741L307.064 120.412C310.332 124.497 311.212 125.063 314.794 125.063ZM286.64 102.502V89.0533C286.64 84.2771 287.582 82.329 291.604 82.329H295.626C303.859 82.329 307.064 85.7225 307.064 92.1955C307.064 98.8569 303.985 102.502 295.626 102.502H286.64ZM325.519 125H339.219V124.686C335.135 123.743 334.632 121.732 334.632 116.956V89.0533C334.632 84.2771 335.135 82.2661 339.219 81.3234V81.0092H325.519V81.3234C329.604 82.2661 330.107 84.2771 330.107 89.0533V116.956C330.107 121.732 329.604 123.743 325.519 124.686V125ZM366.077 125H369.785L383.485 88.2991C385.119 83.8372 386.376 82.2033 389.895 81.3234V81.0092H379.212V81.3234C381.6 81.7634 382.794 82.5803 382.794 84.4028C382.794 85.4083 382.48 86.6652 381.851 88.2991L369.471 121.355L357.216 89.0533C356.525 87.1679 356.022 85.5968 356.022 84.4028C356.022 82.7689 356.902 81.7634 359.29 81.3234V81.0092H345.59V81.3234C349.298 82.2661 350.681 84.5913 352.377 89.0533L366.077 125ZM386.77 125H397.202V124.686C394.877 124.246 393.746 123.492 393.746 121.732C393.746 120.727 394.123 119.407 394.751 117.71L397.579 110.169H416.81L419.386 116.956C420.14 118.904 420.643 120.412 420.643 121.669C420.643 123.24 419.763 124.246 417.375 124.686V125H431.075V124.686C427.367 123.743 425.985 121.481 424.288 116.956L410.588 81.0092H402.041V81.3234C404.429 81.7634 405.435 82.5175 405.435 84.0886C405.435 84.5285 405.309 85.0941 405.121 85.7854L393.18 117.71C391.546 122.172 390.289 123.806 386.77 124.686V125ZM398.019 108.912L407.069 84.717L416.307 108.849H398.082L398.019 108.912ZM469.449 125.628H470.203L473.157 116.39H472.78C470.895 120.098 467.941 123.68 461.782 123.68H451.476C447.454 123.68 446.511 121.732 446.511 116.956V89.0533C446.511 84.2771 447.014 82.2661 451.099 81.3234V81.0092H437.399V81.3234C441.484 82.2661 441.986 84.2771 441.986 89.0533V116.956C441.986 121.732 441.484 123.743 437.399 124.686V125H462.976C467.69 125 467.878 125 469.449 125.628ZM496.566 125.691C504.485 125.691 511.335 121.732 511.335 113.688C511.335 97.7257 483.935 101.685 483.935 89.9331C483.935 84.717 489.654 81.512 495.184 81.512C498.892 81.512 502.474 82.8945 504.296 85.9739C505.616 88.1106 505.427 90.5615 507.941 90.5615C509.387 90.5615 510.015 89.556 510.015 88.5505C510.078 86.9166 508.821 85.2198 506.747 83.7744C503.668 81.4491 499.646 80.3808 495.624 80.3808C488.083 80.3808 480.73 84.34 480.73 91.7555C480.73 105.77 507.313 103.13 508.57 114.442C508.632 114.756 508.632 115.071 508.632 115.385C508.632 121.041 503.291 124.183 497.321 124.183C492.859 124.183 488.522 122.423 485.883 118.653C484.5 116.705 483.683 114.191 481.547 114.191C480.227 114.191 479.347 115.259 479.347 116.328C479.347 118.024 480.541 119.407 482.238 120.789C486.323 124.12 491.476 125.691 496.566 125.691Z" fill="#1D1B19"/>
</svg>
