<svg width="40" height="45" viewBox="0 0 40 45" fill="none" xmlns="http://www.w3.org/2000/svg">
<path d="M20 0.716187C8.96422 0.716187 0 10.4496 0 22.4324C0 34.4151 8.96422 44.1485 20 44.1485C31.0358 44.1485 40 34.4151 40 22.4324C40 10.4496 31.0358 0.716187 20 0.716187ZM20 2.60487C30.0976 2.60487 38.264 11.472 38.264 22.4324C38.264 33.3964 30.0976 42.2636 20 42.2636C9.90584 42.2636 1.73943 33.3964 1.73943 22.4324C1.73943 11.472 9.90584 2.60487 20 2.60487ZM20.8697 9.21528C20.0411 9.21528 19.4111 9.82501 19.0002 10.5128C18.5893 11.1969 18.3051 12.052 18.0722 13.0187C17.61 14.9557 17.3909 17.3686 17.3909 19.5993C17.3909 20.5325 17.5552 21.2092 17.6237 22.0383C17.6031 22.0308 17.5929 21.9974 17.5689 21.9899C16.9012 21.6516 16.2404 21.488 15.6514 21.488C14.9221 21.488 13.6757 21.6925 12.5253 22.6592C11.3713 23.6295 10.4366 25.3992 10.4366 28.0984C10.4366 30.3403 11.1077 32.0431 12.1246 33.1324C13.1416 34.2292 14.453 34.7088 15.6514 34.7088C17.8839 34.7088 19.7021 33.4745 21.0615 31.6527C21.825 32.3628 22.6365 32.8201 23.4789 32.8201C25.0711 32.8201 26.1976 31.53 26.9509 30.1061C27.7042 28.6784 28.2178 26.9793 28.6526 25.5628C28.8067 25.0721 28.5568 24.5367 28.1014 24.3694C27.646 24.2021 27.1529 24.4735 27.0022 24.968C26.5674 26.3845 26.064 27.9906 25.4408 29.1617C24.8211 30.3329 24.2013 30.9314 23.4789 30.9314C23.157 30.9314 22.6194 30.5857 22.0407 30.0168C22.1195 29.8719 22.2222 29.7454 22.2941 29.6004C23.6877 26.7005 24.3486 23.0421 24.3486 19.5993C24.3486 16.6808 23.9719 14.2344 23.4206 12.4573C23.1433 11.565 22.8317 10.84 22.4551 10.2786C22.0784 9.72091 21.599 9.21528 20.8697 9.21528ZM20.8149 11.1337C20.8526 11.1597 20.9416 11.2304 21.0478 11.394C21.2669 11.7174 21.5374 12.2937 21.7702 13.0521C22.2462 14.5802 22.6091 16.8555 22.6091 19.5993C22.6091 22.6666 21.9825 25.9346 20.8423 28.433C19.8973 26.6075 19.1303 23.7076 19.1303 19.5993C19.1303 17.5062 19.3494 15.1974 19.7569 13.4908C19.9589 12.6432 20.2191 11.9442 20.4622 11.539C20.654 11.2155 20.7533 11.1486 20.8149 11.1337ZM15.6514 23.3767C15.9014 23.3767 16.4013 23.4808 16.8396 23.7002C17.2813 23.9232 17.6614 24.2504 17.8531 24.6148C17.86 24.6222 17.8668 24.6296 17.8702 24.6408C18.2161 26.5332 18.6989 28.1653 19.3392 29.3885C19.4795 29.6599 19.6644 29.7752 19.8151 30.0168C18.7057 31.6527 17.3943 32.8201 15.6514 32.8201C14.8776 32.8201 14.0147 32.5116 13.3539 31.794C12.6862 31.0802 12.1726 29.9462 12.1726 28.0984C12.1726 25.8417 12.8505 24.7783 13.5901 24.1575C14.3297 23.5291 15.2577 23.3767 15.6514 23.3767Z" fill="black"/>
</svg>
