<svg width="40" height="45" viewBox="0 0 40 45" fill="none" xmlns="http://www.w3.org/2000/svg">
<path d="M20 0.716187C8.96422 0.716187 0 10.4496 0 22.4324C0 34.4151 8.96422 44.1485 20 44.1485C31.0358 44.1485 40 34.4151 40 22.4324C40 10.4496 31.0358 0.716187 20 0.716187ZM20 2.60487C30.0976 2.60487 38.264 11.472 38.264 22.4324C38.264 33.3964 30.0976 42.2636 20 42.2636C9.90584 42.2636 1.73943 33.3964 1.73943 22.4324C1.73943 11.472 9.90584 2.60487 20 2.60487ZM21.3731 8.27093C19.0687 8.27093 17.319 9.08887 16.2404 10.5388C15.1652 11.9851 14.7817 13.9184 14.7817 16.0376V17.7106H13.0423C12.5663 17.7106 12.1726 18.1345 12.1726 18.655V23.3767C12.1726 23.8972 12.5663 24.321 13.0423 24.321H14.7817V35.6532C14.7817 36.1737 15.1721 36.5975 15.6514 36.5975H20.8697C21.3491 36.5975 21.7394 36.1737 21.7394 35.6532V24.321H25.2183C25.6326 24.321 25.9887 24.005 26.0709 23.5626L26.9406 18.8409C26.992 18.5658 26.9235 18.2758 26.7591 18.0601C26.5948 17.8371 26.3482 17.7106 26.088 17.7106H21.7394V15.6435C21.7394 15.1825 21.7668 15.1862 21.8901 15.1007C22.0134 15.0152 22.4516 14.8776 23.2289 14.8776H26.088C26.5674 14.8776 26.9577 14.4538 26.9577 13.9333V10.1596C26.9577 9.75809 26.7249 9.40117 26.379 9.27104C26.379 9.27104 23.876 8.27093 21.3731 8.27093ZM21.3731 10.1596C23.02 10.1596 24.5472 10.6429 25.2183 10.866V12.9926H23.2289C22.3181 12.9926 21.5785 13.0707 20.9416 13.5169C20.3082 13.963 20 14.8256 20 15.6435V18.655C20 19.1755 20.3903 19.5993 20.8697 19.5993H25.0265L24.5061 22.4324H20.8697C20.3903 22.4324 20 22.8562 20 23.3767V34.7088H16.5211V23.3767C16.5211 22.8562 16.1308 22.4324 15.6514 22.4324H13.912V19.5993H15.6514C16.1308 19.5993 16.5211 19.1755 16.5211 18.655V16.0376C16.5211 14.1675 16.8772 12.6915 17.5963 11.7211C18.3119 10.7545 19.4248 10.1596 21.3731 10.1596Z" fill="black"/>
</svg>
