<svg width="40" height="45" viewBox="0 0 40 45" fill="none" xmlns="http://www.w3.org/2000/svg">
<path d="M20 0.716187C8.96422 0.716187 0 10.4496 0 22.4324C0 34.4151 8.96422 44.1485 20 44.1485C31.0358 44.1485 40 34.4151 40 22.4324C40 10.4496 31.0358 0.716187 20 0.716187ZM20 2.60487C30.0976 2.60487 38.264 11.472 38.264 22.4324C38.264 33.3964 30.0976 42.2636 20 42.2636C9.90584 42.2636 1.73943 33.3964 1.73943 22.4324C1.73943 11.472 9.90584 2.60487 20 2.60487ZM12.1726 10.1596C10.7447 10.1596 9.56686 11.4386 9.56686 12.9926C9.56686 14.543 10.7447 15.822 12.1726 15.822C13.6038 15.822 14.7817 14.543 14.7817 12.9926C14.7817 11.4386 13.6038 10.1596 12.1726 10.1596ZM12.1726 12.0483C12.6622 12.0483 13.0423 12.461 13.0423 12.9926C13.0423 13.5206 12.6622 13.9333 12.1726 13.9333C11.6864 13.9333 11.3063 13.5206 11.3063 12.9926C11.3063 12.461 11.6864 12.0483 12.1726 12.0483ZM10.4366 16.7663C9.9572 16.7663 9.56686 17.1901 9.56686 17.7106V31.8758C9.56686 32.3963 9.9572 32.8201 10.4366 32.8201H13.912C14.3914 32.8201 14.7817 32.3963 14.7817 31.8758V17.7106C14.7817 17.1901 14.3914 16.7663 13.912 16.7663H10.4366ZM17.3909 16.7663C16.9115 16.7663 16.5211 17.1901 16.5211 17.7106V31.8758C16.5211 32.3963 16.9115 32.8201 17.3909 32.8201H20.8697C21.3491 32.8201 21.7394 32.3963 21.7394 31.8758V24.7932C21.7394 23.492 22.7153 22.4324 23.9137 22.4324C25.1121 22.4324 26.088 23.492 26.088 24.7932V31.8758C26.088 32.3963 26.4783 32.8201 26.9577 32.8201H30.4366C30.9159 32.8201 31.3063 32.3963 31.3063 31.8758V23.8489C31.3063 19.9525 28.3753 16.7663 24.7834 16.7663C23.6672 16.7663 22.6605 17.1641 21.7394 17.6995C21.736 17.1827 21.3457 16.7663 20.8697 16.7663H17.3909ZM11.3063 18.655H13.0423V30.9314H11.3063V18.655ZM18.2606 18.655H20V19.4283C20 19.8075 20.2089 20.1459 20.5307 20.2983C20.8492 20.4433 21.2224 20.3727 21.4724 20.105C22.3352 19.209 23.4926 18.655 24.7834 18.655C27.4371 18.655 29.5669 20.9675 29.5669 23.8489V30.9314H27.8274V24.7932C27.8274 22.4621 26.0606 20.5437 23.9137 20.5437C21.7668 20.5437 20 22.4621 20 24.7932V30.9314H18.2606V18.655Z" fill="black"/>
</svg>
