<svg width="40" height="45" viewBox="0 0 40 45" fill="none" xmlns="http://www.w3.org/2000/svg">
<path d="M20 0.716187C8.96422 0.716187 0 10.4496 0 22.4324C0 34.4151 8.96422 44.1485 20 44.1485C31.0358 44.1485 40 34.4151 40 22.4324C40 10.4496 31.0358 0.716187 20 0.716187ZM20 2.60487C30.0976 2.60487 38.264 11.472 38.264 22.4324C38.264 33.3964 30.0976 42.2636 20 42.2636C9.90584 42.2636 1.73943 33.3964 1.73943 22.4324C1.73943 11.472 9.90584 2.60487 20 2.60487ZM24.9512 12.1004C21.8216 12.1004 19.2638 14.8776 19.2638 18.2758C19.2638 18.2981 19.2707 18.3241 19.2707 18.3464C15.9562 17.8668 13.0217 16.0896 11.005 13.4053C10.8235 13.1637 10.5461 13.0373 10.2619 13.0596C9.97774 13.0856 9.72094 13.2603 9.58055 13.5243C9.09091 14.4389 8.80671 15.5059 8.80671 16.6362C8.80671 17.6363 9.06694 18.5695 9.46071 19.4097C9.06009 19.5027 8.76905 19.8856 8.76905 20.3318V20.3987C8.76905 22.2242 9.56001 23.8043 10.7242 24.9382C10.4845 25.1873 10.3989 25.5591 10.4982 25.9049C10.981 27.5445 12.1178 28.8271 13.5319 29.5558C12.3986 30.1321 11.183 30.5448 9.8442 30.5448C9.4881 30.5448 9.14227 30.5225 8.79986 30.4741C8.39582 30.4221 8.01233 30.6786 7.87879 31.095C7.7384 31.5114 7.88564 31.9725 8.22804 32.2104C10.4914 33.7868 13.1895 34.7088 16.076 34.7088C20.7464 34.7088 24.441 32.5748 26.9064 29.541C29.3751 26.4997 30.6557 22.5774 30.6557 18.8818C30.6557 18.7702 30.6523 18.6661 30.6489 18.5583C31.4946 17.8185 32.2924 17.0042 32.8951 16.0227C33.1039 15.6918 33.0936 15.2568 32.8711 14.9334C32.6519 14.6136 32.2719 14.4761 31.9158 14.5951C32.0596 14.2976 32.2582 14.0411 32.3506 13.7176C32.4636 13.3458 32.3472 12.9369 32.0664 12.6915C31.7857 12.4498 31.3953 12.4164 31.0837 12.6171C30.3236 13.1042 29.4676 13.4314 28.5841 13.6544C27.5877 12.7324 26.3517 12.1004 24.9512 12.1004ZM24.9512 13.989C26.0914 13.989 27.1152 14.5058 27.8309 15.3386C28.0363 15.5803 28.341 15.6881 28.6321 15.6249C28.7656 15.5952 28.8718 15.5059 29.0019 15.4688C28.9848 15.4799 28.9745 15.5022 28.9574 15.5134C28.6218 15.7327 28.4609 16.1714 28.5704 16.5804C28.68 16.9894 29.0259 17.2719 29.4196 17.2645C29.358 17.3128 29.3237 17.3946 29.2655 17.443C29.0259 17.6289 28.8889 17.93 28.9026 18.246C28.9094 18.4579 28.9163 18.6699 28.9163 18.8818C28.9163 22.0978 27.7761 25.6149 25.6018 28.2917C23.4309 30.9649 20.2705 32.8201 16.076 32.8201C14.6413 32.8201 13.2888 32.5078 12.0014 32.0357C13.6038 31.6639 15.1207 31.0504 16.3636 29.9908C16.6513 29.7417 16.7677 29.3253 16.6478 28.9498C16.5314 28.5706 16.2096 28.3141 15.8432 28.3066C14.6139 28.2806 13.662 27.5221 12.9567 26.5481C13.2169 26.5109 13.484 26.5109 13.7339 26.4365C14.1209 26.3213 14.3845 25.9309 14.3708 25.4959C14.3571 25.0572 14.0695 24.6854 13.6723 24.6036C12.2376 24.2839 11.118 23.1165 10.7071 21.6033C11.0769 21.6999 11.3987 21.9156 11.7925 21.9304C12.1794 21.9416 12.5321 21.6776 12.6485 21.2761C12.7684 20.8746 12.6246 20.4396 12.3061 20.2016C11.2446 19.432 10.5461 18.127 10.5461 16.6362C10.5461 16.3239 10.7002 16.0785 10.7584 15.7922C13.2272 18.4468 16.5143 20.2091 20.2191 20.4135C20.4896 20.4284 20.7533 20.302 20.9279 20.0715C21.106 19.8447 21.1676 19.5361 21.106 19.2499C21.0409 18.9413 21.0033 18.6141 21.0033 18.2758C21.0033 15.8963 22.7598 13.989 24.9512 13.989Z" fill="black"/>
</svg>
