<svg width="207" height="299" viewBox="0 0 207 299" fill="none" xmlns="http://www.w3.org/2000/svg">
<path d="M42.4221 188.04V199.12L35.1021 188.04H33.2821V202H35.1021V190.9L42.4221 202H44.2421V188.04H42.4221ZM47.3446 202H49.1646V191.04H47.3446V202ZM48.2846 189.26C48.9446 189.26 49.4846 188.72 49.4846 188.02C49.4846 187.32 48.9446 186.78 48.2846 186.78C47.5846 186.78 47.0446 187.32 47.0446 188.02C47.0446 188.72 47.5846 189.26 48.2846 189.26ZM56.9265 192.4C58.8065 192.4 60.4065 193.58 60.3865 195.72H53.4665C53.6665 193.58 55.1465 192.4 56.9265 192.4ZM62.0465 198.62H60.0865C59.6865 199.8 58.6465 200.64 57.0065 200.64C55.1465 200.64 53.5865 199.42 53.4465 197.2H62.2065C62.2465 196.82 62.2665 196.5 62.2665 196.1C62.2665 193.1 60.1865 190.86 57.0065 190.86C53.8065 190.86 51.5865 193.04 51.5865 196.5C51.5865 199.98 53.8865 202.18 57.0065 202.18C59.7265 202.18 61.4865 200.62 62.0465 198.62ZM76.7008 191.04H69.3208V192.52H74.6008L69.2808 200.5V202H76.7408V200.5H71.3608L76.7008 192.52V191.04ZM78.4224 196.48C78.4224 199.88 80.6824 202.18 83.6024 202.18C85.6224 202.18 87.0424 201.14 87.7024 199.96V202H89.5424V191.04H87.7024V193.04C87.0624 191.9 85.6624 190.86 83.6224 190.86C80.6824 190.86 78.4224 193.06 78.4224 196.48ZM87.7024 196.5C87.7024 199.08 85.9824 200.58 83.9824 200.58C81.9824 200.58 80.2824 199.06 80.2824 196.48C80.2824 193.9 81.9824 192.44 83.9824 192.44C85.9824 192.44 87.7024 193.96 87.7024 196.5ZM94.438 193.06V191.04H92.618V207.2H94.438V199.98C95.118 201.1 96.538 202.18 98.538 202.18C101.478 202.18 103.738 199.88 103.738 196.48C103.738 193.06 101.478 190.86 98.538 190.86C96.538 190.86 95.098 191.9 94.438 193.06ZM101.878 196.48C101.878 199.06 100.178 200.58 98.158 200.58C96.178 200.58 94.438 199.08 94.438 196.5C94.438 193.96 96.178 192.44 98.158 192.44C100.178 192.44 101.878 193.9 101.878 196.48ZM116.534 196.5C116.534 193.04 114.114 190.86 110.994 190.86C107.894 190.86 105.454 193.04 105.454 196.5C105.454 199.98 107.814 202.18 110.914 202.18C114.034 202.18 116.534 199.98 116.534 196.5ZM107.314 196.5C107.314 193.74 109.054 192.44 110.974 192.44C112.854 192.44 114.674 193.74 114.674 196.5C114.674 199.28 112.814 200.58 110.914 200.58C109.014 200.58 107.314 199.28 107.314 196.5ZM134.747 202H136.547V195.54C136.547 192.4 134.607 190.84 132.107 190.84C130.427 190.84 128.867 191.7 128.227 193.28C127.507 191.64 126.007 190.84 124.207 190.84C122.767 190.84 121.467 191.46 120.747 192.62V191.04H118.927V202H120.747V195.96C120.747 193.6 122.007 192.42 123.847 192.42C125.647 192.42 126.847 193.56 126.847 195.8V202H128.647V195.96C128.647 193.6 129.907 192.42 131.747 192.42C133.547 192.42 134.747 193.56 134.747 195.8V202ZM147.552 202H149.352V195.54C149.352 192.4 147.412 190.84 144.872 190.84C143.392 190.84 142.072 191.46 141.352 192.6V191.04H139.532V202H141.352V195.94C141.352 193.58 142.632 192.42 144.492 192.42C146.332 192.42 147.552 193.56 147.552 195.8V202ZM152.325 202H154.145V191.04H152.325V202ZM153.265 189.26C153.925 189.26 154.465 188.72 154.465 188.02C154.465 187.32 153.925 186.78 153.265 186.78C152.565 186.78 152.025 187.32 152.025 188.02C152.025 188.72 152.565 189.26 153.265 189.26ZM165.127 199.02C165.047 195.1 158.687 196.52 158.687 193.92C158.687 193.04 159.487 192.4 160.827 192.4C162.287 192.4 163.127 193.2 163.207 194.3H165.027C164.907 192.16 163.307 190.86 160.887 190.86C158.447 190.86 156.867 192.24 156.867 193.92C156.867 198 163.347 196.58 163.347 199.02C163.347 199.92 162.547 200.64 161.107 200.64C159.567 200.64 158.627 199.84 158.527 198.78H156.647C156.767 200.78 158.567 202.18 161.127 202.18C163.547 202.18 165.127 200.82 165.127 199.02ZM174.396 191.04H167.016V192.52H172.296L166.976 200.5V202H174.436V200.5H169.056L174.396 192.52V191.04ZM11.2114 228.5C11.2114 225.04 8.79134 222.86 5.67134 222.86C2.57134 222.86 0.131348 225.04 0.131348 228.5C0.131348 231.98 2.49134 234.18 5.59134 234.18C8.71135 234.18 11.2114 231.98 11.2114 228.5ZM1.99134 228.5C1.99134 225.74 3.73134 224.44 5.65134 224.44C7.53134 224.44 9.35134 225.74 9.35134 228.5C9.35134 231.28 7.49134 232.58 5.59134 232.58C3.69134 232.58 1.99134 231.28 1.99134 228.5ZM34.1364 222.92L30.8964 234H27.8764L25.8564 226.26L23.8364 234H20.7964L17.5364 222.92H20.3764L22.3364 231.36L24.4564 222.92H27.4164L29.4964 231.34L31.4564 222.92H34.1364ZM46.2514 222.92L39.3914 239.24H36.4114L38.8114 233.72L34.3714 222.92H37.5114L40.3714 230.66L43.2714 222.92H46.2514ZM47.0408 228.42C47.0408 227.3 47.2608 226.307 47.7008 225.44C48.1541 224.573 48.7674 223.907 49.5408 223.44C50.3141 222.973 51.1741 222.74 52.1208 222.74C52.8408 222.74 53.5274 222.9 54.1808 223.22C54.8341 223.527 55.3541 223.94 55.7408 224.46V219.2H58.5808V234H55.7408V232.36C55.3941 232.907 54.9074 233.347 54.2808 233.68C53.6541 234.013 52.9274 234.18 52.1008 234.18C51.1674 234.18 50.3141 233.94 49.5408 233.46C48.7674 232.98 48.1541 232.307 47.7008 231.44C47.2608 230.56 47.0408 229.553 47.0408 228.42ZM55.7608 228.46C55.7608 227.78 55.6274 227.2 55.3608 226.72C55.0941 226.227 54.7341 225.853 54.2808 225.6C53.8274 225.333 53.3408 225.2 52.8208 225.2C52.3008 225.2 51.8208 225.327 51.3808 225.58C50.9408 225.833 50.5808 226.207 50.3008 226.7C50.0341 227.18 49.9008 227.753 49.9008 228.42C49.9008 229.087 50.0341 229.673 50.3008 230.18C50.5808 230.673 50.9408 231.053 51.3808 231.32C51.8341 231.587 52.3141 231.72 52.8208 231.72C53.3408 231.72 53.8274 231.593 54.2808 231.34C54.7341 231.073 55.0941 230.7 55.3608 230.22C55.6274 229.727 55.7608 229.14 55.7608 228.46ZM60.5954 228.42C60.5954 227.3 60.8154 226.307 61.2554 225.44C61.7088 224.573 62.3154 223.907 63.0754 223.44C63.8488 222.973 64.7088 222.74 65.6554 222.74C66.4821 222.74 67.2021 222.907 67.8154 223.24C68.4421 223.573 68.9421 223.993 69.3154 224.5V222.92H72.1354V234H69.3154V232.38C68.9554 232.9 68.4554 233.333 67.8154 233.68C67.1888 234.013 66.4621 234.18 65.6354 234.18C64.7021 234.18 63.8488 233.94 63.0754 233.46C62.3154 232.98 61.7088 232.307 61.2554 231.44C60.8154 230.56 60.5954 229.553 60.5954 228.42ZM69.3154 228.46C69.3154 227.78 69.1821 227.2 68.9154 226.72C68.6488 226.227 68.2888 225.853 67.8354 225.6C67.3821 225.333 66.8954 225.2 66.3754 225.2C65.8554 225.2 65.3754 225.327 64.9354 225.58C64.4954 225.833 64.1354 226.207 63.8554 226.7C63.5888 227.18 63.4554 227.753 63.4554 228.42C63.4554 229.087 63.5888 229.673 63.8554 230.18C64.1354 230.673 64.4954 231.053 64.9354 231.32C65.3888 231.587 65.8688 231.72 66.3754 231.72C66.8954 231.72 67.3821 231.593 67.8354 231.34C68.2888 231.073 68.6488 230.7 68.9154 230.22C69.1821 229.727 69.3154 229.14 69.3154 228.46ZM77.6701 224.64C78.0301 224.053 78.4968 223.593 79.0701 223.26C79.6568 222.927 80.3235 222.76 81.0701 222.76V225.7H80.3301C79.4501 225.7 78.7835 225.907 78.3301 226.32C77.8901 226.733 77.6701 227.453 77.6701 228.48V234H74.8701V222.92H77.6701V224.64ZM85.5161 231.7H90.4561V234H82.3361V231.74L87.1761 225.22H82.3561V222.92H90.3961V225.18L85.5161 231.7ZM102.924 228.22C102.924 228.62 102.897 228.98 102.844 229.3H94.744C94.8107 230.1 95.0907 230.727 95.584 231.18C96.0774 231.633 96.684 231.86 97.404 231.86C98.444 231.86 99.184 231.413 99.624 230.52H102.644C102.324 231.587 101.711 232.467 100.804 233.16C99.8974 233.84 98.784 234.18 97.464 234.18C96.3974 234.18 95.4374 233.947 94.584 233.48C93.744 233 93.084 232.327 92.604 231.46C92.1374 230.593 91.904 229.593 91.904 228.46C91.904 227.313 92.1374 226.307 92.604 225.44C93.0707 224.573 93.724 223.907 94.564 223.44C95.404 222.973 96.3707 222.74 97.464 222.74C98.5174 222.74 99.4574 222.967 100.284 223.42C101.124 223.873 101.771 224.52 102.224 225.36C102.691 226.187 102.924 227.14 102.924 228.22ZM100.024 227.42C100.011 226.7 99.7507 226.127 99.244 225.7C98.7374 225.26 98.1174 225.04 97.384 225.04C96.6907 225.04 96.104 225.253 95.624 225.68C95.1574 226.093 94.8707 226.673 94.764 227.42H100.024ZM111.108 222.76C112.428 222.76 113.495 223.18 114.308 224.02C115.121 224.847 115.528 226.007 115.528 227.5V234H112.728V227.88C112.728 227 112.508 226.327 112.068 225.86C111.628 225.38 111.028 225.14 110.268 225.14C109.495 225.14 108.881 225.38 108.428 225.86C107.988 226.327 107.768 227 107.768 227.88V234H104.968V222.92H107.768V224.3C108.141 223.82 108.615 223.447 109.188 223.18C109.775 222.9 110.415 222.76 111.108 222.76ZM119.611 221.6C119.117 221.6 118.704 221.447 118.371 221.14C118.051 220.82 117.891 220.427 117.891 219.96C117.891 219.493 118.051 219.107 118.371 218.8C118.704 218.48 119.117 218.32 119.611 218.32C120.104 218.32 120.511 218.48 120.831 218.8C121.164 219.107 121.331 219.493 121.331 219.96C121.331 220.427 121.164 220.82 120.831 221.14C120.511 221.447 120.104 221.6 119.611 221.6ZM120.991 222.92V234H118.191V222.92H120.991ZM134.217 222.92V234H131.397V232.6C131.037 233.08 130.564 233.46 129.977 233.74C129.404 234.007 128.777 234.14 128.097 234.14C127.23 234.14 126.464 233.96 125.797 233.6C125.13 233.227 124.604 232.687 124.217 231.98C123.844 231.26 123.657 230.407 123.657 229.42V222.92H126.457V229.02C126.457 229.9 126.677 230.58 127.117 231.06C127.557 231.527 128.157 231.76 128.917 231.76C129.69 231.76 130.297 231.527 130.737 231.06C131.177 230.58 131.397 229.9 131.397 229.02V222.92H134.217ZM144.305 231.7H149.245V234H141.125V231.74L145.965 225.22H141.145V222.92H149.185V225.18L144.305 231.7ZM158.739 231.7H163.679V234H155.559V231.74L160.399 225.22H155.579V222.92H163.619V225.18L158.739 231.7ZM159.659 221.6C159.285 221.6 158.972 221.473 158.719 221.22C158.465 220.967 158.339 220.653 158.339 220.28C158.339 219.907 158.465 219.593 158.719 219.34C158.972 219.073 159.285 218.94 159.659 218.94C160.032 218.94 160.345 219.073 160.599 219.34C160.865 219.593 160.999 219.907 160.999 220.28C160.999 220.653 160.865 220.967 160.599 221.22C160.345 221.473 160.032 221.6 159.659 221.6ZM176.447 222.92L169.587 239.24H166.607L169.007 233.72L164.567 222.92H167.707L170.567 230.66L173.467 222.92H176.447ZM177.236 228.46C177.236 227.313 177.47 226.313 177.936 225.46C178.403 224.593 179.05 223.927 179.876 223.46C180.703 222.98 181.65 222.74 182.716 222.74C184.09 222.74 185.223 223.087 186.116 223.78C187.023 224.46 187.63 225.42 187.936 226.66H184.916C184.756 226.18 184.483 225.807 184.096 225.54C183.723 225.26 183.256 225.12 182.696 225.12C181.896 225.12 181.263 225.413 180.796 226C180.33 226.573 180.096 227.393 180.096 228.46C180.096 229.513 180.33 230.333 180.796 230.92C181.263 231.493 181.896 231.78 182.696 231.78C183.83 231.78 184.57 231.273 184.916 230.26H187.936C187.63 231.46 187.023 232.413 186.116 233.12C185.21 233.827 184.076 234.18 182.716 234.18C181.65 234.18 180.703 233.947 179.876 233.48C179.05 233 178.403 232.333 177.936 231.48C177.47 230.613 177.236 229.607 177.236 228.46ZM191.407 221.6C190.914 221.6 190.501 221.447 190.167 221.14C189.847 220.82 189.687 220.427 189.687 219.96C189.687 219.493 189.847 219.107 190.167 218.8C190.501 218.48 190.914 218.32 191.407 218.32C191.901 218.32 192.307 218.48 192.627 218.8C192.961 219.107 193.127 219.493 193.127 219.96C193.127 220.427 192.961 220.82 192.627 221.14C192.307 221.447 191.901 221.6 191.407 221.6ZM192.787 222.92V234H189.987V222.92H192.787ZM194.834 228.42C194.834 227.3 195.054 226.307 195.494 225.44C195.947 224.573 196.554 223.907 197.314 223.44C198.087 222.973 198.947 222.74 199.894 222.74C200.72 222.74 201.44 222.907 202.054 223.24C202.68 223.573 203.18 223.993 203.554 224.5V222.92H206.374V234H203.554V232.38C203.194 232.9 202.694 233.333 202.054 233.68C201.427 234.013 200.7 234.18 199.874 234.18C198.94 234.18 198.087 233.94 197.314 233.46C196.554 232.98 195.947 232.307 195.494 231.44C195.054 230.56 194.834 229.553 194.834 228.42ZM203.554 228.46C203.554 227.78 203.42 227.2 203.154 226.72C202.887 226.227 202.527 225.853 202.074 225.6C201.62 225.333 201.134 225.2 200.614 225.2C200.094 225.2 199.614 225.327 199.174 225.58C198.734 225.833 198.374 226.207 198.094 226.7C197.827 227.18 197.694 227.753 197.694 228.42C197.694 229.087 197.827 229.673 198.094 230.18C198.374 230.673 198.734 231.053 199.174 231.32C199.627 231.587 200.107 231.72 200.614 231.72C201.134 231.72 201.62 231.593 202.074 231.34C202.527 231.073 202.887 230.7 203.154 230.22C203.42 229.727 203.554 229.14 203.554 228.46ZM42.6701 256.52C43.0301 256.013 43.5235 255.593 44.1501 255.26C44.7901 254.913 45.5168 254.74 46.3301 254.74C47.2768 254.74 48.1301 254.973 48.8901 255.44C49.6635 255.907 50.2701 256.573 50.7101 257.44C51.1635 258.293 51.3901 259.287 51.3901 260.42C51.3901 261.553 51.1635 262.56 50.7101 263.44C50.2701 264.307 49.6635 264.98 48.8901 265.46C48.1301 265.94 47.2768 266.18 46.3301 266.18C45.5168 266.18 44.7968 266.013 44.1701 265.68C43.5568 265.347 43.0568 264.927 42.6701 264.42V271.28H39.8701V254.92H42.6701V256.52ZM48.5301 260.42C48.5301 259.753 48.3901 259.18 48.1101 258.7C47.8435 258.207 47.4835 257.833 47.0301 257.58C46.5901 257.327 46.1101 257.2 45.5901 257.2C45.0835 257.2 44.6035 257.333 44.1501 257.6C43.7101 257.853 43.3501 258.227 43.0701 258.72C42.8035 259.213 42.6701 259.793 42.6701 260.46C42.6701 261.127 42.8035 261.707 43.0701 262.2C43.3501 262.693 43.7101 263.073 44.1501 263.34C44.6035 263.593 45.0835 263.72 45.5901 263.72C46.1101 263.72 46.5901 263.587 47.0301 263.32C47.4835 263.053 47.8435 262.673 48.1101 262.18C48.3901 261.687 48.5301 261.1 48.5301 260.42ZM63.8848 254.92V266H61.0648V264.6C60.7048 265.08 60.2315 265.46 59.6448 265.74C59.0715 266.007 58.4448 266.14 57.7648 266.14C56.8982 266.14 56.1315 265.96 55.4648 265.6C54.7982 265.227 54.2715 264.687 53.8848 263.98C53.5115 263.26 53.3248 262.407 53.3248 261.42V254.92H56.1248V261.02C56.1248 261.9 56.3448 262.58 56.7848 263.06C57.2248 263.527 57.8248 263.76 58.5848 263.76C59.3582 263.76 59.9648 263.527 60.4048 263.06C60.8448 262.58 61.0648 261.9 61.0648 261.02V254.92H63.8848ZM69.4475 256.52C69.8075 256.013 70.3008 255.593 70.9275 255.26C71.5675 254.913 72.2941 254.74 73.1075 254.74C74.0541 254.74 74.9075 254.973 75.6675 255.44C76.4408 255.907 77.0475 256.573 77.4875 257.44C77.9408 258.293 78.1675 259.287 78.1675 260.42C78.1675 261.553 77.9408 262.56 77.4875 263.44C77.0475 264.307 76.4408 264.98 75.6675 265.46C74.9075 265.94 74.0541 266.18 73.1075 266.18C72.2941 266.18 71.5741 266.013 70.9475 265.68C70.3341 265.347 69.8341 264.927 69.4475 264.42V271.28H66.6475V254.92H69.4475V256.52ZM75.3075 260.42C75.3075 259.753 75.1675 259.18 74.8875 258.7C74.6208 258.207 74.2608 257.833 73.8075 257.58C73.3675 257.327 72.8875 257.2 72.3675 257.2C71.8608 257.2 71.3808 257.333 70.9275 257.6C70.4875 257.853 70.1275 258.227 69.8475 258.72C69.5808 259.213 69.4475 259.793 69.4475 260.46C69.4475 261.127 69.5808 261.707 69.8475 262.2C70.1275 262.693 70.4875 263.073 70.9275 263.34C71.3808 263.593 71.8608 263.72 72.3675 263.72C72.8875 263.72 73.3675 263.587 73.8075 263.32C74.2608 263.053 74.6208 262.673 74.8875 262.18C75.1675 261.687 75.3075 261.1 75.3075 260.42ZM81.6222 253.6C81.1288 253.6 80.7155 253.447 80.3822 253.14C80.0622 252.82 79.9022 252.427 79.9022 251.96C79.9022 251.493 80.0622 251.107 80.3822 250.8C80.7155 250.48 81.1288 250.32 81.6222 250.32C82.1155 250.32 82.5222 250.48 82.8422 250.8C83.1755 251.107 83.3422 251.493 83.3422 251.96C83.3422 252.427 83.1755 252.82 82.8422 253.14C82.5222 253.447 82.1155 253.6 81.6222 253.6ZM83.0022 254.92V266H80.2022V254.92H83.0022ZM88.5686 251.2V266H85.7686V251.2H88.5686ZM90.615 260.42C90.615 259.3 90.835 258.307 91.275 257.44C91.7283 256.573 92.335 255.907 93.095 255.44C93.8683 254.973 94.7283 254.74 95.675 254.74C96.5016 254.74 97.2216 254.907 97.835 255.24C98.4616 255.573 98.9616 255.993 99.335 256.5V254.92H102.155V266H99.335V264.38C98.975 264.9 98.475 265.333 97.835 265.68C97.2083 266.013 96.4816 266.18 95.655 266.18C94.7216 266.18 93.8683 265.94 93.095 265.46C92.335 264.98 91.7283 264.307 91.275 263.44C90.835 262.56 90.615 261.553 90.615 260.42ZM99.335 260.46C99.335 259.78 99.2016 259.2 98.935 258.72C98.6683 258.227 98.3083 257.853 97.855 257.6C97.4016 257.333 96.915 257.2 96.395 257.2C95.875 257.2 95.395 257.327 94.955 257.58C94.515 257.833 94.155 258.207 93.875 258.7C93.6083 259.18 93.475 259.753 93.475 260.42C93.475 261.087 93.6083 261.673 93.875 262.18C94.155 262.673 94.515 263.053 94.955 263.32C95.4083 263.587 95.8883 263.72 96.395 263.72C96.915 263.72 97.4016 263.593 97.855 263.34C98.3083 263.073 98.6683 262.7 98.935 262.22C99.2016 261.727 99.335 261.14 99.335 260.46ZM107.95 263.06L105.61 268.68H103.81L105.11 263.06H107.95ZM114.214 260.48C114.214 263.88 116.474 266.18 119.414 266.18C121.414 266.18 122.834 265.16 123.494 263.94V266H125.334V251.2H123.494V257C122.734 255.74 121.154 254.86 119.434 254.86C116.474 254.86 114.214 257.06 114.214 260.48ZM123.494 260.5C123.494 263.08 121.774 264.58 119.774 264.58C117.774 264.58 116.074 263.06 116.074 260.48C116.074 257.9 117.774 256.44 119.774 256.44C121.774 256.44 123.494 257.96 123.494 260.5ZM135.109 255.04H127.729V256.52H133.009L127.689 264.5V266H135.149V264.5H129.769L135.109 256.52V255.04ZM137.511 266H139.331V255.04H137.511V266ZM138.451 253.26C139.111 253.26 139.651 252.72 139.651 252.02C139.651 251.32 139.111 250.78 138.451 250.78C137.751 250.78 137.211 251.32 137.211 252.02C137.211 252.72 137.751 253.26 138.451 253.26ZM147.093 256.4C148.973 256.4 150.573 257.58 150.553 259.72H143.633C143.833 257.58 145.313 256.4 147.093 256.4ZM149.473 269.56V268.36C149.013 268.52 148.553 268.62 148.173 268.62C147.453 268.62 146.993 268.28 146.993 267.66C146.993 267.16 147.293 266.7 148.193 266.26L148.753 265.98C150.573 265.5 151.773 264.2 152.213 262.62H150.253C149.853 263.8 148.813 264.64 147.173 264.64C145.313 264.64 143.753 263.42 143.613 261.2H152.373C152.413 260.82 152.433 260.5 152.433 260.1C152.433 257.1 150.353 254.86 147.173 254.86C143.973 254.86 141.753 257.04 141.753 260.5C141.753 263.66 143.653 265.78 146.353 266.12C145.733 266.66 145.493 267.24 145.493 267.84C145.493 269.3 146.733 269.84 147.933 269.84C148.473 269.84 149.013 269.72 149.473 269.56ZM154.835 266H156.655V261.16L160.955 266H163.435L158.255 260.5L163.415 255.04H160.875L156.655 259.9V251.2H154.835V266ZM165.128 266H166.948V255.04H165.128V266ZM166.068 253.26C166.728 253.26 167.268 252.72 167.268 252.02C167.268 251.32 166.728 250.78 166.068 250.78C165.368 250.78 164.828 251.32 164.828 252.02C164.828 252.72 165.368 253.26 166.068 253.26ZM39.2196 298H41.0396V293.16L45.3396 298H47.8196L42.6396 292.5L47.7996 287.04H45.2596L41.0396 291.9V283.2H39.2196V298ZM48.8326 292.48C48.8326 295.88 51.0926 298.18 54.0126 298.18C56.0326 298.18 57.4526 297.14 58.1126 295.96V298H59.9526V287.04H58.1126V289.04C57.4726 287.9 56.0726 286.86 54.0326 286.86C51.0926 286.86 48.8326 289.06 48.8326 292.48ZM58.1126 292.5C58.1126 295.08 56.3926 296.58 54.3926 296.58C52.3926 296.58 50.6926 295.06 50.6926 292.48C50.6926 289.9 52.3926 288.44 54.3926 288.44C56.3926 288.44 58.1126 289.96 58.1126 292.5ZM63.0282 298H64.8482V283.2H63.0282V298ZM72.6101 288.4C74.4901 288.4 76.0901 289.58 76.0701 291.72H69.1501C69.3501 289.58 70.8301 288.4 72.6101 288.4ZM77.7301 294.62H75.7701C75.3701 295.8 74.3301 296.64 72.6901 296.64C70.8301 296.64 69.2701 295.42 69.1301 293.2H77.8901C77.9301 292.82 77.9501 292.5 77.9501 292.1C77.9501 289.1 75.8701 286.86 72.6901 286.86C69.4901 286.86 67.2701 289.04 67.2701 292.5C67.2701 295.98 69.5701 298.18 72.6901 298.18C75.4101 298.18 77.1701 296.62 77.7301 294.62ZM88.3724 298H90.1724V291.54C90.1724 288.4 88.2324 286.84 85.6924 286.84C84.2124 286.84 82.8924 287.46 82.1724 288.6V287.04H80.3524V298H82.1724V291.94C82.1724 289.58 83.4524 288.42 85.3124 288.42C87.1524 288.42 88.3724 289.56 88.3724 291.8V298ZM92.4654 292.48C92.4654 295.88 94.7254 298.18 97.6654 298.18C99.6654 298.18 101.085 297.16 101.745 295.94V298H103.585V283.2H101.745V289C100.985 287.74 99.4054 286.86 97.6854 286.86C94.7254 286.86 92.4654 289.06 92.4654 292.48ZM101.745 292.5C101.745 295.08 100.025 296.58 98.0254 296.58C96.0254 296.58 94.3254 295.06 94.3254 292.48C94.3254 289.9 96.0254 288.44 98.0254 288.44C100.025 288.44 101.745 289.96 101.745 292.5ZM105.981 292.48C105.981 295.88 108.241 298.18 111.161 298.18C113.181 298.18 114.601 297.14 115.261 295.96V298H117.101V287.04H115.261V289.04C114.621 287.9 113.221 286.86 111.181 286.86C108.241 286.86 105.981 289.06 105.981 292.48ZM115.261 292.5C115.261 295.08 113.541 296.58 111.541 296.58C109.541 296.58 107.841 295.06 107.841 292.48C107.841 289.9 109.541 288.44 111.541 288.44C113.541 288.44 115.261 289.96 115.261 292.5ZM121.997 292.04C121.997 289.5 123.317 288.72 125.057 288.72H125.537V286.84C123.797 286.84 122.617 287.6 121.997 288.82V287.04H120.177V298H121.997V292.04ZM134.338 287.04H126.958V288.52H132.238L126.918 296.5V298H134.378V296.5H128.998L134.338 288.52V287.04ZM147.139 292.5C147.139 289.04 144.719 286.86 141.599 286.86C138.499 286.86 136.059 289.04 136.059 292.5C136.059 295.98 138.419 298.18 141.519 298.18C144.639 298.18 147.139 295.98 147.139 292.5ZM137.919 292.5C137.919 289.74 139.659 288.44 141.579 288.44C143.459 288.44 145.279 289.74 145.279 292.5C145.279 295.28 143.419 296.58 141.519 296.58C139.619 296.58 137.919 295.28 137.919 292.5ZM151.672 298H153.552L156.192 289.3L158.832 298H160.712L164.132 287.04H162.332L159.852 296.26L157.192 287.04H155.332L152.612 296.24L150.092 287.04H148.232L151.672 298ZM165.938 298H167.758V287.04H165.938V298ZM166.878 285.26C167.538 285.26 168.078 284.72 168.078 284.02C168.078 283.32 167.538 282.78 166.878 282.78C166.178 282.78 165.638 283.32 165.638 284.02C165.638 284.72 166.178 285.26 166.878 285.26Z" fill="black"/>
<path d="M162.583 15.625H44.4165C42.7596 15.625 41.4165 16.9681 41.4165 18.625V130.583C41.4165 132.24 42.7596 133.583 44.4165 133.583H162.583C164.24 133.583 165.583 132.24 165.583 130.583V18.625C165.583 16.9681 164.24 15.625 162.583 15.625Z" stroke="#007D96" stroke-width="7"/>
<path d="M72.4585 3.20825V15.6249" stroke="#007D96" stroke-width="5" stroke-linecap="round" stroke-linejoin="round"/>
<path d="M134.542 3.20825V15.6249" stroke="#007D96" stroke-width="5" stroke-linecap="round" stroke-linejoin="round"/>
<path d="M41.4165 46.6667H165.583" stroke="#007D96" stroke-width="7" stroke-linecap="round" stroke-linejoin="round"/>
<path d="M69.354 77.7083H75.5623" stroke="#00A5C5" stroke-width="5" stroke-linecap="round" stroke-linejoin="round"/>
<path d="M100.396 77.7083H106.604" stroke="#00A5C5" stroke-width="5" stroke-linecap="round" stroke-linejoin="round"/>
<path d="M131.438 77.7083H137.646" stroke="#00A5C5" stroke-width="5" stroke-linecap="round" stroke-linejoin="round"/>
<path d="M69.354 102.542H75.5623" stroke="#00A5C5" stroke-width="5" stroke-linecap="round" stroke-linejoin="round"/>
<path d="M100.396 102.542H106.604" stroke="#00A5C5" stroke-width="5" stroke-linecap="round" stroke-linejoin="round"/>
<path d="M131.438 102.542H137.646" stroke="#FF6976" stroke-width="5" stroke-linecap="round" stroke-linejoin="round"/>
</svg>
