<svg width="236" height="264" viewBox="0 0 236 264" fill="none" xmlns="http://www.w3.org/2000/svg">
<path d="M4.28184 194.02L6.30184 194L9.66184 182.78L12.9019 194H14.9419L18.9819 180.06H17.0219L13.9619 191.84L10.7619 180.06H8.72184L5.36184 191.88L2.32184 180.06H0.381836L4.28184 194.02ZM25.1336 191.92L21.6936 183.04H19.6736L24.0936 193.88L21.9336 199.16H23.8136L30.4136 183.04H28.5336L25.1336 191.92ZM48.0631 194H49.8631V187.54C49.8631 184.4 47.9231 182.84 45.4231 182.84C43.7431 182.84 42.1831 183.7 41.5431 185.28C40.8231 183.64 39.3231 182.84 37.5231 182.84C36.0831 182.84 34.7831 183.46 34.0631 184.62V183.04H32.2431V194H34.0631V187.96C34.0631 185.6 35.3231 184.42 37.1631 184.42C38.9631 184.42 40.1631 185.56 40.1631 187.8V194H41.9631V187.96C41.9631 185.6 43.2231 184.42 45.0631 184.42C46.8631 184.42 48.0631 185.56 48.0631 187.8V194ZM52.8486 194H54.6686V183.04H52.8486V194ZM53.7886 181.26C54.4486 181.26 54.9886 180.72 54.9886 180.02C54.9886 179.32 54.4486 178.78 53.7886 178.78C53.0886 178.78 52.5486 179.32 52.5486 180.02C52.5486 180.72 53.0886 181.26 53.7886 181.26ZM62.4305 184.4C64.3105 184.4 65.9105 185.58 65.8905 187.72H58.9705C59.1705 185.58 60.6505 184.4 62.4305 184.4ZM67.5505 190.62H65.5905C65.1905 191.8 64.1505 192.64 62.5105 192.64C60.6505 192.64 59.0905 191.42 58.9505 189.2H67.7105C67.7505 188.82 67.7705 188.5 67.7705 188.1C67.7705 185.1 65.6905 182.86 62.5105 182.86C59.3105 182.86 57.0905 185.04 57.0905 188.5C57.0905 191.98 59.3905 194.18 62.5105 194.18C65.2305 194.18 66.9905 192.62 67.5505 190.62ZM78.1928 194H79.9928V187.54C79.9928 184.4 78.0528 182.84 75.5128 182.84C74.0328 182.84 72.7128 183.46 71.9928 184.6V183.04H70.1728V194H71.9928V187.94C71.9928 185.58 73.2728 184.42 75.1328 184.42C76.9728 184.42 78.1928 185.56 78.1928 187.8V194ZM82.9658 194H84.7858V183.04H82.9658V194ZM83.9058 181.26C84.5658 181.26 85.1058 180.72 85.1058 180.02C85.1058 179.32 84.5658 178.78 83.9058 178.78C83.2058 178.78 82.6658 179.32 82.6658 180.02C82.6658 180.72 83.2058 181.26 83.9058 181.26ZM95.7677 191.02C95.6877 187.1 89.3277 188.52 89.3277 185.92C89.3277 185.04 90.1277 184.4 91.4677 184.4C92.9277 184.4 93.7677 185.2 93.8477 186.3H95.6677C95.5477 184.16 93.9477 182.86 91.5277 182.86C89.0877 182.86 87.5077 184.24 87.5077 185.92C87.5077 190 93.9877 188.58 93.9877 191.02C93.9877 191.92 93.1877 192.64 91.7477 192.64C90.2077 192.64 89.2677 191.84 89.1677 190.78H87.2877C87.4077 192.78 89.2077 194.18 91.7677 194.18C94.1877 194.18 95.7677 192.82 95.7677 191.02ZM105.037 183.04H97.6569V184.52H102.937L97.6169 192.5V194H105.077V192.5H99.6969L105.037 184.52V183.04ZM120.65 191.02C120.57 187.1 114.21 188.52 114.21 185.92C114.21 185.04 115.01 184.4 116.35 184.4C117.81 184.4 118.65 185.2 118.73 186.3H120.55C120.43 184.16 118.83 182.86 116.41 182.86C113.97 182.86 112.39 184.24 112.39 185.92C112.39 190 118.87 188.58 118.87 191.02C118.87 191.92 118.07 192.64 116.63 192.64C115.09 192.64 114.15 191.84 114.05 190.78H112.17C112.29 192.78 114.09 194.18 116.65 194.18C119.07 194.18 120.65 192.82 120.65 191.02ZM123.22 194H125.04V183.04H123.22V194ZM124.16 181.26C124.82 181.26 125.36 180.72 125.36 180.02C125.36 179.32 124.82 178.78 124.16 178.78C123.46 178.78 122.92 179.32 122.92 180.02C122.92 180.72 123.46 181.26 124.16 181.26ZM132.802 184.4C134.682 184.4 136.282 185.58 136.262 187.72H129.342C129.542 185.58 131.022 184.4 132.802 184.4ZM135.182 197.56V196.36C134.722 196.52 134.262 196.62 133.882 196.62C133.162 196.62 132.702 196.28 132.702 195.66C132.702 195.16 133.002 194.7 133.902 194.26L134.462 193.98C136.282 193.5 137.482 192.2 137.922 190.62H135.962C135.562 191.8 134.522 192.64 132.882 192.64C131.022 192.64 129.462 191.42 129.322 189.2H138.082C138.122 188.82 138.142 188.5 138.142 188.1C138.142 185.1 136.062 182.86 132.882 182.86C129.682 182.86 127.462 185.04 127.462 188.5C127.462 191.66 129.362 193.78 132.062 194.12C131.442 194.66 131.202 195.24 131.202 195.84C131.202 197.3 132.442 197.84 133.642 197.84C134.182 197.84 134.722 197.72 135.182 197.56ZM151.036 194.18C149.969 194.18 149.009 193.947 148.156 193.48C147.303 193 146.629 192.327 146.136 191.46C145.656 190.593 145.416 189.593 145.416 188.46C145.416 187.327 145.663 186.327 146.156 185.46C146.663 184.593 147.349 183.927 148.216 183.46C149.083 182.98 150.049 182.74 151.116 182.74C152.183 182.74 153.149 182.98 154.016 183.46C154.883 183.927 155.563 184.593 156.056 185.46C156.563 186.327 156.816 187.327 156.816 188.46C156.816 189.593 156.556 190.593 156.036 191.46C155.529 192.327 154.836 193 153.956 193.48C153.089 193.947 152.116 194.18 151.036 194.18ZM151.036 191.74C151.543 191.74 152.016 191.62 152.456 191.38C152.909 191.127 153.269 190.753 153.536 190.26C153.803 189.767 153.936 189.167 153.936 188.46C153.936 187.407 153.656 186.6 153.096 186.04C152.549 185.467 151.876 185.18 151.076 185.18C150.276 185.18 149.603 185.467 149.056 186.04C148.523 186.6 148.256 187.407 148.256 188.46C148.256 189.513 148.516 190.327 149.036 190.9C149.569 191.46 150.236 191.74 151.036 191.74ZM161.87 184.52C162.23 184.013 162.723 183.593 163.35 183.26C163.99 182.913 164.717 182.74 165.53 182.74C166.477 182.74 167.33 182.973 168.09 183.44C168.863 183.907 169.47 184.573 169.91 185.44C170.363 186.293 170.59 187.287 170.59 188.42C170.59 189.553 170.363 190.56 169.91 191.44C169.47 192.307 168.863 192.98 168.09 193.46C167.33 193.94 166.477 194.18 165.53 194.18C164.717 194.18 163.997 194.013 163.37 193.68C162.757 193.347 162.257 192.927 161.87 192.42V199.28H159.07V182.92H161.87V184.52ZM167.73 188.42C167.73 187.753 167.59 187.18 167.31 186.7C167.043 186.207 166.683 185.833 166.23 185.58C165.79 185.327 165.31 185.2 164.79 185.2C164.283 185.2 163.803 185.333 163.35 185.6C162.91 185.853 162.55 186.227 162.27 186.72C162.003 187.213 161.87 187.793 161.87 188.46C161.87 189.127 162.003 189.707 162.27 190.2C162.55 190.693 162.91 191.073 163.35 191.34C163.803 191.593 164.283 191.72 164.79 191.72C165.31 191.72 165.79 191.587 166.23 191.32C166.683 191.053 167.043 190.673 167.31 190.18C167.59 189.687 167.73 189.1 167.73 188.42ZM174.245 181.6C173.751 181.6 173.338 181.447 173.005 181.14C172.685 180.82 172.525 180.427 172.525 179.96C172.525 179.493 172.685 179.107 173.005 178.8C173.338 178.48 173.751 178.32 174.245 178.32C174.738 178.32 175.145 178.48 175.465 178.8C175.798 179.107 175.965 179.493 175.965 179.96C175.965 180.427 175.798 180.82 175.465 181.14C175.145 181.447 174.738 181.6 174.245 181.6ZM175.625 182.92V194H172.825V182.92H175.625ZM184.731 182.76C186.051 182.76 187.118 183.18 187.931 184.02C188.744 184.847 189.151 186.007 189.151 187.5V194H186.351V187.88C186.351 187 186.131 186.327 185.691 185.86C185.251 185.38 184.651 185.14 183.891 185.14C183.118 185.14 182.504 185.38 182.051 185.86C181.611 186.327 181.391 187 181.391 187.88V194H178.591V182.92H181.391V184.3C181.764 183.82 182.238 183.447 182.811 183.18C183.398 182.9 184.038 182.76 184.731 182.76ZM193.434 181.6C192.94 181.6 192.527 181.447 192.194 181.14C191.874 180.82 191.714 180.427 191.714 179.96C191.714 179.493 191.874 179.107 192.194 178.8C192.527 178.48 192.94 178.32 193.434 178.32C193.927 178.32 194.334 178.48 194.654 178.8C194.987 179.107 195.154 179.493 195.154 179.96C195.154 180.427 194.987 180.82 194.654 181.14C194.334 181.447 193.927 181.6 193.434 181.6ZM194.814 182.92V194H192.014V182.92H194.814ZM197.06 188.42C197.06 187.3 197.28 186.307 197.72 185.44C198.173 184.573 198.78 183.907 199.54 183.44C200.313 182.973 201.173 182.74 202.12 182.74C202.947 182.74 203.667 182.907 204.28 183.24C204.907 183.573 205.407 183.993 205.78 184.5V182.92H208.6V194H205.78V192.38C205.42 192.9 204.92 193.333 204.28 193.68C203.653 194.013 202.927 194.18 202.1 194.18C201.167 194.18 200.313 193.94 199.54 193.46C198.78 192.98 198.173 192.307 197.72 191.44C197.28 190.56 197.06 189.553 197.06 188.42ZM205.78 188.46C205.78 187.78 205.647 187.2 205.38 186.72C205.113 186.227 204.753 185.853 204.3 185.6C203.847 185.333 203.36 185.2 202.84 185.2C202.32 185.2 201.84 185.327 201.4 185.58C200.96 185.833 200.6 186.207 200.32 186.7C200.053 187.18 199.92 187.753 199.92 188.42C199.92 189.087 200.053 189.673 200.32 190.18C200.6 190.673 200.96 191.053 201.4 191.32C201.853 191.587 202.333 191.72 202.84 191.72C203.36 191.72 203.847 191.593 204.3 191.34C204.753 191.073 205.113 190.7 205.38 190.22C205.647 189.727 205.78 189.14 205.78 188.46ZM225.295 182.76C226.655 182.76 227.748 183.18 228.575 184.02C229.415 184.847 229.835 186.007 229.835 187.5V194H227.035V187.88C227.035 187.013 226.815 186.353 226.375 185.9C225.935 185.433 225.335 185.2 224.575 185.2C223.815 185.2 223.208 185.433 222.755 185.9C222.315 186.353 222.095 187.013 222.095 187.88V194H219.295V187.88C219.295 187.013 219.075 186.353 218.635 185.9C218.195 185.433 217.595 185.2 216.835 185.2C216.061 185.2 215.448 185.433 214.995 185.9C214.555 186.353 214.335 187.013 214.335 187.88V194H211.535V182.92H214.335V184.26C214.695 183.793 215.155 183.427 215.715 183.16C216.288 182.893 216.915 182.76 217.595 182.76C218.461 182.76 219.235 182.947 219.915 183.32C220.595 183.68 221.121 184.2 221.495 184.88C221.855 184.24 222.375 183.727 223.055 183.34C223.748 182.953 224.495 182.76 225.295 182.76ZM234.112 181.6C233.618 181.6 233.205 181.447 232.872 181.14C232.552 180.82 232.392 180.427 232.392 179.96C232.392 179.493 232.552 179.107 232.872 178.8C233.205 178.48 233.618 178.32 234.112 178.32C234.605 178.32 235.012 178.48 235.332 178.8C235.665 179.107 235.832 179.493 235.832 179.96C235.832 180.427 235.665 180.82 235.332 181.14C235.012 181.447 234.605 181.6 234.112 181.6ZM235.492 182.92V194H232.692V182.92H235.492ZM18.2379 213.6C17.7446 213.6 17.3312 213.447 16.9979 213.14C16.6779 212.82 16.5179 212.427 16.5179 211.96C16.5179 211.493 16.6779 211.107 16.9979 210.8C17.3312 210.48 17.7446 210.32 18.2379 210.32C18.7312 210.32 19.1379 210.48 19.4579 210.8C19.7912 211.107 19.9579 211.493 19.9579 211.96C19.9579 212.427 19.7912 212.82 19.4579 213.14C19.1379 213.447 18.7312 213.6 18.2379 213.6ZM19.6179 214.92V226H16.8179V214.92H19.6179ZM30.3499 216.52C30.7099 216.013 31.2033 215.593 31.8299 215.26C32.4699 214.913 33.1966 214.74 34.0099 214.74C34.9566 214.74 35.8099 214.973 36.5699 215.44C37.3433 215.907 37.9499 216.573 38.3899 217.44C38.8433 218.293 39.0699 219.287 39.0699 220.42C39.0699 221.553 38.8433 222.56 38.3899 223.44C37.9499 224.307 37.3433 224.98 36.5699 225.46C35.8099 225.94 34.9566 226.18 34.0099 226.18C33.1966 226.18 32.4766 226.013 31.8499 225.68C31.2366 225.347 30.7366 224.927 30.3499 224.42V231.28H27.5499V214.92H30.3499V216.52ZM36.2099 220.42C36.2099 219.753 36.0699 219.18 35.7899 218.7C35.5233 218.207 35.1633 217.833 34.7099 217.58C34.2699 217.327 33.7899 217.2 33.2699 217.2C32.7633 217.2 32.2833 217.333 31.8299 217.6C31.3899 217.853 31.0299 218.227 30.7499 218.72C30.4833 219.213 30.3499 219.793 30.3499 220.46C30.3499 221.127 30.4833 221.707 30.7499 222.2C31.0299 222.693 31.3899 223.073 31.8299 223.34C32.2833 223.593 32.7633 223.72 33.2699 223.72C33.7899 223.72 34.2699 223.587 34.7099 223.32C35.1633 223.053 35.5233 222.673 35.7899 222.18C36.0699 221.687 36.2099 221.1 36.2099 220.42ZM46.2246 226.18C45.1579 226.18 44.1979 225.947 43.3446 225.48C42.4913 225 41.8179 224.327 41.3246 223.46C40.8446 222.593 40.6046 221.593 40.6046 220.46C40.6046 219.327 40.8513 218.327 41.3446 217.46C41.8513 216.593 42.5379 215.927 43.4046 215.46C44.2713 214.98 45.2379 214.74 46.3046 214.74C47.3713 214.74 48.3379 214.98 49.2046 215.46C50.0713 215.927 50.7513 216.593 51.2446 217.46C51.7513 218.327 52.0046 219.327 52.0046 220.46C52.0046 221.593 51.7446 222.593 51.2246 223.46C50.7179 224.327 50.0246 225 49.1446 225.48C48.2779 225.947 47.3046 226.18 46.2246 226.18ZM46.2246 223.74C46.7313 223.74 47.2046 223.62 47.6446 223.38C48.0979 223.127 48.4579 222.753 48.7246 222.26C48.9913 221.767 49.1246 221.167 49.1246 220.46C49.1246 219.407 48.8446 218.6 48.2846 218.04C47.7379 217.467 47.0646 217.18 46.2646 217.18C45.4646 217.18 44.7913 217.467 44.2446 218.04C43.7113 218.6 43.4446 219.407 43.4446 220.46C43.4446 221.513 43.7046 222.327 44.2246 222.9C44.7579 223.46 45.4246 223.74 46.2246 223.74ZM57.0585 216.64C57.4185 216.053 57.8852 215.593 58.4585 215.26C59.0452 214.927 59.7118 214.76 60.4585 214.76V217.7H59.7185C58.8385 217.7 58.1718 217.907 57.7185 218.32C57.2785 218.733 57.0585 219.453 57.0585 220.48V226H54.2585V214.92H57.0585V216.64ZM61.8245 220.42C61.8245 219.3 62.0445 218.307 62.4845 217.44C62.9378 216.573 63.5445 215.907 64.3045 215.44C65.0778 214.973 65.9378 214.74 66.8845 214.74C67.7111 214.74 68.4311 214.907 69.0445 215.24C69.6711 215.573 70.1711 215.993 70.5445 216.5V214.92H73.3645V226H70.5445V224.38C70.1845 224.9 69.6845 225.333 69.0445 225.68C68.4178 226.013 67.6911 226.18 66.8645 226.18C65.9311 226.18 65.0778 225.94 64.3045 225.46C63.5445 224.98 62.9378 224.307 62.4845 223.44C62.0445 222.56 61.8245 221.553 61.8245 220.42ZM70.5445 220.46C70.5445 219.78 70.4111 219.2 70.1445 218.72C69.8778 218.227 69.5178 217.853 69.0645 217.6C68.6111 217.333 68.1245 217.2 67.6045 217.2C67.0845 217.2 66.6045 217.327 66.1645 217.58C65.7245 217.833 65.3645 218.207 65.0845 218.7C64.8178 219.18 64.6845 219.753 64.6845 220.42C64.6845 221.087 64.8178 221.673 65.0845 222.18C65.3645 222.673 65.7245 223.053 66.1645 223.32C66.6178 223.587 67.0978 223.72 67.6045 223.72C68.1245 223.72 68.6111 223.593 69.0645 223.34C69.5178 223.073 69.8778 222.7 70.1445 222.22C70.4111 221.727 70.5445 221.14 70.5445 220.46ZM75.5791 220.42C75.5791 219.3 75.7991 218.307 76.2391 217.44C76.6925 216.573 77.3058 215.907 78.0791 215.44C78.8525 214.973 79.7125 214.74 80.6591 214.74C81.3791 214.74 82.0658 214.9 82.7191 215.22C83.3725 215.527 83.8925 215.94 84.2791 216.46V211.2H87.1191V226H84.2791V224.36C83.9325 224.907 83.4458 225.347 82.8191 225.68C82.1925 226.013 81.4658 226.18 80.6391 226.18C79.7058 226.18 78.8525 225.94 78.0791 225.46C77.3058 224.98 76.6925 224.307 76.2391 223.44C75.7991 222.56 75.5791 221.553 75.5791 220.42ZM84.2991 220.46C84.2991 219.78 84.1658 219.2 83.8991 218.72C83.6325 218.227 83.2725 217.853 82.8191 217.6C82.3658 217.333 81.8791 217.2 81.3591 217.2C80.8391 217.2 80.3591 217.327 79.9191 217.58C79.4791 217.833 79.1191 218.207 78.8391 218.7C78.5725 219.18 78.4391 219.753 78.4391 220.42C78.4391 221.087 78.5725 221.673 78.8391 222.18C79.1191 222.673 79.4791 223.053 79.9191 223.32C80.3725 223.587 80.8525 223.72 81.3591 223.72C81.8791 223.72 82.3658 223.593 82.8191 223.34C83.2725 223.073 83.6325 222.7 83.8991 222.22C84.1658 221.727 84.2991 221.14 84.2991 220.46ZM89.3338 220.42C89.3338 219.3 89.5538 218.307 89.9938 217.44C90.4472 216.573 91.0538 215.907 91.8138 215.44C92.5872 214.973 93.4472 214.74 94.3938 214.74C95.2205 214.74 95.9405 214.907 96.5538 215.24C97.1805 215.573 97.6805 215.993 98.0538 216.5V214.92H100.874V226H98.0538V224.38C97.6938 224.9 97.1938 225.333 96.5538 225.68C95.9272 226.013 95.2005 226.18 94.3738 226.18C93.4405 226.18 92.5872 225.94 91.8138 225.46C91.0538 224.98 90.4472 224.307 89.9938 223.44C89.5538 222.56 89.3338 221.553 89.3338 220.42ZM98.0538 220.46C98.0538 219.78 97.9205 219.2 97.6538 218.72C97.3872 218.227 97.0272 217.853 96.5738 217.6C96.1205 217.333 95.6338 217.2 95.1138 217.2C94.5938 217.2 94.1138 217.327 93.6738 217.58C93.2338 217.833 92.8738 218.207 92.5938 218.7C92.3272 219.18 92.1938 219.753 92.1938 220.42C92.1938 221.087 92.3272 221.673 92.5938 222.18C92.8738 222.673 93.2338 223.053 93.6738 223.32C94.1272 223.587 94.6072 223.72 95.1138 223.72C95.6338 223.72 96.1205 223.593 96.5738 223.34C97.0272 223.073 97.3872 222.7 97.6538 222.22C97.9205 221.727 98.0538 221.14 98.0538 220.46ZM117.569 214.76C118.929 214.76 120.022 215.18 120.849 216.02C121.689 216.847 122.109 218.007 122.109 219.5V226H119.309V219.88C119.309 219.013 119.089 218.353 118.649 217.9C118.209 217.433 117.609 217.2 116.849 217.2C116.089 217.2 115.482 217.433 115.029 217.9C114.589 218.353 114.369 219.013 114.369 219.88V226H111.569V219.88C111.569 219.013 111.349 218.353 110.909 217.9C110.469 217.433 109.869 217.2 109.109 217.2C108.335 217.2 107.722 217.433 107.269 217.9C106.829 218.353 106.609 219.013 106.609 219.88V226H103.809V214.92H106.609V216.26C106.969 215.793 107.429 215.427 107.989 215.16C108.562 214.893 109.189 214.76 109.869 214.76C110.735 214.76 111.509 214.947 112.189 215.32C112.869 215.68 113.395 216.2 113.769 216.88C114.129 216.24 114.649 215.727 115.329 215.34C116.022 214.953 116.769 214.76 117.569 214.76ZM126.386 213.6C125.892 213.6 125.479 213.447 125.146 213.14C124.826 212.82 124.666 212.427 124.666 211.96C124.666 211.493 124.826 211.107 125.146 210.8C125.479 210.48 125.892 210.32 126.386 210.32C126.879 210.32 127.286 210.48 127.606 210.8C127.939 211.107 128.106 211.493 128.106 211.96C128.106 212.427 127.939 212.82 127.606 213.14C127.286 213.447 126.879 213.6 126.386 213.6ZM127.766 214.92V226H124.966V214.92H127.766ZM138.824 223.7H143.764V226H135.644V223.74L140.484 217.22H135.664V214.92H143.704V217.18L138.824 223.7ZM152.518 213.6C152.024 213.6 151.611 213.447 151.278 213.14C150.958 212.82 150.798 212.427 150.798 211.96C150.798 211.493 150.958 211.107 151.278 210.8C151.611 210.48 152.024 210.32 152.518 210.32C153.011 210.32 153.418 210.48 153.738 210.8C154.071 211.107 154.238 211.493 154.238 211.96C154.238 212.427 154.071 212.82 153.738 213.14C153.418 213.447 153.011 213.6 152.518 213.6ZM153.898 214.92V226H151.098V214.92H153.898ZM163.004 214.76C164.324 214.76 165.391 215.18 166.204 216.02C167.017 216.847 167.424 218.007 167.424 219.5V226H164.624V219.88C164.624 219 164.404 218.327 163.964 217.86C163.524 217.38 162.924 217.14 162.164 217.14C161.391 217.14 160.777 217.38 160.324 217.86C159.884 218.327 159.664 219 159.664 219.88V226H156.864V214.92H159.664V216.3C160.037 215.82 160.511 215.447 161.084 215.18C161.671 214.9 162.311 214.76 163.004 214.76ZM176.427 214.76C177.747 214.76 178.813 215.18 179.627 216.02C180.44 216.847 180.847 218.007 180.847 219.5V226H178.047V219.88C178.047 219 177.827 218.327 177.387 217.86C176.947 217.38 176.347 217.14 175.587 217.14C174.813 217.14 174.2 217.38 173.747 217.86C173.307 218.327 173.087 219 173.087 219.88V226H170.287V214.92H173.087V216.3C173.46 215.82 173.933 215.447 174.507 215.18C175.093 214.9 175.733 214.76 176.427 214.76ZM194.309 214.92L187.449 231.24H184.469L186.869 225.72L182.429 214.92H185.569L188.429 222.66L191.329 214.92H194.309ZM209.779 214.76C211.139 214.76 212.232 215.18 213.059 216.02C213.899 216.847 214.319 218.007 214.319 219.5V226H211.519V219.88C211.519 219.013 211.299 218.353 210.859 217.9C210.419 217.433 209.819 217.2 209.059 217.2C208.299 217.2 207.692 217.433 207.239 217.9C206.799 218.353 206.579 219.013 206.579 219.88V226H203.779V219.88C203.779 219.013 203.559 218.353 203.119 217.9C202.679 217.433 202.079 217.2 201.319 217.2C200.545 217.2 199.932 217.433 199.479 217.9C199.039 218.353 198.819 219.013 198.819 219.88V226H196.019V214.92H198.819V216.26C199.179 215.793 199.639 215.427 200.199 215.16C200.772 214.893 201.399 214.76 202.079 214.76C202.945 214.76 203.719 214.947 204.399 215.32C205.079 215.68 205.605 216.2 205.979 216.88C206.339 216.24 206.859 215.727 207.539 215.34C208.232 214.953 208.979 214.76 209.779 214.76ZM218.596 213.6C218.102 213.6 217.689 213.447 217.356 213.14C217.036 212.82 216.876 212.427 216.876 211.96C216.876 211.493 217.036 211.107 217.356 210.8C217.689 210.48 218.102 210.32 218.596 210.32C219.089 210.32 219.496 210.48 219.816 210.8C220.149 211.107 220.316 211.493 220.316 211.96C220.316 212.427 220.149 212.82 219.816 213.14C219.496 213.447 219.089 213.6 218.596 213.6ZM219.976 214.92V226H217.176V214.92H219.976ZM55.0639 247.04H53.2439V253.06C53.2439 255.42 51.9839 256.58 50.1039 256.58C48.2639 256.58 47.0439 255.44 47.0439 253.22V247.04H45.2439V253.46C45.2439 256.6 47.2239 258.16 49.7439 258.16C51.2039 258.16 52.5439 257.52 53.2439 256.38V258H55.0639V247.04ZM65.0369 247.04H57.6569V248.52H62.9369L57.6169 256.5V258H65.0769V256.5H59.6969L65.0369 248.52V247.04ZM61.3769 245.66C61.9569 245.66 62.4169 245.2 62.4169 244.62C62.4169 244.04 61.9569 243.56 61.3769 243.56C60.7769 243.56 60.3169 244.04 60.3169 244.62C60.3169 245.2 60.7769 245.66 61.3769 245.66ZM71.7984 255.92L68.3584 247.04H66.3384L70.7584 257.88L68.5984 263.16H70.4784L77.0784 247.04H75.1984L71.7984 255.92ZM79.508 255C79.508 257.2 80.608 258 82.548 258H84.188V256.46H82.848C81.728 256.46 81.328 256.08 81.328 255V248.54H84.188V247.04H81.328V244.28H79.508V247.04H78.088V248.54H79.508V255ZM86.5931 258H88.4131V253.16L92.7131 258H95.1931L90.0131 252.5L95.1731 247.04H92.6331L88.4131 251.9V243.2H86.5931V258ZM107.486 252.5C107.486 249.04 105.066 246.86 101.946 246.86C98.8461 246.86 96.4061 249.04 96.4061 252.5C96.4061 255.98 98.7661 258.18 101.866 258.18C104.986 258.18 107.486 255.98 107.486 252.5ZM98.2661 252.5C98.2661 249.74 100.006 248.44 101.926 248.44C103.806 248.44 105.626 249.74 105.626 252.5C105.626 255.28 103.766 256.58 101.866 256.58C99.9661 256.58 98.2661 255.28 98.2661 252.5ZM112.219 258H114.099L116.739 249.3L119.379 258H121.259L124.679 247.04H122.879L120.399 256.26L117.739 247.04H115.879L113.159 256.24L110.639 247.04H108.779L112.219 258ZM134.705 258H136.505V251.54C136.505 248.4 134.565 246.84 132.025 246.84C130.545 246.84 129.225 247.46 128.505 248.6V247.04H126.685V258H128.505V251.94C128.505 249.58 129.785 248.42 131.645 248.42C133.485 248.42 134.705 249.56 134.705 251.8V258ZM139.678 258H141.498V247.04H139.678V258ZM140.618 245.26C141.278 245.26 141.818 244.72 141.818 244.02C141.818 243.32 141.278 242.78 140.618 242.78C139.918 242.78 139.378 243.32 139.378 244.02C139.378 244.72 139.918 245.26 140.618 245.26ZM144.8 258H146.62V253.16L150.92 258H153.4L148.22 252.5L153.38 247.04H150.84L146.62 251.9V243.2H144.8V258ZM154.613 252.48C154.613 255.88 156.873 258.18 159.793 258.18C161.813 258.18 163.233 257.14 163.893 255.96V258H165.733V247.04H163.893V249.04C163.253 247.9 161.853 246.86 159.813 246.86C156.873 246.86 154.613 249.06 154.613 252.48ZM163.893 252.5C163.893 255.08 162.173 256.58 160.173 256.58C158.173 256.58 156.473 255.06 156.473 252.48C156.473 249.9 158.173 248.44 160.173 248.44C162.173 248.44 163.893 249.96 163.893 252.5ZM184.829 258H186.629V251.54C186.629 248.4 184.689 246.84 182.189 246.84C180.509 246.84 178.949 247.7 178.309 249.28C177.589 247.64 176.089 246.84 174.289 246.84C172.849 246.84 171.549 247.46 170.829 248.62V247.04H169.009V258H170.829V251.96C170.829 249.6 172.089 248.42 173.929 248.42C175.729 248.42 176.929 249.56 176.929 251.8V258H178.729V251.96C178.729 249.6 179.989 248.42 181.829 248.42C183.629 248.42 184.829 249.56 184.829 251.8V258ZM189.814 258H191.634V247.04H189.814V258ZM190.754 245.26C191.414 245.26 191.954 244.72 191.954 244.02C191.954 243.32 191.414 242.78 190.754 242.78C190.054 242.78 189.514 243.32 189.514 244.02C189.514 244.72 190.054 245.26 190.754 245.26Z" fill="black"/>
<path d="M55.8031 4.26611C40.4504 4.26611 28.0045 16.7119 28.0045 32.0646V50.597C28.0045 51.7106 28.07 52.8088 28.1973 53.8882C28.069 54.3129 28 54.7635 28 55.2301V96.1209C28 100.079 32.6429 102.215 35.6483 99.6389L59.8699 78.8771C60.2324 78.5664 60.6941 78.3956 61.1715 78.3956H111.4C126.753 78.3956 139.199 65.9497 139.199 50.597V32.0646C139.199 16.7119 126.753 4.26611 111.4 4.26611H55.8031Z" stroke="#FF6976" stroke-width="7"/>
<path d="M190.861 81.7194C200.373 81.7194 208.084 89.4304 208.084 98.942V110.424C208.084 111.114 208.043 111.795 207.964 112.464C208.044 112.727 208.086 113.006 208.086 113.295V138.629C208.086 141.082 205.21 142.405 203.348 140.809L188.555 128.129C188.192 127.818 187.73 127.647 187.253 127.647H156.415C146.903 127.647 139.192 119.936 139.192 110.424V98.942C139.192 89.4304 146.903 81.7194 156.415 81.7194H190.861Z" stroke="#007D96" stroke-width="5"/>
</svg>
