<svg width="180" height="259" viewBox="0 0 180 259" fill="none" xmlns="http://www.w3.org/2000/svg">
<path d="M13.8442 185.2C13.8442 180.04 6.32428 182.28 6.32428 178.68C6.32428 177.18 7.50428 176.4 9.00428 176.44C10.7042 176.46 11.5842 177.52 11.7042 178.46H13.7042C13.4842 176.34 11.7442 174.88 9.08428 174.88C6.32428 174.88 4.46428 176.44 4.46428 178.74C4.46428 183.92 12.0042 181.52 12.0042 185.28C12.0042 186.6 10.9642 187.6 9.20428 187.6C7.26428 187.6 6.44428 186.44 6.32428 185.28H4.38428C4.42428 187.58 6.40428 189.14 9.20428 189.14C12.2242 189.14 13.8442 187.18 13.8442 185.2ZM18.3425 180.06V178.04H16.5225V194.2H18.3425V186.98C19.0225 188.1 20.4425 189.18 22.4425 189.18C25.3825 189.18 27.6425 186.88 27.6425 183.48C27.6425 180.06 25.3825 177.86 22.4425 177.86C20.4425 177.86 19.0025 178.9 18.3425 180.06ZM25.7825 183.48C25.7825 186.06 24.0825 187.58 22.0625 187.58C20.0825 187.58 18.3425 186.08 18.3425 183.5C18.3425 180.96 20.0825 179.44 22.0625 179.44C24.0825 179.44 25.7825 180.9 25.7825 183.48ZM31.8581 183.04C31.8581 180.5 33.1781 179.72 34.9181 179.72H35.3981V177.84C33.6581 177.84 32.4781 178.6 31.8581 179.82V178.04H30.0381V189H31.8581V183.04ZM36.8191 183.48C36.8191 186.88 39.0791 189.18 41.9991 189.18C44.0191 189.18 45.4391 188.14 46.0991 186.96V189H47.9391V178.04H46.0991V180.04C45.4591 178.9 44.0591 177.86 42.0191 177.86C39.0791 177.86 36.8191 180.06 36.8191 183.48ZM46.0991 183.5C46.0991 186.08 44.3791 187.58 42.3791 187.58C40.3791 187.58 38.6791 186.06 38.6791 183.48C38.6791 180.9 40.3791 179.44 42.3791 179.44C44.3791 179.44 46.0991 180.96 46.0991 183.5ZM53.1547 189H55.0347L57.6747 180.3L60.3147 189H62.1947L65.6147 178.04H63.8147L61.3347 187.26L58.6747 178.04H56.8147L54.0947 187.24L51.5747 178.04H49.7147L53.1547 189ZM66.741 183.48C66.741 186.88 69.001 189.18 71.941 189.18C73.941 189.18 75.361 188.16 76.021 186.94V189H77.861V174.2H76.021V180C75.261 178.74 73.681 177.86 71.961 177.86C69.001 177.86 66.741 180.06 66.741 183.48ZM76.021 183.5C76.021 186.08 74.301 187.58 72.301 187.58C70.301 187.58 68.601 186.06 68.601 183.48C68.601 180.9 70.301 179.44 72.301 179.44C74.301 179.44 76.021 180.96 76.021 183.5ZM87.6366 178.04H80.2566V179.52H85.5366L80.2166 187.5V189H87.6766V187.5H82.2966L87.6366 179.52V178.04ZM90.0381 189H91.8581V178.04H90.0381V189ZM90.9781 176.26C91.6381 176.26 92.1781 175.72 92.1781 175.02C92.1781 174.32 91.6381 173.78 90.9781 173.78C90.2781 173.78 89.7381 174.32 89.7381 175.02C89.7381 175.72 90.2781 176.26 90.9781 176.26ZM102.84 186.02C102.76 182.1 96.4 183.52 96.4 180.92C96.4 180.04 97.2 179.4 98.54 179.4C100 179.4 100.84 180.2 100.92 181.3H102.74C102.62 179.16 101.02 177.86 98.6 177.86C96.16 177.86 94.58 179.24 94.58 180.92C94.58 185 101.06 183.58 101.06 186.02C101.06 186.92 100.26 187.64 98.82 187.64C97.28 187.64 96.34 186.84 96.24 185.78H94.36C94.48 187.78 96.28 189.18 98.84 189.18C101.26 189.18 102.84 187.82 102.84 186.02ZM112.109 178.04H104.729V179.52H110.009L104.689 187.5V189H112.149V187.5H106.769L112.109 179.52V178.04ZM124.023 177.74C124.849 177.74 125.576 177.907 126.203 178.24C126.829 178.56 127.323 178.98 127.683 179.5V177.92H130.503V189.08C130.503 190.107 130.296 191.02 129.883 191.82C129.469 192.633 128.849 193.273 128.023 193.74C127.196 194.22 126.196 194.46 125.023 194.46C123.449 194.46 122.156 194.093 121.143 193.36C120.143 192.627 119.576 191.627 119.443 190.36H122.223C122.369 190.867 122.683 191.267 123.163 191.56C123.656 191.867 124.249 192.02 124.943 192.02C125.756 192.02 126.416 191.773 126.923 191.28C127.429 190.8 127.683 190.067 127.683 189.08V187.36C127.323 187.88 126.823 188.313 126.183 188.66C125.556 189.007 124.836 189.18 124.023 189.18C123.089 189.18 122.236 188.94 121.463 188.46C120.689 187.98 120.076 187.307 119.623 186.44C119.183 185.56 118.963 184.553 118.963 183.42C118.963 182.3 119.183 181.307 119.623 180.44C120.076 179.573 120.683 178.907 121.443 178.44C122.216 177.973 123.076 177.74 124.023 177.74ZM127.683 183.46C127.683 182.78 127.549 182.2 127.283 181.72C127.016 181.227 126.656 180.853 126.203 180.6C125.749 180.333 125.263 180.2 124.743 180.2C124.223 180.2 123.743 180.327 123.303 180.58C122.863 180.833 122.503 181.207 122.223 181.7C121.956 182.18 121.823 182.753 121.823 183.42C121.823 184.087 121.956 184.673 122.223 185.18C122.503 185.673 122.863 186.053 123.303 186.32C123.756 186.587 124.236 186.72 124.743 186.72C125.263 186.72 125.749 186.593 126.203 186.34C126.656 186.073 127.016 185.7 127.283 185.22C127.549 184.727 127.683 184.14 127.683 183.46ZM132.517 183.42C132.517 182.3 132.737 181.307 133.177 180.44C133.631 179.573 134.244 178.907 135.017 178.44C135.791 177.973 136.651 177.74 137.597 177.74C138.317 177.74 139.004 177.9 139.657 178.22C140.311 178.527 140.831 178.94 141.217 179.46V174.2H144.057V189H141.217V187.36C140.871 187.907 140.384 188.347 139.757 188.68C139.131 189.013 138.404 189.18 137.577 189.18C136.644 189.18 135.791 188.94 135.017 188.46C134.244 187.98 133.631 187.307 133.177 186.44C132.737 185.56 132.517 184.553 132.517 183.42ZM141.237 183.46C141.237 182.78 141.104 182.2 140.837 181.72C140.571 181.227 140.211 180.853 139.757 180.6C139.304 180.333 138.817 180.2 138.297 180.2C137.777 180.2 137.297 180.327 136.857 180.58C136.417 180.833 136.057 181.207 135.777 181.7C135.511 182.18 135.377 182.753 135.377 183.42C135.377 184.087 135.511 184.673 135.777 185.18C136.057 185.673 136.417 186.053 136.857 186.32C137.311 186.587 137.791 186.72 138.297 186.72C138.817 186.72 139.304 186.593 139.757 186.34C140.211 186.073 140.571 185.7 140.837 185.22C141.104 184.727 141.237 184.14 141.237 183.46ZM149.352 186.7H154.292V189H146.172V186.74L151.012 180.22H146.192V177.92H154.232V180.18L149.352 186.7ZM157.88 176.6C157.387 176.6 156.973 176.447 156.64 176.14C156.32 175.82 156.16 175.427 156.16 174.96C156.16 174.493 156.32 174.107 156.64 173.8C156.973 173.48 157.387 173.32 157.88 173.32C158.373 173.32 158.78 173.48 159.1 173.8C159.433 174.107 159.6 174.493 159.6 174.96C159.6 175.427 159.433 175.82 159.1 176.14C158.78 176.447 158.373 176.6 157.88 176.6ZM159.26 177.92V189H156.46V177.92H159.26ZM172.326 183.22C172.326 183.62 172.3 183.98 172.246 184.3H164.146C164.213 185.1 164.493 185.727 164.986 186.18C165.48 186.633 166.086 186.86 166.806 186.86C167.846 186.86 168.586 186.413 169.026 185.52H172.046C171.726 186.587 171.113 187.467 170.206 188.16C169.3 188.84 168.186 189.18 166.866 189.18C165.8 189.18 164.84 188.947 163.986 188.48C163.146 188 162.486 187.327 162.006 186.46C161.54 185.593 161.306 184.593 161.306 183.46C161.306 182.313 161.54 181.307 162.006 180.44C162.473 179.573 163.126 178.907 163.966 178.44C164.806 177.973 165.773 177.74 166.866 177.74C167.92 177.74 168.86 177.967 169.686 178.42C170.526 178.873 171.173 179.52 171.626 180.36C172.093 181.187 172.326 182.14 172.326 183.22ZM169.426 182.42C169.413 181.7 169.153 181.127 168.646 180.7C168.14 180.26 167.52 180.04 166.786 180.04C166.093 180.04 165.506 180.253 165.026 180.68C164.56 181.093 164.273 181.673 164.166 182.42H169.426ZM17.1131 209.92L13.8731 221H10.8531L8.83319 213.26L6.81319 221H3.77319L0.513184 209.92H3.35319L5.31319 218.36L7.43319 209.92H10.3931L12.4731 218.34L14.4331 209.92H17.1131ZM28.3138 221.18C27.2471 221.18 26.2871 220.947 25.4338 220.48C24.5804 220 23.9071 219.327 23.4138 218.46C22.9338 217.593 22.6938 216.593 22.6938 215.46C22.6938 214.327 22.9404 213.327 23.4338 212.46C23.9404 211.593 24.6271 210.927 25.4938 210.46C26.3604 209.98 27.3271 209.74 28.3938 209.74C29.4604 209.74 30.4271 209.98 31.2938 210.46C32.1604 210.927 32.8404 211.593 33.3338 212.46C33.8404 213.327 34.0938 214.327 34.0938 215.46C34.0938 216.593 33.8338 217.593 33.3138 218.46C32.8071 219.327 32.1138 220 31.2338 220.48C30.3671 220.947 29.3938 221.18 28.3138 221.18ZM28.3138 218.74C28.8204 218.74 29.2938 218.62 29.7338 218.38C30.1871 218.127 30.5471 217.753 30.8138 217.26C31.0804 216.767 31.2138 216.167 31.2138 215.46C31.2138 214.407 30.9338 213.6 30.3738 213.04C29.8271 212.467 29.1538 212.18 28.3538 212.18C27.5538 212.18 26.8804 212.467 26.3338 213.04C25.8004 213.6 25.5338 214.407 25.5338 215.46C25.5338 216.513 25.7938 217.327 26.3138 217.9C26.8471 218.46 27.5138 218.74 28.3138 218.74ZM42.7077 221L38.9477 216.28V221H36.1477V206.2H38.9477V214.62L42.6677 209.92H46.3077L41.4277 215.48L46.3477 221H42.7077ZM52.7474 221.18C51.6807 221.18 50.7207 220.947 49.8674 220.48C49.014 220 48.3407 219.327 47.8474 218.46C47.3674 217.593 47.1274 216.593 47.1274 215.46C47.1274 214.327 47.374 213.327 47.8674 212.46C48.374 211.593 49.0607 210.927 49.9274 210.46C50.794 209.98 51.7607 209.74 52.8274 209.74C53.894 209.74 54.8607 209.98 55.7274 210.46C56.594 210.927 57.274 211.593 57.7674 212.46C58.274 213.327 58.5274 214.327 58.5274 215.46C58.5274 216.593 58.2674 217.593 57.7474 218.46C57.2407 219.327 56.5474 220 55.6674 220.48C54.8007 220.947 53.8274 221.18 52.7474 221.18ZM52.7474 218.74C53.254 218.74 53.7274 218.62 54.1674 218.38C54.6207 218.127 54.9807 217.753 55.2474 217.26C55.514 216.767 55.6474 216.167 55.6474 215.46C55.6474 214.407 55.3674 213.6 54.8074 213.04C54.2607 212.467 53.5874 212.18 52.7874 212.18C51.9874 212.18 51.314 212.467 50.7674 213.04C50.234 213.6 49.9674 214.407 49.9674 215.46C49.9674 216.513 50.2274 217.327 50.7474 217.9C51.2807 218.46 51.9474 218.74 52.7474 218.74ZM63.3813 206.2V221H60.5813V206.2H63.3813ZM67.5677 208.6C67.0743 208.6 66.661 208.447 66.3277 208.14C66.0077 207.82 65.8477 207.427 65.8477 206.96C65.8477 206.493 66.0077 206.107 66.3277 205.8C66.661 205.48 67.0743 205.32 67.5677 205.32C68.061 205.32 68.4677 205.48 68.7877 205.8C69.121 206.107 69.2877 206.493 69.2877 206.96C69.2877 207.427 69.121 207.82 68.7877 208.14C68.4677 208.447 68.061 208.6 67.5677 208.6ZM68.9477 209.92V221H66.1477V209.92H68.9477ZM70.9941 215.46C70.9941 214.313 71.2274 213.313 71.6941 212.46C72.1608 211.593 72.8074 210.927 73.6341 210.46C74.4608 209.98 75.4074 209.74 76.4741 209.74C77.8474 209.74 78.9808 210.087 79.8741 210.78C80.7808 211.46 81.3874 212.42 81.6941 213.66H78.6741C78.5141 213.18 78.2408 212.807 77.8541 212.54C77.4808 212.26 77.0141 212.12 76.4541 212.12C75.6541 212.12 75.0208 212.413 74.5541 213C74.0874 213.573 73.8541 214.393 73.8541 215.46C73.8541 216.513 74.0874 217.333 74.5541 217.92C75.0208 218.493 75.6541 218.78 76.4541 218.78C77.5874 218.78 78.3274 218.273 78.6741 217.26H81.6941C81.3874 218.46 80.7808 219.413 79.8741 220.12C78.9674 220.827 77.8341 221.18 76.4741 221.18C75.4074 221.18 74.4608 220.947 73.6341 220.48C72.8074 220 72.1608 219.333 71.6941 218.48C71.2274 217.613 70.9941 216.607 70.9941 215.46ZM94.3453 209.92L87.4853 226.24H84.5053L86.9053 220.72L82.4653 209.92H85.6053L88.4653 217.66L91.3653 209.92H94.3453ZM106.953 210.04H99.573V211.52H104.853L99.533 219.5V221H106.993V219.5H101.613L106.953 211.52V210.04ZM108.674 215.48C108.674 218.88 110.934 221.18 113.854 221.18C115.874 221.18 117.294 220.14 117.954 218.96V221H119.794V210.04H117.954V212.04C117.314 210.9 115.914 209.86 113.874 209.86C110.934 209.86 108.674 212.06 108.674 215.48ZM117.954 215.5C117.954 218.08 116.234 219.58 114.234 219.58C112.234 219.58 110.534 218.06 110.534 215.48C110.534 212.9 112.234 211.44 114.234 211.44C116.234 211.44 117.954 212.96 117.954 215.5ZM122.93 221H124.75V213.56L126.17 213V211.58L124.75 212.12V206.2H122.93V212.84L121.51 213.38V214.82L122.93 214.26V221ZM127.21 215.48C127.21 218.88 129.47 221.18 132.39 221.18C134.41 221.18 135.83 220.14 136.49 218.96V221H138.33V210.04H136.49V212.04C135.85 210.9 134.45 209.86 132.41 209.86C129.47 209.86 127.21 212.06 127.21 215.48ZM136.49 215.5C136.49 218.08 134.77 219.58 132.77 219.58C130.77 219.58 129.07 218.06 129.07 215.48C129.07 212.9 130.77 211.44 132.77 211.44C134.77 211.44 136.49 212.96 136.49 215.5ZM141.805 218C141.805 220.2 142.905 221 144.845 221H146.485V219.46H145.145C144.025 219.46 143.625 219.08 143.625 218V211.54H146.485V210.04H143.625V207.28H141.805V210.04H140.385V211.54H141.805V218ZM150.83 221H152.71L155.35 212.3L157.99 221H159.87L163.29 210.04H161.49L159.01 219.26L156.35 210.04H154.49L151.77 219.24L149.25 210.04H147.39L150.83 221ZM165.097 221H166.917V210.04H165.097V221ZM166.037 208.26C166.697 208.26 167.237 207.72 167.237 207.02C167.237 206.32 166.697 205.78 166.037 205.78C165.337 205.78 164.797 206.32 164.797 207.02C164.797 207.72 165.337 208.26 166.037 208.26ZM169.339 215.5C169.339 218.98 171.559 221.18 174.679 221.18C177.399 221.18 179.179 219.66 179.739 217.48H177.779C177.379 218.86 176.299 219.64 174.679 219.64C172.679 219.64 171.199 218.22 171.199 215.5C171.199 212.82 172.679 211.4 174.679 211.4C176.299 211.4 177.399 212.24 177.779 213.56H179.739C179.179 211.26 177.399 209.86 174.679 209.86C171.559 209.86 169.339 212.06 169.339 215.5ZM172.259 207.86V209.22L176.519 206.94V205.36L172.259 207.86ZM20.4324 244.06V242.04H18.6124V258.2H20.4324V250.98C21.1124 252.1 22.5324 253.18 24.5324 253.18C27.4724 253.18 29.7324 250.88 29.7324 247.48C29.7324 244.06 27.4724 241.86 24.5324 241.86C22.5324 241.86 21.0924 242.9 20.4324 244.06ZM27.8724 247.48C27.8724 250.06 26.1724 251.58 24.1524 251.58C22.1724 251.58 20.4324 250.08 20.4324 247.5C20.4324 244.96 22.1724 243.44 24.1524 243.44C26.1724 243.44 27.8724 244.9 27.8724 247.48ZM32.128 253H33.948V242.04H32.128V253ZM33.068 240.26C33.728 240.26 34.268 239.72 34.268 239.02C34.268 238.32 33.728 237.78 33.068 237.78C32.368 237.78 31.828 238.32 31.828 239.02C31.828 239.72 32.368 240.26 33.068 240.26ZM41.7099 243.4C43.5899 243.4 45.1899 244.58 45.1699 246.72H38.2499C38.4499 244.58 39.9299 243.4 41.7099 243.4ZM46.8299 249.62H44.8699C44.4699 250.8 43.4299 251.64 41.7899 251.64C39.9299 251.64 38.3699 250.42 38.2299 248.2H46.9899C47.0299 247.82 47.0499 247.5 47.0499 247.1C47.0499 244.1 44.9699 241.86 41.7899 241.86C38.5899 241.86 36.3699 244.04 36.3699 247.5C36.3699 250.98 38.6699 253.18 41.7899 253.18C44.5099 253.18 46.2699 251.62 46.8299 249.62ZM57.3322 250.02C57.2522 246.1 50.8922 247.52 50.8922 244.92C50.8922 244.04 51.6922 243.4 53.0322 243.4C54.4922 243.4 55.3322 244.2 55.4122 245.3H57.2322C57.1122 243.16 55.5122 241.86 53.0922 241.86C50.6522 241.86 49.0722 243.24 49.0722 244.92C49.0722 249 55.5522 247.58 55.5522 250.02C55.5522 250.92 54.7522 251.64 53.3122 251.64C51.7722 251.64 50.8322 250.84 50.7322 249.78H48.8522C48.9722 251.78 50.7722 253.18 53.3322 253.18C55.7522 253.18 57.3322 251.82 57.3322 250.02ZM59.9014 253H61.7214V248.16L66.0214 253H68.5014L63.3214 247.5L68.4814 242.04H65.9414L61.7214 246.9V238.2H59.9014V253ZM70.1944 253H72.0144V242.04H70.1944V253ZM71.1344 240.26C71.7944 240.26 72.3344 239.72 72.3344 239.02C72.3344 238.32 71.7944 237.78 71.1344 237.78C70.4344 237.78 69.8944 238.32 69.8944 239.02C69.8944 239.72 70.4344 240.26 71.1344 240.26ZM79.7763 243.4C81.6563 243.4 83.2563 244.58 83.2363 246.72H76.3163C76.5163 244.58 77.9963 243.4 79.7763 243.4ZM84.8963 249.62H82.9363C82.5363 250.8 81.4963 251.64 79.8563 251.64C77.9963 251.64 76.4363 250.42 76.2963 248.2H85.0563C85.0963 247.82 85.1163 247.5 85.1163 247.1C85.1163 244.1 83.0363 241.86 79.8563 241.86C76.6563 241.86 74.4363 244.04 74.4363 247.5C74.4363 250.98 76.7363 253.18 79.8563 253.18C82.5763 253.18 84.3363 251.62 84.8963 249.62ZM100.731 250.02C100.651 246.1 94.2906 247.52 94.2906 244.92C94.2906 244.04 95.0906 243.4 96.4306 243.4C97.8906 243.4 98.7306 244.2 98.8106 245.3H100.631C100.511 243.16 98.9106 241.86 96.4906 241.86C94.0506 241.86 92.4706 243.24 92.4706 244.92C92.4706 249 98.9506 247.58 98.9506 250.02C98.9506 250.92 98.1506 251.64 96.7106 251.64C95.1706 251.64 94.2306 250.84 94.1306 249.78H92.2506C92.3706 251.78 94.1706 253.18 96.7306 253.18C99.1506 253.18 100.731 251.82 100.731 250.02ZM105.12 244.06V242.04H103.3V258.2H105.12V250.98C105.8 252.1 107.22 253.18 109.22 253.18C112.16 253.18 114.42 250.88 114.42 247.48C114.42 244.06 112.16 241.86 109.22 241.86C107.22 241.86 105.78 242.9 105.12 244.06ZM112.56 247.48C112.56 250.06 110.86 251.58 108.84 251.58C106.86 251.58 105.12 250.08 105.12 247.5C105.12 244.96 106.86 243.44 108.84 243.44C110.86 243.44 112.56 244.9 112.56 247.48ZM118.635 247.04C118.635 244.5 119.955 243.72 121.695 243.72H122.175V241.84C120.435 241.84 119.255 242.6 118.635 243.82V242.04H116.815V253H118.635V247.04ZM123.596 247.48C123.596 250.88 125.856 253.18 128.776 253.18C130.796 253.18 132.216 252.14 132.876 250.96V253H134.716V242.04H132.876V244.04C132.236 242.9 130.836 241.86 128.796 241.86C125.856 241.86 123.596 244.06 123.596 247.48ZM132.876 247.5C132.876 250.08 131.156 251.58 129.156 251.58C127.156 251.58 125.456 250.06 125.456 247.48C125.456 244.9 127.156 243.44 129.156 243.44C131.156 243.44 132.876 244.96 132.876 247.5ZM139.932 253H141.812L144.452 244.3L147.092 253H148.972L152.392 242.04H150.592L148.112 251.26L145.452 242.04H143.592L140.872 251.24L138.352 242.04H136.492L139.932 253ZM158.358 250.92L154.918 242.04H152.898L157.318 252.88L155.158 258.16H157.038L163.638 242.04H161.758L158.358 250.92Z" fill="black"/>
<path d="M137.583 50.3335C137.583 73.6751 98.9652 104.497 91.6781 110.105C90.9804 110.642 90.0193 110.642 89.3216 110.105C82.0345 104.497 43.4165 73.6751 43.4165 50.3335C43.4165 24.5602 64.4964 3.66675 90.4998 3.66675C116.503 3.66675 137.583 24.5602 137.583 50.3335Z" stroke="#007D96" stroke-width="7"/>
<path d="M90.5 64.3332C98.301 64.3332 104.625 58.0652 104.625 50.3333C104.625 42.6013 98.301 36.3333 90.5 36.3333C82.699 36.3333 76.375 42.6013 76.375 50.3333C76.375 58.0652 82.699 64.3332 90.5 64.3332Z" stroke="#F1B016" stroke-width="8"/>
</svg>
