<svg width="183" height="11" viewBox="0 0 183 11" fill="none" xmlns="http://www.w3.org/2000/svg">
<path d="M6.476 0.228V7.984L1.352 0.228H0.0780001V10H1.352V2.23L6.476 10H7.75V0.228H6.476ZM16.4738 10H17.8178L14.3038 0.298H12.8338L9.30575 10H10.6498L11.4338 7.83H15.6898L16.4738 10ZM15.3258 6.794H11.7978L13.5618 1.866L15.3258 6.794ZM22.4858 1.278H25.1598V10H26.4338V1.278H29.0938V0.242H22.4858V1.278ZM35.884 3.112C35.884 4.204 35.254 4.988 33.812 4.988H31.936V1.292H33.812C35.268 1.292 35.884 2.006 35.884 3.112ZM30.662 0.242V10H31.936V6.01H33.476L35.8 10H37.326L34.876 5.912C36.514 5.548 37.2 4.358 37.2 3.112C37.2 1.516 36.108 0.242 33.812 0.242H30.662ZM48.5036 5.114C48.5036 2.188 46.3616 0.129999 43.6036 0.129999C40.8596 0.129999 38.7036 2.188 38.7036 5.114C38.7036 8.04 40.8596 10.098 43.6036 10.098C46.3616 10.098 48.5036 8.04 48.5036 5.114ZM40.0056 5.114C40.0056 2.72 41.5456 1.236 43.6036 1.236C45.6616 1.236 47.2016 2.72 47.2016 5.114C47.2016 7.494 45.6616 8.992 43.6036 8.992C41.5456 8.992 40.0056 7.494 40.0056 5.114ZM51.4594 4.876V1.292H53.3354C54.7914 1.292 55.4074 1.964 55.4074 3.098C55.4074 4.19 54.7914 4.876 53.3354 4.876H51.4594ZM56.7094 3.098C56.7094 1.502 55.6314 0.242 53.3354 0.242H50.1854V10H51.4594V5.926H53.3354C55.7574 5.926 56.7094 4.582 56.7094 3.098ZM58.2928 10H59.5668V0.242H58.2928V10ZM66.9882 0.228H61.7382V10H66.9882V8.95H63.0122V5.59H66.5682V4.54H63.0122V1.278H66.9882V0.228ZM73.9223 4.876V1.292H75.7983C77.2543 1.292 77.8703 1.964 77.8703 3.098C77.8703 4.19 77.2543 4.876 75.7983 4.876H73.9223ZM79.1723 3.098C79.1723 1.502 78.0943 0.242 75.7983 0.242H72.6483V10H73.9223V5.926H75.7983C78.2203 5.926 79.1723 4.582 79.1723 3.098ZM80.7557 10H82.0297V0.242H80.7557V10ZM89.451 0.228H84.201V10H89.451V8.95H85.475V5.59H89.031V4.54H85.475V1.278H89.451V0.228ZM97.7208 7.34C97.7208 3.728 92.4568 5.296 92.4568 2.776C92.4568 1.726 93.2828 1.18 94.3328 1.208C95.5228 1.222 96.1388 1.964 96.2228 2.622H97.6228C97.4688 1.138 96.2508 0.116 94.3888 0.116C92.4568 0.116 91.1548 1.208 91.1548 2.818C91.1548 6.444 96.4328 4.764 96.4328 7.396C96.4328 8.32 95.7048 9.02 94.4728 9.02C93.1148 9.02 92.5408 8.208 92.4568 7.396H91.0988C91.1268 9.006 92.5128 10.098 94.4728 10.098C96.5868 10.098 97.7208 8.726 97.7208 7.34ZM104.888 10H106.554L102.088 5.128L106.512 0.242H104.902L100.87 4.764V0.242H99.5956V10H100.87V5.548L104.888 10ZM107.976 10H109.25V0.242H107.976V10ZM110.946 5.114C110.946 8.04 113.088 10.084 115.818 10.084C117.932 10.084 119.612 9.034 120.34 7.158H118.814C118.282 8.32 117.246 8.978 115.818 8.978C113.774 8.978 112.248 7.494 112.248 5.114C112.248 2.72 113.774 1.236 115.818 1.236C117.246 1.236 118.282 1.894 118.814 3.07H120.34C119.612 1.18 117.932 0.116 115.818 0.116C113.088 0.116 110.946 2.188 110.946 5.114ZM128.48 10H129.754V0.242H128.48V4.526H123.51V0.242H122.236V10H123.51V5.576H128.48V10ZM135.648 10H136.922V2.762L140.156 10H141.052L144.272 2.776V10H145.546V0.312H144.188L140.604 8.32L137.02 0.312H135.648V10ZM147.707 10H148.981V0.242H147.707V10ZM156.402 0.228H151.152V10H156.402V8.95H152.426V5.59H155.982V4.54H152.426V1.278H156.402V0.228ZM161.956 7.452C161.956 8.264 161.55 8.964 160.542 8.964C159.534 8.964 159.114 8.25 159.1 7.354H157.826C157.826 9.062 158.918 10.098 160.542 10.098C162.152 10.098 163.244 9.076 163.244 7.452V0.242H161.956V7.452ZM172.096 7.34C172.096 3.728 166.832 5.296 166.832 2.776C166.832 1.726 167.658 1.18 168.708 1.208C169.898 1.222 170.514 1.964 170.598 2.622H171.998C171.844 1.138 170.626 0.116 168.764 0.116C166.832 0.116 165.53 1.208 165.53 2.818C165.53 6.444 170.808 4.764 170.808 7.396C170.808 8.32 170.08 9.02 168.848 9.02C167.49 9.02 166.916 8.208 166.832 7.396H165.474C165.502 9.006 166.888 10.098 168.848 10.098C170.962 10.098 172.096 8.726 172.096 7.34ZM173.495 5.114C173.495 8.04 175.637 10.084 178.367 10.084C180.481 10.084 182.161 9.034 182.889 7.158H181.363C180.831 8.32 179.795 8.978 178.367 8.978C176.323 8.978 174.797 7.494 174.797 5.114C174.797 2.72 176.323 1.236 178.367 1.236C179.795 1.236 180.831 1.894 181.363 3.07H182.889C182.161 1.18 180.481 0.116 178.367 0.116C175.637 0.116 173.495 2.188 173.495 5.114Z" fill="black"/>
</svg>
