<svg width="460" height="128" viewBox="0 0 460 128" fill="none" xmlns="http://www.w3.org/2000/svg">
<path d="M11.004 22.196C9.17465 22.196 7.49465 21.7667 5.96398 20.908C4.43331 20.0493 3.21998 18.864 2.32398 17.352C1.42798 15.8213 0.97998 14.0947 0.97998 12.172C0.97998 10.268 1.42798 8.55997 2.32398 7.04797C3.21998 5.5173 4.43331 4.32264 5.96398 3.46397C7.49465 2.6053 9.17465 2.17597 11.004 2.17597C12.852 2.17597 14.532 2.6053 16.044 3.46397C17.5747 4.32264 18.7787 5.5173 19.656 7.04797C20.552 8.55997 21 10.268 21 12.172C21 14.0947 20.552 15.8213 19.656 17.352C18.7787 18.864 17.5747 20.0493 16.044 20.908C14.5133 21.7667 12.8333 22.196 11.004 22.196ZM11.004 18.696C12.18 18.696 13.216 18.4347 14.112 17.912C15.008 17.3707 15.708 16.6053 16.212 15.616C16.716 14.6267 16.968 13.4787 16.968 12.172C16.968 10.8653 16.716 9.72664 16.212 8.75597C15.708 7.76664 15.008 7.01064 14.112 6.48797C13.216 5.9653 12.18 5.70397 11.004 5.70397C9.82798 5.70397 8.78265 5.9653 7.86798 6.48797C6.97198 7.01064 6.27198 7.76664 5.76798 8.75597C5.26398 9.72664 5.01198 10.8653 5.01198 12.172C5.01198 13.4787 5.26398 14.6267 5.76798 15.616C6.27198 16.6053 6.97198 17.3707 7.86798 17.912C8.78265 18.4347 9.82798 18.696 11.004 18.696ZM22.9084 14.188C22.9084 12.62 23.2164 11.2293 23.8324 10.016C24.467 8.80264 25.3257 7.8693 26.4084 7.21597C27.491 6.56264 28.695 6.23597 30.0204 6.23597C31.0284 6.23597 31.9897 6.45997 32.9044 6.90797C33.819 7.3373 34.547 7.91598 35.0884 8.64398V1.27997H39.0644V22H35.0884V19.704C34.603 20.4693 33.9217 21.0853 33.0444 21.552C32.167 22.0187 31.1497 22.252 29.9924 22.252C28.6857 22.252 27.491 21.916 26.4084 21.244C25.3257 20.572 24.467 19.6293 23.8324 18.416C23.2164 17.184 22.9084 15.7747 22.9084 14.188ZM35.1164 14.244C35.1164 13.292 34.9297 12.48 34.5564 11.808C34.183 11.1173 33.679 10.5947 33.0444 10.24C32.4097 9.86664 31.7284 9.67998 31.0004 9.67998C30.2724 9.67998 29.6004 9.85731 28.9844 10.212C28.3684 10.5667 27.8644 11.0893 27.4724 11.78C27.099 12.452 26.9124 13.2547 26.9124 14.188C26.9124 15.1213 27.099 15.9427 27.4724 16.652C27.8644 17.3427 28.3684 17.8747 28.9844 18.248C29.619 18.6213 30.291 18.808 31.0004 18.808C31.7284 18.808 32.4097 18.6307 33.0444 18.276C33.679 17.9027 34.183 17.38 34.5564 16.708C34.9297 16.0173 35.1164 15.196 35.1164 14.244ZM52.0769 22L46.8129 15.392V22H42.8929V1.27997H46.8129V13.068L52.0209 6.48797H57.1169L50.2849 14.272L57.1729 22H52.0769ZM63.1645 8.89598C63.6685 8.07465 64.3218 7.43064 65.1245 6.96397C65.9458 6.4973 66.8792 6.26397 67.9245 6.26397V10.38H66.8885C65.6565 10.38 64.7232 10.6693 64.0885 11.248C63.4725 11.8267 63.1645 12.8347 63.1645 14.272V22H59.2445V6.48797H63.1645V8.89598ZM85.4048 6.48797L75.8008 29.336H71.6288L74.9888 21.608L68.7728 6.48797H73.1688L77.1728 17.324L81.2328 6.48797H85.4048ZM89.5059 4.63997C88.7966 4.63997 88.2086 4.4253 87.7419 3.99597C87.2939 3.54797 87.0699 2.9973 87.0699 2.34397C87.0699 1.69064 87.2939 1.1493 87.7419 0.719974C88.2086 0.271974 88.7966 0.0479736 89.5059 0.0479736C90.1966 0.0479736 90.7659 0.271974 91.2139 0.719974C91.6619 1.1493 91.8859 1.69064 91.8859 2.34397C91.8859 2.9973 91.6619 3.54797 91.2139 3.99597C90.7659 4.4253 90.1966 4.63997 89.5059 4.63997ZM91.4379 24.548C91.4379 26.2653 91.0086 27.4973 90.1499 28.244C89.3099 29.0093 88.0966 29.392 86.5099 29.392H84.7739V26.06H85.8939C86.4913 26.06 86.9113 25.9387 87.1539 25.696C87.3966 25.472 87.5179 25.0987 87.5179 24.576V6.48797H91.4379V24.548ZM100.975 14.188C100.975 12.62 101.283 11.2293 101.899 10.016C102.533 8.80264 103.383 7.8693 104.447 7.21597C105.529 6.56264 106.733 6.23597 108.059 6.23597C109.216 6.23597 110.224 6.4693 111.083 6.93597C111.96 7.40264 112.66 7.99064 113.183 8.69998V6.48797H117.131V22H113.183V19.732C112.679 20.46 111.979 21.0667 111.083 21.552C110.205 22.0187 109.188 22.252 108.031 22.252C106.724 22.252 105.529 21.916 104.447 21.244C103.383 20.572 102.533 19.6293 101.899 18.416C101.283 17.184 100.975 15.7747 100.975 14.188ZM113.183 14.244C113.183 13.292 112.996 12.48 112.623 11.808C112.249 11.1173 111.745 10.5947 111.111 10.24C110.476 9.86664 109.795 9.67998 109.067 9.67998C108.339 9.67998 107.667 9.85731 107.051 10.212C106.435 10.5667 105.931 11.0893 105.539 11.78C105.165 12.452 104.979 13.2547 104.979 14.188C104.979 15.1213 105.165 15.9427 105.539 16.652C105.931 17.3427 106.435 17.8747 107.051 18.248C107.685 18.6213 108.357 18.808 109.067 18.808C109.795 18.808 110.476 18.6307 111.111 18.276C111.745 17.9027 112.249 17.38 112.623 16.708C112.996 16.0173 113.183 15.196 113.183 14.244ZM124.879 8.72797C125.383 8.01864 126.074 7.43064 126.951 6.96397C127.847 6.47864 128.865 6.23597 130.003 6.23597C131.329 6.23597 132.523 6.56264 133.587 7.21597C134.67 7.8693 135.519 8.80264 136.135 10.016C136.77 11.2107 137.087 12.6013 137.087 14.188C137.087 15.7747 136.77 17.184 136.135 18.416C135.519 19.6293 134.67 20.572 133.587 21.244C132.523 21.916 131.329 22.252 130.003 22.252C128.865 22.252 127.857 22.0187 126.979 21.552C126.121 21.0853 125.421 20.4973 124.879 19.788V29.392H120.959V6.48797H124.879V8.72797ZM133.083 14.188C133.083 13.2547 132.887 12.452 132.495 11.78C132.122 11.0893 131.618 10.5667 130.983 10.212C130.367 9.85731 129.695 9.67998 128.967 9.67998C128.258 9.67998 127.586 9.86664 126.951 10.24C126.335 10.5947 125.831 11.1173 125.439 11.808C125.066 12.4987 124.879 13.3107 124.879 14.244C124.879 15.1773 125.066 15.9893 125.439 16.68C125.831 17.3707 126.335 17.9027 126.951 18.276C127.586 18.6307 128.258 18.808 128.967 18.808C129.695 18.808 130.367 18.6213 130.983 18.248C131.618 17.8747 132.122 17.3427 132.495 16.652C132.887 15.9613 133.083 15.14 133.083 14.188ZM143.856 1.27997V22H139.936V1.27997H143.856ZM149.717 4.63997C149.026 4.63997 148.448 4.4253 147.981 3.99597C147.533 3.54797 147.309 2.9973 147.309 2.34397C147.309 1.69064 147.533 1.1493 147.981 0.719974C148.448 0.271974 149.026 0.0479736 149.717 0.0479736C150.408 0.0479736 150.977 0.271974 151.425 0.719974C151.892 1.1493 152.125 1.69064 152.125 2.34397C152.125 2.9973 151.892 3.54797 151.425 3.99597C150.977 4.4253 150.408 4.63997 149.717 4.63997ZM151.649 6.48797V22H147.729V6.48797H151.649ZM164.706 22L159.442 15.392V22H155.522V1.27997H159.442V13.068L164.65 6.48797H169.746L162.914 14.272L169.802 22H164.706ZM170.865 14.188C170.865 12.62 171.173 11.2293 171.789 10.016C172.424 8.80264 173.273 7.8693 174.337 7.21597C175.42 6.56264 176.624 6.23597 177.949 6.23597C179.107 6.23597 180.115 6.4693 180.973 6.93597C181.851 7.40264 182.551 7.99064 183.073 8.69998V6.48797H187.021V22H183.073V19.732C182.569 20.46 181.869 21.0667 180.973 21.552C180.096 22.0187 179.079 22.252 177.921 22.252C176.615 22.252 175.42 21.916 174.337 21.244C173.273 20.572 172.424 19.6293 171.789 18.416C171.173 17.184 170.865 15.7747 170.865 14.188ZM183.073 14.244C183.073 13.292 182.887 12.48 182.513 11.808C182.14 11.1173 181.636 10.5947 181.001 10.24C180.367 9.86664 179.685 9.67998 178.957 9.67998C178.229 9.67998 177.557 9.85731 176.941 10.212C176.325 10.5667 175.821 11.0893 175.429 11.78C175.056 12.452 174.869 13.2547 174.869 14.188C174.869 15.1213 175.056 15.9427 175.429 16.652C175.821 17.3427 176.325 17.8747 176.941 18.248C177.576 18.6213 178.248 18.808 178.957 18.808C179.685 18.808 180.367 18.6307 181.001 18.276C181.636 17.9027 182.14 17.38 182.513 16.708C182.887 16.0173 183.073 15.196 183.073 14.244ZM189.842 14.244C189.842 12.6387 190.169 11.2387 190.822 10.044C191.475 8.83064 192.381 7.8973 193.538 7.24397C194.695 6.57197 196.021 6.23597 197.514 6.23597C199.437 6.23597 201.023 6.7213 202.274 7.69197C203.543 8.64397 204.393 9.98798 204.822 11.724H200.594C200.37 11.052 199.987 10.5293 199.446 10.156C198.923 9.76398 198.27 9.56798 197.486 9.56798C196.366 9.56798 195.479 9.97865 194.826 10.8C194.173 11.6027 193.846 12.7507 193.846 14.244C193.846 15.7187 194.173 16.8667 194.826 17.688C195.479 18.4907 196.366 18.892 197.486 18.892C199.073 18.892 200.109 18.1827 200.594 16.764H204.822C204.393 18.444 203.543 19.7787 202.274 20.768C201.005 21.7573 199.418 22.252 197.514 22.252C196.021 22.252 194.695 21.9253 193.538 21.272C192.381 20.6 191.475 19.6667 190.822 18.472C190.169 17.2587 189.842 15.8493 189.842 14.244ZM209.682 4.63997C208.972 4.63997 208.384 4.4253 207.918 3.99597C207.47 3.54797 207.246 2.9973 207.246 2.34397C207.246 1.69064 207.47 1.1493 207.918 0.719974C208.384 0.271974 208.972 0.0479736 209.682 0.0479736C210.372 0.0479736 210.942 0.271974 211.39 0.719974C211.838 1.1493 212.062 1.69064 212.062 2.34397C212.062 2.9973 211.838 3.54797 211.39 3.99597C210.942 4.4253 210.372 4.63997 209.682 4.63997ZM211.614 24.548C211.614 26.2653 211.184 27.4973 210.326 28.244C209.486 29.0093 208.272 29.392 206.686 29.392H204.95V26.06H206.07C206.667 26.06 207.087 25.9387 207.33 25.696C207.572 25.472 207.694 25.0987 207.694 24.576V6.48797H211.614V24.548ZM229.907 13.908C229.907 14.468 229.869 14.972 229.795 15.42H218.455C218.548 16.54 218.94 17.4173 219.631 18.052C220.321 18.6867 221.171 19.004 222.179 19.004C223.635 19.004 224.671 18.3787 225.287 17.128H229.515C229.16 18.304 228.553 19.3213 227.695 20.18C226.836 21.0387 225.763 21.636 224.475 21.972L223.831 22.308C223.196 22.6253 222.748 22.924 222.487 23.204C222.225 23.5027 222.095 23.82 222.095 24.156C222.095 24.492 222.216 24.7627 222.459 24.968C222.72 25.1733 223.065 25.276 223.495 25.276C224.092 25.276 224.755 25.136 225.483 24.856V27.208C224.68 27.488 223.849 27.628 222.991 27.628C221.889 27.628 220.956 27.3667 220.191 26.844C219.444 26.34 219.071 25.5653 219.071 24.52C219.071 23.568 219.453 22.7373 220.219 22.028C218.483 21.6173 217.092 20.7213 216.047 19.34C215.001 17.9587 214.479 16.26 214.479 14.244C214.479 12.6387 214.805 11.2293 215.459 10.016C216.112 8.80264 217.027 7.8693 218.203 7.21597C219.379 6.56264 220.732 6.23597 222.263 6.23597C223.737 6.23597 225.053 6.5533 226.211 7.18797C227.387 7.82265 228.292 8.72798 228.927 9.90398C229.58 11.0613 229.907 12.396 229.907 13.908ZM225.847 12.788C225.828 11.78 225.464 10.9773 224.755 10.38C224.045 9.76398 223.177 9.45598 222.151 9.45598C221.18 9.45598 220.359 9.75465 219.687 10.352C219.033 10.9307 218.632 11.7427 218.483 12.788H225.847ZM265.564 2.45597L260.104 22H255.484L251.816 8.08397L247.98 22L243.388 22.028L238.124 2.45597H242.324L245.768 17.632L249.744 2.45597H254.112L257.864 17.548L261.336 2.45597H265.564ZM267.115 14.188C267.115 12.62 267.423 11.2293 268.039 10.016C268.674 8.80264 269.523 7.8693 270.587 7.21597C271.67 6.56264 272.874 6.23597 274.199 6.23597C275.357 6.23597 276.365 6.4693 277.223 6.93597C278.101 7.40264 278.801 7.99064 279.323 8.69998V6.48797H283.271V22H279.323V19.732C278.819 20.46 278.119 21.0667 277.223 21.552C276.346 22.0187 275.329 22.252 274.171 22.252C272.865 22.252 271.67 21.916 270.587 21.244C269.523 20.572 268.674 19.6293 268.039 18.416C267.423 17.184 267.115 15.7747 267.115 14.188ZM279.323 14.244C279.323 13.292 279.137 12.48 278.763 11.808C278.39 11.1173 277.886 10.5947 277.251 10.24C276.617 9.86664 275.935 9.67998 275.207 9.67998C274.479 9.67998 273.807 9.85731 273.191 10.212C272.575 10.5667 272.071 11.0893 271.679 11.78C271.306 12.452 271.119 13.2547 271.119 14.188C271.119 15.1213 271.306 15.9427 271.679 16.652C272.071 17.3427 272.575 17.8747 273.191 18.248C273.826 18.6213 274.498 18.808 275.207 18.808C275.935 18.808 276.617 18.6307 277.251 18.276C277.886 17.9027 278.39 17.38 278.763 16.708C279.137 16.0173 279.323 15.196 279.323 14.244ZM291.02 1.27997V22H287.1V1.27997H291.02ZM304.077 22L298.813 15.392V22H294.893V1.27997H298.813V13.068L304.021 6.48797H309.117L302.285 14.272L309.173 22H304.077ZM313.233 4.63997C312.542 4.63997 311.963 4.4253 311.497 3.99597C311.049 3.54797 310.825 2.9973 310.825 2.34397C310.825 1.69064 311.049 1.1493 311.497 0.719974C311.963 0.271974 312.542 0.0479736 313.233 0.0479736C313.923 0.0479736 314.493 0.271974 314.941 0.719974C315.407 1.1493 315.641 1.69064 315.641 2.34397C315.641 2.9973 315.407 3.54797 314.941 3.99597C314.493 4.4253 313.923 4.63997 313.233 4.63997ZM315.165 6.48797V22H311.245V6.48797H315.165ZM333.457 13.908C333.457 14.468 333.42 14.972 333.345 15.42H322.005C322.099 16.54 322.491 17.4173 323.181 18.052C323.872 18.6867 324.721 19.004 325.729 19.004C327.185 19.004 328.221 18.3787 328.837 17.128H333.065C332.617 18.6213 331.759 19.8533 330.489 20.824C329.22 21.776 327.661 22.252 325.813 22.252C324.32 22.252 322.976 21.9253 321.781 21.272C320.605 20.6 319.681 19.6573 319.009 18.444C318.356 17.2307 318.029 15.8307 318.029 14.244C318.029 12.6387 318.356 11.2293 319.009 10.016C319.663 8.80264 320.577 7.8693 321.753 7.21597C322.929 6.56264 324.283 6.23597 325.813 6.23597C327.288 6.23597 328.604 6.5533 329.761 7.18797C330.937 7.82265 331.843 8.72798 332.477 9.90398C333.131 11.0613 333.457 12.396 333.457 13.908ZM329.397 12.788C329.379 11.78 329.015 10.9773 328.305 10.38C327.596 9.76398 326.728 9.45598 325.701 9.45598C324.731 9.45598 323.909 9.75465 323.237 10.352C322.584 10.9307 322.183 11.7427 322.033 12.788H329.397ZM343.151 2.45597C345.204 2.45597 347.005 2.8573 348.555 3.65997C350.123 4.46264 351.327 5.61064 352.167 7.10397C353.025 8.57864 353.455 10.296 353.455 12.256C353.455 14.216 353.025 15.9333 352.167 17.408C351.327 18.864 350.123 19.9933 348.555 20.796C347.005 21.5987 345.204 22 343.151 22H336.319V2.45597H343.151ZM343.011 18.668C345.064 18.668 346.651 18.108 347.771 16.988C348.891 15.868 349.451 14.2907 349.451 12.256C349.451 10.2213 348.891 8.63464 347.771 7.49597C346.651 6.33864 345.064 5.75997 343.011 5.75997H340.239V18.668H343.011ZM363.277 22.252C361.784 22.252 360.44 21.9253 359.245 21.272C358.05 20.6 357.108 19.6573 356.417 18.444C355.745 17.2307 355.409 15.8307 355.409 14.244C355.409 12.6573 355.754 11.2573 356.445 10.044C357.154 8.83064 358.116 7.8973 359.329 7.24397C360.542 6.57197 361.896 6.23597 363.389 6.23597C364.882 6.23597 366.236 6.57197 367.449 7.24397C368.662 7.8973 369.614 8.83064 370.305 10.044C371.014 11.2573 371.369 12.6573 371.369 14.244C371.369 15.8307 371.005 17.2307 370.277 18.444C369.568 19.6573 368.597 20.6 367.365 21.272C366.152 21.9253 364.789 22.252 363.277 22.252ZM363.277 18.836C363.986 18.836 364.649 18.668 365.265 18.332C365.9 17.9773 366.404 17.4547 366.777 16.764C367.15 16.0733 367.337 15.2333 367.337 14.244C367.337 12.7693 366.945 11.64 366.161 10.856C365.396 10.0533 364.453 9.65198 363.333 9.65198C362.213 9.65198 361.27 10.0533 360.505 10.856C359.758 11.64 359.385 12.7693 359.385 14.244C359.385 15.7187 359.749 16.8573 360.477 17.66C361.224 18.444 362.157 18.836 363.277 18.836ZM380.321 6.23597C381.478 6.23597 382.495 6.4693 383.373 6.93597C384.25 7.38397 384.941 7.97197 385.445 8.69998V6.48797H389.393V22.112C389.393 23.5493 389.103 24.828 388.525 25.948C387.946 27.0867 387.078 27.9827 385.921 28.636C384.763 29.308 383.363 29.644 381.721 29.644C379.518 29.644 377.707 29.1307 376.289 28.104C374.889 27.0773 374.095 25.6773 373.909 23.904H377.801C378.006 24.6133 378.445 25.1733 379.117 25.584C379.807 26.0133 380.638 26.228 381.609 26.228C382.747 26.228 383.671 25.8827 384.381 25.192C385.09 24.52 385.445 23.4933 385.445 22.112V19.704C384.941 20.432 384.241 21.0387 383.345 21.524C382.467 22.0093 381.459 22.252 380.321 22.252C379.014 22.252 377.819 21.916 376.737 21.244C375.654 20.572 374.795 19.6293 374.16 18.416C373.544 17.184 373.236 15.7747 373.236 14.188C373.236 12.62 373.544 11.2293 374.16 10.016C374.795 8.80264 375.645 7.8693 376.709 7.21597C377.791 6.56264 378.995 6.23597 380.321 6.23597ZM385.445 14.244C385.445 13.292 385.258 12.48 384.885 11.808C384.511 11.1173 384.007 10.5947 383.373 10.24C382.738 9.86664 382.057 9.67998 381.329 9.67998C380.601 9.67998 379.929 9.85731 379.312 10.212C378.697 10.5667 378.193 11.0893 377.801 11.78C377.427 12.452 377.241 13.2547 377.241 14.188C377.241 15.1213 377.427 15.9427 377.801 16.652C378.193 17.3427 378.697 17.8747 379.312 18.248C379.947 18.6213 380.619 18.808 381.329 18.808C382.057 18.808 382.738 18.6307 383.373 18.276C384.007 17.9027 384.511 17.38 384.885 16.708C385.258 16.0173 385.445 15.196 385.445 14.244ZM399.297 6.23597C400.454 6.23597 401.472 6.4693 402.349 6.93597C403.226 7.38397 403.917 7.97197 404.421 8.69998V6.48797H408.369V22.112C408.369 23.5493 408.08 24.828 407.501 25.948C406.922 27.0867 406.054 27.9827 404.897 28.636C403.74 29.308 402.34 29.644 400.697 29.644C398.494 29.644 396.684 29.1307 395.265 28.104C393.865 27.0773 393.072 25.6773 392.885 23.904H396.777C396.982 24.6133 397.421 25.1733 398.093 25.584C398.784 26.0133 399.614 26.228 400.585 26.228C401.724 26.228 402.648 25.8827 403.357 25.192C404.066 24.52 404.421 23.4933 404.421 22.112V19.704C403.917 20.432 403.217 21.0387 402.321 21.524C401.444 22.0093 400.436 22.252 399.297 22.252C397.99 22.252 396.796 21.916 395.713 21.244C394.63 20.572 393.772 19.6293 393.137 18.416C392.521 17.184 392.213 15.7747 392.213 14.188C392.213 12.62 392.521 11.2293 393.137 10.016C393.772 8.80264 394.621 7.8693 395.685 7.21597C396.768 6.56264 397.972 6.23597 399.297 6.23597ZM404.421 14.244C404.421 13.292 404.234 12.48 403.861 11.808C403.488 11.1173 402.984 10.5947 402.349 10.24C401.714 9.86664 401.033 9.67998 400.305 9.67998C399.577 9.67998 398.905 9.85731 398.289 10.212C397.673 10.5667 397.169 11.0893 396.777 11.78C396.404 12.452 396.217 13.2547 396.217 14.188C396.217 15.1213 396.404 15.9427 396.777 16.652C397.169 17.3427 397.673 17.8747 398.289 18.248C398.924 18.6213 399.596 18.808 400.305 18.808C401.033 18.808 401.714 18.6307 402.349 18.276C402.984 17.9027 403.488 17.38 403.861 16.708C404.234 16.0173 404.421 15.196 404.421 14.244ZM414.186 4.63997C413.495 4.63997 412.916 4.4253 412.45 3.99597C412.002 3.54797 411.778 2.9973 411.778 2.34397C411.778 1.69064 412.002 1.1493 412.45 0.719974C412.916 0.271974 413.495 0.0479736 414.186 0.0479736C414.876 0.0479736 415.446 0.271974 415.894 0.719974C416.36 1.1493 416.594 1.69064 416.594 2.34397C416.594 2.9973 416.36 3.54797 415.894 3.99597C415.446 4.4253 414.876 4.63997 414.186 4.63997ZM416.118 6.48797V22H412.198V6.48797H416.118ZM434.411 13.908C434.411 14.468 434.373 14.972 434.299 15.42H422.959C423.052 16.54 423.444 17.4173 424.135 18.052C424.825 18.6867 425.675 19.004 426.683 19.004C428.139 19.004 429.175 18.3787 429.791 17.128H434.019C433.571 18.6213 432.712 19.8533 431.443 20.824C430.173 21.776 428.615 22.252 426.767 22.252C425.273 22.252 423.929 21.9253 422.735 21.272C421.559 20.6 420.635 19.6573 419.963 18.444C419.309 17.2307 418.983 15.8307 418.983 14.244C418.983 12.6387 419.309 11.2293 419.963 10.016C420.616 8.80264 421.531 7.8693 422.707 7.21597C423.883 6.56264 425.236 6.23597 426.767 6.23597C428.241 6.23597 429.557 6.5533 430.715 7.18797C431.891 7.82265 432.796 8.72798 433.431 9.90398C434.084 11.0613 434.411 12.396 434.411 13.908ZM430.351 12.788C430.332 11.78 429.968 10.9773 429.259 10.38C428.549 9.76398 427.681 9.45598 426.655 9.45598C425.684 9.45598 424.863 9.75465 424.191 10.352C423.537 10.9307 423.136 11.7427 422.987 12.788H430.351Z" fill="black"/>
<path d="M0.475777 52.278H3.14978V61H4.42378V52.278H7.08378V51.242H0.475777V52.278ZM11.614 54.28C12.93 54.28 14.05 55.106 14.036 56.604H9.192C9.332 55.106 10.368 54.28 11.614 54.28ZM15.198 58.634H13.826C13.546 59.46 12.818 60.048 11.67 60.048C10.368 60.048 9.276 59.194 9.178 57.64H15.31C15.338 57.374 15.352 57.15 15.352 56.87C15.352 54.77 13.896 53.202 11.67 53.202C9.43 53.202 7.876 54.728 7.876 57.15C7.876 59.586 9.486 61.126 11.67 61.126C13.574 61.126 14.806 60.034 15.198 58.634ZM18.0077 56.828C18.0077 55.05 18.9317 54.504 20.1497 54.504H20.4857V53.188C19.2677 53.188 18.4417 53.72 18.0077 54.574V53.328H16.7337V61H18.0077V56.828ZM21.1803 57.136C21.1803 59.516 22.7623 61.126 24.8063 61.126C26.2203 61.126 27.2143 60.398 27.6763 59.572V61H28.9643V53.328H27.6763V54.728C27.2283 53.93 26.2483 53.202 24.8203 53.202C22.7623 53.202 21.1803 54.742 21.1803 57.136ZM27.6763 57.15C27.6763 58.956 26.4723 60.006 25.0723 60.006C23.6723 60.006 22.4823 58.942 22.4823 57.136C22.4823 55.33 23.6723 54.308 25.0723 54.308C26.4723 54.308 27.6763 55.372 27.6763 57.15ZM35.5073 53.328H30.3413V54.364H34.0373L30.3133 59.95V61H35.5353V59.95H31.7693L35.5073 54.364V53.328ZM41.5948 54.742V53.328H40.3208V64.64H41.5948V59.586C42.0708 60.37 43.0648 61.126 44.4648 61.126C46.5228 61.126 48.1048 59.516 48.1048 57.136C48.1048 54.742 46.5228 53.202 44.4648 53.202C43.0648 53.202 42.0568 53.93 41.5948 54.742ZM46.8028 57.136C46.8028 58.942 45.6128 60.006 44.1988 60.006C42.8128 60.006 41.5948 58.956 41.5948 57.15C41.5948 55.372 42.8128 54.308 44.1988 54.308C45.6128 54.308 46.8028 55.33 46.8028 57.136ZM56.7617 57.15C56.7617 54.728 55.0677 53.202 52.8837 53.202C50.7137 53.202 49.0057 54.728 49.0057 57.15C49.0057 59.586 50.6577 61.126 52.8277 61.126C55.0117 61.126 56.7617 59.586 56.7617 57.15ZM50.3077 57.15C50.3077 55.218 51.5257 54.308 52.8697 54.308C54.1857 54.308 55.4597 55.218 55.4597 57.15C55.4597 59.096 54.1577 60.006 52.8277 60.006C51.4977 60.006 50.3077 59.096 50.3077 57.15ZM57.6608 57.136C57.6608 59.516 59.2428 61.126 61.3008 61.126C62.7008 61.126 63.6948 60.412 64.1568 59.558V61H65.4448V50.64H64.1568V54.7C63.6248 53.818 62.5188 53.202 61.3148 53.202C59.2428 53.202 57.6608 54.742 57.6608 57.136ZM64.1568 57.15C64.1568 58.956 62.9528 60.006 61.5528 60.006C60.1528 60.006 58.9628 58.942 58.9628 57.136C58.9628 55.33 60.1528 54.308 61.5528 54.308C62.9528 54.308 64.1568 55.372 64.1568 57.15ZM66.8217 57.15C66.8217 59.586 68.3757 61.126 70.5597 61.126C72.4637 61.126 73.7097 60.062 74.1017 58.536H72.7297C72.4497 59.502 71.6937 60.048 70.5597 60.048C69.1597 60.048 68.1237 59.054 68.1237 57.15C68.1237 55.274 69.1597 54.28 70.5597 54.28C71.6937 54.28 72.4637 54.868 72.7297 55.792H74.1017C73.7097 54.182 72.4637 53.202 70.5597 53.202C68.3757 53.202 66.8217 54.742 66.8217 57.15ZM80.1916 53.328H75.0256V54.364H78.7216L74.9976 59.95V61H80.2196V59.95H76.4536L80.1916 54.364V53.328ZM81.0967 57.136C81.0967 59.516 82.6787 61.126 84.7227 61.126C86.1367 61.126 87.1307 60.398 87.5927 59.572V61H88.8807V53.328H87.5927V54.728C87.1447 53.93 86.1647 53.202 84.7367 53.202C82.6787 53.202 81.0967 54.742 81.0967 57.136ZM87.5927 57.15C87.5927 58.956 86.3887 60.006 84.9887 60.006C83.5887 60.006 82.3987 58.942 82.3987 57.136C82.3987 55.33 83.5887 54.308 84.9887 54.308C86.3887 54.308 87.5927 55.372 87.5927 57.15ZM96.2497 58.914C96.1937 56.17 91.7417 57.164 91.7417 55.344C91.7417 54.728 92.3017 54.28 93.2397 54.28C94.2617 54.28 94.8497 54.84 94.9057 55.61H96.1797C96.0957 54.112 94.9757 53.202 93.2817 53.202C91.5737 53.202 90.4677 54.168 90.4677 55.344C90.4677 58.2 95.0037 57.206 95.0037 58.914C95.0037 59.544 94.4437 60.048 93.4357 60.048C92.3577 60.048 91.6997 59.488 91.6297 58.746H90.3137C90.3977 60.146 91.6577 61.126 93.4497 61.126C95.1437 61.126 96.2497 60.174 96.2497 58.914ZM106.795 61H108.055V56.478C108.055 54.28 106.697 53.188 104.919 53.188C103.883 53.188 102.959 53.622 102.455 54.42V53.328H101.181V61H102.455V56.758C102.455 55.106 103.351 54.294 104.653 54.294C105.941 54.294 106.795 55.092 106.795 56.66V61ZM109.36 57.136C109.36 59.516 110.942 61.126 112.986 61.126C114.4 61.126 115.394 60.398 115.856 59.572V61H117.144V53.328H115.856V54.728C115.408 53.93 114.428 53.202 113 53.202C110.942 53.202 109.36 54.742 109.36 57.136ZM115.856 57.15C115.856 58.956 114.652 60.006 113.252 60.006C111.852 60.006 110.662 58.942 110.662 57.136C110.662 55.33 111.852 54.308 113.252 54.308C114.652 54.308 115.856 55.372 115.856 57.15ZM124.513 58.914C124.457 56.17 120.005 57.164 120.005 55.344C120.005 54.728 120.565 54.28 121.503 54.28C122.525 54.28 123.113 54.84 123.169 55.61H124.443C124.359 54.112 123.239 53.202 121.545 53.202C119.837 53.202 118.731 54.168 118.731 55.344C118.731 58.2 123.267 57.206 123.267 58.914C123.267 59.544 122.707 60.048 121.699 60.048C120.621 60.048 119.963 59.488 119.893 58.746H118.577C118.661 60.146 119.921 61.126 121.713 61.126C123.407 61.126 124.513 60.174 124.513 58.914ZM130.701 53.328H125.535V54.364H129.231L125.507 59.95V61H130.729V59.95H126.963L130.701 54.364V53.328ZM134.994 59.544L132.586 53.328H131.172L134.266 60.916L132.754 64.612H134.07L138.69 53.328H137.374L134.994 59.544ZM139.195 57.15C139.195 59.586 140.749 61.126 142.933 61.126C144.837 61.126 146.083 60.062 146.475 58.536H145.103C144.823 59.502 144.067 60.048 142.933 60.048C141.533 60.048 140.497 59.054 140.497 57.15C140.497 55.274 141.533 54.28 142.933 54.28C144.067 54.28 144.837 54.868 145.103 55.792H146.475C146.083 54.182 144.837 53.202 142.933 53.202C140.749 53.202 139.195 54.742 139.195 57.15ZM147.875 61H149.149V56.758C149.149 55.106 150.045 54.294 151.347 54.294C152.635 54.294 153.489 55.092 153.489 56.66V61H154.749V56.478C154.749 54.28 153.391 53.188 151.683 53.188C150.605 53.188 149.653 53.622 149.149 54.434V50.64H147.875V61ZM161.236 54.756V50.64H159.962V61H161.236V59.586C161.712 60.426 162.706 61.126 164.106 61.126C166.164 61.126 167.746 59.516 167.746 57.136C167.746 54.742 166.178 53.202 164.106 53.202C162.748 53.202 161.726 53.902 161.236 54.756ZM166.444 57.136C166.444 58.942 165.254 60.006 163.84 60.006C162.454 60.006 161.236 58.956 161.236 57.15C161.236 55.372 162.454 54.308 163.84 54.308C165.254 54.308 166.444 55.33 166.444 57.136ZM172.385 54.28C173.701 54.28 174.821 55.106 174.807 56.604H169.963C170.103 55.106 171.139 54.28 172.385 54.28ZM175.969 58.634H174.597C174.317 59.46 173.589 60.048 172.441 60.048C171.139 60.048 170.047 59.194 169.949 57.64H176.081C176.109 57.374 176.123 57.15 176.123 56.87C176.123 54.77 174.667 53.202 172.441 53.202C170.201 53.202 168.647 54.728 168.647 57.15C168.647 59.586 170.257 61.126 172.441 61.126C174.345 61.126 175.577 60.034 175.969 58.634ZM177.785 58.9C177.785 60.44 178.555 61 179.913 61H181.061V59.922H180.123C179.339 59.922 179.059 59.656 179.059 58.9V54.378H181.061V53.328H179.059V51.396H177.785V53.328H176.791V54.378H177.785V58.9ZM181.829 57.136C181.829 59.516 183.411 61.126 185.455 61.126C186.869 61.126 187.863 60.398 188.325 59.572V61H189.613V53.328H188.325V54.728C187.877 53.93 186.897 53.202 185.469 53.202C183.411 53.202 181.829 54.742 181.829 57.136ZM188.325 57.15C188.325 58.956 187.121 60.006 185.721 60.006C184.321 60.006 183.131 58.942 183.131 57.136C183.131 55.33 184.321 54.308 185.721 54.308C187.121 54.308 188.325 55.372 188.325 57.15ZM195.178 58.9C195.178 60.44 195.948 61 197.306 61H198.454V59.922H197.516C196.732 59.922 196.452 59.656 196.452 58.9V54.378H198.454V53.328H196.452V51.396H195.178V53.328H194.184V54.378H195.178V58.9ZM202.96 54.28C204.276 54.28 205.396 55.106 205.382 56.604H200.538C200.678 55.106 201.714 54.28 202.96 54.28ZM206.544 58.634H205.172C204.892 59.46 204.164 60.048 203.016 60.048C201.714 60.048 200.622 59.194 200.524 57.64H206.656C206.684 57.374 206.698 57.15 206.698 56.87C206.698 54.77 205.242 53.202 203.016 53.202C200.776 53.202 199.222 54.728 199.222 57.15C199.222 59.586 200.832 61.126 203.016 61.126C204.92 61.126 206.152 60.034 206.544 58.634ZM213.595 58.914C213.539 56.17 209.087 57.164 209.087 55.344C209.087 54.728 209.647 54.28 210.585 54.28C211.607 54.28 212.195 54.84 212.251 55.61H213.525C213.441 54.112 212.321 53.202 210.627 53.202C208.919 53.202 207.813 54.168 207.813 55.344C207.813 58.2 212.349 57.206 212.349 58.914C212.349 59.544 211.789 60.048 210.781 60.048C209.703 60.048 209.045 59.488 208.975 58.746H207.659C207.743 60.146 209.003 61.126 210.795 61.126C212.489 61.126 213.595 60.174 213.595 58.914ZM215.374 58.9C215.374 60.44 216.144 61 217.502 61H218.65V59.922H217.712C216.928 59.922 216.648 59.656 216.648 58.9V54.378H218.65V53.328H216.648V51.396H215.374V53.328H214.38V54.378H215.374V58.9ZM227.173 57.15C227.173 54.728 225.479 53.202 223.295 53.202C221.125 53.202 219.417 54.728 219.417 57.15C219.417 59.586 221.069 61.126 223.239 61.126C225.423 61.126 227.173 59.586 227.173 57.15ZM220.719 57.15C220.719 55.218 221.937 54.308 223.281 54.308C224.597 54.308 225.871 55.218 225.871 57.15C225.871 59.096 224.569 60.006 223.239 60.006C221.909 60.006 220.719 59.096 220.719 57.15ZM221.685 51.704V52.656L224.667 51.06V49.954L221.685 51.704ZM230.046 61H231.362L233.21 54.91L235.058 61H236.374L238.768 53.328H237.508L235.772 59.782L233.91 53.328H232.608L230.704 59.768L228.94 53.328H227.638L230.046 61ZM254.239 61H255.499V56.478C255.499 54.28 254.141 53.188 252.391 53.188C251.215 53.188 250.123 53.79 249.675 54.896C249.171 53.748 248.121 53.188 246.861 53.188C245.853 53.188 244.943 53.622 244.439 54.434V53.328H243.165V61H244.439V56.772C244.439 55.12 245.321 54.294 246.609 54.294C247.869 54.294 248.709 55.092 248.709 56.66V61H249.969V56.772C249.969 55.12 250.851 54.294 252.139 54.294C253.399 54.294 254.239 55.092 254.239 56.66V61ZM256.813 57.136C256.813 59.516 258.395 61.126 260.439 61.126C261.853 61.126 262.847 60.398 263.309 59.572V61H264.597V53.328H263.309V54.728C262.861 53.93 261.881 53.202 260.453 53.202C258.395 53.202 256.813 54.742 256.813 57.136ZM263.309 57.15C263.309 58.956 262.105 60.006 260.705 60.006C259.305 60.006 258.115 58.942 258.115 57.136C258.115 55.33 259.305 54.308 260.705 54.308C262.105 54.308 263.309 55.372 263.309 57.15ZM271.966 58.914C271.91 56.17 267.458 57.164 267.458 55.344C267.458 54.728 268.018 54.28 268.956 54.28C269.978 54.28 270.566 54.84 270.622 55.61H271.896C271.812 54.112 270.692 53.202 268.998 53.202C267.29 53.202 266.184 54.168 266.184 55.344C266.184 58.2 270.72 57.206 270.72 58.914C270.72 59.544 270.16 60.048 269.152 60.048C268.074 60.048 267.416 59.488 267.346 58.746H266.03C266.114 60.146 267.374 61.126 269.166 61.126C270.86 61.126 271.966 60.174 271.966 58.914ZM278.154 53.328H272.988V54.364H276.684L272.96 59.95V61H278.182V59.95H274.416L278.154 54.364V53.328ZM290.248 57.15C290.248 54.728 288.554 53.202 286.37 53.202C284.2 53.202 282.492 54.728 282.492 57.15C282.492 59.586 284.144 61.126 286.314 61.126C288.498 61.126 290.248 59.586 290.248 57.15ZM283.794 57.15C283.794 55.218 285.012 54.308 286.356 54.308C287.672 54.308 288.946 55.218 288.946 57.15C288.946 59.096 287.644 60.006 286.314 60.006C284.984 60.006 283.794 59.096 283.794 57.15ZM291.623 61H292.897V57.612L295.907 61H297.643L294.017 57.15L297.629 53.328H295.851L292.897 56.73V50.64H291.623V61ZM298.052 57.136C298.052 59.516 299.634 61.126 301.678 61.126C303.092 61.126 304.086 60.398 304.548 59.572V61H305.836V53.328H304.548V54.728C304.1 53.93 303.12 53.202 301.692 53.202C299.634 53.202 298.052 54.742 298.052 57.136ZM304.548 57.15C304.548 58.956 303.344 60.006 301.944 60.006C300.544 60.006 299.354 58.942 299.354 57.136C299.354 55.33 300.544 54.308 301.944 54.308C303.344 54.308 304.548 55.372 304.548 57.15ZM312.379 53.328H307.213V54.364H310.909L307.185 59.95V61H312.407V59.95H308.641L312.379 54.364V53.328ZM314.446 52.082C314.922 52.082 315.3 51.704 315.3 51.214C315.3 50.724 314.922 50.346 314.446 50.346C313.97 50.346 313.592 50.724 313.592 51.214C313.592 51.704 313.97 52.082 314.446 52.082ZM313.802 53.328V62.638C313.802 63.31 313.536 63.562 312.836 63.562H312.304V64.64H313.046C314.348 64.64 315.076 64.052 315.076 62.666V53.328H313.802ZM320.195 54.28C321.511 54.28 322.631 55.106 322.617 56.604H317.773C317.913 55.106 318.949 54.28 320.195 54.28ZM321.861 63.492V62.652C321.539 62.764 321.217 62.834 320.951 62.834C320.447 62.834 320.125 62.596 320.125 62.162C320.125 61.812 320.335 61.49 320.965 61.182L321.357 60.986C322.631 60.65 323.471 59.74 323.779 58.634H322.407C322.127 59.46 321.399 60.048 320.251 60.048C318.949 60.048 317.857 59.194 317.759 57.64H323.891C323.919 57.374 323.933 57.15 323.933 56.87C323.933 54.77 322.477 53.202 320.251 53.202C318.011 53.202 316.457 54.728 316.457 57.15C316.457 59.362 317.787 60.846 319.677 61.084C319.243 61.462 319.075 61.868 319.075 62.288C319.075 63.31 319.943 63.688 320.783 63.688C321.161 63.688 321.539 63.604 321.861 63.492ZM334.263 58.914C334.207 56.17 329.755 57.164 329.755 55.344C329.755 54.728 330.315 54.28 331.253 54.28C332.275 54.28 332.863 54.84 332.919 55.61H334.193C334.109 54.112 332.989 53.202 331.295 53.202C329.587 53.202 328.481 54.168 328.481 55.344C328.481 58.2 333.017 57.206 333.017 58.914C333.017 59.544 332.457 60.048 331.449 60.048C330.371 60.048 329.713 59.488 329.643 58.746H328.327C328.411 60.146 329.671 61.126 331.463 61.126C333.157 61.126 334.263 60.174 334.263 58.914ZM337.035 54.742V53.328H335.761V64.64H337.035V59.586C337.511 60.37 338.505 61.126 339.905 61.126C341.963 61.126 343.545 59.516 343.545 57.136C343.545 54.742 341.963 53.202 339.905 53.202C338.505 53.202 337.497 53.93 337.035 54.742ZM342.243 57.136C342.243 58.942 341.053 60.006 339.639 60.006C338.253 60.006 337.035 58.956 337.035 57.15C337.035 55.372 338.253 54.308 339.639 54.308C341.053 54.308 342.243 55.33 342.243 57.136ZM346.196 56.828C346.196 55.05 347.12 54.504 348.338 54.504H348.674V53.188C347.456 53.188 346.63 53.72 346.196 54.574V53.328H344.922V61H346.196V56.828ZM349.369 57.136C349.369 59.516 350.951 61.126 352.995 61.126C354.409 61.126 355.403 60.398 355.865 59.572V61H357.153V53.328H355.865V54.728C355.417 53.93 354.437 53.202 353.009 53.202C350.951 53.202 349.369 54.742 349.369 57.136ZM355.865 57.15C355.865 58.956 354.661 60.006 353.261 60.006C351.861 60.006 350.671 58.942 350.671 57.136C350.671 55.33 351.861 54.308 353.261 54.308C354.661 54.308 355.865 55.372 355.865 57.15ZM360.504 61H361.82L363.668 54.91L365.516 61H366.832L369.226 53.328H367.966L366.23 59.782L364.368 53.328H363.066L361.162 59.768L359.398 53.328H358.096L360.504 61ZM369.714 57.136C369.714 59.516 371.296 61.126 373.354 61.126C374.754 61.126 375.748 60.412 376.21 59.558V61H377.498V50.64H376.21V54.7C375.678 53.818 374.572 53.202 373.368 53.202C371.296 53.202 369.714 54.742 369.714 57.136ZM376.21 57.15C376.21 58.956 375.006 60.006 373.606 60.006C372.206 60.006 371.016 58.942 371.016 57.136C371.016 55.33 372.206 54.308 373.606 54.308C375.006 54.308 376.21 55.372 376.21 57.15ZM384.041 53.328H378.875V54.364H382.571L378.847 59.95V61H384.069V59.95H380.303L384.041 54.364V53.328ZM385.422 61H386.696V53.328H385.422V61ZM386.08 52.082C386.542 52.082 386.92 51.704 386.92 51.214C386.92 50.724 386.542 50.346 386.08 50.346C385.59 50.346 385.212 50.724 385.212 51.214C385.212 51.704 385.59 52.082 386.08 52.082ZM388.091 57.15C388.091 59.586 389.645 61.126 391.829 61.126C393.733 61.126 394.979 60.062 395.371 58.536H393.999C393.719 59.502 392.963 60.048 391.829 60.048C390.429 60.048 389.393 59.054 389.393 57.15C389.393 55.274 390.429 54.28 391.829 54.28C392.963 54.28 393.733 54.868 393.999 55.792H395.371C394.979 54.182 393.733 53.202 391.829 53.202C389.645 53.202 388.091 54.742 388.091 57.15ZM390.135 51.802V52.754L393.117 51.158V50.052L390.135 51.802ZM399.728 57.136C399.728 59.516 401.31 61.126 403.354 61.126C404.768 61.126 405.762 60.398 406.224 59.572V61H407.512V53.328H406.224V54.728C405.776 53.93 404.796 53.202 403.368 53.202C401.31 53.202 399.728 54.742 399.728 57.136ZM406.224 57.15C406.224 58.956 405.02 60.006 403.62 60.006C402.22 60.006 401.03 58.942 401.03 57.136C401.03 55.33 402.22 54.308 403.62 54.308C405.02 54.308 406.224 55.372 406.224 57.15ZM410.639 54.742V53.328H409.365V64.64H410.639V59.586C411.115 60.37 412.109 61.126 413.509 61.126C415.567 61.126 417.149 59.516 417.149 57.136C417.149 54.742 415.567 53.202 413.509 53.202C412.109 53.202 411.101 53.93 410.639 54.742ZM415.847 57.136C415.847 58.942 414.657 60.006 413.243 60.006C411.857 60.006 410.639 58.956 410.639 57.15C410.639 55.372 411.857 54.308 413.243 54.308C414.657 54.308 415.847 55.33 415.847 57.136ZM418.526 61H419.8V50.64H418.526V61ZM421.671 61H422.945V53.328H421.671V61ZM422.329 52.082C422.791 52.082 423.169 51.704 423.169 51.214C423.169 50.724 422.791 50.346 422.329 50.346C421.839 50.346 421.461 50.724 421.461 51.214C421.461 51.704 421.839 52.082 422.329 52.082ZM424.816 61H426.09V57.612L429.1 61H430.836L427.21 57.15L430.822 53.328H429.044L426.09 56.73V50.64H424.816V61ZM431.245 57.136C431.245 59.516 432.827 61.126 434.871 61.126C436.285 61.126 437.279 60.398 437.741 59.572V61H439.029V53.328H437.741V54.728C437.293 53.93 436.313 53.202 434.885 53.202C432.827 53.202 431.245 54.742 431.245 57.136ZM437.741 57.15C437.741 58.956 436.537 60.006 435.137 60.006C433.737 60.006 432.547 58.942 432.547 57.136C432.547 55.33 433.737 54.308 435.137 54.308C436.537 54.308 437.741 55.372 437.741 57.15ZM440.406 57.15C440.406 59.586 441.96 61.126 444.144 61.126C446.048 61.126 447.294 60.062 447.686 58.536H446.314C446.034 59.502 445.278 60.048 444.144 60.048C442.744 60.048 441.708 59.054 441.708 57.15C441.708 55.274 442.744 54.28 444.144 54.28C445.278 54.28 446.048 54.868 446.314 55.792H447.686C447.294 54.182 446.048 53.202 444.144 53.202C441.96 53.202 440.406 54.742 440.406 57.15ZM449.772 52.082C450.248 52.082 450.626 51.704 450.626 51.214C450.626 50.724 450.248 50.346 449.772 50.346C449.296 50.346 448.918 50.724 448.918 51.214C448.918 51.704 449.296 52.082 449.772 52.082ZM449.128 53.328V62.638C449.128 63.31 448.862 63.562 448.162 63.562H447.63V64.64H448.372C449.674 64.64 450.402 64.052 450.402 62.666V53.328H449.128ZM455.521 54.28C456.837 54.28 457.957 55.106 457.943 56.604H453.099C453.239 55.106 454.275 54.28 455.521 54.28ZM457.187 63.492V62.652C456.865 62.764 456.543 62.834 456.277 62.834C455.773 62.834 455.451 62.596 455.451 62.162C455.451 61.812 455.661 61.49 456.291 61.182L456.683 60.986C457.957 60.65 458.797 59.74 459.105 58.634H457.733C457.453 59.46 456.725 60.048 455.577 60.048C454.275 60.048 453.183 59.194 453.085 57.64H459.217C459.245 57.374 459.259 57.15 459.259 56.87C459.259 54.77 457.803 53.202 455.577 53.202C453.337 53.202 451.783 54.728 451.783 57.15C451.783 59.362 453.113 60.846 455.003 61.084C454.569 61.462 454.401 61.868 454.401 62.288C454.401 63.31 455.269 63.688 456.109 63.688C456.487 63.688 456.865 63.604 457.187 63.492ZM3.05178 82.014L4.46578 82L6.81778 74.146L9.08578 82H10.5138L13.3418 72.242H11.9698L9.82778 80.488L7.58778 72.242H6.15978L3.80778 80.516L1.67978 72.242H0.321777L3.05178 82.014ZM13.96 78.136C13.96 80.516 15.542 82.126 17.586 82.126C19 82.126 19.994 81.398 20.456 80.572V82H21.744V74.328H20.456V75.728C20.008 74.93 19.028 74.202 17.6 74.202C15.542 74.202 13.96 75.742 13.96 78.136ZM20.456 78.15C20.456 79.956 19.252 81.006 17.852 81.006C16.452 81.006 15.262 79.942 15.262 78.136C15.262 76.33 16.452 75.308 17.852 75.308C19.252 75.308 20.456 76.372 20.456 78.15ZM23.5969 82H24.8709V71.64H23.5969V82ZM26.7423 82H28.0163V78.612L31.0263 82H32.7623L29.1363 78.15L32.7483 74.328H30.9703L28.0163 77.73V71.64H26.7423V82ZM33.6473 82H34.9213V74.328H33.6473V82ZM34.3053 73.082C34.7673 73.082 35.1453 72.704 35.1453 72.214C35.1453 71.724 34.7673 71.346 34.3053 71.346C33.8153 71.346 33.4373 71.724 33.4373 72.214C33.4373 72.704 33.8153 73.082 34.3053 73.082ZM40.0546 75.28C41.3706 75.28 42.4906 76.106 42.4766 77.604H37.6326C37.7726 76.106 38.8086 75.28 40.0546 75.28ZM43.6386 79.634H42.2666C41.9866 80.46 41.2586 81.048 40.1106 81.048C38.8086 81.048 37.7166 80.194 37.6186 78.64H43.7506C43.7786 78.374 43.7926 78.15 43.7926 77.87C43.7926 75.77 42.3366 74.202 40.1106 74.202C37.8706 74.202 36.3166 75.728 36.3166 78.15C36.3166 80.586 37.9266 82.126 40.1106 82.126C42.0146 82.126 43.2466 81.034 43.6386 79.634ZM48.2123 72.242H45.1743V82H48.2123C51.4183 82 53.3923 80.166 53.3923 77.142C53.3923 74.118 51.4183 72.242 48.2123 72.242ZM46.4483 80.95V73.278H48.2123C50.7603 73.278 52.0903 74.762 52.0903 77.142C52.0903 79.522 50.7603 80.95 48.2123 80.95H46.4483ZM62.0527 78.15C62.0527 75.728 60.3587 74.202 58.1747 74.202C56.0047 74.202 54.2967 75.728 54.2967 78.15C54.2967 80.586 55.9487 82.126 58.1187 82.126C60.3027 82.126 62.0527 80.586 62.0527 78.15ZM55.5987 78.15C55.5987 76.218 56.8167 75.308 58.1607 75.308C59.4767 75.308 60.7507 76.218 60.7507 78.15C60.7507 80.096 59.4487 81.006 58.1187 81.006C56.7887 81.006 55.5987 80.096 55.5987 78.15ZM62.9518 78.136C62.9518 80.516 64.5338 82.126 66.5918 82.126C67.9918 82.126 68.9858 81.384 69.4478 80.558V82.168C69.4478 83.806 68.4258 84.674 67.0678 84.674C65.8078 84.674 64.8978 84.044 64.6178 83.12H63.3578C63.6098 84.758 65.0518 85.78 67.0678 85.78C69.3218 85.78 70.7358 84.282 70.7358 82.168V74.328H69.4478V75.728C68.9998 74.902 67.9918 74.202 66.5918 74.202C64.5338 74.202 62.9518 75.742 62.9518 78.136ZM69.4478 78.15C69.4478 79.956 68.2438 81.006 66.8438 81.006C65.4438 81.006 64.2538 79.942 64.2538 78.136C64.2538 76.33 65.4438 75.308 66.8438 75.308C68.2438 75.308 69.4478 76.372 69.4478 78.15ZM72.1127 78.136C72.1127 80.516 73.6947 82.126 75.7527 82.126C77.1527 82.126 78.1467 81.384 78.6087 80.558V82.168C78.6087 83.806 77.5867 84.674 76.2287 84.674C74.9687 84.674 74.0587 84.044 73.7787 83.12H72.5187C72.7707 84.758 74.2127 85.78 76.2287 85.78C78.4827 85.78 79.8967 84.282 79.8967 82.168V74.328H78.6087V75.728C78.1607 74.902 77.1527 74.202 75.7527 74.202C73.6947 74.202 72.1127 75.742 72.1127 78.136ZM78.6087 78.15C78.6087 79.956 77.4047 81.006 76.0047 81.006C74.6047 81.006 73.4147 79.942 73.4147 78.136C73.4147 76.33 74.6047 75.308 76.0047 75.308C77.4047 75.308 78.6087 76.372 78.6087 78.15ZM81.7497 82H83.0237V74.328H81.7497V82ZM82.4077 73.082C82.8697 73.082 83.2477 72.704 83.2477 72.214C83.2477 71.724 82.8697 71.346 82.4077 71.346C81.9177 71.346 81.5397 71.724 81.5397 72.214C81.5397 72.704 81.9177 73.082 82.4077 73.082ZM88.157 75.28C89.473 75.28 90.593 76.106 90.579 77.604H85.735C85.875 76.106 86.911 75.28 88.157 75.28ZM91.741 79.634H90.369C90.089 80.46 89.361 81.048 88.213 81.048C86.911 81.048 85.819 80.194 85.721 78.64H91.853C91.881 78.374 91.895 78.15 91.895 77.87C91.895 75.77 90.439 74.202 88.213 74.202C85.973 74.202 84.419 75.728 84.419 78.15C84.419 80.586 86.029 82.126 88.213 82.126C90.117 82.126 91.349 81.034 91.741 79.634ZM96.709 82H97.983V74.328H96.709V82ZM97.367 73.082C97.829 73.082 98.207 72.704 98.207 72.214C98.207 71.724 97.829 71.346 97.367 71.346C96.877 71.346 96.499 71.724 96.499 72.214C96.499 72.704 96.877 73.082 97.367 73.082ZM104.561 75.742V74.328H103.287V85.64H104.561V80.586C105.037 81.37 106.031 82.126 107.431 82.126C109.489 82.126 111.071 80.516 111.071 78.136C111.071 75.742 109.489 74.202 107.431 74.202C106.031 74.202 105.023 74.93 104.561 75.742ZM109.769 78.136C109.769 79.942 108.579 81.006 107.165 81.006C105.779 81.006 104.561 79.956 104.561 78.15C104.561 76.372 105.779 75.308 107.165 75.308C108.579 75.308 109.769 76.33 109.769 78.136ZM119.728 78.15C119.728 75.728 118.034 74.202 115.85 74.202C113.68 74.202 111.972 75.728 111.972 78.15C111.972 80.586 113.624 82.126 115.794 82.126C117.978 82.126 119.728 80.586 119.728 78.15ZM113.274 78.15C113.274 76.218 114.492 75.308 115.836 75.308C117.152 75.308 118.426 76.218 118.426 78.15C118.426 80.096 117.124 81.006 115.794 81.006C114.464 81.006 113.274 80.096 113.274 78.15ZM120.627 78.136C120.627 80.516 122.209 82.126 124.267 82.126C125.667 82.126 126.661 81.412 127.123 80.558V82H128.411V71.64H127.123V75.7C126.591 74.818 125.485 74.202 124.281 74.202C122.209 74.202 120.627 75.742 120.627 78.136ZM127.123 78.15C127.123 79.956 125.919 81.006 124.519 81.006C123.119 81.006 121.929 79.942 121.929 78.136C121.929 76.33 123.119 75.308 124.519 75.308C125.919 75.308 127.123 76.372 127.123 78.15ZM134.954 74.328H129.788V75.364H133.484L129.76 80.95V82H134.982V80.95H131.216L134.954 75.364V74.328ZM136.335 82H137.609V74.328H136.335V82ZM136.993 73.082C137.455 73.082 137.833 72.704 137.833 72.214C137.833 71.724 137.455 71.346 136.993 71.346C136.503 71.346 136.125 71.724 136.125 72.214C136.125 72.704 136.503 73.082 136.993 73.082ZM142.742 75.28C144.058 75.28 145.178 76.106 145.164 77.604H140.32C140.46 76.106 141.496 75.28 142.742 75.28ZM146.326 79.634H144.954C144.674 80.46 143.946 81.048 142.798 81.048C141.496 81.048 140.404 80.194 140.306 78.64H146.438C146.466 78.374 146.48 78.15 146.48 77.87C146.48 75.77 145.024 74.202 142.798 74.202C140.558 74.202 139.004 75.728 139.004 78.15C139.004 80.586 140.614 82.126 142.798 82.126C144.702 82.126 145.934 81.034 146.326 79.634ZM147.862 82H149.136V71.64H147.862V82ZM151.007 82H152.281V74.328H151.007V82ZM151.665 73.082C152.127 73.082 152.505 72.704 152.505 72.214C152.505 71.724 152.127 71.346 151.665 71.346C151.175 71.346 150.797 71.724 150.797 72.214C150.797 72.704 151.175 73.082 151.665 73.082ZM153.677 78.15C153.677 80.586 155.231 82.126 157.415 82.126C159.319 82.126 160.565 81.062 160.957 79.536H159.585C159.305 80.502 158.549 81.048 157.415 81.048C156.015 81.048 154.979 80.054 154.979 78.15C154.979 76.274 156.015 75.28 157.415 75.28C158.549 75.28 159.319 75.868 159.585 76.792H160.957C160.565 75.182 159.319 74.202 157.415 74.202C155.231 74.202 153.677 75.742 153.677 78.15ZM155.721 72.802V73.754L158.703 72.158V71.052L155.721 72.802ZM171.305 79.914C171.249 77.17 166.797 78.164 166.797 76.344C166.797 75.728 167.357 75.28 168.295 75.28C169.317 75.28 169.905 75.84 169.961 76.61H171.235C171.151 75.112 170.031 74.202 168.337 74.202C166.629 74.202 165.523 75.168 165.523 76.344C165.523 79.2 170.059 78.206 170.059 79.914C170.059 80.544 169.499 81.048 168.491 81.048C167.413 81.048 166.755 80.488 166.685 79.746H165.369C165.453 81.146 166.713 82.126 168.505 82.126C170.199 82.126 171.305 81.174 171.305 79.914ZM172.803 82H174.077V74.328H172.803V82ZM173.461 73.082C173.923 73.082 174.301 72.704 174.301 72.214C174.301 71.724 173.923 71.346 173.461 71.346C172.971 71.346 172.593 71.724 172.593 72.214C172.593 72.704 172.971 73.082 173.461 73.082ZM179.211 75.28C180.527 75.28 181.647 76.106 181.633 77.604H176.789C176.929 76.106 177.965 75.28 179.211 75.28ZM180.877 84.492V83.652C180.555 83.764 180.233 83.834 179.967 83.834C179.463 83.834 179.141 83.596 179.141 83.162C179.141 82.812 179.351 82.49 179.981 82.182L180.373 81.986C181.647 81.65 182.487 80.74 182.795 79.634H181.423C181.143 80.46 180.415 81.048 179.267 81.048C177.965 81.048 176.873 80.194 176.775 78.64H182.907C182.935 78.374 182.949 78.15 182.949 77.87C182.949 75.77 181.493 74.202 179.267 74.202C177.027 74.202 175.473 75.728 175.473 78.15C175.473 80.362 176.803 81.846 178.693 82.084C178.259 82.462 178.091 82.868 178.091 83.288C178.091 84.31 178.959 84.688 179.799 84.688C180.177 84.688 180.555 84.604 180.877 84.492ZM192.453 74.328H187.287V75.364H190.983L187.259 80.95V82H192.481V80.95H188.715L192.453 75.364V74.328ZM202.88 82H204.14V77.478C204.14 75.28 202.782 74.188 201.004 74.188C199.968 74.188 199.044 74.622 198.54 75.42V74.328H197.266V82H198.54V77.758C198.54 76.106 199.436 75.294 200.738 75.294C202.026 75.294 202.88 76.092 202.88 77.66V82ZM205.445 78.136C205.445 80.516 207.027 82.126 209.071 82.126C210.485 82.126 211.479 81.398 211.941 80.572V82H213.229V74.328H211.941V75.728C211.493 74.93 210.513 74.202 209.085 74.202C207.027 74.202 205.445 75.742 205.445 78.136ZM211.941 78.15C211.941 79.956 210.737 81.006 209.337 81.006C207.937 81.006 206.747 79.942 206.747 78.136C206.747 76.33 207.937 75.308 209.337 75.308C210.737 75.308 211.941 76.372 211.941 78.15ZM226.156 82H227.416V77.478C227.416 75.28 226.058 74.188 224.308 74.188C223.132 74.188 222.04 74.79 221.592 75.896C221.088 74.748 220.038 74.188 218.778 74.188C217.77 74.188 216.86 74.622 216.356 75.434V74.328H215.082V82H216.356V77.772C216.356 76.12 217.238 75.294 218.526 75.294C219.786 75.294 220.626 76.092 220.626 77.66V82H221.886V77.772C221.886 76.12 222.768 75.294 224.056 75.294C225.316 75.294 226.156 76.092 226.156 77.66V82ZM229.206 82H230.48V74.328H229.206V82ZM229.864 73.082C230.326 73.082 230.704 72.704 230.704 72.214C230.704 71.724 230.326 71.346 229.864 71.346C229.374 71.346 228.996 71.724 228.996 72.214C228.996 72.704 229.374 73.082 229.864 73.082ZM241.3 79.914C241.244 77.17 236.792 78.164 236.792 76.344C236.792 75.728 237.352 75.28 238.29 75.28C239.312 75.28 239.9 75.84 239.956 76.61H241.23C241.146 75.112 240.026 74.202 238.332 74.202C236.624 74.202 235.518 75.168 235.518 76.344C235.518 79.2 240.054 78.206 240.054 79.914C240.054 80.544 239.494 81.048 238.486 81.048C237.408 81.048 236.75 80.488 236.68 79.746H235.364C235.448 81.146 236.708 82.126 238.5 82.126C240.194 82.126 241.3 81.174 241.3 79.914ZM244.296 82H245.612L247.46 75.91L249.308 82H250.624L253.018 74.328H251.758L250.022 80.782L248.16 74.328H246.858L244.954 80.768L243.19 74.328H241.888L244.296 82ZM261.263 78.15C261.263 75.728 259.569 74.202 257.385 74.202C255.215 74.202 253.507 75.728 253.507 78.15C253.507 80.586 255.159 82.126 257.329 82.126C259.513 82.126 261.263 80.586 261.263 78.15ZM254.809 78.15C254.809 76.218 256.027 75.308 257.371 75.308C258.687 75.308 259.961 76.218 259.961 78.15C259.961 80.096 258.659 81.006 257.329 81.006C255.999 81.006 254.809 80.096 254.809 78.15ZM263.324 73.082C263.8 73.082 264.178 72.704 264.178 72.214C264.178 71.724 263.8 71.346 263.324 71.346C262.848 71.346 262.47 71.724 262.47 72.214C262.47 72.704 262.848 73.082 263.324 73.082ZM262.68 74.328V83.638C262.68 84.31 262.414 84.562 261.714 84.562H261.182V85.64H261.924C263.226 85.64 263.954 85.052 263.954 83.666V74.328H262.68ZM265.334 78.136C265.334 80.516 266.916 82.126 268.96 82.126C270.374 82.126 271.368 81.398 271.83 80.572V81.762C270.822 82.294 270.458 82.868 270.458 83.484C270.458 84.506 271.326 84.884 272.166 84.884C272.544 84.884 272.922 84.8 273.244 84.688V83.848C272.922 83.96 272.6 84.03 272.334 84.03C271.83 84.03 271.508 83.792 271.508 83.358C271.508 83.008 271.718 82.686 272.348 82.378L273.118 82V74.328H271.83V75.728C271.382 74.93 270.402 74.202 268.974 74.202C266.916 74.202 265.334 75.742 265.334 78.136ZM271.83 78.15C271.83 79.956 270.626 81.006 269.226 81.006C267.826 81.006 266.636 79.942 266.636 78.136C266.636 76.33 267.826 75.308 269.226 75.308C270.626 75.308 271.83 76.372 271.83 78.15ZM285.684 78.15C285.684 75.728 283.99 74.202 281.806 74.202C279.636 74.202 277.928 75.728 277.928 78.15C277.928 80.586 279.58 82.126 281.75 82.126C283.934 82.126 285.684 80.586 285.684 78.15ZM279.23 78.15C279.23 76.218 280.448 75.308 281.792 75.308C283.108 75.308 284.382 76.218 284.382 78.15C284.382 80.096 283.08 81.006 281.75 81.006C280.42 81.006 279.23 80.096 279.23 78.15ZM288.333 75.742V74.328H287.059V85.64H288.333V80.586C288.809 81.37 289.803 82.126 291.203 82.126C293.261 82.126 294.843 80.516 294.843 78.136C294.843 75.742 293.261 74.202 291.203 74.202C289.803 74.202 288.795 74.93 288.333 75.742ZM293.541 78.136C293.541 79.942 292.351 81.006 290.937 81.006C289.551 81.006 288.333 79.956 288.333 78.15C288.333 76.372 289.551 75.308 290.937 75.308C292.351 75.308 293.541 76.33 293.541 78.136ZM296.22 82H297.494V74.328H296.22V82ZM296.878 73.082C297.34 73.082 297.718 72.704 297.718 72.214C297.718 71.724 297.34 71.346 296.878 71.346C296.388 71.346 296.01 71.724 296.01 72.214C296.01 72.704 296.388 73.082 296.878 73.082ZM304.979 82H306.239V77.478C306.239 75.28 304.881 74.188 303.103 74.188C302.067 74.188 301.143 74.622 300.639 75.42V74.328H299.365V82H300.639V77.758C300.639 76.106 301.535 75.294 302.837 75.294C304.125 75.294 304.979 76.092 304.979 77.66V82ZM308.02 82H309.294V74.328H308.02V82ZM308.678 73.082C309.14 73.082 309.518 72.704 309.518 72.214C309.518 71.724 309.14 71.346 308.678 71.346C308.188 71.346 307.81 71.724 307.81 72.214C307.81 72.704 308.188 73.082 308.678 73.082ZM310.689 78.136C310.689 80.516 312.271 82.126 314.315 82.126C315.729 82.126 316.723 81.398 317.185 80.572V81.762C316.177 82.294 315.813 82.868 315.813 83.484C315.813 84.506 316.681 84.884 317.521 84.884C317.899 84.884 318.277 84.8 318.599 84.688V83.848C318.277 83.96 317.955 84.03 317.689 84.03C317.185 84.03 316.863 83.792 316.863 83.358C316.863 83.008 317.073 82.686 317.703 82.378L318.473 82V74.328H317.185V75.728C316.737 74.93 315.757 74.202 314.329 74.202C312.271 74.202 310.689 75.742 310.689 78.136ZM317.185 78.15C317.185 79.956 315.981 81.006 314.581 81.006C313.181 81.006 311.991 79.942 311.991 78.136C311.991 76.33 313.181 75.308 314.581 75.308C315.981 75.308 317.185 76.372 317.185 78.15ZM321.572 81.216C321.572 80.726 321.194 80.348 320.732 80.348C320.242 80.348 319.864 80.726 319.864 81.216C319.864 81.706 320.242 82.084 320.732 82.084C321.194 82.084 321.572 81.706 321.572 81.216ZM328.372 82.014L329.786 82L332.138 74.146L334.406 82H335.834L338.662 72.242H337.29L335.148 80.488L332.908 72.242H331.48L329.128 80.516L327 72.242H325.642L328.372 82.014ZM341.031 75.742V74.328H339.757V85.64H341.031V80.586C341.507 81.37 342.501 82.126 343.901 82.126C345.959 82.126 347.541 80.516 347.541 78.136C347.541 75.742 345.959 74.202 343.901 74.202C342.501 74.202 341.493 74.93 341.031 75.742ZM346.239 78.136C346.239 79.942 345.049 81.006 343.635 81.006C342.249 81.006 341.031 79.956 341.031 78.15C341.031 76.372 342.249 75.308 343.635 75.308C345.049 75.308 346.239 76.33 346.239 78.136ZM348.959 82H350.233V76.792L351.227 76.4V75.406L350.233 75.784V71.64H348.959V76.288L347.965 76.666V77.674L348.959 77.282V82ZM355.043 80.544L352.635 74.328H351.221L354.315 81.916L352.803 85.612H354.119L358.739 74.328H357.423L355.043 80.544ZM361.526 72.802V73.754L364.508 72.158V71.052L361.526 72.802ZM365.334 82H366.594V77.478C366.594 75.28 365.236 74.188 363.458 74.188C362.422 74.188 361.498 74.622 360.994 75.42V74.328H359.72V82H360.994V77.758C360.994 76.106 361.89 75.294 363.192 75.294C364.48 75.294 365.334 76.092 365.334 77.66V82ZM377.421 82H378.681V77.478C378.681 75.28 377.323 74.188 375.545 74.188C374.509 74.188 373.585 74.622 373.081 75.42V74.328H371.807V82H373.081V77.758C373.081 76.106 373.977 75.294 375.279 75.294C376.567 75.294 377.421 76.092 377.421 77.66V82ZM379.986 78.136C379.986 80.516 381.568 82.126 383.612 82.126C385.026 82.126 386.02 81.398 386.482 80.572V82H387.77V74.328H386.482V75.728C386.034 74.93 385.054 74.202 383.626 74.202C381.568 74.202 379.986 75.742 379.986 78.136ZM386.482 78.15C386.482 79.956 385.278 81.006 383.878 81.006C382.478 81.006 381.288 79.942 381.288 78.136C381.288 76.33 382.478 75.308 383.878 75.308C385.278 75.308 386.482 76.372 386.482 78.15ZM393.336 79.9C393.336 81.44 394.106 82 395.464 82H396.612V80.922H395.674C394.89 80.922 394.61 80.656 394.61 79.9V75.378H396.612V74.328H394.61V72.396H393.336V74.328H392.342V75.378H393.336V79.9ZM405.135 78.15C405.135 75.728 403.441 74.202 401.257 74.202C399.087 74.202 397.379 75.728 397.379 78.15C397.379 80.586 399.031 82.126 401.201 82.126C403.385 82.126 405.135 80.586 405.135 78.15ZM398.681 78.15C398.681 76.218 399.899 75.308 401.243 75.308C402.559 75.308 403.833 76.218 403.833 78.15C403.833 80.096 402.531 81.006 401.201 81.006C399.871 81.006 398.681 80.096 398.681 78.15ZM405.404 84.002H406.258L407.826 80.236H406.426L405.404 84.002ZM417.108 74.328H411.942V75.364H415.638L411.914 80.95V82H417.136V80.95H413.37L417.108 75.364V74.328ZM414.546 73.362C414.952 73.362 415.274 73.04 415.274 72.634C415.274 72.228 414.952 71.892 414.546 71.892C414.126 71.892 413.804 72.228 413.804 72.634C413.804 73.04 414.126 73.362 414.546 73.362ZM421.751 75.28C423.067 75.28 424.187 76.106 424.173 77.604H419.329C419.469 76.106 420.505 75.28 421.751 75.28ZM425.335 79.634H423.963C423.683 80.46 422.955 81.048 421.807 81.048C420.505 81.048 419.413 80.194 419.315 78.64H425.447C425.475 78.374 425.489 78.15 425.489 77.87C425.489 75.77 424.033 74.202 421.807 74.202C419.567 74.202 418.013 75.728 418.013 78.15C418.013 80.586 419.623 82.126 421.807 82.126C423.711 82.126 424.943 81.034 425.335 79.634ZM428.145 75.756V71.64H426.871V82H428.145V80.586C428.621 81.426 429.615 82.126 431.015 82.126C433.073 82.126 434.655 80.516 434.655 78.136C434.655 75.742 433.087 74.202 431.015 74.202C429.657 74.202 428.635 74.902 428.145 75.756ZM433.353 78.136C433.353 79.942 432.163 81.006 430.749 81.006C429.363 81.006 428.145 79.956 428.145 78.15C428.145 76.372 429.363 75.308 430.749 75.308C432.163 75.308 433.353 76.33 433.353 78.136ZM438.944 80.544L436.536 74.328H435.122L438.216 81.916L436.704 85.612H438.02L442.64 74.328H441.324L438.944 80.544ZM6.69178 103H7.95178V98.478C7.95178 96.28 6.59378 95.188 4.81578 95.188C3.77978 95.188 2.85578 95.622 2.35178 96.42V95.328H1.07778V103H2.35178V98.758C2.35178 97.106 3.24778 96.294 4.54978 96.294C5.83778 96.294 6.69178 97.092 6.69178 98.66V103ZM9.25686 99.136C9.25686 101.516 10.8389 103.126 12.8829 103.126C14.2969 103.126 15.2909 102.398 15.7529 101.572V103H17.0409V95.328H15.7529V96.728C15.3049 95.93 14.3249 95.202 12.8969 95.202C10.8389 95.202 9.25686 96.742 9.25686 99.136ZM15.7529 99.15C15.7529 100.956 14.5489 102.006 13.1489 102.006C11.7489 102.006 10.5589 100.942 10.5589 99.136C10.5589 97.33 11.7489 96.308 13.1489 96.308C14.5489 96.308 15.7529 97.372 15.7529 99.15ZM24.4098 100.914C24.3538 98.17 19.9018 99.164 19.9018 97.344C19.9018 96.728 20.4618 96.28 21.3998 96.28C22.4218 96.28 23.0098 96.84 23.0658 97.61H24.3398C24.2558 96.112 23.1358 95.202 21.4418 95.202C19.7338 95.202 18.6278 96.168 18.6278 97.344C18.6278 100.2 23.1638 99.206 23.1638 100.914C23.1638 101.544 22.6038 102.048 21.5958 102.048C20.5178 102.048 19.8598 101.488 19.7898 100.746H18.4738C18.5578 102.146 19.8178 103.126 21.6098 103.126C23.3038 103.126 24.4098 102.174 24.4098 100.914ZM30.5983 95.328H25.4323V96.364H29.1283L25.4043 101.95V103H30.6263V101.95H26.8603L30.5983 96.364V95.328ZM31.5034 99.136C31.5034 101.516 33.0854 103.126 35.1294 103.126C36.5434 103.126 37.5374 102.398 37.9994 101.572V103H39.2874V95.328H37.9994V96.728C37.5514 95.93 36.5714 95.202 35.1434 95.202C33.0854 95.202 31.5034 96.742 31.5034 99.136ZM37.9994 99.15C37.9994 100.956 36.7954 102.006 35.3954 102.006C33.9954 102.006 32.8054 100.942 32.8054 99.136C32.8054 97.33 33.9954 96.308 35.3954 96.308C36.7954 96.308 37.9994 97.372 37.9994 99.15ZM45.8467 96.742V95.328H44.5727V106.64H45.8467V101.586C46.3227 102.37 47.3167 103.126 48.7167 103.126C50.7747 103.126 52.3567 101.516 52.3567 99.136C52.3567 96.742 50.7747 95.202 48.7167 95.202C47.3167 95.202 46.3087 95.93 45.8467 96.742ZM51.0547 99.136C51.0547 100.942 49.8647 102.006 48.4507 102.006C47.0647 102.006 45.8467 100.956 45.8467 99.15C45.8467 97.372 47.0647 96.308 48.4507 96.308C49.8647 96.308 51.0547 97.33 51.0547 99.136ZM53.7337 103H55.0077V92.64H53.7337V103ZM56.403 99.136C56.403 101.516 57.985 103.126 60.029 103.126C61.443 103.126 62.437 102.398 62.899 101.572V103H64.187V95.328H62.899V96.728C62.451 95.93 61.471 95.202 60.043 95.202C57.985 95.202 56.403 96.742 56.403 99.136ZM62.899 99.15C62.899 100.956 61.695 102.006 60.295 102.006C58.895 102.006 57.705 100.942 57.705 99.136C57.705 97.33 58.895 96.308 60.295 96.308C61.695 96.308 62.899 97.372 62.899 99.15ZM66.3199 100.9C66.3199 102.44 67.0899 103 68.4479 103H69.5959V101.922H68.6579C67.8739 101.922 67.5939 101.656 67.5939 100.9V96.378H69.5959V95.328H67.5939V93.396H66.3199V95.328H65.3259V96.378H66.3199V100.9ZM71.0775 103H72.3515V96.378H73.9615V95.328H72.3515V94.782C72.3515 93.788 72.7295 93.368 73.8775 93.368V92.304C71.9175 92.304 71.0775 93.074 71.0775 94.782V95.328H70.0835V96.378H71.0775V103ZM82.4269 99.15C82.4269 96.728 80.7329 95.202 78.5489 95.202C76.3789 95.202 74.6709 96.728 74.6709 99.15C74.6709 101.586 76.3229 103.126 78.4929 103.126C80.6769 103.126 82.4269 101.586 82.4269 99.15ZM75.9729 99.15C75.9729 97.218 77.1909 96.308 78.5349 96.308C79.8509 96.308 81.1249 97.218 81.1249 99.15C81.1249 101.096 79.8229 102.006 78.4929 102.006C77.1629 102.006 75.9729 101.096 75.9729 99.15ZM85.076 98.828C85.076 97.05 86 96.504 87.218 96.504H87.554V95.188C86.336 95.188 85.51 95.72 85.076 96.574V95.328H83.802V103H85.076V98.828ZM99.7987 103H101.059V98.478C101.059 96.28 99.7007 95.188 97.9507 95.188C96.7747 95.188 95.6827 95.79 95.2347 96.896C94.7307 95.748 93.6807 95.188 92.4207 95.188C91.4127 95.188 90.5027 95.622 89.9987 96.434V95.328H88.7247V103H89.9987V98.772C89.9987 97.12 90.8807 96.294 92.1687 96.294C93.4287 96.294 94.2687 97.092 94.2687 98.66V103H95.5287V98.772C95.5287 97.12 96.4107 96.294 97.6987 96.294C98.9587 96.294 99.7987 97.092 99.7987 98.66V103ZM102.373 99.136C102.373 101.516 103.955 103.126 105.999 103.126C107.413 103.126 108.407 102.398 108.869 101.572V103H110.157V95.328H108.869V96.728C108.421 95.93 107.441 95.202 106.013 95.202C103.955 95.202 102.373 96.742 102.373 99.136ZM108.869 99.15C108.869 100.956 107.665 102.006 106.265 102.006C104.865 102.006 103.675 100.942 103.675 99.136C103.675 97.33 104.865 96.308 106.265 96.308C107.665 96.308 108.869 97.372 108.869 99.15ZM116.716 96.756V92.64H115.442V103H116.716V101.586C117.192 102.426 118.186 103.126 119.586 103.126C121.644 103.126 123.226 101.516 123.226 99.136C123.226 96.742 121.658 95.202 119.586 95.202C118.228 95.202 117.206 95.902 116.716 96.756ZM121.924 99.136C121.924 100.942 120.734 102.006 119.32 102.006C117.934 102.006 116.716 100.956 116.716 99.15C116.716 97.372 117.934 96.308 119.32 96.308C120.734 96.308 121.924 97.33 121.924 99.136ZM127.515 101.544L125.107 95.328H123.693L126.787 102.916L125.275 106.612H126.591L131.211 95.328H129.895L127.515 101.544ZM132.234 103H133.508V97.792L134.502 97.4V96.406L133.508 96.784V92.64H132.234V97.288L131.24 97.666V98.674L132.234 98.282V103ZM134.929 99.136C134.929 101.516 136.511 103.126 138.555 103.126C139.969 103.126 140.963 102.398 141.425 101.572V103H142.713V95.328H141.425V96.728C140.977 95.93 139.997 95.202 138.569 95.202C136.511 95.202 134.929 96.742 134.929 99.136ZM141.425 99.15C141.425 100.956 140.221 102.006 138.821 102.006C137.421 102.006 136.231 100.942 136.231 99.136C136.231 97.33 137.421 96.308 138.821 96.308C140.221 96.308 141.425 97.372 141.425 99.15ZM147.999 103H149.273V95.328H147.999V103ZM148.657 94.082C149.119 94.082 149.497 93.704 149.497 93.214C149.497 92.724 149.119 92.346 148.657 92.346C148.167 92.346 147.789 92.724 147.789 93.214C147.789 93.704 148.167 94.082 148.657 94.082ZM156.758 103H158.018V98.478C158.018 96.28 156.66 95.188 154.882 95.188C153.846 95.188 152.922 95.622 152.418 96.42V95.328H151.144V103H152.418V98.758C152.418 97.106 153.314 96.294 154.616 96.294C155.904 96.294 156.758 97.092 156.758 98.66V103ZM160.079 100.9C160.079 102.44 160.849 103 162.207 103H163.355V101.922H162.417C161.633 101.922 161.353 101.656 161.353 100.9V96.378H163.355V95.328H161.353V93.396H160.079V95.328H159.085V96.378H160.079V100.9ZM171.403 95.328H170.129V99.542C170.129 101.194 169.247 102.006 167.931 102.006C166.643 102.006 165.789 101.208 165.789 99.654V95.328H164.529V99.822C164.529 102.02 165.915 103.112 167.679 103.112C168.701 103.112 169.639 102.664 170.129 101.866V103H171.403V95.328ZM173.254 103H174.528V95.328H173.254V103ZM173.912 94.082C174.374 94.082 174.752 93.704 174.752 93.214C174.752 92.724 174.374 92.346 173.912 92.346C173.422 92.346 173.044 92.724 173.044 93.214C173.044 93.704 173.422 94.082 173.912 94.082ZM175.923 99.15C175.923 101.586 177.477 103.126 179.661 103.126C181.565 103.126 182.811 102.062 183.203 100.536H181.831C181.551 101.502 180.795 102.048 179.661 102.048C178.261 102.048 177.225 101.054 177.225 99.15C177.225 97.274 178.261 96.28 179.661 96.28C180.795 96.28 181.565 96.868 181.831 97.792H183.203C182.811 96.182 181.565 95.202 179.661 95.202C177.477 95.202 175.923 96.742 175.923 99.15ZM187.515 101.544L185.107 95.328H183.693L186.787 102.916L185.275 106.612H186.591L191.211 95.328H189.895L187.515 101.544ZM192.878 94.082C193.354 94.082 193.732 93.704 193.732 93.214C193.732 92.724 193.354 92.346 192.878 92.346C192.402 92.346 192.024 92.724 192.024 93.214C192.024 93.704 192.402 94.082 192.878 94.082ZM192.234 95.328V104.638C192.234 105.31 191.968 105.562 191.268 105.562H190.736V106.64H191.478C192.78 106.64 193.508 106.052 193.508 104.666V95.328H192.234ZM200.978 103H202.238V98.478C202.238 96.28 200.88 95.188 199.102 95.188C198.066 95.188 197.142 95.622 196.638 96.42V95.328H195.364V103H196.638V98.758C196.638 97.106 197.534 96.294 198.836 96.294C200.124 96.294 200.978 97.092 200.978 98.66V103ZM203.543 99.136C203.543 101.516 205.125 103.126 207.169 103.126C208.583 103.126 209.577 102.398 210.039 101.572V103H211.327V95.328H210.039V96.728C209.591 95.93 208.611 95.202 207.183 95.202C205.125 95.202 203.543 96.742 203.543 99.136ZM210.039 99.15C210.039 100.956 208.835 102.006 207.435 102.006C206.035 102.006 204.845 100.942 204.845 99.136C204.845 97.33 206.035 96.308 207.435 96.308C208.835 96.308 210.039 97.372 210.039 99.15ZM218.111 103H219.427L221.275 96.91L223.123 103H224.439L226.833 95.328H225.573L223.837 101.782L221.975 95.328H220.673L218.769 101.768L217.005 95.328H215.703L218.111 103ZM238.51 99.15C238.51 96.728 236.816 95.202 234.632 95.202C232.462 95.202 230.754 96.728 230.754 99.15C230.754 101.586 232.406 103.126 234.576 103.126C236.76 103.126 238.51 101.586 238.51 99.15ZM232.056 99.15C232.056 97.218 233.274 96.308 234.618 96.308C235.934 96.308 237.208 97.218 237.208 99.15C237.208 101.096 235.906 102.006 234.576 102.006C233.246 102.006 232.056 101.096 232.056 99.15ZM241.159 96.756V92.64H239.885V103H241.159V101.586C241.635 102.426 242.629 103.126 244.029 103.126C246.087 103.126 247.669 101.516 247.669 99.136C247.669 96.742 246.101 95.202 244.029 95.202C242.671 95.202 241.649 95.902 241.159 96.756ZM246.367 99.136C246.367 100.942 245.177 102.006 243.763 102.006C242.377 102.006 241.159 100.956 241.159 99.15C241.159 97.372 242.377 96.308 243.763 96.308C245.177 96.308 246.367 97.33 246.367 99.136ZM254.562 100.914C254.506 98.17 250.054 99.164 250.054 97.344C250.054 96.728 250.614 96.28 251.552 96.28C252.574 96.28 253.162 96.84 253.218 97.61H254.492C254.408 96.112 253.288 95.202 251.594 95.202C249.886 95.202 248.78 96.168 248.78 97.344C248.78 100.2 253.316 99.206 253.316 100.914C253.316 101.544 252.756 102.048 251.748 102.048C250.67 102.048 250.012 101.488 249.942 100.746H248.626C248.71 102.146 249.97 103.126 251.762 103.126C253.456 103.126 254.562 102.174 254.562 100.914ZM256.102 103H257.376V97.792L258.37 97.4V96.406L257.376 96.784V92.64H256.102V97.288L255.108 97.666V98.674L256.102 98.282V103ZM266.078 95.328H264.804V99.542C264.804 101.194 263.922 102.006 262.606 102.006C261.318 102.006 260.464 101.208 260.464 99.654V95.328H259.204V99.822C259.204 102.02 260.59 103.112 262.354 103.112C263.376 103.112 264.314 102.664 264.804 101.866V103H266.078V95.328ZM267.453 99.136C267.453 101.516 269.035 103.126 271.093 103.126C272.493 103.126 273.487 102.412 273.949 101.558V103H275.237V92.64H273.949V96.7C273.417 95.818 272.311 95.202 271.107 95.202C269.035 95.202 267.453 96.742 267.453 99.136ZM273.949 99.15C273.949 100.956 272.745 102.006 271.345 102.006C269.945 102.006 268.755 100.942 268.755 99.136C268.755 97.33 269.945 96.308 271.345 96.308C272.745 96.308 273.949 97.372 273.949 99.15ZM281.78 95.328H276.614V96.364H280.31L276.586 101.95V103H281.808V101.95H278.042L281.78 96.364V95.328ZM286.423 96.28C287.739 96.28 288.859 97.106 288.845 98.604H284.001C284.141 97.106 285.177 96.28 286.423 96.28ZM290.007 100.634H288.635C288.355 101.46 287.627 102.048 286.479 102.048C285.177 102.048 284.085 101.194 283.987 99.64H290.119C290.147 99.374 290.161 99.15 290.161 98.87C290.161 96.77 288.705 95.202 286.479 95.202C284.239 95.202 282.685 96.728 282.685 99.15C282.685 101.586 284.295 103.126 286.479 103.126C288.383 103.126 289.615 102.034 290.007 100.634ZM294.975 103H296.249V95.328H294.975V103ZM295.633 94.082C296.095 94.082 296.473 93.704 296.473 93.214C296.473 92.724 296.095 92.346 295.633 92.346C295.143 92.346 294.765 92.724 294.765 93.214C294.765 93.704 295.143 94.082 295.633 94.082ZM306.243 95.328H301.077V96.364H304.773L301.049 101.95V103H306.271V101.95H302.505L306.243 96.364V95.328ZM307.148 99.136C307.148 101.516 308.73 103.126 310.774 103.126C312.188 103.126 313.182 102.398 313.644 101.572V103H314.932V95.328H313.644V96.728C313.196 95.93 312.216 95.202 310.788 95.202C308.73 95.202 307.148 96.742 307.148 99.136ZM313.644 99.15C313.644 100.956 312.44 102.006 311.04 102.006C309.64 102.006 308.45 100.942 308.45 99.136C308.45 97.33 309.64 96.308 311.04 96.308C312.44 96.308 313.644 97.372 313.644 99.15ZM322.301 100.914C322.245 98.17 317.793 99.164 317.793 97.344C317.793 96.728 318.353 96.28 319.291 96.28C320.313 96.28 320.901 96.84 320.957 97.61H322.231C322.147 96.112 321.027 95.202 319.333 95.202C317.625 95.202 316.519 96.168 316.519 97.344C316.519 100.2 321.055 99.206 321.055 100.914C321.055 101.544 320.495 102.048 319.487 102.048C318.409 102.048 317.751 101.488 317.681 100.746H316.365C316.449 102.146 317.709 103.126 319.501 103.126C321.195 103.126 322.301 102.174 322.301 100.914ZM325.073 96.742V95.328H323.799V106.64H325.073V101.586C325.549 102.37 326.543 103.126 327.943 103.126C330.001 103.126 331.583 101.516 331.583 99.136C331.583 96.742 330.001 95.202 327.943 95.202C326.543 95.202 325.535 95.93 325.073 96.742ZM330.281 99.136C330.281 100.942 329.091 102.006 327.677 102.006C326.291 102.006 325.073 100.956 325.073 99.15C325.073 97.372 326.291 96.308 327.677 96.308C329.091 96.308 330.281 97.33 330.281 99.136ZM340.24 99.15C340.24 96.728 338.546 95.202 336.362 95.202C334.192 95.202 332.484 96.728 332.484 99.15C332.484 101.586 334.136 103.126 336.306 103.126C338.49 103.126 340.24 101.586 340.24 99.15ZM333.786 99.15C333.786 97.218 335.004 96.308 336.348 96.308C337.664 96.308 338.938 97.218 338.938 99.15C338.938 101.096 337.636 102.006 336.306 102.006C334.976 102.006 333.786 101.096 333.786 99.15ZM341.615 103H342.889V99.612L345.899 103H347.635L344.009 99.15L347.621 95.328H345.843L342.889 98.73V92.64H341.615V103ZM348.044 99.136C348.044 101.516 349.626 103.126 351.67 103.126C353.084 103.126 354.078 102.398 354.54 101.572V103H355.828V95.328H354.54V96.728C354.092 95.93 353.112 95.202 351.684 95.202C349.626 95.202 348.044 96.742 348.044 99.136ZM354.54 99.15C354.54 100.956 353.336 102.006 351.936 102.006C350.536 102.006 349.346 100.942 349.346 99.136C349.346 97.33 350.536 96.308 351.936 96.308C353.336 96.308 354.54 97.372 354.54 99.15ZM358.367 94.082C358.843 94.082 359.221 93.704 359.221 93.214C359.221 92.724 358.843 92.346 358.367 92.346C357.891 92.346 357.513 92.724 357.513 93.214C357.513 93.704 357.891 94.082 358.367 94.082ZM357.723 95.328V104.638C357.723 105.31 357.457 105.562 356.757 105.562H356.225V106.64H356.967C358.269 106.64 358.997 106.052 358.997 104.666V95.328H357.723ZM360.378 99.136C360.378 101.516 361.96 103.126 364.004 103.126C365.418 103.126 366.412 102.398 366.874 101.572V103H368.162V95.328H366.874V96.728C366.426 95.93 365.446 95.202 364.018 95.202C361.96 95.202 360.378 96.742 360.378 99.136ZM366.874 99.15C366.874 100.956 365.67 102.006 364.27 102.006C362.87 102.006 361.68 100.942 361.68 99.136C361.68 97.33 362.87 96.308 364.27 96.308C365.67 96.308 366.874 97.372 366.874 99.15ZM370.057 103H371.331V97.792L372.325 97.4V96.406L371.331 96.784V92.64H370.057V97.288L369.063 97.666V98.674L370.057 98.282V103ZM372.752 99.136C372.752 101.516 374.334 103.126 376.378 103.126C377.792 103.126 378.786 102.398 379.248 101.572V103H380.536V95.328H379.248V96.728C378.8 95.93 377.82 95.202 376.392 95.202C374.334 95.202 372.752 96.742 372.752 99.136ZM379.248 99.15C379.248 100.956 378.044 102.006 376.644 102.006C375.244 102.006 374.054 100.942 374.054 99.136C374.054 97.33 375.244 96.308 376.644 96.308C378.044 96.308 379.248 97.372 379.248 99.15ZM387.096 96.742V95.328H385.822V106.64H387.096V101.586C387.572 102.37 388.566 103.126 389.966 103.126C392.024 103.126 393.606 101.516 393.606 99.136C393.606 96.742 392.024 95.202 389.966 95.202C388.566 95.202 387.558 95.93 387.096 96.742ZM392.304 99.136C392.304 100.942 391.114 102.006 389.7 102.006C388.314 102.006 387.096 100.956 387.096 99.15C387.096 97.372 388.314 96.308 389.7 96.308C391.114 96.308 392.304 97.33 392.304 99.136ZM402.263 99.15C402.263 96.728 400.569 95.202 398.385 95.202C396.215 95.202 394.507 96.728 394.507 99.15C394.507 101.586 396.159 103.126 398.329 103.126C400.513 103.126 402.263 101.586 402.263 99.15ZM395.809 99.15C395.809 97.218 397.027 96.308 398.371 96.308C399.687 96.308 400.961 97.218 400.961 99.15C400.961 101.096 399.659 102.006 398.329 102.006C396.999 102.006 395.809 101.096 395.809 99.15ZM403.918 100.9C403.918 102.44 404.688 103 406.046 103H407.194V101.922H406.256C405.472 101.922 405.192 101.656 405.192 100.9V96.378H407.194V95.328H405.192V93.396H403.918V95.328H402.924V96.378H403.918V100.9ZM409.711 98.828C409.711 97.05 410.635 96.504 411.853 96.504H412.189V95.188C410.971 95.188 410.145 95.72 409.711 96.574V95.328H408.437V103H409.711V98.828ZM418.05 95.328H412.884V96.364H416.58L412.856 101.95V103H418.078V101.95H414.312L418.05 96.364V95.328ZM422.693 96.28C424.009 96.28 425.129 97.106 425.115 98.604H420.271C420.411 97.106 421.447 96.28 422.693 96.28ZM426.277 100.634H424.905C424.625 101.46 423.897 102.048 422.749 102.048C421.447 102.048 420.355 101.194 420.257 99.64H426.389C426.417 99.374 426.431 99.15 426.431 98.87C426.431 96.77 424.975 95.202 422.749 95.202C420.509 95.202 418.955 96.728 418.955 99.15C418.955 101.586 420.565 103.126 422.749 103.126C424.653 103.126 425.885 102.034 426.277 100.634ZM429.087 96.756V92.64H427.813V103H429.087V101.586C429.563 102.426 430.557 103.126 431.957 103.126C434.015 103.126 435.597 101.516 435.597 99.136C435.597 96.742 434.029 95.202 431.957 95.202C430.599 95.202 429.577 95.902 429.087 96.756ZM434.295 99.136C434.295 100.942 433.105 102.006 431.691 102.006C430.305 102.006 429.087 100.956 429.087 99.15C429.087 97.372 430.305 96.308 431.691 96.308C433.105 96.308 434.295 97.33 434.295 99.136ZM439.886 101.544L437.478 95.328H436.064L439.158 102.916L437.646 106.612H438.962L443.582 95.328H442.266L439.886 101.544ZM2.35178 117.742V116.328H1.07778V127.64H2.35178V122.586C2.82778 123.37 3.82178 124.126 5.22178 124.126C7.27978 124.126 8.86178 122.516 8.86178 120.136C8.86178 117.742 7.27978 116.202 5.22178 116.202C3.82178 116.202 2.81378 116.93 2.35178 117.742ZM7.55978 120.136C7.55978 121.942 6.36978 123.006 4.95578 123.006C3.56978 123.006 2.35178 121.956 2.35178 120.15C2.35178 118.372 3.56978 117.308 4.95578 117.308C6.36978 117.308 7.55978 118.33 7.55978 120.136ZM17.0427 116.328H15.7687V120.542C15.7687 122.194 14.8867 123.006 13.5707 123.006C12.2827 123.006 11.4287 122.208 11.4287 120.654V116.328H10.1687V120.822C10.1687 123.02 11.5547 124.112 13.3187 124.112C14.3407 124.112 15.2787 123.664 15.7687 122.866V124H17.0427V116.328ZM20.1678 117.742V116.328H18.8938V127.64H20.1678V122.586C20.6438 123.37 21.6378 124.126 23.0378 124.126C25.0958 124.126 26.6778 122.516 26.6778 120.136C26.6778 117.742 25.0958 116.202 23.0378 116.202C21.6378 116.202 20.6298 116.93 20.1678 117.742ZM25.3758 120.136C25.3758 121.942 24.1858 123.006 22.7718 123.006C21.3858 123.006 20.1678 121.956 20.1678 120.15C20.1678 118.372 21.3858 117.308 22.7718 117.308C24.1858 117.308 25.3758 118.33 25.3758 120.136ZM28.0548 124H29.3288V116.328H28.0548V124ZM28.7128 115.082C29.1748 115.082 29.5528 114.704 29.5528 114.214C29.5528 113.724 29.1748 113.346 28.7128 113.346C28.2228 113.346 27.8448 113.724 27.8448 114.214C27.8448 114.704 28.2228 115.082 28.7128 115.082ZM31.2001 124H32.4741V113.64H31.2001V124ZM34.3454 124H35.6194V116.328H34.3454V124ZM35.0034 115.082C35.4654 115.082 35.8434 114.704 35.8434 114.214C35.8434 113.724 35.4654 113.346 35.0034 113.346C34.5134 113.346 34.1354 113.724 34.1354 114.214C34.1354 114.704 34.5134 115.082 35.0034 115.082ZM40.9231 124H42.1971V116.328H40.9231V124ZM41.5811 115.082C42.0431 115.082 42.4211 114.704 42.4211 114.214C42.4211 113.724 42.0431 113.346 41.5811 113.346C41.0911 113.346 40.7131 113.724 40.7131 114.214C40.7131 114.704 41.0911 115.082 41.5811 115.082ZM47.5008 124H48.7748V116.328H47.5008V124ZM48.1588 115.082C48.6208 115.082 48.9988 114.704 48.9988 114.214C48.9988 113.724 48.6208 113.346 48.1588 113.346C47.6688 113.346 47.2908 113.724 47.2908 114.214C47.2908 114.704 47.6688 115.082 48.1588 115.082ZM50.1702 120.15C50.1702 122.586 51.7242 124.126 53.9082 124.126C55.8122 124.126 57.0582 123.062 57.4502 121.536H56.0782C55.7982 122.502 55.0422 123.048 53.9082 123.048C52.5082 123.048 51.4722 122.054 51.4722 120.15C51.4722 118.274 52.5082 117.28 53.9082 117.28C55.0422 117.28 55.8122 117.868 56.0782 118.792H57.4502C57.0582 117.182 55.8122 116.202 53.9082 116.202C51.7242 116.202 50.1702 117.742 50.1702 120.15ZM58.8501 124H60.1241V119.758C60.1241 118.106 61.0201 117.294 62.3221 117.294C63.6101 117.294 64.4641 118.092 64.4641 119.66V124H65.7241V119.478C65.7241 117.28 64.3661 116.188 62.6581 116.188C61.5801 116.188 60.6281 116.622 60.1241 117.434V113.64H58.8501V124ZM72.4356 124H73.7516L75.5996 117.91L77.4476 124H78.7636L81.1576 116.328H79.8976L78.1616 122.782L76.2996 116.328H74.9976L73.0936 122.768L71.3296 116.328H70.0276L72.4356 124ZM82.1639 124H83.4379V118.792L84.4319 118.4V117.406L83.4379 117.784V113.64H82.1639V118.288L81.1699 118.666V119.674L82.1639 119.282V124ZM84.8596 120.136C84.8596 122.516 86.4416 124.126 88.4856 124.126C89.8996 124.126 90.8936 123.398 91.3556 122.572V124H92.6436V116.328H91.3556V117.728C90.9076 116.93 89.9276 116.202 88.4996 116.202C86.4416 116.202 84.8596 117.742 84.8596 120.136ZM91.3556 120.15C91.3556 121.956 90.1516 123.006 88.7516 123.006C87.3516 123.006 86.1616 121.942 86.1616 120.136C86.1616 118.33 87.3516 117.308 88.7516 117.308C90.1516 117.308 91.3556 118.372 91.3556 120.15ZM100.013 121.914C99.9565 119.17 95.5045 120.164 95.5045 118.344C95.5045 117.728 96.0645 117.28 97.0025 117.28C98.0245 117.28 98.6125 117.84 98.6685 118.61H99.9425C99.8585 117.112 98.7385 116.202 97.0445 116.202C95.3365 116.202 94.2305 117.168 94.2305 118.344C94.2305 121.2 98.7665 120.206 98.7665 121.914C98.7665 122.544 98.2065 123.048 97.1985 123.048C96.1205 123.048 95.4625 122.488 95.3925 121.746H94.0765C94.1605 123.146 95.4205 124.126 97.2125 124.126C98.9065 124.126 100.013 123.174 100.013 121.914ZM95.4485 114.704V115.656L98.4305 114.06V112.954L95.4485 114.704ZM101.035 120.15C101.035 122.586 102.589 124.126 104.773 124.126C106.677 124.126 107.923 123.062 108.315 121.536H106.943C106.663 122.502 105.907 123.048 104.773 123.048C103.373 123.048 102.337 122.054 102.337 120.15C102.337 118.274 103.373 117.28 104.773 117.28C105.907 117.28 106.677 117.868 106.943 118.792H108.315C107.923 117.182 106.677 116.202 104.773 116.202C102.589 116.202 101.035 117.742 101.035 120.15ZM109.715 124H110.989V116.328H109.715V124ZM110.373 115.082C110.835 115.082 111.213 114.704 111.213 114.214C111.213 113.724 110.835 113.346 110.373 113.346C109.883 113.346 109.505 113.724 109.505 114.214C109.505 114.704 109.883 115.082 110.373 115.082ZM112.384 120.15C112.384 122.586 113.938 124.126 116.122 124.126C118.026 124.126 119.272 123.062 119.664 121.536H118.292C118.012 122.502 117.256 123.048 116.122 123.048C114.722 123.048 113.686 122.054 113.686 120.15C113.686 118.274 114.722 117.28 116.122 117.28C117.256 117.28 118.026 117.868 118.292 118.792H119.664C119.272 117.182 118.026 116.202 116.122 116.202C113.938 116.202 112.384 117.742 112.384 120.15ZM121.064 124H122.338V116.328H121.064V124ZM121.722 115.082C122.184 115.082 122.562 114.704 122.562 114.214C122.562 113.724 122.184 113.346 121.722 113.346C121.232 113.346 120.854 113.724 120.854 114.214C120.854 114.704 121.232 115.082 121.722 115.082ZM127.472 117.28C128.788 117.28 129.908 118.106 129.894 119.604H125.05C125.19 118.106 126.226 117.28 127.472 117.28ZM131.056 121.634H129.684C129.404 122.46 128.676 123.048 127.528 123.048C126.226 123.048 125.134 122.194 125.036 120.64H131.168C131.196 120.374 131.21 120.15 131.21 119.87C131.21 117.77 129.754 116.202 127.528 116.202C125.288 116.202 123.734 117.728 123.734 120.15C123.734 122.586 125.344 124.126 127.528 124.126C129.432 124.126 130.664 123.034 131.056 121.634ZM132.591 124H133.865V113.64H132.591V124ZM135.737 124H137.011V116.328H135.737V124ZM136.395 115.082C136.857 115.082 137.235 114.704 137.235 114.214C137.235 113.724 136.857 113.346 136.395 113.346C135.905 113.346 135.527 113.724 135.527 114.214C135.527 114.704 135.905 115.082 136.395 115.082ZM140.128 123.216C140.128 122.726 139.75 122.348 139.288 122.348C138.798 122.348 138.42 122.726 138.42 123.216C138.42 123.706 138.798 124.084 139.288 124.084C139.75 124.084 140.128 123.706 140.128 123.216Z" fill="black"/>
</svg>
