<svg width="623" height="795" viewBox="0 0 623 795" fill="none" xmlns="http://www.w3.org/2000/svg">
<g clip-path="url(#clip0_35_13)">
<path d="M348.257 356.111C417.506 252.953 497.932 363.143 617.514 307.194C724.488 257.179 845.879 393.941 759.474 485.395C673.13 576.741 627.982 604.877 612.478 708.32C597.059 811.744 424.909 845.142 387.919 680.098C378.722 639.109 381.432 600.897 372.167 569.987C343.669 474.962 298.315 430.341 348.196 356.218L348.257 356.111ZM60.9256 567.532C52.6368 617.582 102.418 672.059 171.966 689.327C241.513 706.594 304.668 680.007 312.896 630.063C321.184 580.013 271.403 525.536 201.856 508.268C132.308 491.001 69.1538 517.588 60.9256 567.532ZM5.88404 272.464C-15.2078 317.392 23.8094 385.02 92.8691 423.463C161.929 461.906 234.981 456.592 255.988 411.683C276.996 366.774 238.063 299.127 169.003 260.684C99.9433 222.241 26.8915 227.555 5.88404 272.464ZM151.987 53.8717C119.872 90.6557 142.574 166.715 202.684 223.748C262.795 280.781 337.646 297.18 369.76 260.396C401.875 223.612 379.173 147.553 319.063 90.5196C258.953 33.4868 184.101 17.0876 151.987 53.8717ZM441.805 6.70246C397.122 28.9065 388.596 100.736 422.846 167.236C457.072 233.647 521.067 269.52 565.75 247.316C610.434 225.112 618.959 153.282 584.709 86.7825C550.484 20.3716 486.488 -15.5016 441.805 6.70246Z" fill="#007D96" fill-opacity="0.2"/>
</g>
<defs>
<clipPath id="clip0_35_13">
<rect width="623" height="795" fill="white"/>
</clipPath>
</defs>
</svg>
