<svg width="549" height="158" viewBox="0 0 549 158" fill="none" xmlns="http://www.w3.org/2000/svg">
<path d="M13.964 29H18.92L10.632 19.144L18.696 9.456H13.964L6.852 18.22V9.456H2.932V29H6.852V20.292L13.964 29ZM20.4904 21.188C20.4904 26.032 23.6264 29.252 27.5464 29.252C30.0104 29.252 31.7744 28.076 32.6984 26.732V29H36.6464V13.488H32.6984V15.7C31.7744 14.412 30.0664 13.236 27.5744 13.236C23.6264 13.236 20.4904 16.344 20.4904 21.188ZM32.6984 21.244C32.6984 24.184 30.7384 25.808 28.5824 25.808C26.4824 25.808 24.4944 24.128 24.4944 21.188C24.4944 18.248 26.4824 16.68 28.5824 16.68C30.7384 16.68 32.6984 18.304 32.6984 21.244ZM52.515 24.576C52.403 18.892 43.807 20.656 43.807 17.828C43.807 16.932 44.563 16.344 46.019 16.344C47.559 16.344 48.511 17.156 48.623 18.36H52.375C52.151 15.28 49.883 13.236 46.131 13.236C42.295 13.236 39.999 15.308 39.999 17.884C39.999 23.568 48.763 21.804 48.763 24.576C48.763 25.472 47.923 26.172 46.383 26.172C44.815 26.172 43.723 25.276 43.583 24.1H39.635C39.803 26.984 42.519 29.252 46.411 29.252C50.191 29.252 52.515 27.236 52.515 24.576ZM55.7328 29H59.6528V13.488H55.7328V29ZM57.7208 11.64C59.0928 11.64 60.1288 10.632 60.1288 9.344C60.1288 8.056 59.0928 7.048 57.7208 7.048C56.3208 7.048 55.3128 8.056 55.3128 9.344C55.3128 10.632 56.3208 11.64 57.7208 11.64ZM62.5177 21.188C62.5177 26.032 65.6538 29.252 69.5738 29.252C72.0378 29.252 73.8018 28.076 74.7258 26.732V29H78.6738V13.488H74.7258V15.7C73.8018 14.412 72.0938 13.236 69.6018 13.236C65.6538 13.236 62.5177 16.344 62.5177 21.188ZM74.7258 21.244C74.7258 24.184 72.7658 25.808 70.6098 25.808C68.5098 25.808 66.5218 24.128 66.5218 21.188C66.5218 18.248 68.5098 16.68 70.6098 16.68C72.7658 16.68 74.7258 18.304 74.7258 21.244ZM89.1742 29H93.0942V13.488H89.1742V29ZM91.1622 11.64C92.5342 11.64 93.5702 10.632 93.5702 9.344C93.5702 8.056 92.5342 7.048 91.1622 7.048C89.7622 7.048 88.7542 8.056 88.7542 9.344C88.7542 10.632 89.7622 11.64 91.1622 11.64ZM105.627 11.64C106.999 11.64 108.007 10.632 108.007 9.344C108.007 8.056 106.999 7.048 105.627 7.048C104.199 7.048 103.191 8.056 103.191 9.344C103.191 10.632 104.199 11.64 105.627 11.64ZM103.639 13.488V31.576C103.639 32.612 103.219 33.06 102.015 33.06H100.895V36.392H102.631C105.627 36.392 107.559 35.132 107.559 31.548V13.488H103.639ZM118.096 16.456C120.112 16.456 121.736 17.744 121.792 19.788H114.428C114.736 17.66 116.22 16.456 118.096 16.456ZM125.46 24.128H121.232C120.728 25.164 119.804 26.004 118.124 26.004C116.164 26.004 114.596 24.716 114.4 22.42H125.74C125.824 21.916 125.852 21.412 125.852 20.908C125.852 16.288 122.688 13.236 118.208 13.236C113.616 13.236 110.424 16.344 110.424 21.244C110.424 26.116 113.7 29.252 118.208 29.252C122.044 29.252 124.62 26.984 125.46 24.128ZM130.701 11.64C132.073 11.64 133.081 10.632 133.081 9.344C133.081 8.056 132.073 7.048 130.701 7.048C129.273 7.048 128.265 8.056 128.265 9.344C128.265 10.632 129.273 11.64 130.701 11.64ZM128.713 13.488V31.576C128.713 32.612 128.293 33.06 127.089 33.06H125.969V36.392H127.705C130.701 36.392 132.633 35.132 132.633 31.548V13.488H128.713ZM147.098 15.728V13.488H143.178V36.392H147.098V26.788C148.05 28.048 149.786 29.252 152.222 29.252C156.198 29.252 159.306 26.032 159.306 21.188C159.306 16.344 156.198 13.236 152.222 13.236C149.814 13.236 148.022 14.412 147.098 15.728ZM155.302 21.188C155.302 24.128 153.314 25.808 151.186 25.808C149.086 25.808 147.098 24.184 147.098 21.244C147.098 18.304 149.086 16.68 151.186 16.68C153.314 16.68 155.302 18.248 155.302 21.188ZM162.155 29H166.075V13.488H162.155V29ZM164.143 11.64C165.515 11.64 166.551 10.632 166.551 9.344C166.551 8.056 165.515 7.048 164.143 7.048C162.743 7.048 161.735 8.056 161.735 9.344C161.735 10.632 162.743 11.64 164.143 11.64ZM176.612 16.456C178.628 16.456 180.252 17.744 180.308 19.788H172.944C173.252 17.66 174.736 16.456 176.612 16.456ZM183.976 24.128H179.748C179.244 25.164 178.32 26.004 176.64 26.004C174.68 26.004 173.112 24.716 172.916 22.42H184.256C184.34 21.916 184.368 21.412 184.368 20.908C184.368 16.288 181.204 13.236 176.724 13.236C172.132 13.236 168.94 16.344 168.94 21.244C168.94 26.116 172.216 29.252 176.724 29.252C180.56 29.252 183.136 26.984 183.976 24.128ZM199.269 24.576C199.157 18.892 190.561 20.656 190.561 17.828C190.561 16.932 191.317 16.344 192.773 16.344C194.313 16.344 195.265 17.156 195.377 18.36H199.129C198.905 15.28 196.637 13.236 192.885 13.236C189.049 13.236 186.753 15.308 186.753 17.884C186.753 23.568 195.517 21.804 195.517 24.576C195.517 25.472 194.677 26.172 193.137 26.172C191.569 26.172 190.477 25.276 190.337 24.1H186.389C186.557 26.984 189.273 29.252 193.165 29.252C196.945 29.252 199.269 27.236 199.269 24.576ZM219.519 15.532C219.519 17.296 218.539 18.444 216.355 18.444H213.079V12.704H216.355C218.539 12.704 219.519 13.796 219.519 15.532ZM209.159 9.456V29H213.079V21.384H214.927L219.239 29H223.775L219.099 21.076C222.235 20.236 223.551 17.828 223.551 15.448C223.551 12.172 221.199 9.456 216.495 9.456H209.159ZM242.076 21.244C242.076 16.344 238.576 13.236 234.096 13.236C229.616 13.236 226.116 16.344 226.116 21.244C226.116 26.116 229.504 29.252 233.984 29.252C238.492 29.252 242.076 26.116 242.076 21.244ZM230.092 21.244C230.092 18.136 231.968 16.652 234.04 16.652C236.112 16.652 238.044 18.136 238.044 21.244C238.044 24.324 236.056 25.836 233.984 25.836C231.884 25.836 230.092 24.324 230.092 21.244ZM243.944 21.244C243.944 26.116 247.136 29.252 251.616 29.252C255.48 29.252 258.084 27.068 258.924 23.764H254.696C254.22 25.164 253.212 25.892 251.588 25.892C249.404 25.892 247.948 24.268 247.948 21.244C247.948 18.22 249.404 16.568 251.588 16.568C253.212 16.568 254.248 17.408 254.696 18.724H258.924C258.084 15.252 255.48 13.236 251.616 13.236C247.136 13.236 243.944 16.372 243.944 21.244ZM261.795 29H265.715V22.392L270.979 29H276.075L269.187 21.272L276.019 13.488H270.923L265.715 20.068V8.28H261.795V29ZM284.755 24.324L280.751 13.488H276.355L282.571 28.608L279.211 36.336H283.383L292.987 13.488H288.815L284.755 24.324Z" fill="black"/>
<path d="M4.052 68.014L5.466 68L7.818 60.146L10.086 68H11.514L14.342 58.242H12.97L10.828 66.488L8.588 58.242H7.16L4.808 66.516L2.68 58.242H1.322L4.052 68.014ZM19.7486 65.9C19.7486 67.44 20.5186 68 21.8766 68H23.0246V66.922H22.0866C21.3026 66.922 21.0226 66.656 21.0226 65.9V61.378H23.0246V60.328H21.0226V58.396H19.7486V60.328H18.7546V61.378H19.7486V65.9ZM25.8422 63.828C25.8422 62.05 26.7662 61.504 27.9842 61.504H28.3202V60.188C27.1022 60.188 26.2762 60.72 25.8422 61.574V60.328H24.5682V68H25.8422V63.828ZM29.3149 64.136C29.3149 66.516 30.8969 68.126 32.9409 68.126C34.3549 68.126 35.3489 67.398 35.8109 66.572V68H37.0989V60.328H35.8109V61.728C35.3629 60.93 34.3829 60.202 32.9549 60.202C30.8969 60.202 29.3149 61.742 29.3149 64.136ZM35.8109 64.15C35.8109 65.956 34.6069 67.006 33.2069 67.006C31.8069 67.006 30.6169 65.942 30.6169 64.136C30.6169 62.33 31.8069 61.308 33.2069 61.308C34.6069 61.308 35.8109 62.372 35.8109 64.15ZM39.2518 68H40.5258V64.612L43.5358 68H45.2718L41.6458 64.15L45.2578 60.328H43.4798L40.5258 63.73V57.64H39.2518V68ZM45.9809 64.15C45.9809 66.586 47.5349 68.126 49.7189 68.126C51.6229 68.126 52.8689 67.062 53.2609 65.536H51.8889C51.6089 66.502 50.8529 67.048 49.7189 67.048C48.3189 67.048 47.2829 66.054 47.2829 64.15C47.2829 62.274 48.3189 61.28 49.7189 61.28C50.8529 61.28 51.6229 61.868 51.8889 62.792H53.2609C52.8689 61.182 51.6229 60.202 49.7189 60.202C47.5349 60.202 45.9809 61.742 45.9809 64.15ZM54.9608 68H56.2348V60.328H54.9608V68ZM55.6188 59.082C56.0808 59.082 56.4588 58.704 56.4588 58.214C56.4588 57.724 56.0808 57.346 55.6188 57.346C55.1288 57.346 54.7508 57.724 54.7508 58.214C54.7508 58.704 55.1288 59.082 55.6188 59.082ZM61.6681 61.28C62.9841 61.28 64.1041 62.106 64.0901 63.604H59.2461C59.3861 62.106 60.4221 61.28 61.6681 61.28ZM65.2521 65.634H63.8801C63.6001 66.46 62.8721 67.048 61.7241 67.048C60.4221 67.048 59.3301 66.194 59.2321 64.64H65.3641C65.3921 64.374 65.4061 64.15 65.4061 63.87C65.4061 61.77 63.9501 60.202 61.7241 60.202C59.4841 60.202 57.9301 61.728 57.9301 64.15C57.9301 66.586 59.5401 68.126 61.7241 68.126C63.6281 68.126 64.8601 67.034 65.2521 65.634ZM75.5102 60.328H70.3442V61.364H74.0402L70.3162 66.95V68H75.5382V66.95H71.7722L75.5102 61.364V60.328ZM78.6893 68H80.0053L81.8533 61.91L83.7013 68H85.0173L87.4113 60.328H86.1513L84.4153 66.782L82.5533 60.328H81.2513L79.3473 66.768L77.5833 60.328H76.2813L78.6893 68ZM88.6757 68H89.9497V60.328H88.6757V68ZM89.3337 59.082C89.7957 59.082 90.1737 58.704 90.1737 58.214C90.1737 57.724 89.7957 57.346 89.3337 57.346C88.8437 57.346 88.4657 57.724 88.4657 58.214C88.4657 58.704 88.8437 59.082 89.3337 59.082ZM95.383 61.28C96.699 61.28 97.819 62.106 97.805 63.604H92.961C93.101 62.106 94.137 61.28 95.383 61.28ZM98.967 65.634H97.595C97.315 66.46 96.587 67.048 95.439 67.048C94.137 67.048 93.045 66.194 92.947 64.64H99.079C99.107 64.374 99.121 64.15 99.121 63.87C99.121 61.77 97.665 60.202 95.439 60.202C93.199 60.202 91.645 61.728 91.645 64.15C91.645 66.586 93.255 68.126 95.439 68.126C97.343 68.126 98.575 67.034 98.967 65.634ZM100.327 64.136C100.327 66.516 101.909 68.126 103.967 68.126C105.367 68.126 106.361 67.412 106.823 66.558V68H108.111V57.64H106.823V61.7C106.291 60.818 105.185 60.202 103.981 60.202C101.909 60.202 100.327 61.742 100.327 64.136ZM106.823 64.15C106.823 65.956 105.619 67.006 104.219 67.006C102.819 67.006 101.629 65.942 101.629 64.136C101.629 62.33 102.819 61.308 104.219 61.308C105.619 61.308 106.823 62.372 106.823 64.15ZM114.954 60.328H109.788V61.364H113.484L109.76 66.95V68H114.982V66.95H111.216L114.954 61.364V60.328ZM116.159 64.136C116.159 66.516 117.741 68.126 119.785 68.126C121.199 68.126 122.193 67.398 122.655 66.572V68H123.943V60.328H122.655V61.728C122.207 60.93 121.227 60.202 119.799 60.202C117.741 60.202 116.159 61.742 116.159 64.136ZM122.655 64.15C122.655 65.956 121.451 67.006 120.051 67.006C118.651 67.006 117.461 65.942 117.461 64.136C117.461 62.33 118.651 61.308 120.051 61.308C121.451 61.308 122.655 62.372 122.655 64.15ZM131.71 68H132.97V63.478C132.97 61.28 131.612 60.188 129.834 60.188C128.798 60.188 127.874 60.622 127.37 61.42V60.328H126.096V68H127.37V63.758C127.37 62.106 128.266 61.294 129.568 61.294C130.856 61.294 131.71 62.092 131.71 63.66V68ZM135.051 68H136.325V60.328H135.051V68ZM135.709 59.082C136.171 59.082 136.549 58.704 136.549 58.214C136.549 57.724 136.171 57.346 135.709 57.346C135.219 57.346 134.841 57.724 134.841 58.214C134.841 58.704 135.219 59.082 135.709 59.082ZM138.02 64.136C138.02 66.516 139.602 68.126 141.646 68.126C143.06 68.126 144.054 67.398 144.516 66.572V68H145.804V60.328H144.516V61.728C144.068 60.93 143.088 60.202 141.66 60.202C139.602 60.202 138.02 61.742 138.02 64.136ZM144.516 64.15C144.516 65.956 143.312 67.006 141.912 67.006C140.512 67.006 139.322 65.942 139.322 64.136C139.322 62.33 140.512 61.308 141.912 61.308C143.312 61.308 144.516 62.372 144.516 64.15ZM153.187 68H154.503L156.351 61.91L158.199 68H159.515L161.909 60.328H160.649L158.913 66.782L157.051 60.328H155.749L153.845 66.768L152.081 60.328H150.779L153.187 68ZM164.448 63.828C164.448 62.05 165.372 61.504 166.59 61.504H166.926V60.188C165.708 60.188 164.882 60.72 164.448 61.574V60.328H163.174V68H164.448V63.828ZM175.676 64.15C175.676 61.728 173.982 60.202 171.798 60.202C169.628 60.202 167.92 61.728 167.92 64.15C167.92 66.586 169.572 68.126 171.742 68.126C173.926 68.126 175.676 66.586 175.676 64.15ZM169.222 64.15C169.222 62.218 170.44 61.308 171.784 61.308C173.1 61.308 174.374 62.218 174.374 64.15C174.374 66.096 173.072 67.006 171.742 67.006C170.412 67.006 169.222 66.096 169.222 64.15ZM176.875 64.15C176.875 66.586 178.429 68.126 180.613 68.126C182.517 68.126 183.763 67.062 184.155 65.536H182.783C182.503 66.502 181.747 67.048 180.613 67.048C179.213 67.048 178.177 66.054 178.177 64.15C178.177 62.274 179.213 61.28 180.613 61.28C181.747 61.28 182.517 61.868 182.783 62.792H184.155C183.763 61.182 182.517 60.202 180.613 60.202C178.429 60.202 176.875 61.742 176.875 64.15ZM185.897 68H187.171V62.792L188.165 62.4V61.406L187.171 61.784V57.64H185.897V62.288L184.903 62.666V63.674L185.897 63.282V68ZM188.893 64.136C188.893 66.516 190.475 68.126 192.519 68.126C193.933 68.126 194.927 67.398 195.389 66.572V68H196.677V60.328H195.389V61.728C194.941 60.93 193.961 60.202 192.533 60.202C190.475 60.202 188.893 61.742 188.893 64.136ZM195.389 64.15C195.389 65.956 194.185 67.006 192.785 67.006C191.385 67.006 190.195 65.942 190.195 64.136C190.195 62.33 191.385 61.308 192.785 61.308C194.185 61.308 195.389 62.372 195.389 64.15ZM200.328 68H201.644L203.492 61.91L205.34 68H206.656L209.05 60.328H207.79L206.054 66.782L204.192 60.328H202.89L200.986 66.768L199.222 60.328H197.92L200.328 68ZM215.83 65.914C215.774 63.17 211.322 64.164 211.322 62.344C211.322 61.728 211.882 61.28 212.82 61.28C213.842 61.28 214.43 61.84 214.486 62.61H215.76C215.676 61.112 214.556 60.202 212.862 60.202C211.154 60.202 210.048 61.168 210.048 62.344C210.048 65.2 214.584 64.206 214.584 65.914C214.584 66.544 214.024 67.048 213.016 67.048C211.938 67.048 211.28 66.488 211.21 65.746H209.894C209.978 67.146 211.238 68.126 213.03 68.126C214.724 68.126 215.83 67.174 215.83 65.914ZM217.629 68H218.903V64.612L221.913 68H223.649L220.023 64.15L223.635 60.328H221.857L218.903 63.73V57.64H217.629V68ZM224.834 68H226.108V60.328H224.834V68ZM225.492 59.082C225.954 59.082 226.332 58.704 226.332 58.214C226.332 57.724 225.954 57.346 225.492 57.346C225.002 57.346 224.624 57.724 224.624 58.214C224.624 58.704 225.002 59.082 225.492 59.082ZM231.541 61.28C232.857 61.28 233.977 62.106 233.963 63.604H229.119C229.259 62.106 230.295 61.28 231.541 61.28ZM235.125 65.634H233.753C233.473 66.46 232.745 67.048 231.597 67.048C230.295 67.048 229.203 66.194 229.105 64.64H235.237C235.265 64.374 235.279 64.15 235.279 63.87C235.279 61.77 233.823 60.202 231.597 60.202C229.357 60.202 227.803 61.728 227.803 64.15C227.803 66.586 229.413 68.126 231.597 68.126C233.501 68.126 234.733 67.034 235.125 65.634ZM236.485 64.136C236.485 66.516 238.067 68.126 240.125 68.126C241.525 68.126 242.519 67.384 242.981 66.558V68.168C242.981 69.806 241.959 70.674 240.601 70.674C239.341 70.674 238.431 70.044 238.151 69.12H236.891C237.143 70.758 238.585 71.78 240.601 71.78C242.855 71.78 244.269 70.282 244.269 68.168V60.328H242.981V61.728C242.533 60.902 241.525 60.202 240.125 60.202C238.067 60.202 236.485 61.742 236.485 64.136ZM242.981 64.15C242.981 65.956 241.777 67.006 240.377 67.006C238.977 67.006 237.787 65.942 237.787 64.136C237.787 62.33 238.977 61.308 240.377 61.308C241.777 61.308 242.981 62.372 242.981 64.15ZM253.702 64.15C253.702 61.728 252.008 60.202 249.824 60.202C247.654 60.202 245.946 61.728 245.946 64.15C245.946 66.586 247.598 68.126 249.768 68.126C251.952 68.126 253.702 66.586 253.702 64.15ZM247.248 64.15C247.248 62.218 248.466 61.308 249.81 61.308C251.126 61.308 252.4 62.218 252.4 64.15C252.4 66.096 251.098 67.006 249.768 67.006C248.438 67.006 247.248 66.096 247.248 64.15ZM260.383 63.828C260.383 62.05 261.307 61.504 262.525 61.504H262.861V60.188C261.643 60.188 260.817 60.72 260.383 61.574V60.328H259.109V68H260.383V63.828ZM267.244 66.544L264.836 60.328H263.422L266.516 67.916L265.004 71.612H266.32L270.94 60.328H269.624L267.244 66.544ZM277.835 68H279.095V63.478C279.095 61.28 277.737 60.188 275.959 60.188C274.923 60.188 273.999 60.622 273.495 61.42V60.328H272.221V68H273.495V63.758C273.495 62.106 274.391 61.294 275.693 61.294C276.981 61.294 277.835 62.092 277.835 63.66V68ZM281.176 68H282.45V64.612L285.46 68H287.196L283.57 64.15L287.182 60.328H285.404L282.45 63.73V57.64H281.176V68ZM295.185 60.328H293.911V64.542C293.911 66.194 293.029 67.006 291.713 67.006C290.425 67.006 289.571 66.208 289.571 64.654V60.328H288.311V64.822C288.311 67.02 289.697 68.112 291.461 68.112C292.483 68.112 293.421 67.664 293.911 66.866V68H295.185V60.328ZM296.23 70.002H297.084L298.652 66.236H297.252L296.23 70.002ZM305.118 62.876V59.292H306.994C308.45 59.292 309.066 59.964 309.066 61.098C309.066 62.19 308.45 62.876 306.994 62.876H305.118ZM310.368 61.098C310.368 59.502 309.29 58.242 306.994 58.242H303.844V68H305.118V63.926H306.994C309.416 63.926 310.368 62.582 310.368 61.098ZM311.475 64.136C311.475 66.516 313.057 68.126 315.101 68.126C316.515 68.126 317.509 67.398 317.971 66.572V68H319.259V60.328H317.971V61.728C317.523 60.93 316.543 60.202 315.115 60.202C313.057 60.202 311.475 61.742 311.475 64.136ZM317.971 64.15C317.971 65.956 316.767 67.006 315.367 67.006C313.967 67.006 312.777 65.942 312.777 64.136C312.777 62.33 313.967 61.308 315.367 61.308C316.767 61.308 317.971 62.372 317.971 64.15ZM327.026 68H328.286V63.478C328.286 61.28 326.928 60.188 325.15 60.188C324.114 60.188 323.19 60.622 322.686 61.42V60.328H321.412V68H322.686V63.758C322.686 62.106 323.582 61.294 324.884 61.294C326.172 61.294 327.026 62.092 327.026 63.66V68ZM330.367 68H331.641V60.328H330.367V68ZM331.025 59.082C331.487 59.082 331.865 58.704 331.865 58.214C331.865 57.724 331.487 57.346 331.025 57.346C330.535 57.346 330.157 57.724 330.157 58.214C330.157 58.704 330.535 59.082 331.025 59.082ZM342.837 68H344.503L340.037 63.128L344.461 58.242H342.851L338.819 62.764V58.242H337.545V68H338.819V63.548L342.837 68ZM345.45 64.136C345.45 66.516 347.032 68.126 349.076 68.126C350.49 68.126 351.484 67.398 351.946 66.572V68H353.234V60.328H351.946V61.728C351.498 60.93 350.518 60.202 349.09 60.202C347.032 60.202 345.45 61.742 345.45 64.136ZM351.946 64.15C351.946 65.956 350.742 67.006 349.342 67.006C347.942 67.006 346.752 65.942 346.752 64.136C346.752 62.33 347.942 61.308 349.342 61.308C350.742 61.308 351.946 62.372 351.946 64.15ZM360.903 65.914C360.847 63.17 356.395 64.164 356.395 62.344C356.395 61.728 356.955 61.28 357.893 61.28C358.915 61.28 359.503 61.84 359.559 62.61H360.833C360.749 61.112 359.629 60.202 357.935 60.202C356.227 60.202 355.121 61.168 355.121 62.344C355.121 65.2 359.657 64.206 359.657 65.914C359.657 66.544 359.097 67.048 358.089 67.048C357.011 67.048 356.353 66.488 356.283 65.746H354.967C355.051 67.146 356.311 68.126 358.103 68.126C359.797 68.126 360.903 67.174 360.903 65.914ZM362.701 68H363.975V60.328H362.701V68ZM363.359 59.082C363.821 59.082 364.199 58.704 364.199 58.214C364.199 57.724 363.821 57.346 363.359 57.346C362.869 57.346 362.491 57.724 362.491 58.214C362.491 58.704 362.869 59.082 363.359 59.082ZM365.67 64.136C365.67 66.516 367.252 68.126 369.296 68.126C370.71 68.126 371.704 67.398 372.166 66.572V68H373.454V60.328H372.166V61.728C371.718 60.93 370.738 60.202 369.31 60.202C367.252 60.202 365.67 61.742 365.67 64.136ZM372.166 64.15C372.166 65.956 370.962 67.006 369.562 67.006C368.162 67.006 366.972 65.942 366.972 64.136C366.972 62.33 368.162 61.308 369.562 61.308C370.962 61.308 372.166 62.372 372.166 64.15ZM6.768 81.328H1.602V82.364H5.298L1.574 87.95V89H6.796V87.95H3.03L6.768 82.364V81.328ZM7.97309 85.136C7.97309 87.516 9.55509 89.126 11.6131 89.126C13.0131 89.126 14.0071 88.384 14.4691 87.558V89.168C14.4691 90.806 13.4471 91.674 12.0891 91.674C10.8291 91.674 9.91909 91.044 9.63909 90.12H8.37909C8.63109 91.758 10.0731 92.78 12.0891 92.78C14.3431 92.78 15.7571 91.282 15.7571 89.168V81.328H14.4691V82.728C14.0211 81.902 13.0131 81.202 11.6131 81.202C9.55509 81.202 7.97309 82.742 7.97309 85.136ZM14.4691 85.15C14.4691 86.956 13.2651 88.006 11.8651 88.006C10.4651 88.006 9.27509 86.942 9.27509 85.136C9.27509 83.33 10.4651 82.308 11.8651 82.308C13.2651 82.308 14.4691 83.372 14.4691 85.15ZM17.952 89H19.226V83.792L20.22 83.4V82.406L19.226 82.784V78.64H17.952V83.288L16.958 83.666V84.674L17.952 84.282V89ZM28.7037 85.15C28.7037 82.728 27.0097 81.202 24.8257 81.202C22.6557 81.202 20.9477 82.728 20.9477 85.15C20.9477 87.586 22.5997 89.126 24.7697 89.126C26.9537 89.126 28.7037 87.586 28.7037 85.15ZM22.2497 85.15C22.2497 83.218 23.4677 82.308 24.8117 82.308C26.1277 82.308 27.4017 83.218 27.4017 85.15C27.4017 87.096 26.0997 88.006 24.7697 88.006C23.4397 88.006 22.2497 87.096 22.2497 85.15ZM29.9028 85.136C29.9028 87.516 31.4848 89.126 33.5428 89.126C34.9428 89.126 35.9368 88.412 36.3988 87.558V89H37.6868V78.64H36.3988V82.7C35.8668 81.818 34.7608 81.202 33.5568 81.202C31.4848 81.202 29.9028 82.742 29.9028 85.136ZM36.3988 85.15C36.3988 86.956 35.1948 88.006 33.7948 88.006C32.3948 88.006 31.2048 86.942 31.2048 85.136C31.2048 83.33 32.3948 82.308 33.7948 82.308C35.1948 82.308 36.3988 83.372 36.3988 85.15ZM45.4537 89H46.7137V84.478C46.7137 82.28 45.3557 81.188 43.5777 81.188C42.5417 81.188 41.6177 81.622 41.1137 82.42V81.328H39.8397V89H41.1137V84.758C41.1137 83.106 42.0097 82.294 43.3117 82.294C44.5997 82.294 45.4537 83.092 45.4537 84.66V89ZM48.7948 89H50.0688V81.328H48.7948V89ZM49.4528 80.082C49.9148 80.082 50.2928 79.704 50.2928 79.214C50.2928 78.724 49.9148 78.346 49.4528 78.346C48.9628 78.346 48.5848 78.724 48.5848 79.214C48.5848 79.704 48.9628 80.082 49.4528 80.082ZM51.7641 85.136C51.7641 87.516 53.3461 89.126 55.3901 89.126C56.8041 89.126 57.7981 88.398 58.2601 87.572V89H59.5481V81.328H58.2601V82.728C57.8121 81.93 56.8321 81.202 55.4041 81.202C53.3461 81.202 51.7641 82.742 51.7641 85.136ZM58.2601 85.15C58.2601 86.956 57.0561 88.006 55.6561 88.006C54.2561 88.006 53.0661 86.942 53.0661 85.136C53.0661 83.33 54.2561 82.308 55.6561 82.308C57.0561 82.308 58.2601 83.372 58.2601 85.15ZM61.743 89H63.017V83.792L64.011 83.4V82.406L63.017 82.784V78.64H61.743V83.288L60.749 83.666V84.674L61.743 84.282V89ZM64.7387 85.136C64.7387 87.516 66.3207 89.126 68.3647 89.126C69.7787 89.126 70.7727 88.398 71.2347 87.572V89H72.5227V81.328H71.2347V82.728C70.7867 81.93 69.8067 81.202 68.3787 81.202C66.3207 81.202 64.7387 82.742 64.7387 85.136ZM71.2347 85.15C71.2347 86.956 70.0307 88.006 68.6307 88.006C67.2307 88.006 66.0407 86.942 66.0407 85.136C66.0407 83.33 67.2307 82.308 68.6307 82.308C70.0307 82.308 71.2347 83.372 71.2347 85.15ZM78.4081 89H79.6821V81.328H78.4081V89ZM79.0661 80.082C79.5281 80.082 79.9061 79.704 79.9061 79.214C79.9061 78.724 79.5281 78.346 79.0661 78.346C78.5761 78.346 78.1981 78.724 78.1981 79.214C78.1981 79.704 78.5761 80.082 79.0661 80.082ZM85.1098 85.15C85.1098 87.586 86.6638 89.126 88.8478 89.126C90.7518 89.126 91.9978 88.062 92.3898 86.536H91.0178C90.7378 87.502 89.9818 88.048 88.8478 88.048C87.4478 88.048 86.4118 87.054 86.4118 85.15C86.4118 83.274 87.4478 82.28 88.8478 82.28C89.9818 82.28 90.7518 82.868 91.0178 83.792H92.3898C91.9978 82.182 90.7518 81.202 88.8478 81.202C86.6638 81.202 85.1098 82.742 85.1098 85.15ZM94.0897 89H95.3637V84.758C95.3637 83.106 96.2597 82.294 97.5617 82.294C98.8497 82.294 99.7037 83.092 99.7037 84.66V89H100.964V84.478C100.964 82.28 99.6057 81.188 97.8977 81.188C96.8197 81.188 95.8677 81.622 95.3637 82.434V78.64H94.0897V89ZM102.569 85.15C102.569 87.586 104.123 89.126 106.307 89.126C108.211 89.126 109.457 88.062 109.849 86.536H108.477C108.197 87.502 107.441 88.048 106.307 88.048C104.907 88.048 103.871 87.054 103.871 85.15C103.871 83.274 104.907 82.28 106.307 82.28C107.441 82.28 108.211 82.868 108.477 83.792H109.849C109.457 82.182 108.211 81.202 106.307 81.202C104.123 81.202 102.569 82.742 102.569 85.15ZM111.549 89H112.823V81.328H111.549V89ZM112.207 80.082C112.669 80.082 113.047 79.704 113.047 79.214C113.047 78.724 112.669 78.346 112.207 78.346C111.717 78.346 111.339 78.724 111.339 79.214C111.339 79.704 111.717 80.082 112.207 80.082ZM114.518 85.136C114.518 87.516 116.1 89.126 118.144 89.126C119.558 89.126 120.552 88.398 121.014 87.572V89H122.302V81.328H121.014V82.728C120.566 81.93 119.586 81.202 118.158 81.202C116.1 81.202 114.518 82.742 114.518 85.136ZM121.014 85.15C121.014 86.956 119.81 88.006 118.41 88.006C117.01 88.006 115.82 86.942 115.82 85.136C115.82 83.33 117.01 82.308 118.41 82.308C119.81 82.308 121.014 83.372 121.014 85.15ZM124.497 89H125.771V83.792L126.765 83.4V82.406L125.771 82.784V78.64H124.497V83.288L123.503 83.666V84.674L124.497 84.282V89ZM127.493 85.136C127.493 87.516 129.075 89.126 131.119 89.126C132.533 89.126 133.527 88.398 133.989 87.572V89H135.277V81.328H133.989V82.728C133.541 81.93 132.561 81.202 131.133 81.202C129.075 81.202 127.493 82.742 127.493 85.136ZM133.989 85.15C133.989 86.956 132.785 88.006 131.385 88.006C129.985 88.006 128.795 86.942 128.795 85.136C128.795 83.33 129.985 82.308 131.385 82.308C132.785 82.308 133.989 83.372 133.989 85.15ZM142.66 89H143.976L145.824 82.91L147.672 89H148.988L151.382 81.328H150.122L148.386 87.782L146.524 81.328H145.222L143.318 87.768L141.554 81.328H140.252L142.66 89ZM158.162 86.914C158.106 84.17 153.654 85.164 153.654 83.344C153.654 82.728 154.214 82.28 155.152 82.28C156.174 82.28 156.762 82.84 156.818 83.61H158.092C158.008 82.112 156.888 81.202 155.194 81.202C153.486 81.202 152.38 82.168 152.38 83.344C152.38 86.2 156.916 85.206 156.916 86.914C156.916 87.544 156.356 88.048 155.348 88.048C154.27 88.048 153.612 87.488 153.542 86.746H152.226C152.31 88.146 153.57 89.126 155.362 89.126C157.056 89.126 158.162 88.174 158.162 86.914ZM160.241 86.9C160.241 88.44 161.011 89 162.369 89H163.517V87.922H162.579C161.795 87.922 161.515 87.656 161.515 86.9V82.378H163.517V81.328H161.515V79.396H160.241V81.328H159.247V82.378H160.241V86.9ZM164.584 85.136C164.584 87.516 166.166 89.126 168.21 89.126C169.624 89.126 170.618 88.398 171.08 87.572V88.762C170.072 89.294 169.708 89.868 169.708 90.484C169.708 91.506 170.576 91.884 171.416 91.884C171.794 91.884 172.172 91.8 172.494 91.688V90.848C172.172 90.96 171.85 91.03 171.584 91.03C171.08 91.03 170.758 90.792 170.758 90.358C170.758 90.008 170.968 89.686 171.598 89.378L172.368 89V81.328H171.08V82.728C170.632 81.93 169.652 81.202 168.224 81.202C166.166 81.202 164.584 82.742 164.584 85.136ZM171.08 85.15C171.08 86.956 169.876 88.006 168.476 88.006C167.076 88.006 165.886 86.942 165.886 85.136C165.886 83.33 167.076 82.308 168.476 82.308C169.876 82.308 171.08 83.372 171.08 85.15ZM175.795 82.742V81.328H174.521V92.64H175.795V87.586C176.271 88.37 177.265 89.126 178.665 89.126C180.723 89.126 182.305 87.516 182.305 85.136C182.305 82.742 180.723 81.202 178.665 81.202C177.265 81.202 176.257 81.93 175.795 82.742ZM181.003 85.136C181.003 86.942 179.813 88.006 178.399 88.006C177.013 88.006 175.795 86.956 175.795 85.15C175.795 83.372 177.013 82.308 178.399 82.308C179.813 82.308 181.003 83.33 181.003 85.136ZM183.982 89H185.256V81.328H183.982V89ZM184.64 80.082C185.102 80.082 185.48 79.704 185.48 79.214C185.48 78.724 185.102 78.346 184.64 78.346C184.15 78.346 183.772 78.724 183.772 79.214C183.772 79.704 184.15 80.082 184.64 80.082ZM186.952 85.15C186.952 87.586 188.506 89.126 190.69 89.126C192.594 89.126 193.84 88.062 194.232 86.536H192.86C192.58 87.502 191.824 88.048 190.69 88.048C189.29 88.048 188.254 87.054 188.254 85.15C188.254 83.274 189.29 82.28 190.69 82.28C191.824 82.28 192.594 82.868 192.86 83.792H194.232C193.84 82.182 192.594 81.202 190.69 81.202C188.506 81.202 186.952 82.742 186.952 85.15ZM188.996 79.802V80.754L191.978 79.158V78.052L188.996 79.802ZM199.188 85.136C199.188 87.516 200.77 89.126 202.828 89.126C204.228 89.126 205.222 88.384 205.684 87.558V89.168C205.684 90.806 204.662 91.674 203.304 91.674C202.044 91.674 201.134 91.044 200.854 90.12H199.594C199.846 91.758 201.288 92.78 203.304 92.78C205.558 92.78 206.972 91.282 206.972 89.168V81.328H205.684V82.728C205.236 81.902 204.228 81.202 202.828 81.202C200.77 81.202 199.188 82.742 199.188 85.136ZM205.684 85.15C205.684 86.956 204.48 88.006 203.08 88.006C201.68 88.006 200.49 86.942 200.49 85.136C200.49 83.33 201.68 82.308 203.08 82.308C204.48 82.308 205.684 83.372 205.684 85.15ZM208.649 85.136C208.649 87.516 210.231 89.126 212.289 89.126C213.689 89.126 214.683 88.412 215.145 87.558V89H216.433V78.64H215.145V82.7C214.613 81.818 213.507 81.202 212.303 81.202C210.231 81.202 208.649 82.742 208.649 85.136ZM215.145 85.15C215.145 86.956 213.941 88.006 212.541 88.006C211.141 88.006 209.951 86.942 209.951 85.136C209.951 83.33 211.141 82.308 212.541 82.308C213.941 82.308 215.145 83.372 215.145 85.15ZM223.276 81.328H218.11V82.364H221.806L218.082 87.95V89H223.304V87.95H219.538L223.276 82.364V81.328ZM224.957 89H226.231V81.328H224.957V89ZM225.615 80.082C226.077 80.082 226.455 79.704 226.455 79.214C226.455 78.724 226.077 78.346 225.615 78.346C225.125 78.346 224.747 78.724 224.747 79.214C224.747 79.704 225.125 80.082 225.615 80.082ZM231.664 82.28C232.98 82.28 234.1 83.106 234.086 84.604H229.242C229.382 83.106 230.418 82.28 231.664 82.28ZM235.248 86.634H233.876C233.596 87.46 232.868 88.048 231.72 88.048C230.418 88.048 229.326 87.194 229.228 85.64H235.36C235.388 85.374 235.402 85.15 235.402 84.87C235.402 82.77 233.946 81.202 231.72 81.202C229.48 81.202 227.926 82.728 227.926 85.15C227.926 87.586 229.536 89.126 231.72 89.126C233.624 89.126 234.856 88.034 235.248 86.634ZM242.6 86.914C242.544 84.17 238.092 85.164 238.092 83.344C238.092 82.728 238.652 82.28 239.59 82.28C240.612 82.28 241.2 82.84 241.256 83.61H242.53C242.446 82.112 241.326 81.202 239.632 81.202C237.924 81.202 236.818 82.168 236.818 83.344C236.818 86.2 241.354 85.206 241.354 86.914C241.354 87.544 240.794 88.048 239.786 88.048C238.708 88.048 238.05 87.488 237.98 86.746H236.664C236.748 88.146 238.008 89.126 239.8 89.126C241.494 89.126 242.6 88.174 242.6 86.914ZM238.036 79.704V80.656L241.018 79.06V77.954L238.036 79.704ZM253.745 89H255.005V84.478C255.005 82.28 253.647 81.188 251.869 81.188C250.833 81.188 249.909 81.622 249.405 82.42V81.328H248.131V89H249.405V84.758C249.405 83.106 250.301 82.294 251.603 82.294C252.891 82.294 253.745 83.092 253.745 84.66V89ZM256.61 85.136C256.61 87.516 258.192 89.126 260.236 89.126C261.65 89.126 262.644 88.398 263.106 87.572V89H264.394V81.328H263.106V82.728C262.658 81.93 261.678 81.202 260.25 81.202C258.192 81.202 256.61 82.742 256.61 85.136ZM263.106 85.15C263.106 86.956 261.902 88.006 260.502 88.006C259.102 88.006 257.912 86.942 257.912 85.136C257.912 83.33 259.102 82.308 260.502 82.308C261.902 82.308 263.106 83.372 263.106 85.15ZM277.559 85.15C277.559 82.728 275.865 81.202 273.681 81.202C271.511 81.202 269.803 82.728 269.803 85.15C269.803 87.586 271.455 89.126 273.625 89.126C275.809 89.126 277.559 87.586 277.559 85.15ZM271.105 85.15C271.105 83.218 272.323 82.308 273.667 82.308C274.983 82.308 276.257 83.218 276.257 85.15C276.257 87.096 274.955 88.006 273.625 88.006C272.295 88.006 271.105 87.096 271.105 85.15ZM280.508 82.756V78.64H279.234V89H280.508V87.586C280.984 88.426 281.978 89.126 283.378 89.126C285.436 89.126 287.018 87.516 287.018 85.136C287.018 82.742 285.45 81.202 283.378 81.202C282.02 81.202 280.998 81.902 280.508 82.756ZM285.716 85.136C285.716 86.942 284.526 88.006 283.112 88.006C281.726 88.006 280.508 86.956 280.508 85.15C280.508 83.372 281.726 82.308 283.112 82.308C284.526 82.308 285.716 83.33 285.716 85.136ZM288.695 89H289.969V81.328H288.695V89ZM289.353 80.082C289.815 80.082 290.193 79.704 290.193 79.214C290.193 78.724 289.815 78.346 289.353 78.346C288.863 78.346 288.485 78.724 288.485 79.214C288.485 79.704 288.863 80.082 289.353 80.082ZM291.665 85.136C291.665 87.516 293.247 89.126 295.291 89.126C296.705 89.126 297.699 88.398 298.161 87.572V89H299.449V81.328H298.161V82.728C297.713 81.93 296.733 81.202 295.305 81.202C293.247 81.202 291.665 82.742 291.665 85.136ZM298.161 85.15C298.161 86.956 296.957 88.006 295.557 88.006C294.157 88.006 292.967 86.942 292.967 85.136C292.967 83.33 294.157 82.308 295.557 82.308C296.957 82.308 298.161 83.372 298.161 85.15ZM301.125 85.136C301.125 87.516 302.707 89.126 304.765 89.126C306.165 89.126 307.159 88.412 307.621 87.558V89H308.909V78.64H307.621V82.7C307.089 81.818 305.983 81.202 304.779 81.202C302.707 81.202 301.125 82.742 301.125 85.136ZM307.621 85.15C307.621 86.956 306.417 88.006 305.017 88.006C303.617 88.006 302.427 86.942 302.427 85.136C302.427 83.33 303.617 82.308 305.017 82.308C306.417 82.308 307.621 83.372 307.621 85.15ZM312.308 88.216C312.308 87.726 311.93 87.348 311.468 87.348C310.978 87.348 310.6 87.726 310.6 88.216C310.6 88.706 310.978 89.084 311.468 89.084C311.93 89.084 312.308 88.706 312.308 88.216ZM321.36 86.452C321.36 87.264 320.954 87.964 319.946 87.964C318.938 87.964 318.518 87.25 318.504 86.354H317.23C317.23 88.062 318.322 89.098 319.946 89.098C321.556 89.098 322.648 88.076 322.648 86.452V79.242H321.36V86.452ZM328.42 82.28C329.736 82.28 330.856 83.106 330.842 84.604H325.998C326.138 83.106 327.174 82.28 328.42 82.28ZM332.004 86.634H330.632C330.352 87.46 329.624 88.048 328.476 88.048C327.174 88.048 326.082 87.194 325.984 85.64H332.116C332.144 85.374 332.158 85.15 332.158 84.87C332.158 82.77 330.702 81.202 328.476 81.202C326.236 81.202 324.682 82.728 324.682 85.15C324.682 87.586 326.292 89.126 328.476 89.126C330.38 89.126 331.612 88.034 332.004 86.634ZM333.364 85.136C333.364 87.516 334.946 89.126 337.004 89.126C338.404 89.126 339.398 88.412 339.86 87.558V89H341.148V78.64H339.86V82.7C339.328 81.818 338.222 81.202 337.018 81.202C334.946 81.202 333.364 82.742 333.364 85.136ZM339.86 85.15C339.86 86.956 338.656 88.006 337.256 88.006C335.856 88.006 334.666 86.942 334.666 85.136C334.666 83.33 335.856 82.308 337.256 82.308C338.656 82.308 339.86 83.372 339.86 85.15ZM348.915 89H350.175V84.478C350.175 82.28 348.817 81.188 347.039 81.188C346.003 81.188 345.079 81.622 344.575 82.42V81.328H343.301V89H344.575V84.758C344.575 83.106 345.471 82.294 346.773 82.294C348.061 82.294 348.915 83.092 348.915 84.66V89ZM351.78 85.136C351.78 87.516 353.362 89.126 355.406 89.126C356.82 89.126 357.814 88.398 358.276 87.572V89H359.564V81.328H358.276V82.728C357.828 81.93 356.848 81.202 355.42 81.202C353.362 81.202 351.78 82.742 351.78 85.136ZM358.276 85.15C358.276 86.956 357.072 88.006 355.672 88.006C354.272 88.006 353.082 86.942 353.082 85.136C353.082 83.33 354.272 82.308 355.672 82.308C357.072 82.308 358.276 83.372 358.276 85.15ZM361.717 89H362.991V85.612L366.001 89H367.737L364.111 85.15L367.723 81.328H365.945L362.991 84.73V78.64H361.717V89ZM373.928 82.756V78.64H372.654V89H373.928V87.586C374.404 88.426 375.398 89.126 376.798 89.126C378.856 89.126 380.438 87.516 380.438 85.136C380.438 82.742 378.87 81.202 376.798 81.202C375.44 81.202 374.418 81.902 373.928 82.756ZM379.136 85.136C379.136 86.942 377.946 88.006 376.532 88.006C375.146 88.006 373.928 86.956 373.928 85.15C373.928 83.372 375.146 82.308 376.532 82.308C377.946 82.308 379.136 83.33 379.136 85.136ZM385.027 87.544L382.619 81.328H381.205L384.299 88.916L382.787 92.612H384.103L388.723 81.328H387.407L385.027 87.544ZM390.046 89H391.32V83.792L392.314 83.4V82.406L391.32 82.784V78.64H390.046V83.288L389.052 83.666V84.674L390.046 84.282V89ZM393.041 85.136C393.041 87.516 394.623 89.126 396.667 89.126C398.081 89.126 399.075 88.398 399.537 87.572V89H400.825V81.328H399.537V82.728C399.089 81.93 398.109 81.202 396.681 81.202C394.623 81.202 393.041 82.742 393.041 85.136ZM399.537 85.15C399.537 86.956 398.333 88.006 396.933 88.006C395.533 88.006 394.343 86.942 394.343 85.136C394.343 83.33 395.533 82.308 396.933 82.308C398.333 82.308 399.537 83.372 399.537 85.15ZM3.576 110H4.892L6.74 103.91L8.588 110H9.904L12.298 102.328H11.038L9.302 108.782L7.44 102.328H6.138L4.234 108.768L2.47 102.328H1.168L3.576 110ZM14.8364 105.828C14.8364 104.05 15.7604 103.504 16.9784 103.504H17.3144V102.188C16.0964 102.188 15.2704 102.72 14.8364 103.574V102.328H13.5624V110H14.8364V105.828ZM18.309 106.136C18.309 108.516 19.891 110.126 21.935 110.126C23.349 110.126 24.343 109.398 24.805 108.572V110H26.093V102.328H24.805V103.728C24.357 102.93 23.377 102.202 21.949 102.202C19.891 102.202 18.309 103.742 18.309 106.136ZM24.805 106.15C24.805 107.956 23.601 109.006 22.201 109.006C20.801 109.006 19.611 107.942 19.611 106.136C19.611 104.33 20.801 103.308 22.201 103.308C23.601 103.308 24.805 104.372 24.805 106.15ZM32.936 102.328H27.77V103.364H31.466L27.742 108.95V110H32.964V108.95H29.198L32.936 103.364V102.328ZM43.0395 102.328H37.8735V103.364H41.5695L37.8455 108.95V110H43.0675V108.95H39.3015L43.0395 103.364V102.328ZM47.9826 103.28C49.2986 103.28 50.4186 104.106 50.4046 105.604H45.5606C45.7006 104.106 46.7366 103.28 47.9826 103.28ZM51.5666 107.634H50.1946C49.9146 108.46 49.1866 109.048 48.0386 109.048C46.7366 109.048 45.6446 108.194 45.5466 106.64H51.6786C51.7066 106.374 51.7206 106.15 51.7206 105.87C51.7206 103.77 50.2646 102.202 48.0386 102.202C45.7986 102.202 44.2446 103.728 44.2446 106.15C44.2446 108.586 45.8546 110.126 48.0386 110.126C49.9426 110.126 51.1746 109.034 51.5666 107.634ZM62.6506 107.914C62.5946 105.17 58.1426 106.164 58.1426 104.344C58.1426 103.728 58.7026 103.28 59.6406 103.28C60.6626 103.28 61.2506 103.84 61.3066 104.61H62.5806C62.4966 103.112 61.3766 102.202 59.6826 102.202C57.9746 102.202 56.8686 103.168 56.8686 104.344C56.8686 107.2 61.4046 106.206 61.4046 107.914C61.4046 108.544 60.8446 109.048 59.8366 109.048C58.7586 109.048 58.1006 108.488 58.0306 107.746H56.7146C56.7986 109.146 58.0586 110.126 59.8506 110.126C61.5446 110.126 62.6506 109.174 62.6506 107.914ZM65.9471 110H67.2631L69.1111 103.91L70.9591 110H72.2751L74.6691 102.328H73.4091L71.6731 108.782L69.8111 102.328H68.5091L66.6051 108.768L64.8411 102.328H63.5391L65.9471 110ZM83.2135 106.15C83.2135 103.728 81.5195 102.202 79.3355 102.202C77.1655 102.202 75.4575 103.728 75.4575 106.15C75.4575 108.586 77.1095 110.126 79.2795 110.126C81.4635 110.126 83.2135 108.586 83.2135 106.15ZM76.7595 106.15C76.7595 104.218 77.9775 103.308 79.3215 103.308C80.6375 103.308 81.9115 104.218 81.9115 106.15C81.9115 108.096 80.6095 109.006 79.2795 109.006C77.9495 109.006 76.7595 108.096 76.7595 106.15ZM84.8885 110H86.1625V102.328H84.8885V110ZM85.5465 101.082C86.0085 101.082 86.3865 100.704 86.3865 100.214C86.3865 99.724 86.0085 99.346 85.5465 99.346C85.0565 99.346 84.6785 99.724 84.6785 100.214C84.6785 100.704 85.0565 101.082 85.5465 101.082ZM99.4079 110H100.668V105.478C100.668 103.28 99.3099 102.188 97.5599 102.188C96.3839 102.188 95.2919 102.79 94.8439 103.896C94.3399 102.748 93.2899 102.188 92.0299 102.188C91.0219 102.188 90.1119 102.622 89.6079 103.434V102.328H88.3339V110H89.6079V105.772C89.6079 104.12 90.4899 103.294 91.7779 103.294C93.0379 103.294 93.8779 104.092 93.8779 105.66V110H95.1379V105.772C95.1379 104.12 96.0199 103.294 97.3079 103.294C98.5679 103.294 99.4079 104.092 99.4079 105.66V110ZM107.764 103.742V102.328H106.49V113.64H107.764V108.586C108.24 109.37 109.234 110.126 110.634 110.126C112.692 110.126 114.274 108.516 114.274 106.136C114.274 103.742 112.692 102.202 110.634 102.202C109.234 102.202 108.226 102.93 107.764 103.742ZM112.972 106.136C112.972 107.942 111.782 109.006 110.368 109.006C108.982 109.006 107.764 107.956 107.764 106.15C107.764 104.372 108.982 103.308 110.368 103.308C111.782 103.308 112.972 104.33 112.972 106.136ZM122.755 102.328H121.481V106.542C121.481 108.194 120.599 109.006 119.283 109.006C117.995 109.006 117.141 108.208 117.141 106.654V102.328H115.881V106.822C115.881 109.02 117.267 110.112 119.031 110.112C120.053 110.112 120.991 109.664 121.481 108.866V110H122.755V102.328ZM126.18 103.742V102.328H124.906V113.64H126.18V108.586C126.656 109.37 127.65 110.126 129.05 110.126C131.108 110.126 132.69 108.516 132.69 106.136C132.69 103.742 131.108 102.202 129.05 102.202C127.65 102.202 126.642 102.93 126.18 103.742ZM131.388 106.136C131.388 107.942 130.198 109.006 128.784 109.006C127.398 109.006 126.18 107.956 126.18 106.15C126.18 104.372 127.398 103.308 128.784 103.308C130.198 103.308 131.388 104.33 131.388 106.136ZM134.367 110H135.641V102.328H134.367V110ZM135.025 101.082C135.487 101.082 135.865 100.704 135.865 100.214C135.865 99.724 135.487 99.346 135.025 99.346C134.535 99.346 134.157 99.724 134.157 100.214C134.157 100.704 134.535 101.082 135.025 101.082ZM137.812 110H139.086V99.64H137.812V110ZM144.52 103.28C145.836 103.28 146.956 104.106 146.942 105.604H142.098C142.238 104.106 143.274 103.28 144.52 103.28ZM148.104 107.634H146.732C146.452 108.46 145.724 109.048 144.576 109.048C143.274 109.048 142.182 108.194 142.084 106.64H148.216C148.244 106.374 148.258 106.15 148.258 105.87C148.258 103.77 146.802 102.202 144.576 102.202C142.336 102.202 140.782 103.728 140.782 106.15C140.782 108.586 142.392 110.126 144.576 110.126C146.48 110.126 147.712 109.034 148.104 107.634ZM161.013 110H162.273V105.478C162.273 103.28 160.915 102.188 159.165 102.188C157.989 102.188 156.897 102.79 156.449 103.896C155.945 102.748 154.895 102.188 153.635 102.188C152.627 102.188 151.717 102.622 151.213 103.434V102.328H149.939V110H151.213V105.772C151.213 104.12 152.095 103.294 153.383 103.294C154.643 103.294 155.483 104.092 155.483 105.66V110H156.743V105.772C156.743 104.12 157.625 103.294 158.913 103.294C160.173 103.294 161.013 104.092 161.013 105.66V110ZM165.609 109.216C165.609 108.726 165.231 108.348 164.769 108.348C164.279 108.348 163.901 108.726 163.901 109.216C163.901 109.706 164.279 110.084 164.769 110.084C165.231 110.084 165.609 109.706 165.609 109.216ZM177.377 107.34C177.377 103.728 172.113 105.296 172.113 102.776C172.113 101.726 172.939 101.18 173.989 101.208C175.179 101.222 175.795 101.964 175.879 102.622H177.279C177.125 101.138 175.907 100.116 174.045 100.116C172.113 100.116 170.811 101.208 170.811 102.818C170.811 106.444 176.089 104.764 176.089 107.396C176.089 108.32 175.361 109.02 174.129 109.02C172.771 109.02 172.197 108.208 172.113 107.396H170.755C170.783 109.006 172.169 110.098 174.129 110.098C176.243 110.098 177.377 108.726 177.377 107.34ZM180.526 103.742V102.328H179.252V113.64H180.526V108.586C181.002 109.37 181.996 110.126 183.396 110.126C185.454 110.126 187.036 108.516 187.036 106.136C187.036 103.742 185.454 102.202 183.396 102.202C181.996 102.202 180.988 102.93 180.526 103.742ZM185.734 106.136C185.734 107.942 184.544 109.006 183.13 109.006C181.744 109.006 180.526 107.956 180.526 106.15C180.526 104.372 181.744 103.308 183.13 103.308C184.544 103.308 185.734 104.33 185.734 106.136ZM189.987 105.828C189.987 104.05 190.911 103.504 192.129 103.504H192.465V102.188C191.247 102.188 190.421 102.72 189.987 103.574V102.328H188.713V110H189.987V105.828ZM193.459 106.136C193.459 108.516 195.041 110.126 197.085 110.126C198.499 110.126 199.493 109.398 199.955 108.572V110H201.243V102.328H199.955V103.728C199.507 102.93 198.527 102.202 197.099 102.202C195.041 102.202 193.459 103.742 193.459 106.136ZM199.955 106.15C199.955 107.956 198.751 109.006 197.351 109.006C195.951 109.006 194.761 107.942 194.761 106.136C194.761 104.33 195.951 103.308 197.351 103.308C198.751 103.308 199.955 104.372 199.955 106.15ZM204.894 110H206.21L208.058 103.91L209.906 110H211.222L213.616 102.328H212.356L210.62 108.782L208.758 102.328H207.456L205.552 108.768L203.788 102.328H202.486L204.894 110ZM214.405 106.136C214.405 108.516 215.987 110.126 218.045 110.126C219.445 110.126 220.439 109.412 220.901 108.558V110H222.189V99.64H220.901V103.7C220.369 102.818 219.263 102.202 218.059 102.202C215.987 102.202 214.405 103.742 214.405 106.136ZM220.901 106.15C220.901 107.956 219.697 109.006 218.297 109.006C216.897 109.006 215.707 107.942 215.707 106.136C215.707 104.33 216.897 103.308 218.297 103.308C219.697 103.308 220.901 104.372 220.901 106.15ZM229.032 102.328H223.866V103.364H227.562L223.838 108.95V110H229.06V108.95H225.294L229.032 103.364V102.328ZM230.713 110H231.987V102.328H230.713V110ZM231.371 101.082C231.833 101.082 232.211 100.704 232.211 100.214C232.211 99.724 231.833 99.346 231.371 99.346C230.881 99.346 230.503 99.724 230.503 100.214C230.503 100.704 230.881 101.082 231.371 101.082ZM234.2 110H235.474V104.792L236.468 104.4V103.406L235.474 103.784V99.64H234.2V104.288L233.206 104.666V105.674L234.2 105.282V110ZM237.196 106.136C237.196 108.516 238.778 110.126 240.822 110.126C242.236 110.126 243.23 109.398 243.692 108.572V110H244.98V102.328H243.692V103.728C243.244 102.93 242.264 102.202 240.836 102.202C238.778 102.202 237.196 103.742 237.196 106.136ZM243.692 106.15C243.692 107.956 242.488 109.006 241.088 109.006C239.688 109.006 238.498 107.942 238.498 106.136C238.498 104.33 239.688 103.308 241.088 103.308C242.488 103.308 243.692 104.372 243.692 106.15ZM252.363 110H253.679L255.527 103.91L257.375 110H258.691L261.085 102.328H259.825L258.089 108.782L256.227 102.328H254.925L253.021 108.768L251.257 102.328H249.955L252.363 110ZM262.349 110H263.623V102.328H262.349V110ZM263.007 101.082C263.469 101.082 263.847 100.704 263.847 100.214C263.847 99.724 263.469 99.346 263.007 99.346C262.517 99.346 262.139 99.724 262.139 100.214C262.139 100.704 262.517 101.082 263.007 101.082ZM269.057 103.28C270.373 103.28 271.493 104.106 271.479 105.604H266.635C266.775 104.106 267.811 103.28 269.057 103.28ZM270.723 112.492V111.652C270.401 111.764 270.079 111.834 269.813 111.834C269.309 111.834 268.987 111.596 268.987 111.162C268.987 110.812 269.197 110.49 269.827 110.182L270.219 109.986C271.493 109.65 272.333 108.74 272.641 107.634H271.269C270.989 108.46 270.261 109.048 269.113 109.048C267.811 109.048 266.719 108.194 266.621 106.64H272.753C272.781 106.374 272.795 106.15 272.795 105.87C272.795 103.77 271.339 102.202 269.113 102.202C266.873 102.202 265.319 103.728 265.319 106.15C265.319 108.362 266.649 109.846 268.539 110.084C268.105 110.462 267.937 110.868 267.937 111.288C267.937 112.31 268.805 112.688 269.645 112.688C270.023 112.688 270.401 112.604 270.723 112.492ZM274 106.15C274 108.586 275.554 110.126 277.738 110.126C279.642 110.126 280.888 109.062 281.28 107.536H279.908C279.628 108.502 278.872 109.048 277.738 109.048C276.338 109.048 275.302 108.054 275.302 106.15C275.302 104.274 276.338 103.28 277.738 103.28C278.872 103.28 279.642 103.868 279.908 104.792H281.28C280.888 103.182 279.642 102.202 277.738 102.202C275.554 102.202 274 103.742 274 106.15ZM288.211 110H289.527L291.375 103.91L293.223 110H294.539L296.933 102.328H295.673L293.937 108.782L292.075 102.328H290.773L288.869 108.768L287.105 102.328H285.803L288.211 110ZM303.904 110.014L305.318 110L307.67 102.146L309.938 110H311.366L314.194 100.242H312.822L310.68 108.488L308.44 100.242H307.012L304.66 108.516L302.532 100.242H301.174L303.904 110.014ZM315.112 106.136C315.112 108.516 316.694 110.126 318.738 110.126C320.152 110.126 321.146 109.398 321.608 108.572V110H322.896V102.328H321.608V103.728C321.16 102.93 320.18 102.202 318.752 102.202C316.694 102.202 315.112 103.742 315.112 106.136ZM321.608 106.15C321.608 107.956 320.404 109.006 319.004 109.006C317.604 109.006 316.414 107.942 316.414 106.136C316.414 104.33 317.604 103.308 319.004 103.308C320.404 103.308 321.608 104.372 321.608 106.15ZM325.049 110H326.323V99.64H325.049V110ZM328.494 110H329.768V106.612L332.778 110H334.514L330.888 106.15L334.5 102.328H332.722L329.768 105.73V99.64H328.494V110ZM335.699 110H336.973V102.328H335.699V110ZM336.357 101.082C336.819 101.082 337.197 100.704 337.197 100.214C337.197 99.724 336.819 99.346 336.357 99.346C335.867 99.346 335.489 99.724 335.489 100.214C335.489 100.704 335.867 101.082 336.357 101.082ZM342.406 103.28C343.722 103.28 344.842 104.106 344.828 105.604H339.984C340.124 104.106 341.16 103.28 342.406 103.28ZM345.99 107.634H344.618C344.338 108.46 343.61 109.048 342.462 109.048C341.16 109.048 340.068 108.194 339.97 106.64H346.102C346.13 106.374 346.144 106.15 346.144 105.87C346.144 103.77 344.688 102.202 342.462 102.202C340.222 102.202 338.668 103.728 338.668 106.15C338.668 108.586 340.278 110.126 342.462 110.126C344.366 110.126 345.598 109.034 345.99 107.634ZM350.864 100.242H347.826V110H350.864C354.07 110 356.044 108.166 356.044 105.142C356.044 102.118 354.07 100.242 350.864 100.242ZM349.1 108.95V101.278H350.864C353.412 101.278 354.742 102.762 354.742 105.142C354.742 107.522 353.412 108.95 350.864 108.95H349.1ZM365.004 106.15C365.004 103.728 363.31 102.202 361.126 102.202C358.956 102.202 357.248 103.728 357.248 106.15C357.248 108.586 358.9 110.126 361.07 110.126C363.254 110.126 365.004 108.586 365.004 106.15ZM358.55 106.15C358.55 104.218 359.768 103.308 361.112 103.308C362.428 103.308 363.702 104.218 363.702 106.15C363.702 108.096 362.4 109.006 361.07 109.006C359.74 109.006 358.55 108.096 358.55 106.15ZM366.204 106.136C366.204 108.516 367.786 110.126 369.844 110.126C371.244 110.126 372.238 109.384 372.7 108.558V110.168C372.7 111.806 371.678 112.674 370.32 112.674C369.06 112.674 368.15 112.044 367.87 111.12H366.61C366.862 112.758 368.304 113.78 370.32 113.78C372.574 113.78 373.988 112.282 373.988 110.168V102.328H372.7V103.728C372.252 102.902 371.244 102.202 369.844 102.202C367.786 102.202 366.204 103.742 366.204 106.136ZM372.7 106.15C372.7 107.956 371.496 109.006 370.096 109.006C368.696 109.006 367.506 107.942 367.506 106.136C367.506 104.33 368.696 103.308 370.096 103.308C371.496 103.308 372.7 104.372 372.7 106.15ZM375.665 106.136C375.665 108.516 377.247 110.126 379.305 110.126C380.705 110.126 381.699 109.384 382.161 108.558V110.168C382.161 111.806 381.139 112.674 379.781 112.674C378.521 112.674 377.611 112.044 377.331 111.12H376.071C376.323 112.758 377.765 113.78 379.781 113.78C382.035 113.78 383.449 112.282 383.449 110.168V102.328H382.161V103.728C381.713 102.902 380.705 102.202 379.305 102.202C377.247 102.202 375.665 103.742 375.665 106.136ZM382.161 106.15C382.161 107.956 380.957 109.006 379.557 109.006C378.157 109.006 376.967 107.942 376.967 106.136C376.967 104.33 378.157 103.308 379.557 103.308C380.957 103.308 382.161 104.372 382.161 106.15ZM385.601 110H386.875V102.328H385.601V110ZM386.259 101.082C386.721 101.082 387.099 100.704 387.099 100.214C387.099 99.724 386.721 99.346 386.259 99.346C385.769 99.346 385.391 99.724 385.391 100.214C385.391 100.704 385.769 101.082 386.259 101.082ZM392.309 103.28C393.625 103.28 394.745 104.106 394.731 105.604H389.887C390.027 104.106 391.063 103.28 392.309 103.28ZM395.893 107.634H394.521C394.241 108.46 393.513 109.048 392.365 109.048C391.063 109.048 389.971 108.194 389.873 106.64H396.005C396.033 106.374 396.047 106.15 396.047 105.87C396.047 103.77 394.591 102.202 392.365 102.202C390.125 102.202 388.571 103.728 388.571 106.15C388.571 108.586 390.181 110.126 392.365 110.126C394.269 110.126 395.501 109.034 395.893 107.634ZM2.764 122.082C3.24 122.082 3.618 121.704 3.618 121.214C3.618 120.724 3.24 120.346 2.764 120.346C2.288 120.346 1.91 120.724 1.91 121.214C1.91 121.704 2.288 122.082 2.764 122.082ZM2.12 123.328V132.638C2.12 133.31 1.854 133.562 1.154 133.562H0.622V134.64H1.364C2.666 134.64 3.394 134.052 3.394 132.666V123.328H2.12ZM5.07466 127.136C5.07466 129.516 6.65666 131.126 8.70066 131.126C10.1147 131.126 11.1087 130.398 11.5707 129.572V131H12.8587V123.328H11.5707V124.728C11.1227 123.93 10.1427 123.202 8.71466 123.202C6.65666 123.202 5.07466 124.742 5.07466 127.136ZM11.5707 127.15C11.5707 128.956 10.3667 130.006 8.96666 130.006C7.56666 130.006 6.37666 128.942 6.37666 127.136C6.37666 125.33 7.56666 124.308 8.96666 124.308C10.3667 124.308 11.5707 125.372 11.5707 127.15ZM15.0116 131H16.2856V127.612L19.2956 131H21.0316L17.4056 127.15L21.0176 123.328H19.2396L16.2856 126.73V120.64H15.0116V131ZM22.2167 131H23.4907V123.328H22.2167V131ZM22.8747 122.082C23.3367 122.082 23.7147 121.704 23.7147 121.214C23.7147 120.724 23.3367 120.346 22.8747 120.346C22.3847 120.346 22.0067 120.724 22.0067 121.214C22.0067 121.704 22.3847 122.082 22.8747 122.082ZM28.924 124.28C30.24 124.28 31.36 125.106 31.346 126.604H26.502C26.642 125.106 27.678 124.28 28.924 124.28ZM32.508 128.634H31.136C30.856 129.46 30.128 130.048 28.98 130.048C27.678 130.048 26.586 129.194 26.488 127.64H32.62C32.648 127.374 32.662 127.15 32.662 126.87C32.662 124.77 31.206 123.202 28.98 123.202C26.74 123.202 25.186 124.728 25.186 127.15C25.186 129.586 26.796 131.126 28.98 131.126C30.884 131.126 32.116 130.034 32.508 128.634ZM39.35 126.828C39.35 125.05 40.274 124.504 41.492 124.504H41.828V123.188C40.61 123.188 39.784 123.72 39.35 124.574V123.328H38.076V131H39.35V126.828ZM46.5607 124.28C47.8767 124.28 48.9967 125.106 48.9827 126.604H44.1387C44.2787 125.106 45.3147 124.28 46.5607 124.28ZM50.1447 128.634H48.7727C48.4927 129.46 47.7647 130.048 46.6167 130.048C45.3147 130.048 44.2227 129.194 44.1247 127.64H50.2567C50.2847 127.374 50.2987 127.15 50.2987 126.87C50.2987 124.77 48.8427 123.202 46.6167 123.202C44.3767 123.202 42.8227 124.728 42.8227 127.15C42.8227 129.586 44.4327 131.126 46.6167 131.126C48.5207 131.126 49.7527 130.034 50.1447 128.634ZM57.4963 128.914C57.4403 126.17 52.9883 127.164 52.9883 125.344C52.9883 124.728 53.5483 124.28 54.4863 124.28C55.5083 124.28 56.0963 124.84 56.1523 125.61H57.4263C57.3423 124.112 56.2223 123.202 54.5283 123.202C52.8203 123.202 51.7143 124.168 51.7143 125.344C51.7143 128.2 56.2503 127.206 56.2503 128.914C56.2503 129.544 55.6903 130.048 54.6823 130.048C53.6043 130.048 52.9463 129.488 52.8763 128.746H51.5603C51.6443 130.146 52.9043 131.126 54.6963 131.126C56.3903 131.126 57.4963 130.174 57.4963 128.914ZM59.5748 128.9C59.5748 130.44 60.3448 131 61.7028 131H62.8508V129.922H61.9128C61.1288 129.922 60.8488 129.656 60.8488 128.9V124.378H62.8508V123.328H60.8488V121.396H59.5748V123.328H58.5808V124.378H59.5748V128.9ZM63.9184 127.136C63.9184 129.516 65.5004 131.126 67.5444 131.126C68.9584 131.126 69.9524 130.398 70.4144 129.572V131H71.7024V123.328H70.4144V124.728C69.9664 123.93 68.9864 123.202 67.5584 123.202C65.5004 123.202 63.9184 124.742 63.9184 127.136ZM70.4144 127.15C70.4144 128.956 69.2104 130.006 67.8104 130.006C66.4104 130.006 65.2204 128.942 65.2204 127.136C65.2204 125.33 66.4104 124.308 67.8104 124.308C69.2104 124.308 70.4144 125.372 70.4144 127.15ZM80.6593 123.328H79.3853V127.542C79.3853 129.194 78.5033 130.006 77.1873 130.006C75.8993 130.006 75.0453 129.208 75.0453 127.654V123.328H73.7853V127.822C73.7853 130.02 75.1713 131.112 76.9353 131.112C77.9573 131.112 78.8953 130.664 79.3853 129.866V131H80.6593V123.328ZM84.0844 126.828C84.0844 125.05 85.0084 124.504 86.2264 124.504H86.5624V123.188C85.3444 123.188 84.5184 123.72 84.0844 124.574V123.328H82.8104V131H84.0844V126.828ZM87.5571 127.136C87.5571 129.516 89.1391 131.126 91.1831 131.126C92.5971 131.126 93.5911 130.398 94.0531 129.572V131H95.3411V123.328H94.0531V124.728C93.6051 123.93 92.6251 123.202 91.1971 123.202C89.1391 123.202 87.5571 124.742 87.5571 127.136ZM94.0531 127.15C94.0531 128.956 92.8491 130.006 91.4491 130.006C90.0491 130.006 88.8591 128.942 88.8591 127.136C88.8591 125.33 90.0491 124.308 91.4491 124.308C92.8491 124.308 94.0531 125.372 94.0531 127.15ZM97.018 127.15C97.018 129.586 98.572 131.126 100.756 131.126C102.66 131.126 103.906 130.062 104.298 128.536H102.926C102.646 129.502 101.89 130.048 100.756 130.048C99.356 130.048 98.32 129.054 98.32 127.15C98.32 125.274 99.356 124.28 100.756 124.28C101.89 124.28 102.66 124.868 102.926 125.792H104.298C103.906 124.182 102.66 123.202 100.756 123.202C98.572 123.202 97.018 124.742 97.018 127.15ZM106.684 122.082C107.16 122.082 107.538 121.704 107.538 121.214C107.538 120.724 107.16 120.346 106.684 120.346C106.208 120.346 105.83 120.724 105.83 121.214C105.83 121.704 106.208 122.082 106.684 122.082ZM106.04 123.328V132.638C106.04 133.31 105.774 133.562 105.074 133.562H104.542V134.64H105.284C106.586 134.64 107.314 134.052 107.314 132.666V123.328H106.04ZM112.733 124.28C114.049 124.28 115.169 125.106 115.155 126.604H110.311C110.451 125.106 111.487 124.28 112.733 124.28ZM116.317 128.634H114.945C114.665 129.46 113.937 130.048 112.789 130.048C111.487 130.048 110.395 129.194 110.297 127.64H116.429C116.457 127.374 116.471 127.15 116.471 126.87C116.471 124.77 115.015 123.202 112.789 123.202C110.549 123.202 108.995 124.728 108.995 127.15C108.995 129.586 110.605 131.126 112.789 131.126C114.693 131.126 115.925 130.034 116.317 128.634ZM127.401 128.914C127.345 126.17 122.893 127.164 122.893 125.344C122.893 124.728 123.453 124.28 124.391 124.28C125.413 124.28 126.001 124.84 126.057 125.61H127.331C127.247 124.112 126.127 123.202 124.433 123.202C122.725 123.202 121.619 124.168 121.619 125.344C121.619 128.2 126.155 127.206 126.155 128.914C126.155 129.544 125.595 130.048 124.587 130.048C123.509 130.048 122.851 129.488 122.781 128.746H121.465C121.549 130.146 122.809 131.126 124.601 131.126C126.295 131.126 127.401 130.174 127.401 128.914ZM128.723 127.136C128.723 129.516 130.305 131.126 132.349 131.126C133.763 131.126 134.757 130.398 135.219 129.572V130.762C134.211 131.294 133.847 131.868 133.847 132.484C133.847 133.506 134.715 133.884 135.555 133.884C135.933 133.884 136.311 133.8 136.633 133.688V132.848C136.311 132.96 135.989 133.03 135.723 133.03C135.219 133.03 134.897 132.792 134.897 132.358C134.897 132.008 135.107 131.686 135.737 131.378L136.507 131V123.328H135.219V124.728C134.771 123.93 133.791 123.202 132.363 123.202C130.305 123.202 128.723 124.742 128.723 127.136ZM135.219 127.15C135.219 128.956 134.015 130.006 132.615 130.006C131.215 130.006 130.025 128.942 130.025 127.136C130.025 125.33 131.215 124.308 132.615 124.308C134.015 124.308 135.219 125.372 135.219 127.15ZM143.666 124.742V123.328H142.392V134.64H143.666V129.586C144.142 130.37 145.136 131.126 146.536 131.126C148.594 131.126 150.176 129.516 150.176 127.136C150.176 124.742 148.594 123.202 146.536 123.202C145.136 123.202 144.128 123.93 143.666 124.742ZM148.874 127.136C148.874 128.942 147.684 130.006 146.27 130.006C144.884 130.006 143.666 128.956 143.666 127.15C143.666 125.372 144.884 124.308 146.27 124.308C147.684 124.308 148.874 125.33 148.874 127.136ZM153.127 126.828C153.127 125.05 154.051 124.504 155.269 124.504H155.605V123.188C154.387 123.188 153.561 123.72 153.127 124.574V123.328H151.853V131H153.127V126.828ZM161.766 123.328H156.6V124.364H160.296L156.572 129.95V131H161.794V129.95H158.028L161.766 124.364V123.328ZM166.359 129.544L163.951 123.328H162.537L165.631 130.916L164.119 134.612H165.435L170.055 123.328H168.739L166.359 129.544ZM172.022 122.082C172.498 122.082 172.876 121.704 172.876 121.214C172.876 120.724 172.498 120.346 172.022 120.346C171.546 120.346 171.168 120.724 171.168 121.214C171.168 121.704 171.546 122.082 172.022 122.082ZM171.378 123.328V132.638C171.378 133.31 171.112 133.562 170.412 133.562H169.88V134.64H170.622C171.924 134.64 172.652 134.052 172.652 132.666V123.328H171.378ZM174.332 127.136C174.332 129.516 175.914 131.126 177.958 131.126C179.372 131.126 180.366 130.398 180.828 129.572V131H182.116V123.328H180.828V124.728C180.38 123.93 179.4 123.202 177.972 123.202C175.914 123.202 174.332 124.742 174.332 127.136ZM180.828 127.15C180.828 128.956 179.624 130.006 178.224 130.006C176.824 130.006 175.634 128.942 175.634 127.136C175.634 125.33 176.824 124.308 178.224 124.308C179.624 124.308 180.828 125.372 180.828 127.15ZM188.959 123.328H183.793V124.364H187.489L183.765 129.95V131H188.987V129.95H185.221L188.959 124.364V123.328ZM196.255 131H197.515V126.478C197.515 124.28 196.157 123.188 194.379 123.188C193.343 123.188 192.419 123.622 191.915 124.42V123.328H190.641V131H191.915V126.758C191.915 125.106 192.811 124.294 194.113 124.294C195.401 124.294 196.255 125.092 196.255 126.66V131ZM202.858 124.28C204.174 124.28 205.294 125.106 205.28 126.604H200.436C200.576 125.106 201.612 124.28 202.858 124.28ZM206.442 128.634H205.07C204.79 129.46 204.062 130.048 202.914 130.048C201.612 130.048 200.52 129.194 200.422 127.64H206.554C206.582 127.374 206.596 127.15 206.596 126.87C206.596 124.77 205.14 123.202 202.914 123.202C200.674 123.202 199.12 124.728 199.12 127.15C199.12 129.586 200.73 131.126 202.914 131.126C204.818 131.126 206.05 130.034 206.442 128.634ZM213.284 124.742V123.328H212.01V134.64H213.284V129.586C213.76 130.37 214.754 131.126 216.154 131.126C218.212 131.126 219.794 129.516 219.794 127.136C219.794 124.742 218.212 123.202 216.154 123.202C214.754 123.202 213.746 123.93 213.284 124.742ZM218.492 127.136C218.492 128.942 217.302 130.006 215.888 130.006C214.502 130.006 213.284 128.956 213.284 127.15C213.284 125.372 214.502 124.308 215.888 124.308C217.302 124.308 218.492 125.33 218.492 127.136ZM226.987 128.914C226.931 126.17 222.479 127.164 222.479 125.344C222.479 124.728 223.039 124.28 223.977 124.28C224.999 124.28 225.587 124.84 225.643 125.61H226.917C226.833 124.112 225.713 123.202 224.019 123.202C222.311 123.202 221.205 124.168 221.205 125.344C221.205 128.2 225.741 127.206 225.741 128.914C225.741 129.544 225.181 130.048 224.173 130.048C223.095 130.048 222.437 129.488 222.367 128.746H221.051C221.135 130.146 222.395 131.126 224.187 131.126C225.881 131.126 226.987 130.174 226.987 128.914ZM236.065 127.15C236.065 124.728 234.371 123.202 232.187 123.202C230.017 123.202 228.309 124.728 228.309 127.15C228.309 129.586 229.961 131.126 232.131 131.126C234.315 131.126 236.065 129.586 236.065 127.15ZM229.611 127.15C229.611 125.218 230.829 124.308 232.173 124.308C233.489 124.308 234.763 125.218 234.763 127.15C234.763 129.096 233.461 130.006 232.131 130.006C230.801 130.006 229.611 129.096 229.611 127.15ZM248.814 131H250.074V126.478C250.074 124.28 248.716 123.188 246.966 123.188C245.79 123.188 244.698 123.79 244.25 124.896C243.746 123.748 242.696 123.188 241.436 123.188C240.428 123.188 239.518 123.622 239.014 124.434V123.328H237.74V131H239.014V126.772C239.014 125.12 239.896 124.294 241.184 124.294C242.444 124.294 243.284 125.092 243.284 126.66V131H244.544V126.772C244.544 125.12 245.426 124.294 246.714 124.294C247.974 124.294 248.814 125.092 248.814 126.66V131ZM255.896 131H257.17V123.328H255.896V131ZM256.554 122.082C257.016 122.082 257.394 121.704 257.394 121.214C257.394 120.724 257.016 120.346 256.554 120.346C256.064 120.346 255.686 120.724 255.686 121.214C255.686 121.704 256.064 122.082 256.554 122.082ZM263.76 122.082C264.236 122.082 264.614 121.704 264.614 121.214C264.614 120.724 264.236 120.346 263.76 120.346C263.284 120.346 262.906 120.724 262.906 121.214C262.906 121.704 263.284 122.082 263.76 122.082ZM263.116 123.328V132.638C263.116 133.31 262.85 133.562 262.15 133.562H261.618V134.64H262.36C263.662 134.64 264.39 134.052 264.39 132.666V123.328H263.116ZM273.351 123.328H272.077V127.542C272.077 129.194 271.195 130.006 269.879 130.006C268.591 130.006 267.737 129.208 267.737 127.654V123.328H266.477V127.822C266.477 130.02 267.863 131.112 269.627 131.112C270.649 131.112 271.587 130.664 272.077 129.866V131H273.351V123.328ZM280.192 123.328H275.026V124.364H278.722L274.998 129.95V131H280.22V129.95H276.454L280.192 124.364V123.328ZM277.63 122.362C278.036 122.362 278.358 122.04 278.358 121.634C278.358 121.228 278.036 120.892 277.63 120.892C277.21 120.892 276.888 121.228 276.888 121.634C276.888 122.04 277.21 122.362 277.63 122.362ZM286.879 124.742V123.328H285.605V134.64H286.879V129.586C287.355 130.37 288.349 131.126 289.749 131.126C291.807 131.126 293.389 129.516 293.389 127.136C293.389 124.742 291.807 123.202 289.749 123.202C288.349 123.202 287.341 123.93 286.879 124.742ZM292.087 127.136C292.087 128.942 290.897 130.006 289.483 130.006C288.097 130.006 286.879 128.956 286.879 127.15C286.879 125.372 288.097 124.308 289.483 124.308C290.897 124.308 292.087 125.33 292.087 127.136ZM302.346 127.15C302.346 124.728 300.652 123.202 298.468 123.202C296.298 123.202 294.59 124.728 294.59 127.15C294.59 129.586 296.242 131.126 298.412 131.126C300.596 131.126 302.346 129.586 302.346 127.15ZM295.892 127.15C295.892 125.218 297.11 124.308 298.454 124.308C299.77 124.308 301.044 125.218 301.044 127.15C301.044 129.096 299.742 130.006 298.412 130.006C297.082 130.006 295.892 129.096 295.892 127.15ZM308.552 131H309.84V120.878H307.208V122.04H308.552V131ZM312.392 120.864V126.576H313.596C313.932 125.778 314.674 125.246 315.696 125.246C317.166 125.246 317.908 126.086 317.908 127.528C317.908 128.914 317.222 129.95 315.682 129.95C314.492 129.95 313.666 129.32 313.428 128.256H312.182C312.434 129.894 313.652 131.028 315.668 131.028C318.034 131.028 319.126 129.46 319.126 127.5C319.126 125.932 318.342 124.154 315.878 124.154C314.884 124.154 313.988 124.602 313.568 125.176V121.984H318.482V120.864H312.392ZM335.836 131H337.096V126.478C337.096 124.28 335.738 123.188 333.988 123.188C332.812 123.188 331.72 123.79 331.272 124.896C330.768 123.748 329.718 123.188 328.458 123.188C327.45 123.188 326.54 123.622 326.036 124.434V123.328H324.762V131H326.036V126.772C326.036 125.12 326.918 124.294 328.206 124.294C329.466 124.294 330.306 125.092 330.306 126.66V131H331.566V126.772C331.566 125.12 332.448 124.294 333.736 124.294C334.996 124.294 335.836 125.092 335.836 126.66V131ZM339.185 131H340.459V123.328H339.185V131ZM339.843 122.082C340.305 122.082 340.683 121.704 340.683 121.214C340.683 120.724 340.305 120.346 339.843 120.346C339.353 120.346 338.975 120.724 338.975 121.214C338.975 121.704 339.353 122.082 339.843 122.082ZM348.245 131H349.505V126.478C349.505 124.28 348.147 123.188 346.369 123.188C345.333 123.188 344.409 123.622 343.905 124.42V123.328H342.631V131H343.905V126.758C343.905 125.106 344.801 124.294 346.103 124.294C347.391 124.294 348.245 125.092 348.245 126.66V131ZM358.39 123.328H357.116V127.542C357.116 129.194 356.234 130.006 354.918 130.006C353.63 130.006 352.776 129.208 352.776 127.654V123.328H351.516V127.822C351.516 130.02 352.902 131.112 354.666 131.112C355.688 131.112 356.626 130.664 357.116 129.866V131H358.39V123.328ZM360.821 128.9C360.821 130.44 361.591 131 362.949 131H364.097V129.922H363.159C362.375 129.922 362.095 129.656 362.095 128.9V124.378H364.097V123.328H362.095V121.396H360.821V123.328H359.827V124.378H360.821V128.9ZM365.165 127.136C365.165 129.516 366.747 131.126 368.791 131.126C370.205 131.126 371.199 130.398 371.661 129.572V131H372.949V123.328H371.661V124.728C371.213 123.93 370.233 123.202 368.805 123.202C366.747 123.202 365.165 124.742 365.165 127.136ZM371.661 127.15C371.661 128.956 370.457 130.006 369.057 130.006C367.657 130.006 366.467 128.942 366.467 127.136C366.467 125.33 367.657 124.308 369.057 124.308C370.457 124.308 371.661 125.372 371.661 127.15ZM374.625 127.15C374.625 129.586 376.179 131.126 378.363 131.126C380.267 131.126 381.513 130.062 381.905 128.536H380.533C380.253 129.502 379.497 130.048 378.363 130.048C376.963 130.048 375.927 129.054 375.927 127.15C375.927 125.274 376.963 124.28 378.363 124.28C379.497 124.28 380.267 124.868 380.533 125.792H381.905C381.513 124.182 380.267 123.202 378.363 123.202C376.179 123.202 374.625 124.742 374.625 127.15ZM383.605 131H384.879V126.758C384.879 125.106 385.775 124.294 387.077 124.294C388.365 124.294 389.219 125.092 389.219 126.66V131H390.479V126.478C390.479 124.28 389.121 123.188 387.413 123.188C386.335 123.188 385.383 123.622 384.879 124.434V120.64H383.605V131ZM1.602 148.15C1.602 150.586 3.156 152.126 5.34 152.126C7.244 152.126 8.49 151.062 8.882 149.536H7.51C7.23 150.502 6.474 151.048 5.34 151.048C3.94 151.048 2.904 150.054 2.904 148.15C2.904 146.274 3.94 145.28 5.34 145.28C6.474 145.28 7.244 145.868 7.51 146.792H8.882C8.49 145.182 7.244 144.202 5.34 144.202C3.156 144.202 1.602 145.742 1.602 148.15ZM15.2719 144.328H10.1059V145.364H13.8019L10.0779 150.95V152H15.2999V150.95H11.5339L15.2719 145.364V144.328ZM20.215 145.28C21.531 145.28 22.651 146.106 22.637 147.604H17.793C17.933 146.106 18.969 145.28 20.215 145.28ZM23.799 149.634H22.427C22.147 150.46 21.419 151.048 20.271 151.048C18.969 151.048 17.877 150.194 17.779 148.64H23.911C23.939 148.374 23.953 148.15 23.953 147.87C23.953 145.77 22.497 144.202 20.271 144.202C18.031 144.202 16.477 145.728 16.477 148.15C16.477 150.586 18.087 152.126 20.271 152.126C22.175 152.126 23.407 151.034 23.799 149.634ZM25.6346 152H26.9086V148.612L29.9186 152H31.6546L28.0286 148.15L31.6406 144.328H29.8626L26.9086 147.73V141.64H25.6346V152ZM32.3637 148.136C32.3637 150.516 33.9457 152.126 35.9897 152.126C37.4037 152.126 38.3977 151.398 38.8597 150.572V152H40.1477V144.328H38.8597V145.728C38.4117 144.93 37.4317 144.202 36.0037 144.202C33.9457 144.202 32.3637 145.742 32.3637 148.136ZM38.8597 148.15C38.8597 149.956 37.6557 151.006 36.2557 151.006C34.8557 151.006 33.6657 149.942 33.6657 148.136C33.6657 146.33 34.8557 145.308 36.2557 145.308C37.6557 145.308 38.8597 146.372 38.8597 148.15ZM42.3427 152H43.6167V146.792L44.6107 146.4V145.406L43.6167 145.784V141.64H42.3427V146.288L41.3487 146.666V147.674L42.3427 147.282V152ZM45.3383 148.136C45.3383 150.516 46.9203 152.126 48.9643 152.126C50.3783 152.126 51.3723 151.398 51.8343 150.572V152H53.1223V144.328H51.8343V145.728C51.3863 144.93 50.4063 144.202 48.9783 144.202C46.9203 144.202 45.3383 145.742 45.3383 148.136ZM51.8343 148.15C51.8343 149.956 50.6303 151.006 49.2303 151.006C47.8303 151.006 46.6403 149.942 46.6403 148.136C46.6403 146.33 47.8303 145.308 49.2303 145.308C50.6303 145.308 51.8343 146.372 51.8343 148.15ZM64.6217 152H65.8817V147.478C65.8817 145.28 64.5237 144.188 62.7457 144.188C61.7097 144.188 60.7857 144.622 60.2817 145.42V144.328H59.0077V152H60.2817V147.758C60.2817 146.106 61.1777 145.294 62.4797 145.294C63.7677 145.294 64.6217 146.092 64.6217 147.66V152ZM67.4868 148.136C67.4868 150.516 69.0688 152.126 71.1128 152.126C72.5268 152.126 73.5208 151.398 73.9828 150.572V152H75.2708V144.328H73.9828V145.728C73.5348 144.93 72.5548 144.202 71.1268 144.202C69.0688 144.202 67.4868 145.742 67.4868 148.136ZM73.9828 148.15C73.9828 149.956 72.7788 151.006 71.3788 151.006C69.9788 151.006 68.7888 149.942 68.7888 148.136C68.7888 146.33 69.9788 145.308 71.3788 145.308C72.7788 145.308 73.9828 146.372 73.9828 148.15ZM92.2301 152H93.4901V147.478C93.4901 145.28 92.1321 144.188 90.3821 144.188C89.2061 144.188 88.1141 144.79 87.6661 145.896C87.1621 144.748 86.1121 144.188 84.8521 144.188C83.8441 144.188 82.9341 144.622 82.4301 145.434V144.328H81.1561V152H82.4301V147.772C82.4301 146.12 83.3121 145.294 84.6001 145.294C85.8601 145.294 86.7001 146.092 86.7001 147.66V152H87.9601V147.772C87.9601 146.12 88.8421 145.294 90.1301 145.294C91.3901 145.294 92.2301 146.092 92.2301 147.66V152ZM98.842 145.28C100.158 145.28 101.278 146.106 101.264 147.604H96.42C96.56 146.106 97.596 145.28 98.842 145.28ZM102.426 149.634H101.054C100.774 150.46 100.046 151.048 98.898 151.048C97.596 151.048 96.504 150.194 96.406 148.64H102.538C102.566 148.374 102.58 148.15 102.58 147.87C102.58 145.77 101.124 144.202 98.898 144.202C96.658 144.202 95.104 145.728 95.104 148.15C95.104 150.586 96.714 152.126 98.898 152.126C100.802 152.126 102.034 151.034 102.426 149.634ZM109.876 152H111.136V147.478C111.136 145.28 109.778 144.188 108 144.188C106.964 144.188 106.04 144.622 105.536 145.42V144.328H104.262V152H105.536V147.758C105.536 146.106 106.432 145.294 107.734 145.294C109.022 145.294 109.876 146.092 109.876 147.66V152ZM120.021 144.328H118.747V148.542C118.747 150.194 117.865 151.006 116.549 151.006C115.261 151.006 114.407 150.208 114.407 148.654V144.328H113.147V148.822C113.147 151.02 114.533 152.112 116.297 152.112C117.319 152.112 118.257 151.664 118.747 150.866V152H120.021V144.328ZM130.594 144.328H125.428V145.364H129.124L125.4 150.95V152H130.622V150.95H126.856L130.594 145.364V144.328ZM135.537 145.28C136.853 145.28 137.973 146.106 137.959 147.604H133.115C133.255 146.106 134.291 145.28 135.537 145.28ZM139.121 149.634H137.749C137.469 150.46 136.741 151.048 135.593 151.048C134.291 151.048 133.199 150.194 133.101 148.64H139.233C139.261 148.374 139.275 148.15 139.275 147.87C139.275 145.77 137.819 144.202 135.593 144.202C133.353 144.202 131.799 145.728 131.799 148.15C131.799 150.586 133.409 152.126 135.593 152.126C137.497 152.126 138.729 151.034 139.121 149.634ZM150.205 149.914C150.149 147.17 145.697 148.164 145.697 146.344C145.697 145.728 146.257 145.28 147.195 145.28C148.217 145.28 148.805 145.84 148.861 146.61H150.135C150.051 145.112 148.931 144.202 147.237 144.202C145.529 144.202 144.423 145.168 144.423 146.344C144.423 149.2 148.959 148.206 148.959 149.914C148.959 150.544 148.399 151.048 147.391 151.048C146.313 151.048 145.655 150.488 145.585 149.746H144.269C144.353 151.146 145.613 152.126 147.405 152.126C149.099 152.126 150.205 151.174 150.205 149.914ZM153.502 152H154.818L156.666 145.91L158.514 152H159.83L162.224 144.328H160.964L159.228 150.782L157.366 144.328H156.064L154.16 150.768L152.396 144.328H151.094L153.502 152ZM170.768 148.15C170.768 145.728 169.074 144.202 166.89 144.202C164.72 144.202 163.012 145.728 163.012 148.15C163.012 150.586 164.664 152.126 166.834 152.126C169.018 152.126 170.768 150.586 170.768 148.15ZM164.314 148.15C164.314 146.218 165.532 145.308 166.876 145.308C168.192 145.308 169.466 146.218 169.466 148.15C169.466 150.096 168.164 151.006 166.834 151.006C165.504 151.006 164.314 150.096 164.314 148.15ZM172.443 152H173.717V144.328H172.443V152ZM173.101 143.082C173.563 143.082 173.941 142.704 173.941 142.214C173.941 141.724 173.563 141.346 173.101 141.346C172.611 141.346 172.233 141.724 172.233 142.214C172.233 142.704 172.611 143.082 173.101 143.082ZM186.963 152H188.223V147.478C188.223 145.28 186.865 144.188 185.115 144.188C183.939 144.188 182.847 144.79 182.399 145.896C181.895 144.748 180.845 144.188 179.585 144.188C178.577 144.188 177.667 144.622 177.163 145.434V144.328H175.889V152H177.163V147.772C177.163 146.12 178.045 145.294 179.333 145.294C180.593 145.294 181.433 146.092 181.433 147.66V152H182.693V147.772C182.693 146.12 183.575 145.294 184.863 145.294C186.123 145.294 186.963 146.092 186.963 147.66V152ZM193.569 148.15C193.569 150.586 195.123 152.126 197.307 152.126C199.211 152.126 200.457 151.062 200.849 149.536H199.477C199.197 150.502 198.441 151.048 197.307 151.048C195.907 151.048 194.871 150.054 194.871 148.15C194.871 146.274 195.907 145.28 197.307 145.28C198.441 145.28 199.211 145.868 199.477 146.792H200.849C200.457 145.182 199.211 144.202 197.307 144.202C195.123 144.202 193.569 145.742 193.569 148.15ZM207.239 144.328H202.073V145.364H205.769L202.045 150.95V152H207.267V150.95H203.501L207.239 145.364V144.328ZM210.418 152H211.734L213.582 145.91L215.43 152H216.746L219.14 144.328H217.88L216.144 150.782L214.282 144.328H212.98L211.076 150.768L209.312 144.328H208.01L210.418 152ZM227.684 148.15C227.684 145.728 225.99 144.202 223.806 144.202C221.636 144.202 219.928 145.728 219.928 148.15C219.928 150.586 221.58 152.126 223.75 152.126C225.934 152.126 227.684 150.586 227.684 148.15ZM221.23 148.15C221.23 146.218 222.448 145.308 223.792 145.308C225.108 145.308 226.382 146.218 226.382 148.15C226.382 150.096 225.08 151.006 223.75 151.006C222.42 151.006 221.23 150.096 221.23 148.15ZM230.633 147.828C230.633 146.05 231.557 145.504 232.775 145.504H233.111V144.188C231.893 144.188 231.067 144.72 230.633 145.574V144.328H229.359V152H230.633V147.828ZM241.862 148.15C241.862 145.728 240.168 144.202 237.984 144.202C235.814 144.202 234.106 145.728 234.106 148.15C234.106 150.586 235.758 152.126 237.928 152.126C240.112 152.126 241.862 150.586 241.862 148.15ZM235.408 148.15C235.408 146.218 236.626 145.308 237.97 145.308C239.286 145.308 240.56 146.218 240.56 148.15C240.56 150.096 239.258 151.006 237.928 151.006C236.598 151.006 235.408 150.096 235.408 148.15ZM249.151 152H250.411V147.478C250.411 145.28 249.053 144.188 247.275 144.188C246.239 144.188 245.315 144.622 244.811 145.42V144.328H243.537V152H244.811V147.758C244.811 146.106 245.707 145.294 247.009 145.294C248.297 145.294 249.151 146.092 249.151 147.66V152ZM259.772 148.15C259.772 145.728 258.078 144.202 255.894 144.202C253.724 144.202 252.016 145.728 252.016 148.15C252.016 150.586 253.668 152.126 255.838 152.126C258.022 152.126 259.772 150.586 259.772 148.15ZM253.318 148.15C253.318 146.218 254.536 145.308 255.88 145.308C257.196 145.308 258.47 146.218 258.47 148.15C258.47 150.096 257.168 151.006 255.838 151.006C254.508 151.006 253.318 150.096 253.318 148.15ZM266.137 144.328H260.971V145.364H264.667L260.943 150.95V152H266.165V150.95H262.399L266.137 145.364V144.328ZM263.575 143.362C263.981 143.362 264.303 143.04 264.303 142.634C264.303 142.228 263.981 141.892 263.575 141.892C263.155 141.892 262.833 142.228 262.833 142.634C262.833 143.04 263.155 143.362 263.575 143.362ZM273.432 152H274.692V147.478C274.692 145.28 273.334 144.188 271.556 144.188C270.52 144.188 269.596 144.622 269.092 145.42V144.328H267.818V152H269.092V147.758C269.092 146.106 269.988 145.294 271.29 145.294C272.578 145.294 273.432 146.092 273.432 147.66V152ZM279.685 150.544L277.277 144.328H275.863L278.957 151.916L277.445 155.612H278.761L283.381 144.328H282.065L279.685 150.544ZM295.736 152H296.996V147.478C296.996 145.28 295.638 144.188 293.888 144.188C292.712 144.188 291.62 144.79 291.172 145.896C290.668 144.748 289.618 144.188 288.358 144.188C287.35 144.188 286.44 144.622 285.936 145.434V144.328H284.662V152H285.936V147.772C285.936 146.12 286.818 145.294 288.106 145.294C289.366 145.294 290.206 146.092 290.206 147.66V152H291.466V147.772C291.466 146.12 292.348 145.294 293.636 145.294C294.896 145.294 295.736 146.092 295.736 147.66V152ZM304.092 145.742V144.328H302.818V155.64H304.092V150.586C304.568 151.37 305.562 152.126 306.962 152.126C309.02 152.126 310.602 150.516 310.602 148.136C310.602 145.742 309.02 144.202 306.962 144.202C305.562 144.202 304.554 144.93 304.092 145.742ZM309.3 148.136C309.3 149.942 308.11 151.006 306.696 151.006C305.31 151.006 304.092 149.956 304.092 148.15C304.092 146.372 305.31 145.308 306.696 145.308C308.11 145.308 309.3 146.33 309.3 148.136ZM313.553 147.828C313.553 146.05 314.477 145.504 315.695 145.504H316.031V144.188C314.813 144.188 313.987 144.72 313.553 145.574V144.328H312.279V152H313.553V147.828ZM322.192 144.328H317.026V145.364H320.722L316.998 150.95V152H322.22V150.95H318.454L322.192 145.364V144.328ZM326.785 150.544L324.377 144.328H322.963L326.057 151.916L324.545 155.612H325.861L330.481 144.328H329.165L326.785 150.544ZM332.448 143.082C332.924 143.082 333.302 142.704 333.302 142.214C333.302 141.724 332.924 141.346 332.448 141.346C331.972 141.346 331.594 141.724 331.594 142.214C331.594 142.704 331.972 143.082 332.448 143.082ZM331.804 144.328V153.638C331.804 154.31 331.538 154.562 330.838 154.562H330.306V155.64H331.048C332.35 155.64 333.078 155.052 333.078 153.666V144.328H331.804ZM334.758 148.136C334.758 150.516 336.34 152.126 338.384 152.126C339.798 152.126 340.792 151.398 341.254 150.572V152H342.542V144.328H341.254V145.728C340.806 144.93 339.826 144.202 338.398 144.202C336.34 144.202 334.758 145.742 334.758 148.136ZM341.254 148.15C341.254 149.956 340.05 151.006 338.65 151.006C337.25 151.006 336.06 149.942 336.06 148.136C336.06 146.33 337.25 145.308 338.65 145.308C340.05 145.308 341.254 146.372 341.254 148.15ZM344.219 148.15C344.219 150.586 345.773 152.126 347.957 152.126C349.861 152.126 351.107 151.062 351.499 149.536H350.127C349.847 150.502 349.091 151.048 347.957 151.048C346.557 151.048 345.521 150.054 345.521 148.15C345.521 146.274 346.557 145.28 347.957 145.28C349.091 145.28 349.861 145.868 350.127 146.792H351.499C351.107 145.182 349.861 144.202 347.957 144.202C345.773 144.202 344.219 145.742 344.219 148.15ZM353.199 152H354.473V144.328H353.199V152ZM353.857 143.082C354.319 143.082 354.697 142.704 354.697 142.214C354.697 141.724 354.319 141.346 353.857 141.346C353.367 141.346 352.989 141.724 352.989 142.214C352.989 142.704 353.367 143.082 353.857 143.082ZM359.906 145.28C361.222 145.28 362.342 146.106 362.328 147.604H357.484C357.624 146.106 358.66 145.28 359.906 145.28ZM363.49 149.634H362.118C361.838 150.46 361.11 151.048 359.962 151.048C358.66 151.048 357.568 150.194 357.47 148.64H363.602C363.63 148.374 363.644 148.15 363.644 147.87C363.644 145.77 362.188 144.202 359.962 144.202C357.722 144.202 356.168 145.728 356.168 148.15C356.168 150.586 357.778 152.126 359.962 152.126C361.866 152.126 363.098 151.034 363.49 149.634ZM365.326 152H366.6V141.64H365.326V152ZM372.033 145.28C373.349 145.28 374.469 146.106 374.455 147.604H369.611C369.751 146.106 370.787 145.28 372.033 145.28ZM375.617 149.634H374.245C373.965 150.46 373.237 151.048 372.089 151.048C370.787 151.048 369.695 150.194 369.597 148.64H375.729C375.757 148.374 375.771 148.15 375.771 147.87C375.771 145.77 374.315 144.202 372.089 144.202C369.849 144.202 368.295 145.728 368.295 148.15C368.295 150.586 369.905 152.126 372.089 152.126C373.993 152.126 375.225 151.034 375.617 149.634ZM388.527 152H389.787V147.478C389.787 145.28 388.429 144.188 386.679 144.188C385.503 144.188 384.411 144.79 383.963 145.896C383.459 144.748 382.409 144.188 381.149 144.188C380.141 144.188 379.231 144.622 378.727 145.434V144.328H377.453V152H378.727V147.772C378.727 146.12 379.609 145.294 380.897 145.294C382.157 145.294 382.997 146.092 382.997 147.66V152H384.257V147.772C384.257 146.12 385.139 145.294 386.427 145.294C387.687 145.294 388.527 146.092 388.527 147.66V152ZM393.123 151.216C393.123 150.726 392.745 150.348 392.283 150.348C391.793 150.348 391.415 150.726 391.415 151.216C391.415 151.706 391.793 152.084 392.283 152.084C392.745 152.084 393.123 151.706 393.123 151.216Z" fill="black"/>
</svg>
