<svg width="180" height="241" viewBox="0 0 180 241" fill="none" xmlns="http://www.w3.org/2000/svg">
<path d="M14.6472 195.977C14.6472 191.797 11.5872 188.857 7.64722 188.857C3.72722 188.857 0.647217 191.797 0.647217 195.977C0.647217 200.157 3.72722 203.097 7.64722 203.097C11.5872 203.097 14.6472 200.157 14.6472 195.977ZM2.50722 195.977C2.50722 192.557 4.70722 190.437 7.64722 190.437C10.5872 190.437 12.7872 192.557 12.7872 195.977C12.7872 199.377 10.5872 201.517 7.64722 201.517C4.70722 201.517 2.50722 199.377 2.50722 195.977ZM16.3699 197.437C16.3699 200.837 18.6299 203.137 21.5699 203.137C23.5699 203.137 24.9899 202.117 25.6499 200.897V202.957H27.4899V188.157H25.6499V193.957C24.8899 192.697 23.3099 191.817 21.5899 191.817C18.6299 191.817 16.3699 194.017 16.3699 197.437ZM25.6499 197.457C25.6499 200.037 23.9299 201.537 21.9299 201.537C19.9299 201.537 18.2299 200.017 18.2299 197.437C18.2299 194.857 19.9299 193.397 21.9299 193.397C23.9299 193.397 25.6499 194.917 25.6499 197.457ZM30.5655 202.957H32.3855V198.117L36.6855 202.957H39.1655L33.9855 197.457L39.1455 191.997H36.6055L32.3855 196.857V188.157H30.5655V202.957ZM42.6785 196.997C42.6785 194.457 43.9985 193.677 45.7385 193.677H46.2185V191.797C44.4785 191.797 43.2985 192.557 42.6785 193.777V191.997H40.8585V202.957H42.6785V196.997ZM52.4794 200.877L49.0394 191.997H47.0194L51.4394 202.837L49.2794 208.117H51.1594L57.7594 191.997H55.8794L52.4794 200.877ZM60.5691 190.217C61.2491 190.217 61.7891 189.677 61.7891 188.977C61.7891 188.277 61.2491 187.737 60.5691 187.737C59.8891 187.737 59.3491 188.277 59.3491 188.977C59.3491 189.677 59.8891 190.217 60.5691 190.217ZM59.6491 191.997V205.297C59.6491 206.257 59.2691 206.617 58.2691 206.617H57.5089V208.157H58.5691C60.4291 208.157 61.4691 207.317 61.4691 205.337V191.997H59.6491ZM69.2101 193.357C71.0901 193.357 72.6901 194.537 72.6701 196.677H65.7501C65.9501 194.537 67.4301 193.357 69.2101 193.357ZM74.3301 199.577H72.3701C71.9701 200.757 70.9301 201.597 69.2901 201.597C67.4301 201.597 65.8701 200.377 65.7301 198.157H74.4901C74.5301 197.777 74.5501 197.457 74.5501 197.057C74.5501 194.057 72.4701 191.817 69.2901 191.817C66.0901 191.817 63.8701 193.997 63.8701 197.457C63.8701 200.937 66.1701 203.137 69.2901 203.137C72.0101 203.137 73.7701 201.577 74.3301 199.577ZM84.8321 199.977C84.7521 196.057 78.3921 197.477 78.3921 194.877C78.3921 193.997 79.1921 193.357 80.5321 193.357C81.9921 193.357 82.8321 194.157 82.9121 195.257H84.7321C84.6121 193.117 83.0121 191.817 80.5921 191.817C78.1521 191.817 76.5721 193.197 76.5721 194.877C76.5721 198.957 83.0521 197.537 83.0521 199.977C83.0521 200.877 82.2521 201.597 80.8121 201.597C79.2721 201.597 78.3321 200.797 78.2321 199.737H76.3521C76.4721 201.737 78.2721 203.137 80.8321 203.137C83.2521 203.137 84.8321 201.777 84.8321 199.977ZM94.1011 191.997H86.7211V193.477H92.0011L86.6811 201.457V202.957H94.1411V201.457H88.7611L94.1011 193.477V191.997ZM115.435 191.717C116.795 191.717 117.888 192.137 118.715 192.977C119.555 193.804 119.975 194.964 119.975 196.457V202.957H117.175V196.837C117.175 195.97 116.955 195.31 116.515 194.857C116.075 194.39 115.475 194.157 114.715 194.157C113.955 194.157 113.348 194.39 112.895 194.857C112.455 195.31 112.235 195.97 112.235 196.837V202.957H109.435V196.837C109.435 195.97 109.215 195.31 108.775 194.857C108.335 194.39 107.735 194.157 106.975 194.157C106.202 194.157 105.588 194.39 105.135 194.857C104.695 195.31 104.475 195.97 104.475 196.837V202.957H101.675V191.877H104.475V193.217C104.835 192.75 105.295 192.384 105.855 192.117C106.428 191.85 107.055 191.717 107.735 191.717C108.602 191.717 109.375 191.904 110.055 192.277C110.735 192.637 111.262 193.157 111.635 193.837C111.995 193.197 112.515 192.684 113.195 192.297C113.888 191.91 114.635 191.717 115.435 191.717ZM124.052 190.557C123.559 190.557 123.145 190.404 122.812 190.097C122.492 189.777 122.332 189.384 122.332 188.917C122.332 188.45 122.492 188.064 122.812 187.757C123.145 187.437 123.559 187.277 124.052 187.277C124.545 187.277 124.952 187.437 125.272 187.757C125.605 188.064 125.772 188.45 125.772 188.917C125.772 189.384 125.605 189.777 125.272 190.097C124.952 190.404 124.545 190.557 124.052 190.557ZM125.432 191.877V202.957H122.632V191.877H125.432ZM138.498 197.177C138.498 197.577 138.472 197.937 138.418 198.257H130.318C130.385 199.057 130.665 199.684 131.158 200.137C131.652 200.59 132.258 200.817 132.978 200.817C134.018 200.817 134.758 200.37 135.198 199.477H138.218C137.898 200.544 137.285 201.424 136.378 202.117C135.472 202.797 134.358 203.137 133.038 203.137C131.972 203.137 131.012 202.904 130.158 202.437C129.318 201.957 128.658 201.284 128.178 200.417C127.712 199.55 127.478 198.55 127.478 197.417C127.478 196.27 127.712 195.264 128.178 194.397C128.645 193.53 129.298 192.864 130.138 192.397C130.978 191.93 131.945 191.697 133.038 191.697C134.092 191.697 135.032 191.924 135.858 192.377C136.698 192.83 137.345 193.477 137.798 194.317C138.265 195.144 138.498 196.097 138.498 197.177ZM135.598 196.377C135.585 195.657 135.325 195.084 134.818 194.657C134.312 194.217 133.692 193.997 132.958 193.997C132.265 193.997 131.678 194.21 131.198 194.637C130.732 195.05 130.445 195.63 130.338 196.377H135.598ZM141.962 190.557C141.455 190.557 141.035 190.404 140.702 190.097C140.382 189.777 140.222 189.384 140.222 188.917C140.222 188.45 140.382 188.064 140.702 187.757C141.035 187.437 141.455 187.277 141.962 187.277C142.455 187.277 142.862 187.437 143.182 187.757C143.502 188.064 143.662 188.45 143.662 188.917C143.662 189.384 143.502 189.777 143.182 190.097C142.862 190.404 142.455 190.557 141.962 190.557ZM143.342 204.777C143.342 206.004 143.035 206.884 142.422 207.417C141.822 207.964 140.955 208.237 139.822 208.237H138.582V205.857H139.382C139.809 205.857 140.109 205.77 140.282 205.597C140.455 205.437 140.542 205.17 140.542 204.797V191.877H143.342V204.777ZM150.349 203.137C149.442 203.137 148.629 202.977 147.909 202.657C147.189 202.324 146.615 201.877 146.189 201.317C145.775 200.757 145.549 200.137 145.509 199.457H148.329C148.382 199.884 148.589 200.237 148.949 200.517C149.322 200.797 149.782 200.937 150.329 200.937C150.862 200.937 151.275 200.83 151.569 200.617C151.875 200.404 152.029 200.13 152.029 199.797C152.029 199.437 151.842 199.17 151.469 198.997C151.109 198.81 150.529 198.61 149.729 198.397C148.902 198.197 148.222 197.99 147.689 197.777C147.169 197.564 146.715 197.237 146.329 196.797C145.955 196.357 145.769 195.764 145.769 195.017C145.769 194.404 145.942 193.844 146.289 193.337C146.649 192.83 147.155 192.43 147.809 192.137C148.475 191.844 149.255 191.697 150.149 191.697C151.469 191.697 152.522 192.03 153.309 192.697C154.095 193.35 154.529 194.237 154.609 195.357H151.929C151.889 194.917 151.702 194.57 151.369 194.317C151.049 194.05 150.615 193.917 150.069 193.917C149.562 193.917 149.169 194.01 148.889 194.197C148.622 194.384 148.489 194.644 148.489 194.977C148.489 195.35 148.675 195.637 149.049 195.837C149.422 196.024 150.002 196.217 150.789 196.417C151.589 196.617 152.249 196.824 152.769 197.037C153.289 197.25 153.735 197.584 154.109 198.037C154.495 198.477 154.695 199.064 154.709 199.797C154.709 200.437 154.529 201.01 154.169 201.517C153.822 202.024 153.315 202.424 152.649 202.717C151.995 202.997 151.229 203.137 150.349 203.137ZM156.287 197.417C156.287 196.27 156.52 195.27 156.987 194.417C157.454 193.55 158.1 192.884 158.927 192.417C159.754 191.937 160.7 191.697 161.767 191.697C163.14 191.697 164.274 192.044 165.167 192.737C166.074 193.417 166.68 194.377 166.987 195.617H163.967C163.807 195.137 163.534 194.764 163.147 194.497C162.774 194.217 162.307 194.077 161.747 194.077C160.947 194.077 160.314 194.37 159.847 194.957C159.38 195.53 159.147 196.35 159.147 197.417C159.147 198.47 159.38 199.29 159.847 199.877C160.314 200.45 160.947 200.737 161.747 200.737C162.88 200.737 163.62 200.23 163.967 199.217H166.987C166.68 200.417 166.074 201.37 165.167 202.077C164.26 202.784 163.127 203.137 161.767 203.137C160.7 203.137 159.754 202.904 158.927 202.437C158.1 201.957 157.454 201.29 156.987 200.437C156.52 199.57 156.287 198.564 156.287 197.417ZM168.318 197.377C168.318 196.257 168.538 195.264 168.978 194.397C169.432 193.53 170.038 192.864 170.798 192.397C171.572 191.93 172.432 191.697 173.378 191.697C174.205 191.697 174.925 191.864 175.538 192.197C176.165 192.53 176.665 192.95 177.038 193.457V191.877H179.858V202.957H177.038V201.337C176.678 201.857 176.178 202.29 175.538 202.637C174.912 202.97 174.185 203.137 173.358 203.137C172.425 203.137 171.572 202.897 170.798 202.417C170.038 201.937 169.432 201.264 168.978 200.397C168.538 199.517 168.318 198.51 168.318 197.377ZM177.038 197.417C177.038 196.737 176.905 196.157 176.638 195.677C176.372 195.184 176.012 194.81 175.558 194.557C175.105 194.29 174.618 194.157 174.098 194.157C173.578 194.157 173.098 194.284 172.658 194.537C172.218 194.79 171.858 195.164 171.578 195.657C171.312 196.137 171.178 196.71 171.178 197.377C171.178 198.044 171.312 198.63 171.578 199.137C171.858 199.63 172.218 200.01 172.658 200.277C173.112 200.544 173.592 200.677 174.098 200.677C174.618 200.677 175.105 200.55 175.558 200.297C176.012 200.03 176.372 199.657 176.638 199.177C176.905 198.684 177.038 198.097 177.038 197.417ZM14.3285 225.477C14.6885 224.97 15.1819 224.55 15.8085 224.217C16.4485 223.87 17.1752 223.697 17.9885 223.697C18.9352 223.697 19.7885 223.93 20.5485 224.397C21.3219 224.864 21.9285 225.53 22.3685 226.397C22.8219 227.25 23.0485 228.244 23.0485 229.377C23.0485 230.51 22.8219 231.517 22.3685 232.397C21.9285 233.264 21.3219 233.937 20.5485 234.417C19.7885 234.897 18.9352 235.137 17.9885 235.137C17.1752 235.137 16.4552 234.97 15.8285 234.637C15.2152 234.304 14.7152 233.884 14.3285 233.377V240.237H11.5285V223.877H14.3285V225.477ZM20.1885 229.377C20.1885 228.71 20.0485 228.137 19.7685 227.657C19.5019 227.164 19.1419 226.79 18.6885 226.537C18.2485 226.284 17.7685 226.157 17.2485 226.157C16.7419 226.157 16.2619 226.29 15.8085 226.557C15.3685 226.81 15.0085 227.184 14.7285 227.677C14.4619 228.17 14.3285 228.75 14.3285 229.417C14.3285 230.084 14.4619 230.664 14.7285 231.157C15.0085 231.65 15.3685 232.03 15.8085 232.297C16.2619 232.55 16.7419 232.677 17.2485 232.677C17.7685 232.677 18.2485 232.544 18.6885 232.277C19.1419 232.01 19.5019 231.63 19.7685 231.137C20.0485 230.644 20.1885 230.057 20.1885 229.377ZM27.8832 225.597C28.2432 225.01 28.7099 224.55 29.2832 224.217C29.8699 223.884 30.5366 223.717 31.2832 223.717V226.657H30.5432C29.6632 226.657 28.9966 226.864 28.5432 227.277C28.1032 227.69 27.8832 228.41 27.8832 229.437V234.957H25.0832V223.877H27.8832V225.597ZM35.7292 232.657H40.6692V234.957H32.5492V232.697L37.3892 226.177H32.5692V223.877H40.6092V226.137L35.7292 232.657ZM53.4371 223.877L46.5771 240.197H43.5971L45.9971 234.677L41.5571 223.877H44.6971L47.5571 231.617L50.4571 223.877H53.4371ZM56.3665 222.557C55.8598 222.557 55.4398 222.404 55.1065 222.097C54.7865 221.777 54.6265 221.384 54.6265 220.917C54.6265 220.45 54.7865 220.064 55.1065 219.757C55.4398 219.437 55.8598 219.277 56.3665 219.277C56.8598 219.277 57.2665 219.437 57.5865 219.757C57.9065 220.064 58.0661 220.45 58.0661 220.917C58.0661 221.384 57.9065 221.777 57.5865 222.097C57.2665 222.404 56.8598 222.557 56.3665 222.557ZM57.7465 236.777C57.7465 238.004 57.4398 238.884 56.8265 239.417C56.2265 239.964 55.3598 240.237 54.2265 240.237H52.9865V237.857H53.7865C54.2132 237.857 54.5132 237.77 54.6865 237.597C54.8598 237.437 54.9465 237.17 54.9465 236.797V223.877H57.7465V236.777ZM59.7931 229.377C59.7931 228.257 60.0131 227.264 60.4531 226.397C60.9061 225.53 61.5131 224.864 62.2731 224.397C63.0461 223.93 63.9061 223.697 64.8531 223.697C65.6791 223.697 66.3991 223.864 67.0131 224.197C67.6391 224.53 68.1391 224.95 68.5131 225.457V223.877H71.3331V234.957H68.5131V233.337C68.1531 233.857 67.6531 234.29 67.0131 234.637C66.3861 234.97 65.6591 235.137 64.8331 235.137C63.8991 235.137 63.0461 234.897 62.2731 234.417C61.5131 233.937 60.9061 233.264 60.4531 232.397C60.0131 231.517 59.7931 230.51 59.7931 229.377ZM68.5131 229.417C68.5131 228.737 68.3791 228.157 68.1131 227.677C67.8461 227.184 67.4861 226.81 67.0331 226.557C66.5791 226.29 66.0931 226.157 65.5731 226.157C65.0531 226.157 64.5731 226.284 64.1331 226.537C63.6931 226.79 63.3331 227.164 63.0531 227.657C62.7861 228.137 62.6531 228.71 62.6531 229.377C62.6531 230.044 62.7861 230.63 63.0531 231.137C63.3331 231.63 63.6931 232.01 64.1331 232.277C64.5861 232.544 65.0661 232.677 65.5731 232.677C66.0931 232.677 66.5791 232.55 67.0331 232.297C67.4861 232.03 67.8461 231.657 68.1131 231.177C68.3791 230.684 68.5131 230.097 68.5131 229.417ZM76.6281 232.657H81.5681V234.957H73.4481V232.697L78.2881 226.177H73.4681V223.877H81.5081V226.137L76.6281 232.657ZM89.8751 223.717C91.1951 223.717 92.2621 224.137 93.0751 224.977C93.8891 225.804 94.2951 226.964 94.2951 228.457V234.957H91.4951V228.837C91.4951 227.957 91.2751 227.284 90.8351 226.817C90.3951 226.337 89.7951 226.097 89.0351 226.097C88.2621 226.097 87.6491 226.337 87.1951 226.817C86.7551 227.284 86.5351 227.957 86.5351 228.837V234.957H83.7351V223.877H86.5351V225.257C86.9091 224.777 87.3821 224.404 87.9551 224.137C88.5421 223.857 89.1821 223.717 89.8751 223.717ZM107.258 229.177C107.258 229.577 107.231 229.937 107.178 230.257H99.0781C99.1451 231.057 99.4251 231.684 99.9181 232.137C100.411 232.59 101.018 232.817 101.738 232.817C102.778 232.817 103.518 232.37 103.958 231.477H106.978C106.658 232.544 106.045 233.424 105.138 234.117C104.231 234.797 103.118 235.137 101.798 235.137C100.731 235.137 99.7711 234.904 98.9181 234.437C98.0781 233.957 97.4181 233.284 96.9381 232.417C96.4711 231.55 96.2381 230.55 96.2381 229.417C96.2381 228.27 96.4711 227.264 96.9381 226.397C97.4051 225.53 98.0581 224.864 98.8981 224.397C99.7381 223.93 100.705 223.697 101.798 223.697C102.851 223.697 103.791 223.924 104.618 224.377C105.458 224.83 106.105 225.477 106.558 226.317C107.025 227.144 107.258 228.097 107.258 229.177ZM104.358 228.377C104.345 227.657 104.085 227.084 103.578 226.657C103.071 226.217 102.451 225.997 101.718 225.997C101.025 225.997 100.438 226.21 99.9581 226.637C99.4911 227.05 99.2051 227.63 99.0981 228.377H104.358ZM116.868 225.477C117.228 224.97 117.721 224.55 118.348 224.217C118.988 223.87 119.714 223.697 120.528 223.697C121.474 223.697 122.328 223.93 123.088 224.397C123.861 224.864 124.468 225.53 124.908 226.397C125.361 227.25 125.588 228.244 125.588 229.377C125.588 230.51 125.361 231.517 124.908 232.397C124.468 233.264 123.861 233.937 123.088 234.417C122.328 234.897 121.474 235.137 120.528 235.137C119.714 235.137 118.994 234.97 118.368 234.637C117.754 234.304 117.254 233.884 116.868 233.377V240.237H114.068V223.877H116.868V225.477ZM122.728 229.377C122.728 228.71 122.588 228.137 122.308 227.657C122.041 227.164 121.681 226.79 121.228 226.537C120.788 226.284 120.308 226.157 119.788 226.157C119.281 226.157 118.801 226.29 118.348 226.557C117.908 226.81 117.548 227.184 117.268 227.677C117.001 228.17 116.868 228.75 116.868 229.417C116.868 230.084 117.001 230.664 117.268 231.157C117.548 231.65 117.908 232.03 118.348 232.297C118.801 232.55 119.281 232.677 119.788 232.677C120.308 232.677 120.788 232.544 121.228 232.277C121.681 232.01 122.041 231.63 122.308 231.137C122.588 230.644 122.728 230.057 122.728 229.377ZM131.862 235.137C130.956 235.137 130.142 234.977 129.422 234.657C128.702 234.324 128.129 233.877 127.702 233.317C127.289 232.757 127.062 232.137 127.022 231.457H129.842C129.896 231.884 130.102 232.237 130.462 232.517C130.836 232.797 131.296 232.937 131.842 232.937C132.376 232.937 132.789 232.83 133.082 232.617C133.389 232.404 133.542 232.13 133.542 231.797C133.542 231.437 133.356 231.17 132.982 230.997C132.622 230.81 132.042 230.61 131.242 230.397C130.416 230.197 129.736 229.99 129.202 229.777C128.682 229.564 128.229 229.237 127.842 228.797C127.469 228.357 127.282 227.764 127.282 227.017C127.282 226.404 127.456 225.844 127.802 225.337C128.162 224.83 128.669 224.43 129.322 224.137C129.989 223.844 130.769 223.697 131.662 223.697C132.982 223.697 134.036 224.03 134.822 224.697C135.609 225.35 136.042 226.237 136.122 227.357H133.442C133.402 226.917 133.216 226.57 132.882 226.317C132.562 226.05 132.129 225.917 131.582 225.917C131.076 225.917 130.682 226.01 130.402 226.197C130.136 226.384 130.002 226.644 130.002 226.977C130.002 227.35 130.189 227.637 130.562 227.837C130.936 228.024 131.516 228.217 132.302 228.417C133.102 228.617 133.762 228.824 134.282 229.037C134.802 229.25 135.249 229.584 135.622 230.037C136.009 230.477 136.209 231.064 136.222 231.797C136.222 232.437 136.042 233.01 135.682 233.517C135.336 234.024 134.829 234.424 134.162 234.717C133.509 234.997 132.742 235.137 131.862 235.137ZM143.441 235.137C142.374 235.137 141.414 234.904 140.561 234.437C139.707 233.957 139.034 233.284 138.541 232.417C138.061 231.55 137.821 230.55 137.821 229.417C137.821 228.284 138.067 227.284 138.561 226.417C139.067 225.55 139.754 224.884 140.621 224.417C141.487 223.937 142.454 223.697 143.521 223.697C144.587 223.697 145.554 223.937 146.421 224.417C147.287 224.884 147.967 225.55 148.461 226.417C148.967 227.284 149.221 228.284 149.221 229.417C149.221 230.55 148.961 231.55 148.441 232.417C147.934 233.284 147.241 233.957 146.361 234.437C145.494 234.904 144.521 235.137 143.441 235.137ZM143.441 232.697C143.947 232.697 144.421 232.577 144.861 232.337C145.314 232.084 145.674 231.71 145.941 231.217C146.207 230.724 146.341 230.124 146.341 229.417C146.341 228.364 146.061 227.557 145.501 226.997C144.954 226.424 144.281 226.137 143.481 226.137C142.681 226.137 142.007 226.424 141.461 226.997C140.927 227.557 140.661 228.364 140.661 229.417C140.661 230.47 140.921 231.284 141.441 231.857C141.974 232.417 142.641 232.697 143.441 232.697ZM165.035 223.717C166.395 223.717 167.488 224.137 168.315 224.977C169.155 225.804 169.575 226.964 169.575 228.457V234.957H166.775V228.837C166.775 227.97 166.555 227.31 166.115 226.857C165.675 226.39 165.075 226.157 164.315 226.157C163.555 226.157 162.948 226.39 162.495 226.857C162.055 227.31 161.835 227.97 161.835 228.837V234.957H159.035V228.837C159.035 227.97 158.815 227.31 158.375 226.857C157.935 226.39 157.335 226.157 156.575 226.157C155.801 226.157 155.188 226.39 154.735 226.857C154.295 227.31 154.075 227.97 154.075 228.837V234.957H151.275V223.877H154.075V225.217C154.435 224.75 154.895 224.384 155.455 224.117C156.028 223.85 156.655 223.717 157.335 223.717C158.201 223.717 158.975 223.904 159.655 224.277C160.335 224.637 160.861 225.157 161.235 225.837C161.595 225.197 162.115 224.684 162.795 224.297C163.488 223.91 164.235 223.717 165.035 223.717Z" fill="black"/>
<g filter="url(#filter0_i_11_35)">
<path d="M22.3335 29.6665L66.667 4.33325L117.334 29.6665L161.667 4.33325V118.333L117.334 143.667L66.667 118.333L22.3335 143.667V29.6665Z" stroke="#00A5C5" stroke-width="7" stroke-linecap="round" stroke-linejoin="round"/>
<path d="M117.333 29.6666V140.5" stroke="#00A5C5" stroke-width="5"/>
<path d="M66.667 7.5V118.333" stroke="#00A5C5" stroke-width="5"/>
<path d="M167.313 137.773L145.688 116.148C158.374 100.633 156.08 77.7737 140.565 65.088C125.052 52.4023 102.191 54.6966 89.505 70.2115C76.82 85.7264 79.114 108.586 94.629 121.272C107.992 132.198 127.203 132.198 140.567 121.272L162.191 142.897C163.63 144.286 165.924 144.247 167.315 142.809C168.67 141.404 168.67 139.18 167.315 137.775L167.313 137.773ZM117.655 122.221C101.647 122.221 88.672 109.245 88.672 93.2377C88.672 77.2302 101.649 64.2559 117.655 64.2559C133.66 64.2559 146.638 77.2319 146.638 93.2394C146.619 109.238 133.655 122.204 117.655 122.223V122.221Z" fill="#007D96"/>
<g filter="url(#filter1_i_11_35)">
<path d="M117.569 122.158C133.589 122.158 146.576 109.171 146.576 93.151C146.576 77.1308 133.589 64.1438 117.569 64.1438C101.549 64.1438 88.5618 77.1308 88.5618 93.151C88.5618 109.171 101.549 122.158 117.569 122.158Z" fill="white"/>
</g>
</g>
<defs>
<filter id="filter0_i_11_35" x="18.8335" y="0.833252" width="149.498" height="150.334" filterUnits="userSpaceOnUse" color-interpolation-filters="sRGB">
<feFlood flood-opacity="0" result="BackgroundImageFix"/>
<feBlend mode="normal" in="SourceGraphic" in2="BackgroundImageFix" result="shape"/>
<feColorMatrix in="SourceAlpha" type="matrix" values="0 0 0 0 0 0 0 0 0 0 0 0 0 0 0 0 0 0 127 0" result="hardAlpha"/>
<feOffset dy="4"/>
<feGaussianBlur stdDeviation="2"/>
<feComposite in2="hardAlpha" operator="arithmetic" k2="-1" k3="1"/>
<feColorMatrix type="matrix" values="0 0 0 0 0 0 0 0 0 0.490196 0 0 0 0 0.588235 0 0 0 0.33 0"/>
<feBlend mode="normal" in2="shape" result="effect1_innerShadow_11_35"/>
</filter>
<filter id="filter1_i_11_35" x="88.5618" y="64.1438" width="58.0142" height="62.0142" filterUnits="userSpaceOnUse" color-interpolation-filters="sRGB">
<feFlood flood-opacity="0" result="BackgroundImageFix"/>
<feBlend mode="normal" in="SourceGraphic" in2="BackgroundImageFix" result="shape"/>
<feColorMatrix in="SourceAlpha" type="matrix" values="0 0 0 0 0 0 0 0 0 0 0 0 0 0 0 0 0 0 127 0" result="hardAlpha"/>
<feOffset dy="4"/>
<feGaussianBlur stdDeviation="2"/>
<feComposite in2="hardAlpha" operator="arithmetic" k2="-1" k3="1"/>
<feColorMatrix type="matrix" values="0 0 0 0 0 0 0 0 0 0.490196 0 0 0 0 0.588235 0 0 0 0.33 0"/>
<feBlend mode="normal" in2="shape" result="effect1_innerShadow_11_35"/>
</filter>
</defs>
</svg>
