<svg width="393" height="176" viewBox="0 0 393 176" fill="none" xmlns="http://www.w3.org/2000/svg">
<path d="M1.93213 20.0001H5.85213V7.28805L11.1161 20.0001H14.0841L19.3201 7.28805V20.0001H23.2401V0.456055H18.8161L12.6001 14.9881L6.38413 0.456055H1.93213V20.0001ZM26.1077 12.1881C26.1077 17.0321 29.2437 20.2521 33.1637 20.2521C35.6277 20.2521 37.3917 19.0761 38.3157 17.7321V20.0001H42.2637V4.48805H38.3157V6.70005C37.3917 5.41205 35.6837 4.23605 33.1917 4.23605C29.2437 4.23605 26.1077 7.34405 26.1077 12.1881ZM38.3157 12.2441C38.3157 15.1841 36.3557 16.8081 34.1997 16.8081C32.0997 16.8081 30.1117 15.1281 30.1117 12.1881C30.1117 9.24805 32.0997 7.68005 34.1997 7.68005C36.3557 7.68005 38.3157 9.30405 38.3157 12.2441ZM50.0123 6.72806V4.48805H46.0923V27.3921H50.0123V17.7881C50.9643 19.0481 52.7003 20.2521 55.1363 20.2521C59.1123 20.2521 62.2203 17.0321 62.2203 12.1881C62.2203 7.34405 59.1123 4.23605 55.1363 4.23605C52.7283 4.23605 50.9363 5.41206 50.0123 6.72806ZM58.2163 12.1881C58.2163 15.1281 56.2283 16.8081 54.1003 16.8081C52.0003 16.8081 50.0123 15.1841 50.0123 12.2441C50.0123 9.30405 52.0003 7.68005 54.1003 7.68005C56.2283 7.68005 58.2163 9.24805 58.2163 12.1881ZM64.0608 12.1881C64.0608 17.0321 67.1968 20.2521 71.1168 20.2521C73.5808 20.2521 75.3448 19.0761 76.2688 17.7321V20.0001H80.2168V4.48805H76.2688V6.70005C75.3448 5.41205 73.6368 4.23605 71.1448 4.23605C67.1968 4.23605 64.0608 7.34405 64.0608 12.1881ZM76.2688 12.2441C76.2688 15.1841 74.3088 16.8081 72.1528 16.8081C70.0528 16.8081 68.0648 15.1281 68.0648 12.1881C68.0648 9.24805 70.0528 7.68005 72.1528 7.68005C74.3088 7.68005 76.2688 9.30405 76.2688 12.2441Z" fill="black"/>
<path d="M7.47605 57.2279V64.9839L2.35205 57.2279H1.07805V66.9999H2.35205V59.2299L7.47605 66.9999H8.75005V57.2279H7.47605ZM10.1458 63.1359C10.1458 65.5159 11.7278 67.1259 13.7719 67.1259C15.1859 67.1259 16.1799 66.3979 16.6419 65.5719V66.9999H17.9299V59.3279H16.6419V60.7279C16.1939 59.9299 15.2139 59.2019 13.7858 59.2019C11.7278 59.2019 10.1458 60.7419 10.1458 63.1359ZM16.6419 63.1499C16.6419 64.9559 15.4378 66.0059 14.0378 66.0059C12.6378 66.0059 11.4478 64.9419 11.4478 63.1359C11.4478 61.3299 12.6378 60.3079 14.0378 60.3079C15.4378 60.3079 16.6419 61.3719 16.6419 63.1499ZM34.2892 66.9999H35.5491V62.4779C35.5491 60.2799 34.1912 59.1879 32.4412 59.1879C31.2652 59.1879 30.1732 59.7899 29.7252 60.8959C29.2212 59.7479 28.1712 59.1879 26.9112 59.1879C25.9032 59.1879 24.9932 59.6219 24.4892 60.4339V59.3279H23.2152V66.9999H24.4892V62.7719C24.4892 61.1199 25.3712 60.2939 26.6592 60.2939C27.9192 60.2939 28.7592 61.0919 28.7592 62.6599V66.9999H30.0192V62.7719C30.0192 61.1199 30.9011 60.2939 32.1891 60.2939C33.4492 60.2939 34.2892 61.0919 34.2892 62.6599V66.9999ZM36.8629 63.1359C36.8629 65.5159 38.445 67.1259 40.4889 67.1259C41.903 67.1259 42.8969 66.3979 43.3589 65.5719V66.9999H44.6469V59.3279H43.3589V60.7279C42.9109 59.9299 41.931 59.2019 40.5029 59.2019C38.445 59.2019 36.8629 60.7419 36.8629 63.1359ZM43.3589 63.1499C43.3589 64.9559 42.155 66.0059 40.755 66.0059C39.3549 66.0059 38.165 64.9419 38.165 63.1359C38.165 61.3299 39.3549 60.3079 40.755 60.3079C42.155 60.3079 43.3589 61.3719 43.3589 63.1499ZM47.7739 60.7419V59.3279H46.5V70.6399H47.7739V65.5859C48.25 66.3699 49.2439 67.1259 50.644 67.1259C52.702 67.1259 54.284 65.5159 54.284 63.1359C54.284 60.7419 52.702 59.2019 50.644 59.2019C49.2439 59.2019 48.236 59.9299 47.7739 60.7419ZM52.9819 63.1359C52.9819 64.9419 51.792 66.0059 50.3779 66.0059C48.9919 66.0059 47.7739 64.9559 47.7739 63.1499C47.7739 61.3719 48.9919 60.3079 50.3779 60.3079C51.792 60.3079 52.9819 61.3299 52.9819 63.1359ZM55.6609 66.9999H56.9348V59.3279H55.6609V66.9999ZM56.3189 58.0819C56.7809 58.0819 57.1588 57.7039 57.1588 57.2139C57.1588 56.7239 56.7809 56.3459 56.3189 56.3459C55.8288 56.3459 55.4509 56.7239 55.4509 57.2139C55.4509 57.7039 55.8288 58.0819 56.3189 58.0819ZM62.0681 60.2799C63.3841 60.2799 64.5041 61.1059 64.4901 62.6039H59.6461C59.7861 61.1059 60.8222 60.2799 62.0681 60.2799ZM65.6522 64.6339H64.2801C64.0001 65.4599 63.2721 66.0479 62.1241 66.0479C60.8222 66.0479 59.7301 65.1939 59.6321 63.6399H65.7642C65.7922 63.3739 65.8062 63.1499 65.8062 62.8699C65.8062 60.7699 64.3502 59.2019 62.1241 59.2019C59.8841 59.2019 58.3302 60.7279 58.3302 63.1499C58.3302 65.5859 59.9401 67.1259 62.1241 67.1259C64.0281 67.1259 65.2602 66.0339 65.6522 64.6339ZM75.3103 59.3279H70.1443V60.3639H73.8403L70.1163 65.9499V66.9999H75.3383V65.9499H71.5723L75.3103 60.3639V59.3279ZM82.3054 66.9999H83.5654V62.4779C83.5654 60.2799 82.2074 59.1879 80.4294 59.1879C79.3933 59.1879 78.4694 59.6219 77.9654 60.4199V59.3279H76.6914V66.9999H77.9654V62.7579C77.9654 61.1059 78.8614 60.2939 80.1634 60.2939C81.4514 60.2939 82.3054 61.0919 82.3054 62.6599V66.9999ZM84.8705 63.1359C84.8705 65.5159 86.4525 67.1259 88.4965 67.1259C89.9105 67.1259 90.9045 66.3979 91.3665 65.5719V66.9999H92.6545V59.3279H91.3665V60.7279C90.9185 59.9299 89.9385 59.2019 88.5105 59.2019C86.4525 59.2019 84.8705 60.7419 84.8705 63.1359ZM91.3665 63.1499C91.3665 64.9559 90.1625 66.0059 88.7625 66.0059C87.3624 66.0059 86.1725 64.9419 86.1725 63.1359C86.1725 61.3299 87.3624 60.3079 88.7625 60.3079C90.1625 60.3079 91.3665 61.3719 91.3665 63.1499ZM95.1934 58.0819C95.6693 58.0819 96.0474 57.7039 96.0474 57.2139C96.0474 56.7239 95.6693 56.3459 95.1934 56.3459C94.7174 56.3459 94.3394 56.7239 94.3394 57.2139C94.3394 57.7039 94.7174 58.0819 95.1934 58.0819ZM94.5494 59.3279V68.6379C94.5494 69.3099 94.2833 69.5619 93.5834 69.5619H93.0514V70.6399H93.7934C95.0954 70.6399 95.8234 70.0519 95.8234 68.6659V59.3279H94.5494ZM97.2041 63.1359C97.2041 65.5159 98.7861 67.1259 100.844 67.1259C102.244 67.1259 103.238 66.4119 103.7 65.5579V66.9999H104.988V56.6399H103.7V60.6999C103.168 59.8179 102.062 59.2019 100.858 59.2019C98.7861 59.2019 97.2041 60.7419 97.2041 63.1359ZM103.7 63.1499C103.7 64.9559 102.496 66.0059 101.096 66.0059C99.6961 66.0059 98.5061 64.9419 98.5061 63.1359C98.5061 61.3299 99.6961 60.3079 101.096 60.3079C102.496 60.3079 103.7 61.3719 103.7 63.1499ZM111.531 59.3279H106.365V60.3639H110.061L106.337 65.9499V66.9999H111.559V65.9499H107.793L111.531 60.3639V59.3279ZM112.912 66.9999H114.186V59.3279H112.912V66.9999ZM113.57 58.0819C114.032 58.0819 114.41 57.7039 114.41 57.2139C114.41 56.7239 114.032 56.3459 113.57 56.3459C113.08 56.3459 112.702 56.7239 112.702 57.2139C112.702 57.7039 113.08 58.0819 113.57 58.0819ZM119.319 60.2799C120.635 60.2799 121.755 61.1059 121.741 62.6039H116.897C117.037 61.1059 118.073 60.2799 119.319 60.2799ZM122.903 64.6339H121.531C121.251 65.4599 120.523 66.0479 119.375 66.0479C118.073 66.0479 116.981 65.1939 116.883 63.6399H123.015C123.043 63.3739 123.057 63.1499 123.057 62.8699C123.057 60.7699 121.601 59.2019 119.375 59.2019C117.135 59.2019 115.581 60.7279 115.581 63.1499C115.581 65.5859 117.191 67.1259 119.375 67.1259C121.279 67.1259 122.511 66.0339 122.903 64.6339ZM123.963 63.1499C123.963 65.5859 125.517 67.1259 127.701 67.1259C129.605 67.1259 130.851 66.0619 131.243 64.5359H129.871C129.591 65.5019 128.835 66.0479 127.701 66.0479C126.301 66.0479 125.265 65.0539 125.265 63.1499C125.265 61.2739 126.301 60.2799 127.701 60.2799C128.835 60.2799 129.605 60.8679 129.871 61.7919H131.243C130.851 60.1819 129.605 59.2019 127.701 59.2019C125.517 59.2019 123.963 60.7419 123.963 63.1499ZM132.643 66.9999H133.917V59.3279H132.643V66.9999ZM133.301 58.0819C133.763 58.0819 134.141 57.7039 134.141 57.2139C134.141 56.7239 133.763 56.3459 133.301 56.3459C132.811 56.3459 132.433 56.7239 132.433 57.2139C132.433 57.7039 132.811 58.0819 133.301 58.0819ZM139.05 60.2799C140.366 60.2799 141.486 61.1059 141.472 62.6039H136.628C136.768 61.1059 137.804 60.2799 139.05 60.2799ZM142.634 64.6339H141.262C140.982 65.4599 140.254 66.0479 139.106 66.0479C137.804 66.0479 136.712 65.1939 136.614 63.6399H142.746C142.774 63.3739 142.788 63.1499 142.788 62.8699C142.788 60.7699 141.332 59.2019 139.106 59.2019C136.866 59.2019 135.312 60.7279 135.312 63.1499C135.312 65.5859 136.922 67.1259 139.106 67.1259C141.01 67.1259 142.242 66.0339 142.634 64.6339ZM158.676 66.9999H159.936V62.4779C159.936 60.2799 158.578 59.1879 156.828 59.1879C155.652 59.1879 154.56 59.7899 154.112 60.8959C153.608 59.7479 152.558 59.1879 151.298 59.1879C150.29 59.1879 149.38 59.6219 148.876 60.4339V59.3279H147.602V66.9999H148.876V62.7719C148.876 61.1199 149.758 60.2939 151.046 60.2939C152.306 60.2939 153.146 61.0919 153.146 62.6599V66.9999H154.406V62.7719C154.406 61.1199 155.288 60.2939 156.576 60.2939C157.836 60.2939 158.676 61.0919 158.676 62.6599V66.9999ZM161.726 66.9999H163V59.3279H161.726V66.9999ZM162.384 58.0819C162.846 58.0819 163.224 57.7039 163.224 57.2139C163.224 56.7239 162.846 56.3459 162.384 56.3459C161.894 56.3459 161.516 56.7239 161.516 57.2139C161.516 57.7039 161.894 58.0819 162.384 58.0819ZM168.133 60.2799C169.449 60.2799 170.569 61.1059 170.555 62.6039H165.711C165.851 61.1059 166.887 60.2799 168.133 60.2799ZM169.799 69.4919V68.6519C169.477 68.7639 169.155 68.8339 168.889 68.8339C168.385 68.8339 168.063 68.5959 168.063 68.1619C168.063 67.8119 168.273 67.4899 168.903 67.1819L169.295 66.9859C170.569 66.6499 171.409 65.7399 171.717 64.6339H170.345C170.065 65.4599 169.337 66.0479 168.189 66.0479C166.887 66.0479 165.795 65.1939 165.697 63.6399H171.829C171.857 63.3739 171.871 63.1499 171.871 62.8699C171.871 60.7699 170.415 59.2019 168.189 59.2019C165.949 59.2019 164.395 60.7279 164.395 63.1499C164.395 65.3619 165.725 66.8459 167.615 67.0839C167.181 67.4619 167.013 67.8679 167.013 68.2879C167.013 69.3099 167.881 69.688 168.721 69.688C169.099 69.688 169.477 69.6039 169.799 69.4919ZM172.777 63.1359C172.777 65.5159 174.359 67.1259 176.417 67.1259C177.817 67.1259 178.811 66.4119 179.273 65.5579V66.9999H180.561V56.6399H179.273V60.6999C178.741 59.8179 177.635 59.2019 176.431 59.2019C174.359 59.2019 172.777 60.7419 172.777 63.1359ZM179.273 63.1499C179.273 64.9559 178.069 66.0059 176.669 66.0059C175.269 66.0059 174.079 64.9419 174.079 63.1359C174.079 61.3299 175.269 60.3079 176.669 60.3079C178.069 60.3079 179.273 61.3719 179.273 63.1499ZM187.104 59.3279H181.938V60.3639H185.634L181.91 65.9499V66.9999H187.132V65.9499H183.366L187.104 60.3639V59.3279ZM191.397 65.5439L188.989 59.3279H187.575L190.669 66.9159L189.157 70.6119H190.473L195.093 59.3279H193.777L191.397 65.5439ZM199.506 66.9999H200.78V59.3279H199.506V66.9999ZM200.164 58.0819C200.626 58.0819 201.004 57.7039 201.004 57.2139C201.004 56.7239 200.626 56.3459 200.164 56.3459C199.674 56.3459 199.296 56.7239 199.296 57.2139C199.296 57.7039 199.674 58.0819 200.164 58.0819ZM208.265 66.9999H209.525V62.4779C209.525 60.2799 208.167 59.1879 206.389 59.1879C205.353 59.1879 204.429 59.6219 203.925 60.4199V59.3279H202.651V66.9999H203.925V62.7579C203.925 61.1059 204.821 60.2939 206.123 60.2939C207.411 60.2939 208.265 61.0919 208.265 62.6599V66.9999ZM216.921 66.9999H218.181V62.4779C218.181 60.2799 216.823 59.1879 215.045 59.1879C214.009 59.1879 213.085 59.6219 212.581 60.4199V59.3279H211.307V66.9999H212.581V62.7579C212.581 61.1059 213.477 60.2939 214.779 60.2939C216.067 60.2939 216.921 61.0919 216.921 62.6599V66.9999ZM222.874 65.5439L220.466 59.3279H219.052L222.146 66.9159L220.634 70.6119H221.95L226.57 59.3279H225.254L222.874 65.5439ZM238.624 66.9999H239.884V62.4779C239.884 60.2799 238.526 59.1879 236.776 59.1879C235.6 59.1879 234.508 59.7899 234.06 60.8959C233.556 59.7479 232.506 59.1879 231.246 59.1879C230.238 59.1879 229.328 59.6219 228.824 60.4339V59.3279H227.55V66.9999H228.824V62.7719C228.824 61.1199 229.706 60.2939 230.994 60.2939C232.254 60.2939 233.094 61.0919 233.094 62.6599V66.9999H234.354V62.7719C234.354 61.1199 235.236 60.2939 236.524 60.2939C237.784 60.2939 238.624 61.0919 238.624 62.6599V66.9999ZM241.674 66.9999H242.948V59.3279H241.674V66.9999ZM242.332 58.0819C242.794 58.0819 243.172 57.7039 243.172 57.2139C243.172 56.7239 242.794 56.3459 242.332 56.3459C241.842 56.3459 241.464 56.7239 241.464 57.2139C241.464 57.7039 241.842 58.0819 242.332 58.0819ZM253.866 66.9999H255.126V62.4779C255.126 60.2799 253.768 59.1879 251.99 59.1879C250.954 59.1879 250.03 59.6219 249.526 60.4199V59.3279H248.252V66.9999H249.526V62.7579C249.526 61.1059 250.422 60.2939 251.724 60.2939C253.012 60.2939 253.866 61.0919 253.866 62.6599V66.9999ZM256.431 63.1359C256.431 65.5159 258.013 67.1259 260.057 67.1259C261.471 67.1259 262.465 66.3979 262.927 65.5719V66.9999H264.215V59.3279H262.927V60.7279C262.479 59.9299 261.499 59.2019 260.071 59.2019C258.013 59.2019 256.431 60.7419 256.431 63.1359ZM262.927 63.1499C262.927 64.9559 261.723 66.0059 260.323 66.0059C258.923 66.0059 257.733 64.9419 257.733 63.1359C257.733 61.3299 258.923 60.3079 260.323 60.3079C261.723 60.3079 262.927 61.3719 262.927 63.1499ZM266.754 58.0819C267.23 58.0819 267.608 57.7039 267.608 57.2139C267.608 56.7239 267.23 56.3459 266.754 56.3459C266.278 56.3459 265.9 56.7239 265.9 57.2139C265.9 57.7039 266.278 58.0819 266.754 58.0819ZM266.11 59.3279V68.6379C266.11 69.3099 265.844 69.5619 265.144 69.5619H264.612V70.6399H265.354C266.656 70.6399 267.384 70.0519 267.384 68.6659V59.3279H266.11ZM268.765 63.1499C268.765 65.5859 270.319 67.1259 272.503 67.1259C274.407 67.1259 275.653 66.0619 276.045 64.5359H274.673C274.393 65.5019 273.637 66.0479 272.503 66.0479C271.103 66.0479 270.067 65.0539 270.067 63.1499C270.067 61.2739 271.103 60.2799 272.503 60.2799C273.637 60.2799 274.407 60.8679 274.673 61.7919H276.045C275.653 60.1819 274.407 59.2019 272.503 59.2019C270.319 59.2019 268.765 60.7419 268.765 63.1499ZM277.444 66.9999H278.718V59.3279H277.444V66.9999ZM278.102 58.0819C278.564 58.0819 278.942 57.7039 278.942 57.2139C278.942 56.7239 278.564 56.3459 278.102 56.3459C277.612 56.3459 277.234 56.7239 277.234 57.2139C277.234 57.7039 277.612 58.0819 278.102 58.0819ZM283.852 60.2799C285.168 60.2799 286.288 61.1059 286.274 62.6039H281.43C281.57 61.1059 282.606 60.2799 283.852 60.2799ZM287.436 64.6339H286.064C285.784 65.4599 285.056 66.0479 283.908 66.0479C282.606 66.0479 281.514 65.1939 281.416 63.6399H287.548C287.576 63.3739 287.59 63.1499 287.59 62.8699C287.59 60.7699 286.134 59.2019 283.908 59.2019C281.668 59.2019 280.114 60.7279 280.114 63.1499C280.114 65.5859 281.724 67.1259 283.908 67.1259C285.812 67.1259 287.044 66.0339 287.436 64.6339ZM288.971 66.9999H290.245V63.6119L293.255 66.9999H294.991L291.365 63.1499L294.977 59.3279H293.199L290.245 62.7299V56.6399H288.971V66.9999ZM295.4 63.1359C295.4 65.5159 296.982 67.1259 299.026 67.1259C300.44 67.1259 301.434 66.3979 301.896 65.5719V66.9999H303.184V59.3279H301.896V60.7279C301.448 59.9299 300.468 59.2019 299.04 59.2019C296.982 59.2019 295.4 60.7419 295.4 63.1359ZM301.896 63.1499C301.896 64.9559 300.692 66.0059 299.292 66.0059C297.892 66.0059 296.702 64.9419 296.702 63.1359C296.702 61.3299 297.892 60.3079 299.292 60.3079C300.692 60.3079 301.896 61.3719 301.896 63.1499ZM306.535 66.9999H307.851L309.699 60.9099L311.547 66.9999H312.863L315.257 59.3279H313.997L312.261 65.7819L310.399 59.3279H309.097L307.193 65.7679L305.429 59.3279H304.127L306.535 66.9999ZM321.738 64.9139C321.682 62.1699 317.23 63.1639 317.23 61.3439C317.23 60.7279 317.79 60.2799 318.728 60.2799C319.75 60.2799 320.338 60.8399 320.394 61.6099H321.668C321.584 60.1119 320.464 59.2019 318.77 59.2019C317.062 59.2019 315.956 60.1679 315.956 61.3439C315.956 64.1999 320.492 63.2059 320.492 64.9139C320.492 65.5439 319.932 66.0479 318.924 66.0479C317.846 66.0479 317.188 65.4879 317.118 64.7459H315.802C315.886 66.1459 317.146 67.1259 318.938 67.1259C320.632 67.1259 321.738 66.1739 321.738 64.9139ZM327.926 59.3279H322.76V60.3639H326.456L322.732 65.9499V66.9999H327.954V65.9499H324.188L327.926 60.3639V59.3279ZM332.569 60.2799C333.885 60.2799 335.005 61.1059 334.991 62.6039H330.147C330.287 61.1059 331.323 60.2799 332.569 60.2799ZM336.153 64.6339H334.781C334.501 65.4599 333.773 66.0479 332.625 66.0479C331.323 66.0479 330.231 65.1939 330.133 63.6399H336.265C336.293 63.3739 336.307 63.1499 336.307 62.8699C336.307 60.7699 334.851 59.2019 332.625 59.2019C330.385 59.2019 328.831 60.7279 328.831 63.1499C328.831 65.5859 330.441 67.1259 332.625 67.1259C334.529 67.1259 335.761 66.0339 336.153 64.6339ZM352.195 66.9999H353.455V62.4779C353.455 60.2799 352.097 59.1879 350.347 59.1879C349.171 59.1879 348.079 59.7899 347.631 60.8959C347.127 59.7479 346.077 59.1879 344.817 59.1879C343.809 59.1879 342.899 59.6219 342.395 60.4339V59.3279H341.121V66.9999H342.395V62.7719C342.395 61.1199 343.277 60.2939 344.565 60.2939C345.825 60.2939 346.665 61.0919 346.665 62.6599V66.9999H347.925V62.7719C347.925 61.1199 348.807 60.2939 350.095 60.2939C351.355 60.2939 352.195 61.0919 352.195 62.6599V66.9999ZM355.245 66.9999H356.519V59.3279H355.245V66.9999ZM355.903 58.0819C356.365 58.0819 356.743 57.7039 356.743 57.2139C356.743 56.7239 356.365 56.3459 355.903 56.3459C355.413 56.3459 355.035 56.7239 355.035 57.2139C355.035 57.7039 355.413 58.0819 355.903 58.0819ZM361.653 60.2799C362.969 60.2799 364.089 61.1059 364.075 62.6039H359.231C359.37 61.1059 360.407 60.2799 361.653 60.2799ZM365.237 64.6339H363.865C363.585 65.4599 362.857 66.0479 361.709 66.0479C360.407 66.0479 359.315 65.1939 359.217 63.6399H365.349C365.377 63.3739 365.391 63.1499 365.391 62.8699C365.391 60.7699 363.935 59.2019 361.709 59.2019C359.469 59.2019 357.915 60.7279 357.915 63.1499C357.915 65.5859 359.525 67.1259 361.709 67.1259C363.613 67.1259 364.845 66.0339 365.237 64.6339ZM367.458 58.0819C367.934 58.0819 368.312 57.7039 368.312 57.2139C368.312 56.7239 367.934 56.3459 367.458 56.3459C366.982 56.3459 366.604 56.7239 366.604 57.2139C366.604 57.7039 366.982 58.0819 367.458 58.0819ZM366.814 59.3279V68.6379C366.814 69.3099 366.548 69.5619 365.848 69.5619H365.316V70.6399H366.058C367.36 70.6399 368.088 70.0519 368.088 68.6659V59.3279H366.814ZM375.461 64.9139C375.405 62.1699 370.953 63.1639 370.953 61.3439C370.953 60.7279 371.513 60.2799 372.451 60.2799C373.473 60.2799 374.061 60.8399 374.117 61.6099H375.391C375.307 60.1119 374.187 59.2019 372.493 59.2019C370.785 59.2019 369.679 60.1679 369.679 61.3439C369.679 64.1999 374.215 63.2059 374.215 64.9139C374.215 65.5439 373.655 66.0479 372.647 66.0479C371.569 66.0479 370.911 65.4879 370.841 64.7459H369.525C369.609 66.1459 370.869 67.1259 372.661 67.1259C374.355 67.1259 375.461 66.1739 375.461 64.9139ZM376.483 63.1499C376.483 65.5859 378.037 67.1259 380.221 67.1259C382.125 67.1259 383.371 66.0619 383.763 64.5359H382.391C382.111 65.5019 381.355 66.0479 380.221 66.0479C378.821 66.0479 377.785 65.0539 377.785 63.1499C377.785 61.2739 378.821 60.2799 380.221 60.2799C381.355 60.2799 382.125 60.8679 382.391 61.7919H383.763C383.371 60.1819 382.125 59.2019 380.221 59.2019C378.037 59.2019 376.483 60.7419 376.483 63.1499ZM384.687 63.1359C384.687 65.5159 386.269 67.1259 388.313 67.1259C389.727 67.1259 390.721 66.3979 391.183 65.5719V66.9999H392.471V59.3279H391.183V60.7279C390.735 59.9299 389.755 59.2019 388.327 59.2019C386.269 59.2019 384.687 60.7419 384.687 63.1359ZM391.183 63.1499C391.183 64.9559 389.979 66.0059 388.579 66.0059C387.179 66.0059 385.989 64.9419 385.989 63.1359C385.989 61.3299 387.179 60.3079 388.579 60.3079C389.979 60.3079 391.183 61.3719 391.183 63.1499ZM6.69205 87.9999H7.95205V83.4779C7.95205 81.2799 6.59405 80.188 4.81605 80.188C3.78005 80.188 2.85605 80.6219 2.35205 81.4199V80.3279H1.07805V87.9999H2.35205V83.7579C2.35205 82.1059 3.24805 81.2939 4.55005 81.2939C5.83805 81.2939 6.69205 82.0919 6.69205 83.66V87.9999ZM9.25713 84.1359C9.25713 86.5159 10.8392 88.1259 12.8832 88.1259C14.2971 88.1259 15.2912 87.3979 15.7532 86.5719V87.9999H17.0412V80.3279H15.7532V81.7279C15.3052 80.9299 14.3252 80.202 12.8972 80.202C10.8392 80.202 9.25713 81.7419 9.25713 84.1359ZM15.7532 84.1499C15.7532 85.9559 14.5492 87.0059 13.1492 87.0059C11.7492 87.0059 10.5592 85.9419 10.5592 84.1359C10.5592 82.3299 11.7492 81.3079 13.1492 81.3079C14.5492 81.3079 15.7532 82.3719 15.7532 84.1499ZM27.8425 85.9139C27.7865 83.1699 23.3345 84.1639 23.3345 82.3439C23.3345 81.7279 23.8945 81.2799 24.8325 81.2799C25.8545 81.2799 26.4425 81.8399 26.4985 82.6099H27.7725C27.6885 81.1119 26.5685 80.202 24.8745 80.202C23.1665 80.202 22.0605 81.1679 22.0605 82.3439C22.0605 85.1999 26.5965 84.2059 26.5965 85.9139C26.5965 86.5439 26.0365 87.0479 25.0285 87.0479C23.9505 87.0479 23.2925 86.4879 23.2225 85.7459H21.9065C21.9905 87.1459 23.2505 88.1259 25.0425 88.1259C26.7365 88.1259 27.8425 87.1739 27.8425 85.9139ZM30.615 81.7419V80.3279H29.341V91.6399H30.615V86.5859C31.091 87.3699 32.085 88.1259 33.485 88.1259C35.5429 88.1259 37.125 86.5159 37.125 84.1359C37.125 81.7419 35.5429 80.202 33.485 80.202C32.085 80.202 31.077 80.9299 30.615 81.7419ZM35.8229 84.1359C35.8229 85.9419 34.6329 87.0059 33.2189 87.0059C31.8329 87.0059 30.615 85.9559 30.615 84.1499C30.615 82.3719 31.8329 81.3079 33.2189 81.3079C34.6329 81.3079 35.8229 82.3299 35.8229 84.1359ZM38.0258 84.1359C38.0258 86.5159 39.6078 88.1259 41.6518 88.1259C43.0658 88.1259 44.0598 87.3979 44.5219 86.5719V87.9999H45.8098V80.3279H44.5219V81.7279C44.0738 80.9299 43.0938 80.202 41.6658 80.202C39.6078 80.202 38.0258 81.7419 38.0258 84.1359ZM44.5219 84.1499C44.5219 85.9559 43.3179 87.0059 41.9179 87.0059C40.5178 87.0059 39.3279 85.9419 39.3279 84.1359C39.3279 82.3299 40.5178 81.3079 41.9179 81.3079C43.3179 81.3079 44.5219 82.3719 44.5219 84.1499ZM47.1868 84.1499C47.1868 86.5859 48.7409 88.1259 50.9249 88.1259C52.8288 88.1259 54.0749 87.062 54.4669 85.5359H53.0948C52.8148 86.5019 52.0588 87.0479 50.9249 87.0479C49.5248 87.0479 48.4888 86.0539 48.4888 84.1499C48.4888 82.2739 49.5248 81.2799 50.9249 81.2799C52.0588 81.2799 52.8288 81.8679 53.0948 82.7919H54.4669C54.0749 81.1819 52.8288 80.202 50.9249 80.202C48.7409 80.202 47.1868 81.7419 47.1868 84.1499ZM59.1287 81.2799C60.4447 81.2799 61.5648 82.1059 61.5508 83.6039H56.7067C56.8467 82.1059 57.8828 81.2799 59.1287 81.2799ZM62.7127 85.6339H61.3407C61.0607 86.4599 60.3327 87.0479 59.1847 87.0479C57.8828 87.0479 56.7907 86.1939 56.6927 84.6399H62.8247C62.8527 84.3739 62.8667 84.15 62.8667 83.8699C62.8667 81.7699 61.4108 80.202 59.1847 80.202C56.9447 80.202 55.3908 81.7279 55.3908 84.1499C55.3908 86.5859 57.0007 88.1259 59.1847 88.1259C61.0887 88.1259 62.3208 87.0339 62.7127 85.6339ZM65.5224 83.8279C65.5224 82.0499 66.4464 81.5039 67.6644 81.5039H68.0004V80.188C66.7823 80.188 65.9564 80.7199 65.5224 81.5739V80.3279H64.2483V87.9999H65.5224V83.8279ZM77.2935 80.3279H72.1275V81.3639H75.8235L72.0995 86.9499V87.9999H77.3215V86.9499H73.5555L77.2935 81.3639V80.3279ZM83.381 81.7419V80.3279H82.107V91.6399H83.381V86.5859C83.8569 87.3699 84.851 88.1259 86.251 88.1259C88.309 88.1259 89.891 86.5159 89.891 84.1359C89.891 81.7419 88.309 80.202 86.251 80.202C84.851 80.202 83.8429 80.9299 83.381 81.7419ZM88.589 84.1359C88.589 85.9419 87.399 87.0059 85.985 87.0059C84.599 87.0059 83.381 85.9559 83.381 84.1499C83.381 82.3719 84.599 81.3079 85.985 81.3079C87.399 81.3079 88.589 82.3299 88.589 84.1359ZM98.0719 80.3279H96.7979V84.5419C96.7979 86.1939 95.9159 87.0059 94.5999 87.0059C93.3119 87.0059 92.4579 86.2079 92.4579 84.6539V80.3279H91.1979V84.8219C91.1979 87.0199 92.5839 88.1119 94.3479 88.1119C95.3699 88.1119 96.3079 87.6639 96.7979 86.8659V87.9999H98.0719V80.3279ZM101.197 81.7419V80.3279H99.923V91.6399H101.197V86.5859C101.673 87.3699 102.667 88.1259 104.067 88.1259C106.125 88.1259 107.707 86.5159 107.707 84.1359C107.707 81.7419 106.125 80.202 104.067 80.202C102.667 80.202 101.659 80.9299 101.197 81.7419ZM106.405 84.1359C106.405 85.9419 105.215 87.0059 103.801 87.0059C102.415 87.0059 101.197 85.9559 101.197 84.1499C101.197 82.3719 102.415 81.3079 103.801 81.3079C105.215 81.3079 106.405 82.3299 106.405 84.1359ZM109.084 87.9999H110.358V80.3279H109.084V87.9999ZM109.742 79.0819C110.204 79.0819 110.582 78.7039 110.582 78.2139C110.582 77.7239 110.204 77.3459 109.742 77.3459C109.252 77.3459 108.874 77.7239 108.874 78.2139C108.874 78.7039 109.252 79.0819 109.742 79.0819ZM112.229 87.9999H113.503V77.6399H112.229V87.9999ZM118.636 81.2799C119.952 81.2799 121.072 82.1059 121.058 83.6039H116.214C116.354 82.1059 117.39 81.2799 118.636 81.2799ZM122.22 85.6339H120.848C120.568 86.4599 119.84 87.0479 118.692 87.0479C117.39 87.0479 116.298 86.1939 116.2 84.6399H122.332C122.36 84.3739 122.374 84.15 122.374 83.8699C122.374 81.7699 120.918 80.202 118.692 80.202C116.452 80.202 114.898 81.7279 114.898 84.1499C114.898 86.5859 116.508 88.1259 118.692 88.1259C120.596 88.1259 121.828 87.0339 122.22 85.6339ZM134.83 87.9999H136.09V83.4779C136.09 81.2799 134.732 80.188 132.982 80.188C131.806 80.188 130.714 80.79 130.266 81.896C129.762 80.7479 128.712 80.188 127.452 80.188C126.444 80.188 125.534 80.6219 125.03 81.4339V80.3279H123.756V87.9999H125.03V83.7719C125.03 82.1199 125.912 81.2939 127.2 81.2939C128.46 81.2939 129.3 82.0919 129.3 83.66V87.9999H130.56V83.7719C130.56 82.1199 131.442 81.2939 132.73 81.2939C133.99 81.2939 134.83 82.0919 134.83 83.66V87.9999ZM136.774 90.0019H137.628L139.196 86.2359H137.796L136.774 90.0019ZM145.062 81.7419V80.3279H143.788V91.6399H145.062V86.5859C145.538 87.3699 146.532 88.1259 147.932 88.1259C149.99 88.1259 151.572 86.5159 151.572 84.1359C151.572 81.7419 149.99 80.202 147.932 80.202C146.532 80.202 145.524 80.9299 145.062 81.7419ZM150.27 84.1359C150.27 85.9419 149.08 87.0059 147.666 87.0059C146.28 87.0059 145.062 85.9559 145.062 84.1499C145.062 82.3719 146.28 81.3079 147.666 81.3079C149.08 81.3079 150.27 82.3299 150.27 84.1359ZM160.229 84.1499C160.229 81.7279 158.535 80.202 156.351 80.202C154.181 80.202 152.473 81.7279 152.473 84.1499C152.473 86.5859 154.125 88.1259 156.295 88.1259C158.479 88.1259 160.229 86.5859 160.229 84.1499ZM153.775 84.1499C153.775 82.2179 154.993 81.3079 156.337 81.3079C157.653 81.3079 158.927 82.2179 158.927 84.1499C158.927 86.0959 157.625 87.0059 156.295 87.0059C154.965 87.0059 153.775 86.0959 153.775 84.1499ZM161.604 87.9999H162.878V77.6399H161.604V87.9999ZM168.011 81.2799C169.327 81.2799 170.447 82.1059 170.433 83.6039H165.589C165.729 82.1059 166.765 81.2799 168.011 81.2799ZM171.595 85.6339H170.223C169.943 86.4599 169.215 87.0479 168.067 87.0479C166.765 87.0479 165.673 86.1939 165.575 84.6399H171.707C171.735 84.3739 171.749 84.15 171.749 83.8699C171.749 81.7699 170.293 80.202 168.067 80.202C165.827 80.202 164.273 81.7279 164.273 84.1499C164.273 86.5859 165.883 88.1259 168.067 88.1259C169.971 88.1259 171.203 87.0339 171.595 85.6339ZM172.655 84.1499C172.655 86.5859 174.209 88.1259 176.393 88.1259C178.297 88.1259 179.543 87.062 179.935 85.5359H178.563C178.283 86.5019 177.527 87.0479 176.393 87.0479C174.993 87.0479 173.957 86.0539 173.957 84.1499C173.957 82.2739 174.993 81.2799 176.393 81.2799C177.527 81.2799 178.297 81.8679 178.563 82.7919H179.935C179.543 81.1819 178.297 80.202 176.393 80.202C174.209 80.202 172.655 81.7419 172.655 84.1499ZM188.615 84.1499C188.615 81.7279 186.921 80.202 184.737 80.202C182.567 80.202 180.859 81.7279 180.859 84.1499C180.859 86.5859 182.511 88.1259 184.681 88.1259C186.865 88.1259 188.615 86.5859 188.615 84.1499ZM182.161 84.1499C182.161 82.2179 183.379 81.3079 184.723 81.3079C186.039 81.3079 187.313 82.2179 187.313 84.1499C187.313 86.0959 186.011 87.0059 184.681 87.0059C183.351 87.0059 182.161 86.0959 182.161 84.1499ZM195.604 87.9999H196.864V83.4779C196.864 81.2799 195.506 80.188 193.728 80.188C192.692 80.188 191.768 80.6219 191.264 81.4199V80.3279H189.99V87.9999H191.264V83.7579C191.264 82.1059 192.16 81.2939 193.462 81.2939C194.75 81.2939 195.604 82.0919 195.604 83.66V87.9999ZM201.907 81.2799C203.223 81.2799 204.343 82.1059 204.329 83.6039H199.485C199.625 82.1059 200.661 81.2799 201.907 81.2799ZM205.491 85.6339H204.119C203.839 86.4599 203.111 87.0479 201.963 87.0479C200.661 87.0479 199.569 86.1939 199.471 84.6399H205.603C205.631 84.3739 205.645 84.15 205.645 83.8699C205.645 81.7699 204.189 80.202 201.963 80.202C199.723 80.202 198.169 81.7279 198.169 84.1499C198.169 86.5859 199.779 88.1259 201.963 88.1259C203.867 88.1259 205.099 87.0339 205.491 85.6339ZM206.55 84.1359C206.55 86.5159 208.132 88.1259 210.19 88.1259C211.59 88.1259 212.584 87.3839 213.046 86.5579V88.1679C213.046 89.8059 212.024 90.674 210.666 90.674C209.406 90.674 208.496 90.0439 208.216 89.1199H206.956C207.208 90.7579 208.65 91.7799 210.666 91.7799C212.92 91.7799 214.334 90.2819 214.334 88.1679V80.3279H213.046V81.7279C212.598 80.9019 211.59 80.202 210.19 80.202C208.132 80.202 206.55 81.7419 206.55 84.1359ZM213.046 84.1499C213.046 85.9559 211.842 87.0059 210.442 87.0059C209.042 87.0059 207.852 85.9419 207.852 84.1359C207.852 82.3299 209.042 81.3079 210.442 81.3079C211.842 81.3079 213.046 82.3719 213.046 84.1499ZM223.467 84.1499C223.467 81.7279 221.773 80.202 219.589 80.202C217.419 80.202 215.711 81.7279 215.711 84.1499C215.711 86.5859 217.363 88.1259 219.533 88.1259C221.717 88.1259 223.467 86.5859 223.467 84.1499ZM217.013 84.1499C217.013 82.2179 218.231 81.3079 219.575 81.3079C220.891 81.3079 222.165 82.2179 222.165 84.1499C222.165 86.0959 220.863 87.0059 219.533 87.0059C218.203 87.0059 217.013 86.0959 217.013 84.1499ZM229.773 87.9999H231.089L232.937 81.91L234.785 87.9999H236.101L238.495 80.3279H237.235L235.499 86.7819L233.637 80.3279H232.335L230.431 86.7679L228.667 80.3279H227.365L229.773 87.9999ZM242.721 81.2799C244.037 81.2799 245.157 82.1059 245.143 83.6039H240.299C240.439 82.1059 241.475 81.2799 242.721 81.2799ZM246.305 85.6339H244.933C244.653 86.4599 243.925 87.0479 242.777 87.0479C241.475 87.0479 240.383 86.1939 240.285 84.6399H246.417C246.445 84.3739 246.459 84.15 246.459 83.8699C246.459 81.7699 245.003 80.202 242.777 80.202C240.537 80.202 238.983 81.7279 238.983 84.1499C238.983 86.5859 240.593 88.1259 242.777 88.1259C244.681 88.1259 245.913 87.0339 246.305 85.6339ZM248.121 85.8999C248.121 87.4399 248.891 87.9999 250.249 87.9999H251.397V86.9219H250.459C249.675 86.9219 249.395 86.6559 249.395 85.8999V81.3779H251.397V80.3279H249.395V78.396H248.121V80.3279H247.127V81.3779H248.121V85.8999ZM255.903 81.2799C257.219 81.2799 258.339 82.1059 258.325 83.6039H253.481C253.62 82.1059 254.657 81.2799 255.903 81.2799ZM259.487 85.6339H258.115C257.835 86.4599 257.107 87.0479 255.959 87.0479C254.657 87.0479 253.565 86.1939 253.467 84.6399H259.599C259.627 84.3739 259.641 84.15 259.641 83.8699C259.641 81.7699 258.185 80.202 255.959 80.202C253.719 80.202 252.165 81.7279 252.165 84.1499C252.165 86.5859 253.775 88.1259 255.959 88.1259C257.863 88.1259 259.095 87.0339 259.487 85.6339ZM262.296 83.8279C262.296 82.0499 263.22 81.5039 264.438 81.5039H264.774V80.188C263.556 80.188 262.73 80.7199 262.296 81.5739V80.3279H261.022V87.9999H262.296V83.8279ZM268.857 86.5439L266.449 80.3279H265.035L268.129 87.9159L266.617 91.6119H267.933L272.553 80.3279H271.237L268.857 86.5439ZM279.147 87.9999H280.407V83.4779C280.407 81.2799 279.049 80.188 277.271 80.188C276.235 80.188 275.311 80.6219 274.807 81.4199V80.3279H273.533V87.9999H274.807V83.7579C274.807 82.1059 275.703 81.2939 277.005 81.2939C278.293 81.2939 279.147 82.0919 279.147 83.66V87.9999ZM281.713 84.1359C281.713 86.5159 283.295 88.1259 285.339 88.1259C286.753 88.1259 287.747 87.3979 288.209 86.5719V87.9999H289.497V80.3279H288.209V81.7279C287.761 80.9299 286.781 80.202 285.353 80.202C283.295 80.202 281.713 81.7419 281.713 84.1359ZM288.209 84.1499C288.209 85.9559 287.005 87.0059 285.605 87.0059C284.205 87.0059 283.015 85.9419 283.015 84.1359C283.015 82.3299 284.205 81.3079 285.605 81.3079C287.005 81.3079 288.209 82.3719 288.209 84.1499ZM292.623 83.8279C292.623 82.0499 293.547 81.5039 294.765 81.5039H295.101V80.188C293.883 80.188 293.057 80.7199 292.623 81.5739V80.3279H291.349V87.9999H292.623V83.8279ZM300.962 80.3279H295.796V81.3639H299.492L295.768 86.9499V87.9999H300.99V86.9499H297.224L300.962 81.3639V80.3279ZM301.867 84.1359C301.867 86.5159 303.449 88.1259 305.493 88.1259C306.907 88.1259 307.901 87.3979 308.363 86.5719V87.9999H309.651V80.3279H308.363V81.7279C307.915 80.9299 306.935 80.202 305.507 80.202C303.449 80.202 301.867 81.7419 301.867 84.1359ZM308.363 84.1499C308.363 85.9559 307.159 87.0059 305.759 87.0059C304.359 87.0059 303.169 85.9419 303.169 84.1359C303.169 82.3299 304.359 81.3079 305.759 81.3079C307.159 81.3079 308.363 82.3719 308.363 84.1499ZM314.461 84.1499C314.461 86.5859 316.015 88.1259 318.199 88.1259C320.103 88.1259 321.349 87.062 321.741 85.5359H320.369C320.089 86.5019 319.333 87.0479 318.199 87.0479C316.799 87.0479 315.763 86.0539 315.763 84.1499C315.763 82.2739 316.799 81.2799 318.199 81.2799C319.333 81.2799 320.103 81.8679 320.369 82.7919H321.741C321.349 81.1819 320.103 80.202 318.199 80.202C316.015 80.202 314.461 81.7419 314.461 84.1499ZM327.831 80.3279H322.665V81.3639H326.361L322.637 86.9499V87.9999H327.859V86.9499H324.093L327.831 81.3639V80.3279ZM332.124 86.5439L329.716 80.3279H328.302L331.396 87.9159L329.884 91.6119H331.2L335.82 80.3279H334.504L332.124 86.5439ZM0.602051 105.136C0.602051 107.516 2.18405 109.126 4.24205 109.126C5.64205 109.126 6.63605 108.384 7.09805 107.558V109.168C7.09805 110.806 6.07605 111.674 4.71805 111.674C3.45805 111.674 2.54805 111.044 2.26805 110.12H1.00805C1.26005 111.758 2.70205 112.78 4.71805 112.78C6.97205 112.78 8.38605 111.282 8.38605 109.168V101.328H7.09805V102.728C6.65005 101.902 5.64205 101.202 4.24205 101.202C2.18405 101.202 0.602051 102.742 0.602051 105.136ZM7.09805 105.15C7.09805 106.956 5.89405 108.006 4.49405 108.006C3.09405 108.006 1.90405 106.942 1.90405 105.136C1.90405 103.33 3.09405 102.308 4.49405 102.308C5.89405 102.308 7.09805 103.372 7.09805 105.15ZM11.513 104.828C11.513 103.05 12.4369 102.504 13.655 102.504H13.991V101.188C12.773 101.188 11.947 101.72 11.513 102.574V101.328H10.239V109H11.513V104.828ZM22.4417 105.15C22.4417 102.728 20.7477 101.202 18.5637 101.202C16.3937 101.202 14.6857 102.728 14.6857 105.15C14.6857 107.586 16.3377 109.126 18.5077 109.126C20.6917 109.126 22.4417 107.586 22.4417 105.15ZM15.9877 105.15C15.9877 103.218 17.2057 102.308 18.5497 102.308C19.8657 102.308 21.1397 103.218 21.1397 105.15C21.1397 107.096 19.8377 108.006 18.5077 108.006C17.1777 108.006 15.9877 107.096 15.9877 105.15ZM31.0968 105.15C31.0968 102.728 29.4028 101.202 27.2188 101.202C25.0488 101.202 23.3408 102.728 23.3408 105.15C23.3408 107.586 24.9928 109.126 27.1628 109.126C29.3468 109.126 31.0968 107.586 31.0968 105.15ZM24.6428 105.15C24.6428 103.218 25.8608 102.308 27.2048 102.308C28.5208 102.308 29.7948 103.218 29.7948 105.15C29.7948 107.096 28.4928 108.006 27.1628 108.006C25.8328 108.006 24.6428 107.096 24.6428 105.15ZM43.5457 109H44.8059V104.478C44.8059 102.28 43.4478 101.188 41.6978 101.188C40.5217 101.188 39.4297 101.79 38.9818 102.896C38.4777 101.748 37.4277 101.188 36.1678 101.188C35.1598 101.188 34.2498 101.622 33.7458 102.434V101.328H32.4718V109H33.7458V104.772C33.7458 103.12 34.6278 102.294 35.9157 102.294C37.1757 102.294 38.0158 103.092 38.0158 104.66V109H39.2757V104.772C39.2757 103.12 40.1578 102.294 41.4458 102.294C42.7057 102.294 43.5457 103.092 43.5457 104.66V109ZM49.8577 102.28C51.1737 102.28 52.2936 103.106 52.2796 104.604H47.4356C47.5756 103.106 48.6117 102.28 49.8577 102.28ZM53.4417 106.634H52.0696C51.7896 107.46 51.0616 108.048 49.9137 108.048C48.6116 108.048 47.5196 107.194 47.4216 105.64H53.5536C53.5816 105.374 53.5956 105.15 53.5956 104.87C53.5956 102.77 52.1397 101.202 49.9137 101.202C47.6736 101.202 46.1196 102.728 46.1196 105.15C46.1196 107.586 47.7297 109.126 49.9137 109.126C51.8176 109.126 53.0497 108.034 53.4417 106.634ZM56.2513 104.828C56.2513 103.05 57.1753 102.504 58.3932 102.504H58.7292V101.188C57.5112 101.188 56.6852 101.72 56.2513 102.574V101.328H54.9772V109H56.2513V104.828ZM59.424 105.136C59.424 107.516 61.006 109.126 63.0499 109.126C64.464 109.126 65.458 108.398 65.92 107.572V109H67.208V101.328H65.92V102.728C65.472 101.93 64.492 101.202 63.0639 101.202C61.006 101.202 59.424 102.742 59.424 105.136ZM65.92 105.15C65.92 106.956 64.716 108.006 63.3159 108.006C61.9159 108.006 60.7259 106.942 60.7259 105.136C60.7259 103.33 61.9159 102.308 63.3159 102.308C64.716 102.308 65.92 103.372 65.92 105.15ZM70.3069 108.216C70.3069 107.726 69.9288 107.348 69.4669 107.348C68.9769 107.348 68.5989 107.726 68.5989 108.216C68.5989 108.706 68.9769 109.084 69.4669 109.084C69.9288 109.084 70.3069 108.706 70.3069 108.216ZM78.1708 99.2419H75.1328V109H78.1708C81.3768 109 83.3508 107.166 83.3508 104.142C83.3508 101.118 81.3768 99.2419 78.1708 99.2419ZM76.4068 107.95V100.278H78.1708C80.7188 100.278 82.0488 101.762 82.0488 104.142C82.0488 106.522 80.7188 107.95 78.1708 107.95H76.4068ZM89.4212 101.328H84.2551V102.364H87.9512L84.2271 107.95V109H89.4492V107.95H85.6832L89.4212 102.364V101.328ZM90.8023 109H92.0763V101.328H90.8023V109ZM91.4603 100.082C91.9222 100.082 92.3003 99.7039 92.3003 99.2139C92.3003 98.7239 91.9222 98.3459 91.4603 98.3459C90.9703 98.3459 90.5923 98.7239 90.5923 99.2139C90.5923 99.7039 90.9703 100.082 91.4603 100.082ZM97.2096 102.28C98.5256 102.28 99.6456 103.106 99.6316 104.604H94.7876C94.9276 103.106 95.9636 102.28 97.2096 102.28ZM98.8756 111.492V110.652C98.5536 110.764 98.2316 110.834 97.9656 110.834C97.4616 110.834 97.1396 110.596 97.1396 110.162C97.1396 109.812 97.3496 109.49 97.9796 109.182L98.3716 108.986C99.6456 108.65 100.486 107.74 100.794 106.634H99.4216C99.1416 107.46 98.4136 108.048 97.2656 108.048C95.9636 108.048 94.8716 107.194 94.7736 105.64H100.906C100.934 105.374 100.948 105.15 100.948 104.87C100.948 102.77 99.4916 101.202 97.2656 101.202C95.0256 101.202 93.4715 102.728 93.4715 105.15C93.4715 107.362 94.8016 108.846 96.6916 109.084C96.2576 109.462 96.0896 109.868 96.0896 110.288C96.0896 111.31 96.9576 111.688 97.7976 111.688C98.1756 111.688 98.5536 111.604 98.8756 111.492ZM102.329 109H103.603V105.612L106.613 109H108.349L104.723 105.15L108.335 101.328H106.557L103.603 104.73V98.6399H102.329V109ZM109.234 109H110.508V101.328H109.234V109ZM109.892 100.082C110.354 100.082 110.732 99.7039 110.732 99.2139C110.732 98.7239 110.354 98.3459 109.892 98.3459C109.402 98.3459 109.024 98.7239 109.024 99.2139C109.024 99.7039 109.402 100.082 109.892 100.082ZM126.886 109H128.146V104.478C128.146 102.28 126.788 101.188 125.038 101.188C123.862 101.188 122.77 101.79 122.322 102.896C121.818 101.748 120.768 101.188 119.508 101.188C118.5 101.188 117.59 101.622 117.086 102.434V101.328H115.812V109H117.086V104.772C117.086 103.12 117.968 102.294 119.256 102.294C120.516 102.294 121.356 103.092 121.356 104.66V109H122.616V104.772C122.616 103.12 123.498 102.294 124.786 102.294C126.046 102.294 126.886 103.092 126.886 104.66V109ZM137.216 105.15C137.216 102.728 135.522 101.202 133.338 101.202C131.168 101.202 129.46 102.728 129.46 105.15C129.46 107.586 131.112 109.126 133.282 109.126C135.466 109.126 137.216 107.586 137.216 105.15ZM130.762 105.15C130.762 103.218 131.98 102.308 133.324 102.308C134.64 102.308 135.914 103.218 135.914 105.15C135.914 107.096 134.612 108.006 133.282 108.006C131.952 108.006 130.762 107.096 130.762 105.15ZM143.281 101.328H138.115V102.364H141.811L138.087 107.95V109H143.309V107.95H139.543L143.281 102.364V101.328ZM140.719 100.362C141.125 100.362 141.447 100.04 141.447 99.6339C141.447 99.228 141.125 98.8919 140.719 98.8919C140.299 98.8919 139.977 99.228 139.977 99.6339C139.977 100.04 140.299 100.362 140.719 100.362ZM144.662 109H145.936V98.6399H144.662V109ZM147.807 109H149.081V101.328H147.807V109ZM148.465 100.082C148.927 100.082 149.305 99.7039 149.305 99.2139C149.305 98.7239 148.927 98.3459 148.465 98.3459C147.975 98.3459 147.597 98.7239 147.597 99.2139C147.597 99.7039 147.975 100.082 148.465 100.082ZM152.451 109H153.767L155.615 102.91L157.463 109H158.779L161.173 101.328H159.913L158.177 107.782L156.315 101.328H155.013L153.109 107.768L151.345 101.328H150.043L152.451 109ZM169.417 105.15C169.417 102.728 167.723 101.202 165.539 101.202C163.369 101.202 161.661 102.728 161.661 105.15C161.661 107.586 163.313 109.126 165.483 109.126C167.667 109.126 169.417 107.586 169.417 105.15ZM162.963 105.15C162.963 103.218 164.181 102.308 165.525 102.308C166.841 102.308 168.115 103.218 168.115 105.15C168.115 107.096 166.813 108.006 165.483 108.006C164.153 108.006 162.963 107.096 162.963 105.15ZM176.308 106.914C176.252 104.17 171.8 105.164 171.8 103.344C171.8 102.728 172.36 102.28 173.298 102.28C174.32 102.28 174.908 102.84 174.964 103.61H176.238C176.154 102.112 175.034 101.202 173.34 101.202C171.632 101.202 170.526 102.168 170.526 103.344C170.526 106.2 175.062 105.206 175.062 106.914C175.062 107.544 174.502 108.048 173.494 108.048C172.416 108.048 171.758 107.488 171.688 106.746H170.372C170.456 108.146 171.716 109.126 173.508 109.126C175.202 109.126 176.308 108.174 176.308 106.914ZM171.744 99.7039V100.656L174.726 99.0599V97.9539L171.744 99.7039ZM177.331 105.15C177.331 107.586 178.885 109.126 181.069 109.126C182.973 109.126 184.219 108.062 184.611 106.536H183.239C182.959 107.502 182.203 108.048 181.069 108.048C179.669 108.048 178.633 107.054 178.633 105.15C178.633 103.274 179.669 102.28 181.069 102.28C182.203 102.28 182.973 102.868 183.239 103.792H184.611C184.219 102.182 182.973 101.202 181.069 101.202C178.885 101.202 177.331 102.742 177.331 105.15ZM186.01 109H187.284V101.328H186.01V109ZM186.668 100.082C187.13 100.082 187.508 99.7039 187.508 99.2139C187.508 98.7239 187.13 98.3459 186.668 98.3459C186.178 98.3459 185.8 98.7239 185.8 99.2139C185.8 99.7039 186.178 100.082 186.668 100.082ZM199.868 105.15C199.868 102.728 198.174 101.202 195.99 101.202C193.82 101.202 192.112 102.728 192.112 105.15C192.112 107.586 193.764 109.126 195.934 109.126C198.118 109.126 199.868 107.586 199.868 105.15ZM193.414 105.15C193.414 103.218 194.632 102.308 195.976 102.308C197.292 102.308 198.566 103.218 198.566 105.15C198.566 107.096 197.264 108.006 195.934 108.006C194.604 108.006 193.414 107.096 193.414 105.15ZM200.767 105.15C200.767 107.586 202.321 109.126 204.505 109.126C206.409 109.126 207.655 108.062 208.047 106.536H206.675C206.395 107.502 205.639 108.048 204.505 108.048C203.105 108.048 202.069 107.054 202.069 105.15C202.069 103.274 203.105 102.28 204.505 102.28C205.639 102.28 206.409 102.868 206.675 103.792H208.047C207.655 102.182 206.409 101.202 204.505 101.202C202.321 101.202 200.767 102.742 200.767 105.15ZM212.709 102.28C214.025 102.28 215.145 103.106 215.131 104.604H210.287C210.427 103.106 211.463 102.28 212.709 102.28ZM216.293 106.634H214.921C214.641 107.46 213.913 108.048 212.765 108.048C211.463 108.048 210.371 107.194 210.273 105.64H216.405C216.433 105.374 216.447 105.15 216.447 104.87C216.447 102.77 214.991 101.202 212.765 101.202C210.525 101.202 208.971 102.728 208.971 105.15C208.971 107.586 210.581 109.126 212.765 109.126C214.669 109.126 215.901 108.034 216.293 106.634ZM223.443 109H224.703V104.478C224.703 102.28 223.345 101.188 221.567 101.188C220.531 101.188 219.607 101.622 219.103 102.42V101.328H217.829V109H219.103V104.758C219.103 103.106 219.999 102.294 221.301 102.294C222.589 102.294 223.443 103.092 223.443 104.66V109ZM229.396 107.544L226.988 101.328H225.574L228.668 108.916L227.156 112.612H228.472L233.092 101.328H231.776L229.396 107.544ZM248.579 109H249.839V104.478C249.839 102.28 248.481 101.188 246.731 101.188C245.555 101.188 244.463 101.79 244.015 102.896C243.511 101.748 242.461 101.188 241.201 101.188C240.193 101.188 239.283 101.622 238.779 102.434V101.328H237.505V109H238.779V104.772C238.779 103.12 239.661 102.294 240.949 102.294C242.209 102.294 243.049 103.092 243.049 104.66V109H244.309V104.772C244.309 103.12 245.191 102.294 246.479 102.294C247.739 102.294 248.579 103.092 248.579 104.66V109ZM251.629 109H252.903V101.328H251.629V109ZM252.287 100.082C252.749 100.082 253.127 99.7039 253.127 99.2139C253.127 98.7239 252.749 98.3459 252.287 98.3459C251.797 98.3459 251.419 98.7239 251.419 99.2139C251.419 99.7039 251.797 100.082 252.287 100.082ZM258.036 102.28C259.352 102.28 260.472 103.106 260.458 104.604H255.614C255.754 103.106 256.79 102.28 258.036 102.28ZM261.62 106.634H260.248C259.968 107.46 259.24 108.048 258.092 108.048C256.79 108.048 255.698 107.194 255.6 105.64H261.732C261.76 105.374 261.774 105.15 261.774 104.87C261.774 102.77 260.318 101.202 258.092 101.202C255.852 101.202 254.298 102.728 254.298 105.15C254.298 107.586 255.908 109.126 258.092 109.126C259.996 109.126 261.228 108.034 261.62 106.634ZM263.842 100.082C264.318 100.082 264.696 99.7039 264.696 99.2139C264.696 98.7239 264.318 98.3459 263.842 98.3459C263.366 98.3459 262.988 98.7239 262.988 99.2139C262.988 99.7039 263.366 100.082 263.842 100.082ZM263.198 101.328V110.638C263.198 111.31 262.932 111.562 262.232 111.562H261.7V112.64H262.442C263.744 112.64 264.472 112.052 264.472 110.666V101.328H263.198ZM271.844 106.914C271.788 104.17 267.336 105.164 267.336 103.344C267.336 102.728 267.896 102.28 268.834 102.28C269.856 102.28 270.444 102.84 270.5 103.61H271.774C271.69 102.112 270.57 101.202 268.876 101.202C267.168 101.202 266.062 102.168 266.062 103.344C266.062 106.2 270.598 105.206 270.598 106.914C270.598 107.544 270.038 108.048 269.03 108.048C267.952 108.048 267.294 107.488 267.224 106.746H265.908C265.992 108.146 267.252 109.126 269.044 109.126C270.738 109.126 271.844 108.174 271.844 106.914ZM272.867 105.15C272.867 107.586 274.421 109.126 276.605 109.126C278.509 109.126 279.755 108.062 280.147 106.536H278.775C278.495 107.502 277.739 108.048 276.605 108.048C275.205 108.048 274.169 107.054 274.169 105.15C274.169 103.274 275.205 102.28 276.605 102.28C277.739 102.28 278.509 102.868 278.775 103.792H280.147C279.755 102.182 278.509 101.202 276.605 101.202C274.421 101.202 272.867 102.742 272.867 105.15ZM286.253 102.742V101.328H284.979V112.64H286.253V107.586C286.729 108.37 287.723 109.126 289.123 109.126C291.181 109.126 292.763 107.516 292.763 105.136C292.763 102.742 291.181 101.202 289.123 101.202C287.723 101.202 286.715 101.93 286.253 102.742ZM291.461 105.136C291.461 106.942 290.271 108.006 288.857 108.006C287.471 108.006 286.253 106.956 286.253 105.15C286.253 103.372 287.471 102.308 288.857 102.308C290.271 102.308 291.461 103.33 291.461 105.136ZM301.42 105.15C301.42 102.728 299.726 101.202 297.542 101.202C295.372 101.202 293.664 102.728 293.664 105.15C293.664 107.586 295.316 109.126 297.486 109.126C299.67 109.126 301.42 107.586 301.42 105.15ZM294.966 105.15C294.966 103.218 296.184 102.308 297.528 102.308C298.844 102.308 300.118 103.218 300.118 105.15C300.118 107.096 298.816 108.006 297.486 108.006C296.156 108.006 294.966 107.096 294.966 105.15ZM302.319 105.136C302.319 107.516 303.901 109.126 305.959 109.126C307.359 109.126 308.353 108.412 308.815 107.558V109H310.103V98.6399H308.815V102.7C308.283 101.818 307.177 101.202 305.973 101.202C303.901 101.202 302.319 102.742 302.319 105.136ZM308.815 105.15C308.815 106.956 307.611 108.006 306.211 108.006C304.811 108.006 303.621 106.942 303.621 105.136C303.621 103.33 304.811 102.308 306.211 102.308C307.611 102.308 308.815 103.372 308.815 105.15ZM1.07805 130H2.35205V126.612L5.36205 130H7.09805L3.47205 126.15L7.08405 122.328H5.30605L2.35205 125.73V119.64H1.07805V130ZM7.50713 126.136C7.50713 128.516 9.08913 130.126 11.1332 130.126C12.5471 130.126 13.5412 129.398 14.0032 128.572V129.762C12.9952 130.294 12.6312 130.868 12.6312 131.484C12.6312 132.506 13.4992 132.884 14.3392 132.884C14.7172 132.884 15.0952 132.8 15.4172 132.688V131.848C15.0952 131.96 14.7732 132.03 14.5072 132.03C14.0032 132.03 13.6812 131.792 13.6812 131.358C13.6812 131.008 13.8912 130.686 14.5212 130.378L15.2912 130V122.328H14.0032V123.728C13.5552 122.93 12.5752 122.202 11.1472 122.202C9.08913 122.202 7.50713 123.742 7.50713 126.136ZM14.0032 126.15C14.0032 127.956 12.7992 129.006 11.3992 129.006C9.99913 129.006 8.80913 127.942 8.80913 126.136C8.80913 124.33 9.99913 123.308 11.3992 123.308C12.7992 123.308 14.0032 124.372 14.0032 126.15ZM17.4241 127.9C17.4241 129.44 18.1941 130 19.5521 130H20.7001V128.922H19.7621C18.9781 128.922 18.6981 128.656 18.6981 127.9V123.378H20.7001V122.328H18.6981V120.396H17.4241V122.328H16.4301V123.378H17.4241V127.9ZM25.2057 123.28C26.5217 123.28 27.6417 124.106 27.6277 125.604H22.7837C22.9237 124.106 23.9597 123.28 25.2057 123.28ZM28.7897 127.634H27.4177C27.1377 128.46 26.4097 129.048 25.2617 129.048C23.9597 129.048 22.8677 128.194 22.7697 126.64H28.9017C28.9297 126.374 28.9437 126.15 28.9437 125.87C28.9437 123.77 27.4877 122.202 25.2617 122.202C23.0217 122.202 21.4677 123.728 21.4677 126.15C21.4677 128.586 23.0777 130.126 25.2617 130.126C27.1657 130.126 28.3977 129.034 28.7897 127.634ZM41.3993 130H42.6594V125.478C42.6594 123.28 41.3013 122.188 39.5513 122.188C38.3754 122.188 37.2834 122.79 36.8354 123.896C36.3313 122.748 35.2813 122.188 34.0214 122.188C33.0134 122.188 32.1034 122.622 31.5994 123.434V122.328H30.3254V130H31.5994V125.772C31.5994 124.12 32.4813 123.294 33.7693 123.294C35.0293 123.294 35.8694 124.092 35.8694 125.66V130H37.1293V125.772C37.1293 124.12 38.0114 123.294 39.2994 123.294C40.5593 123.294 41.3993 124.092 41.3993 125.66V130ZM55.1615 126.15C55.1615 123.728 53.4676 122.202 51.2836 122.202C49.1135 122.202 47.4055 123.728 47.4055 126.15C47.4055 128.586 49.0575 130.126 51.2276 130.126C53.4116 130.126 55.1615 128.586 55.1615 126.15ZM48.7076 126.15C48.7076 124.218 49.9255 123.308 51.2696 123.308C52.5855 123.308 53.8596 124.218 53.8596 126.15C53.8596 128.096 52.5576 129.006 51.2276 129.006C49.8975 129.006 48.7076 128.096 48.7076 126.15ZM56.8167 127.9C56.8167 129.44 57.5866 130 58.9446 130H60.0927V128.922H59.1546C58.3706 128.922 58.0906 128.656 58.0906 127.9V123.378H60.0927V122.328H58.0906V120.396H56.8167V122.328H55.8227V123.378H56.8167V127.9ZM62.8343 130H64.1502L65.9983 123.91L67.8463 130H69.1623L71.5563 122.328H70.2963L68.5603 128.782L66.6982 122.328H65.3963L63.4922 128.768L61.7282 122.328H60.4263L62.8343 130ZM72.0447 126.136C72.0447 128.516 73.6267 130.126 75.6707 130.126C77.0847 130.126 78.0787 129.398 78.5407 128.572V130H79.8287V122.328H78.5407V123.728C78.0927 122.93 77.1127 122.202 75.6847 122.202C73.6267 122.202 72.0447 123.742 72.0447 126.136ZM78.5407 126.15C78.5407 127.956 77.3367 129.006 75.9367 129.006C74.5367 129.006 73.3467 127.942 73.3467 126.136C73.3467 124.33 74.5367 123.308 75.9367 123.308C77.3367 123.308 78.5407 124.372 78.5407 126.15ZM82.9556 125.828C82.9556 124.05 83.8796 123.504 85.0976 123.504H85.4336V122.188C84.2156 122.188 83.3895 122.72 82.9556 123.574V122.328H81.6816V130H82.9556V125.828ZM86.8843 127.9C86.8843 129.44 87.6543 130 89.0123 130H90.1603V128.922H89.2223C88.4383 128.922 88.1583 128.656 88.1583 127.9V123.378H90.1603V122.328H88.1583V120.396H86.8843V122.328H85.8903V123.378H86.8843V127.9ZM98.6839 126.15C98.6839 123.728 96.9899 122.202 94.8059 122.202C92.6359 122.202 90.9279 123.728 90.9279 126.15C90.9279 128.586 92.5799 130.126 94.7499 130.126C96.9339 130.126 98.6839 128.586 98.6839 126.15ZM92.2299 126.15C92.2299 124.218 93.4479 123.308 94.7919 123.308C96.1079 123.308 97.3819 124.218 97.3819 126.15C97.3819 128.096 96.0799 129.006 94.7499 129.006C93.4199 129.006 92.2299 128.096 92.2299 126.15ZM105.575 127.914C105.519 125.17 101.067 126.164 101.067 124.344C101.067 123.728 101.627 123.28 102.565 123.28C103.587 123.28 104.175 123.84 104.231 124.61H105.505C105.421 123.112 104.301 122.202 102.607 122.202C100.899 122.202 99.793 123.168 99.793 124.344C99.793 127.2 104.329 126.206 104.329 127.914C104.329 128.544 103.769 129.048 102.761 129.048C101.683 129.048 101.025 128.488 100.955 127.746H99.639C99.723 129.146 100.983 130.126 102.775 130.126C104.469 130.126 105.575 129.174 105.575 127.914ZM101.011 120.704V121.656L103.993 120.06V118.954L101.011 120.704ZM106.597 126.15C106.597 128.586 108.151 130.126 110.335 130.126C112.239 130.126 113.485 129.062 113.877 127.536H112.505C112.225 128.502 111.469 129.048 110.335 129.048C108.935 129.048 107.899 128.054 107.899 126.15C107.899 124.274 108.935 123.28 110.335 123.28C111.469 123.28 112.239 123.868 112.505 124.792H113.877C113.485 123.182 112.239 122.202 110.335 122.202C108.151 122.202 106.597 123.742 106.597 126.15ZM115.277 130H116.551V122.328H115.277V130ZM115.935 121.082C116.397 121.082 116.775 120.704 116.775 120.214C116.775 119.724 116.397 119.346 115.935 119.346C115.445 119.346 115.067 119.724 115.067 120.214C115.067 120.704 115.445 121.082 115.935 121.082ZM121.855 130H123.129V122.328H121.855V130ZM122.513 121.082C122.975 121.082 123.353 120.704 123.353 120.214C123.353 119.724 122.975 119.346 122.513 119.346C122.023 119.346 121.645 119.724 121.645 120.214C121.645 120.704 122.023 121.082 122.513 121.082ZM129.707 123.742V122.328H128.433V133.64H129.707V128.586C130.183 129.37 131.177 130.126 132.577 130.126C134.635 130.126 136.217 128.516 136.217 126.136C136.217 123.742 134.635 122.202 132.577 122.202C131.177 122.202 130.169 122.93 129.707 123.742ZM134.915 126.136C134.915 127.942 133.725 129.006 132.311 129.006C130.925 129.006 129.707 127.956 129.707 126.15C129.707 124.372 130.925 123.308 132.311 123.308C133.725 123.308 134.915 124.33 134.915 126.136ZM144.874 126.15C144.874 123.728 143.18 122.202 140.996 122.202C138.826 122.202 137.118 123.728 137.118 126.15C137.118 128.586 138.77 130.126 140.94 130.126C143.124 130.126 144.874 128.586 144.874 126.15ZM138.42 126.15C138.42 124.218 139.638 123.308 140.982 123.308C142.298 123.308 143.572 124.218 143.572 126.15C143.572 128.096 142.27 129.006 140.94 129.006C139.61 129.006 138.42 128.096 138.42 126.15ZM150.939 122.328H145.773V123.364H149.469L145.745 128.95V130H150.967V128.95H147.201L150.939 123.364V122.328ZM152.32 130H153.594V122.328H152.32V130ZM152.978 121.082C153.44 121.082 153.818 120.704 153.818 120.214C153.818 119.724 153.44 119.346 152.978 119.346C152.488 119.346 152.11 119.724 152.11 120.214C152.11 120.704 152.488 121.082 152.978 121.082ZM162.745 126.15C162.745 123.728 161.051 122.202 158.867 122.202C156.697 122.202 154.989 123.728 154.989 126.15C154.989 128.586 156.641 130.126 158.811 130.126C160.995 130.126 162.745 128.586 162.745 126.15ZM156.291 126.15C156.291 124.218 157.509 123.308 158.853 123.308C160.169 123.308 161.443 124.218 161.443 126.15C161.443 128.096 160.141 129.006 158.811 129.006C157.481 129.006 156.291 128.096 156.291 126.15ZM175.194 130H176.454V125.478C176.454 123.28 175.096 122.188 173.346 122.188C172.17 122.188 171.078 122.79 170.63 123.896C170.126 122.748 169.076 122.188 167.816 122.188C166.808 122.188 165.898 122.622 165.394 123.434V122.328H164.12V130H165.394V125.772C165.394 124.12 166.276 123.294 167.564 123.294C168.824 123.294 169.664 124.092 169.664 125.66V130H170.924V125.772C170.924 124.12 171.806 123.294 173.094 123.294C174.354 123.294 175.194 124.092 175.194 125.66V130ZM185.048 122.328H183.774V126.542C183.774 128.194 182.892 129.006 181.576 129.006C180.288 129.006 179.434 128.208 179.434 126.654V122.328H178.174V126.822C178.174 129.02 179.56 130.112 181.324 130.112C182.346 130.112 183.284 129.664 183.774 128.866V130H185.048V122.328ZM191.606 123.742V122.328H190.332V133.64H191.606V128.586C192.082 129.37 193.076 130.126 194.476 130.126C196.534 130.126 198.116 128.516 198.116 126.136C198.116 123.742 196.534 122.202 194.476 122.202C193.076 122.202 192.068 122.93 191.606 123.742ZM196.814 126.136C196.814 127.942 195.624 129.006 194.21 129.006C192.824 129.006 191.606 127.956 191.606 126.15C191.606 124.372 192.824 123.308 194.21 123.308C195.624 123.308 196.814 124.33 196.814 126.136ZM200.766 125.828C200.766 124.05 201.69 123.504 202.908 123.504H203.244V122.188C202.026 122.188 201.2 122.72 200.766 123.574V122.328H199.492V130H200.766V125.828ZM209.105 122.328H203.939V123.364H207.635L203.911 128.95V130H209.133V128.95H205.367L209.105 123.364V122.328ZM213.398 128.544L210.99 122.328H209.576L212.67 129.916L211.158 133.612H212.474L217.094 122.328H215.778L213.398 128.544ZM223.591 127.914C223.535 125.17 219.083 126.164 219.083 124.344C219.083 123.728 219.643 123.28 220.581 123.28C221.603 123.28 222.191 123.84 222.247 124.61H223.521C223.437 123.112 222.317 122.202 220.623 122.202C218.915 122.202 217.809 123.168 217.809 124.344C217.809 127.2 222.345 126.206 222.345 127.914C222.345 128.544 221.785 129.048 220.777 129.048C219.699 129.048 219.041 128.488 218.971 127.746H217.655C217.739 129.146 218.999 130.126 220.791 130.126C222.485 130.126 223.591 129.174 223.591 127.914ZM225.369 127.9C225.369 129.44 226.139 130 227.497 130H228.645V128.922H227.707C226.923 128.922 226.643 128.656 226.643 127.9V123.378H228.645V122.328H226.643V120.396H225.369V122.328H224.375V123.378H225.369V127.9ZM237.169 126.15C237.169 123.728 235.475 122.202 233.291 122.202C231.121 122.202 229.413 123.728 229.413 126.15C229.413 128.586 231.065 130.126 233.235 130.126C235.419 130.126 237.169 128.586 237.169 126.15ZM230.715 126.15C230.715 124.218 231.933 123.308 233.277 123.308C234.593 123.308 235.867 124.218 235.867 126.15C235.867 128.096 234.565 129.006 233.235 129.006C231.905 129.006 230.715 128.096 230.715 126.15ZM244.06 127.914C244.004 125.17 239.552 126.164 239.552 124.344C239.552 123.728 240.112 123.28 241.05 123.28C242.072 123.28 242.66 123.84 242.716 124.61H243.99C243.906 123.112 242.786 122.202 241.092 122.202C239.384 122.202 238.278 123.168 238.278 124.344C238.278 127.2 242.814 126.206 242.814 127.914C242.814 128.544 242.254 129.048 241.246 129.048C240.168 129.048 239.51 128.488 239.44 127.746H238.124C238.208 129.146 239.468 130.126 241.26 130.126C242.954 130.126 244.06 129.174 244.06 127.914ZM252.838 126.15C252.838 123.728 251.144 122.202 248.96 122.202C246.79 122.202 245.082 123.728 245.082 126.15C245.082 128.586 246.734 130.126 248.904 130.126C251.088 130.126 252.838 128.586 252.838 126.15ZM246.384 126.15C246.384 124.218 247.602 123.308 248.946 123.308C250.262 123.308 251.536 124.218 251.536 126.15C251.536 128.096 250.234 129.006 248.904 129.006C247.574 129.006 246.384 128.096 246.384 126.15ZM255.712 130H257.028L258.876 123.91L260.724 130H262.04L264.434 122.328H263.174L261.438 128.782L259.576 122.328H258.274L256.37 128.768L254.606 122.328H253.304L255.712 130ZM264.922 126.136C264.922 128.516 266.504 130.126 268.548 130.126C269.962 130.126 270.956 129.398 271.418 128.572V130H272.706V122.328H271.418V123.728C270.97 122.93 269.99 122.202 268.562 122.202C266.504 122.202 264.922 123.742 264.922 126.136ZM271.418 126.15C271.418 127.956 270.214 129.006 268.814 129.006C267.414 129.006 266.224 127.942 266.224 126.136C266.224 124.33 267.414 123.308 268.814 123.308C270.214 123.308 271.418 124.372 271.418 126.15ZM280.173 130H281.433V125.478C281.433 123.28 280.075 122.188 278.297 122.188C277.261 122.188 276.337 122.622 275.833 123.42V122.328H274.559V130H275.833V125.758C275.833 124.106 276.729 123.294 278.031 123.294C279.319 123.294 280.173 124.092 280.173 125.66V130ZM283.214 130H284.488V122.328H283.214V130ZM283.872 121.082C284.334 121.082 284.712 120.704 284.712 120.214C284.712 119.724 284.334 119.346 283.872 119.346C283.382 119.346 283.004 119.724 283.004 120.214C283.004 120.704 283.382 121.082 283.872 121.082ZM285.883 126.136C285.883 128.516 287.465 130.126 289.509 130.126C290.923 130.126 291.917 129.398 292.379 128.572V130H293.667V122.328H292.379V123.728C291.931 122.93 290.951 122.202 289.523 122.202C287.465 122.202 285.883 123.742 285.883 126.136ZM292.379 126.15C292.379 127.956 291.175 129.006 289.775 129.006C288.375 129.006 287.185 127.942 287.185 126.136C287.185 124.33 288.375 123.308 289.775 123.308C291.175 123.308 292.379 124.372 292.379 126.15ZM300.451 130H301.767L303.615 123.91L305.463 130H306.779L309.173 122.328H307.913L306.177 128.782L304.315 122.328H303.013L301.109 128.768L299.345 122.328H298.043L300.451 130ZM317.417 126.15C317.417 123.728 315.723 122.202 313.539 122.202C311.369 122.202 309.661 123.728 309.661 126.15C309.661 128.586 311.313 130.126 313.483 130.126C315.667 130.126 317.417 128.586 317.417 126.15ZM310.963 126.15C310.963 124.218 312.181 123.308 313.525 123.308C314.841 123.308 316.115 124.218 316.115 126.15C316.115 128.096 314.813 129.006 313.483 129.006C312.153 129.006 310.963 128.096 310.963 126.15ZM320.066 123.756V119.64H318.792V130H320.066V128.586C320.542 129.426 321.536 130.126 322.936 130.126C324.994 130.126 326.576 128.516 326.576 126.136C326.576 123.742 325.008 122.202 322.936 122.202C321.578 122.202 320.556 122.902 320.066 123.756ZM325.274 126.136C325.274 127.942 324.084 129.006 322.67 129.006C321.284 129.006 320.066 127.956 320.066 126.15C320.066 124.372 321.284 123.308 322.67 123.308C324.084 123.308 325.274 124.33 325.274 126.136ZM331.215 123.28C332.531 123.28 333.651 124.106 333.637 125.604H328.793C328.933 124.106 329.969 123.28 331.215 123.28ZM334.799 127.634H333.427C333.147 128.46 332.419 129.048 331.271 129.048C329.969 129.048 328.877 128.194 328.779 126.64H334.911C334.939 126.374 334.953 126.15 334.953 125.87C334.953 123.77 333.497 122.202 331.271 122.202C329.031 122.202 327.477 123.728 327.477 126.15C327.477 128.586 329.087 130.126 331.271 130.126C333.175 130.126 334.407 129.034 334.799 127.634ZM335.859 126.15C335.859 128.586 337.413 130.126 339.597 130.126C341.501 130.126 342.747 129.062 343.139 127.536H341.767C341.487 128.502 340.731 129.048 339.597 129.048C338.197 129.048 337.161 128.054 337.161 126.15C337.161 124.274 338.197 123.28 339.597 123.28C340.731 123.28 341.501 123.868 341.767 124.792H343.139C342.747 123.182 341.501 122.202 339.597 122.202C337.413 122.202 335.859 123.742 335.859 126.15ZM349.245 123.742V122.328H347.971V133.64H349.245V128.586C349.721 129.37 350.715 130.126 352.115 130.126C354.173 130.126 355.755 128.516 355.755 126.136C355.755 123.742 354.173 122.202 352.115 122.202C350.715 122.202 349.707 122.93 349.245 123.742ZM354.453 126.136C354.453 127.942 353.263 129.006 351.849 129.006C350.463 129.006 349.245 127.956 349.245 126.15C349.245 124.372 350.463 123.308 351.849 123.308C353.263 123.308 354.453 124.33 354.453 126.136ZM362.648 127.914C362.592 125.17 358.14 126.164 358.14 124.344C358.14 123.728 358.7 123.28 359.638 123.28C360.66 123.28 361.248 123.84 361.304 124.61H362.578C362.494 123.112 361.374 122.202 359.68 122.202C357.972 122.202 356.866 123.168 356.866 124.344C356.866 127.2 361.402 126.206 361.402 127.914C361.402 128.544 360.842 129.048 359.834 129.048C358.756 129.048 358.098 128.488 358.028 127.746H356.712C356.796 129.146 358.056 130.126 359.848 130.126C361.542 130.126 362.648 129.174 362.648 127.914ZM371.426 126.15C371.426 123.728 369.732 122.202 367.548 122.202C365.378 122.202 363.67 123.728 363.67 126.15C363.67 128.586 365.322 130.126 367.492 130.126C369.676 130.126 371.426 128.586 371.426 126.15ZM364.972 126.15C364.972 124.218 366.19 123.308 367.534 123.308C368.85 123.308 370.124 124.218 370.124 126.15C370.124 128.096 368.822 129.006 367.492 129.006C366.162 129.006 364.972 128.096 364.972 126.15ZM365.938 120.704V121.656L368.92 120.06V118.954L365.938 120.704ZM374.299 130H375.615L377.463 123.91L379.311 130H380.627L383.021 122.328H381.761L380.025 128.782L378.163 122.328H376.861L374.957 128.768L373.193 122.328H371.891L374.299 130ZM382.88 132.002H383.734L385.302 128.236H383.902L382.88 132.002ZM2.35205 144.756V140.64H1.07805V151H2.35205V149.586C2.82805 150.426 3.82205 151.126 5.22205 151.126C7.28005 151.126 8.86205 149.516 8.86205 147.136C8.86205 144.742 7.29405 143.202 5.22205 143.202C3.86405 143.202 2.84205 143.902 2.35205 144.756ZM7.56005 147.136C7.56005 148.942 6.37005 150.006 4.95605 150.006C3.57005 150.006 2.35205 148.956 2.35205 147.15C2.35205 145.372 3.57005 144.308 4.95605 144.308C6.37005 144.308 7.56005 145.33 7.56005 147.136ZM13.501 144.28C14.817 144.28 15.937 145.106 15.923 146.604H11.079C11.219 145.106 12.255 144.28 13.501 144.28ZM15.167 153.492V152.652C14.845 152.764 14.523 152.834 14.257 152.834C13.753 152.834 13.431 152.596 13.431 152.162C13.431 151.812 13.641 151.49 14.271 151.182L14.663 150.986C15.937 150.65 16.777 149.74 17.085 148.634H15.713C15.433 149.46 14.705 150.048 13.557 150.048C12.255 150.048 11.163 149.194 11.065 147.64H17.197C17.225 147.374 17.239 147.15 17.239 146.87C17.239 144.77 15.783 143.202 13.557 143.202C11.317 143.202 9.76299 144.728 9.76299 147.15C9.76299 149.362 11.0929 150.846 12.983 151.084C12.549 151.462 12.381 151.868 12.381 152.288C12.381 153.31 13.249 153.688 14.089 153.688C14.467 153.688 14.845 153.604 15.167 153.492ZM18.1447 147.136C18.1447 149.516 19.7267 151.126 21.7847 151.126C23.1847 151.126 24.1787 150.412 24.6407 149.558V151H25.9287V140.64H24.6407V144.7C24.1087 143.818 23.0027 143.202 21.7987 143.202C19.7267 143.202 18.1447 144.742 18.1447 147.136ZM24.6407 147.15C24.6407 148.956 23.4367 150.006 22.0367 150.006C20.6367 150.006 19.4467 148.942 19.4467 147.136C19.4467 145.33 20.6367 144.308 22.0367 144.308C23.4367 144.308 24.6407 145.372 24.6407 147.15ZM32.4716 143.328H27.3056V144.364H31.0016L27.2776 149.95V151H32.4996V149.95H28.7336L32.4716 144.364V143.328ZM33.8526 151H35.1266V143.328H33.8526V151ZM34.5107 142.082C34.9727 142.082 35.3507 141.704 35.3507 141.214C35.3507 140.724 34.9727 140.346 34.5107 140.346C34.0206 140.346 33.6427 140.724 33.6427 141.214C33.6427 141.704 34.0206 142.082 34.5107 142.082ZM40.2599 144.28C41.576 144.28 42.6959 145.106 42.6819 146.604H37.8379C37.9779 145.106 39.014 144.28 40.2599 144.28ZM43.8439 148.634H42.472C42.192 149.46 41.4639 150.048 40.3159 150.048C39.0139 150.048 37.9219 149.194 37.8239 147.64H43.9559C43.9839 147.374 43.9979 147.15 43.9979 146.87C43.9979 144.77 42.542 143.202 40.3159 143.202C38.0759 143.202 36.5219 144.728 36.5219 147.15C36.5219 149.586 38.132 151.126 40.3159 151.126C42.2199 151.126 43.452 150.034 43.8439 148.634ZM44.9036 147.15C44.9036 149.586 46.4576 151.126 48.6417 151.126C50.5457 151.126 51.7917 150.062 52.1837 148.536H50.8116C50.5317 149.502 49.7757 150.048 48.6417 150.048C47.2416 150.048 46.2057 149.054 46.2057 147.15C46.2057 145.274 47.2416 144.28 48.6417 144.28C49.7757 144.28 50.5457 144.868 50.8116 145.792H52.1837C51.7917 144.182 50.5457 143.202 48.6417 143.202C46.4576 143.202 44.9036 144.742 44.9036 147.15ZM53.5835 151H54.8575V143.328H53.5835V151ZM54.2416 142.082C54.7036 142.082 55.0816 141.704 55.0816 141.214C55.0816 140.724 54.7036 140.346 54.2416 140.346C53.7515 140.346 53.3736 140.724 53.3736 141.214C53.3736 141.704 53.7515 142.082 54.2416 142.082ZM59.9908 144.28C61.3068 144.28 62.4268 145.106 62.4128 146.604H57.5689C57.7089 145.106 58.7449 144.28 59.9908 144.28ZM63.5748 148.634H62.2029C61.9229 149.46 61.1948 150.048 60.0468 150.048C58.7449 150.048 57.6528 149.194 57.5548 147.64H63.6868C63.7148 147.374 63.7289 147.15 63.7289 146.87C63.7289 144.77 62.2729 143.202 60.0468 143.202C57.8068 143.202 56.2528 144.728 56.2528 147.15C56.2528 149.586 57.8628 151.126 60.0468 151.126C61.9508 151.126 63.1828 150.034 63.5748 148.634ZM79.6169 151H80.8769V146.478C80.8769 144.28 79.5189 143.188 77.7689 143.188C76.5928 143.188 75.5009 143.79 75.0529 144.896C74.5489 143.748 73.4989 143.188 72.2389 143.188C71.2309 143.188 70.3209 143.622 69.8169 144.434V143.328H68.5429V151H69.8169V146.772C69.8169 145.12 70.6989 144.294 71.9869 144.294C73.2469 144.294 74.0869 145.092 74.0869 146.66V151H75.3469V146.772C75.3469 145.12 76.2289 144.294 77.5169 144.294C78.7769 144.294 79.6169 145.092 79.6169 146.66V151ZM89.9468 147.15C89.9468 144.728 88.2528 143.202 86.0688 143.202C83.8988 143.202 82.1908 144.728 82.1908 147.15C82.1908 149.586 83.8428 151.126 86.0128 151.126C88.1968 151.126 89.9468 149.586 89.9468 147.15ZM83.4928 147.15C83.4928 145.218 84.7108 144.308 86.0548 144.308C87.3708 144.308 88.6448 145.218 88.6448 147.15C88.6448 149.096 87.3428 150.006 86.0128 150.006C84.6828 150.006 83.4928 149.096 83.4928 147.15ZM90.8459 147.136C90.8459 149.516 92.4279 151.126 94.4859 151.126C95.8859 151.126 96.8799 150.384 97.3419 149.558V151.168C97.3419 152.806 96.3199 153.674 94.9619 153.674C93.7019 153.674 92.7919 153.044 92.5119 152.12H91.2519C91.5039 153.758 92.9459 154.78 94.9619 154.78C97.2159 154.78 98.6299 153.282 98.6299 151.168V143.328H97.3419V144.728C96.8939 143.902 95.8859 143.202 94.4859 143.202C92.4279 143.202 90.8459 144.742 90.8459 147.136ZM97.3419 147.15C97.3419 148.956 96.1379 150.006 94.7379 150.006C93.3379 150.006 92.1479 148.942 92.1479 147.136C92.1479 145.33 93.3379 144.308 94.7379 144.308C96.1379 144.308 97.3419 145.372 97.3419 147.15ZM100.483 151H101.757V140.64H100.483V151ZM103.628 151H104.902V143.328H103.628V151ZM104.286 142.082C104.748 142.082 105.126 141.704 105.126 141.214C105.126 140.724 104.748 140.346 104.286 140.346C103.796 140.346 103.418 140.724 103.418 141.214C103.418 141.704 103.796 142.082 104.286 142.082ZM115.722 148.914C115.666 146.17 111.214 147.164 111.214 145.344C111.214 144.728 111.774 144.28 112.712 144.28C113.734 144.28 114.322 144.84 114.378 145.61H115.652C115.568 144.112 114.448 143.202 112.754 143.202C111.046 143.202 109.94 144.168 109.94 145.344C109.94 148.2 114.476 147.206 114.476 148.914C114.476 149.544 113.916 150.048 112.908 150.048C111.83 150.048 111.172 149.488 111.102 148.746H109.786C109.87 150.146 111.13 151.126 112.922 151.126C114.616 151.126 115.722 150.174 115.722 148.914ZM118.494 144.742V143.328H117.22V154.64H118.494V149.586C118.97 150.37 119.964 151.126 121.364 151.126C123.422 151.126 125.004 149.516 125.004 147.136C125.004 144.742 123.422 143.202 121.364 143.202C119.964 143.202 118.956 143.93 118.494 144.742ZM123.702 147.136C123.702 148.942 122.512 150.006 121.098 150.006C119.712 150.006 118.494 148.956 118.494 147.15C118.494 145.372 119.712 144.308 121.098 144.308C122.512 144.308 123.702 145.33 123.702 147.136ZM127.655 146.828C127.655 145.05 128.579 144.504 129.797 144.504H130.133V143.188C128.915 143.188 128.089 143.72 127.655 144.574V143.328H126.381V151H127.655V146.828ZM130.828 147.136C130.828 149.516 132.41 151.126 134.454 151.126C135.868 151.126 136.862 150.398 137.324 149.572V151H138.612V143.328H137.324V144.728C136.876 143.93 135.896 143.202 134.468 143.202C132.41 143.202 130.828 144.742 130.828 147.136ZM137.324 147.15C137.324 148.956 136.12 150.006 134.72 150.006C133.32 150.006 132.13 148.942 132.13 147.136C132.13 145.33 133.32 144.308 134.72 144.308C136.12 144.308 137.324 145.372 137.324 147.15ZM141.963 151H143.279L145.127 144.91L146.975 151H148.291L150.685 143.328H149.425L147.689 149.782L145.827 143.328H144.525L142.621 149.768L140.857 143.328H139.555L141.963 151ZM151.173 147.136C151.173 149.516 152.755 151.126 154.813 151.126C156.213 151.126 157.207 150.412 157.669 149.558V151H158.957V140.64H157.669V144.7C157.137 143.818 156.031 143.202 154.827 143.202C152.755 143.202 151.173 144.742 151.173 147.136ZM157.669 147.15C157.669 148.956 156.465 150.006 155.065 150.006C153.665 150.006 152.475 148.942 152.475 147.136C152.475 145.33 153.665 144.308 155.065 144.308C156.465 144.308 157.669 145.372 157.669 147.15ZM165.5 143.328H160.334V144.364H164.03L160.306 149.95V151H165.528V149.95H161.762L165.5 144.364V143.328ZM166.881 151H168.155V143.328H166.881V151ZM167.539 142.082C168.001 142.082 168.379 141.704 168.379 141.214C168.379 140.724 168.001 140.346 167.539 140.346C167.049 140.346 166.671 140.724 166.671 141.214C166.671 141.704 167.049 142.082 167.539 142.082ZM169.55 147.15C169.55 149.586 171.104 151.126 173.288 151.126C175.192 151.126 176.438 150.062 176.83 148.536H175.458C175.178 149.502 174.422 150.048 173.288 150.048C171.888 150.048 170.852 149.054 170.852 147.15C170.852 145.274 171.888 144.28 173.288 144.28C174.422 144.28 175.192 144.868 175.458 145.792H176.83C176.438 144.182 175.192 143.202 173.288 143.202C171.104 143.202 169.55 144.742 169.55 147.15ZM171.594 141.802V142.754L174.576 141.158V140.052L171.594 141.802ZM177.124 153.002H177.978L179.546 149.236H178.146L177.124 153.002ZM183.662 147.136C183.662 149.516 185.244 151.126 187.302 151.126C188.702 151.126 189.696 150.384 190.158 149.558V151.168C190.158 152.806 189.136 153.674 187.778 153.674C186.518 153.674 185.608 153.044 185.328 152.12H184.068C184.32 153.758 185.762 154.78 187.778 154.78C190.032 154.78 191.446 153.282 191.446 151.168V143.328H190.158V144.728C189.71 143.902 188.702 143.202 187.302 143.202C185.244 143.202 183.662 144.742 183.662 147.136ZM190.158 147.15C190.158 148.956 188.954 150.006 187.554 150.006C186.154 150.006 184.964 148.942 184.964 147.136C184.964 145.33 186.154 144.308 187.554 144.308C188.954 144.308 190.158 145.372 190.158 147.15ZM192.823 147.136C192.823 149.516 194.405 151.126 196.463 151.126C197.863 151.126 198.857 150.412 199.319 149.558V151H200.607V140.64H199.319V144.7C198.787 143.818 197.681 143.202 196.477 143.202C194.405 143.202 192.823 144.742 192.823 147.136ZM199.319 147.15C199.319 148.956 198.115 150.006 196.715 150.006C195.315 150.006 194.125 148.942 194.125 147.136C194.125 145.33 195.315 144.308 196.715 144.308C198.115 144.308 199.319 145.372 199.319 147.15ZM207.15 143.328H201.984V144.364H205.68L201.956 149.95V151H207.178V149.95H203.412L207.15 144.364V143.328ZM208.531 151H209.805V143.328H208.531V151ZM209.189 142.082C209.651 142.082 210.029 141.704 210.029 141.214C210.029 140.724 209.651 140.346 209.189 140.346C208.699 140.346 208.321 140.724 208.321 141.214C208.321 141.704 208.699 142.082 209.189 142.082ZM214.938 144.28C216.254 144.28 217.374 145.106 217.36 146.604H212.516C212.656 145.106 213.692 144.28 214.938 144.28ZM218.522 148.634H217.15C216.87 149.46 216.142 150.048 214.994 150.048C213.692 150.048 212.6 149.194 212.502 147.64H218.634C218.662 147.374 218.676 147.15 218.676 146.87C218.676 144.77 217.22 143.202 214.994 143.202C212.754 143.202 211.2 144.728 211.2 147.15C211.2 149.586 212.81 151.126 214.994 151.126C216.898 151.126 218.13 150.034 218.522 148.634ZM234.565 151H235.825V146.478C235.825 144.28 234.467 143.188 232.717 143.188C231.541 143.188 230.449 143.79 230.001 144.896C229.497 143.748 228.447 143.188 227.187 143.188C226.179 143.188 225.269 143.622 224.765 144.434V143.328H223.491V151H224.765V146.772C224.765 145.12 225.647 144.294 226.935 144.294C228.195 144.294 229.035 145.092 229.035 146.66V151H230.295V146.772C230.295 145.12 231.177 144.294 232.465 144.294C233.725 144.294 234.565 145.092 234.565 146.66V151ZM237.614 151H238.888V143.328H237.614V151ZM238.272 142.082C238.734 142.082 239.112 141.704 239.112 141.214C239.112 140.724 238.734 140.346 238.272 140.346C237.782 140.346 237.404 140.724 237.404 141.214C237.404 141.704 237.782 142.082 238.272 142.082ZM240.802 151H242.076V145.792L243.07 145.4V144.406L242.076 144.784V140.64H240.802V145.288L239.808 145.666V146.674L240.802 146.282V151ZM251.253 147.15C251.253 144.728 249.559 143.202 247.375 143.202C245.205 143.202 243.497 144.728 243.497 147.15C243.497 149.586 245.149 151.126 247.319 151.126C249.503 151.126 251.253 149.586 251.253 147.15ZM244.799 147.15C244.799 145.218 246.017 144.308 247.361 144.308C248.677 144.308 249.951 145.218 249.951 147.15C249.951 149.096 248.649 150.006 247.319 150.006C245.989 150.006 244.799 149.096 244.799 147.15ZM267.135 151H268.395V146.478C268.395 144.28 267.037 143.188 265.287 143.188C264.111 143.188 263.019 143.79 262.571 144.896C262.067 143.748 261.017 143.188 259.757 143.188C258.749 143.188 257.839 143.622 257.335 144.434V143.328H256.061V151H257.335V146.772C257.335 145.12 258.217 144.294 259.505 144.294C260.765 144.294 261.605 145.092 261.605 146.66V151H262.865V146.772C262.865 145.12 263.747 144.294 265.035 144.294C266.295 144.294 267.135 145.092 267.135 146.66V151ZM277.465 147.15C277.465 144.728 275.771 143.202 273.587 143.202C271.417 143.202 269.709 144.728 269.709 147.15C269.709 149.586 271.361 151.126 273.531 151.126C275.715 151.126 277.465 149.586 277.465 147.15ZM271.011 147.15C271.011 145.218 272.229 144.308 273.573 144.308C274.889 144.308 276.163 145.218 276.163 147.15C276.163 149.096 274.861 150.006 273.531 150.006C272.201 150.006 271.011 149.096 271.011 147.15ZM283.53 143.328H278.364V144.364H282.06L278.336 149.95V151H283.558V149.95H279.792L283.53 144.364V143.328ZM280.968 142.362C281.374 142.362 281.696 142.04 281.696 141.634C281.696 141.228 281.374 140.892 280.968 140.892C280.548 140.892 280.226 141.228 280.226 141.634C280.226 142.04 280.548 142.362 280.968 142.362ZM288.173 144.28C289.489 144.28 290.609 145.106 290.595 146.604H285.751C285.891 145.106 286.927 144.28 288.173 144.28ZM291.757 148.634H290.385C290.105 149.46 289.377 150.048 288.229 150.048C286.927 150.048 285.835 149.194 285.737 147.64H291.869C291.897 147.374 291.911 147.15 291.911 146.87C291.911 144.77 290.455 143.202 288.229 143.202C285.989 143.202 284.435 144.728 284.435 147.15C284.435 149.586 286.045 151.126 288.229 151.126C290.133 151.126 291.365 150.034 291.757 148.634ZM292.816 147.15C292.816 149.586 294.37 151.126 296.554 151.126C298.458 151.126 299.704 150.062 300.096 148.536H298.724C298.444 149.502 297.688 150.048 296.554 150.048C295.154 150.048 294.118 149.054 294.118 147.15C294.118 145.274 295.154 144.28 296.554 144.28C297.688 144.28 298.458 144.868 298.724 145.792H300.096C299.704 144.182 298.458 143.202 296.554 143.202C294.37 143.202 292.816 144.742 292.816 147.15ZM301.496 151H302.77V143.328H301.496V151ZM302.154 142.082C302.616 142.082 302.994 141.704 302.994 141.214C302.994 140.724 302.616 140.346 302.154 140.346C301.664 140.346 301.286 140.724 301.286 141.214C301.286 141.704 301.664 142.082 302.154 142.082ZM307.904 144.28C309.22 144.28 310.34 145.106 310.326 146.604H305.482C305.622 145.106 306.658 144.28 307.904 144.28ZM311.488 148.634H310.116C309.836 149.46 309.108 150.048 307.96 150.048C306.658 150.048 305.566 149.194 305.468 147.64H311.6C311.628 147.374 311.642 147.15 311.642 146.87C311.642 144.77 310.186 143.202 307.96 143.202C305.72 143.202 304.166 144.728 304.166 147.15C304.166 149.586 305.776 151.126 307.96 151.126C309.864 151.126 311.096 150.034 311.488 148.634ZM321.972 148.914C321.916 146.17 317.464 147.164 317.464 145.344C317.464 144.728 318.024 144.28 318.962 144.28C319.984 144.28 320.572 144.84 320.628 145.61H321.902C321.818 144.112 320.698 143.202 319.004 143.202C317.296 143.202 316.19 144.168 316.19 145.344C316.19 148.2 320.726 147.206 320.726 148.914C320.726 149.544 320.166 150.048 319.158 150.048C318.08 150.048 317.422 149.488 317.352 148.746H316.036C316.12 150.146 317.38 151.126 319.172 151.126C320.866 151.126 321.972 150.174 321.972 148.914ZM324.744 144.742V143.328H323.47V154.64H324.744V149.586C325.22 150.37 326.214 151.126 327.614 151.126C329.672 151.126 331.254 149.516 331.254 147.136C331.254 144.742 329.672 143.202 327.614 143.202C326.214 143.202 325.206 143.93 324.744 144.742ZM329.952 147.136C329.952 148.942 328.762 150.006 327.348 150.006C325.962 150.006 324.744 148.956 324.744 147.15C324.744 145.372 325.962 144.308 327.348 144.308C328.762 144.308 329.952 145.33 329.952 147.136ZM335.893 144.28C337.209 144.28 338.329 145.106 338.315 146.604H333.471C333.611 145.106 334.647 144.28 335.893 144.28ZM337.559 153.492V152.652C337.237 152.764 336.915 152.834 336.649 152.834C336.145 152.834 335.823 152.596 335.823 152.162C335.823 151.812 336.033 151.49 336.663 151.182L337.055 150.986C338.329 150.65 339.169 149.74 339.477 148.634H338.105C337.825 149.46 337.097 150.048 335.949 150.048C334.647 150.048 333.555 149.194 333.457 147.64H339.589C339.617 147.374 339.631 147.15 339.631 146.87C339.631 144.77 338.175 143.202 335.949 143.202C333.709 143.202 332.155 144.728 332.155 147.15C332.155 149.362 333.485 150.846 335.375 151.084C334.941 151.462 334.773 151.868 334.773 152.288C334.773 153.31 335.641 153.688 336.481 153.688C336.859 153.688 337.237 153.604 337.559 153.492ZM340.537 147.136C340.537 149.516 342.119 151.126 344.177 151.126C345.577 151.126 346.571 150.412 347.033 149.558V151H348.321V140.64H347.033V144.7C346.501 143.818 345.395 143.202 344.191 143.202C342.119 143.202 340.537 144.742 340.537 147.136ZM347.033 147.15C347.033 148.956 345.829 150.006 344.429 150.006C343.029 150.006 341.839 148.942 341.839 147.136C341.839 145.33 343.029 144.308 344.429 144.308C345.829 144.308 347.033 145.372 347.033 147.15ZM354.864 143.328H349.698V144.364H353.394L349.67 149.95V151H354.892V149.95H351.126L354.864 144.364V143.328ZM356.245 151H357.519V143.328H356.245V151ZM356.903 142.082C357.365 142.082 357.743 141.704 357.743 141.214C357.743 140.724 357.365 140.346 356.903 140.346C356.413 140.346 356.035 140.724 356.035 141.214C356.035 141.704 356.413 142.082 356.903 142.082ZM358.914 147.15C358.914 149.586 360.468 151.126 362.652 151.126C364.556 151.126 365.802 150.062 366.194 148.536H364.822C364.542 149.502 363.786 150.048 362.652 150.048C361.252 150.048 360.216 149.054 360.216 147.15C360.216 145.274 361.252 144.28 362.652 144.28C363.786 144.28 364.556 144.868 364.822 145.792H366.194C365.802 144.182 364.556 143.202 362.652 143.202C360.468 143.202 358.914 144.742 358.914 147.15ZM360.958 141.802V142.754L363.94 141.158V140.052L360.958 141.802ZM0.602051 168.15C0.602051 170.586 2.15605 172.126 4.34005 172.126C6.24405 172.126 7.49005 171.062 7.88205 169.536H6.51005C6.23005 170.502 5.47405 171.048 4.34005 171.048C2.94005 171.048 1.90405 170.054 1.90405 168.15C1.90405 166.274 2.94005 165.28 4.34005 165.28C5.47405 165.28 6.24405 165.868 6.51005 166.792H7.88205C7.49005 165.182 6.24405 164.202 4.34005 164.202C2.15605 164.202 0.602051 165.742 0.602051 168.15ZM13.972 164.328H8.80596V165.364H12.502L8.77796 170.95V172H14V170.95H10.234L13.972 165.364V164.328ZM14.8771 168.136C14.8771 170.516 16.4591 172.126 18.5031 172.126C19.9171 172.126 20.9111 171.398 21.3731 170.572V172H22.6611V164.328H21.3731V165.728C20.9251 164.93 19.9451 164.202 18.5171 164.202C16.4591 164.202 14.8771 165.742 14.8771 168.136ZM21.3731 168.15C21.3731 169.956 20.1691 171.006 18.7691 171.006C17.3691 171.006 16.1791 169.942 16.1791 168.136C16.1791 166.33 17.3691 165.308 18.7691 165.308C20.1691 165.308 21.3731 166.372 21.3731 168.15ZM30.03 169.914C29.974 167.17 25.522 168.164 25.522 166.344C25.522 165.728 26.082 165.28 27.02 165.28C28.042 165.28 28.63 165.84 28.686 166.61H29.96C29.876 165.112 28.756 164.202 27.062 164.202C25.354 164.202 24.248 165.168 24.248 166.344C24.248 169.2 28.784 168.206 28.784 169.914C28.784 170.544 28.224 171.048 27.216 171.048C26.138 171.048 25.48 170.488 25.41 169.746H24.094C24.178 171.146 25.438 172.126 27.23 172.126C28.924 172.126 30.03 171.174 30.03 169.914ZM39.6508 164.328H34.4848V165.364H38.1809L34.4568 170.95V172H39.6788V170.95H35.9128L39.6508 165.364V164.328ZM43.9883 168.15C43.9883 170.586 45.5424 172.126 47.7263 172.126C49.6303 172.126 50.8764 171.062 51.2683 169.536H49.8964C49.6164 170.502 48.8603 171.048 47.7263 171.048C46.3263 171.048 45.2903 170.054 45.2903 168.15C45.2903 166.274 46.3263 165.28 47.7263 165.28C48.8603 165.28 49.6304 165.868 49.8964 166.792H51.2683C50.8764 165.182 49.6303 164.202 47.7263 164.202C45.5424 164.202 43.9883 165.742 43.9883 168.15ZM57.3582 164.328H52.1922V165.364H55.8882L52.1642 170.95V172H57.3862V170.95H53.6203L57.3582 165.364V164.328ZM60.2374 172H61.5533L63.4013 165.91L65.2494 172H66.5654L68.9594 164.328H67.6994L65.9634 170.782L64.1014 164.328H62.7994L60.8954 170.768L59.1314 164.328H57.8293L60.2374 172ZM77.2038 168.15C77.2038 165.728 75.5098 164.202 73.3258 164.202C71.1558 164.202 69.4478 165.728 69.4478 168.15C69.4478 170.586 71.0998 172.126 73.2698 172.126C75.4538 172.126 77.2038 170.586 77.2038 168.15ZM70.7498 168.15C70.7498 166.218 71.9678 165.308 73.3118 165.308C74.6278 165.308 75.9018 166.218 75.9018 168.15C75.9018 170.096 74.5998 171.006 73.2698 171.006C71.9398 171.006 70.7498 170.096 70.7498 168.15ZM79.8529 167.828C79.8529 166.05 80.7768 165.504 81.9949 165.504H82.3309V164.188C81.1129 164.188 80.2868 164.72 79.8529 165.574V164.328H78.5788V172H79.8529V167.828ZM90.7815 168.15C90.7815 165.728 89.0874 164.202 86.9035 164.202C84.7335 164.202 83.0255 165.728 83.0255 168.15C83.0255 170.586 84.6775 172.126 86.8475 172.126C89.0314 172.126 90.7815 170.586 90.7815 168.15ZM84.3275 168.15C84.3275 166.218 85.5454 165.308 86.8895 165.308C88.2055 165.308 89.4795 166.218 89.4795 168.15C89.4795 170.096 88.1775 171.006 86.8475 171.006C85.5174 171.006 84.3275 170.096 84.3275 168.15ZM97.7706 172H99.0306V167.478C99.0306 165.28 97.6726 164.188 95.8946 164.188C94.8586 164.188 93.9345 164.622 93.4305 165.42V164.328H92.1566V172H93.4305V167.758C93.4305 166.106 94.3266 165.294 95.6286 165.294C96.9166 165.294 97.7706 166.092 97.7706 167.66V172ZM108.092 168.15C108.092 165.728 106.398 164.202 104.214 164.202C102.044 164.202 100.336 165.728 100.336 168.15C100.336 170.586 101.988 172.126 104.158 172.126C106.342 172.126 108.092 170.586 108.092 168.15ZM101.638 168.15C101.638 166.218 102.856 165.308 104.2 165.308C105.516 165.308 106.79 166.218 106.79 168.15C106.79 170.096 105.488 171.006 104.158 171.006C102.828 171.006 101.638 170.096 101.638 168.15ZM114.157 164.328H108.991V165.364H112.687L108.963 170.95V172H114.185V170.95H110.419L114.157 165.364V164.328ZM111.595 163.362C112.001 163.362 112.323 163.04 112.323 162.634C112.323 162.228 112.001 161.892 111.595 161.892C111.175 161.892 110.853 162.228 110.853 162.634C110.853 163.04 111.175 163.362 111.595 163.362ZM121.152 172H122.412V167.478C122.412 165.28 121.054 164.188 119.276 164.188C118.24 164.188 117.316 164.622 116.812 165.42V164.328H115.538V172H116.812V167.758C116.812 166.106 117.708 165.294 119.01 165.294C120.298 165.294 121.152 166.092 121.152 167.66V172ZM127.105 170.544L124.697 164.328H123.283L126.377 171.916L124.865 175.612H126.181L130.801 164.328H129.485L127.105 170.544ZM142.856 172H144.116V167.478C144.116 165.28 142.758 164.188 141.008 164.188C139.832 164.188 138.74 164.79 138.292 165.896C137.788 164.748 136.738 164.188 135.478 164.188C134.47 164.188 133.56 164.622 133.056 165.434V164.328H131.782V172H133.056V167.772C133.056 166.12 133.938 165.294 135.226 165.294C136.486 165.294 137.326 166.092 137.326 167.66V172H138.586V167.772C138.586 166.12 139.468 165.294 140.756 165.294C142.016 165.294 142.856 166.092 142.856 167.66V172ZM150.612 165.742V164.328H149.338V175.64H150.612V170.586C151.088 171.37 152.082 172.126 153.482 172.126C155.54 172.126 157.122 170.516 157.122 168.136C157.122 165.742 155.54 164.202 153.482 164.202C152.082 164.202 151.074 164.93 150.612 165.742ZM155.82 168.136C155.82 169.942 154.63 171.006 153.216 171.006C151.83 171.006 150.612 169.956 150.612 168.15C150.612 166.372 151.83 165.308 153.216 165.308C154.63 165.308 155.82 166.33 155.82 168.136ZM159.773 167.828C159.773 166.05 160.697 165.504 161.915 165.504H162.251V164.188C161.033 164.188 160.207 164.72 159.773 165.574V164.328H158.499V172H159.773V167.828ZM168.111 164.328H162.945V165.364H166.641L162.917 170.95V172H168.139V170.95H164.373L168.111 165.364V164.328ZM172.404 170.544L169.996 164.328H168.582L171.676 171.916L170.164 175.612H171.48L176.1 164.328H174.784L172.404 170.544ZM177.767 163.082C178.243 163.082 178.621 162.704 178.621 162.214C178.621 161.724 178.243 161.346 177.767 161.346C177.291 161.346 176.913 161.724 176.913 162.214C176.913 162.704 177.291 163.082 177.767 163.082ZM177.123 164.328V173.638C177.123 174.31 176.857 174.562 176.157 174.562H175.625V175.64H176.367C177.669 175.64 178.397 175.052 178.397 173.666V164.328H177.123ZM179.778 168.136C179.778 170.516 181.36 172.126 183.404 172.126C184.818 172.126 185.812 171.398 186.274 170.572V172H187.562V164.328H186.274V165.728C185.826 164.93 184.846 164.202 183.418 164.202C181.36 164.202 179.778 165.742 179.778 168.136ZM186.274 168.15C186.274 169.956 185.07 171.006 183.67 171.006C182.27 171.006 181.08 169.942 181.08 168.136C181.08 166.33 182.27 165.308 183.67 165.308C185.07 165.308 186.274 166.372 186.274 168.15ZM188.939 168.15C188.939 170.586 190.493 172.126 192.677 172.126C194.581 172.126 195.827 171.062 196.219 169.536H194.847C194.567 170.502 193.811 171.048 192.677 171.048C191.277 171.048 190.241 170.054 190.241 168.15C190.241 166.274 191.277 165.28 192.677 165.28C193.811 165.28 194.581 165.868 194.847 166.792H196.219C195.827 165.182 194.581 164.202 192.677 164.202C190.493 164.202 188.939 165.742 188.939 168.15ZM197.619 172H198.893V164.328H197.619V172ZM198.277 163.082C198.739 163.082 199.117 162.704 199.117 162.214C199.117 161.724 198.739 161.346 198.277 161.346C197.787 161.346 197.409 161.724 197.409 162.214C197.409 162.704 197.787 163.082 198.277 163.082ZM204.026 165.28C205.342 165.28 206.462 166.106 206.448 167.604H201.604C201.744 166.106 202.78 165.28 204.026 165.28ZM207.61 169.634H206.238C205.958 170.46 205.23 171.048 204.082 171.048C202.78 171.048 201.688 170.194 201.59 168.64H207.722C207.75 168.374 207.764 168.15 207.764 167.87C207.764 165.77 206.308 164.202 204.082 164.202C201.842 164.202 200.288 165.728 200.288 168.15C200.288 170.586 201.898 172.126 204.082 172.126C205.986 172.126 207.218 171.034 207.61 169.634ZM209.146 172H210.42V161.64H209.146V172ZM215.553 165.28C216.869 165.28 217.989 166.106 217.975 167.604H213.131C213.271 166.106 214.307 165.28 215.553 165.28ZM219.137 169.634H217.765C217.485 170.46 216.757 171.048 215.609 171.048C214.307 171.048 213.215 170.194 213.117 168.64H219.249C219.277 168.374 219.291 168.15 219.291 167.87C219.291 165.77 217.835 164.202 215.609 164.202C213.369 164.202 211.815 165.728 211.815 168.15C211.815 170.586 213.425 172.126 215.609 172.126C217.513 172.126 218.745 171.034 219.137 169.634ZM231.747 172H233.007V167.478C233.007 165.28 231.649 164.188 229.899 164.188C228.723 164.188 227.631 164.79 227.183 165.896C226.679 164.748 225.629 164.188 224.369 164.188C223.361 164.188 222.451 164.622 221.947 165.434V164.328H220.673V172H221.947V167.772C221.947 166.12 222.829 165.294 224.117 165.294C225.377 165.294 226.217 166.092 226.217 167.66V172H227.477V167.772C227.477 166.12 228.359 165.294 229.647 165.294C230.907 165.294 231.747 166.092 231.747 167.66V172ZM236.042 171.216C236.042 170.726 235.664 170.348 235.202 170.348C234.712 170.348 234.334 170.726 234.334 171.216C234.334 171.706 234.712 172.084 235.202 172.084C235.664 172.084 236.042 171.706 236.042 171.216Z" fill="black"/>
</svg>
