<svg width="411" height="149" viewBox="0 0 411 149" fill="none" xmlns="http://www.w3.org/2000/svg">
<path d="M1.93213 22H5.85213V9.28798L11.1161 22H14.0841L19.3201 9.28798V22H23.2401V2.45597H18.8161L12.6001 16.988L6.38413 2.45597H1.93213V22ZM26.1077 14.188C26.1077 19.032 29.2437 22.252 33.1637 22.252C35.6277 22.252 37.3917 21.076 38.3157 19.732V22H42.2637V6.48797H38.3157V8.69998C37.3917 7.41198 35.6837 6.23597 33.1917 6.23597C29.2437 6.23597 26.1077 9.34398 26.1077 14.188ZM38.3157 14.244C38.3157 17.184 36.3557 18.808 34.1997 18.808C32.0997 18.808 30.1117 17.128 30.1117 14.188C30.1117 11.248 32.0997 9.67998 34.1997 9.67998C36.3557 9.67998 38.3157 11.304 38.3157 14.244ZM50.0123 14.272C50.0123 11.276 51.4123 10.38 53.7363 10.38H54.7723V6.26397C52.6163 6.26397 50.9923 7.29998 50.0123 8.89598V6.48797H46.0923V22H50.0123V14.272ZM58.0286 17.184C58.0286 20.74 60.0166 22 62.9846 22H65.4486V18.696H63.6286C62.3966 18.696 61.9766 18.248 61.9766 17.212V9.70798H65.4486V6.48797H61.9766V2.65197H58.0286V6.48797H56.1806V9.70798H58.0286V17.184ZM67.26 14.188C67.26 19.032 70.396 22.252 74.316 22.252C76.78 22.252 78.544 21.076 79.468 19.732V22H83.416V6.48797H79.468V8.69998C78.544 7.41198 76.836 6.23597 74.344 6.23597C70.396 6.23597 67.26 9.34398 67.26 14.188ZM79.468 14.244C79.468 17.184 77.508 18.808 75.352 18.808C73.252 18.808 71.264 17.128 71.264 14.188C71.264 11.248 73.252 9.67998 75.352 9.67998C77.508 9.67998 79.468 11.304 79.468 14.244ZM93.9165 22H97.8365V6.48797H93.9165V22ZM95.9045 4.63997C97.2765 4.63997 98.3125 3.63197 98.3125 2.34397C98.3125 1.05597 97.2765 0.0479736 95.9045 0.0479736C94.5045 0.0479736 93.4965 1.05597 93.4965 2.34397C93.4965 3.63197 94.5045 4.63997 95.9045 4.63997ZM110.369 4.63997C111.741 4.63997 112.749 3.63197 112.749 2.34397C112.749 1.05597 111.741 0.0479736 110.369 0.0479736C108.941 0.0479736 107.933 1.05597 107.933 2.34397C107.933 3.63197 108.941 4.63997 110.369 4.63997ZM108.381 6.48797V24.576C108.381 25.612 107.961 26.06 106.757 26.06H105.637V29.392H107.373C110.369 29.392 112.301 28.132 112.301 24.548V6.48797H108.381ZM122.838 9.45598C124.854 9.45598 126.478 10.744 126.534 12.788H119.17C119.478 10.66 120.962 9.45598 122.838 9.45598ZM130.202 17.128H125.974C125.47 18.164 124.546 19.004 122.866 19.004C120.906 19.004 119.338 17.716 119.142 15.42H130.482C130.566 14.916 130.594 14.412 130.594 13.908C130.594 9.28798 127.43 6.23597 122.95 6.23597C118.358 6.23597 115.166 9.34398 115.166 14.244C115.166 19.116 118.442 22.252 122.95 22.252C126.786 22.252 129.362 19.984 130.202 17.128ZM135.443 4.63997C136.815 4.63997 137.823 3.63197 137.823 2.34397C137.823 1.05597 136.815 0.0479736 135.443 0.0479736C134.015 0.0479736 133.007 1.05597 133.007 2.34397C133.007 3.63197 134.015 4.63997 135.443 4.63997ZM133.455 6.48797V24.576C133.455 25.612 133.035 26.06 131.831 26.06H130.711V29.392H132.447C135.443 29.392 137.375 28.132 137.375 24.548V6.48797H133.455ZM151.84 8.72797V6.48797H147.92V29.392H151.84V19.788C152.792 21.048 154.528 22.252 156.964 22.252C160.94 22.252 164.048 19.032 164.048 14.188C164.048 9.34398 160.94 6.23597 156.964 6.23597C154.556 6.23597 152.764 7.41197 151.84 8.72797ZM160.044 14.188C160.044 17.128 158.056 18.808 155.928 18.808C153.828 18.808 151.84 17.184 151.84 14.244C151.84 11.304 153.828 9.67998 155.928 9.67998C158.056 9.67998 160.044 11.248 160.044 14.188ZM166.897 22H170.817V6.48797H166.897V22ZM168.885 4.63997C170.257 4.63997 171.293 3.63197 171.293 2.34397C171.293 1.05597 170.257 0.0479736 168.885 0.0479736C167.485 0.0479736 166.477 1.05597 166.477 2.34397C166.477 3.63197 167.485 4.63997 168.885 4.63997ZM181.354 9.45598C183.37 9.45598 184.994 10.744 185.05 12.788H177.686C177.994 10.66 179.478 9.45598 181.354 9.45598ZM188.718 17.128H184.49C183.986 18.164 183.062 19.004 181.382 19.004C179.422 19.004 177.854 17.716 177.658 15.42H188.998C189.082 14.916 189.11 14.412 189.11 13.908C189.11 9.28798 185.946 6.23597 181.466 6.23597C176.874 6.23597 173.682 9.34398 173.682 14.244C173.682 19.116 176.958 22.252 181.466 22.252C185.302 22.252 187.878 19.984 188.718 17.128ZM204.011 17.576C203.899 11.892 195.303 13.656 195.303 10.828C195.303 9.93198 196.059 9.34398 197.515 9.34398C199.055 9.34398 200.007 10.156 200.119 11.36H203.871C203.647 8.27997 201.379 6.23597 197.627 6.23597C193.791 6.23597 191.495 8.30798 191.495 10.884C191.495 16.568 200.259 14.804 200.259 17.576C200.259 18.472 199.419 19.172 197.879 19.172C196.311 19.172 195.219 18.276 195.079 17.1H191.131C191.299 19.984 194.015 22.252 197.907 22.252C201.687 22.252 204.011 20.236 204.011 17.576ZM224.793 16.232C224.793 17.884 223.673 18.808 221.769 18.808H217.821V13.544H221.685C223.589 13.544 224.793 14.552 224.793 16.232ZM224.317 8.08397C224.317 9.67997 223.253 10.52 221.405 10.52H217.821V5.61997H221.405C223.253 5.61997 224.317 6.51597 224.317 8.08397ZM228.769 16.708C228.769 14.412 227.201 12.368 224.989 11.976C226.893 11.36 228.321 9.87597 228.321 7.49597C228.321 4.58397 226.053 2.45597 221.965 2.45597H213.901V22H222.329C226.389 22 228.769 19.816 228.769 16.708ZM235.813 14.272C235.813 11.276 237.213 10.38 239.537 10.38H240.573V6.26397C238.417 6.26397 236.793 7.29998 235.813 8.89598V6.48797H231.893V22H235.813V14.272ZM257.857 6.48797H253.909V15.028C253.909 17.52 252.565 18.864 250.437 18.864C248.365 18.864 246.993 17.52 246.993 15.028V6.48797H243.073V15.588C243.073 19.844 245.677 22.196 249.289 22.196C251.221 22.196 252.929 21.356 253.909 20.04V22H257.857V6.48797ZM272.589 22H276.509V12.9C276.509 8.61597 273.933 6.26397 270.321 6.26397C268.333 6.26397 266.653 7.10398 265.645 8.41998V6.48797H261.725V22H265.645V13.432C265.645 10.94 267.017 9.59597 269.145 9.59597C271.217 9.59597 272.589 10.94 272.589 13.432V22ZM295.217 14.244C295.217 9.34398 291.717 6.23597 287.237 6.23597C282.757 6.23597 279.257 9.34398 279.257 14.244C279.257 19.116 282.645 22.252 287.125 22.252C291.633 22.252 295.217 19.116 295.217 14.244ZM283.233 14.244C283.233 11.136 285.109 9.65198 287.181 9.65198C289.253 9.65198 291.185 11.136 291.185 14.244C291.185 17.324 289.197 18.836 287.125 18.836C285.025 18.836 283.233 17.324 283.233 14.244Z" fill="black"/>
<path d="M2.35197 55.8759V52.2919H4.22797C5.68397 52.2919 6.29997 52.9639 6.29997 54.0979C6.29997 55.1899 5.68397 55.8759 4.22797 55.8759H2.35197ZM7.60197 54.0979C7.60197 52.5019 6.52397 51.2419 4.22797 51.2419H1.07797V60.9999H2.35197V56.9259H4.22797C6.64997 56.9259 7.60197 55.5819 7.60197 54.0979ZM8.70939 57.1359C8.70939 59.5159 10.2914 61.1259 12.3354 61.1259C13.7494 61.1259 14.7434 60.3979 15.2054 59.5719V60.9999H16.4934V53.3279H15.2054V54.7279C14.7574 53.9299 13.7774 53.2019 12.3494 53.2019C10.2914 53.2019 8.70939 54.7419 8.70939 57.1359ZM15.2054 57.1499C15.2054 58.9559 14.0014 60.0059 12.6014 60.0059C11.2014 60.0059 10.0114 58.9419 10.0114 57.1359C10.0114 55.3299 11.2014 54.3079 12.6014 54.3079C14.0014 54.3079 15.2054 55.3719 15.2054 57.1499ZM24.2604 60.9999H25.5204V56.4779C25.5204 54.2799 24.1624 53.1879 22.3844 53.1879C21.3484 53.1879 20.4244 53.6219 19.9204 54.4199V53.3279H18.6464V60.9999H19.9204V56.7579C19.9204 55.1059 20.8164 54.2939 22.1184 54.2939C23.4064 54.2939 24.2604 55.0919 24.2604 56.6599V60.9999ZM27.6014 60.9999H28.8754V53.3279H27.6014V60.9999ZM28.2594 52.0819C28.7214 52.0819 29.0994 51.7039 29.0994 51.2139C29.0994 50.7239 28.7214 50.3459 28.2594 50.3459C27.7694 50.3459 27.3914 50.7239 27.3914 51.2139C27.3914 51.7039 27.7694 52.0819 28.2594 52.0819ZM34.7792 60.9999H36.0532V53.7619L39.2872 60.9999H40.1832L43.4032 53.7759V60.9999H44.6772V51.3119H43.3192L39.7352 59.3199L36.1512 51.3119H34.7792V60.9999ZM46.3618 57.1359C46.3618 59.5159 47.9438 61.1259 49.9878 61.1259C51.4018 61.1259 52.3958 60.3979 52.8578 59.5719V60.9999H54.1458V53.3279H52.8578V54.7279C52.4098 53.9299 51.4298 53.2019 50.0018 53.2019C47.9438 53.2019 46.3618 54.7419 46.3618 57.1359ZM52.8578 57.1499C52.8578 58.9559 51.6538 60.0059 50.2538 60.0059C48.8538 60.0059 47.6638 58.9419 47.6638 57.1359C47.6638 55.3299 48.8538 54.3079 50.2538 54.3079C51.6538 54.3079 52.8578 55.3719 52.8578 57.1499ZM57.5727 56.8279C57.5727 55.0499 58.4967 54.5039 59.7147 54.5039H60.0507V53.1879C58.8327 53.1879 58.0067 53.7199 57.5727 54.5739V53.3279H56.2987V60.9999H57.5727V56.8279ZM61.8014 58.8999C61.8014 60.4399 62.5714 60.9999 63.9294 60.9999H65.0774V59.9219H64.1394C63.3554 59.9219 63.0754 59.6559 63.0754 58.8999V54.3779H65.0774V53.3279H63.0754V51.3959H61.8014V53.3279H60.8074V54.3779H61.8014V58.8999ZM66.145 57.1359C66.145 59.5159 67.727 61.1259 69.771 61.1259C71.185 61.1259 72.179 60.3979 72.641 59.5719V60.9999H73.929V53.3279H72.641V54.7279C72.193 53.9299 71.213 53.2019 69.785 53.2019C67.727 53.2019 66.145 54.7419 66.145 57.1359ZM72.641 57.1499C72.641 58.9559 71.437 60.0059 70.037 60.0059C68.637 60.0059 67.447 58.9419 67.447 57.1359C67.447 55.3299 68.637 54.3079 70.037 54.3079C71.437 54.3079 72.641 55.3719 72.641 57.1499ZM81.0883 54.7419V53.3279H79.8143V64.6399H81.0883V59.5859C81.5643 60.3699 82.5583 61.1259 83.9583 61.1259C86.0163 61.1259 87.5983 59.5159 87.5983 57.1359C87.5983 54.7419 86.0163 53.2019 83.9583 53.2019C82.5583 53.2019 81.5503 53.9299 81.0883 54.7419ZM86.2963 57.1359C86.2963 58.9419 85.1063 60.0059 83.6923 60.0059C82.3063 60.0059 81.0883 58.9559 81.0883 57.1499C81.0883 55.3719 82.3063 54.3079 83.6923 54.3079C85.1063 54.3079 86.2963 55.3299 86.2963 57.1359ZM89.2753 60.9999H90.5493V50.6399H89.2753V60.9999ZM92.2446 57.1359C92.2446 59.5159 93.8266 61.1259 95.8706 61.1259C97.2846 61.1259 98.2786 60.3979 98.7406 59.5719V60.9999H100.029V53.3279H98.7406V54.7279C98.2926 53.9299 97.3126 53.2019 95.8846 53.2019C93.8266 53.2019 92.2446 54.7419 92.2446 57.1359ZM98.7406 57.1499C98.7406 58.9559 97.5366 60.0059 96.1366 60.0059C94.7366 60.0059 93.5466 58.9419 93.5466 57.1359C93.5466 55.3299 94.7366 54.3079 96.1366 54.3079C97.5366 54.3079 98.7406 55.3719 98.7406 57.1499ZM107.796 60.9999H109.056V56.4779C109.056 54.2799 107.698 53.1879 105.92 53.1879C104.884 53.1879 103.96 53.6219 103.456 54.4199V53.3279H102.182V60.9999H103.456V56.7579C103.456 55.1059 104.352 54.2939 105.654 54.2939C106.942 54.2939 107.796 55.0919 107.796 56.6599V60.9999ZM117.941 53.3279H116.667V57.5419C116.667 59.1939 115.785 60.0059 114.469 60.0059C113.181 60.0059 112.327 59.2079 112.327 57.6539V53.3279H111.067V57.8219C111.067 60.0199 112.453 61.1119 114.217 61.1119C115.239 61.1119 116.177 60.6639 116.667 59.8659V60.9999H117.941V53.3279ZM120.778 52.0819C121.254 52.0819 121.632 51.7039 121.632 51.2139C121.632 50.7239 121.254 50.3459 120.778 50.3459C120.302 50.3459 119.924 50.7239 119.924 51.2139C119.924 51.7039 120.302 52.0819 120.778 52.0819ZM120.134 53.3279V62.6379C120.134 63.3099 119.868 63.5619 119.168 63.5619H118.636V64.6399H119.378C120.68 64.6399 121.408 64.0519 121.408 62.6659V53.3279H120.134ZM123.088 57.1359C123.088 59.5159 124.67 61.1259 126.714 61.1259C128.128 61.1259 129.122 60.3979 129.584 59.5719V60.7619C128.576 61.2939 128.212 61.8679 128.212 62.4839C128.212 63.5059 129.08 63.8839 129.92 63.8839C130.298 63.8839 130.676 63.7999 130.998 63.6879V62.8479C130.676 62.9599 130.354 63.0299 130.088 63.0299C129.584 63.0299 129.262 62.7919 129.262 62.3579C129.262 62.0079 129.472 61.6859 130.102 61.3779L130.872 60.9999V53.3279H129.584V54.7279C129.136 53.9299 128.156 53.2019 126.728 53.2019C124.67 53.2019 123.088 54.7419 123.088 57.1359ZM129.584 57.1499C129.584 58.9559 128.38 60.0059 126.98 60.0059C125.58 60.0059 124.39 58.9419 124.39 57.1359C124.39 55.3299 125.58 54.3079 126.98 54.3079C128.38 54.3079 129.584 55.3719 129.584 57.1499ZM132.549 57.1499C132.549 59.5859 134.103 61.1259 136.287 61.1259C138.191 61.1259 139.437 60.0619 139.829 58.5359H138.457C138.177 59.5019 137.421 60.0479 136.287 60.0479C134.887 60.0479 133.851 59.0539 133.851 57.1499C133.851 55.2739 134.887 54.2799 136.287 54.2799C137.421 54.2799 138.191 54.8679 138.457 55.7919H139.829C139.437 54.1819 138.191 53.2019 136.287 53.2019C134.103 53.2019 132.549 54.7419 132.549 57.1499ZM146.76 60.9999H148.076L149.924 54.9099L151.772 60.9999H153.088L155.482 53.3279H154.222L152.486 59.7819L150.624 53.3279H149.322L147.418 59.7679L145.654 53.3279H144.352L146.76 60.9999ZM159.658 59.5439L157.25 53.3279H155.836L158.93 60.9159L157.418 64.6119H158.734L163.354 53.3279H162.038L159.658 59.5439ZM164.159 57.1499C164.159 59.5859 165.713 61.1259 167.897 61.1259C169.801 61.1259 171.047 60.0619 171.439 58.5359H170.067C169.787 59.5019 169.031 60.0479 167.897 60.0479C166.497 60.0479 165.461 59.0539 165.461 57.1499C165.461 55.2739 166.497 54.2799 167.897 54.2799C169.031 54.2799 169.801 54.8679 170.067 55.7919H171.439C171.047 54.1819 169.801 53.2019 167.897 53.2019C165.713 53.2019 164.159 54.7419 164.159 57.1499ZM173.139 60.9999H174.413V53.3279H173.139V60.9999ZM173.797 52.0819C174.259 52.0819 174.637 51.7039 174.637 51.2139C174.637 50.7239 174.259 50.3459 173.797 50.3459C173.307 50.3459 172.929 50.7239 172.929 51.2139C172.929 51.7039 173.307 52.0819 173.797 52.0819ZM179.846 54.2799C181.162 54.2799 182.282 55.1059 182.268 56.6039H177.424C177.564 55.1059 178.6 54.2799 179.846 54.2799ZM183.43 58.6339H182.058C181.778 59.4599 181.05 60.0479 179.902 60.0479C178.6 60.0479 177.508 59.1939 177.41 57.6399H183.542C183.57 57.3739 183.584 57.1499 183.584 56.8699C183.584 54.7699 182.128 53.2019 179.902 53.2019C177.662 53.2019 176.108 54.7279 176.108 57.1499C176.108 59.5859 177.718 61.1259 179.902 61.1259C181.806 61.1259 183.038 60.0339 183.43 58.6339ZM184.79 57.1499C184.79 59.5859 186.344 61.1259 188.528 61.1259C190.432 61.1259 191.678 60.0619 192.07 58.5359H190.698C190.418 59.5019 189.662 60.0479 188.528 60.0479C187.128 60.0479 186.092 59.0539 186.092 57.1499C186.092 55.2739 187.128 54.2799 188.528 54.2799C189.662 54.2799 190.432 54.8679 190.698 55.7919H192.07C191.678 54.1819 190.432 53.2019 188.528 53.2019C186.344 53.2019 184.79 54.7419 184.79 57.1499ZM198.459 53.3279H193.293V54.3639H196.989L193.265 59.9499V60.9999H198.487V59.9499H194.721L198.459 54.3639V53.3279ZM200.141 60.9999H201.415V57.6119L204.425 60.9999H206.161L202.535 57.1499L206.147 53.3279H204.369L201.415 56.7299V50.6399H200.141V60.9999ZM210.608 54.2799C211.924 54.2799 213.044 55.1059 213.03 56.6039H208.186C208.326 55.1059 209.362 54.2799 210.608 54.2799ZM212.274 63.4919V62.6519C211.952 62.7639 211.63 62.8339 211.364 62.8339C210.86 62.8339 210.538 62.5959 210.538 62.1619C210.538 61.8119 210.748 61.4899 211.378 61.1819L211.77 60.9859C213.044 60.6499 213.884 59.7399 214.192 58.6339H212.82C212.54 59.4599 211.812 60.0479 210.664 60.0479C209.362 60.0479 208.27 59.1939 208.172 57.6399H214.304C214.332 57.3739 214.346 57.1499 214.346 56.8699C214.346 54.7699 212.89 53.2019 210.664 53.2019C208.424 53.2019 206.87 54.7279 206.87 57.1499C206.87 59.3619 208.2 60.8459 210.09 61.0839C209.656 61.4619 209.488 61.8679 209.488 62.2879C209.488 63.3099 210.356 63.6879 211.196 63.6879C211.574 63.6879 211.952 63.6039 212.274 63.4919ZM219.284 57.1359C219.284 59.5159 220.866 61.1259 222.924 61.1259C224.324 61.1259 225.318 60.4119 225.78 59.5579V60.9999H227.068V50.6399H225.78V54.6999C225.248 53.8179 224.142 53.2019 222.938 53.2019C220.866 53.2019 219.284 54.7419 219.284 57.1359ZM225.78 57.1499C225.78 58.9559 224.576 60.0059 223.176 60.0059C221.776 60.0059 220.586 58.9419 220.586 57.1359C220.586 55.3299 221.776 54.3079 223.176 54.3079C224.576 54.3079 225.78 55.3719 225.78 57.1499ZM236.501 57.1499C236.501 54.7279 234.807 53.2019 232.623 53.2019C230.453 53.2019 228.745 54.7279 228.745 57.1499C228.745 59.5859 230.397 61.1259 232.567 61.1259C234.751 61.1259 236.501 59.5859 236.501 57.1499ZM230.047 57.1499C230.047 55.2179 231.265 54.3079 232.609 54.3079C233.925 54.3079 235.199 55.2179 235.199 57.1499C235.199 59.0959 233.897 60.0059 232.567 60.0059C231.237 60.0059 230.047 59.0959 230.047 57.1499ZM243.882 61.0139L245.296 60.9999L247.648 53.1459L249.916 60.9999H251.344L254.172 51.2419H252.8L250.658 59.4879L248.418 51.2419H246.99L244.638 59.5159L242.51 51.2419H241.152L243.882 61.0139ZM255.09 57.1359C255.09 59.5159 256.672 61.1259 258.716 61.1259C260.13 61.1259 261.124 60.3979 261.586 59.5719V60.9999H262.874V53.3279H261.586V54.7279C261.138 53.9299 260.158 53.2019 258.73 53.2019C256.672 53.2019 255.09 54.7419 255.09 57.1359ZM261.586 57.1499C261.586 58.9559 260.382 60.0059 258.982 60.0059C257.582 60.0059 256.392 58.9419 256.392 57.1359C256.392 55.3299 257.582 54.3079 258.982 54.3079C260.382 54.3079 261.586 55.3719 261.586 57.1499ZM266.301 56.8279C266.301 55.0499 267.225 54.5039 268.443 54.5039H268.779V53.1879C267.561 53.1879 266.735 53.7199 266.301 54.5739V53.3279H265.027V60.9999H266.301V56.8279ZM275.766 58.9139C275.71 56.1699 271.258 57.1639 271.258 55.3439C271.258 54.7279 271.818 54.2799 272.756 54.2799C273.778 54.2799 274.366 54.8399 274.422 55.6099H275.696C275.612 54.1119 274.492 53.2019 272.798 53.2019C271.09 53.2019 269.984 54.1679 269.984 55.3439C269.984 58.1999 274.52 57.2059 274.52 58.9139C274.52 59.5439 273.96 60.0479 272.952 60.0479C271.874 60.0479 271.216 59.4879 271.146 58.7459H269.83C269.914 60.1459 271.174 61.1259 272.966 61.1259C274.66 61.1259 275.766 60.1739 275.766 58.9139ZM282.254 53.3279H277.088V54.3639H280.784L277.06 59.9499V60.9999H282.282V59.9499H278.516L282.254 54.3639V53.3279ZM283.459 57.1359C283.459 59.5159 285.041 61.1259 287.085 61.1259C288.499 61.1259 289.493 60.3979 289.955 59.5719V60.9999H291.243V53.3279H289.955V54.7279C289.507 53.9299 288.527 53.2019 287.099 53.2019C285.041 53.2019 283.459 54.7419 283.459 57.1359ZM289.955 57.1499C289.955 58.9559 288.751 60.0059 287.351 60.0059C285.951 60.0059 284.761 58.9419 284.761 57.1359C284.761 55.3299 285.951 54.3079 287.351 54.3079C288.751 54.3079 289.955 55.3719 289.955 57.1499ZM294.894 60.9999H296.21L298.058 54.9099L299.906 60.9999H301.222L303.616 53.3279H302.356L300.62 59.7819L298.758 53.3279H297.456L295.552 59.7679L293.788 53.3279H292.486L294.894 60.9999ZM307.793 59.5439L305.385 53.3279H303.971L307.065 60.9159L305.553 64.6119H306.869L311.489 53.3279H310.173L307.793 59.5439ZM311.663 63.0019H312.517L314.085 59.2359H312.685L311.663 63.0019ZM323.967 53.3279H318.801V54.3639H322.497L318.773 59.9499V60.9999H323.995V59.9499H320.229L323.967 54.3639V53.3279ZM325.172 57.1359C325.172 59.5159 326.754 61.1259 328.798 61.1259C330.212 61.1259 331.206 60.3979 331.668 59.5719V60.9999H332.956V53.3279H331.668V54.7279C331.22 53.9299 330.24 53.2019 328.812 53.2019C326.754 53.2019 325.172 54.7419 325.172 57.1359ZM331.668 57.1499C331.668 58.9559 330.464 60.0059 329.064 60.0059C327.664 60.0059 326.474 58.9419 326.474 57.1359C326.474 55.3299 327.664 54.3079 329.064 54.3079C330.464 54.3079 331.668 55.3719 331.668 57.1499ZM340.625 58.9139C340.569 56.1699 336.117 57.1639 336.117 55.3439C336.117 54.7279 336.677 54.2799 337.615 54.2799C338.637 54.2799 339.225 54.8399 339.281 55.6099H340.555C340.471 54.1119 339.351 53.2019 337.657 53.2019C335.949 53.2019 334.843 54.1679 334.843 55.3439C334.843 58.1999 339.379 57.2059 339.379 58.9139C339.379 59.5439 338.819 60.0479 337.811 60.0479C336.733 60.0479 336.075 59.4879 336.005 58.7459H334.689C334.773 60.1459 336.033 61.1259 337.825 61.1259C339.519 61.1259 340.625 60.1739 340.625 58.9139ZM342.704 58.8999C342.704 60.4399 343.474 60.9999 344.832 60.9999H345.98V59.9219H345.042C344.258 59.9219 343.978 59.6559 343.978 58.8999V54.3779H345.98V53.3279H343.978V51.3959H342.704V53.3279H341.71V54.3779H342.704V58.8999ZM347.047 57.1359C347.047 59.5159 348.629 61.1259 350.673 61.1259C352.087 61.1259 353.081 60.3979 353.543 59.5719V60.9999H354.831V53.3279H353.543V54.7279C353.095 53.9299 352.115 53.2019 350.687 53.2019C348.629 53.2019 347.047 54.7419 347.047 57.1359ZM353.543 57.1499C353.543 58.9559 352.339 60.0059 350.939 60.0059C349.539 60.0059 348.349 58.9419 348.349 57.1359C348.349 55.3299 349.539 54.3079 350.939 54.3079C352.339 54.3079 353.543 55.3719 353.543 57.1499ZM362.598 60.9999H363.858V56.4779C363.858 54.2799 362.5 53.1879 360.722 53.1879C359.686 53.1879 358.762 53.6219 358.258 54.4199V53.3279H356.984V60.9999H358.258V56.7579C358.258 55.1059 359.154 54.2939 360.456 54.2939C361.744 54.2939 362.598 55.0919 362.598 56.6599V60.9999ZM365.463 57.1359C365.463 59.5159 367.045 61.1259 369.089 61.1259C370.503 61.1259 371.497 60.3979 371.959 59.5719V60.9999H373.247V53.3279H371.959V54.7279C371.511 53.9299 370.531 53.2019 369.103 53.2019C367.045 53.2019 365.463 54.7419 365.463 57.1359ZM371.959 57.1499C371.959 58.9559 370.755 60.0059 369.355 60.0059C367.955 60.0059 366.765 58.9419 366.765 57.1359C366.765 55.3299 367.955 54.3079 369.355 54.3079C370.755 54.3079 371.959 55.3719 371.959 57.1499ZM376.898 60.9999H378.214L380.062 54.9099L381.91 60.9999H383.226L385.62 53.3279H384.36L382.624 59.7819L380.762 53.3279H379.46L377.556 59.7679L375.792 53.3279H374.49L376.898 60.9999ZM386.885 60.9999H388.159V53.3279H386.885V60.9999ZM387.543 52.0819C388.005 52.0819 388.383 51.7039 388.383 51.2139C388.383 50.7239 388.005 50.3459 387.543 50.3459C387.053 50.3459 386.675 50.7239 386.675 51.2139C386.675 51.7039 387.053 52.0819 387.543 52.0819ZM389.854 57.1359C389.854 59.5159 391.436 61.1259 393.48 61.1259C394.894 61.1259 395.888 60.3979 396.35 59.5719V60.9999H397.638V53.3279H396.35V54.7279C395.902 53.9299 394.922 53.2019 393.494 53.2019C391.436 53.2019 389.854 54.7419 389.854 57.1359ZM396.35 57.1499C396.35 58.9559 395.146 60.0059 393.746 60.0059C392.346 60.0059 391.156 58.9419 391.156 57.1359C391.156 55.3299 392.346 54.3079 393.746 54.3079C395.146 54.3079 396.35 55.3719 396.35 57.1499ZM399.833 60.9999H401.107V55.7919L402.101 55.3999V54.4059L401.107 54.7839V50.6399H399.833V55.2879L398.839 55.6659V56.6739L399.833 56.2819V60.9999ZM402.829 57.1359C402.829 59.5159 404.411 61.1259 406.455 61.1259C407.869 61.1259 408.863 60.3979 409.325 59.5719V60.9999H410.613V53.3279H409.325V54.7279C408.877 53.9299 407.897 53.2019 406.469 53.2019C404.411 53.2019 402.829 54.7419 402.829 57.1359ZM409.325 57.1499C409.325 58.9559 408.121 60.0059 406.721 60.0059C405.321 60.0059 404.131 58.9419 404.131 57.1359C404.131 55.3299 405.321 54.3079 406.721 54.3079C408.121 54.3079 409.325 55.3719 409.325 57.1499ZM6.59397 79.9139C6.53797 77.1699 2.08597 78.1639 2.08597 76.3439C2.08597 75.7279 2.64597 75.2799 3.58397 75.2799C4.60597 75.2799 5.19397 75.8399 5.24997 76.6099H6.52397C6.43997 75.1119 5.31997 74.202 3.62597 74.202C1.91797 74.202 0.811969 75.1679 0.811969 76.3439C0.811969 79.1999 5.34797 78.2059 5.34797 79.9139C5.34797 80.5439 4.78797 81.0479 3.77997 81.0479C2.70197 81.0479 2.04397 80.4879 1.97397 79.7459H0.657969C0.741969 81.1459 2.00197 82.1259 3.79397 82.1259C5.48797 82.1259 6.59397 81.1739 6.59397 79.9139ZM8.39242 81.9999H9.66642V74.3279H8.39242V81.9999ZM9.05042 73.0819C9.51242 73.0819 9.89042 72.7039 9.89042 72.2139C9.89042 71.7239 9.51242 71.3459 9.05042 71.3459C8.56042 71.3459 8.18242 71.7239 8.18242 72.2139C8.18242 72.7039 8.56042 73.0819 9.05042 73.0819ZM15.0998 75.2799C16.4158 75.2799 17.5358 76.1059 17.5218 77.6039H12.6778C12.8178 76.1059 13.8538 75.2799 15.0998 75.2799ZM16.7658 84.4919V83.6519C16.4438 83.7639 16.1218 83.8339 15.8558 83.8339C15.3518 83.8339 15.0298 83.5959 15.0298 83.1619C15.0298 82.8119 15.2398 82.4899 15.8698 82.1819L16.2618 81.9859C17.5358 81.6499 18.3758 80.7399 18.6838 79.6339H17.3118C17.0318 80.4599 16.3038 81.0479 15.1558 81.0479C13.8538 81.0479 12.7618 80.1939 12.6638 78.6399H18.7958C18.8238 78.3739 18.8378 78.1499 18.8378 77.8699C18.8378 75.7699 17.3818 74.202 15.1558 74.202C12.9158 74.202 11.3618 75.7279 11.3618 78.1499C11.3618 80.3619 12.6918 81.8459 14.5818 82.0839C14.1478 82.4619 13.9798 82.8679 13.9798 83.2879C13.9798 84.3099 14.8478 84.688 15.6878 84.688C16.0658 84.688 16.4438 84.6039 16.7658 84.4919ZM19.4134 84.0019H20.2674L21.8354 80.2359H20.4354L19.4134 84.0019ZM26.5512 78.1499C26.5512 80.5859 28.1052 82.1259 30.2892 82.1259C32.1932 82.1259 33.4392 81.0619 33.8312 79.5359H32.4592C32.1792 80.5019 31.4232 81.0479 30.2892 81.0479C28.8892 81.0479 27.8532 80.0539 27.8532 78.1499C27.8532 76.2739 28.8892 75.2799 30.2892 75.2799C31.4232 75.2799 32.1932 75.8679 32.4592 76.7919H33.8312C33.4392 75.1819 32.1932 74.202 30.2892 74.202C28.1052 74.202 26.5512 75.7419 26.5512 78.1499ZM40.2211 74.3279H35.0551V75.3639H38.7511L35.0271 80.9499V81.9999H40.2491V80.9499H36.4831L40.2211 75.3639V74.3279ZM44.8142 80.5439L42.4062 74.3279H40.9922L44.0862 81.9159L42.5742 85.6119H43.8902L48.5102 74.3279H47.1942L44.8142 80.5439ZM54.7973 75.7559V71.6399H53.5233V81.9999H54.7973V80.5859C55.2733 81.4259 56.2673 82.1259 57.6673 82.1259C59.7253 82.1259 61.3073 80.5159 61.3073 78.1359C61.3073 75.7419 59.7393 74.202 57.6673 74.202C56.3093 74.202 55.2873 74.9019 54.7973 75.7559ZM60.0053 78.1359C60.0053 79.9419 58.8153 81.0059 57.4013 81.0059C56.0153 81.0059 54.7973 79.9559 54.7973 78.1499C54.7973 76.3719 56.0153 75.3079 57.4013 75.3079C58.8153 75.3079 60.0053 76.3299 60.0053 78.1359ZM66.2463 75.2799C67.5623 75.2799 68.6823 76.1059 68.6683 77.6039H63.8243C63.9642 76.1059 65.0003 75.2799 66.2463 75.2799ZM67.9123 84.4919V83.6519C67.5903 83.7639 67.2683 83.8339 67.0023 83.8339C66.4983 83.8339 66.1763 83.5959 66.1763 83.1619C66.1763 82.8119 66.3863 82.4899 67.0163 82.1819L67.4083 81.9859C68.6823 81.6499 69.5223 80.7399 69.8303 79.6339H68.4583C68.1783 80.4599 67.4503 81.0479 66.3023 81.0479C65.0003 81.0479 63.9083 80.1939 63.8103 78.6399H69.9423C69.9703 78.3739 69.9843 78.1499 69.9843 77.8699C69.9843 75.7699 68.5283 74.202 66.3023 74.202C64.0623 74.202 62.5083 75.7279 62.5083 78.1499C62.5083 80.3619 63.8383 81.8459 65.7283 82.0839C65.2943 82.4619 65.1263 82.8679 65.1263 83.2879C65.1263 84.3099 65.9943 84.688 66.8343 84.688C67.2123 84.688 67.5903 84.6039 67.9123 84.4919ZM71.1899 78.1359C71.1899 80.5159 72.7719 82.1259 74.8299 82.1259C76.2299 82.1259 77.2239 81.4119 77.6859 80.5579V81.9999H78.9739V71.6399H77.6859V75.6999C77.1539 74.8179 76.0479 74.202 74.8439 74.202C72.7719 74.202 71.1899 75.7419 71.1899 78.1359ZM77.6859 78.1499C77.6859 79.9559 76.4819 81.0059 75.0819 81.0059C73.6819 81.0059 72.4919 79.9419 72.4919 78.1359C72.4919 76.3299 73.6819 75.3079 75.0819 75.3079C76.4819 75.3079 77.6859 76.3719 77.6859 78.1499ZM85.8168 74.3279H80.6508V75.3639H84.3468L80.6228 80.9499V81.9999H85.8448V80.9499H82.0788L85.8168 75.3639V74.3279ZM87.4979 81.9999H88.7719V74.3279H87.4979V81.9999ZM88.1559 73.0819C88.6179 73.0819 88.9959 72.7039 88.9959 72.2139C88.9959 71.7239 88.6179 71.3459 88.1559 71.3459C87.6659 71.3459 87.2879 71.7239 87.2879 72.2139C87.2879 72.7039 87.6659 73.0819 88.1559 73.0819ZM94.2052 75.2799C95.5212 75.2799 96.6412 76.1059 96.6272 77.6039H91.7832C91.9232 76.1059 92.9592 75.2799 94.2052 75.2799ZM97.7892 79.6339H96.4172C96.1372 80.4599 95.4092 81.0479 94.2612 81.0479C92.9592 81.0479 91.8672 80.1939 91.7692 78.6399H97.9012C97.9292 78.3739 97.9432 78.1499 97.9432 77.8699C97.9432 75.7699 96.4872 74.202 94.2612 74.202C92.0212 74.202 90.4672 75.7279 90.4672 78.1499C90.4672 80.5859 92.0772 82.1259 94.2612 82.1259C96.1652 82.1259 97.3972 81.0339 97.7892 79.6339ZM114.431 81.9999H115.691V77.4779C115.691 75.2799 114.333 74.188 112.583 74.188C111.407 74.188 110.315 74.79 109.867 75.896C109.363 74.748 108.313 74.188 107.053 74.188C106.045 74.188 105.135 74.6219 104.631 75.4339V74.3279H103.357V81.9999H104.631V77.7719C104.631 76.1199 105.513 75.2939 106.801 75.2939C108.061 75.2939 108.901 76.092 108.901 77.66V81.9999H110.161V77.7719C110.161 76.1199 111.043 75.2939 112.331 75.2939C113.591 75.2939 114.431 76.092 114.431 77.66V81.9999ZM125.061 78.1499C125.061 75.7279 123.367 74.202 121.183 74.202C119.013 74.202 117.305 75.7279 117.305 78.1499C117.305 80.5859 118.957 82.1259 121.127 82.1259C123.311 82.1259 125.061 80.5859 125.061 78.1499ZM118.607 78.1499C118.607 76.2179 119.825 75.3079 121.169 75.3079C122.485 75.3079 123.759 76.2179 123.759 78.1499C123.759 80.0959 122.457 81.0059 121.127 81.0059C119.797 81.0059 118.607 80.0959 118.607 78.1499ZM126.26 78.1359C126.26 80.5159 127.842 82.1259 129.9 82.1259C131.3 82.1259 132.294 81.3839 132.756 80.5579V82.1679C132.756 83.8059 131.734 84.674 130.376 84.674C129.116 84.674 128.206 84.0439 127.926 83.1199H126.666C126.918 84.7579 128.36 85.7799 130.376 85.7799C132.63 85.7799 134.044 84.2819 134.044 82.1679V74.3279H132.756V75.7279C132.308 74.9019 131.3 74.202 129.9 74.202C127.842 74.202 126.26 75.7419 126.26 78.1359ZM132.756 78.1499C132.756 79.9559 131.552 81.0059 130.152 81.0059C128.752 81.0059 127.562 79.9419 127.562 78.1359C127.562 76.3299 128.752 75.3079 130.152 75.3079C131.552 75.3079 132.756 76.3719 132.756 78.1499ZM136.239 81.9999H137.513V76.7919L138.507 76.3999V75.4059L137.513 75.7839V71.6399H136.239V76.2879L135.245 76.6659V77.674L136.239 77.2819V81.9999ZM139.235 78.1359C139.235 80.5159 140.817 82.1259 142.861 82.1259C144.275 82.1259 145.269 81.3979 145.731 80.5719V81.9999H147.019V74.3279H145.731V75.7279C145.283 74.9299 144.303 74.202 142.875 74.202C140.817 74.202 139.235 75.7419 139.235 78.1359ZM145.731 78.1499C145.731 79.9559 144.527 81.0059 143.127 81.0059C141.727 81.0059 140.537 79.9419 140.537 78.1359C140.537 76.3299 141.727 75.3079 143.127 75.3079C144.527 75.3079 145.731 76.3719 145.731 78.1499ZM157.594 74.3279H152.428V75.3639H156.124L152.4 80.9499V81.9999H157.622V80.9499H153.856L157.594 75.3639V74.3279ZM158.799 78.1359C158.799 80.5159 160.381 82.1259 162.425 82.1259C163.839 82.1259 164.833 81.3979 165.295 80.5719V81.9999H166.583V74.3279H165.295V75.7279C164.847 74.9299 163.867 74.202 162.439 74.202C160.381 74.202 158.799 75.7419 158.799 78.1359ZM165.295 78.1499C165.295 79.9559 164.091 81.0059 162.691 81.0059C161.291 81.0059 160.101 79.9419 160.101 78.1359C160.101 76.3299 161.291 75.3079 162.691 75.3079C164.091 75.3079 165.295 76.3719 165.295 78.1499ZM170.01 75.7559V71.6399H168.736V81.9999H170.01V80.5859C170.486 81.4259 171.48 82.1259 172.88 82.1259C174.938 82.1259 176.52 80.5159 176.52 78.1359C176.52 75.7419 174.952 74.202 172.88 74.202C171.522 74.202 170.5 74.9019 170.01 75.7559ZM175.218 78.1359C175.218 79.9419 174.028 81.0059 172.614 81.0059C171.228 81.0059 170.01 79.9559 170.01 78.1499C170.01 76.3719 171.228 75.3079 172.614 75.3079C174.028 75.3079 175.218 76.3299 175.218 78.1359ZM179.471 77.8279C179.471 76.0499 180.395 75.5039 181.613 75.5039H181.949V74.188C180.731 74.188 179.905 74.7199 179.471 75.5739V74.3279H178.197V81.9999H179.471V77.8279ZM182.944 78.1359C182.944 80.5159 184.526 82.1259 186.57 82.1259C187.984 82.1259 188.978 81.3979 189.44 80.5719V81.9999H190.728V74.3279H189.44V75.7279C188.992 74.9299 188.012 74.202 186.584 74.202C184.526 74.202 182.944 75.7419 182.944 78.1359ZM189.44 78.1499C189.44 79.9559 188.236 81.0059 186.836 81.0059C185.436 81.0059 184.246 79.9419 184.246 78.1359C184.246 76.3299 185.436 75.3079 186.836 75.3079C188.236 75.3079 189.44 76.3719 189.44 78.1499ZM192.405 78.1499C192.405 80.5859 193.959 82.1259 196.143 82.1259C198.047 82.1259 199.293 81.0619 199.685 79.5359H198.313C198.033 80.5019 197.277 81.0479 196.143 81.0479C194.743 81.0479 193.707 80.0539 193.707 78.1499C193.707 76.2739 194.743 75.2799 196.143 75.2799C197.277 75.2799 198.047 75.8679 198.313 76.7919H199.685C199.293 75.1819 198.047 74.202 196.143 74.202C193.959 74.202 192.405 75.7419 192.405 78.1499ZM194.449 72.8019V73.7539L197.431 72.1579V71.0519L194.449 72.8019ZM209.807 74.3279H204.641V75.3639H208.337L204.613 80.9499V81.9999H209.835V80.9499H206.069L209.807 75.3639V74.3279ZM214.75 75.2799C216.066 75.2799 217.186 76.1059 217.172 77.6039H212.328C212.468 76.1059 213.504 75.2799 214.75 75.2799ZM218.334 79.6339H216.962C216.682 80.4599 215.954 81.0479 214.806 81.0479C213.504 81.0479 212.412 80.1939 212.314 78.6399H218.446C218.474 78.3739 218.488 78.1499 218.488 77.8699C218.488 75.7699 217.032 74.202 214.806 74.202C212.566 74.202 211.012 75.7279 211.012 78.1499C211.012 80.5859 212.622 82.1259 214.806 82.1259C216.71 82.1259 217.942 81.0339 218.334 79.6339ZM229.418 79.9139C229.362 77.1699 224.91 78.1639 224.91 76.3439C224.91 75.7279 225.47 75.2799 226.408 75.2799C227.43 75.2799 228.018 75.8399 228.074 76.6099H229.348C229.264 75.1119 228.144 74.202 226.45 74.202C224.742 74.202 223.636 75.1679 223.636 76.3439C223.636 79.1999 228.172 78.2059 228.172 79.9139C228.172 80.5439 227.612 81.0479 226.604 81.0479C225.526 81.0479 224.868 80.4879 224.798 79.7459H223.482C223.566 81.1459 224.826 82.1259 226.618 82.1259C228.312 82.1259 229.418 81.1739 229.418 79.9139ZM238.497 78.1499C238.497 75.7279 236.803 74.202 234.619 74.202C232.449 74.202 230.741 75.7279 230.741 78.1499C230.741 80.5859 232.393 82.1259 234.563 82.1259C236.747 82.1259 238.497 80.5859 238.497 78.1499ZM232.043 78.1499C232.043 76.2179 233.261 75.3079 234.605 75.3079C235.921 75.3079 237.195 76.2179 237.195 78.1499C237.195 80.0959 235.893 81.0059 234.563 81.0059C233.233 81.0059 232.043 80.0959 232.043 78.1499ZM241.446 75.7559V71.6399H240.172V81.9999H241.446V80.5859C241.922 81.4259 242.916 82.1259 244.316 82.1259C246.374 82.1259 247.956 80.5159 247.956 78.1359C247.956 75.7419 246.388 74.202 244.316 74.202C242.958 74.202 241.936 74.9019 241.446 75.7559ZM246.654 78.1359C246.654 79.9419 245.464 81.0059 244.05 81.0059C242.664 81.0059 241.446 79.9559 241.446 78.1499C241.446 76.3719 242.664 75.3079 244.05 75.3079C245.464 75.3079 246.654 76.3299 246.654 78.1359ZM249.157 78.1359C249.157 80.5159 250.739 82.1259 252.783 82.1259C254.197 82.1259 255.191 81.3979 255.653 80.5719V81.7619C254.645 82.2939 254.281 82.8679 254.281 83.4839C254.281 84.5059 255.149 84.8839 255.989 84.8839C256.367 84.8839 256.745 84.8 257.067 84.688V83.8479C256.745 83.9599 256.423 84.0299 256.157 84.0299C255.653 84.0299 255.331 83.7919 255.331 83.3579C255.331 83.0079 255.541 82.6859 256.171 82.3779L256.941 81.9999V74.3279H255.653V75.7279C255.205 74.9299 254.225 74.202 252.797 74.202C250.739 74.202 249.157 75.7419 249.157 78.1359ZM255.653 78.1499C255.653 79.9559 254.449 81.0059 253.049 81.0059C251.649 81.0059 250.459 79.9419 250.459 78.1359C250.459 76.3299 251.649 75.3079 253.049 75.3079C254.449 75.3079 255.653 76.3719 255.653 78.1499ZM264.1 75.7419V74.3279H262.826V85.6399H264.1V80.5859C264.576 81.3699 265.57 82.1259 266.97 82.1259C269.028 82.1259 270.61 80.5159 270.61 78.1359C270.61 75.7419 269.028 74.202 266.97 74.202C265.57 74.202 264.562 74.9299 264.1 75.7419ZM269.308 78.1359C269.308 79.9419 268.118 81.0059 266.704 81.0059C265.318 81.0059 264.1 79.9559 264.1 78.1499C264.1 76.3719 265.318 75.3079 266.704 75.3079C268.118 75.3079 269.308 76.3299 269.308 78.1359ZM277.803 79.9139C277.747 77.1699 273.295 78.1639 273.295 76.3439C273.295 75.7279 273.855 75.2799 274.793 75.2799C275.815 75.2799 276.403 75.8399 276.459 76.6099H277.733C277.649 75.1119 276.529 74.202 274.835 74.202C273.127 74.202 272.021 75.1679 272.021 76.3439C272.021 79.1999 276.557 78.2059 276.557 79.9139C276.557 80.5439 275.997 81.0479 274.989 81.0479C273.911 81.0479 273.253 80.4879 273.183 79.7459H271.867C271.951 81.1459 273.211 82.1259 275.003 82.1259C276.697 82.1259 277.803 81.1739 277.803 79.9139ZM279.125 78.1359C279.125 80.5159 280.707 82.1259 282.751 82.1259C284.165 82.1259 285.159 81.3979 285.621 80.5719V81.9999H286.909V74.3279H285.621V75.7279C285.173 74.9299 284.193 74.202 282.765 74.202C280.707 74.202 279.125 75.7419 279.125 78.1359ZM285.621 78.1499C285.621 79.9559 284.417 81.0059 283.017 81.0059C281.617 81.0059 280.427 79.9419 280.427 78.1359C280.427 76.3299 281.617 75.3079 283.017 75.3079C284.417 75.3079 285.621 76.3719 285.621 78.1499ZM290.308 81.216C290.308 80.726 289.93 80.3479 289.468 80.3479C288.978 80.3479 288.6 80.726 288.6 81.216C288.6 81.706 288.978 82.0839 289.468 82.0839C289.93 82.0839 290.308 81.706 290.308 81.216ZM298.772 72.2419H295.734V81.9999H298.772C301.978 81.9999 303.952 80.1659 303.952 77.1419C303.952 74.1179 301.978 72.2419 298.772 72.2419ZM297.008 80.9499V73.2779H298.772C301.32 73.2779 302.65 74.7619 302.65 77.1419C302.65 79.5219 301.32 80.9499 298.772 80.9499H297.008ZM310.323 74.3279H305.157V75.3639H308.853L305.129 80.9499V81.9999H310.351V80.9499H306.585L310.323 75.3639V74.3279ZM312.004 81.9999H313.278V74.3279H312.004V81.9999ZM312.662 73.0819C313.124 73.0819 313.502 72.7039 313.502 72.2139C313.502 71.7239 313.124 71.3459 312.662 71.3459C312.172 71.3459 311.794 71.7239 311.794 72.2139C311.794 72.7039 312.172 73.0819 312.662 73.0819ZM318.711 75.2799C320.027 75.2799 321.147 76.1059 321.133 77.6039H316.289C316.429 76.1059 317.465 75.2799 318.711 75.2799ZM320.377 84.4919V83.6519C320.055 83.7639 319.733 83.8339 319.467 83.8339C318.963 83.8339 318.641 83.5959 318.641 83.1619C318.641 82.8119 318.851 82.4899 319.481 82.1819L319.873 81.9859C321.147 81.6499 321.987 80.7399 322.295 79.6339H320.923C320.643 80.4599 319.915 81.0479 318.767 81.0479C317.465 81.0479 316.373 80.1939 316.275 78.6399H322.407C322.435 78.3739 322.449 78.1499 322.449 77.8699C322.449 75.7699 320.993 74.202 318.767 74.202C316.527 74.202 314.973 75.7279 314.973 78.1499C314.973 80.3619 316.303 81.8459 318.193 82.0839C317.759 82.4619 317.591 82.8679 317.591 83.2879C317.591 84.3099 318.459 84.688 319.299 84.688C319.677 84.688 320.055 84.6039 320.377 84.4919ZM324.131 81.9999H325.405V78.6119L328.415 81.9999H330.151L326.525 78.1499L330.137 74.3279H328.359L325.405 77.7299V71.6399H324.131V81.9999ZM331.336 81.9999H332.61V74.3279H331.336V81.9999ZM331.994 73.0819C332.456 73.0819 332.834 72.7039 332.834 72.2139C332.834 71.7239 332.456 71.3459 331.994 71.3459C331.504 71.3459 331.126 71.7239 331.126 72.2139C331.126 72.7039 331.504 73.0819 331.994 73.0819ZM338.038 78.1359C338.038 80.5159 339.62 82.1259 341.664 82.1259C343.078 82.1259 344.072 81.3979 344.534 80.5719V81.9999H345.822V74.3279H344.534V75.7279C344.086 74.9299 343.106 74.202 341.678 74.202C339.62 74.202 338.038 75.7419 338.038 78.1359ZM344.534 78.1499C344.534 79.9559 343.33 81.0059 341.93 81.0059C340.53 81.0059 339.34 79.9419 339.34 78.1359C339.34 76.3299 340.53 75.3079 341.93 75.3079C343.33 75.3079 344.534 76.3719 344.534 78.1499ZM349.248 75.7419V74.3279H347.974V85.6399H349.248V80.5859C349.724 81.3699 350.718 82.1259 352.118 82.1259C354.176 82.1259 355.758 80.5159 355.758 78.1359C355.758 75.7419 354.176 74.202 352.118 74.202C350.718 74.202 349.71 74.9299 349.248 75.7419ZM354.456 78.1359C354.456 79.9419 353.266 81.0059 351.852 81.0059C350.466 81.0059 349.248 79.9559 349.248 78.1499C349.248 76.3719 350.466 75.3079 351.852 75.3079C353.266 75.3079 354.456 76.3299 354.456 78.1359ZM357.435 81.9999H358.709V71.6399H357.435V81.9999ZM360.881 81.9999H362.155V74.3279H360.881V81.9999ZM361.539 73.0819C362.001 73.0819 362.379 72.7039 362.379 72.2139C362.379 71.7239 362.001 71.3459 361.539 71.3459C361.049 71.3459 360.671 71.7239 360.671 72.2139C360.671 72.7039 361.049 73.0819 361.539 73.0819ZM364.326 81.9999H365.6V78.6119L368.61 81.9999H370.346L366.72 78.1499L370.332 74.3279H368.554L365.6 77.7299V71.6399H364.326V81.9999ZM371.055 78.1359C371.055 80.5159 372.637 82.1259 374.681 82.1259C376.095 82.1259 377.089 81.3979 377.551 80.5719V81.9999H378.839V74.3279H377.551V75.7279C377.103 74.9299 376.123 74.202 374.695 74.202C372.637 74.202 371.055 75.7419 371.055 78.1359ZM377.551 78.1499C377.551 79.9559 376.347 81.0059 374.947 81.0059C373.547 81.0059 372.357 79.9419 372.357 78.1359C372.357 76.3299 373.547 75.3079 374.947 75.3079C376.347 75.3079 377.551 76.3719 377.551 78.1499ZM380.516 78.1499C380.516 80.5859 382.07 82.1259 384.254 82.1259C386.158 82.1259 387.404 81.0619 387.796 79.5359H386.424C386.144 80.5019 385.388 81.0479 384.254 81.0479C382.854 81.0479 381.818 80.0539 381.818 78.1499C381.818 76.2739 382.854 75.2799 384.254 75.2799C385.388 75.2799 386.158 75.8679 386.424 76.7919H387.796C387.404 75.1819 386.158 74.202 384.254 74.202C382.07 74.202 380.516 75.7419 380.516 78.1499ZM390.182 73.0819C390.658 73.0819 391.036 72.7039 391.036 72.2139C391.036 71.7239 390.658 71.3459 390.182 71.3459C389.706 71.3459 389.328 71.7239 389.328 72.2139C389.328 72.7039 389.706 73.0819 390.182 73.0819ZM389.538 74.3279V83.6379C389.538 84.3099 389.272 84.5619 388.572 84.5619H388.04V85.6399H388.782C390.084 85.6399 390.812 85.0519 390.812 83.6659V74.3279H389.538ZM392.969 81.9999H394.243V74.3279H392.969V81.9999ZM393.627 73.0819C394.089 73.0819 394.467 72.7039 394.467 72.2139C394.467 71.7239 394.089 71.3459 393.627 71.3459C393.137 71.3459 392.759 71.7239 392.759 72.2139C392.759 72.7039 393.137 73.0819 393.627 73.0819ZM3.05197 103.014L4.46597 103L6.81797 95.146L9.08597 103H10.514L13.342 93.2419H11.97L9.82797 101.488L7.58797 93.2419H6.15997L3.80797 101.516L1.67997 93.2419H0.321969L3.05197 103.014ZM14.2602 99.1359C14.2602 101.516 15.8422 103.126 17.8862 103.126C19.3002 103.126 20.2942 102.398 20.7562 101.572V103H22.0442V95.3279H20.7562V96.7279C20.3082 95.9299 19.3282 95.202 17.9002 95.202C15.8422 95.202 14.2602 96.7419 14.2602 99.1359ZM20.7562 99.1499C20.7562 100.956 19.5522 102.006 18.1522 102.006C16.7522 102.006 15.5622 100.942 15.5622 99.1359C15.5622 97.3299 16.7522 96.3079 18.1522 96.3079C19.5522 96.3079 20.7562 97.3719 20.7562 99.1499ZM24.1971 103H25.4711V92.6399H24.1971V103ZM27.6425 103H28.9165V99.6119L31.9265 103H33.6625L30.0365 99.1499L33.6485 95.3279H31.8705L28.9165 98.7299V92.6399H27.6425V103ZM34.8475 103H36.1215V95.3279H34.8475V103ZM35.5055 94.0819C35.9675 94.0819 36.3455 93.7039 36.3455 93.2139C36.3455 92.7239 35.9675 92.3459 35.5055 92.3459C35.0155 92.3459 34.6375 92.7239 34.6375 93.2139C34.6375 93.7039 35.0155 94.0819 35.5055 94.0819ZM41.5548 96.2799C42.8708 96.2799 43.9908 97.1059 43.9768 98.6039H39.1328C39.2728 97.1059 40.3088 96.2799 41.5548 96.2799ZM45.1388 100.634H43.7668C43.4868 101.46 42.7588 102.048 41.6108 102.048C40.3088 102.048 39.2168 101.194 39.1188 99.6399H45.2508C45.2788 99.3739 45.2928 99.1499 45.2928 98.8699C45.2928 96.7699 43.8368 95.202 41.6108 95.202C39.3708 95.202 37.8168 96.7279 37.8168 99.1499C37.8168 101.586 39.4268 103.126 41.6108 103.126C43.5148 103.126 44.7468 102.034 45.1388 100.634ZM50.0125 93.2419H46.9745V103H50.0125C53.2185 103 55.1925 101.166 55.1925 98.1419C55.1925 95.1179 53.2185 93.2419 50.0125 93.2419ZM48.2485 101.95V94.2779H50.0125C52.5605 94.2779 53.8905 95.7619 53.8905 98.1419C53.8905 100.522 52.5605 101.95 50.0125 101.95H48.2485ZM64.1529 99.1499C64.1529 96.7279 62.4589 95.202 60.2749 95.202C58.1049 95.202 56.3969 96.7279 56.3969 99.1499C56.3969 101.586 58.0489 103.126 60.2189 103.126C62.4029 103.126 64.1529 101.586 64.1529 99.1499ZM57.6989 99.1499C57.6989 97.2179 58.9169 96.3079 60.2609 96.3079C61.5769 96.3079 62.8509 97.2179 62.8509 99.1499C62.8509 101.096 61.5489 102.006 60.2189 102.006C58.8889 102.006 57.6989 101.096 57.6989 99.1499ZM65.352 99.1359C65.352 101.516 66.934 103.126 68.992 103.126C70.392 103.126 71.386 102.384 71.848 101.558V103.168C71.848 104.806 70.826 105.674 69.468 105.674C68.208 105.674 67.298 105.044 67.018 104.12H65.758C66.01 105.758 67.452 106.78 69.468 106.78C71.722 106.78 73.136 105.282 73.136 103.168V95.3279H71.848V96.7279C71.4 95.9019 70.392 95.202 68.992 95.202C66.934 95.202 65.352 96.7419 65.352 99.1359ZM71.848 99.1499C71.848 100.956 70.644 102.006 69.244 102.006C67.844 102.006 66.654 100.942 66.654 99.1359C66.654 97.3299 67.844 96.3079 69.244 96.3079C70.644 96.3079 71.848 97.3719 71.848 99.1499ZM74.8129 99.1359C74.8129 101.516 76.3949 103.126 78.4529 103.126C79.8529 103.126 80.8469 102.384 81.3089 101.558V103.168C81.3089 104.806 80.2869 105.674 78.9289 105.674C77.6689 105.674 76.7589 105.044 76.4789 104.12H75.2189C75.4709 105.758 76.9129 106.78 78.9289 106.78C81.1829 106.78 82.5969 105.282 82.5969 103.168V95.3279H81.3089V96.7279C80.8609 95.9019 79.8529 95.202 78.4529 95.202C76.3949 95.202 74.8129 96.7419 74.8129 99.1359ZM81.3089 99.1499C81.3089 100.956 80.1049 102.006 78.7049 102.006C77.3049 102.006 76.1149 100.942 76.1149 99.1359C76.1149 97.3299 77.3049 96.3079 78.7049 96.3079C80.1049 96.3079 81.3089 97.3719 81.3089 99.1499ZM84.7499 103H86.0239V95.3279H84.7499V103ZM85.4079 94.0819C85.8699 94.0819 86.2479 93.7039 86.2479 93.2139C86.2479 92.7239 85.8699 92.3459 85.4079 92.3459C84.9179 92.3459 84.5399 92.7239 84.5399 93.2139C84.5399 93.7039 84.9179 94.0819 85.4079 94.0819ZM91.4572 96.2799C92.7732 96.2799 93.8932 97.1059 93.8792 98.6039H89.0352C89.1752 97.1059 90.2112 96.2799 91.4572 96.2799ZM95.0412 100.634H93.6692C93.3892 101.46 92.6612 102.048 91.5132 102.048C90.2112 102.048 89.1192 101.194 89.0212 99.6399H95.1532C95.1812 99.3739 95.1952 99.1499 95.1952 98.8699C95.1952 96.7699 93.7392 95.202 91.5132 95.202C89.2732 95.202 87.7192 96.7279 87.7192 99.1499C87.7192 101.586 89.3292 103.126 91.5132 103.126C93.4172 103.126 94.6492 102.034 95.0412 100.634ZM106.125 100.914C106.069 98.1699 101.617 99.1639 101.617 97.3439C101.617 96.7279 102.177 96.2799 103.115 96.2799C104.137 96.2799 104.725 96.8399 104.781 97.6099H106.055C105.971 96.1119 104.851 95.202 103.157 95.202C101.449 95.202 100.343 96.1679 100.343 97.3439C100.343 100.2 104.879 99.2059 104.879 100.914C104.879 101.544 104.319 102.048 103.311 102.048C102.233 102.048 101.575 101.488 101.505 100.746H100.189C100.273 102.146 101.533 103.126 103.325 103.126C105.019 103.126 106.125 102.174 106.125 100.914ZM112.614 95.3279H107.448V96.3639H111.144L107.42 101.95V103H112.642V101.95H108.876L112.614 96.3639V95.3279ZM117.207 101.544L114.799 95.3279H113.385L116.479 102.916L114.967 106.612H116.283L120.903 95.3279H119.587L117.207 101.544ZM123.457 96.7559V92.6399H122.183V103H123.457V101.586C123.933 102.426 124.927 103.126 126.327 103.126C128.385 103.126 129.967 101.516 129.967 99.1359C129.967 96.7419 128.399 95.202 126.327 95.202C124.969 95.202 123.947 95.9019 123.457 96.7559ZM128.665 99.1359C128.665 100.942 127.475 102.006 126.061 102.006C124.675 102.006 123.457 100.956 123.457 99.1499C123.457 97.3719 124.675 96.3079 126.061 96.3079C127.475 96.3079 128.665 97.3299 128.665 99.1359ZM131.644 103H132.918V99.6119L135.928 103H137.664L134.038 99.1499L137.65 95.3279H135.872L132.918 98.7299V92.6399H131.644V103ZM146.129 99.1499C146.129 96.7279 144.435 95.202 142.251 95.202C140.081 95.202 138.373 96.7279 138.373 99.1499C138.373 101.586 140.025 103.126 142.195 103.126C144.379 103.126 146.129 101.586 146.129 99.1499ZM139.675 99.1499C139.675 97.2179 140.893 96.3079 142.237 96.3079C143.553 96.3079 144.827 97.2179 144.827 99.1499C144.827 101.096 143.525 102.006 142.195 102.006C140.865 102.006 139.675 101.096 139.675 99.1499ZM158.817 99.1499C158.817 96.7279 157.123 95.202 154.939 95.202C152.769 95.202 151.061 96.7279 151.061 99.1499C151.061 101.586 152.713 103.126 154.883 103.126C157.067 103.126 158.817 101.586 158.817 99.1499ZM152.363 99.1499C152.363 97.2179 153.581 96.3079 154.925 96.3079C156.241 96.3079 157.515 97.2179 157.515 99.1499C157.515 101.096 156.213 102.006 154.883 102.006C153.553 102.006 152.363 101.096 152.363 99.1499ZM160.016 99.1359C160.016 101.516 161.598 103.126 163.656 103.126C165.056 103.126 166.05 102.412 166.512 101.558V103H167.8V92.6399H166.512V96.6999C165.98 95.8179 164.874 95.202 163.67 95.202C161.598 95.202 160.016 96.7419 160.016 99.1359ZM166.512 99.1499C166.512 100.956 165.308 102.006 163.908 102.006C162.508 102.006 161.318 100.942 161.318 99.1359C161.318 97.3299 162.508 96.3079 163.908 96.3079C165.308 96.3079 166.512 97.3719 166.512 99.1499ZM175.567 103H176.827V98.4779C176.827 96.2799 175.469 95.188 173.691 95.188C172.655 95.188 171.731 95.6219 171.227 96.4199V95.3279H169.953V103H171.227V98.7579C171.227 97.1059 172.123 96.2939 173.425 96.2939C174.713 96.2939 175.567 97.092 175.567 98.66V103ZM178.432 99.1359C178.432 101.516 180.014 103.126 182.058 103.126C183.472 103.126 184.466 102.398 184.928 101.572V103H186.216V95.3279H184.928V96.7279C184.48 95.9299 183.5 95.202 182.072 95.202C180.014 95.202 178.432 96.7419 178.432 99.1359ZM184.928 99.1499C184.928 100.956 183.724 102.006 182.324 102.006C180.924 102.006 179.734 100.942 179.734 99.1359C179.734 97.3299 180.924 96.3079 182.324 96.3079C183.724 96.3079 184.928 97.3719 184.928 99.1499ZM188.369 103H189.643V92.6399H188.369V103ZM191.338 99.1359C191.338 101.516 192.92 103.126 194.964 103.126C196.378 103.126 197.372 102.398 197.834 101.572V103H199.122V95.3279H197.834V96.7279C197.386 95.9299 196.406 95.202 194.978 95.202C192.92 95.202 191.338 96.7419 191.338 99.1359ZM197.834 99.1499C197.834 100.956 196.63 102.006 195.23 102.006C193.83 102.006 192.64 100.942 192.64 99.1359C192.64 97.3299 193.83 96.3079 195.23 96.3079C196.63 96.3079 197.834 97.3719 197.834 99.1499ZM205.965 95.3279H200.799V96.3639H204.495L200.771 101.95V103H205.993V101.95H202.227L205.965 96.3639V95.3279ZM207.688 103H208.962V97.7919L209.956 97.3999V96.4059L208.962 96.7839V92.6399H207.688V97.2879L206.694 97.6659V98.674L207.688 98.2819V103ZM210.684 99.1359C210.684 101.516 212.266 103.126 214.31 103.126C215.724 103.126 216.718 102.398 217.18 101.572V103H218.468V95.3279H217.18V96.7279C216.732 95.9299 215.752 95.202 214.324 95.202C212.266 95.202 210.684 96.7419 210.684 99.1359ZM217.18 99.1499C217.18 100.956 215.976 102.006 214.576 102.006C213.176 102.006 211.986 100.942 211.986 99.1359C211.986 97.3299 213.176 96.3079 214.576 96.3079C215.976 96.3079 217.18 97.3719 217.18 99.1499ZM224.353 103H225.627V98.7579C225.627 97.1059 226.523 96.2939 227.825 96.2939C229.113 96.2939 229.967 97.092 229.967 98.66V103H231.227V98.4779C231.227 96.2799 229.869 95.188 228.161 95.188C227.083 95.188 226.131 95.6219 225.627 96.4339V92.6399H224.353V103ZM240.588 99.1499C240.588 96.7279 238.894 95.202 236.71 95.202C234.54 95.202 232.832 96.7279 232.832 99.1499C232.832 101.586 234.484 103.126 236.654 103.126C238.838 103.126 240.588 101.586 240.588 99.1499ZM234.134 99.1499C234.134 97.2179 235.352 96.3079 236.696 96.3079C238.012 96.3079 239.286 97.2179 239.286 99.1499C239.286 101.096 237.984 102.006 236.654 102.006C235.324 102.006 234.134 101.096 234.134 99.1499ZM242.544 100.9C242.544 102.44 243.314 103 244.672 103H245.82V101.922H244.882C244.098 101.922 243.818 101.656 243.818 100.9V96.3779H245.82V95.3279H243.818V93.396H242.544V95.3279H241.55V96.3779H242.544V100.9ZM250.625 96.2799C251.941 96.2799 253.061 97.1059 253.047 98.6039H248.203C248.343 97.1059 249.379 96.2799 250.625 96.2799ZM254.209 100.634H252.837C252.557 101.46 251.829 102.048 250.681 102.048C249.379 102.048 248.287 101.194 248.189 99.6399H254.321C254.349 99.3739 254.363 99.1499 254.363 98.8699C254.363 96.7699 252.907 95.202 250.681 95.202C248.441 95.202 246.887 96.7279 246.887 99.1499C246.887 101.586 248.497 103.126 250.681 103.126C252.585 103.126 253.817 102.034 254.209 100.634ZM256.045 103H257.319V92.6399H256.045V103ZM258.384 105.002H259.238L260.806 101.236H259.406L258.384 105.002ZM265.998 103H267.272V99.6119L270.282 103H272.018L268.392 99.1499L272.004 95.3279H270.226L267.272 98.7299V92.6399H265.998V103ZM273.483 100.9C273.483 102.44 274.253 103 275.611 103H276.759V101.922H275.821C275.037 101.922 274.757 101.656 274.757 100.9V96.3779H276.759V95.3279H274.757V93.396H273.483V95.3279H272.489V96.3779H273.483V100.9ZM285.583 99.1499C285.583 96.7279 283.889 95.202 281.705 95.202C279.535 95.202 277.827 96.7279 277.827 99.1499C277.827 101.586 279.479 103.126 281.649 103.126C283.833 103.126 285.583 101.586 285.583 99.1499ZM279.129 99.1499C279.129 97.2179 280.347 96.3079 281.691 96.3079C283.007 96.3079 284.281 97.2179 284.281 99.1499C284.281 101.096 282.979 102.006 281.649 102.006C280.319 102.006 279.129 101.096 279.129 99.1499ZM280.095 93.7039V94.6559L283.077 93.0599V91.9539L280.095 93.7039ZM288.532 98.8279C288.532 97.0499 289.456 96.5039 290.674 96.5039H291.01V95.188C289.792 95.188 288.966 95.7199 288.532 96.5739V95.3279H287.258V103H288.532V98.8279ZM295.392 101.544L292.984 95.3279H291.57L294.664 102.916L293.152 106.612H294.468L299.088 95.3279H297.772L295.392 101.544ZM303.625 99.1359C303.625 101.516 305.207 103.126 307.251 103.126C308.665 103.126 309.659 102.398 310.121 101.572V103H311.409V95.3279H310.121V96.7279C309.673 95.9299 308.693 95.202 307.265 95.202C305.207 95.202 303.625 96.7419 303.625 99.1359ZM310.121 99.1499C310.121 100.956 308.917 102.006 307.517 102.006C306.117 102.006 304.927 100.942 304.927 99.1359C304.927 97.3299 306.117 96.3079 307.517 96.3079C308.917 96.3079 310.121 97.3719 310.121 99.1499ZM313.562 103H314.836V99.6119L317.846 103H319.582L315.956 99.1499L319.568 95.3279H317.79L314.836 98.7299V92.6399H313.562V103ZM320.291 99.1499C320.291 101.586 321.845 103.126 324.029 103.126C325.933 103.126 327.179 102.062 327.571 100.536H326.199C325.919 101.502 325.163 102.048 324.029 102.048C322.629 102.048 321.593 101.054 321.593 99.1499C321.593 97.2739 322.629 96.2799 324.029 96.2799C325.163 96.2799 325.933 96.8679 326.199 97.7919H327.571C327.179 96.1819 325.933 95.202 324.029 95.202C321.845 95.202 320.291 96.7419 320.291 99.1499ZM332.533 96.2799C333.849 96.2799 334.969 97.1059 334.955 98.6039H330.111C330.251 97.1059 331.287 96.2799 332.533 96.2799ZM336.117 100.634H334.745C334.465 101.46 333.737 102.048 332.589 102.048C331.287 102.048 330.195 101.194 330.097 99.6399H336.229C336.257 99.3739 336.271 99.1499 336.271 98.8699C336.271 96.7699 334.815 95.202 332.589 95.202C330.349 95.202 328.795 96.7279 328.795 99.1499C328.795 101.586 330.405 103.126 332.589 103.126C334.493 103.126 335.725 102.034 336.117 100.634ZM339.227 96.7419V95.3279H337.953V106.64H339.227V101.586C339.703 102.37 340.697 103.126 342.097 103.126C344.155 103.126 345.737 101.516 345.737 99.1359C345.737 96.7419 344.155 95.202 342.097 95.202C340.697 95.202 339.689 95.9299 339.227 96.7419ZM344.435 99.1359C344.435 100.942 343.245 102.006 341.831 102.006C340.445 102.006 339.227 100.956 339.227 99.1499C339.227 97.3719 340.445 96.3079 341.831 96.3079C343.245 96.3079 344.435 97.3299 344.435 99.1359ZM347.694 100.9C347.694 102.44 348.464 103 349.822 103H350.97V101.922H350.032C349.248 101.922 348.968 101.656 348.968 100.9V96.3779H350.97V95.3279H348.968V93.396H347.694V95.3279H346.7V96.3779H347.694V100.9ZM359.318 95.3279H358.044V99.5419C358.044 101.194 357.162 102.006 355.846 102.006C354.558 102.006 353.704 101.208 353.704 99.6539V95.3279H352.444V99.8219C352.444 102.02 353.83 103.112 355.594 103.112C356.616 103.112 357.554 102.664 358.044 101.866V103H359.318V95.3279ZM362.155 94.0819C362.631 94.0819 363.009 93.7039 363.009 93.2139C363.009 92.7239 362.631 92.3459 362.155 92.3459C361.679 92.3459 361.301 92.7239 361.301 93.2139C361.301 93.7039 361.679 94.0819 362.155 94.0819ZM361.511 95.3279V104.638C361.511 105.31 361.245 105.562 360.545 105.562H360.013V106.64H360.755C362.057 106.64 362.785 106.052 362.785 104.666V95.3279H361.511ZM368.203 96.2799C369.519 96.2799 370.639 97.1059 370.625 98.6039H365.781C365.921 97.1059 366.957 96.2799 368.203 96.2799ZM371.787 100.634H370.415C370.135 101.46 369.407 102.048 368.259 102.048C366.957 102.048 365.865 101.194 365.767 99.6399H371.899C371.927 99.3739 371.941 99.1499 371.941 98.8699C371.941 96.7699 370.485 95.202 368.259 95.202C366.019 95.202 364.465 96.7279 364.465 99.1499C364.465 101.586 366.075 103.126 368.259 103.126C370.163 103.126 371.395 102.034 371.787 100.634ZM2.35197 117.742V116.328H1.07797V127.64H2.35197V122.586C2.82797 123.37 3.82197 124.126 5.22197 124.126C7.27997 124.126 8.86197 122.516 8.86197 120.136C8.86197 117.742 7.27997 116.202 5.22197 116.202C3.82197 116.202 2.81397 116.93 2.35197 117.742ZM7.55997 120.136C7.55997 121.942 6.36997 123.006 4.95597 123.006C3.56997 123.006 2.35197 121.956 2.35197 120.15C2.35197 118.372 3.56997 117.308 4.95597 117.308C6.36997 117.308 7.55997 118.33 7.55997 120.136ZM17.8189 120.15C17.8189 117.728 16.1249 116.202 13.9409 116.202C11.7709 116.202 10.0629 117.728 10.0629 120.15C10.0629 122.586 11.7149 124.126 13.8849 124.126C16.0689 124.126 17.8189 122.586 17.8189 120.15ZM11.3649 120.15C11.3649 118.218 12.5829 117.308 13.9269 117.308C15.2429 117.308 16.5169 118.218 16.5169 120.15C16.5169 122.096 15.2149 123.006 13.8849 123.006C12.5549 123.006 11.3649 122.096 11.3649 120.15ZM20.768 117.756V113.64H19.494V124H20.768V122.586C21.244 123.426 22.238 124.126 23.638 124.126C25.696 124.126 27.278 122.516 27.278 120.136C27.278 117.742 25.71 116.202 23.638 116.202C22.28 116.202 21.258 116.902 20.768 117.756ZM25.976 120.136C25.976 121.942 24.786 123.006 23.372 123.006C21.986 123.006 20.768 121.956 20.768 120.15C20.768 118.372 21.986 117.308 23.372 117.308C24.786 117.308 25.976 118.33 25.976 120.136ZM31.867 122.544L29.459 116.328H28.045L31.139 123.916L29.627 127.612H30.943L35.563 116.328H34.247L31.867 122.544ZM37.1236 121.9C37.1236 123.44 37.8936 124 39.2516 124H40.3996V122.922H39.4616C38.6776 122.922 38.3976 122.656 38.3976 121.9V117.378H40.3996V116.328H38.3976V114.396H37.1236V116.328H36.1296V117.378H37.1236V121.9ZM50.3657 116.328H45.1997V117.364H48.8957L45.1717 122.95V124H50.3937V122.95H46.6277L50.3657 117.364V116.328ZM55.3088 117.28C56.6248 117.28 57.7448 118.106 57.7308 119.604H52.8868C53.0267 118.106 54.0628 117.28 55.3088 117.28ZM58.8928 121.634H57.5208C57.2408 122.46 56.5128 123.048 55.3648 123.048C54.0628 123.048 52.9708 122.194 52.8728 120.64H59.0048C59.0328 120.374 59.0468 120.15 59.0468 119.87C59.0468 117.77 57.5908 116.202 55.3648 116.202C53.1248 116.202 51.5708 117.728 51.5708 120.15C51.5708 122.586 53.1808 124.126 55.3648 124.126C57.2688 124.126 58.5008 123.034 58.8928 121.634ZM69.1508 116.328H63.9848V117.364H67.6808L63.9568 122.95V124H69.1788V122.95H65.4128L69.1508 117.364V116.328ZM72.3299 124H73.6459L75.4939 117.91L77.3419 124H78.6579L81.0519 116.328H79.7919L78.0559 122.782L76.1939 116.328H74.8919L72.9879 122.768L71.2239 116.328H69.9219L72.3299 124ZM82.3163 124H83.5903V116.328H82.3163V124ZM82.9743 115.082C83.4363 115.082 83.8143 114.704 83.8143 114.214C83.8143 113.724 83.4363 113.346 82.9743 113.346C82.4843 113.346 82.1063 113.724 82.1063 114.214C82.1063 114.704 82.4843 115.082 82.9743 115.082ZM89.0236 117.28C90.3396 117.28 91.4596 118.106 91.4456 119.604H86.6016C86.7416 118.106 87.7776 117.28 89.0236 117.28ZM92.6076 121.634H91.2356C90.9556 122.46 90.2276 123.048 89.0796 123.048C87.7776 123.048 86.6856 122.194 86.5876 120.64H92.7196C92.7476 120.374 92.7616 120.15 92.7616 119.87C92.7616 117.77 91.3056 116.202 89.0796 116.202C86.8396 116.202 85.2856 117.728 85.2856 120.15C85.2856 122.586 86.8956 124.126 89.0796 124.126C90.9836 124.126 92.2156 123.034 92.6076 121.634ZM95.7172 119.828C95.7172 118.05 96.6412 117.504 97.8592 117.504H98.1952V116.188C96.9772 116.188 96.1512 116.72 95.7172 117.574V116.328H94.4432V124H95.7172V119.828ZM104.356 116.328H99.1899V117.364H102.886L99.1619 122.95V124H104.384V122.95H100.618L104.356 117.364V116.328ZM109.299 117.28C110.615 117.28 111.735 118.106 111.721 119.604H106.877C107.017 118.106 108.053 117.28 109.299 117.28ZM110.965 126.492V125.652C110.643 125.764 110.321 125.834 110.055 125.834C109.551 125.834 109.229 125.596 109.229 125.162C109.229 124.812 109.439 124.49 110.069 124.182L110.461 123.986C111.735 123.65 112.575 122.74 112.883 121.634H111.511C111.231 122.46 110.503 123.048 109.355 123.048C108.053 123.048 106.961 122.194 106.863 120.64H112.995C113.023 120.374 113.037 120.15 113.037 119.87C113.037 117.77 111.581 116.202 109.355 116.202C107.115 116.202 105.561 117.728 105.561 120.15C105.561 122.362 106.891 123.846 108.781 124.084C108.347 124.462 108.179 124.868 108.179 125.288C108.179 126.31 109.047 126.688 109.887 126.688C110.265 126.688 110.643 126.604 110.965 126.492ZM114.243 120.15C114.243 122.586 115.797 124.126 117.981 124.126C119.885 124.126 121.131 123.062 121.523 121.536H120.151C119.871 122.502 119.115 123.048 117.981 123.048C116.581 123.048 115.545 122.054 115.545 120.15C115.545 118.274 116.581 117.28 117.981 117.28C119.115 117.28 119.885 117.868 120.151 118.792H121.523C121.131 117.182 119.885 116.202 117.981 116.202C115.797 116.202 114.243 117.742 114.243 120.15ZM123.223 124H124.497V116.328H123.223V124ZM123.881 115.082C124.343 115.082 124.721 114.704 124.721 114.214C124.721 113.724 124.343 113.346 123.881 113.346C123.391 113.346 123.013 113.724 123.013 114.214C123.013 114.704 123.391 115.082 123.881 115.082ZM129.93 117.28C131.246 117.28 132.366 118.106 132.352 119.604H127.508C127.648 118.106 128.684 117.28 129.93 117.28ZM133.514 121.634H132.142C131.862 122.46 131.134 123.048 129.986 123.048C128.684 123.048 127.592 122.194 127.494 120.64H133.626C133.654 120.374 133.668 120.15 133.668 119.87C133.668 117.77 132.212 116.202 129.986 116.202C127.746 116.202 126.192 117.728 126.192 120.15C126.192 122.586 127.802 124.126 129.986 124.126C131.89 124.126 133.122 123.034 133.514 121.634ZM146.423 124H147.683V119.478C147.683 117.28 146.325 116.188 144.575 116.188C143.399 116.188 142.307 116.79 141.859 117.896C141.355 116.748 140.305 116.188 139.045 116.188C138.037 116.188 137.127 116.622 136.623 117.434V116.328H135.349V124H136.623V119.772C136.623 118.12 137.505 117.294 138.793 117.294C140.053 117.294 140.893 118.092 140.893 119.66V124H142.153V119.772C142.153 118.12 143.035 117.294 144.323 117.294C145.583 117.294 146.423 118.092 146.423 119.66V124ZM153.506 124H154.78V116.328H153.506V124ZM154.164 115.082C154.626 115.082 155.004 114.704 155.004 114.214C155.004 113.724 154.626 113.346 154.164 113.346C153.674 113.346 153.296 113.724 153.296 114.214C153.296 114.704 153.674 115.082 154.164 115.082ZM171.757 124H173.017V119.478C173.017 117.28 171.659 116.188 169.909 116.188C168.733 116.188 167.641 116.79 167.193 117.896C166.689 116.748 165.639 116.188 164.379 116.188C163.371 116.188 162.461 116.622 161.957 117.434V116.328H160.683V124H161.957V119.772C161.957 118.12 162.839 117.294 164.127 117.294C165.387 117.294 166.227 118.092 166.227 119.66V124H167.487V119.772C167.487 118.12 168.369 117.294 169.657 117.294C170.917 117.294 171.757 118.092 171.757 119.66V124ZM174.631 120.136C174.631 122.516 176.213 124.126 178.257 124.126C179.671 124.126 180.665 123.398 181.127 122.572V124H182.415V116.328H181.127V117.728C180.679 116.93 179.699 116.202 178.271 116.202C176.213 116.202 174.631 117.742 174.631 120.136ZM181.127 120.15C181.127 121.956 179.923 123.006 178.523 123.006C177.123 123.006 175.933 121.942 175.933 120.136C175.933 118.33 177.123 117.308 178.523 117.308C179.923 117.308 181.127 118.372 181.127 120.15ZM189.575 117.756V113.64H188.301V124H189.575V122.586C190.051 123.426 191.045 124.126 192.445 124.126C194.503 124.126 196.085 122.516 196.085 120.136C196.085 117.742 194.517 116.202 192.445 116.202C191.087 116.202 190.065 116.902 189.575 117.756ZM194.783 120.136C194.783 121.942 193.593 123.006 192.179 123.006C190.793 123.006 189.575 121.956 189.575 120.15C189.575 118.372 190.793 117.308 192.179 117.308C193.593 117.308 194.783 118.33 194.783 120.136ZM197.286 120.136C197.286 122.516 198.868 124.126 200.912 124.126C202.326 124.126 203.32 123.398 203.782 122.572V124H205.07V116.328H203.782V117.728C203.334 116.93 202.354 116.202 200.926 116.202C198.868 116.202 197.286 117.742 197.286 120.136ZM203.782 120.15C203.782 121.956 202.578 123.006 201.178 123.006C199.778 123.006 198.588 121.942 198.588 120.136C198.588 118.33 199.778 117.308 201.178 117.308C202.578 117.308 203.782 118.372 203.782 120.15ZM208.497 119.828C208.497 118.05 209.421 117.504 210.639 117.504H210.975V116.188C209.757 116.188 208.931 116.72 208.497 117.574V116.328H207.223V124H208.497V119.828ZM211.969 120.136C211.969 122.516 213.551 124.126 215.609 124.126C217.009 124.126 218.003 123.412 218.465 122.558V124H219.753V113.64H218.465V117.7C217.933 116.818 216.827 116.202 215.623 116.202C213.551 116.202 211.969 117.742 211.969 120.136ZM218.465 120.15C218.465 121.956 217.261 123.006 215.861 123.006C214.461 123.006 213.271 121.942 213.271 120.136C213.271 118.33 214.461 117.308 215.861 117.308C217.261 117.308 218.465 118.372 218.465 120.15ZM226.596 116.328H221.43V117.364H225.126L221.402 122.95V124H226.624V122.95H222.858L226.596 117.364V116.328ZM235.557 120.15C235.557 117.728 233.863 116.202 231.679 116.202C229.509 116.202 227.801 117.728 227.801 120.15C227.801 122.586 229.453 124.126 231.623 124.126C233.807 124.126 235.557 122.586 235.557 120.15ZM229.103 120.15C229.103 118.218 230.321 117.308 231.665 117.308C232.981 117.308 234.255 118.218 234.255 120.15C234.255 122.096 232.953 123.006 231.623 123.006C230.293 123.006 229.103 122.096 229.103 120.15ZM240.489 120.136C240.489 122.516 242.071 124.126 244.129 124.126C245.529 124.126 246.523 123.412 246.985 122.558V124H248.273V113.64H246.985V117.7C246.453 116.818 245.347 116.202 244.143 116.202C242.071 116.202 240.489 117.742 240.489 120.136ZM246.985 120.15C246.985 121.956 245.781 123.006 244.381 123.006C242.981 123.006 241.791 121.942 241.791 120.136C241.791 118.33 242.981 117.308 244.381 117.308C245.781 117.308 246.985 118.372 246.985 120.15ZM257.706 120.15C257.706 117.728 256.012 116.202 253.828 116.202C251.658 116.202 249.95 117.728 249.95 120.15C249.95 122.586 251.602 124.126 253.772 124.126C255.956 124.126 257.706 122.586 257.706 120.15ZM251.252 120.15C251.252 118.218 252.47 117.308 253.814 117.308C255.13 117.308 256.404 118.218 256.404 120.15C256.404 122.096 255.102 123.006 253.772 123.006C252.442 123.006 251.252 122.096 251.252 120.15ZM260.655 117.756V113.64H259.381V124H260.655V122.586C261.131 123.426 262.125 124.126 263.525 124.126C265.583 124.126 267.165 122.516 267.165 120.136C267.165 117.742 265.597 116.202 263.525 116.202C262.167 116.202 261.145 116.902 260.655 117.756ZM265.863 120.136C265.863 121.942 264.673 123.006 263.259 123.006C261.873 123.006 260.655 121.956 260.655 120.15C260.655 118.372 261.873 117.308 263.259 117.308C264.673 117.308 265.863 118.33 265.863 120.136ZM270.116 119.828C270.116 118.05 271.04 117.504 272.258 117.504H272.594V116.188C271.376 116.188 270.55 116.72 270.116 117.574V116.328H268.842V124H270.116V119.828ZM277.326 117.28C278.642 117.28 279.762 118.106 279.748 119.604H274.904C275.044 118.106 276.08 117.28 277.326 117.28ZM280.91 121.634H279.538C279.258 122.46 278.53 123.048 277.382 123.048C276.08 123.048 274.988 122.194 274.89 120.64H281.022C281.05 120.374 281.064 120.15 281.064 119.87C281.064 117.77 279.608 116.202 277.382 116.202C275.142 116.202 273.588 117.728 273.588 120.15C273.588 122.586 275.198 124.126 277.382 124.126C279.286 124.126 280.518 123.034 280.91 121.634ZM293.758 120.15C293.758 117.728 292.064 116.202 289.88 116.202C287.71 116.202 286.002 117.728 286.002 120.15C286.002 122.586 287.654 124.126 289.824 124.126C292.008 124.126 293.758 122.586 293.758 120.15ZM287.304 120.15C287.304 118.218 288.522 117.308 289.866 117.308C291.182 117.308 292.456 118.218 292.456 120.15C292.456 122.096 291.154 123.006 289.824 123.006C288.494 123.006 287.304 122.096 287.304 120.15ZM296.707 117.742V116.328H295.433V127.64H296.707V122.586C297.183 123.37 298.177 124.126 299.577 124.126C301.635 124.126 303.217 122.516 303.217 120.136C303.217 117.742 301.635 116.202 299.577 116.202C298.177 116.202 297.169 116.93 296.707 117.742ZM301.915 120.136C301.915 121.942 300.725 123.006 299.311 123.006C297.925 123.006 296.707 121.956 296.707 120.15C296.707 118.372 297.925 117.308 299.311 117.308C300.725 117.308 301.915 118.33 301.915 120.136ZM304.894 124H306.168V116.328H304.894V124ZM305.552 115.082C306.014 115.082 306.392 114.704 306.392 114.214C306.392 113.724 306.014 113.346 305.552 113.346C305.062 113.346 304.684 113.724 304.684 114.214C304.684 114.704 305.062 115.082 305.552 115.082ZM313.954 124H315.214V119.478C315.214 117.28 313.856 116.188 312.078 116.188C311.042 116.188 310.118 116.622 309.614 117.42V116.328H308.34V124H309.614V119.758C309.614 118.106 310.51 117.294 311.812 117.294C313.1 117.294 313.954 118.092 313.954 119.66V124ZM317.295 124H318.569V116.328H317.295V124ZM317.953 115.082C318.415 115.082 318.793 114.704 318.793 114.214C318.793 113.724 318.415 113.346 317.953 113.346C317.463 113.346 317.085 113.724 317.085 114.214C317.085 114.704 317.463 115.082 317.953 115.082ZM324.002 117.28C325.318 117.28 326.438 118.106 326.424 119.604H321.58C321.72 118.106 322.756 117.28 324.002 117.28ZM327.586 121.634H326.214C325.934 122.46 325.206 123.048 324.058 123.048C322.756 123.048 321.664 122.194 321.566 120.64H327.698C327.726 120.374 327.74 120.15 327.74 119.87C327.74 117.77 326.284 116.202 324.058 116.202C321.818 116.202 320.264 117.728 320.264 120.15C320.264 122.586 321.874 124.126 324.058 124.126C325.962 124.126 327.194 123.034 327.586 121.634ZM340.434 120.15C340.434 117.728 338.74 116.202 336.556 116.202C334.386 116.202 332.678 117.728 332.678 120.15C332.678 122.586 334.33 124.126 336.5 124.126C338.684 124.126 340.434 122.586 340.434 120.15ZM333.98 120.15C333.98 118.218 335.198 117.308 336.542 117.308C337.858 117.308 339.132 118.218 339.132 120.15C339.132 122.096 337.83 123.006 336.5 123.006C335.17 123.006 333.98 122.096 333.98 120.15ZM341.633 120.136C341.633 122.516 343.215 124.126 345.273 124.126C346.673 124.126 347.667 123.412 348.129 122.558V124H349.417V113.64H348.129V117.7C347.597 116.818 346.491 116.202 345.287 116.202C343.215 116.202 341.633 117.742 341.633 120.136ZM348.129 120.15C348.129 121.956 346.925 123.006 345.525 123.006C344.125 123.006 342.935 121.942 342.935 120.136C342.935 118.33 344.125 117.308 345.525 117.308C346.925 117.308 348.129 118.372 348.129 120.15ZM355.303 124H356.577V116.328H355.303V124ZM355.961 115.082C356.423 115.082 356.801 114.704 356.801 114.214C356.801 113.724 356.423 113.346 355.961 113.346C355.471 113.346 355.093 113.724 355.093 114.214C355.093 114.704 355.471 115.082 355.961 115.082ZM364.362 124H365.622V119.478C365.622 117.28 364.264 116.188 362.486 116.188C361.45 116.188 360.526 116.622 360.022 117.42V116.328H358.748V124H360.022V119.758C360.022 118.106 360.918 117.294 362.22 117.294C363.508 117.294 364.362 118.092 364.362 119.66V124ZM373.317 124H374.577V119.478C374.577 117.28 373.219 116.188 371.441 116.188C370.405 116.188 369.481 116.622 368.977 117.42V116.328H367.703V124H368.977V119.758C368.977 118.106 369.873 117.294 371.175 117.294C372.463 117.294 373.317 118.092 373.317 119.66V124ZM379.57 122.544L377.162 116.328H375.748L378.842 123.916L377.33 127.612H378.646L383.266 116.328H381.95L379.57 122.544ZM384.071 120.15C384.071 122.586 385.625 124.126 387.809 124.126C389.713 124.126 390.959 123.062 391.351 121.536H389.979C389.699 122.502 388.943 123.048 387.809 123.048C386.409 123.048 385.373 122.054 385.373 120.15C385.373 118.274 386.409 117.28 387.809 117.28C388.943 117.28 389.713 117.868 389.979 118.792H391.351C390.959 117.182 389.713 116.202 387.809 116.202C385.625 116.202 384.071 117.742 384.071 120.15ZM393.051 124H394.325V119.758C394.325 118.106 395.221 117.294 396.523 117.294C397.811 117.294 398.665 118.092 398.665 119.66V124H399.925V119.478C399.925 117.28 398.567 116.188 396.859 116.188C395.781 116.188 394.829 116.622 394.325 117.434V113.64H393.051V124ZM2.57597 145H3.89197L5.73997 138.91L7.58797 145H8.90397L11.298 137.328H10.038L8.30197 143.782L6.43997 137.328H5.13797L3.23397 143.768L1.46997 137.328H0.167969L2.57597 145ZM12.6044 145H13.8784V139.792L14.8724 139.4V138.406L13.8784 138.784V134.64H12.6044V139.288L11.6104 139.666V140.674L12.6044 140.282V145ZM15.6 141.136C15.6 143.516 17.182 145.126 19.226 145.126C20.64 145.126 21.634 144.398 22.096 143.572V145H23.384V137.328H22.096V138.728C21.648 137.93 20.668 137.202 19.24 137.202C17.182 137.202 15.6 138.742 15.6 141.136ZM22.096 141.15C22.096 142.956 20.892 144.006 19.492 144.006C18.092 144.006 16.902 142.942 16.902 141.136C16.902 139.33 18.092 138.308 19.492 138.308C20.892 138.308 22.096 139.372 22.096 141.15ZM31.053 142.914C30.997 140.17 26.545 141.164 26.545 139.344C26.545 138.728 27.105 138.28 28.043 138.28C29.065 138.28 29.653 138.84 29.709 139.61H30.983C30.899 138.112 29.779 137.202 28.085 137.202C26.377 137.202 25.271 138.168 25.271 139.344C25.271 142.2 29.807 141.206 29.807 142.914C29.807 143.544 29.247 144.048 28.239 144.048C27.161 144.048 26.503 143.488 26.433 142.746H25.117C25.201 144.146 26.461 145.126 28.253 145.126C29.947 145.126 31.053 144.174 31.053 142.914ZM26.489 135.704V136.656L29.471 135.06V133.954L26.489 135.704ZM32.3754 141.15C32.3754 143.586 33.9294 145.126 36.1134 145.126C38.0174 145.126 39.2634 144.062 39.6554 142.536H38.2834C38.0034 143.502 37.2474 144.048 36.1134 144.048C34.7134 144.048 33.6774 143.054 33.6774 141.15C33.6774 139.274 34.7134 138.28 36.1134 138.28C37.2474 138.28 38.0174 138.868 38.2834 139.792H39.6554C39.2634 138.182 38.0174 137.202 36.1134 137.202C33.9294 137.202 32.3754 138.742 32.3754 141.15ZM41.3553 145H42.6293V137.328H41.3553V145ZM42.0133 136.082C42.4753 136.082 42.8533 135.704 42.8533 135.214C42.8533 134.724 42.4753 134.346 42.0133 134.346C41.5233 134.346 41.1453 134.724 41.1453 135.214C41.1453 135.704 41.5233 136.082 42.0133 136.082ZM44.3247 141.15C44.3247 143.586 45.8787 145.126 48.0627 145.126C49.9667 145.126 51.2127 144.062 51.6047 142.536H50.2327C49.9527 143.502 49.1967 144.048 48.0627 144.048C46.6627 144.048 45.6267 143.054 45.6267 141.15C45.6267 139.274 46.6627 138.28 48.0627 138.28C49.1967 138.28 49.9667 138.868 50.2327 139.792H51.6047C51.2127 138.182 49.9667 137.202 48.0627 137.202C45.8787 137.202 44.3247 138.742 44.3247 141.15ZM53.3046 145H54.5786V137.328H53.3046V145ZM53.9626 136.082C54.4246 136.082 54.8026 135.704 54.8026 135.214C54.8026 134.724 54.4246 134.346 53.9626 134.346C53.4726 134.346 53.0946 134.724 53.0946 135.214C53.0946 135.704 53.4726 136.082 53.9626 136.082ZM60.0119 138.28C61.3279 138.28 62.4479 139.106 62.4339 140.604H57.5899C57.7299 139.106 58.7659 138.28 60.0119 138.28ZM63.5959 142.634H62.2239C61.9439 143.46 61.2159 144.048 60.0679 144.048C58.7659 144.048 57.6739 143.194 57.5759 141.64H63.7079C63.7359 141.374 63.7499 141.15 63.7499 140.87C63.7499 138.77 62.2939 137.202 60.0679 137.202C57.8279 137.202 56.2739 138.728 56.2739 141.15C56.2739 143.586 57.8839 145.126 60.0679 145.126C61.9719 145.126 63.2039 144.034 63.5959 142.634ZM65.4315 145H66.7055V134.64H65.4315V145ZM68.8768 145H70.1508V137.328H68.8768V145ZM69.5348 136.082C69.9968 136.082 70.3748 135.704 70.3748 135.214C70.3748 134.724 69.9968 134.346 69.5348 134.346C69.0448 134.346 68.6668 134.724 68.6668 135.214C68.6668 135.704 69.0448 136.082 69.5348 136.082ZM77.3286 138.742V137.328H76.0546V148.64H77.3286V143.586C77.8046 144.37 78.7986 145.126 80.1986 145.126C82.2566 145.126 83.8386 143.516 83.8386 141.136C83.8386 138.742 82.2566 137.202 80.1986 137.202C78.7986 137.202 77.7906 137.93 77.3286 138.742ZM82.5366 141.136C82.5366 142.942 81.3466 144.006 79.9326 144.006C78.5466 144.006 77.3286 142.956 77.3286 141.15C77.3286 139.372 78.5466 138.308 79.9326 138.308C81.3466 138.308 82.5366 139.33 82.5366 141.136ZM91.0315 142.914C90.9755 140.17 86.5235 141.164 86.5235 139.344C86.5235 138.728 87.0835 138.28 88.0215 138.28C89.0435 138.28 89.6315 138.84 89.6875 139.61H90.9615C90.8775 138.112 89.7575 137.202 88.0635 137.202C86.3555 137.202 85.2495 138.168 85.2495 139.344C85.2495 142.2 89.7855 141.206 89.7855 142.914C89.7855 143.544 89.2255 144.048 88.2175 144.048C87.1395 144.048 86.4815 143.488 86.4115 142.746H85.0955C85.1795 144.146 86.4395 145.126 88.2315 145.126C89.9255 145.126 91.0315 144.174 91.0315 142.914ZM100.11 141.15C100.11 138.728 98.416 137.202 96.232 137.202C94.062 137.202 92.354 138.728 92.354 141.15C92.354 143.586 94.006 145.126 96.176 145.126C98.36 145.126 100.11 143.586 100.11 141.15ZM93.656 141.15C93.656 139.218 94.874 138.308 96.218 138.308C97.534 138.308 98.808 139.218 98.808 141.15C98.808 143.096 97.506 144.006 96.176 144.006C94.846 144.006 93.656 143.096 93.656 141.15ZM94.622 135.704V136.656L97.604 135.06V133.954L94.622 135.704ZM103.283 145H104.599L106.447 138.91L108.295 145H109.611L112.005 137.328H110.745L109.009 143.782L107.147 137.328H105.845L103.941 143.768L102.177 137.328H100.875L103.283 145ZM114.515 144.216C114.515 143.726 114.137 143.348 113.675 143.348C113.185 143.348 112.807 143.726 112.807 144.216C112.807 144.706 113.185 145.084 113.675 145.084C114.137 145.084 114.515 144.706 114.515 144.216Z" fill="black"/>
</svg>
