<svg width="334" height="375" viewBox="0 0 334 375" fill="none" xmlns="http://www.w3.org/2000/svg">
<g filter="url(#filter0_b_803_1397)">
<path d="M173.732 206.24C130.705 159.575 193.018 135.059 178.37 70.2438C165.283 12.267 244.907 -28.549 280.403 24.8688C315.853 78.2435 324.807 103.619 373.665 124.436C422.523 145.209 420.595 232.433 336.103 228.949C315.118 228.089 296.75 221.852 280.678 222.325C231.269 223.788 204.682 239.873 173.778 206.283L173.732 206.24ZM246.514 371.912C270.071 382.364 301.939 365.418 317.735 334.15C333.532 302.882 327.241 269.034 303.73 258.625C280.173 248.174 248.305 265.12 232.509 296.388C216.713 327.656 223.004 361.504 246.514 371.912ZM96.6333 360.343C116.333 376.299 153.482 366.235 179.564 337.935C205.646 309.635 210.789 273.765 191.09 257.851C171.39 241.938 134.241 251.959 108.159 280.259C82.0768 308.559 76.9338 344.429 96.6333 360.343ZM5.39141 261.765C19.9479 281.979 59.4845 280.861 93.6944 259.27C127.904 237.68 143.838 203.745 129.282 183.531C114.726 163.316 75.1889 164.435 40.9789 186.025C6.76897 207.616 -9.16505 241.551 5.39141 261.765ZM13.0599 116.092C19.1672 140.478 53.3312 153.854 89.4239 145.941C125.471 138.027 149.762 111.834 143.655 87.4476C137.547 63.0612 103.383 49.6853 67.2907 57.599C31.244 65.5128 6.95264 91.7055 13.0599 116.092Z" fill="#00A5C5"/>
</g>
<defs>
<filter id="filter0_b_803_1397" x="-4" y="-4.00002" width="414" height="383" filterUnits="userSpaceOnUse" color-interpolation-filters="sRGB">
<feFlood flood-opacity="0" result="BackgroundImageFix"/>
<feGaussianBlur in="BackgroundImage" stdDeviation="2"/>
<feComposite in2="SourceAlpha" operator="in" result="effect1_backgroundBlur_803_1397"/>
<feBlend mode="normal" in="SourceGraphic" in2="effect1_backgroundBlur_803_1397" result="shape"/>
</filter>
</defs>
</svg>
