<svg width="408" height="129" viewBox="0 0 408 129" fill="none" xmlns="http://www.w3.org/2000/svg">
<path d="M5.85213 12.332V6.64799H8.96013C11.1721 6.64799 12.1521 7.71199 12.1521 9.50399C12.1521 11.24 11.1721 12.332 8.96013 12.332H5.85213ZM16.1841 9.50399C16.1841 6.11599 13.8321 3.456 9.12813 3.456H1.93213V23H5.85213V15.496H9.12813C14.1681 15.496 16.1841 12.472 16.1841 9.50399ZM17.9593 15.188C17.9593 20.032 21.0953 23.252 25.0153 23.252C27.4793 23.252 29.2433 22.076 30.1673 20.732V23H34.1153V7.48799H30.1673V9.7C29.2433 8.412 27.5353 7.23599 25.0433 7.23599C21.0953 7.23599 17.9593 10.344 17.9593 15.188ZM30.1673 15.244C30.1673 18.184 28.2073 19.808 26.0513 19.808C23.9513 19.808 21.9633 18.128 21.9633 15.188C21.9633 12.248 23.9513 10.68 26.0513 10.68C28.2073 10.68 30.1673 12.304 30.1673 15.244ZM40.7718 23H45.0278L47.8558 12.164L50.6838 23H54.9118L59.4478 7.48799H55.6958L52.9518 19.276L50.0398 7.48799H45.8958L42.9278 19.304L40.1838 7.48799H36.2078L40.7718 23ZM68.2328 10.456C70.2488 10.456 71.8728 11.744 71.9288 13.788H64.5648C64.8728 11.66 66.3568 10.456 68.2328 10.456ZM75.5968 18.128H71.3688C70.8648 19.164 69.9408 20.004 68.2608 20.004C66.3008 20.004 64.7328 18.716 64.5368 16.42H75.8768C75.9608 15.916 75.9888 15.412 75.9888 14.908C75.9888 10.288 72.8248 7.23599 68.3448 7.23599C63.7528 7.23599 60.5608 10.344 60.5608 15.244C60.5608 20.116 63.8368 23.252 68.3448 23.252C72.1808 23.252 74.7568 20.984 75.5968 18.128ZM79.0181 23H82.9381V13.732L84.8141 13.116V9.924L82.9381 10.512V2.27999H79.0181V11.772L77.1701 12.36V15.58L79.0181 14.992V23ZM93.643 23H97.563V7.48799H93.643V23ZM95.631 5.63999C97.003 5.63999 98.039 4.632 98.039 3.344C98.039 2.056 97.003 1.04799 95.631 1.04799C94.231 1.04799 93.223 2.056 93.223 3.344C93.223 4.632 94.231 5.63999 95.631 5.63999ZM110.096 5.63999C111.468 5.63999 112.476 4.632 112.476 3.344C112.476 2.056 111.468 1.04799 110.096 1.04799C108.668 1.04799 107.66 2.056 107.66 3.344C107.66 4.632 108.668 5.63999 110.096 5.63999ZM108.108 7.48799V25.576C108.108 26.612 107.688 27.06 106.484 27.06H105.364V30.392H107.1C110.096 30.392 112.028 29.132 112.028 25.548V7.48799H108.108ZM122.565 10.456C124.581 10.456 126.205 11.744 126.261 13.788H118.897C119.205 11.66 120.689 10.456 122.565 10.456ZM129.929 18.128H125.701C125.197 19.164 124.273 20.004 122.593 20.004C120.633 20.004 119.065 18.716 118.869 16.42H130.209C130.293 15.916 130.321 15.412 130.321 14.908C130.321 10.288 127.157 7.23599 122.677 7.23599C118.085 7.23599 114.893 10.344 114.893 15.244C114.893 20.116 118.169 23.252 122.677 23.252C126.513 23.252 129.089 20.984 129.929 18.128ZM132.174 15.188C132.174 20.032 135.31 23.252 139.258 23.252C141.694 23.252 143.458 22.048 144.382 20.704V23.112C144.382 25.996 142.702 27.228 140.546 27.228C138.586 27.228 137.13 26.304 136.738 24.904H132.846C133.238 28.46 136.29 30.644 140.658 30.644C145.754 30.644 148.33 27.312 148.33 23.112V7.48799H144.382V9.7C143.458 8.356 141.694 7.23599 139.258 7.23599C135.31 7.23599 132.174 10.344 132.174 15.188ZM144.382 15.244C144.382 18.184 142.422 19.808 140.266 19.808C138.166 19.808 136.178 18.128 136.178 15.188C136.178 12.248 138.166 10.68 140.266 10.68C142.422 10.68 144.382 12.304 144.382 15.244ZM167.139 15.244C167.139 10.344 163.639 7.23599 159.159 7.23599C154.679 7.23599 151.179 10.344 151.179 15.244C151.179 20.116 154.567 23.252 159.047 23.252C163.555 23.252 167.139 20.116 167.139 15.244ZM155.155 15.244C155.155 12.136 157.031 10.652 159.103 10.652C161.175 10.652 163.107 12.136 163.107 15.244C163.107 18.324 161.119 19.836 159.047 19.836C156.947 19.836 155.155 18.324 155.155 15.244ZM180.606 9.72799V7.48799H176.686V30.392H180.606V20.788C181.558 22.048 183.294 23.252 185.73 23.252C189.706 23.252 192.814 20.032 192.814 15.188C192.814 10.344 189.706 7.23599 185.73 7.23599C183.322 7.23599 181.53 8.41199 180.606 9.72799ZM188.81 15.188C188.81 18.128 186.822 19.808 184.694 19.808C182.594 19.808 180.606 18.184 180.606 15.244C180.606 12.304 182.594 10.68 184.694 10.68C186.822 10.68 188.81 12.248 188.81 15.188ZM195.662 23H199.582V7.48799H195.662V23ZM197.65 5.63999C199.022 5.63999 200.058 4.632 200.058 3.344C200.058 2.056 199.022 1.04799 197.65 1.04799C196.25 1.04799 195.242 2.056 195.242 3.344C195.242 4.632 196.25 5.63999 197.65 5.63999ZM210.119 10.456C212.135 10.456 213.759 11.744 213.815 13.788H206.451C206.759 11.66 208.243 10.456 210.119 10.456ZM217.483 18.128H213.255C212.751 19.164 211.827 20.004 210.147 20.004C208.187 20.004 206.619 18.716 206.423 16.42H217.763C217.847 15.916 217.875 15.412 217.875 14.908C217.875 10.288 214.711 7.23599 210.231 7.23599C205.639 7.23599 202.447 10.344 202.447 15.244C202.447 20.116 205.723 23.252 210.231 23.252C214.067 23.252 216.643 20.984 217.483 18.128ZM232.777 18.576C232.665 12.892 224.069 14.656 224.069 11.828C224.069 10.932 224.825 10.344 226.281 10.344C227.821 10.344 228.773 11.156 228.885 12.36H232.637C232.413 9.27999 230.145 7.23599 226.393 7.23599C222.557 7.23599 220.261 9.308 220.261 11.884C220.261 17.568 229.025 15.804 229.025 18.576C229.025 19.472 228.185 20.172 226.645 20.172C225.077 20.172 223.985 19.276 223.845 18.1H219.897C220.065 20.984 222.781 23.252 226.673 23.252C230.453 23.252 232.777 21.236 232.777 18.576ZM242.666 3.456V23H253.026V19.892H246.586V3.456H242.666ZM262.182 10.456C264.198 10.456 265.822 11.744 265.878 13.788H258.514C258.822 11.66 260.306 10.456 262.182 10.456ZM269.546 18.128H265.318C264.814 19.164 263.89 20.004 262.21 20.004C260.25 20.004 258.682 18.716 258.486 16.42H269.826C269.91 15.916 269.938 15.412 269.938 14.908C269.938 10.288 266.774 7.23599 262.294 7.23599C257.702 7.23599 254.51 10.344 254.51 15.244C254.51 20.116 257.786 23.252 262.294 23.252C266.13 23.252 268.706 20.984 269.546 18.128ZM287.779 15.244C287.779 10.344 284.279 7.23599 279.799 7.23599C275.319 7.23599 271.819 10.344 271.819 15.244C271.819 20.116 275.207 23.252 279.687 23.252C284.195 23.252 287.779 20.116 287.779 15.244ZM275.795 15.244C275.795 12.136 277.671 10.652 279.743 10.652C281.815 10.652 283.747 12.136 283.747 15.244C283.747 18.324 281.759 19.836 279.687 19.836C277.587 19.836 275.795 18.324 275.795 15.244ZM302.695 18.576C302.583 12.892 293.987 14.656 293.987 11.828C293.987 10.932 294.743 10.344 296.199 10.344C297.739 10.344 298.691 11.156 298.803 12.36H302.555C302.331 9.27999 300.063 7.23599 296.311 7.23599C292.475 7.23599 290.179 9.308 290.179 11.884C290.179 17.568 298.943 15.804 298.943 18.576C298.943 19.472 298.103 20.172 296.563 20.172C294.995 20.172 293.903 19.276 293.763 18.1H289.815C289.983 20.984 292.699 23.252 296.591 23.252C300.371 23.252 302.695 21.236 302.695 18.576ZM293.035 3.4V6.19999L299.475 3.25999V0.0679932L293.035 3.4Z" fill="black"/>
<path d="M2.35178 56.876V53.292H4.22778C5.68378 53.292 6.29978 53.964 6.29978 55.098C6.29978 56.19 5.68378 56.876 4.22778 56.876H2.35178ZM7.60178 55.098C7.60178 53.502 6.52378 52.242 4.22778 52.242H1.07778V62H2.35178V57.926H4.22778C6.64978 57.926 7.60178 56.582 7.60178 55.098ZM8.7092 58.136C8.7092 60.516 10.2912 62.126 12.3352 62.126C13.7492 62.126 14.7432 61.398 15.2052 60.572V62H16.4932V54.328H15.2052V55.728C14.7572 54.93 13.7772 54.202 12.3492 54.202C10.2912 54.202 8.7092 55.742 8.7092 58.136ZM15.2052 58.15C15.2052 59.956 14.0012 61.006 12.6012 61.006C11.2012 61.006 10.0112 59.942 10.0112 58.136C10.0112 56.33 11.2012 55.308 12.6012 55.308C14.0012 55.308 15.2052 56.372 15.2052 58.15ZM24.2602 62H25.5202V57.478C25.5202 55.28 24.1622 54.188 22.3842 54.188C21.3482 54.188 20.4242 54.622 19.9202 55.42V54.328H18.6462V62H19.9202V57.758C19.9202 56.106 20.8162 55.294 22.1182 55.294C23.4062 55.294 24.2602 56.092 24.2602 57.66V62ZM32.6077 56.876V53.292H34.4837C35.9397 53.292 36.5557 53.964 36.5557 55.098C36.5557 56.19 35.9397 56.876 34.4837 56.876H32.6077ZM37.8577 55.098C37.8577 53.502 36.7797 52.242 34.4837 52.242H31.3337V62H32.6077V57.926H34.4837C36.9057 57.926 37.8577 56.582 37.8577 55.098ZM38.9651 58.136C38.9651 60.516 40.5471 62.126 42.5911 62.126C44.0051 62.126 44.9991 61.398 45.4611 60.572V62H46.7491V54.328H45.4611V55.728C45.0131 54.93 44.0331 54.202 42.6051 54.202C40.5471 54.202 38.9651 55.742 38.9651 58.136ZM45.4611 58.15C45.4611 59.956 44.2571 61.006 42.8571 61.006C41.4571 61.006 40.2671 59.942 40.2671 58.136C40.2671 56.33 41.4571 55.308 42.8571 55.308C44.2571 55.308 45.4611 56.372 45.4611 58.15ZM50.4 62H51.716L53.564 55.91L55.412 62H56.728L59.122 54.328H57.862L56.126 60.782L54.264 54.328H52.962L51.058 60.768L49.294 54.328H47.992L50.4 62ZM63.6484 55.28C64.9644 55.28 66.0844 56.106 66.0704 57.604H61.2264C61.3664 56.106 62.4024 55.28 63.6484 55.28ZM67.2324 59.634H65.8604C65.5804 60.46 64.8524 61.048 63.7044 61.048C62.4024 61.048 61.3104 60.194 61.2124 58.64H67.3444C67.3724 58.374 67.3864 58.15 67.3864 57.87C67.3864 55.77 65.9304 54.202 63.7044 54.202C61.4644 54.202 59.9104 55.728 59.9104 58.15C59.9104 60.586 61.5204 62.126 63.7044 62.126C65.6084 62.126 66.8404 61.034 67.2324 59.634ZM69.11 62H70.384V56.792L71.378 56.4V55.406L70.384 55.784V51.64H69.11V56.288L68.116 56.666V57.674L69.11 57.282V62ZM83.1181 54.328H81.8441V58.542C81.8441 60.194 80.9621 61.006 79.6461 61.006C78.3581 61.006 77.5041 60.208 77.5041 58.654V54.328H76.2441V58.822C76.2441 61.02 77.6301 62.112 79.3941 62.112C80.4161 62.112 81.3541 61.664 81.8441 60.866V62H83.1181V54.328ZM86.7672 62H88.0832L89.9312 55.91L91.7792 62H93.0952L95.4892 54.328H94.2292L92.4932 60.782L90.6312 54.328H89.3292L87.4252 60.768L85.6612 54.328H84.3592L86.7672 62ZM96.7536 62H98.0276V54.328H96.7536V62ZM97.4116 53.082C97.8736 53.082 98.2516 52.704 98.2516 52.214C98.2516 51.724 97.8736 51.346 97.4116 51.346C96.9216 51.346 96.5436 51.724 96.5436 52.214C96.5436 52.704 96.9216 53.082 97.4116 53.082ZM103.461 55.28C104.777 55.28 105.897 56.106 105.883 57.604H101.039C101.179 56.106 102.215 55.28 103.461 55.28ZM107.045 59.634H105.673C105.393 60.46 104.665 61.048 103.517 61.048C102.215 61.048 101.123 60.194 101.025 58.64H107.157C107.185 58.374 107.199 58.15 107.199 57.87C107.199 55.77 105.743 54.202 103.517 54.202C101.277 54.202 99.7229 55.728 99.7229 58.15C99.7229 60.586 101.333 62.126 103.517 62.126C105.421 62.126 106.653 61.034 107.045 59.634ZM108.881 62H110.155V51.64H108.881V62ZM113.6 55.756V51.64H112.326V62H113.6V60.586C114.076 61.426 115.07 62.126 116.47 62.126C118.528 62.126 120.11 60.516 120.11 58.136C120.11 55.742 118.542 54.202 116.47 54.202C115.112 54.202 114.09 54.902 113.6 55.756ZM118.808 58.136C118.808 59.942 117.618 61.006 116.204 61.006C114.818 61.006 113.6 59.956 113.6 58.15C113.6 56.372 114.818 55.308 116.204 55.308C117.618 55.308 118.808 56.33 118.808 58.136ZM121.787 62H123.061V54.328H121.787V62ZM122.445 53.082C122.907 53.082 123.285 52.704 123.285 52.214C123.285 51.724 122.907 51.346 122.445 51.346C121.955 51.346 121.577 51.724 121.577 52.214C121.577 52.704 121.955 53.082 122.445 53.082ZM124.756 58.136C124.756 60.516 126.338 62.126 128.382 62.126C129.796 62.126 130.79 61.398 131.252 60.572V62H132.54V54.328H131.252V55.728C130.804 54.93 129.824 54.202 128.396 54.202C126.338 54.202 124.756 55.742 124.756 58.136ZM131.252 58.15C131.252 59.956 130.048 61.006 128.648 61.006C127.248 61.006 126.058 59.942 126.058 58.136C126.058 56.33 127.248 55.308 128.648 55.308C130.048 55.308 131.252 56.372 131.252 58.15ZM137.95 58.136C137.95 60.516 139.532 62.126 141.576 62.126C142.99 62.126 143.984 61.398 144.446 60.572V62H145.734V54.328H144.446V55.728C143.998 54.93 143.018 54.202 141.59 54.202C139.532 54.202 137.95 55.742 137.95 58.136ZM144.446 58.15C144.446 59.956 143.242 61.006 141.842 61.006C140.442 61.006 139.252 59.942 139.252 58.136C139.252 56.33 140.442 55.308 141.842 55.308C143.242 55.308 144.446 56.372 144.446 58.15ZM147.887 62H149.161V58.612L152.171 62H153.907L150.281 58.15L153.893 54.328H152.115L149.161 57.73V51.64H147.887V62ZM155.372 59.9C155.372 61.44 156.142 62 157.5 62H158.648V60.922H157.71C156.926 60.922 156.646 60.656 156.646 59.9V55.378H158.648V54.328H156.646V52.396H155.372V54.328H154.378V55.378H155.372V59.9ZM163.103 60.544L160.695 54.328H159.281L162.375 61.916L160.863 65.612H162.179L166.799 54.328H165.483L163.103 60.544ZM169.578 62H170.894L172.742 55.91L174.59 62H175.906L178.3 54.328H177.04L175.304 60.782L173.442 54.328H172.14L170.236 60.768L168.472 54.328H167.17L169.578 62ZM185.178 62H186.438V57.478C186.438 55.28 185.08 54.188 183.302 54.188C182.266 54.188 181.342 54.622 180.838 55.42V54.328H179.564V62H180.838V57.758C180.838 56.106 181.734 55.294 183.036 55.294C184.324 55.294 185.178 56.092 185.178 57.66V62ZM188.519 62H189.793V54.328H188.519V62ZM189.177 53.082C189.639 53.082 190.017 52.704 190.017 52.214C190.017 51.724 189.639 51.346 189.177 51.346C188.687 51.346 188.309 51.724 188.309 52.214C188.309 52.704 188.687 53.082 189.177 53.082ZM195.227 55.28C196.543 55.28 197.663 56.106 197.649 57.604H192.805C192.945 56.106 193.981 55.28 195.227 55.28ZM198.811 59.634H197.439C197.159 60.46 196.431 61.048 195.283 61.048C193.981 61.048 192.889 60.194 192.791 58.64H198.923C198.951 58.374 198.965 58.15 198.965 57.87C198.965 55.77 197.509 54.202 195.283 54.202C193.043 54.202 191.489 55.728 191.489 58.15C191.489 60.586 193.099 62.126 195.283 62.126C197.187 62.126 198.419 61.034 198.811 59.634ZM209.895 59.914C209.839 57.17 205.387 58.164 205.387 56.344C205.387 55.728 205.947 55.28 206.885 55.28C207.907 55.28 208.495 55.84 208.551 56.61H209.825C209.741 55.112 208.621 54.202 206.927 54.202C205.219 54.202 204.113 55.168 204.113 56.344C204.113 59.2 208.649 58.206 208.649 59.914C208.649 60.544 208.089 61.048 207.081 61.048C206.003 61.048 205.345 60.488 205.275 59.746H203.959C204.043 61.146 205.303 62.126 207.095 62.126C208.789 62.126 209.895 61.174 209.895 59.914ZM212.967 55.742V54.328H211.693V65.64H212.967V60.586C213.443 61.37 214.437 62.126 215.837 62.126C217.895 62.126 219.477 60.516 219.477 58.136C219.477 55.742 217.895 54.202 215.837 54.202C214.437 54.202 213.429 54.93 212.967 55.742ZM218.175 58.136C218.175 59.942 216.985 61.006 215.571 61.006C214.185 61.006 212.967 59.956 212.967 58.15C212.967 56.372 214.185 55.308 215.571 55.308C216.985 55.308 218.175 56.33 218.175 58.136ZM224.416 55.28C225.732 55.28 226.852 56.106 226.838 57.604H221.994C222.134 56.106 223.17 55.28 224.416 55.28ZM226.082 64.492V63.652C225.76 63.764 225.438 63.834 225.172 63.834C224.668 63.834 224.346 63.596 224.346 63.162C224.346 62.812 224.556 62.49 225.186 62.182L225.578 61.986C226.852 61.65 227.692 60.74 228 59.634H226.628C226.348 60.46 225.62 61.048 224.472 61.048C223.17 61.048 222.078 60.194 221.98 58.64H228.112C228.14 58.374 228.154 58.15 228.154 57.87C228.154 55.77 226.698 54.202 224.472 54.202C222.232 54.202 220.678 55.728 220.678 58.15C220.678 60.362 222.008 61.846 223.898 62.084C223.464 62.462 223.296 62.868 223.296 63.288C223.296 64.31 224.164 64.688 225.004 64.688C225.382 64.688 225.76 64.604 226.082 64.492ZM229.36 58.136C229.36 60.516 230.942 62.126 233 62.126C234.4 62.126 235.394 61.412 235.856 60.558V62H237.144V51.64H235.856V55.7C235.324 54.818 234.218 54.202 233.014 54.202C230.942 54.202 229.36 55.742 229.36 58.136ZM235.856 58.15C235.856 59.956 234.652 61.006 233.252 61.006C231.852 61.006 230.662 59.942 230.662 58.136C230.662 56.33 231.852 55.308 233.252 55.308C234.652 55.308 235.856 56.372 235.856 58.15ZM243.987 54.328H238.821V55.364H242.517L238.793 60.95V62H244.015V60.95H240.249L243.987 55.364V54.328ZM245.192 58.136C245.192 60.516 246.774 62.126 248.818 62.126C250.232 62.126 251.226 61.398 251.688 60.572V62H252.976V54.328H251.688V55.728C251.24 54.93 250.26 54.202 248.832 54.202C246.774 54.202 245.192 55.742 245.192 58.136ZM251.688 58.15C251.688 59.956 250.484 61.006 249.084 61.006C247.684 61.006 246.494 59.942 246.494 58.136C246.494 56.33 247.684 55.308 249.084 55.308C250.484 55.308 251.688 56.372 251.688 58.15ZM254.653 58.15C254.653 60.586 256.207 62.126 258.391 62.126C260.295 62.126 261.541 61.062 261.933 59.536H260.561C260.281 60.502 259.525 61.048 258.391 61.048C256.991 61.048 255.955 60.054 255.955 58.15C255.955 56.274 256.991 55.28 258.391 55.28C259.525 55.28 260.295 55.868 260.561 56.792H261.933C261.541 55.182 260.295 54.202 258.391 54.202C256.207 54.202 254.653 55.742 254.653 58.15ZM256.697 52.802V53.754L259.679 52.158V51.052L256.697 52.802ZM266.889 58.15C266.889 60.586 268.443 62.126 270.627 62.126C272.531 62.126 273.777 61.062 274.169 59.536H272.797C272.517 60.502 271.761 61.048 270.627 61.048C269.227 61.048 268.191 60.054 268.191 58.15C268.191 56.274 269.227 55.28 270.627 55.28C271.761 55.28 272.531 55.868 272.797 56.792H274.169C273.777 55.182 272.531 54.202 270.627 54.202C268.443 54.202 266.889 55.742 266.889 58.15ZM280.559 54.328H275.393V55.364H279.089L275.365 60.95V62H280.587V60.95H276.821L280.559 55.364V54.328ZM281.764 58.136C281.764 60.516 283.346 62.126 285.39 62.126C286.804 62.126 287.798 61.398 288.26 60.572V62H289.548V54.328H288.26V55.728C287.812 54.93 286.832 54.202 285.404 54.202C283.346 54.202 281.764 55.742 281.764 58.136ZM288.26 58.15C288.26 59.956 287.056 61.006 285.656 61.006C284.256 61.006 283.066 59.942 283.066 58.136C283.066 56.33 284.256 55.308 285.656 55.308C287.056 55.308 288.26 56.372 288.26 58.15ZM297.217 59.914C297.161 57.17 292.709 58.164 292.709 56.344C292.709 55.728 293.269 55.28 294.207 55.28C295.229 55.28 295.817 55.84 295.873 56.61H297.147C297.063 55.112 295.943 54.202 294.249 54.202C292.541 54.202 291.435 55.168 291.435 56.344C291.435 59.2 295.971 58.206 295.971 59.914C295.971 60.544 295.411 61.048 294.403 61.048C293.325 61.048 292.667 60.488 292.597 59.746H291.281C291.365 61.146 292.625 62.126 294.417 62.126C296.111 62.126 297.217 61.174 297.217 59.914ZM297.909 64.002H298.764L300.332 60.236H298.932L297.909 64.002ZM305.047 58.136C305.047 60.516 306.629 62.126 308.687 62.126C310.087 62.126 311.081 61.412 311.543 60.558V62H312.831V51.64H311.543V55.7C311.011 54.818 309.905 54.202 308.701 54.202C306.629 54.202 305.047 55.742 305.047 58.136ZM311.543 58.15C311.543 59.956 310.339 61.006 308.939 61.006C307.539 61.006 306.349 59.942 306.349 58.136C306.349 56.33 307.539 55.308 308.939 55.308C310.339 55.308 311.543 56.372 311.543 58.15ZM314.984 62H316.258V51.64H314.984V62ZM317.954 58.136C317.954 60.516 319.536 62.126 321.58 62.126C322.994 62.126 323.988 61.398 324.45 60.572V62H325.738V54.328H324.45V55.728C324.002 54.93 323.022 54.202 321.594 54.202C319.536 54.202 317.954 55.742 317.954 58.136ZM324.45 58.15C324.45 59.956 323.246 61.006 321.846 61.006C320.446 61.006 319.256 59.942 319.256 58.136C319.256 56.33 320.446 55.308 321.846 55.308C323.246 55.308 324.45 56.372 324.45 58.15ZM328.171 59.9C328.171 61.44 328.941 62 330.299 62H331.447V60.922H330.508C329.725 60.922 329.445 60.656 329.445 59.9V55.378H331.447V54.328H329.445V52.396H328.171V54.328H327.177V55.378H328.171V59.9ZM336.252 55.28C337.568 55.28 338.688 56.106 338.674 57.604H333.83C333.97 56.106 335.006 55.28 336.252 55.28ZM339.836 59.634H338.464C338.184 60.46 337.456 61.048 336.308 61.048C335.006 61.048 333.914 60.194 333.816 58.64H339.948C339.976 58.374 339.99 58.15 339.99 57.87C339.99 55.77 338.534 54.202 336.308 54.202C334.068 54.202 332.514 55.728 332.514 58.15C332.514 60.586 334.124 62.126 336.308 62.126C338.212 62.126 339.444 61.034 339.836 59.634ZM341.196 58.136C341.196 60.516 342.778 62.126 344.836 62.126C346.236 62.126 347.23 61.384 347.692 60.558V62.168C347.692 63.806 346.67 64.674 345.312 64.674C344.052 64.674 343.142 64.044 342.862 63.12H341.602C341.854 64.758 343.296 65.78 345.312 65.78C347.566 65.78 348.98 64.282 348.98 62.168V54.328H347.692V55.728C347.244 54.902 346.236 54.202 344.836 54.202C342.778 54.202 341.196 55.742 341.196 58.136ZM347.692 58.15C347.692 59.956 346.488 61.006 345.088 61.006C343.688 61.006 342.498 59.942 342.498 58.136C342.498 56.33 343.688 55.308 345.088 55.308C346.488 55.308 347.692 56.372 347.692 58.15ZM358.413 58.15C358.413 55.728 356.719 54.202 354.535 54.202C352.365 54.202 350.657 55.728 350.657 58.15C350.657 60.586 352.309 62.126 354.479 62.126C356.663 62.126 358.413 60.586 358.413 58.15ZM351.959 58.15C351.959 56.218 353.177 55.308 354.521 55.308C355.837 55.308 357.111 56.218 357.111 58.15C357.111 60.096 355.809 61.006 354.479 61.006C353.149 61.006 351.959 60.096 351.959 58.15ZM363.344 58.15C363.344 60.586 364.898 62.126 367.082 62.126C368.986 62.126 370.232 61.062 370.624 59.536H369.252C368.972 60.502 368.216 61.048 367.082 61.048C365.682 61.048 364.646 60.054 364.646 58.15C364.646 56.274 365.682 55.28 367.082 55.28C368.216 55.28 368.986 55.868 369.252 56.792H370.624C370.232 55.182 368.986 54.202 367.082 54.202C364.898 54.202 363.344 55.742 363.344 58.15ZM377.014 54.328H371.848V55.364H375.544L371.82 60.95V62H377.042V60.95H373.276L377.014 55.364V54.328ZM381.957 55.28C383.273 55.28 384.393 56.106 384.379 57.604H379.535C379.675 56.106 380.711 55.28 381.957 55.28ZM383.623 64.492V63.652C383.301 63.764 382.979 63.834 382.713 63.834C382.209 63.834 381.887 63.596 381.887 63.162C381.887 62.812 382.097 62.49 382.727 62.182L383.119 61.986C384.393 61.65 385.233 60.74 385.541 59.634H384.169C383.889 60.46 383.161 61.048 382.013 61.048C380.711 61.048 379.619 60.194 379.521 58.64H385.653C385.681 58.374 385.695 58.15 385.695 57.87C385.695 55.77 384.239 54.202 382.013 54.202C379.773 54.202 378.219 55.728 378.219 58.15C378.219 60.362 379.549 61.846 381.439 62.084C381.005 62.462 380.837 62.868 380.837 63.288C380.837 64.31 381.705 64.688 382.545 64.688C382.923 64.688 383.301 64.604 383.623 64.492ZM392.893 59.914C392.837 57.17 388.385 58.164 388.385 56.344C388.385 55.728 388.945 55.28 389.883 55.28C390.905 55.28 391.493 55.84 391.549 56.61H392.823C392.739 55.112 391.619 54.202 389.925 54.202C388.217 54.202 387.111 55.168 387.111 56.344C387.111 59.2 391.647 58.206 391.647 59.914C391.647 60.544 391.087 61.048 390.079 61.048C389.001 61.048 388.343 60.488 388.273 59.746H386.957C387.041 61.146 388.301 62.126 390.093 62.126C391.787 62.126 392.893 61.174 392.893 59.914ZM394.971 59.9C394.971 61.44 395.741 62 397.099 62H398.247V60.922H397.309C396.525 60.922 396.245 60.656 396.245 59.9V55.378H398.247V54.328H396.245V52.396H394.971V54.328H393.977V55.378H394.971V59.9ZM407.071 58.15C407.071 55.728 405.377 54.202 403.193 54.202C401.023 54.202 399.315 55.728 399.315 58.15C399.315 60.586 400.967 62.126 403.137 62.126C405.321 62.126 407.071 60.586 407.071 58.15ZM400.617 58.15C400.617 56.218 401.835 55.308 403.179 55.308C404.495 55.308 405.769 56.218 405.769 58.15C405.769 60.096 404.467 61.006 403.137 61.006C401.807 61.006 400.617 60.096 400.617 58.15ZM2.35178 76.756V72.64H1.07778V83H2.35178V81.586C2.82778 82.426 3.82178 83.126 5.22178 83.126C7.27978 83.126 8.86178 81.516 8.86178 79.136C8.86178 76.742 7.29378 75.202 5.22178 75.202C3.86378 75.202 2.84178 75.902 2.35178 76.756ZM7.55978 79.136C7.55978 80.942 6.36978 82.006 4.95578 82.006C3.56978 82.006 2.35178 80.956 2.35178 79.15C2.35178 77.372 3.56978 76.308 4.95578 76.308C6.36978 76.308 7.55978 77.33 7.55978 79.136ZM10.5387 83H11.8127V75.328H10.5387V83ZM11.1967 74.082C11.6587 74.082 12.0367 73.704 12.0367 73.214C12.0367 72.724 11.6587 72.346 11.1967 72.346C10.7067 72.346 10.3287 72.724 10.3287 73.214C10.3287 73.704 10.7067 74.082 11.1967 74.082ZM17.2461 76.28C18.5621 76.28 19.6821 77.106 19.6681 78.604H14.8241C14.964 77.106 16.0001 76.28 17.2461 76.28ZM20.8301 80.634H19.4581C19.1781 81.46 18.4501 82.048 17.3021 82.048C16.0001 82.048 14.9081 81.194 14.8101 79.64H20.9421C20.9701 79.374 20.9841 79.15 20.9841 78.87C20.9841 76.77 19.5281 75.202 17.3021 75.202C15.0621 75.202 13.5081 76.728 13.5081 79.15C13.5081 81.586 15.1181 83.126 17.3021 83.126C19.2061 83.126 20.4381 82.034 20.8301 80.634ZM22.1897 79.136C22.1897 81.516 23.7717 83.126 25.8297 83.126C27.2297 83.126 28.2237 82.384 28.6857 81.558V83.168C28.6857 84.806 27.6637 85.674 26.3057 85.674C25.0457 85.674 24.1357 85.044 23.8557 84.12H22.5957C22.8477 85.758 24.2897 86.78 26.3057 86.78C28.5597 86.78 29.9737 85.282 29.9737 83.168V75.328H28.6857V76.728C28.2377 75.902 27.2297 75.202 25.8297 75.202C23.7717 75.202 22.1897 76.742 22.1897 79.136ZM28.6857 79.15C28.6857 80.956 27.4817 82.006 26.0817 82.006C24.6817 82.006 23.4917 80.942 23.4917 79.136C23.4917 77.33 24.6817 76.308 26.0817 76.308C27.4817 76.308 28.6857 77.372 28.6857 79.15ZM31.6506 79.136C31.6506 81.516 33.2326 83.126 35.2766 83.126C36.6906 83.126 37.6846 82.398 38.1466 81.572V83H39.4346V75.328H38.1466V76.728C37.6986 75.93 36.7186 75.202 35.2906 75.202C33.2326 75.202 31.6506 76.742 31.6506 79.136ZM38.1466 79.15C38.1466 80.956 36.9426 82.006 35.5426 82.006C34.1426 82.006 32.9526 80.942 32.9526 79.136C32.9526 77.33 34.1426 76.308 35.5426 76.308C36.9426 76.308 38.1466 77.372 38.1466 79.15ZM46.818 83H48.134L49.982 76.91L51.83 83H53.146L55.54 75.328H54.28L52.544 81.782L50.682 75.328H49.38L47.476 81.768L45.712 75.328H44.41L46.818 83ZM58.0784 78.828C58.0784 77.05 59.0024 76.504 60.2204 76.504H60.5564V75.188C59.3384 75.188 58.5124 75.72 58.0784 76.574V75.328H56.8044V83H58.0784V78.828ZM61.551 79.136C61.551 81.516 63.133 83.126 65.177 83.126C66.591 83.126 67.585 82.398 68.047 81.572V83H69.335V75.328H68.047V76.728C67.599 75.93 66.619 75.202 65.191 75.202C63.133 75.202 61.551 76.742 61.551 79.136ZM68.047 79.15C68.047 80.956 66.843 82.006 65.443 82.006C64.043 82.006 62.853 80.942 62.853 79.136C62.853 77.33 64.043 76.308 65.443 76.308C66.843 76.308 68.047 77.372 68.047 79.15ZM76.178 75.328H71.012V76.364H74.708L70.984 81.95V83H76.206V81.95H72.44L76.178 76.364V75.328ZM86.2815 75.328H81.1155V76.364H84.8115L81.0875 81.95V83H86.3095V81.95H82.5435L86.2815 76.364V75.328ZM91.2246 76.28C92.5406 76.28 93.6606 77.106 93.6466 78.604H88.8026C88.9426 77.106 89.9786 76.28 91.2246 76.28ZM94.8086 80.634H93.4366C93.1566 81.46 92.4286 82.048 91.2806 82.048C89.9786 82.048 88.8866 81.194 88.7886 79.64H94.9206C94.9486 79.374 94.9626 79.15 94.9626 78.87C94.9626 76.77 93.5066 75.202 91.2806 75.202C89.0406 75.202 87.4866 76.728 87.4866 79.15C87.4866 81.586 89.0966 83.126 91.2806 83.126C93.1846 83.126 94.4166 82.034 94.8086 80.634ZM105.893 80.914C105.837 78.17 101.385 79.164 101.385 77.344C101.385 76.728 101.945 76.28 102.883 76.28C103.905 76.28 104.493 76.84 104.549 77.61H105.823C105.739 76.112 104.619 75.202 102.925 75.202C101.217 75.202 100.111 76.168 100.111 77.344C100.111 80.2 104.647 79.206 104.647 80.914C104.647 81.544 104.087 82.048 103.079 82.048C102.001 82.048 101.343 81.488 101.273 80.746H99.9566C100.041 82.146 101.301 83.126 103.093 83.126C104.787 83.126 105.893 82.174 105.893 80.914ZM109.189 83H110.505L112.353 76.91L114.201 83H115.517L117.911 75.328H116.651L114.915 81.782L113.053 75.328H111.751L109.847 81.768L108.083 75.328H106.781L109.189 83ZM126.456 79.15C126.456 76.728 124.762 75.202 122.578 75.202C120.408 75.202 118.7 76.728 118.7 79.15C118.7 81.586 120.352 83.126 122.522 83.126C124.706 83.126 126.456 81.586 126.456 79.15ZM120.002 79.15C120.002 77.218 121.22 76.308 122.564 76.308C123.88 76.308 125.154 77.218 125.154 79.15C125.154 81.096 123.852 82.006 122.522 82.006C121.192 82.006 120.002 81.096 120.002 79.15ZM128.131 83H129.405V75.328H128.131V83ZM128.789 74.082C129.251 74.082 129.629 73.704 129.629 73.214C129.629 72.724 129.251 72.346 128.789 72.346C128.299 72.346 127.921 72.724 127.921 73.214C127.921 73.704 128.299 74.082 128.789 74.082ZM142.65 83H143.91V78.478C143.91 76.28 142.552 75.188 140.802 75.188C139.626 75.188 138.534 75.79 138.086 76.896C137.582 75.748 136.532 75.188 135.272 75.188C134.264 75.188 133.354 75.622 132.85 76.434V75.328H131.576V83H132.85V78.772C132.85 77.12 133.732 76.294 135.02 76.294C136.28 76.294 137.12 77.092 137.12 78.66V83H138.38V78.772C138.38 77.12 139.262 76.294 140.55 76.294C141.81 76.294 142.65 77.092 142.65 78.66V83ZM151.006 76.742V75.328H149.732V86.64H151.006V81.586C151.482 82.37 152.476 83.126 153.876 83.126C155.934 83.126 157.516 81.516 157.516 79.136C157.516 76.742 155.934 75.202 153.876 75.202C152.476 75.202 151.468 75.93 151.006 76.742ZM156.214 79.136C156.214 80.942 155.024 82.006 153.61 82.006C152.224 82.006 151.006 80.956 151.006 79.15C151.006 77.372 152.224 76.308 153.61 76.308C155.024 76.308 156.214 77.33 156.214 79.136ZM164.709 80.914C164.653 78.17 160.201 79.164 160.201 77.344C160.201 76.728 160.761 76.28 161.699 76.28C162.721 76.28 163.309 76.84 163.365 77.61H164.639C164.555 76.112 163.435 75.202 161.741 75.202C160.033 75.202 158.927 76.168 158.927 77.344C158.927 80.2 163.463 79.206 163.463 80.914C163.463 81.544 162.903 82.048 161.895 82.048C160.817 82.048 160.159 81.488 160.089 80.746H158.773C158.857 82.146 160.117 83.126 161.909 83.126C163.603 83.126 164.709 82.174 164.709 80.914ZM169.77 76.28C171.086 76.28 172.206 77.106 172.192 78.604H167.348C167.488 77.106 168.524 76.28 169.77 76.28ZM173.354 80.634H171.982C171.702 81.46 170.974 82.048 169.826 82.048C168.524 82.048 167.432 81.194 167.334 79.64H173.466C173.494 79.374 173.508 79.15 173.508 78.87C173.508 76.77 172.052 75.202 169.826 75.202C167.586 75.202 166.032 76.728 166.032 79.15C166.032 81.586 167.642 83.126 169.826 83.126C171.73 83.126 172.962 82.034 173.354 80.634ZM186.263 83H187.523V78.478C187.523 76.28 186.165 75.188 184.415 75.188C183.239 75.188 182.147 75.79 181.699 76.896C181.195 75.748 180.145 75.188 178.885 75.188C177.877 75.188 176.967 75.622 176.463 76.434V75.328H175.189V83H176.463V78.772C176.463 77.12 177.345 76.294 178.633 76.294C179.893 76.294 180.733 77.092 180.733 78.66V83H181.993V78.772C181.993 77.12 182.875 76.294 184.163 76.294C185.423 76.294 186.263 77.092 186.263 78.66V83ZM190.859 82.216C190.859 81.726 190.481 81.348 190.019 81.348C189.529 81.348 189.151 81.726 189.151 82.216C189.151 82.706 189.529 83.084 190.019 83.084C190.481 83.084 190.859 82.706 190.859 82.216ZM199.323 73.242H196.285V83H199.323C202.529 83 204.503 81.166 204.503 78.142C204.503 75.118 202.529 73.242 199.323 73.242ZM197.559 81.95V74.278H199.323C201.871 74.278 203.201 75.762 203.201 78.142C203.201 80.522 201.871 81.95 199.323 81.95H197.559ZM213.463 79.15C213.463 76.728 211.769 75.202 209.585 75.202C207.415 75.202 205.707 76.728 205.707 79.15C205.707 81.586 207.359 83.126 209.529 83.126C211.713 83.126 213.463 81.586 213.463 79.15ZM207.009 79.15C207.009 77.218 208.227 76.308 209.571 76.308C210.887 76.308 212.161 77.218 212.161 79.15C212.161 81.096 210.859 82.006 209.529 82.006C208.199 82.006 207.009 81.096 207.009 79.15ZM223.561 75.328H218.395V76.364H222.091L218.367 81.95V83H223.589V81.95H219.823L223.561 76.364V75.328ZM230.856 83H232.116V78.478C232.116 76.28 230.758 75.188 228.98 75.188C227.944 75.188 227.02 75.622 226.516 76.42V75.328H225.242V83H226.516V78.758C226.516 77.106 227.412 76.294 228.714 76.294C230.002 76.294 230.856 77.092 230.856 78.66V83ZM233.721 79.136C233.721 81.516 235.303 83.126 237.347 83.126C238.761 83.126 239.755 82.398 240.217 81.572V83H241.505V75.328H240.217V76.728C239.769 75.93 238.789 75.202 237.361 75.202C235.303 75.202 233.721 76.742 233.721 79.136ZM240.217 79.15C240.217 80.956 239.013 82.006 237.613 82.006C236.213 82.006 235.023 80.942 235.023 79.136C235.023 77.33 236.213 76.308 237.613 76.308C239.013 76.308 240.217 77.372 240.217 79.15ZM243.658 83H244.932V72.64H243.658V83ZM250.365 76.28C251.681 76.28 252.801 77.106 252.787 78.604H247.943C248.083 77.106 249.119 76.28 250.365 76.28ZM253.949 80.634H252.577C252.297 81.46 251.569 82.048 250.421 82.048C249.119 82.048 248.027 81.194 247.929 79.64H254.061C254.089 79.374 254.103 79.15 254.103 78.87C254.103 76.77 252.647 75.202 250.421 75.202C248.181 75.202 246.627 76.728 246.627 79.15C246.627 81.586 248.237 83.126 250.421 83.126C252.325 83.126 253.557 82.034 253.949 80.634ZM260.475 75.328H255.309V76.364H259.005L255.281 81.95V83H260.503V81.95H256.737L260.475 76.364V75.328ZM262.156 83H263.43V75.328H262.156V83ZM262.814 74.082C263.276 74.082 263.654 73.704 263.654 73.214C263.654 72.724 263.276 72.346 262.814 72.346C262.324 72.346 261.946 72.724 261.946 73.214C261.946 73.704 262.324 74.082 262.814 74.082ZM268.863 76.28C270.179 76.28 271.299 77.106 271.285 78.604H266.441C266.581 77.106 267.617 76.28 268.863 76.28ZM272.447 80.634H271.075C270.795 81.46 270.067 82.048 268.919 82.048C267.617 82.048 266.525 81.194 266.427 79.64H272.559C272.587 79.374 272.601 79.15 272.601 78.87C272.601 76.77 271.145 75.202 268.919 75.202C266.679 75.202 265.125 76.728 265.125 79.15C265.125 81.586 266.735 83.126 268.919 83.126C270.823 83.126 272.055 82.034 272.447 80.634ZM279.897 83H281.157V78.478C281.157 76.28 279.799 75.188 278.021 75.188C276.985 75.188 276.061 75.622 275.557 76.42V75.328H274.283V83H275.557V78.758C275.557 77.106 276.453 76.294 277.755 76.294C279.043 76.294 279.897 77.092 279.897 78.66V83ZM283.238 83H284.512V75.328H283.238V83ZM283.896 74.082C284.358 74.082 284.736 73.704 284.736 73.214C284.736 72.724 284.358 72.346 283.896 72.346C283.406 72.346 283.028 72.724 283.028 73.214C283.028 73.704 283.406 74.082 283.896 74.082ZM286.207 79.136C286.207 81.516 287.789 83.126 289.833 83.126C291.247 83.126 292.241 82.398 292.703 81.572V83H293.991V75.328H292.703V76.728C292.255 75.93 291.275 75.202 289.847 75.202C287.789 75.202 286.207 76.742 286.207 79.136ZM292.703 79.15C292.703 80.956 291.499 82.006 290.099 82.006C288.699 82.006 287.509 80.942 287.509 79.136C287.509 77.33 288.699 76.308 290.099 76.308C291.499 76.308 292.703 77.372 292.703 79.15ZM299.401 79.15C299.401 81.586 300.955 83.126 303.139 83.126C305.043 83.126 306.289 82.062 306.681 80.536H305.309C305.029 81.502 304.273 82.048 303.139 82.048C301.739 82.048 300.703 81.054 300.703 79.15C300.703 77.274 301.739 76.28 303.139 76.28C304.273 76.28 305.043 76.868 305.309 77.792H306.681C306.289 76.182 305.043 75.202 303.139 75.202C300.955 75.202 299.401 76.742 299.401 79.15ZM308.381 83H309.655V75.328H308.381V83ZM309.039 74.082C309.501 74.082 309.879 73.704 309.879 73.214C309.879 72.724 309.501 72.346 309.039 72.346C308.549 72.346 308.171 72.724 308.171 73.214C308.171 73.704 308.549 74.082 309.039 74.082ZM315.088 76.28C316.404 76.28 317.524 77.106 317.51 78.604H312.666C312.806 77.106 313.842 76.28 315.088 76.28ZM318.672 80.634H317.3C317.02 81.46 316.292 82.048 315.144 82.048C313.842 82.048 312.75 81.194 312.652 79.64H318.784C318.812 79.374 318.826 79.15 318.826 78.87C318.826 76.77 317.37 75.202 315.144 75.202C312.904 75.202 311.35 76.728 311.35 79.15C311.35 81.586 312.96 83.126 315.144 83.126C317.048 83.126 318.28 82.034 318.672 80.634ZM320.508 83H321.782V79.612L324.792 83H326.528L322.902 79.15L326.514 75.328H324.736L321.782 78.73V72.64H320.508V83ZM327.237 79.136C327.237 81.516 328.819 83.126 330.863 83.126C332.277 83.126 333.271 82.398 333.733 81.572V83H335.021V75.328H333.733V76.728C333.285 75.93 332.305 75.202 330.877 75.202C328.819 75.202 327.237 76.742 327.237 79.136ZM333.733 79.15C333.733 80.956 332.529 82.006 331.129 82.006C329.729 82.006 328.539 80.942 328.539 79.136C328.539 77.33 329.729 76.308 331.129 76.308C332.529 76.308 333.733 77.372 333.733 79.15ZM338.672 83H339.988L341.836 76.91L343.684 83H345L347.394 75.328H346.134L344.398 81.782L342.536 75.328H341.234L339.33 81.768L337.566 75.328H336.264L338.672 83ZM351.57 81.544L349.162 75.328H347.748L350.842 82.916L349.33 86.612H350.646L355.266 75.328H353.95L351.57 81.544ZM356.071 79.15C356.071 81.586 357.625 83.126 359.809 83.126C361.713 83.126 362.959 82.062 363.351 80.536H361.979C361.699 81.502 360.943 82.048 359.809 82.048C358.409 82.048 357.373 81.054 357.373 79.15C357.373 77.274 358.409 76.28 359.809 76.28C360.943 76.28 361.713 76.868 361.979 77.792H363.351C362.959 76.182 361.713 75.202 359.809 75.202C357.625 75.202 356.071 76.742 356.071 79.15ZM365.051 83H366.325V78.758C366.325 77.106 367.221 76.294 368.523 76.294C369.811 76.294 370.665 77.092 370.665 78.66V83H371.925V78.478C371.925 76.28 370.567 75.188 368.859 75.188C367.781 75.188 366.829 75.622 366.325 76.434V72.64H365.051V83ZM378.018 80.9C378.018 82.44 378.788 83 380.146 83H381.294V81.922H380.356C379.572 81.922 379.292 81.656 379.292 80.9V76.378H381.294V75.328H379.292V73.396H378.018V75.328H377.024V76.378H378.018V80.9ZM384.112 78.828C384.112 77.05 385.036 76.504 386.254 76.504H386.59V75.188C385.372 75.188 384.546 75.72 384.112 76.574V75.328H382.838V83H384.112V78.828ZM387.584 79.136C387.584 81.516 389.166 83.126 391.21 83.126C392.624 83.126 393.618 82.398 394.08 81.572V83H395.368V75.328H394.08V76.728C393.632 75.93 392.652 75.202 391.224 75.202C389.166 75.202 387.584 76.742 387.584 79.136ZM394.08 79.15C394.08 80.956 392.876 82.006 391.476 82.006C390.076 82.006 388.886 80.942 388.886 79.136C388.886 77.33 390.076 76.308 391.476 76.308C392.876 76.308 394.08 77.372 394.08 79.15ZM403.037 80.914C402.981 78.17 398.529 79.164 398.529 77.344C398.529 76.728 399.089 76.28 400.027 76.28C401.049 76.28 401.637 76.84 401.693 77.61H402.967C402.883 76.112 401.763 75.202 400.069 75.202C398.361 75.202 397.255 76.168 397.255 77.344C397.255 80.2 401.791 79.206 401.791 80.914C401.791 81.544 401.231 82.048 400.223 82.048C399.145 82.048 398.487 81.488 398.417 80.746H397.101C397.185 82.146 398.445 83.126 400.237 83.126C401.931 83.126 403.037 82.174 403.037 80.914ZM8.35778 100.15C8.35778 97.728 6.66378 96.202 4.47978 96.202C2.30978 96.202 0.601777 97.728 0.601777 100.15C0.601777 102.586 2.25378 104.126 4.42378 104.126C6.60778 104.126 8.35778 102.586 8.35778 100.15ZM1.90378 100.15C1.90378 98.218 3.12178 97.308 4.46578 97.308C5.78178 97.308 7.05578 98.218 7.05578 100.15C7.05578 102.096 5.75378 103.006 4.42378 103.006C3.09378 103.006 1.90378 102.096 1.90378 100.15ZM9.55686 100.136C9.55686 102.516 11.1389 104.126 13.1969 104.126C14.5969 104.126 15.5909 103.412 16.0529 102.558V104H17.3409V93.64H16.0529V97.7C15.5209 96.818 14.4149 96.202 13.2109 96.202C11.1389 96.202 9.55686 97.742 9.55686 100.136ZM16.0529 100.15C16.0529 101.956 14.8489 103.006 13.4489 103.006C12.0489 103.006 10.8589 101.942 10.8589 100.136C10.8589 98.33 12.0489 97.308 13.4489 97.308C14.8489 97.308 16.0529 98.372 16.0529 100.15ZM20.7678 97.742V96.328H19.4938V107.64H20.7678V102.586C21.2438 103.37 22.2378 104.126 23.6378 104.126C25.6958 104.126 27.2778 102.516 27.2778 100.136C27.2778 97.742 25.6958 96.202 23.6378 96.202C22.2378 96.202 21.2298 96.93 20.7678 97.742ZM25.9758 100.136C25.9758 101.942 24.7858 103.006 23.3718 103.006C21.9858 103.006 20.7678 101.956 20.7678 100.15C20.7678 98.372 21.9858 97.308 23.3718 97.308C24.7858 97.308 25.9758 98.33 25.9758 100.136ZM36.2348 100.15C36.2348 97.728 34.5408 96.202 32.3568 96.202C30.1868 96.202 28.4788 97.728 28.4788 100.15C28.4788 102.586 30.1308 104.126 32.3008 104.126C34.4848 104.126 36.2348 102.586 36.2348 100.15ZM29.7808 100.15C29.7808 98.218 30.9988 97.308 32.3428 97.308C33.6588 97.308 34.9328 98.218 34.9328 100.15C34.9328 102.096 33.6308 103.006 32.3008 103.006C30.9708 103.006 29.7808 102.096 29.7808 100.15ZM39.4078 104H40.7238L42.5718 97.91L44.4198 104H45.7358L48.1298 96.328H46.8698L45.1338 102.782L43.2718 96.328H41.9698L40.0658 102.768L38.3018 96.328H36.9998L39.4078 104ZM49.3942 104H50.6682V96.328H49.3942V104ZM50.0522 95.082C50.5142 95.082 50.8922 94.704 50.8922 94.214C50.8922 93.724 50.5142 93.346 50.0522 93.346C49.5622 93.346 49.1842 93.724 49.1842 94.214C49.1842 94.704 49.5622 95.082 50.0522 95.082ZM56.1015 97.28C57.4175 97.28 58.5375 98.106 58.5235 99.604H53.6795C53.8195 98.106 54.8555 97.28 56.1015 97.28ZM59.6855 101.634H58.3135C58.0335 102.46 57.3055 103.048 56.1575 103.048C54.8555 103.048 53.7635 102.194 53.6655 100.64H59.7975C59.8255 100.374 59.8395 100.15 59.8395 99.87C59.8395 97.77 58.3835 96.202 56.1575 96.202C53.9175 96.202 52.3635 97.728 52.3635 100.15C52.3635 102.586 53.9735 104.126 56.1575 104.126C58.0615 104.126 59.2935 103.034 59.6855 101.634ZM61.0452 100.136C61.0452 102.516 62.6272 104.126 64.6852 104.126C66.0852 104.126 67.0792 103.412 67.5412 102.558V104H68.8292V93.64H67.5412V97.7C67.0092 96.818 65.9032 96.202 64.6992 96.202C62.6272 96.202 61.0452 97.742 61.0452 100.136ZM67.5412 100.15C67.5412 101.956 66.3372 103.006 64.9372 103.006C63.5372 103.006 62.3472 101.942 62.3472 100.136C62.3472 98.33 63.5372 97.308 64.9372 97.308C66.3372 97.308 67.5412 98.372 67.5412 100.15ZM76.5961 104H77.8561V99.478C77.8561 97.28 76.4981 96.188 74.7201 96.188C73.6841 96.188 72.7601 96.622 72.2561 97.42V96.328H70.9821V104H72.2561V99.758C72.2561 98.106 73.1521 97.294 74.4541 97.294C75.7421 97.294 76.5961 98.092 76.5961 99.66V104ZM79.9372 104H81.2112V96.328H79.9372V104ZM80.5952 95.082C81.0572 95.082 81.4352 94.704 81.4352 94.214C81.4352 93.724 81.0572 93.346 80.5952 93.346C80.1052 93.346 79.7272 93.724 79.7272 94.214C79.7272 94.704 80.1052 95.082 80.5952 95.082ZM82.9065 100.15C82.9065 102.586 84.4605 104.126 86.6445 104.126C88.5485 104.126 89.7945 103.062 90.1865 101.536H88.8145C88.5345 102.502 87.7785 103.048 86.6445 103.048C85.2445 103.048 84.2085 102.054 84.2085 100.15C84.2085 98.274 85.2445 97.28 86.6445 97.28C87.7785 97.28 88.5485 97.868 88.8145 98.792H90.1865C89.7945 97.182 88.5485 96.202 86.6445 96.202C84.4605 96.202 82.9065 97.742 82.9065 100.15ZM91.8864 104H93.1604V99.758C93.1604 98.106 94.0564 97.294 95.3584 97.294C96.6464 97.294 97.5004 98.092 97.5004 99.66V104H98.7604V99.478C98.7604 97.28 97.4024 96.188 95.6944 96.188C94.6164 96.188 93.6644 96.622 93.1604 97.434V93.64H91.8864V104ZM105.848 99.828C105.848 98.05 106.772 97.504 107.99 97.504H108.326V96.188C107.108 96.188 106.282 96.72 105.848 97.574V96.328H104.574V104H105.848V99.828ZM117.077 100.15C117.077 97.728 115.383 96.202 113.199 96.202C111.029 96.202 109.321 97.728 109.321 100.15C109.321 102.586 110.973 104.126 113.143 104.126C115.327 104.126 117.077 102.586 117.077 100.15ZM110.623 100.15C110.623 98.218 111.841 97.308 113.185 97.308C114.501 97.308 115.775 98.218 115.775 100.15C115.775 102.096 114.473 103.006 113.143 103.006C111.813 103.006 110.623 102.096 110.623 100.15ZM111.589 94.704V95.656L114.571 94.06V92.954L111.589 94.704ZM120.25 104H121.566L123.414 97.91L125.262 104H126.578L128.972 96.328H127.712L125.976 102.782L124.114 96.328H122.812L120.908 102.768L119.144 96.328H117.842L120.25 104ZM135.85 104H137.11V99.478C137.11 97.28 135.752 96.188 133.974 96.188C132.938 96.188 132.014 96.622 131.51 97.42V96.328H130.236V104H131.51V99.758C131.51 98.106 132.406 97.294 133.708 97.294C134.996 97.294 135.85 98.092 135.85 99.66V104ZM139.191 104H140.465V96.328H139.191V104ZM139.849 95.082C140.311 95.082 140.689 94.704 140.689 94.214C140.689 93.724 140.311 93.346 139.849 93.346C139.359 93.346 138.981 93.724 138.981 94.214C138.981 94.704 139.359 95.082 139.849 95.082ZM145.899 97.28C147.215 97.28 148.335 98.106 148.321 99.604H143.477C143.617 98.106 144.653 97.28 145.899 97.28ZM149.483 101.634H148.111C147.831 102.46 147.103 103.048 145.955 103.048C144.653 103.048 143.561 102.194 143.463 100.64H149.595C149.623 100.374 149.637 100.15 149.637 99.87C149.637 97.77 148.181 96.202 145.955 96.202C143.715 96.202 142.161 97.728 142.161 100.15C142.161 102.586 143.771 104.126 145.955 104.126C147.859 104.126 149.091 103.034 149.483 101.634ZM156.008 96.328H150.842V97.364H154.538L150.814 102.95V104H156.036V102.95H152.27L156.008 97.364V96.328ZM153.446 95.362C153.852 95.362 154.174 95.04 154.174 94.634C154.174 94.228 153.852 93.892 153.446 93.892C153.026 93.892 152.704 94.228 152.704 94.634C152.704 95.04 153.026 95.362 153.446 95.362ZM160.946 100.136C160.946 102.516 162.528 104.126 164.586 104.126C165.986 104.126 166.98 103.412 167.442 102.558V104H168.73V93.64H167.442V97.7C166.91 96.818 165.804 96.202 164.6 96.202C162.528 96.202 160.946 97.742 160.946 100.136ZM167.442 100.15C167.442 101.956 166.238 103.006 164.838 103.006C163.438 103.006 162.248 101.942 162.248 100.136C162.248 98.33 163.438 97.308 164.838 97.308C166.238 97.308 167.442 98.372 167.442 100.15ZM170.883 104H172.157V93.64H170.883V104ZM173.852 100.136C173.852 102.516 175.434 104.126 177.478 104.126C178.892 104.126 179.886 103.398 180.348 102.572V104H181.636V96.328H180.348V97.728C179.9 96.93 178.92 96.202 177.492 96.202C175.434 96.202 173.852 97.742 173.852 100.136ZM180.348 100.15C180.348 101.956 179.144 103.006 177.744 103.006C176.344 103.006 175.154 101.942 175.154 100.136C175.154 98.33 176.344 97.308 177.744 97.308C179.144 97.308 180.348 98.372 180.348 100.15ZM188.795 97.742V96.328H187.521V107.64H188.795V102.586C189.271 103.37 190.265 104.126 191.665 104.126C193.723 104.126 195.305 102.516 195.305 100.136C195.305 97.742 193.723 96.202 191.665 96.202C190.265 96.202 189.257 96.93 188.795 97.742ZM194.003 100.136C194.003 101.942 192.813 103.006 191.399 103.006C190.013 103.006 188.795 101.956 188.795 100.15C188.795 98.372 190.013 97.308 191.399 97.308C192.813 97.308 194.003 98.33 194.003 100.136ZM202.498 101.914C202.442 99.17 197.99 100.164 197.99 98.344C197.99 97.728 198.55 97.28 199.488 97.28C200.51 97.28 201.098 97.84 201.154 98.61H202.428C202.344 97.112 201.224 96.202 199.53 96.202C197.822 96.202 196.716 97.168 196.716 98.344C196.716 101.2 201.252 100.206 201.252 101.914C201.252 102.544 200.692 103.048 199.684 103.048C198.606 103.048 197.948 102.488 197.878 101.746H196.562C196.646 103.146 197.906 104.126 199.698 104.126C201.392 104.126 202.498 103.174 202.498 101.914ZM211.577 100.15C211.577 97.728 209.883 96.202 207.699 96.202C205.529 96.202 203.821 97.728 203.821 100.15C203.821 102.586 205.473 104.126 207.643 104.126C209.827 104.126 211.577 102.586 211.577 100.15ZM205.123 100.15C205.123 98.218 206.341 97.308 207.685 97.308C209.001 97.308 210.275 98.218 210.275 100.15C210.275 102.096 208.973 103.006 207.643 103.006C206.313 103.006 205.123 102.096 205.123 100.15ZM206.089 94.704V95.656L209.071 94.06V92.954L206.089 94.704ZM214.75 104H216.066L217.914 97.91L219.762 104H221.078L223.472 96.328H222.212L220.476 102.782L218.614 96.328H217.312L215.408 102.768L213.644 96.328H212.342L214.75 104ZM223.63 106.002H224.484L226.052 102.236H224.652L223.63 106.002ZM238.048 96.328H236.774V100.542C236.774 102.194 235.892 103.006 234.576 103.006C233.288 103.006 232.434 102.208 232.434 100.654V96.328H231.174V100.822C231.174 103.02 232.56 104.112 234.324 104.112C235.346 104.112 236.284 103.664 236.774 102.866V104H238.048V96.328ZM244.889 96.328H239.723V97.364H243.419L239.695 102.95V104H244.917V102.95H241.151L244.889 97.364V96.328ZM242.327 95.362C242.733 95.362 243.055 95.04 243.055 94.634C243.055 94.228 242.733 93.892 242.327 93.892C241.907 93.892 241.585 94.228 241.585 94.634C241.585 95.04 241.907 95.362 242.327 95.362ZM249.482 102.544L247.074 96.328H245.66L248.754 103.916L247.242 107.612H248.558L253.178 96.328H251.862L249.482 102.544ZM255.957 104H257.273L259.121 97.91L260.969 104H262.285L264.679 96.328H263.419L261.683 102.782L259.821 96.328H258.519L256.615 102.768L254.851 96.328H253.549L255.957 104ZM265.467 100.136C265.467 102.516 267.049 104.126 269.093 104.126C270.507 104.126 271.501 103.398 271.963 102.572V104H273.251V96.328H271.963V97.728C271.515 96.93 270.535 96.202 269.107 96.202C267.049 96.202 265.467 97.742 265.467 100.136ZM271.963 100.15C271.963 101.956 270.759 103.006 269.359 103.006C267.959 103.006 266.769 101.942 266.769 100.136C266.769 98.33 267.959 97.308 269.359 97.308C270.759 97.308 271.963 98.372 271.963 100.15ZM278.661 100.136C278.661 102.516 280.243 104.126 282.287 104.126C283.701 104.126 284.695 103.398 285.157 102.572V104H286.445V96.328H285.157V97.728C284.709 96.93 283.729 96.202 282.301 96.202C280.243 96.202 278.661 97.742 278.661 100.136ZM285.157 100.15C285.157 101.956 283.953 103.006 282.553 103.006C281.153 103.006 279.963 101.942 279.963 100.136C279.963 98.33 281.153 97.308 282.553 97.308C283.953 97.308 285.157 98.372 285.157 100.15ZM289.872 97.742V96.328H288.598V107.64H289.872V102.586C290.348 103.37 291.342 104.126 292.742 104.126C294.8 104.126 296.382 102.516 296.382 100.136C296.382 97.742 294.8 96.202 292.742 96.202C291.342 96.202 290.334 96.93 289.872 97.742ZM295.08 100.136C295.08 101.942 293.89 103.006 292.476 103.006C291.09 103.006 289.872 101.956 289.872 100.15C289.872 98.372 291.09 97.308 292.476 97.308C293.89 97.308 295.08 98.33 295.08 100.136ZM298.058 104H299.332V93.64H298.058V104ZM301.504 104H302.778V96.328H301.504V104ZM302.162 95.082C302.624 95.082 303.002 94.704 303.002 94.214C303.002 93.724 302.624 93.346 302.162 93.346C301.672 93.346 301.294 93.724 301.294 94.214C301.294 94.704 301.672 95.082 302.162 95.082ZM304.949 104H306.223V100.612L309.233 104H310.969L307.343 100.15L310.955 96.328H309.177L306.223 99.73V93.64H304.949V104ZM311.678 100.136C311.678 102.516 313.26 104.126 315.304 104.126C316.718 104.126 317.712 103.398 318.174 102.572V104H319.462V96.328H318.174V97.728C317.726 96.93 316.746 96.202 315.318 96.202C313.26 96.202 311.678 97.742 311.678 100.136ZM318.174 100.15C318.174 101.956 316.97 103.006 315.57 103.006C314.17 103.006 312.98 101.942 312.98 100.136C312.98 98.33 314.17 97.308 315.57 97.308C316.97 97.308 318.174 98.372 318.174 100.15ZM321.139 100.15C321.139 102.586 322.693 104.126 324.877 104.126C326.781 104.126 328.027 103.062 328.419 101.536H327.047C326.767 102.502 326.011 103.048 324.877 103.048C323.477 103.048 322.441 102.054 322.441 100.15C322.441 98.274 323.477 97.28 324.877 97.28C326.011 97.28 326.781 97.868 327.047 98.792H328.419C328.027 97.182 326.781 96.202 324.877 96.202C322.693 96.202 321.139 97.742 321.139 100.15ZM330.805 95.082C331.281 95.082 331.659 94.704 331.659 94.214C331.659 93.724 331.281 93.346 330.805 93.346C330.329 93.346 329.951 93.724 329.951 94.214C329.951 94.704 330.329 95.082 330.805 95.082ZM330.161 96.328V105.638C330.161 106.31 329.895 106.562 329.195 106.562H328.663V107.64H329.405C330.707 107.64 331.435 107.052 331.435 105.666V96.328H330.161ZM333.592 104H334.866V96.328H333.592V104ZM334.25 95.082C334.712 95.082 335.09 94.704 335.09 94.214C335.09 93.724 334.712 93.346 334.25 93.346C333.76 93.346 333.382 93.724 333.382 94.214C333.382 94.704 333.76 95.082 334.25 95.082ZM3.05178 125.014L4.46578 125L6.81778 117.146L9.08578 125H10.5138L13.3418 115.242H11.9698L9.82778 123.488L7.58778 115.242H6.15978L3.80778 123.516L1.67978 115.242H0.321777L3.05178 125.014ZM14.26 121.136C14.26 123.516 15.842 125.126 17.886 125.126C19.3 125.126 20.294 124.398 20.756 123.572V125H22.044V117.328H20.756V118.728C20.308 117.93 19.328 117.202 17.9 117.202C15.842 117.202 14.26 118.742 14.26 121.136ZM20.756 121.15C20.756 122.956 19.552 124.006 18.152 124.006C16.752 124.006 15.562 122.942 15.562 121.136C15.562 119.33 16.752 118.308 18.152 118.308C19.552 118.308 20.756 119.372 20.756 121.15ZM24.1969 125H25.4709V114.64H24.1969V125ZM27.6423 125H28.9163V121.612L31.9263 125H33.6623L30.0363 121.15L33.6483 117.328H31.8703L28.9163 120.73V114.64H27.6423V125ZM34.8473 125H36.1213V117.328H34.8473V125ZM35.5053 116.082C35.9673 116.082 36.3453 115.704 36.3453 115.214C36.3453 114.724 35.9673 114.346 35.5053 114.346C35.0153 114.346 34.6373 114.724 34.6373 115.214C34.6373 115.704 35.0153 116.082 35.5053 116.082ZM41.5546 118.28C42.8706 118.28 43.9906 119.106 43.9766 120.604H39.1326C39.2726 119.106 40.3086 118.28 41.5546 118.28ZM45.1386 122.634H43.7666C43.4866 123.46 42.7586 124.048 41.6106 124.048C40.3086 124.048 39.2166 123.194 39.1186 121.64H45.2506C45.2786 121.374 45.2926 121.15 45.2926 120.87C45.2926 118.77 43.8366 117.202 41.6106 117.202C39.3706 117.202 37.8166 118.728 37.8166 121.15C37.8166 123.586 39.4266 125.126 41.6106 125.126C43.5146 125.126 44.7466 124.034 45.1386 122.634ZM50.0123 115.242H46.9743V125H50.0123C53.2183 125 55.1923 123.166 55.1923 120.142C55.1923 117.118 53.2183 115.242 50.0123 115.242ZM48.2483 123.95V116.278H50.0123C52.5603 116.278 53.8903 117.762 53.8903 120.142C53.8903 122.522 52.5603 123.95 50.0123 123.95H48.2483ZM64.1527 121.15C64.1527 118.728 62.4587 117.202 60.2747 117.202C58.1047 117.202 56.3967 118.728 56.3967 121.15C56.3967 123.586 58.0487 125.126 60.2187 125.126C62.4027 125.126 64.1527 123.586 64.1527 121.15ZM57.6987 121.15C57.6987 119.218 58.9167 118.308 60.2607 118.308C61.5767 118.308 62.8507 119.218 62.8507 121.15C62.8507 123.096 61.5487 124.006 60.2187 124.006C58.8887 124.006 57.6987 123.096 57.6987 121.15ZM65.3518 121.136C65.3518 123.516 66.9338 125.126 68.9918 125.126C70.3918 125.126 71.3858 124.384 71.8478 123.558V125.168C71.8478 126.806 70.8258 127.674 69.4678 127.674C68.2078 127.674 67.2978 127.044 67.0178 126.12H65.7578C66.0098 127.758 67.4518 128.78 69.4678 128.78C71.7218 128.78 73.1358 127.282 73.1358 125.168V117.328H71.8478V118.728C71.3998 117.902 70.3918 117.202 68.9918 117.202C66.9338 117.202 65.3518 118.742 65.3518 121.136ZM71.8478 121.15C71.8478 122.956 70.6438 124.006 69.2438 124.006C67.8438 124.006 66.6538 122.942 66.6538 121.136C66.6538 119.33 67.8438 118.308 69.2438 118.308C70.6438 118.308 71.8478 119.372 71.8478 121.15ZM74.8127 121.136C74.8127 123.516 76.3947 125.126 78.4527 125.126C79.8527 125.126 80.8467 124.384 81.3087 123.558V125.168C81.3087 126.806 80.2867 127.674 78.9287 127.674C77.6687 127.674 76.7587 127.044 76.4787 126.12H75.2187C75.4707 127.758 76.9127 128.78 78.9287 128.78C81.1827 128.78 82.5967 127.282 82.5967 125.168V117.328H81.3087V118.728C80.8607 117.902 79.8527 117.202 78.4527 117.202C76.3947 117.202 74.8127 118.742 74.8127 121.136ZM81.3087 121.15C81.3087 122.956 80.1047 124.006 78.7047 124.006C77.3047 124.006 76.1147 122.942 76.1147 121.136C76.1147 119.33 77.3047 118.308 78.7047 118.308C80.1047 118.308 81.3087 119.372 81.3087 121.15ZM84.7497 125H86.0237V117.328H84.7497V125ZM85.4077 116.082C85.8697 116.082 86.2477 115.704 86.2477 115.214C86.2477 114.724 85.8697 114.346 85.4077 114.346C84.9177 114.346 84.5397 114.724 84.5397 115.214C84.5397 115.704 84.9177 116.082 85.4077 116.082ZM91.457 118.28C92.773 118.28 93.893 119.106 93.879 120.604H89.035C89.175 119.106 90.211 118.28 91.457 118.28ZM95.041 122.634H93.669C93.389 123.46 92.661 124.048 91.513 124.048C90.211 124.048 89.119 123.194 89.021 121.64H95.153C95.181 121.374 95.195 121.15 95.195 120.87C95.195 118.77 93.739 117.202 91.513 117.202C89.273 117.202 87.719 118.728 87.719 121.15C87.719 123.586 89.329 125.126 91.513 125.126C93.417 125.126 94.649 124.034 95.041 122.634ZM98.1226 124.216C98.1226 123.726 97.7446 123.348 97.2826 123.348C96.7926 123.348 96.4146 123.726 96.4146 124.216C96.4146 124.706 96.7926 125.084 97.2826 125.084C97.7446 125.084 98.1226 124.706 98.1226 124.216Z" fill="black"/>
</svg>
