<svg width="19" height="19" viewBox="0 0 19 19" fill="none" xmlns="http://www.w3.org/2000/svg">
<path d="M16.0822 0.5C16.6799 0.5 17.2072 0.746094 17.6642 1.16797C18.0861 1.625 18.3322 2.15234 18.3322 2.75V12.875C18.3322 13.5078 18.0861 14.0352 17.6642 14.457C17.2072 14.9141 16.6799 15.125 16.0822 15.125H11.0197L6.62518 18.4297C6.55487 18.5 6.4494 18.5 6.34393 18.5C6.23846 18.5 6.133 18.4648 6.06268 18.3945C5.99237 18.3242 5.95721 18.2188 5.95721 18.0781V15.125H2.58221C1.9494 15.125 1.42206 14.9141 1.00018 14.457C0.543152 14.0352 0.332214 13.5078 0.332214 12.875V2.75C0.332214 2.15234 0.543152 1.625 1.00018 1.16797C1.42206 0.746094 1.9494 0.5 2.58221 0.5H16.0822ZM17.2072 12.875V2.75C17.2072 2.46875 17.0666 2.1875 16.8557 1.97656C16.6447 1.76562 16.3635 1.625 16.0822 1.625H2.58221C2.26581 1.625 1.98456 1.76562 1.77362 1.97656C1.56268 2.1875 1.45721 2.46875 1.45721 2.75V12.875C1.45721 13.1914 1.56268 13.4727 1.77362 13.6836C1.98456 13.8945 2.26581 14 2.58221 14H7.08221V16.6719L10.633 14H16.0822C16.3635 14 16.6447 13.8945 16.8557 13.6836C17.0666 13.4727 17.2072 13.1914 17.2072 12.875Z" fill="#606770"/>
</svg>
