<svg width="94" height="19" viewBox="0 0 94 19" fill="none" xmlns="http://www.w3.org/2000/svg">
<path d="M9.032 18.144C7.368 18.144 5.864 17.776 4.52 17.04C3.192 16.304 2.144 15.288 1.376 13.992C0.624 12.68 0.248 11.216 0.248 9.6C0.248 7.984 0.624 6.528 1.376 5.232C2.144 3.92 3.2 2.896 4.544 2.16C5.888 1.424 7.392 1.056 9.056 1.056C10.304 1.056 11.456 1.264 12.512 1.68C13.568 2.096 14.464 2.704 15.2 3.504L14.072 4.632C12.76 3.304 11.104 2.64 9.104 2.64C7.776 2.64 6.568 2.944 5.48 3.552C4.392 4.16 3.536 4.992 2.912 6.048C2.304 7.104 2 8.288 2 9.6C2 10.912 2.304 12.096 2.912 13.152C3.536 14.208 4.392 15.04 5.48 15.648C6.568 16.256 7.776 16.56 9.104 16.56C11.12 16.56 12.776 15.888 14.072 14.544L15.2 15.672C14.464 16.472 13.56 17.088 12.488 17.52C11.432 17.936 10.28 18.144 9.032 18.144ZM29.5801 5.376V18H27.9481V15.696C27.5001 16.464 26.8841 17.064 26.1001 17.496C25.3161 17.912 24.4201 18.12 23.4121 18.12C21.7641 18.12 20.4601 17.664 19.5001 16.752C18.5561 15.824 18.0841 14.472 18.0841 12.696V5.376H19.7881V12.528C19.7881 13.856 20.1161 14.864 20.7721 15.552C21.4281 16.24 22.3641 16.584 23.5801 16.584C24.9081 16.584 25.9561 16.184 26.7241 15.384C27.4921 14.568 27.8761 13.44 27.8761 12V5.376H29.5801ZM35.9846 7.848C36.3846 7 36.9766 6.36 37.7606 5.928C38.5606 5.496 39.5446 5.28 40.7126 5.28V6.936L40.3046 6.912C38.9766 6.912 37.9366 7.32 37.1846 8.136C36.4326 8.952 36.0566 10.096 36.0566 11.568V18H34.3526V5.376H35.9846V7.848ZM48.1904 5.28C49.8384 5.28 51.1024 5.696 51.9824 6.528C52.8624 7.344 53.3024 8.56 53.3024 10.176V18H51.6704V16.032C51.2864 16.688 50.7184 17.2 49.9664 17.568C49.2304 17.936 48.3504 18.12 47.3264 18.12C45.9184 18.12 44.7984 17.784 43.9664 17.112C43.1344 16.44 42.7184 15.552 42.7184 14.448C42.7184 13.376 43.1024 12.512 43.8704 11.856C44.6544 11.2 45.8944 10.872 47.5904 10.872H51.5984V10.104C51.5984 9.016 51.2944 8.192 50.6864 7.632C50.0784 7.056 49.1904 6.768 48.0224 6.768C47.2224 6.768 46.4544 6.904 45.7184 7.176C44.9824 7.432 44.3504 7.792 43.8224 8.256L43.0544 6.984C43.6944 6.44 44.4624 6.024 45.3584 5.736C46.2544 5.432 47.1984 5.28 48.1904 5.28ZM47.5904 16.776C48.5504 16.776 49.3744 16.56 50.0624 16.128C50.7504 15.68 51.2624 15.04 51.5984 14.208V12.144H47.6384C45.4784 12.144 44.3984 12.896 44.3984 14.4C44.3984 15.136 44.6784 15.72 45.2384 16.152C45.7984 16.568 46.5824 16.776 47.5904 16.776ZM64.5787 17.232C64.2587 17.52 63.8587 17.744 63.3787 17.904C62.9147 18.048 62.4267 18.12 61.9147 18.12C60.7307 18.12 59.8187 17.8 59.1787 17.16C58.5387 16.52 58.2187 15.616 58.2187 14.448V6.816H55.9627V5.376H58.2187V2.616H59.9227V5.376H63.7627V6.816H59.9227V14.352C59.9227 15.104 60.1067 15.68 60.4747 16.08C60.8587 16.464 61.4027 16.656 62.1067 16.656C62.4587 16.656 62.7947 16.6 63.1147 16.488C63.4507 16.376 63.7387 16.216 63.9787 16.008L64.5787 17.232ZM78.2274 12.216H67.6674C67.7634 13.528 68.2674 14.592 69.1794 15.408C70.0914 16.208 71.2434 16.608 72.6354 16.608C73.4194 16.608 74.1394 16.472 74.7954 16.2C75.4514 15.912 76.0194 15.496 76.4994 14.952L77.4594 16.056C76.8994 16.728 76.1954 17.24 75.3474 17.592C74.5154 17.944 73.5954 18.12 72.5874 18.12C71.2914 18.12 70.1394 17.848 69.1314 17.304C68.1394 16.744 67.3634 15.976 66.8034 15C66.2434 14.024 65.9634 12.92 65.9634 11.688C65.9634 10.456 66.2274 9.352 66.7554 8.376C67.2994 7.4 68.0354 6.64 68.9634 6.096C69.9074 5.552 70.9634 5.28 72.1314 5.28C73.2994 5.28 74.3474 5.552 75.2754 6.096C76.2034 6.64 76.9314 7.4 77.4594 8.376C77.9874 9.336 78.2514 10.44 78.2514 11.688L78.2274 12.216ZM72.1314 6.744C70.9154 6.744 69.8914 7.136 69.0594 7.92C68.2434 8.688 67.7794 9.696 67.6674 10.944H76.6194C76.5074 9.696 76.0354 8.688 75.2034 7.92C74.3874 7.136 73.3634 6.744 72.1314 6.744ZM93.2398 0.191999V18H91.6078V15.504C91.0958 16.352 90.4158 17 89.5678 17.448C88.7358 17.896 87.7918 18.12 86.7358 18.12C85.5518 18.12 84.4798 17.848 83.5198 17.304C82.5598 16.76 81.8078 16 81.2638 15.024C80.7198 14.048 80.4478 12.936 80.4478 11.688C80.4478 10.44 80.7198 9.328 81.2638 8.352C81.8078 7.376 82.5598 6.624 83.5198 6.096C84.4798 5.552 85.5518 5.28 86.7358 5.28C87.7598 5.28 88.6798 5.496 89.4958 5.928C90.3278 6.344 91.0078 6.96 91.5358 7.776V0.191999H93.2398ZM86.8798 16.608C87.7598 16.608 88.5518 16.408 89.2558 16.008C89.9758 15.592 90.5358 15.008 90.9358 14.256C91.3518 13.504 91.5598 12.648 91.5598 11.688C91.5598 10.728 91.3518 9.872 90.9358 9.12C90.5358 8.368 89.9758 7.792 89.2558 7.392C88.5518 6.976 87.7598 6.768 86.8798 6.768C85.9838 6.768 85.1758 6.976 84.4558 7.392C83.7518 7.792 83.1918 8.368 82.7758 9.12C82.3758 9.872 82.1758 10.728 82.1758 11.688C82.1758 12.648 82.3758 13.504 82.7758 14.256C83.1918 15.008 83.7518 15.592 84.4558 16.008C85.1758 16.408 85.9838 16.608 86.8798 16.608Z" fill="#363636"/>
</svg>
