<svg width="30" height="7" viewBox="0 0 30 7" fill="none" xmlns="http://www.w3.org/2000/svg">
<path d="M18.3333 3.33333C18.3333 2.43056 17.9861 1.66667 17.3611 0.972222C16.6667 0.347222 15.9028 0 15 0C14.0278 0 13.2639 0.347222 12.6389 0.972222C11.9444 1.66667 11.6667 2.43056 11.6667 3.33333C11.6667 4.30556 11.9444 5.06944 12.6389 5.69444C13.2639 6.38889 14.0278 6.66667 15 6.66667C15.9028 6.66667 16.6667 6.38889 17.3611 5.69444C17.9861 5.06944 18.3333 4.30556 18.3333 3.33333ZM26.6667 0C27.5694 0 28.3333 0.347222 29.0278 0.972222C29.6528 1.66667 30 2.43056 30 3.33333C30 4.30556 29.6528 5.06944 29.0278 5.69444C28.3333 6.38889 27.5694 6.66667 26.6667 6.66667C25.6944 6.66667 24.9306 6.38889 24.3056 5.69444C23.6111 5.06944 23.3333 4.30556 23.3333 3.33333C23.3333 2.43056 23.6111 1.66667 24.3056 0.972222C24.9306 0.347222 25.6944 0 26.6667 0ZM3.33333 0C4.23611 0 5 0.347222 5.69444 0.972222C6.31944 1.66667 6.66667 2.43056 6.66667 3.33333C6.66667 4.30556 6.31944 5.06944 5.69444 5.69444C5 6.38889 4.23611 6.66667 3.33333 6.66667C2.36111 6.66667 1.59722 6.38889 0.972222 5.69444C0.277778 5.06944 0 4.30556 0 3.33333C0 2.43056 0.277778 1.66667 0.972222 0.972222C1.59722 0.347222 2.36111 0 3.33333 0Z" fill="#606770"/>
</svg>
