<svg width="18" height="19" viewBox="0 0 18 19" fill="none" xmlns="http://www.w3.org/2000/svg">
<path d="M17.4727 10.5547C17.543 10.9766 17.5781 11.3984 17.5078 11.8203C17.4375 12.2773 17.332 12.6641 17.1211 12.9805C17.1914 13.4023 17.1562 13.8242 17.0508 14.2461C16.9102 14.668 16.7344 15.0547 16.4883 15.3359C16.4883 16.3203 16.2422 17.0938 15.6797 17.6562C15.1172 18.2188 14.3086 18.5 13.2891 18.5H11.8477C11.1445 18.5 10.3711 18.3945 9.52734 18.1836C9.03516 18.0781 8.33203 17.8672 7.48828 17.5508L6.43359 17.1992C6.08203 17.1289 5.83594 17.0586 5.625 17.0586V17.375C5.625 17.6914 5.48438 17.9727 5.27344 18.1836C5.0625 18.3945 4.78125 18.5 4.5 18.5H1.125C0.808594 18.5 0.527344 18.3945 0.316406 18.1836C0.105469 17.9727 0 17.6914 0 17.375V8.375C0 8.09375 0.105469 7.8125 0.316406 7.60156C0.527344 7.39062 0.808594 7.25 1.125 7.25H4.5C4.88672 7.25 5.20312 7.42578 5.41406 7.74219C5.51953 7.74219 5.625 7.70703 5.69531 7.67188C5.90625 7.56641 6.15234 7.32031 6.50391 6.93359C6.71484 6.72266 7.03125 6.33594 7.45312 5.77344C7.94531 5.07031 8.33203 4.61328 8.57812 4.40234C8.71875 4.26172 8.82422 4.05078 8.92969 3.73438C9 3.55859 9.07031 3.27734 9.14062 2.85547C9.42188 1.30859 9.98438 0.5 10.793 0.5C11.7773 0.5 12.5156 0.78125 13.0078 1.34375C13.4648 1.90625 13.7109 2.71484 13.7109 3.76953C13.7109 4.22656 13.6406 4.68359 13.5 5.10547C13.3945 5.38672 13.2539 5.70312 13.043 6.125L12.9727 6.23047H15.4336C16.1367 6.23047 16.7344 6.51172 17.2266 7.00391C17.7188 7.53125 18 8.12891 18 8.83203C18 9.53516 17.8242 10.0977 17.4727 10.5547ZM1.125 17.375H4.5V8.375H1.125V17.375ZM16.0312 10.2031C16.3125 10.1328 16.5234 9.99219 16.6641 9.71094C16.8047 9.46484 16.875 9.14844 16.875 8.79688C16.875 8.44531 16.7344 8.09375 16.4531 7.8125C16.1719 7.53125 15.8203 7.35547 15.4336 7.35547H11.4961C11.4961 7.03906 11.5312 6.72266 11.6719 6.40625C11.7422 6.23047 11.8477 5.94922 12.0234 5.59766C12.1992 5.24609 12.3398 4.96484 12.4102 4.75391C12.5156 4.4375 12.5859 4.12109 12.5859 3.76953C12.5859 3.13672 12.4805 2.64453 12.3398 2.36328C12.0586 1.87109 11.5664 1.625 10.793 1.625C10.6523 1.76562 10.5117 1.97656 10.4414 2.25781C10.3711 2.43359 10.3008 2.71484 10.2305 3.06641C10.125 3.59375 10.0547 3.98047 9.98438 4.19141C9.80859 4.61328 9.59766 4.96484 9.35156 5.21094C9.10547 5.45703 8.71875 5.91406 8.22656 6.58203C7.66406 7.32031 7.24219 7.8125 6.96094 8.09375C6.46875 8.58594 6.01172 8.79688 5.625 8.79688V15.9336C5.90625 15.9336 6.25781 16.0039 6.67969 16.1094C6.92578 16.1797 7.34766 16.3203 7.94531 16.5312C8.71875 16.8125 9.35156 16.9883 9.77344 17.0938C10.5117 17.3047 11.2148 17.375 11.8477 17.375H13.2891C13.9922 17.375 14.5547 17.1992 14.9062 16.8125C15.293 16.3906 15.4336 15.7578 15.293 14.8789C15.6094 14.7383 15.8203 14.4219 15.9609 13.9648C16.1016 13.5078 16.0312 13.0859 15.8203 12.6992C16.0664 12.5938 16.2422 12.3477 16.3477 11.9961C16.418 11.6445 16.4531 11.293 16.3828 10.9414C16.3125 10.5898 16.207 10.3438 16.0312 10.2031ZM3.65625 15.6875C3.65625 15.4766 3.55078 15.2656 3.41016 15.0898C3.23438 14.9492 3.02344 14.8438 2.8125 14.8438C2.56641 14.8438 2.35547 14.9492 2.21484 15.0898C2.03906 15.2656 1.96875 15.4766 1.96875 15.6875C1.96875 15.9336 2.03906 16.1445 2.21484 16.2852C2.35547 16.4609 2.56641 16.5312 2.8125 16.5312C3.02344 16.5312 3.23438 16.4609 3.41016 16.2852C3.55078 16.1445 3.65625 15.9336 3.65625 15.6875Z" fill="#606770"/>
</svg>
