<svg width="19" height="19" viewBox="0 0 19 19" fill="none" xmlns="http://www.w3.org/2000/svg">
<path d="M18.3224 7.39149C18.5411 7.67277 18.6661 8.02438 18.6661 8.37598C18.6661 8.76275 18.5411 9.0792 18.3224 9.36048L12.8224 15.83C12.5724 16.1113 12.2599 16.252 11.9161 16.252C11.5724 16.252 11.2911 16.1465 11.0411 15.8652C10.7911 15.5839 10.6661 15.2675 10.6661 14.8455V11.7514C8.85361 11.7866 7.57236 11.892 6.79111 12.103C5.79111 12.3843 5.13486 12.9117 4.85361 13.6501C4.54111 14.4236 4.60361 15.5488 5.00986 17.0607C5.07236 17.4123 5.04111 17.6936 4.88486 17.9748C4.72861 18.2561 4.50986 18.3968 4.22861 18.4671C3.94736 18.5374 3.69736 18.5022 3.44736 18.2913C2.69736 17.6936 2.10361 16.9903 1.66611 16.1465C0.978607 14.951 0.666107 13.6149 0.666107 12.1382C0.666107 10.2395 1.13486 8.76275 2.10361 7.63761C2.91611 6.68827 4.16611 5.98506 5.79111 5.56313C7.04111 5.21153 8.66611 5.03572 10.6661 5.00056V1.90643C10.6661 1.51966 10.7911 1.20321 11.0411 0.921928C11.2911 0.640643 11.5724 0.5 11.9161 0.5C12.2599 0.5 12.5724 0.640643 12.8224 0.921928L18.3224 7.39149ZM17.6036 8.58695C17.6349 8.51663 17.6661 8.4463 17.6661 8.37598C17.6661 8.30566 17.6349 8.23534 17.6036 8.16502L12.1036 1.69546C12.0099 1.62514 11.9161 1.62514 11.8224 1.6603C11.6974 1.73062 11.6661 1.80094 11.6661 1.90643V6.1257C9.60361 6.1257 8.00986 6.23118 6.88486 6.44215C5.25986 6.72343 4.00986 7.286 3.16611 8.0947C2.16611 9.04403 1.66611 10.3801 1.66611 12.1382C1.66611 13.3336 1.91611 14.4236 2.44736 15.373C2.82236 16.1465 3.35361 16.8145 4.04111 17.3771C3.54111 15.3378 3.54111 13.8259 4.10361 12.7711C4.60361 11.8569 5.54111 11.2592 6.94736 10.9427C7.94736 10.7317 9.50986 10.6263 11.6661 10.6263V14.8455C11.6661 14.9862 11.6974 15.0565 11.8224 15.0917C11.9161 15.162 12.0099 15.1268 12.1036 15.0565L17.6036 8.58695Z" fill="#606770"/>
</svg>
